<?xml version="1.0" encoding="UTF-8" standalone="no"?>
<!-- Created with Inkscape (http://www.inkscape.org/) -->

<svg
   width="210mm"
   height="297mm"
   viewBox="0 0 210 297"
   version="1.1"
   id="svg1"
   inkscape:version="1.4 (86a8ad7, 2024-10-11)"
   sodipodi:docname="blackbook.svg"
   xmlns:inkscape="http://www.inkscape.org/namespaces/inkscape"
   xmlns:sodipodi="http://sodipodi.sourceforge.net/DTD/sodipodi-0.dtd"
   xmlns="http://www.w3.org/2000/svg"
   xmlns:svg="http://www.w3.org/2000/svg">
  <sodipodi:namedview
     id="namedview1"
     pagecolor="#ffffff"
     bordercolor="#000000"
     borderopacity="0.25"
     inkscape:showpageshadow="2"
     inkscape:pageopacity="0.0"
     inkscape:pagecheckerboard="0"
     inkscape:deskcolor="#d1d1d1"
     inkscape:document-units="mm"
     showguides="true"
     inkscape:lockguides="true"
     inkscape:zoom="0.49264169"
     inkscape:cx="550.09554"
     inkscape:cy="630.27552"
     inkscape:window-width="1261"
     inkscape:window-height="755"
     inkscape:window-x="213"
     inkscape:window-y="70"
     inkscape:window-maximized="0"
     inkscape:current-layer="svg1">
    <sodipodi:guide
       position="13.359629,97.008363"
       orientation="0,-1"
       id="guide27"
       inkscape:locked="true" />
    <sodipodi:guide
       position="12.688291,107.0113"
       orientation="0,-1"
       id="guide28"
       inkscape:locked="true" />
  </sodipodi:namedview>
  <defs
     id="defs1" />
  <g
     inkscape:label="Layer 1"
     inkscape:groupmode="layer"
     id="layer1"
     sodipodi:insensitive="true">
    <rect
       style="fill:#333333;stroke:#923333;stroke-width:1;stroke-linecap:round;stroke-linejoin:round;paint-order:fill markers stroke"
       id="rect1"
       width="1385.3871"
       height="1634.5138"
       x="-261.27914"
       y="-431.41443" />
  </g>
  <g
     inkscape:groupmode="layer"
     id="layer7"
     inkscape:label="Layer 2">
    <path
       style="fill:#333333;stroke:#000000;stroke-width:1;stroke-linecap:square;stroke-linejoin:miter;paint-order:fill markers stroke;stroke-opacity:1"
       d="m 209.7891,90.149675 -20.40658,-0.07865 3.44261,8.154158 -3.64792,-0.05562 -0.0671,7.215552 20.47341,0.0475"
       id="path1"
       sodipodi:nodetypes="cccccc" />
    <path
       style="fill:#333333;stroke:#000000;stroke-width:1;stroke-linecap:square;stroke-linejoin:miter;stroke-opacity:1;paint-order:fill markers stroke"
       d="m 191.0224,105.38512 -0.0518,2.22994 -4.0253,2.6e-4 0.67253,7.24838 3.38142,-1.67637 0.14437,22.02039 m 18.76539,20.87619 -18.69673,-0.18989 -7.01154,-16.89299 6.77505,-3.49121"
       id="path2"
       sodipodi:nodetypes="cccccccccc" />
    <path
       style="fill:none;stroke:#000000;stroke-width:1;stroke-linecap:square;stroke-linejoin:miter;paint-order:fill markers stroke;stroke-opacity:1"
       d="m 204.4276,90.038666 -0.37976,-8.971976 5.51766,0.06137"
       id="path3"
       sodipodi:nodetypes="ccc" />
    <path
       style="fill:#333333;stroke:#000000;stroke-width:1;stroke-linecap:square;stroke-linejoin:miter;paint-order:fill markers stroke;stroke-opacity:1"
       d="m 194.4403,110.22714 0.0949,18.79843 13.67158,-8.92451 -0.0949,-8.82956 z"
       id="path4" />
    <path
       style="fill:none;stroke:#000000;stroke-width:1;stroke-linecap:square;stroke-linejoin:miter;paint-order:fill markers stroke;stroke-opacity:1"
       d="m 197.33601,126.88938 -0.18988,-13.4817 7.97509,0.37977 v 8.25991 z"
       id="path5" />
    <path
       style="fill:#000000;stroke:#000000;stroke-width:0.852552;stroke-linecap:square;stroke-linejoin:miter;paint-order:fill markers stroke;stroke-opacity:1;fill-opacity:1"
       d="m 209.71402,84.379304 c 0,0 -0.70734,-0.56965 -1.13863,0.949415 -0.4313,1.519066 1.13863,1.566537 1.13863,1.566537 z"
       id="path7" />
    <path
       style="fill:none;stroke:#000000;stroke-width:1;stroke-linecap:square;stroke-linejoin:miter;paint-order:fill markers stroke;stroke-opacity:1"
       d="m 210.12884,122.45208 -5.63924,9.26447 5.63924,-0.20141"
       id="path8" />
    <path
       style="fill:none;stroke:#000000;stroke-width:0.842961;stroke-linecap:square;stroke-linejoin:miter;paint-order:fill markers stroke;stroke-opacity:1"
       d="m 209.90326,149.67536 -11.9411,0.0475 -3.47439,-9.73151 3.81171,-2.32607 11.80618,0.28483"
       id="path9"
       sodipodi:nodetypes="ccccc" />
    <path
       style="fill:#333333;stroke:#000000;stroke-width:1;stroke-linecap:square;stroke-linejoin:miter;paint-order:fill markers stroke;stroke-opacity:1"
       d="m 209.90011,140.97146 c 0,0 -28.63881,-2.81007 -37.76901,3.76904 -9.1302,6.57912 -16.23707,18.74885 -13.57871,28.62277 4.69152,28.07262 17.26765,-8.36137 20.62923,-14.96363 5.14855,-9.35036 20.61727,-9.13224 30.49679,-11.79918"
       id="path10"
       sodipodi:nodetypes="csssc" />
    <path
       style="fill:none;stroke:#000000;stroke-width:0.933257;stroke-linecap:square;stroke-linejoin:miter;paint-order:fill markers stroke;stroke-opacity:1"
       d="m 199.04496,137.80766 -0.0949,2.52209 2.65836,0.0414 0.0475,-2.43939 z"
       id="path11" />
    <path
       style="fill:none;stroke:#000000;stroke-width:0.933257;stroke-linecap:square;stroke-linejoin:miter;paint-order:fill markers stroke;stroke-opacity:1"
       d="m 201.91597,137.87711 -0.0949,2.52209 2.65836,0.0414 0.0475,-2.43939 z"
       id="path11-3" />
    <path
       style="fill:none;stroke:#000000;stroke-width:0.933257;stroke-linecap:square;stroke-linejoin:miter;paint-order:fill markers stroke;stroke-opacity:1"
       d="m 204.66927,137.97206 -0.0949,2.52209 2.65836,0.0414 0.0475,-2.43939 z"
       id="path11-4" />
    <path
       style="fill:none;stroke:#000000;stroke-width:0.933257;stroke-linecap:square;stroke-linejoin:miter;paint-order:fill markers stroke;stroke-opacity:1"
       d="m 207.37511,137.97206 -0.0949,2.52209 2.65836,0.0414 0.0475,-2.43939 z"
       id="path11-36" />
    <path
       style="fill:none;stroke:#000000;stroke-width:0.933257;stroke-linecap:square;stroke-linejoin:miter;paint-order:fill markers stroke;stroke-opacity:1"
       d="m 207.03512,147.35984 -0.0949,1.98502 2.65836,0.0414 0.0475,-2.43939 z"
       id="path11-2"
       sodipodi:nodetypes="ccccc" />
    <path
       style="fill:none;stroke:#000000;stroke-width:0.933257;stroke-linecap:square;stroke-linejoin:miter;paint-order:fill markers stroke;stroke-opacity:1"
       d="m 203.69521,147.88013 -0.12847,1.51509 2.54088,-0.22714 0.1482,-1.65057 z"
       id="path11-37"
       sodipodi:nodetypes="ccccc" />
    <path
       style="fill:none;stroke:#000000;stroke-width:0.933257;stroke-linecap:square;stroke-linejoin:miter;paint-order:fill markers stroke;stroke-opacity:1"
       d="m 200.6812,148.48314 0.0562,1.11228 2.25556,0.008 -0.0364,-1.53308 z"
       id="path11-1"
       sodipodi:nodetypes="ccccc" />
    <path
       style="fill:none;stroke:#000000;stroke-width:1;stroke-linecap:square;stroke-linejoin:miter;paint-order:fill markers stroke;stroke-opacity:1"
       d="m 197.63858,126.43741 c 0,0 0.58927,-8.60407 3.00612,-9.34254 2.41682,-0.73847 4.58337,4.5516 4.58337,4.5516 z"
       id="path12"
       sodipodi:nodetypes="cscc" />
    <path
       style="fill:#000000;stroke:#000000;stroke-width:1;stroke-linecap:square;stroke-linejoin:miter;paint-order:fill markers stroke;stroke-opacity:1;fill-opacity:1"
       d="m 200.05877,117.68558 0.43637,7.18332 2.18185,-1.17485 -1.10771,-6.27701 z"
       id="path13"
       sodipodi:nodetypes="ccccc" />
    <path
       style="fill:none;stroke:#000000;stroke-width:1;stroke-linecap:square;stroke-linejoin:miter;paint-order:fill markers stroke;stroke-opacity:1"
       d="m 209.82083,143.36174 c 0,0 -12.29007,0.68793 -22.21632,0.0949 -14.48858,-0.0146 -18.74994,22.51021 -23.73539,32.94472"
       id="path14"
       sodipodi:nodetypes="csc" />
    <path
       style="fill:none;stroke:#000000;stroke-width:1;stroke-linecap:square;stroke-linejoin:miter;paint-order:fill markers stroke;stroke-opacity:1"
       d="m 209.82083,142.55473 -4.93696,-0.23735"
       id="path15" />
    <path
       style="fill:none;stroke:#000000;stroke-width:1;stroke-linecap:square;stroke-linejoin:miter;paint-order:fill markers stroke;stroke-opacity:1"
       d="m 209.91577,144.0738 -5.6965,0.7595"
       id="path16" />
    <path
       style="fill:none;stroke:#000000;stroke-width:1;stroke-linecap:square;stroke-linejoin:miter;paint-order:fill markers stroke;stroke-opacity:1"
       d="m 193.14398,98.216772 16.85059,0.402801"
       id="path17"
       sodipodi:nodetypes="cc" />
    <path
       style="fill:none;fill-opacity:1;stroke:#000000;stroke-width:0.876659;stroke-linecap:square;stroke-linejoin:miter;stroke-opacity:1;paint-order:fill markers stroke"
       d="m 204.203,156.14227 -0.24651,4.42877 -2.30064,-0.98608 1.89883,6.27503 -2.28435,-0.0567 9.30189,6.7694 0.19999,-16.49455 z"
       id="path18"
       sodipodi:nodetypes="cccccccc" />
    <path
       style="fill:none;fill-opacity:1;stroke:#000000;stroke-width:0.824846;stroke-linecap:square;stroke-linejoin:miter;stroke-dasharray:none;stroke-opacity:1;paint-order:fill markers stroke"
       d="m 209.948,82.972664 c -4.00258,-0.81372 -4.54478,5.103687 0.55008,5.375436"
       id="path19" />
  </g>
  <path
     style="fill:none;fill-opacity:1;stroke:#000000;stroke-width:1.81336;stroke-linecap:square;stroke-linejoin:miter;stroke-dasharray:none;stroke-opacity:1;paint-order:fill markers stroke"
     d="m 194.65196,80.131554 c 7.94822,-7.017899 10.09676,-24.560521 8.79297,-38.902219 -4.67546,-51.43003 -60.66058,-43.7953053 -71.1431,-1.865176 -9.95354,39.814208 36.32132,72.802861 62.35013,40.767395 z"
     id="path20" />
  <path
     style="fill:none;fill-opacity:1;stroke:#000000;stroke-width:1.81336;stroke-linecap:square;stroke-linejoin:miter;stroke-dasharray:none;stroke-opacity:1;paint-order:fill markers stroke"
     d="m 118.94952,49.32007 c 25.47184,27.265075 61.44748,3.253235 40.29849,-21.734874 -57.20618,-67.590682 -86.590711,21.062328 -56.68499,53.296617 10.80317,11.644329 36.18463,25.984787 37.5869,1.881544 0.40567,-6.972809 -9.58474,-26.329038 -20.90856,-33.523614"
     id="path21"
     sodipodi:nodetypes="csssc" />
  <path
     style="fill:none;fill-opacity:1;stroke:#000000;stroke-width:1.81336;stroke-linecap:square;stroke-linejoin:miter;stroke-dasharray:none;stroke-opacity:1;paint-order:fill markers stroke"
     d="m 110.13037,30.473695 c 0,0 4.32286,18.539074 15.34993,24.183581"
     id="path22"
     sodipodi:nodetypes="cc" />
  <path
     style="fill:none;fill-opacity:1;stroke:#000000;stroke-width:1.81336;stroke-linecap:square;stroke-linejoin:miter;stroke-dasharray:none;stroke-opacity:1;paint-order:fill markers stroke"
     d="M 78.447159,11.403796 C 23.868311,-25.841728 45.223816,103.81081 79.141165,97.538335 90.01296,95.527769 110.73585,85.246902 109.12736,44.848778 105.38857,-49.053489 40.385147,47.15423 80.807172,59.221847 97.029453,63.853993 81.284357,44.952298 80.6911,58.789885"
     id="path23"
     sodipodi:nodetypes="csscc" />
  <path
     style="fill:none;fill-opacity:1;stroke:#000000;stroke-width:1.81336;stroke-linecap:square;stroke-linejoin:miter;stroke-dasharray:none;stroke-opacity:1;paint-order:fill markers stroke"
     d="M 50.489299,40.741748 C 65.680915,37.735362 61.482039,6.2430443 42.558255,5.4605815 15.017665,4.3218327 -25.836321,69.94749 34.088692,94.98309 43.338833,98.847633 56.364659,97.942979 62.421473,87.821238 87.443043,46.006979 16.708076,10.178254 16.708076,63.948439 c 6.896385,7.048327 8.835127,-6.457251 0.442921,-4.450289"
     id="path24"
     sodipodi:nodetypes="cssscc" />
  <path
     style="fill:none;fill-opacity:1;stroke:#000000;stroke-width:1.53601;stroke-linecap:square;stroke-linejoin:miter;stroke-dasharray:none;stroke-opacity:1;paint-order:fill markers stroke"
     d="m 166.67053,73.906408 8.52789,-51.357245 2.98239,0.628125 -7.81882,50.829608 z"
     id="path25" />
  <path
     style="fill:none;fill-opacity:1;stroke:#000000;stroke-width:1.62888;stroke-linecap:square;stroke-linejoin:miter;stroke-dasharray:none;stroke-opacity:1;paint-order:fill markers stroke"
     d="m 141.4187,20.315166 -6.84404,32.562458"
     id="path25-5" />
  <path
     style="fill:none;fill-opacity:1;stroke:#000000;stroke-width:1.62888;stroke-linecap:square;stroke-linejoin:miter;stroke-dasharray:none;stroke-opacity:1;paint-order:fill markers stroke"
     d="M 151.62071,26.747782 123.65019,44.770129"
     id="path25-5-0" />
</svg>
