<?xml version="1.0" encoding="UTF-8" standalone="no"?>
<!-- Created with Inkscape (http://www.inkscape.org/) -->

<svg
   width="210mm"
   height="297mm"
   viewBox="0 0 210 297"
   version="1.1"
   id="svg1"
   xml:space="preserve"
   sodipodi:docname="bopo2.svg"
   inkscape:version="1.4 (86a8ad7, 2024-10-11)"
   xmlns:inkscape="http://www.inkscape.org/namespaces/inkscape"
   xmlns:sodipodi="http://sodipodi.sourceforge.net/DTD/sodipodi-0.dtd"
   xmlns="http://www.w3.org/2000/svg"
   xmlns:svg="http://www.w3.org/2000/svg"><sodipodi:namedview
     id="namedview1"
     pagecolor="#ffffff"
     bordercolor="#000000"
     borderopacity="0.25"
     inkscape:showpageshadow="2"
     inkscape:pageopacity="0.0"
     inkscape:pagecheckerboard="0"
     inkscape:deskcolor="#d1d1d1"
     inkscape:document-units="mm"
     showguides="false"
     inkscape:zoom="0.69670057"
     inkscape:cx="474.37883"
     inkscape:cy="540.40433"
     inkscape:window-width="1360"
     inkscape:window-height="745"
     inkscape:window-x="-8"
     inkscape:window-y="-8"
     inkscape:window-maximized="1"
     inkscape:current-layer="g111-9" /><defs
     id="defs1" /><g
     inkscape:label="Layer 1"
     inkscape:groupmode="layer"
     id="layer1"><g
       id="g14"
       transform="matrix(0.65681159,0,0,0.6510929,-13.452624,0.69723288)"><g
         id="g9"
         transform="matrix(0.70216392,-0.06475574,0.06457627,0.70411538,20.138457,-62.407095)"><g
           id="g10"
           style="fill:#800000"><g
             id="g13"
             style="fill:#800000"><g
               id="g11-1"
               transform="matrix(-1.4126865,-0.23997272,-0.23997272,1.1745644,340.76561,-5.5169307)"
               style="fill:#800000"><g
                 id="g12"
                 style="fill:#800000"><path
                   style="fill:#800000;stroke:#000000;stroke-width:0.861591;stroke-linecap:round;stroke-linejoin:round;stroke-dasharray:none;paint-order:markers stroke fill"
                   d="M 108.2282,196.20043 C 87.467174,217.14007 53.330194,173.18187 78.743054,131.54927 96.843474,101.89629 145.6127,158.95095 108.2282,196.20043 Z"
                   id="path2-5-8-8"
                   sodipodi:nodetypes="csc" /><path
                   style="fill:#800000;stroke:#000000;stroke-width:0.419279;stroke-linecap:round;stroke-linejoin:round;stroke-dasharray:none;paint-order:markers stroke fill"
                   d="m 78.012854,190.06571 c -1.717621,0 23.959666,-29.81764 50.036866,0.37985"
                   id="path6-9"
                   sodipodi:nodetypes="cc" /><path
                   style="fill:#800000;stroke:#000000;stroke-width:0.757;stroke-linecap:round;stroke-linejoin:round;stroke-dasharray:none;paint-order:markers stroke fill"
                   d="m 85.577654,128.10824 c 0,0 5.221785,-3.98755 12.579755,-0.47471"
                   id="path8-7" /></g></g><g
               id="g11"
               style="fill:#1a1a1a"><path
                 style="fill:#1a1a1a;stroke:#000000;stroke-width:0.695994;stroke-linecap:round;stroke-linejoin:round;stroke-dasharray:none;paint-order:markers stroke fill"
                 d="m 163.13431,190.42271 c 9.17985,3.5662 17.28676,2.30468 17.28676,2.30468 -8.67943,-8.16822 -15.11701,-13.50517 -28.87673,-15.22909 -0.72356,1.96937 3.09994,9.62621 11.58997,12.92441 z"
                 id="path7-3"
                 sodipodi:nodetypes="sccs" /></g></g></g><g
           id="g10-3"
           transform="translate(-70.323243,-12.806267)"
           style="fill:#800000"><g
             id="g13-8"
             style="fill:#800000"><g
               id="g11-1-7"
               transform="matrix(-1.4126865,-0.23997272,-0.23997272,1.1745644,340.76561,-5.5169307)"
               style="fill:#800000"><g
                 id="g12-4"
                 style="fill:#800000"><path
                   style="fill:#800000;stroke:#000000;stroke-width:0.861591;stroke-linecap:round;stroke-linejoin:round;stroke-dasharray:none;paint-order:markers stroke fill"
                   d="M 108.2282,196.20043 C 87.467174,217.14007 53.330194,173.18187 78.743054,131.54927 96.843474,101.89629 145.6127,158.95095 108.2282,196.20043 Z"
                   id="path2-5-8-8-2"
                   sodipodi:nodetypes="csc" /><path
                   style="fill:#800000;stroke:#000000;stroke-width:0.419279;stroke-linecap:round;stroke-linejoin:round;stroke-dasharray:none;paint-order:markers stroke fill"
                   d="m 78.012854,190.06571 c -1.717621,0 23.959666,-29.81764 50.036866,0.37985"
                   id="path6-9-7"
                   sodipodi:nodetypes="cc" /><path
                   style="fill:#800000;stroke:#000000;stroke-width:0.757;stroke-linecap:round;stroke-linejoin:round;stroke-dasharray:none;paint-order:markers stroke fill"
                   d="m 85.577654,128.10824 c 0,0 5.221785,-3.98755 12.579755,-0.47471"
                   id="path8-7-7" /></g></g><g
               id="g11-9"
               style="fill:#1a1a1a"><path
                 style="fill:#1a1a1a;stroke:#000000;stroke-width:0.695994;stroke-linecap:round;stroke-linejoin:round;stroke-dasharray:none;paint-order:markers stroke fill"
                 d="m 163.13431,190.42271 c 9.17985,3.5662 17.28676,2.30468 17.28676,2.30468 -8.67943,-8.16822 -15.11701,-13.50517 -28.87673,-15.22909 -0.72356,1.96937 3.09994,9.62621 11.58997,12.92441 z"
                 id="path7-3-3"
                 sodipodi:nodetypes="sccs" /></g></g></g></g><path
         style="fill:#800000;stroke:#000000;stroke-width:1.08948;stroke-linecap:round;stroke-linejoin:round;stroke-dasharray:none;paint-order:markers stroke fill"
         d="m 109.95624,14.47024 c 12.53982,-31.314157 81.97318,27.794743 22.49443,33.745864 -0.96812,1.309729 -0.62778,10.420221 5.53733,14.369653 2.89635,1.855424 4.72518,4.107658 4.75091,6.26875 0.042,3.524442 -5.06449,6.330989 -9.16927,5.058098 0,0 -11.62216,6.82826 -20.36281,-0.240989 0,0 -8.88181,1.081645 -9.17337,-5.098986 -0.0652,-1.381422 2.7352,-5.020524 6.04628,-6.750713 15.18224,-7.933425 -9.82504,-23.125235 -0.1235,-47.351677 z"
         id="path1-8"
         sodipodi:nodetypes="scssccsss" /><path
         style="fill:#000000;stroke:#000000;stroke-width:1.52659;stroke-linecap:round;stroke-linejoin:round;stroke-dasharray:none;paint-order:markers stroke fill"
         d="m 106.59921,70.304542 c 0,0 5.42688,-1.245147 6.81962,1.445987 0,0 -4.46638,1.72714 -6.81962,-1.445987 z"
         id="path3" /><path
         style="fill:#000000;stroke:#000000;stroke-width:1.52659;stroke-linecap:round;stroke-linejoin:round;stroke-dasharray:none;paint-order:markers stroke fill"
         d="m 140.11398,70.572266 c 0,0 -5.42688,-1.245147 -6.81961,1.445988 0,0 4.46636,1.727132 6.81961,-1.445988 z"
         id="path3-2" /><path
         style="fill:#800000;stroke:#000000;stroke-width:0.808252;stroke-linecap:round;stroke-linejoin:round;stroke-dasharray:none;paint-order:markers stroke fill"
         d="M 35.827747,9.0793522 C 31.455365,24.631486 31.834904,39.839504 34.196744,55.735752 40.822669,100.3312 122.19861,53.377945 69.667769,30.901066 89.93167,35.072356 79.111291,-4.7861957 35.827747,9.0793522 Z"
         id="path1"
         sodipodi:nodetypes="cscc" /><path
         style="fill:none;stroke:#000000;stroke-width:0.700382;stroke-linecap:round;stroke-linejoin:round;stroke-dasharray:none;paint-order:markers stroke fill"
         d="m 116.15195,49.457595 c 0.52577,0 3.5718,7.083604 -0.39714,9.711391 0,0 7.7373,-2.57066 14.32835,-0.457005"
         id="path5"
         sodipodi:nodetypes="ccc" /><path
         style="fill:#1a1a1a;stroke:#000000;stroke-width:0.756999;stroke-linecap:round;stroke-linejoin:round;stroke-dasharray:none;paint-order:markers stroke fill"
         d="m 165.63623,16.461619 c 0,0 14.76944,0.402802 15.84358,-7.3847204 6.05902,20.7798284 -13.55535,21.8926234 -13.56103,21.8856244 -4.75373,-4.733813 -4.66854,-9.588598 -2.28255,-14.500904 z"
         id="path13"
         sodipodi:nodetypes="cccc" /><path
         style="fill:#1a1a1a;stroke:#000000;stroke-width:0.756999;stroke-linecap:round;stroke-linejoin:round;stroke-dasharray:none;paint-order:markers stroke fill"
         d="m 39.220679,13.216381 c 0,0 -14.76944,0.402802 -15.84358,-7.3847204 -6.05902,20.7798284 13.55535,21.8926234 13.56103,21.8856244 4.75373,-4.733813 4.66854,-9.588598 2.28255,-14.500904 z"
         id="path13-6"
         sodipodi:nodetypes="cccc" /><path
         style="fill:#000000;stroke:#000000;stroke-width:0.756999;stroke-linecap:round;stroke-linejoin:round;stroke-dasharray:none;paint-order:markers stroke fill"
         d="m 54.730143,13.362593 -1.48055,12.675612 c 0,0 12.442116,1.05647 12.964672,-5.097695 0.522557,-6.154165 -11.484122,-7.577917 -11.484122,-7.577917 z"
         id="path14"
         sodipodi:nodetypes="ccsc" /><path
         style="fill:#000000;stroke:#000000;stroke-width:0.969276;stroke-linecap:round;stroke-linejoin:round;stroke-dasharray:none;paint-order:markers stroke fill"
         d="m 59.512617,43.035482 -2.293135,15.471574 c 0,0 16.599496,1.87845 17.450578,-5.642389 0.851082,-7.520839 -15.157443,-9.829185 -15.157443,-9.829185 z"
         id="path14-8"
         sodipodi:nodetypes="ccsc" /></g><g
       id="g110"><g
         id="g36"
         transform="matrix(0.64535862,0,0,0.67309552,91.833244,22.642925)"><g
           id="g28"
           transform="matrix(0.70216392,-0.06475574,0.06457627,0.70411538,20.138457,-62.407095)"><g
             id="g21"
             style="fill:#800000"><g
               id="g20"
               style="fill:#800000"><g
                 id="g18"
                 transform="matrix(-1.4126865,-0.23997272,-0.23997272,1.1745644,337.76527,-47.744623)"
                 style="fill:#800000"><g
                   id="g17"
                   style="fill:#800000"><path
                     style="fill:#800000;stroke:#000000;stroke-width:0.861591;stroke-linecap:round;stroke-linejoin:round;stroke-dasharray:none;paint-order:markers stroke fill"
                     d="M 108.2282,196.20043 C 87.467174,217.14007 53.330194,173.18187 78.743054,131.54927 96.843474,101.89629 145.6127,158.95095 108.2282,196.20043 Z"
                     id="path15"
                     sodipodi:nodetypes="csc" /><path
                     style="fill:#800000;stroke:#000000;stroke-width:0.419279;stroke-linecap:round;stroke-linejoin:round;stroke-dasharray:none;paint-order:markers stroke fill"
                     d="m 78.012854,190.06571 c -1.717621,0 23.959666,-29.81764 50.036866,0.37985"
                     id="path16"
                     sodipodi:nodetypes="cc" /><path
                     style="fill:#800000;stroke:#000000;stroke-width:0.757;stroke-linecap:round;stroke-linejoin:round;stroke-dasharray:none;paint-order:markers stroke fill"
                     d="m 85.577654,128.10824 c 0,0 5.221785,-3.98755 12.579755,-0.47471"
                     id="path17" /></g></g><g
                 id="g19"
                 style="fill:#1a1a1a"><path
                   style="fill:#000000;stroke:#000000;stroke-width:0.695994;stroke-linecap:round;stroke-linejoin:round;stroke-dasharray:none;paint-order:markers stroke fill"
                   d="m 160.13397,148.19501 c 9.17985,3.5662 17.28676,2.30468 17.28676,2.30468 -8.67943,-8.16822 -15.11701,-13.50517 -28.87673,-15.22909 -0.72356,1.96937 3.09994,9.62621 11.58997,12.92441 z"
                   id="path18"
                   sodipodi:nodetypes="sccs" /></g></g></g><g
             id="g27"
             transform="translate(-73.32358,-55.03396)"
             style="fill:#800000"><g
               id="g26"
               style="fill:#800000"><g
                 id="g24"
                 transform="matrix(-1.4126865,-0.23997272,-0.23997272,1.1745644,340.76561,-5.5169307)"
                 style="fill:#800000"><g
                   id="g23"
                   style="fill:#800000"><path
                     style="fill:#800000;stroke:#000000;stroke-width:0.861591;stroke-linecap:round;stroke-linejoin:round;stroke-dasharray:none;paint-order:markers stroke fill"
                     d="M 108.2282,196.20043 C 87.467174,217.14007 53.330194,173.18187 78.743054,131.54927 96.843474,101.89629 145.6127,158.95095 108.2282,196.20043 Z"
                     id="path21"
                     sodipodi:nodetypes="csc" /><path
                     style="fill:#800000;stroke:#000000;stroke-width:0.419279;stroke-linecap:round;stroke-linejoin:round;stroke-dasharray:none;paint-order:markers stroke fill"
                     d="m 78.012854,190.06571 c -1.717621,0 23.959666,-29.81764 50.036866,0.37985"
                     id="path22"
                     sodipodi:nodetypes="cc" /><path
                     style="fill:#800000;stroke:#000000;stroke-width:0.757;stroke-linecap:round;stroke-linejoin:round;stroke-dasharray:none;paint-order:markers stroke fill"
                     d="m 85.577654,128.10824 c 0,0 5.221785,-3.98755 12.579755,-0.47471"
                     id="path23" /></g></g><g
                 id="g25"
                 style="fill:#000000"><path
                   style="fill:#000000;stroke:#000000;stroke-width:0.695994;stroke-linecap:round;stroke-linejoin:round;stroke-dasharray:none;paint-order:markers stroke fill"
                   d="m 163.13431,190.42271 c 9.17985,3.5662 17.28676,2.30468 17.28676,2.30468 -8.67943,-8.16822 -15.11701,-13.50517 -28.87673,-15.22909 -0.72356,1.96937 3.09994,9.62621 11.58997,12.92441 z"
                   id="path24"
                   sodipodi:nodetypes="sccs" /></g></g></g></g><path
           style="fill:#800000;stroke:#000000;stroke-width:1.08948;stroke-linecap:round;stroke-linejoin:round;stroke-dasharray:none;paint-order:markers stroke fill"
           d="m 105.12261,-15.068639 c 12.53982,-31.314157 81.97318,27.794743 22.49443,33.745864 -0.96812,1.309729 -0.62778,10.420221 5.53733,14.369653 2.89635,1.855424 4.72518,4.107658 4.75091,6.26875 0.042,3.524442 -5.06449,6.330989 -9.16927,5.058098 0,0 -11.62216,6.82826 -20.36281,-0.240989 0,0 -8.881815,1.081645 -9.173375,-5.098986 -0.0652,-1.381422 2.735205,-5.020524 6.046285,-6.750713 15.18224,-7.933425 -9.825045,-23.1252348 -0.1235,-47.351677 z"
           id="path28"
           sodipodi:nodetypes="scssccsss" /><path
           style="fill:#000000;stroke:#000000;stroke-width:1.52659;stroke-linecap:round;stroke-linejoin:round;stroke-dasharray:none;paint-order:markers stroke fill"
           d="m 101.76558,40.765663 c 0,0 5.42688,-1.245147 6.81962,1.445987 0,0 -4.46638,1.72714 -6.81962,-1.445987 z"
           id="path29" /><path
           style="fill:#000000;stroke:#000000;stroke-width:1.52659;stroke-linecap:round;stroke-linejoin:round;stroke-dasharray:none;paint-order:markers stroke fill"
           d="m 135.28035,41.033387 c 0,0 -5.42688,-1.245147 -6.81961,1.445988 0,0 4.46636,1.727132 6.81961,-1.445988 z"
           id="path30" /><path
           style="fill:#800000;stroke:#000000;stroke-width:0.808252;stroke-linecap:round;stroke-linejoin:round;stroke-dasharray:none;paint-order:markers stroke fill"
           d="M 30.994112,-20.459527 C 26.62173,-4.9073928 27.001269,10.300625 29.363109,26.196873 35.989034,70.792321 117.36498,23.839066 64.834134,1.3621872 85.098035,5.5334772 74.277656,-34.325075 30.994112,-20.459527 Z"
           id="path31"
           sodipodi:nodetypes="cscc" /><path
           style="fill:none;stroke:#000000;stroke-width:0.700382;stroke-linecap:round;stroke-linejoin:round;stroke-dasharray:none;paint-order:markers stroke fill"
           d="m 111.31832,19.918716 c 0.52577,0 3.5718,7.083604 -0.39714,9.711391 0,0 7.7373,-2.57066 14.32835,-0.457005"
           id="path32"
           sodipodi:nodetypes="ccc" /><path
           style="fill:#000000;stroke:#000000;stroke-width:0.756999;stroke-linecap:round;stroke-linejoin:round;stroke-dasharray:none;paint-order:markers stroke fill"
           d="m 49.896508,-16.176286 -1.48055,12.6756122 c 0,0 12.442116,1.05647 12.964672,-5.097695 0.522557,-6.1541652 -11.484122,-7.5779172 -11.484122,-7.5779172 z"
           id="path35"
           sodipodi:nodetypes="ccsc" /><path
           style="fill:#000000;stroke:#000000;stroke-width:0.969276;stroke-linecap:round;stroke-linejoin:round;stroke-dasharray:none;paint-order:markers stroke fill"
           d="m 54.678982,13.496603 -2.293135,15.471574 c 0,0 16.599496,1.87845 17.450578,-5.642389 0.851082,-7.520839 -15.157443,-9.829185 -15.157443,-9.829185 z"
           id="path36"
           sodipodi:nodetypes="ccsc" /></g><path
         style="fill:none;stroke:#000000;stroke-width:0.395449;stroke-linecap:round;stroke-linejoin:round;stroke-dasharray:none;paint-order:markers stroke fill"
         d="m 174.2099,35.409754 c 0,0 -4.43428,0.924976 -6.90383,-0.792149"
         id="path104"
         sodipodi:nodetypes="cc" /><path
         style="fill:none;stroke:#000000;stroke-width:0.2831;stroke-linecap:round;stroke-linejoin:round;stroke-dasharray:none;paint-order:markers stroke fill"
         d="m 135.12568,23.997476 c 0,0 -3.57791,-0.467061 -4.97833,-2.067749"
         id="path104-3"
         sodipodi:nodetypes="cc" /></g><g
       id="g112"
       transform="matrix(0.99926323,0,0,1.0314884,-79.430077,-118.96702)"
       style="stroke-width:4.4;stroke-dasharray:none"><g
         id="g111-6"
         transform="translate(79.12585,114.41129)"
         style="fill:#000000;stroke-width:4.4;stroke-dasharray:none"><g
           id="g36-4-8"
           transform="matrix(0.64535862,0,0,0.67309552,25.291084,101.34906)"
           style="fill:#000000;stroke-width:6.67596;stroke-dasharray:none"><g
             id="g28-0-3"
             transform="matrix(0.70216392,-0.06475574,0.06457627,0.70411538,-33.411188,-104.72273)"
             style="fill:#000000;stroke-width:9.45461;stroke-dasharray:none"><g
               id="g21-7-4"
               style="fill:#000000;stroke-width:9.45461;stroke-dasharray:none"><g
                 id="g20-6-8"
                 style="fill:#000000;stroke-width:9.45461;stroke-dasharray:none"><g
                   id="g18-3-4"
                   transform="matrix(-1.4126865,-0.23997272,-0.23997272,1.1745644,337.76527,-47.744623)"
                   style="fill:#000000;stroke-width:7.21562;stroke-dasharray:none"><g
                     id="g17-6-9"
                     style="fill:#000000;stroke-width:7.21562;stroke-dasharray:none"><path
                       style="fill:#000000;stroke:#000000;stroke-width:7.21562;stroke-linecap:round;stroke-linejoin:round;stroke-dasharray:none;paint-order:markers stroke fill"
                       d="M 108.2282,196.20043 C 87.467174,217.14007 53.330194,173.18187 78.743054,131.54927 96.843474,101.89629 145.6127,158.95095 108.2282,196.20043 Z"
                       id="path15-1-9"
                       sodipodi:nodetypes="csc" /><path
                       style="fill:#000000;stroke:#000000;stroke-width:7.21562;stroke-linecap:round;stroke-linejoin:round;stroke-dasharray:none;paint-order:markers stroke fill"
                       d="m 78.012854,190.06571 c -1.717621,0 23.959666,-29.81764 50.036866,0.37985"
                       id="path16-5-2"
                       sodipodi:nodetypes="cc" /><path
                       style="fill:#000000;stroke:#000000;stroke-width:7.21562;stroke-linecap:round;stroke-linejoin:round;stroke-dasharray:none;paint-order:markers stroke fill"
                       d="m 85.577654,128.10824 c 0,0 5.221785,-3.98755 12.579755,-0.47471"
                       id="path17-4-5" /></g></g><g
                   id="g19-2-5"
                   style="fill:#000000;stroke-width:9.45461;stroke-dasharray:none"><path
                     style="fill:#000000;stroke:#000000;stroke-width:9.45461;stroke-linecap:round;stroke-linejoin:round;stroke-dasharray:none;paint-order:markers stroke fill"
                     d="m 160.13397,148.19501 c 9.17985,3.5662 17.28676,2.30468 17.28676,2.30468 -8.67943,-8.16822 -15.11701,-13.50517 -28.87673,-15.22909 -0.72356,1.96937 3.09994,9.62621 11.58997,12.92441 z"
                     id="path18-0-3"
                     sodipodi:nodetypes="sccs" /></g></g></g><g
               id="g27-9-3"
               transform="translate(-73.32358,-55.03396)"
               style="fill:#000000;stroke-width:9.45461;stroke-dasharray:none"><g
                 id="g26-7-3"
                 style="fill:#000000;stroke-width:9.45461;stroke-dasharray:none"><g
                   id="g24-3-7"
                   transform="matrix(-1.4126865,-0.23997272,-0.23997272,1.1745644,340.76561,-5.5169307)"
                   style="fill:#000000;stroke-width:7.21562;stroke-dasharray:none"><g
                     id="g23-7-4"
                     style="fill:#000000;stroke-width:7.21562;stroke-dasharray:none"><path
                       style="fill:#000000;stroke:#000000;stroke-width:7.21562;stroke-linecap:round;stroke-linejoin:round;stroke-dasharray:none;paint-order:markers stroke fill"
                       d="m 108.2282,196.20043 c -20.761026,20.93964 -54.898018,-23.01857 -29.485146,-64.65116 5.198764,-8.51687 12.927523,-9.88086 20.418311,-6.61568 18.589725,8.10312 35.713835,44.71608 9.066835,71.26684 z"
                       id="path21-2-3"
                       sodipodi:nodetypes="cssc" /><path
                       style="fill:#000000;stroke:#000000;stroke-width:7.21562;stroke-linecap:round;stroke-linejoin:round;stroke-dasharray:none;paint-order:markers stroke fill"
                       d="m 78.012854,190.06571 c -1.717621,0 23.959666,-29.81764 50.036866,0.37985"
                       id="path22-6-8"
                       sodipodi:nodetypes="cc" /><path
                       style="fill:#000000;stroke:#000000;stroke-width:7.21562;stroke-linecap:round;stroke-linejoin:round;stroke-dasharray:none;paint-order:markers stroke fill"
                       d="m 86.806357,128.22124 c 0,0 5.221785,-3.98755 12.579755,-0.47471"
                       id="path23-0-0"
                       sodipodi:nodetypes="cc" /></g></g><g
                   id="g25-1-8"
                   style="fill:#000000;stroke-width:9.45461;stroke-dasharray:none"><path
                     style="fill:#000000;stroke:#000000;stroke-width:9.45461;stroke-linecap:round;stroke-linejoin:round;stroke-dasharray:none;paint-order:markers stroke fill"
                     d="m 163.13431,190.42271 c 9.17985,3.5662 17.28676,2.30468 17.28676,2.30468 -8.67943,-8.16822 -15.11701,-13.50517 -28.87673,-15.22909 -0.72356,1.96937 3.09994,9.62621 11.58997,12.92441 z"
                     id="path24-6-8"
                     sodipodi:nodetypes="sccs" /></g></g></g></g><path
             style="fill:#000000;stroke:#000000;stroke-width:6.67596;stroke-linecap:round;stroke-linejoin:round;stroke-dasharray:none;paint-order:markers stroke fill"
             d="m 51.572965,-57.384276 c 12.53982,-31.314157 81.973175,27.794743 22.49443,33.745864 -0.96812,1.309729 -0.62778,10.420221 5.53733,14.3696529 2.89635,1.855424 4.72518,4.107658 4.75091,6.26875 0.042,3.52444202 -5.06449,6.330989 -9.16927,5.058098 0,0 -11.62216,6.82826 -20.36281,-0.240989 0,0 -8.881815,1.081645 -9.173375,-5.098986 -0.0652,-1.381422 2.735205,-5.020524 6.046285,-6.7507129 15.18224,-7.933425 -9.825045,-23.125235 -0.1235,-47.351677 z"
             id="path28-5-0"
             sodipodi:nodetypes="scssccsss" /><path
             style="fill:#000000;stroke:#000000;stroke-width:6.67596;stroke-linecap:round;stroke-linejoin:round;stroke-dasharray:none;paint-order:markers stroke fill"
             d="m 48.215935,-1.5499741 c 0,0 5.42688,-1.245147 6.81962,1.44598702 0,0 -4.46638,1.72713998 -6.81962,-1.44598702 z"
             id="path29-7-6" /><path
             style="fill:#000000;stroke:#000000;stroke-width:6.67596;stroke-linecap:round;stroke-linejoin:round;stroke-dasharray:none;paint-order:markers stroke fill"
             d="m 81.730705,-1.2822501 c 0,0 -5.42688,-1.245147 -6.81961,1.44598802 0,0 4.46636,1.72713198 6.81961,-1.44598802 z"
             id="path30-5-8" /><path
             style="fill:#000000;stroke:#000000;stroke-width:6.67596;stroke-linecap:round;stroke-linejoin:round;stroke-dasharray:none;paint-order:markers stroke fill"
             d="m -23.873025,-57.397964 c -2.87103,13.689727 -2.100895,27.181522 -0.313511,41.2792 4.839898,38.17384 85.938931,3.141159 34.63882,-14.860794 23.352651,-4.14173 12.928353,-43.429665 -26.102818,-33.536708 -6.97337,1.767491 -6.850669,0.682839 -8.222491,7.118302 z"
             id="path31-4-1"
             sodipodi:nodetypes="sscss" /><path
             style="fill:#000000;stroke:#000000;stroke-width:6.67596;stroke-linecap:round;stroke-linejoin:round;stroke-dasharray:none;paint-order:markers stroke fill"
             d="m 57.768675,-22.396921 c 0.52577,0 3.5718,7.083604 -0.39714,9.711391 0,0 7.7373,-2.57066 14.32835,-0.457005"
             id="path32-1-9"
             sodipodi:nodetypes="ccc" /><path
             style="fill:#000000;stroke:#000000;stroke-width:6.67596;stroke-linecap:round;stroke-linejoin:round;stroke-dasharray:none;stroke-opacity:1;paint-order:markers stroke fill"
             d="m 83.272475,-52.85379 c 0,0 20.597055,15.160313 -3.53687,23.53838"
             id="path107-8" /><path
             style="fill:#000000;stroke:#000000;stroke-width:6.67596;stroke-linecap:round;stroke-linejoin:round;stroke-dasharray:none;stroke-opacity:1;paint-order:markers stroke fill"
             d="m 10.294496,-57.375841 c 5.905378,-1.991575 12.051258,20.193179 -0.5859702,21.935445"
             id="path108-9"
             sodipodi:nodetypes="cc" /><path
             style="fill:#000000;stroke:#000000;stroke-width:6.67596;stroke-linecap:round;stroke-linejoin:round;stroke-dasharray:none;stroke-opacity:1;paint-order:markers stroke fill"
             d="m 11.078709,-26.123761 c -0.05296,0.29835 23.36938,9.106818 -1.040259,20.3467359"
             id="path109-7"
             sodipodi:nodetypes="cc" /></g><path
           style="fill:#000000;stroke:#000000;stroke-width:4.4;stroke-linecap:round;stroke-linejoin:round;stroke-dasharray:none;paint-order:markers stroke fill"
           d="m 73.203955,85.847044 c 0,0 -4.43428,0.92497 -6.90383,-0.79215"
           id="path104-0-2"
           sodipodi:nodetypes="cc" /><path
           style="fill:#000000;stroke:#000000;stroke-width:4.4;stroke-linecap:round;stroke-linejoin:round;stroke-dasharray:none;paint-order:markers stroke fill"
           d="m 34.624989,81.006594 c 0,0 -3.57791,-0.46706 -4.97833,-2.06775"
           id="path104-3-1-2"
           sodipodi:nodetypes="cc" /></g></g><g
       id="g111"
       transform="translate(-0.60877638,1.7415263)"><g
         id="g36-4"
         transform="matrix(0.64535862,0,0,0.67309552,25.291084,101.34906)"><g
           id="g28-0"
           transform="matrix(0.70216392,-0.06475574,0.06457627,0.70411538,-33.411188,-104.72273)"><g
             id="g21-7"
             style="fill:#800000"><g
               id="g20-6"
               style="fill:#800000"><g
                 id="g18-3"
                 transform="matrix(-1.4126865,-0.23997272,-0.23997272,1.1745644,337.76527,-47.744623)"
                 style="fill:#800000"><g
                   id="g17-6"
                   style="fill:#800000"><path
                     style="fill:#800000;stroke:#000000;stroke-width:3.33395;stroke-linecap:round;stroke-linejoin:round;stroke-dasharray:none;paint-order:markers stroke fill"
                     d="M 108.2282,196.20043 C 87.467174,217.14007 53.330194,173.18187 78.743054,131.54927 96.843474,101.89629 145.6127,158.95095 108.2282,196.20043 Z"
                     id="path15-1"
                     sodipodi:nodetypes="csc" /><path
                     style="fill:none;stroke:#000000;stroke-width:1.44804;stroke-linecap:round;stroke-linejoin:round;stroke-dasharray:none;paint-order:markers stroke fill"
                     d="m 78.012854,190.06571 c -1.717621,0 23.959666,-29.81764 50.036866,0.37985"
                     id="path16-5"
                     sodipodi:nodetypes="cc" /><path
                     style="fill:none;stroke:#000000;stroke-width:1.44804;stroke-linecap:round;stroke-linejoin:round;stroke-dasharray:none;paint-order:markers stroke fill"
                     d="m 85.577654,128.10824 c 0,0 5.221785,-3.98755 12.579755,-0.47471"
                     id="path17-4" /></g></g><g
                 id="g19-2"
                 style="fill:#1a1a1a"><path
                   style="fill:#000000;stroke:#000000;stroke-width:0.695994;stroke-linecap:round;stroke-linejoin:round;stroke-dasharray:none;paint-order:markers stroke fill"
                   d="m 160.13397,148.19501 c 9.17985,3.5662 17.28676,2.30468 17.28676,2.30468 -8.67943,-8.16822 -15.11701,-13.50517 -28.87673,-15.22909 -0.72356,1.96937 3.09994,9.62621 11.58997,12.92441 z"
                   id="path18-0"
                   sodipodi:nodetypes="sccs" /></g></g></g><g
             id="g27-9"
             transform="translate(-73.32358,-55.03396)"
             style="fill:#800000"><g
               id="g26-7"
               style="fill:#800000"><g
                 id="g24-3"
                 transform="matrix(-1.4126865,-0.23997272,-0.23997272,1.1745644,340.76561,-5.5169307)"
                 style="fill:#800000"><g
                   id="g23-7"
                   style="fill:#800000"><path
                     style="fill:#800000;stroke:#000000;stroke-width:3.33395;stroke-linecap:round;stroke-linejoin:round;stroke-dasharray:none;paint-order:markers stroke fill"
                     d="m 108.2282,196.20043 c -20.761026,20.93964 -54.898018,-23.01857 -29.485146,-64.65116 5.198764,-8.51687 12.927523,-9.88086 20.418311,-6.61568 18.589725,8.10312 35.713835,44.71608 9.066835,71.26684 z"
                     id="path21-2"
                     sodipodi:nodetypes="cssc" /><path
                     style="fill:none;stroke:#000000;stroke-width:1.44804;stroke-linecap:round;stroke-linejoin:round;stroke-dasharray:none;paint-order:markers stroke fill"
                     d="m 78.012854,190.06571 c -1.717621,0 23.959666,-29.81764 50.036866,0.37985"
                     id="path22-6"
                     sodipodi:nodetypes="cc" /><path
                     style="fill:none;stroke:#000000;stroke-width:1.44804;stroke-linecap:round;stroke-linejoin:round;stroke-dasharray:none;paint-order:markers stroke fill"
                     d="m 86.806357,128.22124 c 0,0 5.221785,-3.98755 12.579755,-0.47471"
                     id="path23-0"
                     sodipodi:nodetypes="cc" /></g></g><g
                 id="g25-1"
                 style="fill:#000000"><path
                   style="fill:#000000;stroke:#000000;stroke-width:0.695994;stroke-linecap:round;stroke-linejoin:round;stroke-dasharray:none;paint-order:markers stroke fill"
                   d="m 163.13431,190.42271 c 9.17985,3.5662 17.28676,2.30468 17.28676,2.30468 -8.67943,-8.16822 -15.11701,-13.50517 -28.87673,-15.22909 -0.72356,1.96937 3.09994,9.62621 11.58997,12.92441 z"
                   id="path24-6"
                   sodipodi:nodetypes="sccs" /></g></g></g></g><path
           style="fill:#800000;stroke:#000000;stroke-width:3.0846;stroke-linecap:round;stroke-linejoin:round;stroke-dasharray:none;paint-order:markers stroke fill"
           d="m 51.572965,-57.384276 c 12.53982,-31.314157 81.973175,27.794743 22.49443,33.745864 -0.96812,1.309729 -0.62778,10.420221 5.53733,14.3696529 2.89635,1.855424 4.72518,4.107658 4.75091,6.26875 0.042,3.52444202 -5.06449,6.330989 -9.16927,5.058098 0,0 -11.62216,6.82826 -20.36281,-0.240989 0,0 -8.881815,1.081645 -9.173375,-5.098986 -0.0652,-1.381422 2.735205,-5.020524 6.046285,-6.7507129 15.18224,-7.933425 -9.825045,-23.125235 -0.1235,-47.351677 z"
           id="path28-5"
           sodipodi:nodetypes="scssccsss" /><path
           style="fill:#000000;stroke:#000000;stroke-width:1.52659;stroke-linecap:round;stroke-linejoin:round;stroke-dasharray:none;paint-order:markers stroke fill"
           d="m 48.215935,-1.5499741 c 0,0 5.42688,-1.245147 6.81962,1.44598702 0,0 -4.46638,1.72713998 -6.81962,-1.44598702 z"
           id="path29-7" /><path
           style="fill:#000000;stroke:#000000;stroke-width:1.52659;stroke-linecap:round;stroke-linejoin:round;stroke-dasharray:none;paint-order:markers stroke fill"
           d="m 81.730705,-1.2822501 c 0,0 -5.42688,-1.245147 -6.81961,1.44598802 0,0 4.46636,1.72713198 6.81961,-1.44598802 z"
           id="path30-5" /><path
           style="fill:#800000;stroke:#000000;stroke-width:3.0846;stroke-linecap:round;stroke-linejoin:round;stroke-dasharray:none;paint-order:markers stroke fill"
           d="m -23.873025,-57.397964 c -2.87103,13.689727 -2.100895,27.181522 -0.313511,41.2792 4.839898,38.17384 85.938931,3.141159 34.63882,-14.860794 23.352651,-4.14173 12.928353,-43.429665 -26.102818,-33.536708 -6.97337,1.767491 -6.850669,0.682839 -8.222491,7.118302 z"
           id="path31-4"
           sodipodi:nodetypes="sscss" /><path
           style="fill:none;stroke:#000000;stroke-width:1.33974;stroke-linecap:round;stroke-linejoin:round;stroke-dasharray:none;paint-order:markers stroke fill"
           d="m 57.768675,-22.396921 c 0.52577,0 3.5718,7.083604 -0.39714,9.711391 0,0 7.7373,-2.57066 14.32835,-0.457005"
           id="path32-1"
           sodipodi:nodetypes="ccc" /><path
           style="fill:none;stroke:#000000;stroke-width:1.33974;stroke-linecap:round;stroke-linejoin:round;stroke-dasharray:none;stroke-opacity:1;paint-order:markers stroke fill"
           d="m 83.272475,-52.85379 c 0,0 20.597055,15.160313 -3.53687,23.53838"
           id="path107" /><path
           style="fill:none;stroke:#000000;stroke-width:1.37042;stroke-linecap:round;stroke-linejoin:round;stroke-dasharray:none;stroke-opacity:1;paint-order:markers stroke fill"
           d="m 10.294496,-57.375841 c 5.905378,-1.991575 12.051258,20.193179 -0.5859702,21.935445"
           id="path108"
           sodipodi:nodetypes="cc" /><path
           style="fill:none;stroke:#000000;stroke-width:1.33974;stroke-linecap:round;stroke-linejoin:round;stroke-dasharray:none;stroke-opacity:1;paint-order:markers stroke fill"
           d="m 11.078709,-26.123761 c -0.05296,0.29835 23.36938,9.106818 -1.040259,20.3467359"
           id="path109"
           sodipodi:nodetypes="cc" /></g><path
         style="fill:none;stroke:#000000;stroke-width:0.883;stroke-linecap:round;stroke-linejoin:round;stroke-dasharray:none;paint-order:markers stroke fill"
         d="m 73.203955,85.847044 c 0,0 -4.43428,0.92497 -6.90383,-0.79215"
         id="path104-0"
         sodipodi:nodetypes="cc" /><path
         style="fill:none;stroke:#000000;stroke-width:0.883;stroke-linecap:round;stroke-linejoin:round;stroke-dasharray:none;paint-order:markers stroke fill"
         d="m 34.624989,81.006594 c 0,0 -3.57791,-0.46706 -4.97833,-2.06775"
         id="path104-3-1"
         sodipodi:nodetypes="cc" /></g><g
       id="g111-9"
       transform="translate(57.015262,117.16442)"><g
         id="g36-4-0"
         transform="matrix(0.64535862,0,0,0.67309552,25.291084,101.34906)"><g
           id="g28-0-7"
           transform="matrix(0.70216392,-0.06475574,0.06457627,0.70411538,-33.411188,-104.72273)"><g
             id="g27-9-5"
             transform="translate(-73.32358,-55.03396)"
             style="fill:#800000"><g
               id="g26-7-8"
               style="fill:#800000"><g
                 id="g24-3-6"
                 transform="matrix(-1.4126865,-0.23997272,-0.23997272,1.1745644,340.76561,-5.5169307)"
                 style="fill:#800000"><g
                   id="g23-7-2"
                   style="fill:#800000" /></g></g></g></g></g><g
         id="g114"
         transform="rotate(-1.7239291,-2140.4763,-424.05812)"><g
           id="g113"
           transform="rotate(-81.641516,23.143763,18.15953)"><path
             style="fill:#800000;stroke:#000000;stroke-width:3.0846;stroke-linecap:round;stroke-linejoin:round;stroke-dasharray:none;paint-order:markers stroke fill"
             d="m -23.873025,-57.397964 c -2.87103,13.689727 -2.100895,27.181522 -0.313511,41.2792 4.839898,38.17384 85.938931,3.141159 34.63882,-14.860794 23.352651,-4.14173 12.928353,-43.429665 -26.102818,-33.536708 -6.97337,1.767491 -6.850669,0.682839 -8.222491,7.118302 z"
             id="path31-4-11"
             sodipodi:nodetypes="sscss"
             transform="matrix(0.64535862,0,0,0.67309553,25.291083,101.34906)" /><path
             style="fill:none;stroke:#000000;stroke-width:1.37042;stroke-linecap:round;stroke-linejoin:round;stroke-dasharray:none;stroke-opacity:1;paint-order:markers stroke fill"
             d="m 10.294496,-57.375841 c 5.905378,-1.991575 12.051258,20.193179 -0.5859702,21.935445"
             id="path108-2"
             sodipodi:nodetypes="cc"
             transform="matrix(0.64535862,0,0,0.67309553,25.291083,101.34906)" /><path
             style="fill:none;stroke:#000000;stroke-width:1.33974;stroke-linecap:round;stroke-linejoin:round;stroke-dasharray:none;stroke-opacity:1;paint-order:markers stroke fill"
             d="m 11.078709,-26.123761 c -0.05296,0.29835 23.36938,9.106818 -1.040259,20.3467359"
             id="path109-9"
             sodipodi:nodetypes="cc"
             transform="matrix(0.64535862,0,0,0.67309553,25.291083,101.34906)" /><path
             style="fill:none;stroke:#000000;stroke-width:0.883;stroke-linecap:round;stroke-linejoin:round;stroke-dasharray:none;paint-order:markers stroke fill"
             d="m 34.624989,81.006594 c 0,0 -3.57791,-0.46706 -4.97833,-2.06775"
             id="path104-3-1-20"
             sodipodi:nodetypes="cc" /></g><g
           id="g21-7-8"
           style="fill:#800000"
           transform="matrix(0.45314754,-0.0435868,0.04167485,0.47393691,16.887115,11.257586)"><g
             id="g20-6-1"
             style="fill:#800000"><g
               id="g18-3-5"
               transform="matrix(-1.4126865,-0.23997272,-0.23997272,1.1745644,337.76527,-47.744623)"
               style="fill:#800000"><g
                 id="g17-6-8"
                 style="fill:#800000"><path
                   style="fill:#800000;stroke:#000000;stroke-width:3.33395;stroke-linecap:round;stroke-linejoin:round;stroke-dasharray:none;paint-order:markers stroke fill"
                   d="M 108.2282,196.20043 C 87.467174,217.14007 53.330194,173.18187 78.743054,131.54927 96.843474,101.89629 145.6127,158.95095 108.2282,196.20043 Z"
                   id="path15-1-6"
                   sodipodi:nodetypes="csc" /><path
                   style="fill:none;stroke:#000000;stroke-width:1.44804;stroke-linecap:round;stroke-linejoin:round;stroke-dasharray:none;paint-order:markers stroke fill"
                   d="m 78.012854,190.06571 c -1.717621,0 23.959666,-29.81764 50.036866,0.37985"
                   id="path16-5-1"
                   sodipodi:nodetypes="cc" /><path
                   style="fill:none;stroke:#000000;stroke-width:1.44804;stroke-linecap:round;stroke-linejoin:round;stroke-dasharray:none;paint-order:markers stroke fill"
                   d="m 85.577654,128.10824 c 0,0 5.221785,-3.98755 12.579755,-0.47471"
                   id="path17-4-2" /></g></g><g
               id="g19-2-4"
               style="fill:#1a1a1a"><path
                 style="fill:#000000;stroke:#000000;stroke-width:0.695994;stroke-linecap:round;stroke-linejoin:round;stroke-dasharray:none;paint-order:markers stroke fill"
                 d="m 160.13397,148.19501 c 9.17985,3.5662 17.28676,2.30468 17.28676,2.30468 -8.67943,-8.16822 -15.11701,-13.50517 -28.87673,-15.22909 -0.72356,1.96937 3.09994,9.62621 11.58997,12.92441 z"
                 id="path18-0-2"
                 sodipodi:nodetypes="sccs" /></g></g></g><path
           style="fill:#800000;stroke:#000000;stroke-width:3.33395;stroke-linecap:round;stroke-linejoin:round;stroke-dasharray:none;paint-order:markers stroke fill"
           d="M 91.311617,160.0792 C 70.550591,181.01884 36.413599,137.06063 61.826471,95.428039 c 5.198764,-8.51687 12.927523,-9.88086 20.418311,-6.61568 18.589728,8.10312 35.713838,44.716081 9.066835,71.266841 z"
           id="path21-2-6"
           sodipodi:nodetypes="cssc"
           transform="matrix(-0.65015623,-0.05215745,-0.05979325,0.56712906,122.39614,-9.4935845)" /><path
           style="fill:none;stroke:#000000;stroke-width:1.44804;stroke-linecap:round;stroke-linejoin:round;stroke-dasharray:none;paint-order:markers stroke fill"
           d="m 61.096271,153.94448 c -1.515332,0 18.291465,-23.2078 40.884039,-7.93893"
           id="path22-6-5"
           sodipodi:nodetypes="cc"
           transform="matrix(-0.65015623,-0.05215745,-0.05979325,0.56712906,122.39614,-9.4935845)" /><path
           style="fill:none;stroke:#000000;stroke-width:1.44804;stroke-linecap:round;stroke-linejoin:round;stroke-dasharray:none;paint-order:markers stroke fill"
           d="m 69.889774,92.100009 c 0,0 5.221785,-3.98755 12.579755,-0.47471"
           id="path23-0-3"
           sodipodi:nodetypes="cc"
           transform="matrix(-0.65015623,-0.05215745,-0.05979325,0.56712906,122.39614,-9.4935845)" /><g
           id="g25-1-9"
           style="fill:#000000"
           transform="matrix(0.45314754,-0.0435868,0.04167485,0.47393691,-18.632819,-11.6291)"><path
             style="fill:#000000;stroke:#000000;stroke-width:0.695994;stroke-linecap:round;stroke-linejoin:round;stroke-dasharray:none;paint-order:markers stroke fill"
             d="m 163.13431,190.42271 c 9.17985,3.5662 17.28676,2.30468 17.28676,2.30468 -8.67943,-8.16822 -15.11701,-13.50517 -28.87673,-15.22909 -0.72356,1.96937 3.09994,9.62621 11.58997,12.92441 z"
             id="path24-6-2"
             sodipodi:nodetypes="sccs" /></g><path
           style="fill:#800000;stroke:#000000;stroke-width:3.0846;stroke-linecap:round;stroke-linejoin:round;stroke-dasharray:none;paint-order:markers stroke fill"
           d="m 71.961982,-86.508039 c 12.53982,-31.314161 81.973178,27.794743 22.49443,33.745864 -0.96812,1.309729 -0.62778,10.420221 5.53733,14.369653 2.896348,1.855424 4.725178,4.107658 4.750908,6.26875 0.042,3.524442 -5.064488,6.330989 -9.169268,5.058098 0,0 -11.62216,6.82826 -20.36281,-0.240989 0,0 -8.881815,1.081645 -9.173375,-5.098986 -0.0652,-1.381422 2.735205,-5.020524 6.046285,-6.750713 15.18224,-7.933425 -9.825045,-23.125235 -0.1235,-47.351677 z"
           id="path28-5-4"
           sodipodi:nodetypes="scssccsss"
           transform="matrix(0.64535862,0,0,0.67309553,25.291083,101.34906)" /><path
           style="fill:#000000;stroke:#000000;stroke-width:1.52659;stroke-linecap:round;stroke-linejoin:round;stroke-dasharray:none;paint-order:markers stroke fill"
           d="m 68.604952,-30.673737 c 0,0 5.42688,-1.245147 6.81962,1.445987 0,0 -4.46638,1.72714 -6.81962,-1.445987 z"
           id="path29-7-61"
           transform="matrix(0.64535862,0,0,0.67309553,25.291083,101.34906)" /><path
           style="fill:#000000;stroke:#000000;stroke-width:1.52659;stroke-linecap:round;stroke-linejoin:round;stroke-dasharray:none;paint-order:markers stroke fill"
           d="m 102.11972,-30.406013 c 0,0 -5.426878,-1.245147 -6.819608,1.445988 0,0 4.46636,1.727132 6.819608,-1.445988 z"
           id="path30-5-82"
           transform="matrix(0.64535862,0,0,0.67309553,25.291083,101.34906)" /><path
           style="fill:none;stroke:#000000;stroke-width:1.33974;stroke-linecap:round;stroke-linejoin:round;stroke-dasharray:none;paint-order:markers stroke fill"
           d="m 78.157692,-51.520684 c 0.52577,0 3.5718,7.083604 -0.39714,9.711391 0,0 7.7373,-2.57066 14.32835,-0.457005"
           id="path32-1-97"
           sodipodi:nodetypes="ccc"
           transform="matrix(0.64535862,0,0,0.67309553,25.291083,101.34906)" /><path
           style="fill:none;stroke:#000000;stroke-width:1.33974;stroke-linecap:round;stroke-linejoin:round;stroke-dasharray:none;stroke-opacity:1;paint-order:markers stroke fill"
           d="m 103.66149,-81.977553 c 0,0 20.59706,15.160313 -3.53687,23.53838"
           id="path107-6"
           transform="matrix(0.64535862,0,0,0.67309553,25.291083,101.34906)" /><path
           style="fill:none;stroke:#000000;stroke-width:0.883;stroke-linecap:round;stroke-linejoin:round;stroke-dasharray:none;paint-order:markers stroke fill"
           d="m 86.362183,66.24397 c 0,0 -4.43428,0.92497 -6.90383,-0.79215"
           id="path104-0-5"
           sodipodi:nodetypes="cc" /></g></g></g></svg>
