<?xml version="1.0" encoding="UTF-8" standalone="no"?>
<!-- Created with Inkscape (http://www.inkscape.org/) -->

<svg
   width="210mm"
   height="297mm"
   viewBox="0 0 210 297"
   version="1.1"
   id="svg1"
   sodipodi:docname="Bopo5.svg"
   inkscape:version="1.4 (86a8ad7, 2024-10-11)"
   xmlns:inkscape="http://www.inkscape.org/namespaces/inkscape"
   xmlns:sodipodi="http://sodipodi.sourceforge.net/DTD/sodipodi-0.dtd"
   xmlns="http://www.w3.org/2000/svg"
   xmlns:svg="http://www.w3.org/2000/svg">
  <sodipodi:namedview
     id="namedview1"
     pagecolor="#ffffff"
     bordercolor="#000000"
     borderopacity="0.25"
     inkscape:showpageshadow="2"
     inkscape:pageopacity="0.0"
     inkscape:pagecheckerboard="0"
     inkscape:deskcolor="#d1d1d1"
     inkscape:document-units="mm"
     showguides="true"
     inkscape:lockguides="true"
     showgrid="false"
     inkscape:zoom="0.34835028"
     inkscape:cx="643.03091"
     inkscape:cy="690.39703"
     inkscape:window-width="1147"
     inkscape:window-height="755"
     inkscape:window-x="469"
     inkscape:window-y="7"
     inkscape:window-maximized="0"
     inkscape:current-layer="layer5">
    <sodipodi:guide
       position="53.926801,296.62024"
       orientation="0,-1"
       id="guide1"
       inkscape:locked="true" />
    <sodipodi:guide
       position="80.292044,247.05244"
       orientation="0,-1"
       id="guide2"
       inkscape:locked="true" />
    <sodipodi:guide
       position="39.875451,239.65531"
       orientation="0,-1"
       id="guide5"
       inkscape:locked="true" />
    <sodipodi:guide
       position="38.937613,189.5859"
       orientation="0,-1"
       id="guide6"
       inkscape:locked="true" />
    <sodipodi:guide
       position="40.817359,175.085"
       orientation="0,-1"
       id="guide11"
       inkscape:locked="true" />
    <sodipodi:guide
       position="116.00723,125.13744"
       orientation="0,-1"
       id="guide12"
       inkscape:locked="true" />
    <sodipodi:guide
       position="47.660659,121.16825"
       orientation="0,-1"
       id="guide13"
       inkscape:locked="true" />
    <sodipodi:guide
       position="61.901892,71.418871"
       orientation="0,-1"
       id="guide14"
       inkscape:locked="true" />
    <sodipodi:guide
       position="27.122061,67.133817"
       orientation="0,-1"
       id="guide24"
       inkscape:locked="true" />
    <sodipodi:guide
       position="48.604881,5.3707052"
       orientation="0,-1"
       id="guide25"
       inkscape:locked="true" />
  </sodipodi:namedview>
  <defs
     id="defs1" />
  <g
     inkscape:label="Layer 1"
     inkscape:groupmode="layer"
     id="layer1"
     sodipodi:insensitive="true">
    <rect
       style="fill:#333333;fill-opacity:1;stroke:none;stroke-width:2.562;stroke-linecap:round;stroke-linejoin:round;paint-order:markers stroke fill"
       id="rect1"
       width="338.35443"
       height="390.98734"
       x="-41.891499"
       y="-42.965641" />
  </g>
  <g
     inkscape:groupmode="layer"
     id="layer2"
     inkscape:label="Layer 2"
     sodipodi:insensitive="true">
    <path
       style="fill:none;fill-opacity:1;stroke:#000000;stroke-width:0.862;stroke-linecap:round;stroke-linejoin:round;stroke-dasharray:none;stroke-opacity:1;paint-order:markers stroke fill"
       d="M 21.32368,21.757565 C 21.479258,39.007581 34.496148,34.743683 37.407842,24.83051 39.576949,17.445555 41.94016,0.52770866 24.852807,0.37976622 2.9213091,0.18988313 -10.46545,52.122911 26.087047,49.749373 62.639546,47.375833 60.455889,22.785972 38.524392,18.893369"
       id="path2"
       sodipodi:nodetypes="csssc" />
    <path
       style="fill:none;fill-opacity:1;stroke:#000000;stroke-width:0.85679;stroke-linecap:round;stroke-linejoin:round;stroke-dasharray:none;stroke-opacity:1;paint-order:markers stroke fill"
       d="M 53.833596,18.532548 C 52.49279,28.748408 66.30573,37.30306 68.539678,23.258635 69.662874,16.197309 72.290886,4.9518097 64.413345,1.7232067 56.535803,-1.5053965 49.675032,-1.6206009 43.673096,16.231675 37.671159,34.08395 47.021005,41.743455 54.551606,46.618528 62.991829,52.082461 69.43323,50.078376 73.747124,42.780021 77.618629,36.230108 97.712208,3.8978416 83.044173,2.0974522 70.869297,0.60307897 70.452126,-2.4721341 69.539526,5.862264 c -0.188301,1.7196819 0.737482,2.4838029 0.489258,6.499137"
       id="path3"
       sodipodi:nodetypes="csssssssc" />
    <path
       style="fill:none;fill-opacity:1;stroke:#000000;stroke-width:0.957538;stroke-linecap:round;stroke-linejoin:round;stroke-dasharray:none;stroke-opacity:1;paint-order:markers stroke fill"
       d="m 93.717119,19.260121 c -2.133158,12.671455 6.025073,17.841361 16.544921,9.439457 5.203,-4.155491 20.20698,-29.764177 -7.20688,-28.24511207 C 75.64128,1.9735307 72.829601,23.999971 75.172667,37.481672 c 1.457362,8.385475 4.456021,10.389494 12.490711,11.990043 24.645652,4.909532 19.399272,-10.20502 10.542257,-17.112934"
       id="path4"
       sodipodi:nodetypes="cssssc" />
    <path
       style="fill:none;fill-opacity:1;stroke:#000000;stroke-width:0.856117;stroke-linecap:round;stroke-linejoin:round;stroke-dasharray:none;stroke-opacity:1;paint-order:markers stroke fill"
       d="m 102.18123,29.514422 c -0.22747,13.911273 8.90921,18.77073 17.2783,20.198216 25.22604,4.302719 44.65082,-48.2976659 12.15727,-48.435096 -16.64126,-0.070383 -29.06615,5.6443524 -29.43557,28.23688 z"
       id="path5"
       sodipodi:nodetypes="ssss" />
    <path
       style="fill:none;fill-opacity:1;stroke:#000000;stroke-width:0.861999;stroke-linecap:round;stroke-linejoin:round;stroke-dasharray:none;stroke-opacity:1;paint-order:markers stroke fill"
       d="m 131.58899,14.051349 c 0,0 2.65837,18.98831 -1.51906,21.077024 -4.17743,2.088716 -10.25369,-3.607779 -9.87392,-9.684038"
       id="path6" />
  </g>
  <g
     inkscape:groupmode="layer"
     id="layer3"
     inkscape:label="Layer 3">
    <path
       style="fill:none;fill-opacity:1;stroke:#000000;stroke-width:0.861999;stroke-linecap:round;stroke-linejoin:round;stroke-dasharray:none;stroke-opacity:1;paint-order:markers stroke fill"
       d="m 22.825498,78.143761 0.134267,11.412748 14.23237,0.134268 L 38.132006,57.198011 5.2364374,57.600814 4.4308318,106.47423 H 54.781193 L 54.109855,75.324141 37.729205,75.055605"
       id="path7"
       sodipodi:nodetypes="ccccccccc" />
    <path
       style="fill:none;fill-opacity:1;stroke:#000000;stroke-width:0.861999;stroke-linecap:round;stroke-linejoin:round;stroke-dasharray:none;stroke-opacity:1;paint-order:markers stroke fill"
       d="m 58.272151,75.324141 1.074139,11.547016 11.278481,0.402802 2.416818,-30.075949 -26.316455,-0.134267 -1.07414,49.813287 44.442583,-0.13427 1.879749,-49.679017 -18.720913,0.126123"
       id="path8"
       sodipodi:nodetypes="ccccccccc" />
    <path
       style="fill:none;fill-opacity:1;stroke:#000000;stroke-width:0.862821;stroke-linecap:round;stroke-linejoin:round;stroke-dasharray:none;stroke-opacity:1;paint-order:markers stroke fill"
       d="m 100.51564,73.086846 1.13929,15.409884 22.40621,-1.71221 0.18988,-29.868539 -41.014752,0.190245 -1.329177,49.463824 28.672349,0.19025 -0.94942,-18.651884"
       id="path9"
       sodipodi:nodetypes="cccccccc" />
    <path
       style="fill:none;fill-opacity:1;stroke:#000000;stroke-width:0.861999;stroke-linecap:round;stroke-linejoin:round;stroke-dasharray:none;stroke-opacity:1;paint-order:markers stroke fill"
       d="m 113.59041,106.47423 2.14828,-49.679023 42.83138,0.134268 -0.13427,49.410485 z"
       id="path10" />
    <path
       style="fill:none;fill-opacity:1;stroke:#000000;stroke-width:0.861999;stroke-linecap:round;stroke-linejoin:round;stroke-dasharray:none;stroke-opacity:1;paint-order:markers stroke fill"
       d="m 129.03119,80.023507 1.47694,11.547017 10.74141,0.268533 2.41682,-28.330469"
       id="path11" />
    <path
       style="fill:#a05a2c;fill-opacity:1;stroke:none;stroke-width:0.853769;stroke-linecap:round;stroke-linejoin:round;stroke-dasharray:none;stroke-opacity:1;paint-order:markers stroke fill"
       d="m 125.88412,171.77435 c -13.90549,-17.18887 -8.7535,-33.55689 2.10745,-49.67902 l 42.01742,0.13427 c 8.75012,16.47016 7.97119,32.94032 -0.13172,49.41048 z"
       id="path10-2"
       sodipodi:nodetypes="ccccc"
       inkscape:label="O fill" />
    <path
       style="fill:none;fill-opacity:1;stroke:#000000;stroke-width:0.853769;stroke-linecap:round;stroke-linejoin:round;stroke-dasharray:none;stroke-opacity:1;paint-order:markers stroke fill"
       d="m 145.32803,145.05509 1.44887,11.54701 10.53728,0.26854 2.37089,-28.33047"
       id="path11-7"
       inkscape:label="O dot" />
    <path
       style="fill:none;fill-opacity:1;stroke:#000000;stroke-width:0.853769;stroke-linecap:round;stroke-linejoin:round;stroke-dasharray:none;stroke-opacity:1;paint-order:markers stroke fill"
       d="m 125.88412,171.77435 c -13.90549,-17.18887 -8.7535,-33.55689 2.10745,-49.67902 l 42.01742,0.13427 c 8.75012,16.47016 7.97119,32.94032 -0.13172,49.41048 z"
       id="path10-2-2"
       sodipodi:nodetypes="ccccc"
       inkscape:label="O outline" />
    <path
       style="fill:#a05a2c;fill-opacity:1;stroke:none;stroke-width:0.861176;stroke-linecap:round;stroke-linejoin:round;stroke-dasharray:none;stroke-opacity:1;paint-order:markers stroke fill"
       d="m 115.47926,138.45965 1.13929,15.35117 c 5.29839,6.38977 13.80407,6.98805 22.40621,-1.70568 6.73071,-9.6935 8.11835,-19.56711 0.18988,-29.75475 l -41.014758,0.18951 c -12.001942,16.00663 -16.538974,32.28353 -1.329175,49.2754 l 28.672353,0.18952 c 5.25158,-5.42634 4.30852,-11.55268 0.18988,-13.38336"
       id="path9-5"
       sodipodi:nodetypes="cccccccc"
       inkscape:label="P fill" />
    <path
       style="fill:none;fill-opacity:1;stroke:#000000;stroke-width:0.861176;stroke-linecap:round;stroke-linejoin:round;stroke-dasharray:none;stroke-opacity:1;paint-order:markers stroke fill"
       d="m 115.47926,138.45965 1.13929,15.35117 c 5.29839,6.38977 13.80407,6.98805 22.40621,-1.70568 6.73071,-9.6935 8.11835,-19.56711 0.18988,-29.75475 l -41.014758,0.18951 c -12.001942,16.00663 -16.538974,32.28353 -1.329175,49.2754 l 28.672353,0.18952 c 5.25158,-5.42634 4.30852,-11.55268 0.18988,-13.38336"
       id="path9-5-5"
       sodipodi:nodetypes="cccccccc"
       inkscape:label="P outline " />
    <path
       style="fill:#a05a2c;fill-opacity:1;stroke:none;stroke-width:0.83391;stroke-linecap:round;stroke-linejoin:round;stroke-dasharray:none;stroke-opacity:1;paint-order:markers stroke fill"
       d="m 66.013018,140.2439 1.01901,11.3914 10.699621,0.39737 2.292777,-29.67061 -24.965782,-0.13246 c -9.46812,16.19079 -15.293724,32.45735 -1.019011,49.14195 l 42.1616,-0.13246 c 11.514227,-17.11074 11.400277,-33.39701 1.78327,-49.00949 l -17.760074,0.12443"
       id="path8-1"
       sodipodi:nodetypes="ccccccccc"
       inkscape:label="U fill" />
    <path
       style="fill:none;fill-opacity:1;stroke:#000000;stroke-width:0.83391;stroke-linecap:round;stroke-linejoin:round;stroke-dasharray:none;stroke-opacity:1;paint-order:markers stroke fill"
       d="m 66.013018,140.2439 1.01901,11.3914 10.699621,0.39737 2.292777,-29.67061 -24.965782,-0.13246 c -9.46812,16.19079 -15.293724,32.45735 -1.019011,49.14195 l 42.1616,-0.13246 c 11.514227,-17.11074 11.400277,-33.39701 1.78327,-49.00949 l -17.760074,0.12443"
       id="path8-1-8"
       sodipodi:nodetypes="ccccccccc"
       inkscape:label="U outline" />
    <path
       style="fill:#a05a2c;fill-opacity:1;stroke:#000000;stroke-width:0.862;stroke-linecap:round;stroke-linejoin:round;stroke-dasharray:none;stroke-opacity:1;paint-order:markers stroke fill"
       d="m 24.362351,143.17536 0.134267,11.41275 14.23237,0.13427 c 11.488704,-19.4274 6.476133,-23.99257 0.939871,-32.49277 l -32.8955684,0.4028 -0.8056054,48.87342 H 56.318046 C 77.783534,147.32598 53.575472,133.54172 45.576637,138.40886"
       id="path7-1"
       sodipodi:nodetypes="cccccccc"
       inkscape:label="C fill" />
    <path
       style="fill:none;fill-opacity:1;stroke:#000000;stroke-width:0.861999;stroke-linecap:round;stroke-linejoin:round;stroke-dasharray:none;stroke-opacity:1;paint-order:markers stroke fill"
       d="m 24.362351,143.17536 0.134267,11.41275 14.23237,0.13427 c 11.488704,-19.4274 6.476133,-23.99257 0.939871,-32.49277 l -32.8955684,0.4028 -0.8056054,48.87342 H 56.318046 C 77.783534,147.32598 53.575472,133.54172 45.576637,138.40886"
       id="path7-1-1"
       sodipodi:nodetypes="cccccccc"
       inkscape:label="C outline " />
  </g>
  <g
     inkscape:groupmode="layer"
     id="layer4"
     inkscape:label="Layer 4"
     style="display:inline">
    <path
       style="display:inline;fill:#6c5d53;fill-opacity:1;stroke:none;stroke-width:0.83121;stroke-linecap:round;stroke-linejoin:round;stroke-dasharray:none;stroke-opacity:1;paint-order:markers stroke fill"
       d="m 129.22777,224.80866 c 0,0 -38.545234,-23.28685 -1.48549,-44.73779 37.05974,-21.45094 57.52629,43.38505 37.21469,44.70222 -20.31159,1.31716 -35.7292,0.0356 -35.7292,0.0356 z"
       id="path24-7"
       sodipodi:nodetypes="cssc"
       inkscape:label="O fill" />
    <path
       style="display:inline;fill:none;fill-opacity:1;stroke:#000000;stroke-width:0.83121;stroke-linecap:round;stroke-linejoin:round;stroke-dasharray:none;stroke-opacity:1;paint-order:markers stroke fill"
       d="m 128.21233,225.16975 c 0,0 -37.529794,-23.64794 -0.47005,-45.09888 37.05974,-21.45094 57.66056,43.51932 37.34896,44.83649 -20.31159,1.31716 -36.87891,0.26239 -36.87891,0.26239 z"
       id="path24"
       sodipodi:nodetypes="cssc"
       inkscape:label="O" />
    <path
       style="display:inline;fill:#6c5d53;fill-opacity:1;stroke:none;stroke-width:0.861999;stroke-linecap:round;stroke-linejoin:round;stroke-dasharray:none;stroke-opacity:1;paint-order:markers stroke fill"
       d="m 86.801636,197.05818 c 0,0 9.873915,-23.92527 35.508104,-19.74785 25.3638,4.13336 34.06864,32.81124 1.33444,34.47225 -7.10747,0.36065 -14.39708,-2.06 -19.94298,-12.82557 -0.19178,0.31164 4.80641,11.88275 15.44656,12.56357 9.74073,0.62327 13.86143,13.00215 8.47871,13.6403 -9.9911,1.18449 -21.2214,0.28589 -32.767517,-0.18893 -0.596722,-0.0245 0.429069,-0.53038 -0.16753,-0.62381 -10.169222,-1.5925 -11.747072,-12.34313 -7.889787,-27.28996 z"
       id="path23-7"
       sodipodi:nodetypes="csscssssc"
       inkscape:label="P fill" />
    <path
       style="display:inline;fill:none;fill-opacity:1;stroke:#000000;stroke-width:0.861999;stroke-linecap:round;stroke-linejoin:round;stroke-dasharray:none;stroke-opacity:1;paint-order:markers stroke fill"
       d="m 86.801636,197.05818 c 0,0 9.873915,-23.92527 35.508104,-19.74785 25.3638,4.13336 34.06864,32.81124 1.33444,34.47225 -7.10747,0.36065 -14.39708,-2.06 -19.94298,-12.82557 -0.19178,0.31164 4.80641,11.88275 15.44656,12.56357 9.74073,0.62327 13.86143,13.00215 8.47871,13.6403 -10.44979,1.23887 -22.07644,-0.30205 -33.045384,-0.0841 -10.381083,0.20622 -11.65992,-12.98188 -7.77945,-28.01855 z"
       id="path23"
       sodipodi:nodetypes="csscssscc"
       inkscape:label="P " />
    <path
       style="display:inline;fill:#6c5d53;fill-opacity:1;stroke:none;stroke-width:0.861999;stroke-linecap:round;stroke-linejoin:round;stroke-dasharray:none;stroke-opacity:1;paint-order:markers stroke fill"
       d="m 68.658736,184.32484 c -9.599648,-5.06402 -16.387437,-4.75204 -21.431494,-2.33478 -15.090193,7.23166 -11.177175,38.58944 6.8727,43.41632 1.676533,0.44834 5.313731,0.0952 7.20304,0.0385 l 32.640229,-0.19465 c 0,0 12.122989,-14.05547 4.623368,-33.37925 -16.02655,-41.29454 -62.180414,21.92892 -21.524359,18.80153"
       id="path22-1"
       sodipodi:nodetypes="cssccsc"
       inkscape:label="U fill" />
    <path
       style="fill:none;fill-opacity:1;stroke:#000000;stroke-width:0.861999;stroke-linecap:round;stroke-linejoin:round;stroke-dasharray:none;stroke-opacity:1;paint-order:markers stroke fill"
       d="m 68.658736,184.32484 c -38.044353,-20.06919 -39.459551,41.45821 -14.835243,41.22073 2.393744,-0.0231 5.39587,-0.0382 7.479489,-0.10069 l 32.640229,-0.19465 c 0,0 12.122989,-14.05547 4.623368,-33.37925 -16.02655,-41.29454 -62.180414,21.92892 -21.524359,18.80153"
       id="path22"
       sodipodi:nodetypes="csccsc"
       inkscape:label="U " />
    <path
       style="display:inline;fill:#6c5d53;fill-opacity:1;stroke:none;stroke-width:0.829278;stroke-linecap:round;stroke-linejoin:round;stroke-dasharray:none;stroke-opacity:1;paint-order:markers stroke fill"
       d="m 17.723326,209.5291 c 40.088011,-40.55379 47.046008,6.74346 35.580923,15.90625 H 21.751356 C 9.0080177,220.73559 0.21147301,222.13198 -0.01819327,208.66979 l -0.14894365,-8.73053 C -0.36723127,188.21046 28.659037,161.5255 51.105545,187.35502 c 25.03318,28.80604 -32.667023,31.03154 -33.636299,11.23903 z"
       id="path21-2"
       sodipodi:nodetypes="cccccscc"
       inkscape:label="C fill" />
    <path
       style="display:inline;fill:none;fill-opacity:1;stroke:#000000;stroke-width:0.829278;stroke-linecap:round;stroke-linejoin:round;stroke-dasharray:none;stroke-opacity:1;paint-order:markers stroke fill"
       d="m 56.888781,203.3511 c 3.120971,8.03664 1.373116,18.12214 -3.584532,22.08425 H 21.751356 C 9.0080177,220.73559 0.21147301,222.13198 -0.01819327,208.66979 l -0.14894365,-8.73053 C -0.36723127,188.21046 28.659037,161.5255 51.105545,187.35502 c 25.03318,28.80604 -32.667023,31.03154 -33.636299,11.23903 l 0.25408,10.93505 c 1.452467,-1.46934 2.089403,-2.31986 3.455586,-3.56454"
       id="path21"
       sodipodi:nodetypes="cccccsccc"
       inkscape:label="C" />
  </g>
  <g
     inkscape:groupmode="layer"
     id="layer5"
     inkscape:label="Layer 5">
    <path
       style="fill:none;fill-opacity:1;stroke:#000000;stroke-width:0.858244;stroke-linecap:round;stroke-linejoin:round;stroke-dasharray:none;stroke-opacity:1;paint-order:markers stroke fill"
       d="m 29.038622,262.59624 c 0,0 -10.063806,13.50567 8.354856,13.12918 18.418659,-0.37644 32.987995,-44.81513 -2.520144,-45.56807 -33.4934687,-0.71021 -56.343269,62.55625 -0.66149,61.20711 17.750357,-0.43008 22.22737,-14.35773 11.310803,-18.63647"
       id="path25"
       sodipodi:nodetypes="csssc" />
    <path
       style="fill:none;fill-opacity:1;stroke:#000000;stroke-width:0.89848;stroke-linecap:round;stroke-linejoin:round;stroke-dasharray:none;stroke-opacity:1;paint-order:markers stroke fill"
       d="M 81.399368,259.95108 C 62.653,268.4462 67.128763,219.5154 96.598079,234.51791 c 21.735551,11.06533 1.329378,52.1369 -22.775254,55.94245 -17.795816,2.80955 -25.810926,-6.29106 -28.536493,-16.12437 -8.510854,-30.70548 14.407349,-53.2327 32.73281,-40.20413"
       id="path26"
       sodipodi:nodetypes="csssc" />
    <path
       style="fill:none;fill-opacity:1;stroke:#000000;stroke-width:0.902076;stroke-linecap:round;stroke-linejoin:round;stroke-dasharray:none;stroke-opacity:1;paint-order:markers stroke fill"
       d="m 86.988722,254.32282 c 0,0 11.65438,-25.34301 39.412978,-22.73417 43.69131,4.10624 6.26875,63.44388 -12.92576,35.592 0,0 14.19715,22.36149 7.20453,23.85225 -6.99263,1.49076 -46.405614,0.37269 -33.691748,-36.71008 z"
       id="path27"
       sodipodi:nodetypes="cscsc" />
    <path
       style="fill:none;fill-opacity:1;stroke:#000000;stroke-width:0.847153;stroke-linecap:round;stroke-linejoin:round;stroke-dasharray:none;stroke-opacity:1;paint-order:markers stroke fill"
       d="m 121.1933,244.64861 c -8.14669,12.95982 -15.71198,34.07166 11.59344,44.75874 41.0859,16.08063 58.54069,-54.98542 29.27034,-57.57908 -19.91482,-2.71435 -30.56248,-3.02644 -40.86378,12.82034 z"
       id="path28"
       sodipodi:nodetypes="ssss" />
  </g>
</svg>
