<?xml version="1.0" encoding="UTF-8" standalone="no"?>
<!-- Created with Inkscape (http://www.inkscape.org/) -->

<svg
   width="210mm"
   height="297mm"
   viewBox="0 0 210 297"
   version="1.1"
   id="svg1"
   xml:space="preserve"
   inkscape:version="1.4 (86a8ad7, 2024-10-11)"
   sodipodi:docname="core.svg"
   xmlns:inkscape="http://www.inkscape.org/namespaces/inkscape"
   xmlns:sodipodi="http://sodipodi.sourceforge.net/DTD/sodipodi-0.dtd"
   xmlns="http://www.w3.org/2000/svg"
   xmlns:svg="http://www.w3.org/2000/svg"><sodipodi:namedview
     id="namedview1"
     pagecolor="#ffffff"
     bordercolor="#000000"
     borderopacity="0.25"
     inkscape:showpageshadow="2"
     inkscape:pageopacity="0.0"
     inkscape:pagecheckerboard="0"
     inkscape:deskcolor="#d1d1d1"
     inkscape:document-units="mm"
     inkscape:zoom="0.34835028"
     inkscape:cx="393.28231"
     inkscape:cy="475.09651"
     inkscape:window-width="1261"
     inkscape:window-height="755"
     inkscape:window-x="0"
     inkscape:window-y="0"
     inkscape:window-maximized="0"
     inkscape:current-layer="svg1"
     showguides="true"><sodipodi:guide
       position="75.193708,291.4934"
       orientation="0,-1"
       id="guide101"
       inkscape:locked="false" /><sodipodi:guide
       position="86.396811,252.75724"
       orientation="0,-1"
       id="guide102"
       inkscape:locked="false" /><sodipodi:guide
       position="56.775047,232.62963"
       orientation="0,-1"
       id="guide104"
       inkscape:locked="false" /><sodipodi:guide
       position="63.610839,193.32383"
       orientation="0,-1"
       id="guide105"
       inkscape:locked="false" /></sodipodi:namedview><defs
     id="defs1" /><g
     inkscape:groupmode="layer"
     id="layer4"
     inkscape:label="backgrounxd "
     style="fill:#393737;fill-opacity:1;stroke:none"
     sodipodi:insensitive="true"><rect
       style="fill:#393737;fill-opacity:1;stroke:none;stroke-width:0.924999;stroke-linecap:round;stroke-linejoin:round;stroke-dasharray:none;stroke-opacity:1;paint-order:markers stroke fill"
       id="rect31"
       width="209.63095"
       height="296.21765"
       x="0"
       y="0" /></g><g
     inkscape:groupmode="layer"
     id="layer15"
     inkscape:label="COER 2 "><g
       inkscape:groupmode="layer"
       id="layer16"
       inkscape:label="Letters"><g
         id="g65-9"
         transform="matrix(2.0941844,0,0,2.0941844,-71.507683,55.052405)"
         style="fill:#000000;stroke-width:3.1;stroke-dasharray:none"><path
           style="fill:#000000;fill-opacity:1;stroke:none;stroke-width:3.1;stroke-linecap:round;stroke-linejoin:round;stroke-dasharray:none;stroke-opacity:1;paint-order:markers stroke fill"
           d="m 99.03327,10.754737 c 0,0 -3.69236,2.953888 -0.97344,5.404274 l -4.43491,-0.05899 c 0,0 1.64886,-6.1844584 5.40835,-5.345284 z"
           id="path58-3"
           sodipodi:nodetypes="cccc" /><path
           style="fill:#000000;fill-opacity:1;stroke:#000000;stroke-width:3.1;stroke-linecap:round;stroke-linejoin:round;stroke-dasharray:none;stroke-opacity:1;paint-order:markers stroke fill"
           d="m 108.53879,11.188108 c -3.07197,2.942849 -5.5874,7.270117 -6.27059,13.349805 -1.40903,12.538744 8.04293,19.609344 14.83753,17.797534 6.09578,-1.62547 9.9572,-13.74811 0.74217,-20.588074 0,0 5.81458,4.55445 11.06021,1.82364 3.36467,-1.75161 1.25494,-12.856002 -5.26031,-16.3870164 -4.94527,-2.680146 -18.67407,1.11049 -15.10901,4.0041114 z"
           id="path59-0"
           sodipodi:nodetypes="cscsssc" /><g
           id="g60-7"
           transform="translate(-14.393617,-29.187071)"
           style="fill:#000000;stroke-width:3.1;stroke-dasharray:none"><path
             id="path60-7"
             style="fill:#000000;fill-opacity:1;stroke:#000000;stroke-width:3.1;stroke-linecap:round;stroke-linejoin:round;stroke-dasharray:none;stroke-opacity:1;paint-order:markers stroke fill"
             d="m 110.2068,35.005644 c -9.12811,-0.351395 -17.904747,13.346791 -12.60698,26.70638 2.183656,5.50661 12.62712,15.760121 22.21622,6.740674 9.58909,-9.019448 0.66455,-19.083073 0.66455,-19.083073 -5.31672,3.797662 -12.3424,1.329118 -12.3424,1.329118 l -1.70893,2.563668 0.4749,-3.41788 c 8.07003,3.133072 13.79192,-0.888317 13.79192,-0.888317 2.53617,-8.130935 -4.93067,-12.751345 -8.66303,-13.688571 -0.6076,-0.152573 -1.21771,-0.238573 -1.82625,-0.261999 z m 2.0003,4.962225 c 0.20811,0.01892 0.90385,0.129522 1.13462,0.202946 2.95388,0.939874 5.41366,5.447848 5.41366,5.447848 l -11.25996,-0.257491 c 0,0 1.73383,-5.664034 4.1895,-5.440777 z"
             sodipodi:nodetypes="ssscccccssscccss" /></g><path
           style="fill:#000000;fill-opacity:1;stroke:none;stroke-width:3.1;stroke-linecap:round;stroke-linejoin:round;stroke-dasharray:none;stroke-opacity:1;paint-order:markers stroke fill"
           d="m 76.796358,14.517005 c -8.928654,-0.164322 -7.122866,16.070945 -0.04909,15.994322 l 0.611404,-0.11473 -2.080851,-3.749125 c -1.199258,-2.847674 -1.623988,-5.426813 -0.364023,-8.543021 l 1.872716,-3.606884 z"
           id="path61-8"
           sodipodi:nodetypes="ccccccc" /><path
           id="path62-7"
           style="fill:#000000;fill-opacity:1;stroke:#000000;stroke-width:3.1;stroke-linecap:round;stroke-linejoin:round;stroke-dasharray:none;stroke-opacity:1;paint-order:markers stroke fill"
           d="M 73.489623,6.1109516 C 53.520047,6.4390216 59.003638,50.406157 81.653982,40.095447 92.872958,34.988427 90.511308,8.9852216 76.621731,6.3910376 75.51551,6.1844266 74.471733,6.0948166 73.489623,6.1109516 Z m 1.70983,8.2633634 c 1.318148,0.06072 4.057357,4.218814 4.861123,7.784525 0.312749,1.45193 0.560728,9.708937 -5.203595,8.223507 -7.062921,-3.1259 -3.301817,-16.175911 0.342472,-16.008032 z"
           sodipodi:nodetypes="sssssccs" /><path
           style="fill:#000000;fill-opacity:1;stroke:#000000;stroke-width:3.1;stroke-linecap:round;stroke-linejoin:round;stroke-dasharray:none;stroke-opacity:1;paint-order:markers stroke fill"
           d="m 51.9769,24.177073 1.94689,-2.46716 c 0,0 5.94948,2.20727 12.40246,-1.12499 0,0 10.21993,10.541734 -2.59718,20.510594 C 50.91196,51.064387 42.46216,34.354667 41.4178,27.708757 40.37345,21.062843 44.07617,6.4418436 53.47538,5.9671356 62.8746,5.4924276 67.52673,12.423162 66.86214,18.119651 66.19755,23.816153 52.43103,21.157793 52.43103,21.157793 Z"
           id="path63-3"
           sodipodi:nodetypes="cccsssscc" /><path
           style="fill:#000000;fill-opacity:1;stroke:#000000;stroke-width:3.1;stroke-linecap:round;stroke-linejoin:round;stroke-dasharray:none;stroke-opacity:1;paint-order:markers stroke fill"
           d="m 76.538361,15.608625 c 0,0 -9.260344,14.717436 4.043331,13.222703"
           id="path64-0"
           sodipodi:nodetypes="cc" /><path
           style="fill:#000000;fill-opacity:1;stroke:#000000;stroke-width:3.1;stroke-linecap:round;stroke-linejoin:round;stroke-dasharray:none;stroke-opacity:1;paint-order:markers stroke fill"
           d="m 102.74797,14.886657 c 0,0 -11.479887,-3.423826 -9.566574,-1.174841"
           id="path65-3"
           sodipodi:nodetypes="cc" /></g><path
         style="fill:#00ff00;fill-opacity:1;stroke:none;stroke-width:0.420805;stroke-linecap:round;stroke-linejoin:round;stroke-dasharray:none;stroke-opacity:1;paint-order:markers stroke fill"
         d="m 126.53053,73.312186 c 0,0 -7.72878,6.374096 -2.03758,11.661703 l -9.28308,-0.127284 c 0,0 3.45136,-13.345235 11.32066,-11.53441 z"
         id="path52-1-7"
         sodipodi:nodetypes="cccc" /><path
         style="fill:#501616;fill-opacity:1;stroke:#000000;stroke-width:1.93712;stroke-linecap:round;stroke-linejoin:round;stroke-dasharray:none;stroke-opacity:1;paint-order:markers stroke fill"
         d="m 146.44016,73.890376 c -6.43326,6.162869 -11.70105,15.224966 -13.13177,27.956944 -2.95077,26.25845 16.84338,41.06557 31.07253,37.27131 12.76569,-3.40403 20.85221,-28.79106 1.55425,-43.115208 0,0 12.17679,9.537868 23.16211,3.819038 7.04624,-3.668187 2.62808,-26.922837 -11.01606,-34.317431 -10.35631,-5.61272 -39.10695,2.325571 -31.64106,8.385347 z"
         id="path35-2-6"
         sodipodi:nodetypes="cscsssc" /><path
         id="path33-0-9"
         style="fill:#501616;fill-opacity:1;stroke:#000000;stroke-width:1.96588;stroke-linecap:round;stroke-linejoin:round;stroke-dasharray:none;stroke-opacity:1;paint-order:markers stroke fill"
         d="M 119.7903,62.660605 C 100.68351,61.90234 82.312402,91.461198 93.401603,120.28941 c 4.570796,11.88252 26.430857,34.00822 46.502607,14.54547 20.07169,-19.46277 1.39101,-41.178723 1.39101,-41.178723 -11.12887,8.194853 -25.8349,2.868063 -25.8349,2.868063 l -3.5771,5.53205 0.99405,-7.375329 c 16.89204,6.760749 28.86902,-1.916868 28.86902,-1.916868 5.30864,-17.545473 -10.3208,-27.515701 -18.13332,-29.53811 -1.27182,-0.329232 -2.54889,-0.514808 -3.82267,-0.565358 z m 4.18699,10.707819 c 0.43561,0.04084 1.89192,0.279492 2.37496,0.437929 6.18301,2.028123 11.33178,11.755729 11.33178,11.755729 l -23.56915,-0.555631 c 0,0 3.62924,-12.22223 8.76939,-11.74047 z"
         sodipodi:nodetypes="ssscccccssscccss" /><g
         id="g35-8-3"
         transform="matrix(2.0931816,0,0,2.1578666,-110.89255,-12.876903)"
         style="fill:#501616"><path
           id="path66-5"
           style="fill:#501616;fill-opacity:1;stroke:#000000;stroke-width:0.924999;stroke-linecap:round;stroke-linejoin:round;stroke-dasharray:none;stroke-opacity:1;paint-order:markers stroke fill"
           d="m 110.2068,35.005644 c -9.12811,-0.351395 -17.904747,13.346791 -12.60698,26.70638 2.183656,5.50661 12.62712,15.760121 22.21622,6.740674 9.58909,-9.019448 0.66455,-19.083073 0.66455,-19.083073 -5.31672,3.797662 -12.3424,1.329118 -12.3424,1.329118 l -1.70893,2.563668 0.4749,-3.41788 c 8.07003,3.133072 13.79192,-0.888317 13.79192,-0.888317 2.53617,-8.130935 -4.93067,-12.751345 -8.66303,-13.688571 -0.6076,-0.152573 -1.21771,-0.238573 -1.82625,-0.261999 z m 2.0003,4.962225 c 0.20811,0.01892 0.90385,0.129522 1.13462,0.202946 2.95388,0.939874 5.41366,5.447848 5.41366,5.447848 l -11.25996,-0.257491 c 0,0 1.73383,-5.664034 4.1895,-5.440777 z"
           sodipodi:nodetypes="ssscccccssscccss" /></g><path
         style="fill:#00ff00;fill-opacity:1;stroke:none;stroke-width:0.434537;stroke-linecap:round;stroke-linejoin:round;stroke-dasharray:none;stroke-opacity:1;paint-order:markers stroke fill"
         d="M 79.961741,82.006254 C 61.282608,81.640347 65.060392,117.79247 79.859026,117.62187 l 1.279093,-0.25549 -4.353223,-8.34842 C 74.275989,102.67685 73.38744,96.933722 76.023321,89.994654 l 3.917815,-8.031685 z"
         id="path51-5-7"
         sodipodi:nodetypes="ccccccc" /><path
         id="path32-3-66"
         style="fill:#501616;fill-opacity:1;stroke:#000000;stroke-width:1.99647;stroke-linecap:round;stroke-linejoin:round;stroke-dasharray:none;stroke-opacity:1;paint-order:markers stroke fill"
         d="M 73.043902,63.287943 C 31.266698,64.018476 42.738621,161.92296 90.124092,138.96345 113.59465,127.59131 108.65397,69.688267 79.596412,63.911628 77.282154,63.451553 75.098517,63.252013 73.043902,63.287943 Z m 3.577035,18.400572 c 2.75763,0.135201 8.488173,9.39431 10.169672,17.334316 0.654279,3.233109 1.173067,21.619529 -10.886129,18.311819 C 61.128552,110.374 68.996933,81.31469 76.620937,81.688515 Z"
         sodipodi:nodetypes="sssssccs" /><path
         style="fill:#501616;fill-opacity:1;stroke:#000000;stroke-width:1.93712;stroke-linecap:round;stroke-linejoin:round;stroke-dasharray:none;stroke-opacity:1;paint-order:markers stroke fill"
         d="m 27.989121,101.09166 4.077153,-5.166684 c 0,0 12.459308,4.622434 25.973038,-2.355936 0,0 21.402416,22.07633 -5.438973,42.95294 C 25.758939,157.39865 8.0635009,122.40542 5.876418,108.48765 3.6893565,94.569893 11.443535,63.950823 31.12722,62.956697 50.810922,61.962572 60.55334,76.476806 59.161566,88.406306 57.769791,100.33583 28.940152,94.768735 28.940152,94.768735 Z"
         id="path36-5-5"
         sodipodi:nodetypes="cccsssscc" /><path
         style="fill:none;fill-opacity:1;stroke:#000000;stroke-width:0.859024;stroke-linecap:round;stroke-linejoin:round;stroke-dasharray:none;stroke-opacity:1;paint-order:markers stroke fill"
         d="m 79.421993,84.437034 c 0,0 -12.069808,10.647573 1.436478,32.134696"
         id="path53-82"
         sodipodi:nodetypes="cc" /><path
         style="fill:none;fill-opacity:1;stroke:#000000;stroke-width:0.845858;stroke-linecap:round;stroke-linejoin:round;stroke-dasharray:none;stroke-opacity:1;paint-order:markers stroke fill"
         d="m 125.31257,74.405567 c 0,0 -5.48041,5.070298 -1.4755,9.923307"
         id="path54-5" /><path
         style="fill:#00ff00;fill-opacity:1;stroke:none;stroke-width:0.420805;stroke-linecap:round;stroke-linejoin:round;stroke-dasharray:none;stroke-opacity:1;paint-order:markers stroke fill"
         d="m 126.53053,73.312186 c 0,0 -7.72878,6.374096 -2.03758,11.661703 l -9.28308,-0.127284 c 0,0 3.45136,-13.345235 11.32066,-11.53441 z"
         id="path67-3"
         sodipodi:nodetypes="cccc" /><path
         style="fill:#501616;fill-opacity:1;stroke:#000000;stroke-width:1.98323;stroke-linecap:round;stroke-linejoin:round;stroke-dasharray:none;stroke-opacity:1;paint-order:markers stroke fill"
         d="m 146.45296,73.425735 c -6.42822,6.464862 -11.69184,15.971021 -13.12145,29.326905 -2.94845,27.54515 16.83015,43.07786 31.04809,39.09766 12.75566,-3.57083 20.83582,-30.20187 1.55303,-45.227928 0,0 12.16721,10.005228 23.14389,4.006178 7.04073,-3.847941 2.62603,-28.242115 -11.00738,-35.99906 -10.34816,-5.887756 -39.07619,2.439528 -31.61618,8.796245 z"
         id="path68-2"
         sodipodi:nodetypes="cscsssc" /><g
         id="g69-8"
         transform="matrix(2.0931816,0,0,2.1578666,-110.89255,-12.876903)"
         style="fill:#501616"><path
           id="path69-2"
           style="fill:#501616;fill-opacity:1;stroke:#000000;stroke-width:0.924999;stroke-linecap:round;stroke-linejoin:round;stroke-dasharray:none;stroke-opacity:1;paint-order:markers stroke fill"
           d="m 110.2068,35.005644 c -9.12811,-0.351395 -17.904747,13.346791 -12.60698,26.70638 2.183656,5.50661 12.62712,15.760121 22.21622,6.740674 9.58909,-9.019448 0.66455,-19.083073 0.66455,-19.083073 -5.31672,3.797662 -12.3424,1.329118 -12.3424,1.329118 l -1.70893,2.563668 0.4749,-3.41788 c 8.07003,3.133072 13.79192,-0.888317 13.79192,-0.888317 2.53617,-8.130935 -4.93067,-12.751345 -8.66303,-13.688571 -0.6076,-0.152573 -1.21771,-0.238573 -1.82625,-0.261999 z m 2.0003,4.962225 c 0.20811,0.01892 0.90385,0.129522 1.13462,0.202946 2.95388,0.939874 5.41366,5.447848 5.41366,5.447848 l -11.25996,-0.257491 c 0,0 1.73383,-5.664034 4.1895,-5.440777 z"
           sodipodi:nodetypes="ssscccccssscccss" /></g><path
         style="fill:#00ff00;fill-opacity:1;stroke:none;stroke-width:0.434537;stroke-linecap:round;stroke-linejoin:round;stroke-dasharray:none;stroke-opacity:1;paint-order:markers stroke fill"
         d="M 79.961741,82.006254 C 61.282608,81.640347 65.060392,117.79247 79.859026,117.62187 l 1.279093,-0.25549 -4.353223,-8.34842 C 74.275989,102.67685 73.38744,96.933722 76.023321,89.994654 l 3.917815,-8.031685 z"
         id="path70-5"
         sodipodi:nodetypes="ccccccc" /><path
         id="path71-3"
         style="fill:#501616;fill-opacity:1;stroke:#000000;stroke-width:1.99647;stroke-linecap:round;stroke-linejoin:round;stroke-dasharray:none;stroke-opacity:1;paint-order:markers stroke fill"
         d="M 73.043902,63.287943 C 31.266698,64.018476 42.738621,161.92296 90.124092,138.96345 113.59465,127.59131 108.65397,69.688267 79.596412,63.911628 77.282154,63.451553 75.098517,63.252013 73.043902,63.287943 Z m 3.577035,18.400572 c 2.75763,0.135201 8.488173,9.39431 10.169672,17.334316 0.654279,3.233109 1.173067,21.619529 -10.886129,18.311819 C 61.128552,110.374 68.996933,81.31469 76.620937,81.688515 Z"
         sodipodi:nodetypes="sssssccs" /><path
         style="fill:#501616;fill-opacity:1;stroke:#000000;stroke-width:1.93712;stroke-linecap:round;stroke-linejoin:round;stroke-dasharray:none;stroke-opacity:1;paint-order:markers stroke fill"
         d="m 27.989121,101.09166 4.077153,-5.166684 c 0,0 12.459308,4.622434 25.973038,-2.355936 0,0 21.402416,22.07633 -5.438973,42.95294 C 25.758939,157.39865 8.0635009,122.40542 5.876418,108.48765 3.6893565,94.569893 11.443535,63.950823 31.12722,62.956697 50.810922,61.962572 60.55334,76.476806 59.161566,88.406306 57.769791,100.33583 28.940152,94.768735 28.940152,94.768735 Z"
         id="path72-6"
         sodipodi:nodetypes="cccsssscc" /><path
         style="fill:none;fill-opacity:1;stroke:#000000;stroke-width:0.859024;stroke-linecap:round;stroke-linejoin:round;stroke-dasharray:none;stroke-opacity:1;paint-order:markers stroke fill"
         d="m 79.421993,84.437034 c 0,0 -12.069808,10.647573 1.436478,32.134696"
         id="path73-1"
         sodipodi:nodetypes="cc" /><path
         style="fill:none;fill-opacity:1;stroke:#000000;stroke-width:0.845858;stroke-linecap:round;stroke-linejoin:round;stroke-dasharray:none;stroke-opacity:1;paint-order:markers stroke fill"
         d="m 125.31257,74.405567 c 0,0 -5.48041,5.070298 -1.4755,9.923307"
         id="path74-8" /><path
         style="fill:none;fill-opacity:1;stroke:#000000;stroke-width:0.846899;stroke-linecap:round;stroke-linejoin:round;stroke-dasharray:none;stroke-opacity:1;paint-order:markers stroke fill"
         d="m 79.81806,114.9799 -6.268346,0.32963"
         id="path75-6" /><path
         style="fill:none;fill-opacity:1;stroke:#000000;stroke-width:0.851758;stroke-linecap:round;stroke-linejoin:round;stroke-dasharray:none;stroke-opacity:1;paint-order:markers stroke fill"
         d="m 78.50823,112.79922 -6.686038,0.34385"
         id="path76-2" /><path
         style="fill:none;fill-opacity:1;stroke:#000000;stroke-width:0.858374;stroke-linecap:round;stroke-linejoin:round;stroke-dasharray:none;stroke-opacity:1;paint-order:markers stroke fill"
         d="m 77.634489,110.85582 -6.927917,0.33701"
         id="path77-1" /><path
         style="fill:none;fill-opacity:1;stroke:#000000;stroke-width:0.862827;stroke-linecap:round;stroke-linejoin:round;stroke-dasharray:none;stroke-opacity:1;paint-order:markers stroke fill"
         d="m 76.688968,108.69813 -7.096661,0.33243"
         id="path78-4" /><path
         style="fill:none;fill-opacity:1;stroke:#000000;stroke-width:0.851758;stroke-linecap:round;stroke-linejoin:round;stroke-dasharray:none;stroke-opacity:1;paint-order:markers stroke fill"
         d="m 75.92458,106.45929 -6.686057,0.34385"
         id="path79-6" /><path
         style="fill:none;fill-opacity:1;stroke:#000000;stroke-width:0.851758;stroke-linecap:round;stroke-linejoin:round;stroke-dasharray:none;stroke-opacity:1;paint-order:markers stroke fill"
         d="m 75.27906,104.2923 -6.686056,0.34386"
         id="path80-2" /><path
         style="fill:none;fill-opacity:1;stroke:#000000;stroke-width:0.851758;stroke-linecap:round;stroke-linejoin:round;stroke-dasharray:none;stroke-opacity:1;paint-order:markers stroke fill"
         d="m 74.782511,101.82055 -6.686055,0.34384"
         id="path81-9" /><path
         style="fill:none;fill-opacity:1;stroke:#000000;stroke-width:0.837632;stroke-linecap:round;stroke-linejoin:round;stroke-dasharray:none;stroke-opacity:1;paint-order:markers stroke fill"
         d="m 74.243146,99.329161 -6.203203,0.358427"
         id="path82-1" /><path
         style="fill:none;fill-opacity:1;stroke:#000000;stroke-width:0.828526;stroke-linecap:round;stroke-linejoin:round;stroke-dasharray:none;stroke-opacity:1;paint-order:markers stroke fill"
         d="m 74.221196,96.818153 -5.914095,0.367826"
         id="path83-5" /><path
         style="fill:none;fill-opacity:1;stroke:#000000;stroke-width:0.815492;stroke-linecap:round;stroke-linejoin:round;stroke-dasharray:none;stroke-opacity:1;paint-order:markers stroke fill"
         d="m 74.402346,94.296161 -5.538931,-0.03158"
         id="path84-0" /><path
         style="fill:none;fill-opacity:1;stroke:#000000;stroke-width:0.821829;stroke-linecap:round;stroke-linejoin:round;stroke-dasharray:none;stroke-opacity:1;paint-order:markers stroke fill"
         d="m 74.877597,92.015569 -5.47893,-0.238364"
         id="path85-3" /><path
         style="fill:none;fill-opacity:1;stroke:#000000;stroke-width:0.830547;stroke-linecap:round;stroke-linejoin:round;stroke-dasharray:none;stroke-opacity:1;paint-order:markers stroke fill"
         d="M 75.966527,89.677344 70.243474,89.345179"
         id="path86-6" /><path
         style="fill:none;fill-opacity:1;stroke:#000000;stroke-width:0.846899;stroke-linecap:round;stroke-linejoin:round;stroke-dasharray:none;stroke-opacity:1;paint-order:markers stroke fill"
         d="M 76.777127,87.335562 71.469325,86.828494"
         id="path87-4"
         sodipodi:nodetypes="cc" /><path
         style="fill:none;fill-opacity:1;stroke:#000000;stroke-width:0.846899;stroke-linecap:round;stroke-linejoin:round;stroke-dasharray:none;stroke-opacity:1;paint-order:markers stroke fill"
         d="M 78.283486,85.300843 73.042312,84.274521"
         id="path88-9"
         sodipodi:nodetypes="cc" /><path
         style="fill:none;fill-opacity:1;stroke:#000000;stroke-width:0.833921;stroke-linecap:round;stroke-linejoin:round;stroke-dasharray:none;stroke-opacity:1;paint-order:markers stroke fill"
         d="m 122.70878,82.534552 -7.12393,0.03221"
         id="path89-2"
         sodipodi:nodetypes="cc" /><path
         style="fill:none;fill-opacity:1;stroke:#000000;stroke-width:0.827266;stroke-linecap:round;stroke-linejoin:round;stroke-dasharray:none;stroke-opacity:1;paint-order:markers stroke fill"
         d="m 122.23541,80.677173 -5.79552,0.03898"
         id="path90-9"
         sodipodi:nodetypes="cc" /><path
         style="fill:none;fill-opacity:1;stroke:#000000;stroke-width:0.825727;stroke-linecap:round;stroke-linejoin:round;stroke-dasharray:none;stroke-opacity:1;paint-order:markers stroke fill"
         d="m 122.60402,78.982743 -5.55112,0.04054"
         id="path91-3"
         sodipodi:nodetypes="cc" /><path
         style="fill:none;fill-opacity:1;stroke:#000000;stroke-width:0.821419;stroke-linecap:round;stroke-linejoin:round;stroke-dasharray:none;stroke-opacity:1;paint-order:markers stroke fill"
         d="m 123.16824,77.169732 -4.95815,0.04493"
         id="path92-4"
         sodipodi:nodetypes="cc" /><path
         style="fill:none;fill-opacity:1;stroke:#000000;stroke-width:0.817442;stroke-linecap:round;stroke-linejoin:round;stroke-dasharray:none;stroke-opacity:1;paint-order:markers stroke fill"
         d="m 124.18275,75.506074 -4.50536,0.04894"
         id="path93-4"
         sodipodi:nodetypes="cc" /><path
         style="fill:none;fill-opacity:1;stroke:#000000;stroke-width:0.846899;stroke-linecap:round;stroke-linejoin:round;stroke-dasharray:none;stroke-opacity:1;paint-order:markers stroke fill"
         d="m 79.81806,114.9799 -6.268346,0.32963"
         id="path55-0" /><path
         style="fill:none;fill-opacity:1;stroke:#000000;stroke-width:0.851758;stroke-linecap:round;stroke-linejoin:round;stroke-dasharray:none;stroke-opacity:1;paint-order:markers stroke fill"
         d="m 78.50823,112.79922 -6.686038,0.34385"
         id="path56-5" /><path
         style="fill:none;fill-opacity:1;stroke:#000000;stroke-width:0.858374;stroke-linecap:round;stroke-linejoin:round;stroke-dasharray:none;stroke-opacity:1;paint-order:markers stroke fill"
         d="m 77.634489,110.85582 -6.927917,0.33701"
         id="path56-6-9" /><path
         style="fill:none;fill-opacity:1;stroke:#000000;stroke-width:0.862827;stroke-linecap:round;stroke-linejoin:round;stroke-dasharray:none;stroke-opacity:1;paint-order:markers stroke fill"
         d="m 76.688968,108.69813 -7.096661,0.33243"
         id="path56-8-6" /><path
         style="fill:none;fill-opacity:1;stroke:#000000;stroke-width:0.851758;stroke-linecap:round;stroke-linejoin:round;stroke-dasharray:none;stroke-opacity:1;paint-order:markers stroke fill"
         d="m 75.92458,106.45929 -6.686057,0.34385"
         id="path56-3-3" /><path
         style="fill:none;fill-opacity:1;stroke:#000000;stroke-width:0.851758;stroke-linecap:round;stroke-linejoin:round;stroke-dasharray:none;stroke-opacity:1;paint-order:markers stroke fill"
         d="m 75.27906,104.2923 -6.686056,0.34386"
         id="path56-0-4" /><path
         style="fill:none;fill-opacity:1;stroke:#000000;stroke-width:0.851758;stroke-linecap:round;stroke-linejoin:round;stroke-dasharray:none;stroke-opacity:1;paint-order:markers stroke fill"
         d="m 74.782511,101.82055 -6.686055,0.34384"
         id="path56-83-2" /><path
         style="fill:none;fill-opacity:1;stroke:#000000;stroke-width:0.837632;stroke-linecap:round;stroke-linejoin:round;stroke-dasharray:none;stroke-opacity:1;paint-order:markers stroke fill"
         d="m 74.243146,99.329161 -6.203203,0.358427"
         id="path56-1-8" /><path
         style="fill:none;fill-opacity:1;stroke:#000000;stroke-width:0.828526;stroke-linecap:round;stroke-linejoin:round;stroke-dasharray:none;stroke-opacity:1;paint-order:markers stroke fill"
         d="m 74.221196,96.818153 -5.914095,0.367826"
         id="path56-4-8" /><path
         style="fill:none;fill-opacity:1;stroke:#000000;stroke-width:0.815492;stroke-linecap:round;stroke-linejoin:round;stroke-dasharray:none;stroke-opacity:1;paint-order:markers stroke fill"
         d="m 74.402346,94.296161 -5.538931,-0.03158"
         id="path56-10-7" /><path
         style="fill:none;fill-opacity:1;stroke:#000000;stroke-width:0.821829;stroke-linecap:round;stroke-linejoin:round;stroke-dasharray:none;stroke-opacity:1;paint-order:markers stroke fill"
         d="m 74.877597,92.015569 -5.47893,-0.238364"
         id="path55-8-5" /><path
         style="fill:none;fill-opacity:1;stroke:#000000;stroke-width:0.830547;stroke-linecap:round;stroke-linejoin:round;stroke-dasharray:none;stroke-opacity:1;paint-order:markers stroke fill"
         d="M 75.966527,89.677344 70.243474,89.345179"
         id="path55-4-8" /><path
         style="fill:none;fill-opacity:1;stroke:#000000;stroke-width:0.846899;stroke-linecap:round;stroke-linejoin:round;stroke-dasharray:none;stroke-opacity:1;paint-order:markers stroke fill"
         d="M 76.777127,87.335562 71.469325,86.828494"
         id="path55-5-1"
         sodipodi:nodetypes="cc" /><path
         style="fill:none;fill-opacity:1;stroke:#000000;stroke-width:0.846899;stroke-linecap:round;stroke-linejoin:round;stroke-dasharray:none;stroke-opacity:1;paint-order:markers stroke fill"
         d="M 78.283486,85.300843 73.042312,84.274521"
         id="path55-5-3-2"
         sodipodi:nodetypes="cc" /><path
         style="fill:none;fill-opacity:1;stroke:#000000;stroke-width:0.833921;stroke-linecap:round;stroke-linejoin:round;stroke-dasharray:none;stroke-opacity:1;paint-order:markers stroke fill"
         d="m 122.70878,82.534552 -7.12393,0.03221"
         id="path55-80-5"
         sodipodi:nodetypes="cc" /><path
         style="fill:none;fill-opacity:1;stroke:#000000;stroke-width:0.827266;stroke-linecap:round;stroke-linejoin:round;stroke-dasharray:none;stroke-opacity:1;paint-order:markers stroke fill"
         d="m 122.23541,80.677173 -5.79552,0.03898"
         id="path55-80-6-7"
         sodipodi:nodetypes="cc" /><path
         style="fill:none;fill-opacity:1;stroke:#000000;stroke-width:0.825727;stroke-linecap:round;stroke-linejoin:round;stroke-dasharray:none;stroke-opacity:1;paint-order:markers stroke fill"
         d="m 122.60402,78.982743 -5.55112,0.04054"
         id="path55-80-8-4"
         sodipodi:nodetypes="cc" /><path
         style="fill:none;fill-opacity:1;stroke:#000000;stroke-width:0.821419;stroke-linecap:round;stroke-linejoin:round;stroke-dasharray:none;stroke-opacity:1;paint-order:markers stroke fill"
         d="m 123.16824,77.169732 -4.95815,0.04493"
         id="path55-80-2-4"
         sodipodi:nodetypes="cc" /><path
         style="fill:none;fill-opacity:1;stroke:#000000;stroke-width:0.817442;stroke-linecap:round;stroke-linejoin:round;stroke-dasharray:none;stroke-opacity:1;paint-order:markers stroke fill"
         d="m 124.18275,75.506074 -4.50536,0.04894"
         id="path55-80-9-4"
         sodipodi:nodetypes="cc" /></g></g></svg>
