<?xml version="1.0" encoding="UTF-8" standalone="no"?>
<!-- Created with Inkscape (http://www.inkscape.org/) -->

<svg
   width="210mm"
   height="297mm"
   viewBox="0 0 210 297"
   version="1.1"
   id="svg1"
   inkscape:version="1.4 (86a8ad7, 2024-10-11)"
   sodipodi:docname="Cupo4.svg"
   xmlns:inkscape="http://www.inkscape.org/namespaces/inkscape"
   xmlns:sodipodi="http://sodipodi.sourceforge.net/DTD/sodipodi-0.dtd"
   xmlns="http://www.w3.org/2000/svg"
   xmlns:svg="http://www.w3.org/2000/svg">
  <sodipodi:namedview
     id="namedview1"
     pagecolor="#ffffff"
     bordercolor="#000000"
     borderopacity="0.25"
     inkscape:showpageshadow="2"
     inkscape:pageopacity="0.0"
     inkscape:pagecheckerboard="0"
     inkscape:deskcolor="#d1d1d1"
     inkscape:document-units="mm"
     showguides="true"
     inkscape:lockguides="true"
     inkscape:zoom="0.34835029"
     inkscape:cx="307.16209"
     inkscape:cy="231.08923"
     inkscape:window-width="1147"
     inkscape:window-height="755"
     inkscape:window-x="197"
     inkscape:window-y="0"
     inkscape:window-maximized="0"
     inkscape:current-layer="layer27">
    <sodipodi:guide
       position="18.228778,272.3152"
       orientation="0,-1"
       id="guide1"
       inkscape:locked="true" />
    <sodipodi:guide
       position="12.152518,222.18606"
       orientation="0,-1"
       id="guide2"
       inkscape:locked="true" />
  </sodipodi:namedview>
  <defs
     id="defs1" />
  <g
     inkscape:label="background "
     inkscape:groupmode="layer"
     id="layer1"
     sodipodi:insensitive="true">
    <rect
       style="fill:#333333;stroke-width:0.405;stroke-linecap:round;stroke-linejoin:round;paint-order:markers stroke fill"
       id="rect1"
       width="944.85834"
       height="1181.8324"
       x="-221.78346"
       y="-325.07986" />
  </g>
  <g
     inkscape:groupmode="layer"
     id="layer27"
     inkscape:label="Layer 2">
    <path
       id="path13-3"
       style="fill:#4d4d4d;fill-opacity:1;stroke:none;stroke-width:0.764137;stroke-linecap:round;stroke-linejoin:round;stroke-dasharray:none;stroke-opacity:1;paint-order:markers stroke fill"
       d="m 172.47419,24.771805 c -3.80938,-0.646153 -7.80895,-0.48523 -11.6605,0.76872 -13.69437,4.458499 -12.69936,37.53383 -12.69936,37.53383 -13.04497,11.706533 -8.13238,18.356562 -8.13238,18.356562 9.45968,9.923839 52.24644,16.977223 62.93557,4.13083 10.68913,-12.846397 -9.66723,-30.993784 -9.66723,-30.993784 0,0 1.27446,-3.512036 -0.95029,-13.817297 -1.59904,-7.406908 -10.09073,-14.327557 -19.82581,-15.978861 z m -5.03341,23.123324 7.72225,5.054859 c -4.144,9.80469 -3.50938,15.282144 -3.73988,13.739197 -0.20763,-1.389658 -0.0142,-7.904403 -3.98237,-18.794056 z"
       sodipodi:nodetypes="ssccscssccsc" />
    <path
       style="fill:none;stroke:#000000;stroke-width:0.766742;stroke-linecap:round;stroke-linejoin:round;stroke-dasharray:none;stroke-opacity:1;paint-order:markers stroke fill"
       d="m 148.13182,63.082779 c 0,0 -1.03079,-33.102675 12.74216,-37.553028 13.77296,-4.450353 29.44275,4.933726 31.6901,15.249095 2.24731,10.315363 0.95413,13.827469 0.95413,13.827469 0,0 20.50923,18.181114 9.76712,31.02861 -10.74213,12.847493 -53.79283,5.751486 -63.31839,-4.18833 0,0 -4.94833,-6.659106 8.16488,-18.363816 z"
       id="path13"
       sodipodi:nodetypes="csccscc" />
    <path
       style="fill:#4d4d4d;fill-opacity:1;stroke:none;stroke-width:0.797817;stroke-linecap:round;stroke-linejoin:round;stroke-dasharray:none;stroke-opacity:1;paint-order:markers stroke fill"
       d="m 93.47561,73.542048 c 0,0 -22.847353,-12.801888 -16.055568,-30.596793 6.791782,-17.794909 59.750028,-38.0854108 37.379668,19.07579 -22.211594,56.755525 -45.254649,18.980937 -45.25548,18.98073 0,0 -33.645725,-11.948777 -21.956403,-35.899534 19.679811,-40.3228205 46.683661,-10.053611 45.856149,0.04724 -1.051915,12.83995 -20.54963,23.358417 -20.54963,23.358417 7.789552,4.291211 12.283396,8.831448 20.581264,5.03415 z"
       id="path11-8-1"
       sodipodi:nodetypes="csscssccc"
       inkscape:label="U color " />
    <path
       style="fill:none;stroke:#000000;stroke-width:0.797817;stroke-linecap:round;stroke-linejoin:round;stroke-dasharray:none;stroke-opacity:1;paint-order:markers stroke fill"
       d="M 81.5748,62.836009 C 77.357132,57.54762 74.339156,51.017369 77.420042,42.945255 84.211828,25.150348 137.07651,4.8233147 114.79971,62.021045 92.848667,118.38238 67.671941,80.493018 67.615057,80.487328 c 0,0 -31.716552,-11.43433 -20.02723,-35.385087 13.478497,-27.616678 30.392508,-22.120492 39.44788,-12.669459 m -5.410663,30.380079 c -4.761111,2.775136 -8.245553,5.861033 -8.245553,5.861033 7.334831,5.284237 11.798251,8.665448 20.096119,4.86815 v 4e-6 c 0,0 -6.834047,-4.40754 -11.914195,-10.777362"
       id="path11-8"
       sodipodi:nodetypes="csscscccccc"
       inkscape:label="U outline" />
    <path
       style="fill:#4d4d4d;fill-opacity:1;stroke:none;stroke-width:0.821124;stroke-linecap:round;stroke-linejoin:round;stroke-dasharray:none;stroke-opacity:1;paint-order:markers stroke fill"
       d="m 21.420651,79.985948 c 0,0 1.543311,-26.596003 21.349105,-29.178138 C 62.57555,48.225673 106.04541,88.506999 41.998101,93.413058 -22.049209,98.319117 8.5597467,68.62455 8.5597467,68.62455 c 0,0 -9.25985209,-43.896317 18.5197043,-43.379888 38.170841,0.7096 29.836173,37.070118 20.963277,40.926859 -12.47508,5.422485 -32.79531,-9.166584 -32.79531,-9.166584 z"
       id="path11-0"
       sodipodi:nodetypes="csscsscc"
       inkscape:label="C color" />
    <path
       style="fill:none;stroke:#000000;stroke-width:0.821124;stroke-linecap:round;stroke-linejoin:round;stroke-dasharray:none;stroke-opacity:1;paint-order:markers stroke fill"
       d="m 55.169427,53.231994 c -1.023844,6.331986 -4.042761,11.599046 -7.126699,12.939527 -12.47508,5.422485 -32.79531,-9.166584 -32.79531,-9.166584 l 6.173233,22.981011 m 0,0 c 0.08377,-1.1511 0.792057,-9.207231 4.630682,-16.592358 M 55.19261,53.174389 C 74.456242,62.270226 93.337336,89.480444 41.998101,93.413058 -22.049209,98.319117 8.5597467,68.62455 8.5597467,68.62455 c 0,0 -9.25985209,-43.896316 18.5197043,-43.379888 24.903865,0.462966 30.011867,16.101353 28.089976,27.987332"
       id="path11"
       sodipodi:nodetypes="cscccccscsc"
       inkscape:label="C" />
    <path
       style="fill:#4d4d4d;stroke:none;stroke-width:0.879946;stroke-linecap:round;stroke-linejoin:round;stroke-dasharray:none;stroke-opacity:1;paint-order:markers stroke fill"
       d="M 128.8517,80.554558 118.31213,58.009011 c 29.56747,12.257508 41.42653,6.767482 45.3839,-4.712077 3.95738,-11.47956 -12.79942,-36.034997 -39.84667,-27.84872 -27.047269,8.186278 -12.18209,44.030318 -12.18209,44.030318 -20.151853,25.382577 9.81175,23.905122 9.81175,23.905122 l 22.59293,-1.431195 c 6.66797,-0.422398 10.57276,-18.039323 6.97482,-27.802456 -12.91153,-18.379392 -34.58074,-1.811375 -22.19507,16.404555 z"
       id="path12-9"
       sodipodi:nodetypes="ccsscccsc"
       inkscape:label="P color " />
    <path
       style="fill:none;stroke:#000000;stroke-width:0.879946;stroke-linecap:round;stroke-linejoin:round;stroke-dasharray:none;stroke-opacity:1;paint-order:markers stroke fill"
       d="m 127.56647,61.61127 c -2.79998,4.620163 -3.43362,12.003156 1.28523,18.943288 L 118.31213,58.009011 c 29.56747,12.257508 41.42653,6.767482 45.3839,-4.712077 3.95738,-11.47956 -12.79942,-36.034997 -39.84667,-27.84872 -27.047269,8.186278 -12.18209,44.030318 -12.18209,44.030318 -20.151853,25.382577 9.81175,23.905122 9.81175,23.905122 l 22.59293,-1.431195 c 6.18304,-0.391679 10.94804,-18.278766 6.99837,-27.428634"
       id="path12"
       sodipodi:nodetypes="cccsscccc"
       inkscape:label="P outline" />
    <path
       style="fill:none;fill-opacity:1;stroke:#000000;stroke-width:0.819555;stroke-linecap:round;stroke-linejoin:round;stroke-dasharray:none;stroke-opacity:1;paint-order:markers stroke fill"
       d="m 167.45923,47.823839 c 0,0 4.3728,13.568512 3.92266,18.841582 0,0 2.45532,-11.828355 3.99866,-13.886139 z"
       id="path18"
       sodipodi:nodetypes="cccc" />
  </g>
</svg>
