<?xml version="1.0" encoding="UTF-8" standalone="no"?>
<!-- Created with Inkscape (http://www.inkscape.org/) -->

<svg
   width="210mm"
   height="297mm"
   viewBox="0 0 210 297"
   version="1.1"
   id="svg1"
   inkscape:version="1.4 (86a8ad7, 2024-10-11)"
   sodipodi:docname="Cupo2 good.svg"
   xmlns:inkscape="http://www.inkscape.org/namespaces/inkscape"
   xmlns:sodipodi="http://sodipodi.sourceforge.net/DTD/sodipodi-0.dtd"
   xmlns="http://www.w3.org/2000/svg"
   xmlns:svg="http://www.w3.org/2000/svg">
  <sodipodi:namedview
     id="namedview1"
     pagecolor="#ffffff"
     bordercolor="#000000"
     borderopacity="0.25"
     inkscape:showpageshadow="2"
     inkscape:pageopacity="0.0"
     inkscape:pagecheckerboard="0"
     inkscape:deskcolor="#d1d1d1"
     inkscape:document-units="mm"
     showguides="true"
     inkscape:lockguides="true"
     inkscape:zoom="0.24632085"
     inkscape:cx="450.63177"
     inkscape:cy="379.58622"
     inkscape:window-width="1147"
     inkscape:window-height="755"
     inkscape:window-x="197"
     inkscape:window-y="0"
     inkscape:window-maximized="0"
     inkscape:current-layer="svg1">
    <sodipodi:guide
       position="9.7789797,274.97357"
       orientation="0,-1"
       id="guide1"
       inkscape:locked="true" />
    <sodipodi:guide
       position="10.158746,266.99848"
       orientation="0,-1"
       id="guide2"
       inkscape:locked="true" />
    <sodipodi:guide
       position="6.4448461,259.94214"
       orientation="0,-1"
       id="guide13"
       inkscape:locked="true" />
    <sodipodi:guide
       position="12.352622,249.7378"
       orientation="0,-1"
       id="guide14"
       inkscape:locked="true" />
  </sodipodi:namedview>
  <defs
     id="defs1" />
  <g
     inkscape:label="Background"
     inkscape:groupmode="layer"
     id="layer1"
     sodipodi:insensitive="true">
    <rect
       style="fill:#333333;stroke:#000000;stroke-width:1.304;stroke-linecap:round;stroke-linejoin:round;paint-order:markers stroke fill"
       id="rect1"
       width="6878.3252"
       height="7874.832"
       x="-2552.0291"
       y="-3111.0447" />
  </g>
  <g
     inkscape:groupmode="layer"
     id="layer17"
     inkscape:label="cupo"
     style="display:inline">
    <g
       id="g18"
       inkscape:label="shaddwo"
       style="display:inline"
       transform="matrix(9.8489716,0,0,9.8489716,-55.700743,-294.51957)">
      <path
         style="display:inline;fill:#000000;stroke:none;stroke-width:0.300665;stroke-linecap:round;stroke-linejoin:round;stroke-dasharray:none;paint-order:markers stroke fill"
         d="m 26.108059,35.15515 c 1.444031,3.446027 -1.158584,5.480824 -2.736944,5.612099 -1.578359,0.131278 -4.113808,-0.557925 -4.180973,-2.789638 -0.208372,-6.924096 5.973738,-5.075644 6.917917,-2.822461 z"
         id="path6-8"
         sodipodi:nodetypes="ssss"
         inkscape:label="O fill" />
      <path
         style="display:inline;fill:#000000;stroke:#000000;stroke-width:0.300665;stroke-linecap:round;stroke-linejoin:round;stroke-dasharray:none;paint-order:markers stroke fill"
         d="m 26.108059,35.15515 c 1.444031,3.446027 -1.158584,5.480824 -2.736944,5.612099 -1.578359,0.131278 -4.113808,-0.557925 -4.180973,-2.789638 -0.208372,-6.924096 5.973738,-5.075644 6.917917,-2.822461 z"
         id="path5-7"
         sodipodi:nodetypes="ssss"
         inkscape:label="O out " />
      <path
         style="display:inline;fill:#000000;stroke:none;stroke-width:0.300506;stroke-linecap:round;stroke-linejoin:round;stroke-dasharray:none;paint-order:markers stroke fill"
         d="m 16.717142,35.877784 c 0,0 0.793438,-4.147194 5.091958,-2.318073 4.29852,1.82912 -0.377972,5.824936 -1.313367,4.585777 0,0 2.695714,2.589989 -0.148314,2.600095 -1.113562,0.004 -2.236531,0.05377 -3.373965,-0.07011 -3.167855,-0.503923 -0.25631,-4.797689 -0.25631,-4.797689 z"
         id="path7-8"
         sodipodi:nodetypes="cscsscc"
         inkscape:label="P fill" />
      <path
         style="display:inline;fill:#000000;stroke:#000000;stroke-width:0.300506;stroke-linecap:round;stroke-linejoin:round;stroke-dasharray:none;paint-order:markers stroke fill"
         d="m 16.717142,35.877784 c 0,0 0.793438,-4.147194 5.091958,-2.318073 4.29852,1.82912 -0.377972,5.824936 -1.313367,4.585777 0,0 2.695714,2.589989 -0.148314,2.600095 -1.113562,0.004 -2.236531,0.05377 -3.373965,-0.07011 -3.167855,-0.503923 -0.25631,-4.797689 -0.25631,-4.797689 z"
         id="path4-8"
         sodipodi:nodetypes="cscsscc"
         inkscape:label="P Out " />
      <path
         style="display:inline;fill:#000000;stroke:none;stroke-width:0.30289;stroke-linecap:round;stroke-linejoin:round;stroke-dasharray:none;paint-order:markers stroke fill"
         d="m 15.063802,37.584593 c -1.387017,-5.71365 2.475116,-5.718413 3.450527,-2.019134 0.204665,0.7762 0.220798,1.70566 -0.103376,2.74946 -0.633288,2.039111 -2.035258,2.255552 -3.054758,2.396215 -7.6365991,1.053638 -3.190159,-8.794212 -1.356362,-7.533317 0.362761,0.24943 0.695853,0.804561 0.733292,2.106395 0,0 -0.0254,1.145995 0.330677,2.300381 z"
         id="path8-3"
         sodipodi:nodetypes="csssscc"
         inkscape:label="U fill" />
      <path
         style="display:inline;fill:#000000;stroke:#000000;stroke-width:0.30289;stroke-linecap:round;stroke-linejoin:round;stroke-dasharray:none;paint-order:markers stroke fill"
         d="m 15.063802,37.584593 c -0.236462,-1.541892 -0.542006,-2.668525 -0.258395,-3.407227 0.716464,-1.866122 3.021229,-1.256558 3.708922,1.388093 0.202017,0.776893 0.220798,1.70566 -0.103376,2.74946 -0.633288,2.039111 -2.035258,2.255552 -3.054758,2.396215 -8.5864483,1.18469 -2.759315,-11.080829 -0.629046,-6.595523 0.139138,0.292957 -0.101428,0.716458 0.006,1.160209 0,0 -0.0254,1.154387 0.330677,2.308773 z"
         id="path3-1"
         sodipodi:nodetypes="cssssscc"
         inkscape:label="U out" />
      <path
         id="path9-0"
         style="display:inline;fill:#000000;stroke:none;stroke-width:0.298277;stroke-linecap:round;stroke-linejoin:round;stroke-dasharray:none;paint-order:markers stroke fill"
         d="m 10.018149,33.091986 c -5.7959042,0.07027 -4.1749347,7.200663 -0.5973806,7.60522 3.6343426,0.410983 4.9650346,-1.82671 3.4922946,-3.584794 -0.448371,-0.535244 -0.868071,-0.743918 -1.235067,-0.77618 -3.9581023,0.0256 0.516549,-0.211053 0.180486,-0.217516 1.876556,-2.717039 -1.558696,-3.024663 -1.558696,-3.024663 -0.09576,-0.0025 -0.189639,-0.0032 -0.281637,-0.0021 z"
         sodipodi:nodetypes="csscccc"
         inkscape:label="C fill" />
      <path
         id="path2-3"
         style="display:inline;fill:#000000;stroke:#000000;stroke-width:0.298277;stroke-linecap:round;stroke-linejoin:round;stroke-dasharray:none;paint-order:markers stroke fill"
         d="m 10.018149,33.091986 c -5.7959042,0.07027 -4.1749347,7.200663 -0.5973806,7.60522 3.6343426,0.410983 4.9650346,-1.82671 3.4922946,-3.584794 -0.448371,-0.535244 -0.868071,-0.743918 -1.235067,-0.77618 -3.9581023,0.0256 0.516549,-0.211053 0.180486,-0.217516 1.876556,-2.717039 -1.558696,-3.024663 -1.558696,-3.024663 -0.09576,-0.0025 -0.189639,-0.0032 -0.281637,-0.0021 z"
         sodipodi:nodetypes="csscccc"
         inkscape:label="C out " />
    </g>
    <path
       style="fill:#800000;stroke:none;stroke-width:2.96124;stroke-linecap:round;stroke-linejoin:round;stroke-dasharray:none;paint-order:markers stroke fill"
       d="M 201.50358,41.95075 C 215.72579,75.890573 190.09271,95.93123 174.54749,97.224154 159.00228,98.517107 134.03071,91.729167 133.36921,69.749088 131.31696,1.5538634 192.20438,19.759215 201.50358,41.95075 Z"
       id="path6"
       sodipodi:nodetypes="ssss"
       inkscape:label="O fill" />
    <path
       style="fill:#008080;stroke:none;stroke-width:2.99409;stroke-linecap:round;stroke-linejoin:round;stroke-dasharray:none;paint-order:markers stroke fill"
       d="m 155.55235,86.496369 c 0,0 10.74448,4.1325 15.70348,-1.652983 4.95899,-5.785513 8.59558,-10.083298 15.20758,-6.281408 6.61198,3.801891 8.26497,-3.80189 12.23219,-3.80189 3.96716,0 1.98358,5.950798 1.3224,6.942589 -0.66127,0.991801 -10.41392,11.405681 -13.71991,12.728082 -3.30598,1.322402 -13.05866,4.793682 -17.52176,3.967205 -4.4631,-0.826525 -11.57098,-2.314193 -11.57098,-2.314193 l -1.15711,-1.487727 0.66117,-4.628366 z"
       id="path13"
       inkscape:label="O wave" />
    <path
       style="fill:none;stroke:#000000;stroke-width:2.96124;stroke-linecap:round;stroke-linejoin:round;stroke-dasharray:none;paint-order:markers stroke fill"
       d="M 201.50358,41.95075 C 215.72579,75.890573 190.09271,95.93123 174.54749,97.224154 159.00228,98.517107 134.03071,91.729167 133.36921,69.749088 131.31696,1.5538634 192.20438,19.759215 201.50358,41.95075 Z"
       id="path5"
       sodipodi:nodetypes="ssss"
       inkscape:label="O out " />
    <path
       style="fill:#800000;stroke:none;stroke-width:2.95967;stroke-linecap:round;stroke-linejoin:round;stroke-dasharray:none;paint-order:markers stroke fill"
       d="m 109.0127,49.067951 c 0,0 7.81455,-40.8455951 50.15055,-22.830634 42.336,18.01495 -3.72263,57.36963 -12.93531,45.165187 0,0 26.55,25.508729 -1.46074,25.608262 -10.96744,0.0394 -22.02754,0.529579 -33.23009,-0.690511 -31.200116,-4.963124 -2.52439,-47.252304 -2.52439,-47.252304 z"
       id="path7"
       sodipodi:nodetypes="cscsscc"
       inkscape:label="P fill" />
    <path
       style="fill:#008080;stroke:none;stroke-width:2.99409;stroke-linecap:round;stroke-linejoin:round;stroke-dasharray:none;paint-order:markers stroke fill"
       d="m 124.88367,77.315324 c 0,0 3.27277,7.94818 9.35077,3.50655 6.07799,-4.441611 8.18192,-2.571459 12.15599,3.038989 3.97408,5.610476 9.81832,2.571478 9.81832,2.571478 0,0 3.03899,5.376701 -1.40262,8.415699 -4.44162,3.03899 -25.71461,2.571449 -25.71461,2.571449 l -18.70153,-1.168836 -1.16884,-1.870163 8.88322,-6.545538 6.078,-8.181925 z"
       id="path12"
       inkscape:label="P wave" />
    <path
       style="fill:none;stroke:#000000;stroke-width:2.95967;stroke-linecap:round;stroke-linejoin:round;stroke-dasharray:none;paint-order:markers stroke fill"
       d="m 109.0127,49.067951 c 0,0 7.81455,-40.8455951 50.15055,-22.830634 42.336,18.01495 -3.72263,57.36963 -12.93531,45.165187 0,0 26.55,25.508729 -1.46074,25.608262 -10.96744,0.0394 -22.02754,0.529579 -33.23009,-0.690511 -31.200116,-4.963124 -2.52439,-47.252304 -2.52439,-47.252304 z"
       id="path4"
       sodipodi:nodetypes="cscsscc"
       inkscape:label="P Out " />
    <path
       style="fill:#800000;stroke:none;stroke-width:2.98316;stroke-linecap:round;stroke-linejoin:round;stroke-dasharray:none;paint-order:markers stroke fill"
       d="M 92.729,65.878265 C 79.068309,9.6046889 117.10635,9.5577775 126.71314,45.991872 128.72888,53.636644 128.88778,62.790869 125.695,73.071225 119.45776,93.154372 105.6498,95.286093 95.60877,96.671479 20.396128,107.04873 64.188985,10.057535 82.25,22.476053 c 3.572822,2.456629 6.853436,7.924099 7.222172,20.745825 0,0 -0.250165,11.286873 3.256828,22.656387 z"
       id="path8"
       sodipodi:nodetypes="csssscc"
       inkscape:label="U fill" />
    <path
       style="fill:#008080;stroke:none;stroke-width:2.99409;stroke-linecap:round;stroke-linejoin:round;stroke-dasharray:none;paint-order:markers stroke fill"
       d="m 76.539063,79.388484 c 0,0 -1.983602,7.934391 15.207581,0 17.191176,-7.934391 18.844166,-17.521774 24.794956,-13.223977 5.95079,4.297785 7.6038,13.554587 3.9672,18.513564 -3.63659,4.958996 -17.52177,11.901596 -22.811368,12.232177 -5.289588,0.330629 -20.166567,1.322402 -24.464363,0 -4.297795,-1.322383 -7.603791,-4.958977 -7.603791,-4.958977 0,0 8.264992,-2.975414 9.256783,-7.2732 0.991802,-4.297796 1.653002,-5.289587 1.653002,-5.289587 z"
       id="path11"
       inkscape:label="U wave" />
    <path
       style="fill:none;stroke:#000000;stroke-width:2.98316;stroke-linecap:round;stroke-linejoin:round;stroke-dasharray:none;paint-order:markers stroke fill"
       d="M 92.729,65.878265 C 90.400093,50.692215 87.390798,39.596038 90.184075,32.320584 97.240509,13.941201 119.94008,19.944779 126.71314,45.991872 128.70281,53.643469 128.88778,62.790869 125.695,73.071225 119.45776,93.154372 105.6498,95.286093 95.60877,96.671479 11.041091,108.33946 68.432355,-12.463292 89.413314,31.71236 c 1.370367,2.885325 -0.998961,7.056374 0.0591,11.426865 0,0 -0.250165,11.369526 3.256828,22.73904 z"
       id="path3"
       sodipodi:nodetypes="cssssscc"
       inkscape:label="U out" />
    <path
       id="path9"
       style="fill:#800000;stroke:none;stroke-width:2.93772;stroke-linecap:round;stroke-linejoin:round;stroke-dasharray:none;paint-order:markers stroke fill"
       d="M 43.034507,21.630706 C -14.049183,22.322794 1.9156994,92.549832 37.150928,96.534303 72.94546,100.58207 86.051408,78.543087 71.546433,61.227768 67.130439,55.956165 62.996826,53.900941 59.382293,53.583194 20.399062,53.835327 64.46977,51.504538 61.159895,51.440885 79.642041,24.680845 45.808342,21.651064 45.808342,21.651064 c -0.943138,-0.02462 -1.86775,-0.03152 -2.773835,-0.02068 z"
       sodipodi:nodetypes="csscccc"
       inkscape:label="C fill" />
    <path
       style="fill:#008080;stroke:none;stroke-width:2.99409;stroke-linecap:round;stroke-linejoin:round;stroke-dasharray:none;paint-order:markers stroke fill"
       d="m 12.206939,77.549099 c 0,0 53.0656,-28.753599 43.714829,-7.480598 -9.350761,21.27299 21.273001,8.649465 21.273001,8.649465 L 70.415456,89.93888 c 0,0 -12.623535,5.844222 -13.558607,6.311773 -0.935061,0.46753 -16.36384,1.168836 -16.36384,1.168836 L 26.233087,93.679175 15.947245,83.627116 Z"
       id="path10"
       inkscape:label="C wave '" />
    <path
       id="path2"
       style="fill:none;stroke:#000000;stroke-width:2.93772;stroke-linecap:round;stroke-linejoin:round;stroke-dasharray:none;paint-order:markers stroke fill"
       d="M 43.034507,21.630706 C -14.049183,22.322794 1.9156994,92.549832 37.150928,96.534303 72.94546,100.58207 86.051408,78.543087 71.546433,61.227768 67.130439,55.956165 62.996826,53.900941 59.382293,53.583194 20.399062,53.835327 64.46977,51.504538 61.159895,51.440885 79.642041,24.680845 45.808342,21.651064 45.808342,21.651064 c -0.943138,-0.02462 -1.86775,-0.03152 -2.773835,-0.02068 z"
       sodipodi:nodetypes="csscccc"
       inkscape:label="C out " />
  </g>
</svg>
