<?xml version="1.0" encoding="UTF-8" standalone="no"?>
<!-- Created with Inkscape (http://www.inkscape.org/) -->

<svg
   width="210mm"
   height="297mm"
   viewBox="0 0 210 297"
   version="1.1"
   id="svg1"
   inkscape:version="1.4 (86a8ad7, 2024-10-11)"
   sodipodi:docname="Cupo11.svg"
   xmlns:inkscape="http://www.inkscape.org/namespaces/inkscape"
   xmlns:sodipodi="http://sodipodi.sourceforge.net/DTD/sodipodi-0.dtd"
   xmlns="http://www.w3.org/2000/svg"
   xmlns:svg="http://www.w3.org/2000/svg">
  <sodipodi:namedview
     id="namedview1"
     pagecolor="#ffffff"
     bordercolor="#000000"
     borderopacity="0.25"
     inkscape:showpageshadow="2"
     inkscape:pageopacity="0.0"
     inkscape:pagecheckerboard="0"
     inkscape:deskcolor="#d1d1d1"
     inkscape:document-units="mm"
     showguides="false"
     inkscape:lockguides="true"
     inkscape:zoom="0.69670057"
     inkscape:cx="383.23494"
     inkscape:cy="243.2896"
     inkscape:window-width="1261"
     inkscape:window-height="755"
     inkscape:window-x="364"
     inkscape:window-y="22"
     inkscape:window-maximized="0"
     inkscape:current-layer="layer4">
    <sodipodi:guide
       position="45.192178,296.24048"
       orientation="0,-1"
       id="guide1"
       inkscape:locked="true" />
    <sodipodi:guide
       position="40.634985,244.97203"
       orientation="0,-1"
       id="guide2"
       inkscape:locked="true" />
  </sodipodi:namedview>
  <defs
     id="defs1" />
  <g
     inkscape:label="Layer 1"
     inkscape:groupmode="layer"
     id="layer1">
    <rect
       style="fill:#333333;stroke:#53878b;stroke-width:0.562999;stroke-linecap:square;paint-order:fill markers stroke"
       id="rect1"
       width="2509.1936"
       height="2483.4141"
       x="-104.77547"
       y="-205.98886"
       sodipodi:insensitive="true" />
  </g>
  <g
     inkscape:groupmode="layer"
     id="layer2"
     inkscape:label="CUPO1"
     style="display:inline"
     transform="translate(0,3.0381297)">
    <g
       inkscape:groupmode="layer"
       id="layer4"
       inkscape:label="O "
       transform="translate(-5.10217,0.80560579)">
      <path
         style="display:inline;fill:#381500;fill-opacity:1;stroke:#381500;stroke-width:2.66206;stroke-linecap:square;stroke-dasharray:none;stroke-opacity:1;paint-order:fill markers stroke"
         d="m 152.35584,56.725707 c 0,0 -10.26777,-55.73175413 30.38418,-56.1445817 40.65193,-0.41282751 27.45054,55.7317527 27.45054,55.7317527 z"
         id="path5-7"
         inkscape:label="O shad " />
      <path
         style="display:inline;fill:#93821a;fill-opacity:1;stroke:none;stroke-width:3.12789;stroke-linecap:square;stroke-dasharray:none;stroke-opacity:1;paint-order:fill markers stroke"
         d="m 143.41429,56.899503 c 0,0 -10.26776,-55.7317528 30.38418,-56.14458056 40.65194,-0.4128278 27.45054,55.73175256 27.45054,55.73175256 z"
         id="path9"
         inkscape:label="O fill" />
      <path
         style="display:inline;fill:#935e1a;fill-opacity:1;stroke:#ab856e;stroke-width:0.427851;stroke-linecap:square;stroke-dasharray:none;stroke-opacity:1;paint-order:fill markers stroke"
         d="m 142.24249,48.592033 c 0,0 2.54543,3.181782 6.15145,2.333308 3.60603,-0.848476 4.4545,-2.757548 8.909,-2.545428 4.45449,0.21212 8.69687,3.818141 9.9696,3.818141 1.27271,0 3.60601,-4.878734 9.54534,-4.454498 5.93934,0.424237 5.93934,4.878737 9.12111,3.81814 3.18179,-1.060594 5.93935,-5.515089 8.27264,-5.302974 2.33332,0.21212 5.72723,3.818143 5.72723,3.818143 l 2.75754,0.424237 -1.48485,5.727212 -58.80997,-0.265149 z"
         id="path14"
         inkscape:label="O wave "
         sodipodi:nodetypes="cssssssccccc" />
      <path
         style="display:inline;fill:none;stroke:#381500;stroke-width:2.66206;stroke-linecap:square;stroke-dasharray:none;stroke-opacity:1;paint-order:fill markers stroke"
         d="m 143.41429,56.899503 c 0,0 -10.26776,-55.7317528 30.38418,-56.14458056 40.65194,-0.4128278 27.45054,55.73175256 27.45054,55.73175256 z"
         id="path5"
         inkscape:label="O" />
      <path
         style="display:inline;fill:none;fill-opacity:1;stroke:#381500;stroke-width:2.66206;stroke-linecap:square;stroke-dasharray:none;stroke-opacity:1;paint-order:fill markers stroke"
         d="m 176.48305,13.27057 1.04994,30.448121"
         id="path16"
         inkscape:label="O center" />
    </g>
    <g
       inkscape:groupmode="layer"
       id="layer3"
       inkscape:label="P "
       style="display:inline"
       transform="translate(-2.7926311,0.40280289)">
      <path
         style="display:inline;fill:#381500;fill-opacity:1;stroke:#381500;stroke-width:2.66206;stroke-linecap:square;stroke-dasharray:none;stroke-opacity:1;paint-order:fill markers stroke"
         d="m 135.12626,31.477317 c 0.32772,1.771915 5.78201,3.19831 14.31114,8.101072 9.38198,5.392992 18.63457,12.810712 18.39242,17.176338 -0.0112,0.195047 -0.45187,0.280326 -58.43336,0.658187 h -3e-5 L 109.48884,28.9531 C 111.1682,2.0965613 132.23355,-2.6975098 148.1402,2.5940049 m 0,0 c 27.36791,9.1042281 21.92168,46.4153791 -3.74959,34.2645411"
         id="path2-1"
         sodipodi:nodetypes="csscccccc"
         inkscape:label="P shad " />
      <path
         style="display:inline;fill:#93821a;fill-opacity:1;stroke:none;stroke-width:3.12789;stroke-linecap:square;stroke-dasharray:none;stroke-opacity:1;paint-order:fill markers stroke"
         d="m 123.92383,33.773125 c 1.82343,-2.698491 43.07076,14.391709 37.26412,23.050161 -0.10881,0.162219 -0.45187,0.280328 -58.43335,0.658188 h -3e-5 l 0.0924,-28.45981 C 104.52634,2.1651248 125.55525,-2.518119 141.49833,2.6625676 167.85357,11.22668 158.33291,37.57832 140.06975,38.957687"
         id="path7"
         sodipodi:nodetypes="cscccsc"
         inkscape:label="P fill" />
      <path
         style="display:inline;fill:#935e1a;fill-opacity:1;stroke:#ab856e;stroke-width:0.427851;stroke-linecap:square;stroke-dasharray:none;stroke-opacity:1;paint-order:fill markers stroke"
         d="m 102.95276,48.969103 c 0,0 4.4545,1.272712 8.69688,-2.121194 4.24238,-3.3939 5.09086,4.878736 9.75747,3.818143 4.66662,-1.060595 8.90899,-7.636282 11.87867,-6.575688 2.96966,1.060594 4.03026,4.030261 7.42415,5.090854 3.39392,1.060597 5.09086,2.121191 7.21205,1.060597 2.12119,-1.060597 5.91093,-2.59846 8.03212,-0.47727 2.12119,2.121189 5.43101,7.090455 5.43101,7.090455 l -58.22023,0.810977 z"
         id="path13"
         inkscape:label="P wave "
         sodipodi:nodetypes="cssssssccc" />
      <path
         style="display:inline;fill:none;stroke:#381500;stroke-width:2.66206;stroke-linecap:square;stroke-dasharray:none;stroke-opacity:1;paint-order:fill markers stroke"
         d="m 128.63438,31.545876 c 0.32773,1.771915 5.77521,3.210155 14.31115,8.101073 9.39298,5.38199 18.74924,12.696039 18.39242,17.176337 -0.0155,0.194746 0.0731,0.280328 -57.90839,0.658188 l 0.005,-0.318179 -0.43786,-28.141631 C 104.67631,2.1651248 125.74168,-2.628947 141.64832,2.6625676 m 0,0 c 27.36791,9.1042284 21.9217,46.4153764 -3.74959,34.2645364"
         id="path2"
         sodipodi:nodetypes="csscccccc"
         inkscape:label="P" />
      <path
         style="display:inline;fill:none;fill-opacity:1;stroke:#381500;stroke-width:2.07973;stroke-linecap:square;stroke-dasharray:none;stroke-opacity:1;paint-order:fill markers stroke"
         d="m 139.45728,14.376367 11.2493,16.522415"
         id="path15" />
      <path
         style="display:inline;fill:none;fill-opacity:1;stroke:#381500;stroke-width:2.07973;stroke-linecap:square;stroke-dasharray:none;stroke-opacity:1;paint-order:fill markers stroke"
         d="m 150.70658,13.45272 -11.2493,16.522417"
         id="path15-8" />
      <g
         id="g18"
         inkscape:label="P X"
         style="display:inline"
         transform="matrix(1.1171027,0,0,1.1171027,-1.8339932,0.0756848)">
        <path
           style="fill:none;fill-opacity:1;stroke:#381500;stroke-width:1.86172;stroke-linecap:square;stroke-dasharray:none;stroke-opacity:1;paint-order:fill markers stroke"
           d="m 126.4801,12.801581 10.07007,14.790417"
           id="path18" />
        <path
           style="display:inline;fill:none;fill-opacity:1;stroke:#381500;stroke-width:1.86172;stroke-linecap:square;stroke-dasharray:none;stroke-opacity:1;paint-order:fill markers stroke"
           d="M 136.55017,11.974758 126.4801,26.765175"
           id="path19" />
      </g>
    </g>
    <g
       inkscape:groupmode="layer"
       id="layer5"
       inkscape:label="U "
       transform="translate(-6.6962157,-0.18034099)">
      <path
         style="display:inline;fill:#381500;fill-opacity:1;stroke:#381500;stroke-width:2.66206;stroke-linecap:square;stroke-dasharray:none;stroke-opacity:1;paint-order:fill markers stroke"
         d="M 97.228269,2.0793546 C 84.242513,0.99569897 53.016001,13.205913 66.534988,57.927787 l 58.500882,0.117733 c 0,0 4.77268,-54.2770166 -27.469398,-55.9409312 0,0 -16.093404,23.9017062 -3.349091,36.1097102"
         id="path6-2"
         sodipodi:nodetypes="ccccc"
         inkscape:label="U shad " />
      <path
         style="display:inline;fill:#93821a;fill-opacity:1;stroke:none;stroke-width:3.12789;stroke-linecap:square;stroke-dasharray:none;stroke-opacity:1;paint-order:fill markers stroke"
         d="M 88.963426,1.2479129 C 75.977665,0.16425683 44.601161,13.124424 58.120146,57.846294 l 59.181184,-0.207987 c 0,0 4.24238,-54.7012451 -27.999697,-56.3651604 0,0 -16.22139,28.7530204 -2.509035,47.8905914"
         id="path10"
         sodipodi:nodetypes="ccccc"
         inkscape:label="U fill" />
      <path
         style="display:inline;fill:#935e1a;fill-opacity:1;stroke:#ab856e;stroke-width:0.427851;stroke-linecap:square;stroke-dasharray:none;stroke-opacity:1;paint-order:fill markers stroke"
         d="m 55.50597,49.43111 c 0,0 2.868933,1.696951 7.323432,-1.060595 4.454495,-2.757546 4.454495,3.606022 7.63628,4.03026 3.181786,0.424239 6.363568,-3.181782 9.121115,-3.181782 2.757546,0 1.484833,2.757544 6.151451,2.545427 4.666614,-0.21212 6.151447,-5.302973 8.06052,-5.727212 1.909067,-0.424239 8.484762,3.181783 12.090782,3.393902 1.66245,0.09779 3.46016,-0.39051 4.91506,-0.945285 3.93613,-1.929768 2.47106,-1.293416 6.98712,-0.11531 l -0.23564,9.333233 -59.748792,0.349243 z"
         id="path12"
         inkscape:label="U wave "
         sodipodi:nodetypes="cssssssscccc" />
      <path
         style="display:inline;fill:none;stroke:#381500;stroke-width:2.66206;stroke-linecap:square;stroke-dasharray:none;stroke-opacity:1;paint-order:fill markers stroke"
         d="M 88.963426,1.2479129 C 75.977665,0.16425683 44.601161,13.124424 58.120146,57.846294 l 59.181184,-0.207987 c 0,0 4.24238,-54.7012451 -27.999697,-56.3651604 0,0 -16.093414,23.9017074 -3.349101,36.1097114"
         id="path6"
         sodipodi:nodetypes="ccccc"
         inkscape:label="U" />
    </g>
    <g
       inkscape:groupmode="layer"
       id="layer6"
       inkscape:label="C"
       transform="translate(-7.8177861,-0.08480345)">
      <path
         style="display:inline;fill:#381500;fill-opacity:1;stroke:#381500;stroke-width:2.66206;stroke-linecap:square;stroke-dasharray:none;stroke-opacity:1;paint-order:fill markers stroke"
         d="M 31.042129,39.339741 C 31.603641,33.058205 88.97346,13.38054 78.218039,57.989727 l -58.644009,0.08077 c 0,0 -7.641363,-55.2330844 26.862222,-56.7376386 C 69.500225,0.32712936 81.153942,22.512259 73.283081,33.27246"
         id="path4-7"
         sodipodi:nodetypes="cccsc"
         inkscape:label="C shad" />
      <path
         style="display:inline;fill:#93821a;fill-opacity:1;stroke:none;stroke-width:3.12789;stroke-linecap:square;stroke-dasharray:none;stroke-opacity:1;paint-order:fill markers stroke"
         d="m 22.006346,39.192853 c 0.561501,-6.281537 57.931325,-25.959198 47.175905,18.649991 l -58.644011,0.08076 c 0,0 -7.6413677,-55.2330899 26.862226,-56.7376444 C 60.46444,0.18023704 72.118153,22.36537 64.247297,33.125567"
         id="path8"
         sodipodi:nodetypes="cccsc"
         inkscape:label="C fill " />
      <path
         style="display:inline;fill:#935e1a;fill-opacity:1;stroke:#ab856e;stroke-width:0.427851;stroke-linecap:square;stroke-dasharray:none;stroke-opacity:1;paint-order:fill markers stroke"
         d="m 10.092564,56.654341 c 0,0 9.757472,-11.030184 20.151301,-9.121112 10.393828,1.909067 10.181708,6.575685 12.302899,6.151447 2.121187,-0.424235 6.151447,-10.181707 12.090779,-6.151447 5.939329,4.030259 8.27264,8.060519 11.242302,4.030259 2.969666,-4.030259 4.940867,3.069289 4.940867,3.069289 l -2.607556,3.718518 z"
         id="path11"
         inkscape:label="C wave "
         sodipodi:nodetypes="cssssccc" />
      <path
         style="display:inline;fill:none;stroke:#381500;stroke-width:2.66206;stroke-linecap:square;stroke-dasharray:none;stroke-opacity:1;paint-order:fill markers stroke"
         d="m 22.006346,39.192853 c 0.561501,-6.281537 57.931325,-25.959198 47.175905,18.649991 l -58.644011,0.08076 c 0,0 -7.6413677,-55.2330899 26.862226,-56.7376444 C 60.46444,0.18023704 72.118153,22.36537 64.247297,33.125567"
         id="path4"
         sodipodi:nodetypes="cccsc"
         inkscape:label="C" />
    </g>
  </g>
</svg>
