<?xml version="1.0" encoding="UTF-8" standalone="no"?>
<!-- Created with Inkscape (http://www.inkscape.org/) -->

<svg
   width="210mm"
   height="297mm"
   viewBox="0 0 210 297"
   version="1.1"
   id="svg1"
   inkscape:version="1.4 (86a8ad7, 2024-10-11)"
   sodipodi:docname="Cupo5.svg"
   xmlns:inkscape="http://www.inkscape.org/namespaces/inkscape"
   xmlns:sodipodi="http://sodipodi.sourceforge.net/DTD/sodipodi-0.dtd"
   xmlns="http://www.w3.org/2000/svg"
   xmlns:svg="http://www.w3.org/2000/svg">
  <sodipodi:namedview
     id="namedview1"
     pagecolor="#ffffff"
     bordercolor="#000000"
     borderopacity="0.25"
     inkscape:showpageshadow="2"
     inkscape:pageopacity="0.0"
     inkscape:pagecheckerboard="0"
     inkscape:deskcolor="#d1d1d1"
     inkscape:document-units="mm"
     showguides="true"
     inkscape:lockguides="true"
     inkscape:zoom="0.34835029"
     inkscape:cx="424.85971"
     inkscape:cy="202.3825"
     inkscape:window-width="1147"
     inkscape:window-height="755"
     inkscape:window-x="197"
     inkscape:window-y="0"
     inkscape:window-maximized="0"
     inkscape:current-layer="layer1">
    <sodipodi:guide
       position="81.500452,265.78278"
       orientation="0,-1"
       id="guide1"
       inkscape:locked="true" />
    <sodipodi:guide
       position="53.942021,240.94326"
       orientation="0,-1"
       id="guide2"
       inkscape:locked="true" />
  </sodipodi:namedview>
  <defs
     id="defs1" />
  <rect
     style="fill:#333333;stroke:#000000;stroke-width:0.666001;stroke-linecap:round;stroke-linejoin:round;paint-order:markers stroke fill"
     id="rect1"
     width="1312.4719"
     height="1039.0403"
     x="-540.78705"
     y="-252.16476"
     sodipodi:insensitive="true" />
  <g
     inkscape:label="Layer 1"
     inkscape:groupmode="layer"
     id="layer1">
    <path
       style="fill:#550000;fill-opacity:1;stroke:none;stroke-width:2.59568;stroke-linecap:round;stroke-linejoin:round;paint-order:markers stroke fill"
       d="m 141.93847,30.12967 c 0,0 -2.40881,-24.0315604 20.36544,-25.7179744 22.7743,-1.686414 35.6943,2.951238 39.63603,17.9182424 3.94169,14.967006 8.42229,35.025821 -6.7338,36.508999 -11.1971,1.095744 -25.9299,-0.519061 -42.80391,0.100489 -4.31424,0.15857 -5.04758,-6.089854 -6.30309,-9.205262 -4.50941,-11.189639 -4.16067,-19.604656 -4.16067,-19.604656 z"
       id="path15-5-5"
       inkscape:label="O color"
       sodipodi:nodetypes="csssssc" />
    <path
       style="fill:none;stroke:#000000;stroke-width:2.59568;stroke-linecap:round;stroke-linejoin:round;paint-order:markers stroke fill"
       d="m 141.93847,30.12967 c 0,0 -2.40881,-24.0315604 20.36544,-25.7179744 22.7743,-1.686414 35.6943,2.951238 39.63603,17.9182424 3.94169,14.967006 8.42229,35.025821 -6.7338,36.508999 -11.1971,1.095744 -25.9299,-0.519061 -42.80391,0.100489 -4.31424,0.15857 -5.04758,-6.089854 -6.30309,-9.205262 -4.50941,-11.189639 -4.16067,-19.604656 -4.16067,-19.604656 z"
       id="path15-5"
       inkscape:label="O"
       sodipodi:nodetypes="csssssc" />
    <path
       style="fill:#550000;fill-opacity:1;stroke:none;stroke-width:2.46643;stroke-linecap:round;stroke-linejoin:round;paint-order:markers stroke fill"
       d="m 84.748832,9.9529836 c -2.189164,-6.321623 -22.539524,-12.062623 -26.45021,3.9727444 -3.378382,13.852639 -7.792417,43.48168 9.204119,44.098326 25.406598,0.9218 53.447379,0.441344 56.594869,0.149812 1.80583,-0.167328 -6.1389,-33.642855 -11.48946,-46.913351 -5.49103,-13.6187954 -24.018193,-5.1687224 -27.859318,-0.116387 -6.832307,8.986952 4.401761,44.591358 5.721698,19.717569 v 15.864467"
       id="path13-6-7"
       sodipodi:nodetypes="cssssscc"
       inkscape:label="U color" />
    <path
       style="fill:none;stroke:#000000;stroke-width:2.46643;stroke-linecap:round;stroke-linejoin:round;paint-order:markers stroke fill"
       d="m 84.748832,9.9529836 c -2.189164,-6.321623 -22.539524,-12.062623 -26.45021,3.9727444 -3.378382,13.852639 -7.792417,43.48168 9.204119,44.098326 25.406598,0.9218 53.447379,0.441344 56.594869,0.149812 1.80583,-0.167328 -6.1389,-33.642855 -11.48946,-46.913351 C 107.11712,-2.3582804 88.589957,6.0917926 84.748832,11.144128 77.916525,20.13108 78.756623,29.586456 90.47053,30.861697 v 15.864467"
       id="path13-6"
       sodipodi:nodetypes="cssssscc"
       inkscape:label="U" />
    <path
       style="fill:#550000;fill-opacity:1;stroke:none;stroke-width:2.63892;stroke-linecap:round;stroke-linejoin:round;paint-order:markers stroke fill"
       d="M 136.36843,28.244766 C 124.32464,53.080577 170.28403,57.827462 170.6001,24.268075 170.77687,5.4978016 150.61795,1.3193736 129.27985,4.4017356 111.9778,7.1847156 110.95329,20.418696 109.56777,35.174539 c -1.39205,14.825263 2.82918,22.959705 11.86263,22.974868 5.12961,0.0086 8.20173,0.583186 13.45662,0.333415 5.50226,-0.261527 13.26827,0.659884 18.50044,0.482356 0.58012,-0.03042 -0.12604,-7.575021 -11.18466,-11.873615"
       id="path14-8-3"
       inkscape:label="P color"
       sodipodi:nodetypes="cssssscc" />
    <path
       style="fill:none;stroke:#000000;stroke-width:2.63892;stroke-linecap:round;stroke-linejoin:round;paint-order:markers stroke fill"
       d="M 136.36843,28.244766 C 124.32464,53.080577 170.28403,57.827462 170.6001,24.268075 170.77687,5.4978016 150.61795,1.3193736 129.27985,4.4017356 111.9778,7.1847156 110.95329,20.418696 109.56777,35.174539 c -1.39205,14.825263 2.82918,22.959705 11.86263,22.974868 5.12961,0.0086 8.20173,0.583186 13.45662,0.333415 5.50226,-0.261527 13.26827,0.659884 18.50044,0.482356 0.58012,-0.03042 -0.12604,-7.575021 -11.18466,-11.873615"
       id="path14-8"
       inkscape:label="P"
       sodipodi:nodetypes="cssssscc" />
    <path
       style="display:inline;fill:#550000;fill-opacity:1;stroke:none;stroke-width:2.60501;stroke-linecap:round;stroke-linejoin:round;paint-order:markers stroke fill"
       d="m 30.32097,28.16285 c 0,0 -4.799214,24.026396 19.506484,17.719478 C 74.133159,39.575385 66.08286,4.7371286 42.706038,3.9862966 19.329221,3.2354656 0.71506039,2.4869386 2.9190059,35.2206 5.0863905,67.411277 36.311759,55.965967 67.940615,58.346031 85.198316,59.644665 61.470831,37.134382 62.221911,37.059016 M 30.320968,28.16285 c 0,0 -4.799214,24.026396 19.506484,17.719478 C 74.133159,39.575385 66.082857,4.7371286 42.706037,3.9862966 19.329218,3.2354656 0.71505779,2.4869386 2.9190034,35.2206 5.0863892,67.411277 36.311757,55.965967 67.940612,58.346031 85.198316,59.644665 61.470828,37.134382 62.221908,37.059016"
       id="path12-8-8"
       sodipodi:nodetypes="cssssccssssc"
       inkscape:label="C color " />
    <path
       style="display:inline;fill:none;stroke:#000000;stroke-width:2.60501;stroke-linecap:round;stroke-linejoin:round;paint-order:markers stroke fill"
       d="m 30.32097,28.16285 c 0,0 -4.799214,24.026396 19.506484,17.719478 C 74.133159,39.575385 66.08286,4.7371286 42.706038,3.9862966 19.329221,3.2354656 0.71506039,2.4869386 2.9190059,35.2206 5.0863905,67.411277 36.311759,55.965967 67.940615,58.346031 85.198316,59.644665 61.470831,37.134382 62.221911,37.059016 M 30.320968,28.16285 c 0,0 -4.799214,24.026396 19.506484,17.719478 C 74.133159,39.575385 66.082857,4.7371286 42.706037,3.9862966 19.329218,3.2354656 0.71505779,2.4869386 2.9190034,35.2206 5.0863892,67.411277 36.311757,55.965967 67.940612,58.346031 85.198316,59.644665 61.470828,37.134382 62.221908,37.059016"
       id="path12-8"
       sodipodi:nodetypes="cssssccssssc"
       inkscape:label="C" />
  </g>
  <g
     inkscape:groupmode="layer"
     id="layer8"
     inkscape:label="Layer 3" />
  <g
     inkscape:groupmode="layer"
     id="layer6"
     inkscape:label="Layer 2" />
</svg>
