<?xml version="1.0" encoding="UTF-8" standalone="no"?>
<!-- Created with Inkscape (http://www.inkscape.org/) -->

<svg
   width="210mm"
   height="297mm"
   viewBox="0 0 210 297"
   version="1.1"
   id="svg1"
   inkscape:version="1.4 (86a8ad7, 2024-10-11)"
   sodipodi:docname="Cupo14.svg"
   xmlns:inkscape="http://www.inkscape.org/namespaces/inkscape"
   xmlns:sodipodi="http://sodipodi.sourceforge.net/DTD/sodipodi-0.dtd"
   xmlns="http://www.w3.org/2000/svg"
   xmlns:svg="http://www.w3.org/2000/svg">
  <sodipodi:namedview
     id="namedview1"
     pagecolor="#ffffff"
     bordercolor="#000000"
     borderopacity="0.25"
     inkscape:showpageshadow="2"
     inkscape:pageopacity="0.0"
     inkscape:pagecheckerboard="0"
     inkscape:deskcolor="#d1d1d1"
     inkscape:document-units="mm"
     showguides="true"
     inkscape:lockguides="false"
     inkscape:zoom="0.49264169"
     inkscape:cx="288.24194"
     inkscape:cy="376.54141"
     inkscape:window-width="1147"
     inkscape:window-height="755"
     inkscape:window-x="111"
     inkscape:window-y="30"
     inkscape:window-maximized="0"
     inkscape:current-layer="g41" />
  <defs
     id="defs1" />
  <g
     inkscape:label="Layer 1"
     inkscape:groupmode="layer"
     id="layer1"
     sodipodi:insensitive="true">
    <rect
       style="fill:#333333;stroke:#000000;stroke-width:0.840999;stroke-linecap:square;paint-order:fill markers stroke"
       id="rect1"
       width="4898.083"
       height="3488.8101"
       x="-1503.7975"
       y="-1486.6112" />
  </g>
  <g
     inkscape:groupmode="layer"
     id="g41"
     inkscape:label="Cupo copy"
     transform="matrix(1.2319158,0,0,1.2319158,-13.956927,-28.021807)"
     style="stroke-width:3.32814954;stroke:#b6b76d;stroke-opacity:1">
    <path
       id="path47"
       style="fill:#2b0000;stroke:#b6b76d;stroke-width:3.32815;stroke-linecap:square;stroke-opacity:1;paint-order:fill markers stroke"
       d="m 34.911912,74.745657 c -5.376174,0.14472 -9.552323,2.39899 -12.648167,5.90587 -3.095844,3.50687 -5.139927,8.23667 -6.44909,13.39903 C 13.19633,104.3753 13.504496,116.46588 14.62501,124.29299 l 0.08767,0.61118 0.591887,0.004 c 0,0 20.435357,0.13113 40.03729,0.018 4.847359,-0.028 7.771007,-1.16156 9.343503,-3.05172 1.572496,-1.89017 1.620276,-4.38795 1.058768,-6.71043 -1.121538,-4.63883 -4.621418,-9.04161 -4.630642,-9.05322 0.274615,-0.47514 0.648296,-0.81684 0.86287,-1.36499 1.120773,-2.86306 1.340368,-6.702983 0.07257,-11.813823 l -0.0042,-0.0206 -0.0059,-0.0201 c 0,0 -1.458525,-4.706 -5.574053,-9.30407 -4.115497,-4.5982 -10.952304,-9.12715 -21.552895,-8.84181 z m 0.03524,1.4426 c 10.210892,-0.27486 16.598908,4.01994 20.505871,8.38499 3.896869,4.35377 5.254935,8.7252 5.26196,8.74784 1.207498,4.88651 0.959587,8.377113 -0.01971,10.878803 -0.981354,2.50691 -2.702185,4.07666 -4.615122,5.095 -3.82451,2.03598 -8.340662,1.72555 -8.343881,1.72533 -6.167958,-0.48425 -10.086808,-1.86063 -12.484151,-3.56894 -2.397343,-1.7083 -3.317769,-3.71602 -3.564743,-5.71248 -0.493948,-3.992923 1.939676,-7.949153 1.939676,-7.949153 l 0.380889,-0.60112 -1.156507,-0.79449 -0.380889,0.60321 c 0,0 -2.734224,4.23686 -2.154031,8.926963 0.290097,2.34504 1.468168,4.80336 4.156211,6.71881 2.688044,1.91545 6.841001,3.3216 13.159933,3.81769 h 0.0021 c 0,0 4.810444,0.38928 9.074196,-1.88053 1.337996,-0.71228 2.534362,-1.83486 3.587815,-3.18008 0.41884,0.55585 3.173654,4.26247 4.105453,8.11653 0.501757,2.07533 0.427261,3.98213 -0.761357,5.41087 -1.188618,1.42873 -3.664826,2.52785 -8.306967,2.55464 -19.287629,0.11131 -38.782756,-0.0125 -39.4001,-0.0164 -1.030138,-7.66434 -1.263386,-19.25942 1.21859,-29.046493 1.271293,-5.01304 3.248911,-9.52703 6.129026,-12.78954 2.880115,-3.2625 6.636177,-5.30611 11.665745,-5.44149 z m -3e-6,0 c -5.029568,0.13538 -8.78563,2.17899 -11.665745,5.44149 -2.880115,3.26251 -4.857733,7.7765 -6.129026,12.78954 -2.481976,9.787073 -2.248728,21.382153 -1.21859,29.046493 0.617344,0.004 20.112471,0.12767 39.4001,0.0164 4.642141,-0.0268 7.118349,-1.12591 8.306967,-2.55464 1.188618,-1.42874 1.263114,-3.33554 0.761357,-5.41087 -0.931799,-3.85406 -3.686613,-7.56068 -4.105453,-8.11653 -1.053453,1.34522 -2.249819,2.4678 -3.587815,3.18008 -4.263752,2.26981 -9.074196,1.88053 -9.074196,1.88053 h -0.0021 c -6.318932,-0.49609 -10.471889,-1.90224 -13.159933,-3.81769 -2.688043,-1.91545 -3.866114,-4.37377 -4.156211,-6.71881 -0.580193,-4.690103 2.154031,-8.926963 2.154031,-8.926963 l 0.380889,-0.60321 1.156507,0.79449 -0.380889,0.60112 c 0,0 -2.433624,3.95623 -1.939676,7.949153 0.246974,1.99646 1.1674,4.00418 3.564743,5.71248 2.397343,1.70831 6.316193,3.08469 12.484151,3.56894 0.0032,2.2e-4 4.519371,0.31065 8.343881,-1.72533 1.912937,-1.01834 3.633768,-2.58809 4.615122,-5.095 0.979302,-2.50169 1.227213,-5.992293 0.01971,-10.878803 -0.007,-0.0226 -1.365091,-4.39407 -5.26196,-8.74784 -3.906963,-4.36505 -10.294979,-8.65985 -20.505871,-8.38499 z m 10.059136,-0.073 c 5.102183,1.64608 8.836044,4.54213 11.458522,7.4722 4.115528,4.59807 5.574053,9.30407 5.574053,9.30407 l 0.0059,0.0201 0.0042,0.0206 c 1.267798,5.11084 1.048203,8.950763 -0.07257,11.813823 -0.214574,0.54815 -0.588255,0.88985 -0.86287,1.36499 0.0092,0.0116 3.509104,4.41439 4.630642,9.05322 0.561508,2.32248 0.513728,4.82026 -1.058768,6.71043 -1.00247,1.20498 -2.561546,2.09825 -4.8106,2.59784 18.547076,-0.28667 4.958676,-17.63579 4.958676,-17.63579 l -0.259239,-0.12417 c 1.833315,-2.76914 2.64194,-6.962093 1.064641,-13.320593 0,0 -4.569248,-14.72349 -20.632554,-17.27671 z m 18.24697,-1.20391 c -0.562898,0.003 -1.113279,0.0374 -1.649816,0.0994 -1.470937,0.16989 -2.83943,0.53577 -4.081962,1.01598 -1.865845,0.7211 -3.453607,1.68381 -4.712441,2.5991 0.482222,0.24629 0.944474,0.5059 1.394353,0.77352 1.080098,-0.73331 2.346664,-1.46617 3.808461,-2.03113 1.149788,-0.44436 2.403609,-0.79129 3.748056,-0.95767 0.487691,-0.0604 0.987493,-0.0953 1.499222,-0.10109 3.582103,-0.0403 7.738846,1.34484 12.266441,5.38822 -0.451773,0.46014 -0.936032,0.87162 -1.35576,1.37757 -2.843812,3.42802 -3.866683,6.78103 -3.714917,9.82381 0.151766,3.04278 1.448816,5.7347 3.070595,7.957963 3.243558,4.44653 7.855187,7.12277 7.855187,7.12277 l 0.607407,0.35572 0.687528,-1.24711 -0.60531,-0.35362 c 0,0 -4.407248,-2.59368 -7.429833,-6.737283 -1.511293,-2.0718 -2.659841,-4.50497 -2.7929,-7.17269 -0.133059,-2.66771 0.72031,-5.60975 3.383108,-8.81957 3.203005,-3.861 7.469696,-6.30829 11.675393,-7.06279 4.205697,-0.7545 8.320874,0.16531 11.35575,3.00222 3.034863,2.83692 5.049713,7.64253 4.863033,14.87393 -0.18452,7.147763 -2.57413,16.656553 -8.230201,28.732303 l -29.096407,-0.0818 c -1.453405,0.59389 -3.376245,0.96403 -5.923481,1.0034 -0.910801,0.20232 -1.938039,0.33818 -3.085277,0.40522 l 38.995721,0.10906 0.191283,-0.40564 c 5.858932,-12.40218 8.346802,-22.20036 8.541032,-29.724373 0.19423,-7.524 -1.92904,-12.80448 -5.318165,-15.97254 -3.389135,-3.16807 -7.983568,-4.16954 -12.53323,-3.35333 -3.577807,0.64186 -7.124624,2.43298 -10.14471,5.1529 -4.770632,-4.28531 -9.327872,-5.79433 -13.26816,-5.77247 z m 31.685859,48.540573 -9.090976,0.0734 9.046511,0.0256 c 0.01589,-0.0339 0.02863,-0.0651 0.04447,-0.099 z M 63.259128,76.309487 c -0.511729,0.006 -1.011531,0.0407 -1.499222,0.10109 -1.344447,0.16638 -2.598268,0.51331 -3.748056,0.95767 -1.461797,0.56496 -2.728363,1.29782 -3.808461,2.03113 8.691376,5.17015 11.43545,13.9926 11.43545,13.9926 1.577299,6.3585 0.768674,10.551453 -1.064641,13.320593 l 0.259239,0.12417 c 0,0 10.094015,12.90201 0.964805,16.63239 l 20.049896,0.0562 9.090976,-0.0734 c 5.621886,-12.02744 8.001736,-21.50563 8.185736,-28.633303 0.18668,-7.2314 -1.82817,-12.03701 -4.863033,-14.87393 -3.034876,-2.83691 -7.150053,-3.75672 -11.35575,-3.00222 -4.205697,0.7545 -8.472388,3.20179 -11.675393,7.06279 -2.662798,3.20982 -3.516167,6.15186 -3.383108,8.81957 0.133059,2.66772 1.281607,5.10089 2.7929,7.17269 3.022585,4.143603 7.429833,6.737283 7.429833,6.737283 l 0.60531,0.35362 -0.687528,1.24711 -0.607407,-0.35572 c 0,0 -4.611629,-2.67624 -7.855187,-7.12277 -1.621779,-2.223263 -2.918829,-4.915183 -3.070595,-7.957963 -0.151766,-3.04278 0.871105,-6.39579 3.714917,-9.82381 0.419728,-0.50595 0.903987,-0.91743 1.35576,-1.37757 -4.527595,-4.04338 -8.684338,-5.42855 -12.266441,-5.38822 z m 7.511213,0.4287 c 1.863335,0.91001 3.78727,2.18162 5.751074,3.94564 0.327379,-0.29484 0.663431,-0.57378 1.002558,-0.84652 -2.361205,-1.65721 -4.626234,-2.62867 -6.753632,-3.09912 z m 25.540893,0.1011 c 1.029793,0.53861 2.001055,1.21576 2.888121,2.04497 3.389125,3.16806 5.512395,8.44854 5.318165,15.97254 -0.19423,7.524013 -2.6821,17.322193 -8.541032,29.724373 l -0.0059,0.0126 3.43764,-0.0281 C 114.42747,92.773007 107.02024,78.624577 96.311234,76.839287 Z m -39.52175,48.038463 c -0.261963,0.0153 -0.544342,0.0191 -0.817986,0.0277 l 8.39e-4,0.0138 4.005617,-0.0327 z M 113.37946,74.845497 c -0.58958,-0.007 -1.17343,-0.003 -1.75049,0.0118 -5.94077,0.15226 -11.16461,1.37576 -14.158293,2.23331 0.795973,0.20559 1.566563,0.48762 2.307561,0.84148 2.890022,-0.73071 7.071322,-1.54399 11.887642,-1.66744 0.56002,-0.0144 1.12575,-0.0193 1.69554,-0.013 8.54694,0.0949 18.04241,2.66116 23.93345,12.03824 3.15622,5.02392 4.04563,9.39603 3.46281,12.917063 -0.58282,3.52101 -2.62732,6.23649 -5.54469,7.99235 -5.83473,3.51173 -15.18412,3.05535 -22.62886,-3.42463 l -0.0684,-0.0621 -0.0839,-0.0407 c 0,0 -0.69083,-0.32233 -1.31087,-1.3566 -0.62003,-1.03426 -1.13536,-2.75497 -0.45681,-5.627743 l 0.16191,-0.68627 -1.38092,-0.32174 -0.16192,0.68627 c -0.74556,3.156453 -0.18835,5.323593 0.61915,6.670573 0.68645,1.14505 1.53812,1.68815 1.79034,1.83313 2.9834,2.58528 6.27057,4.26593 9.55324,5.15541 l 0.31252,0.34481 c 2.22737,2.45914 3.07754,4.78084 3.03913,6.72134 -0.0371,1.87271 -0.91597,3.40488 -2.3084,4.49431 l -22.419955,-0.0252 c -0.155978,0.33699 -0.299893,0.66444 -0.461009,1.00549 l -3.43764,0.0281 -0.173665,0.3683 27.027109,0.0319 0.1896,-0.13927 c 1.80084,-1.32783 2.95486,-3.36616 3.0018,-5.73681 0.041,-2.07018 -0.93514,-4.37136 -2.73794,-6.68777 4.65944,0.80169 9.18238,0.0715 12.66956,-2.02735 3.22537,-1.94124 5.56048,-5.03785 6.21124,-8.96932 0.65076,-3.931473 -0.37175,-8.653053 -3.66038,-13.887743 -6.19305,-9.85781 -16.2747,-12.59191 -25.11848,-12.70018 z m -0.018,1.4061 c -0.56979,-0.006 -1.13552,-0.001 -1.69554,0.013 -4.81632,0.12345 -8.99762,0.93673 -11.887642,1.66744 8.519712,4.06851 12.834952,18.09446 0.09103,45.628123 l 22.419952,0.0252 c 1.39243,-1.08943 2.2713,-2.6216 2.3084,-4.49431 0.0384,-1.9405 -0.81176,-4.2622 -3.03913,-6.72134 l -0.31252,-0.34481 c -3.28267,-0.88948 -6.56984,-2.57013 -9.55324,-5.15541 -0.25222,-0.14498 -1.10389,-0.68808 -1.79034,-1.83313 -0.8075,-1.34698 -1.36471,-3.51412 -0.61915,-6.670573 l 0.16192,-0.68627 1.38092,0.32174 -0.16191,0.68627 c -0.67855,2.872773 -0.16322,4.593483 0.45681,5.627743 0.62004,1.03427 1.31087,1.3566 1.31087,1.3566 l 0.0839,0.0407 0.0684,0.0621 c 7.44474,6.47998 16.79413,6.93636 22.62886,3.42463 2.91737,-1.75586 4.96187,-4.47134 5.54469,-7.99235 0.58282,-3.521033 -0.30659,-7.893143 -3.46281,-12.917063 -5.89104,-9.37708 -15.38651,-11.94334 -23.93345,-12.03824 z m 13.00011,1.05877 c 4.61722,1.90407 8.90703,5.09493 12.13641,10.23531 3.28863,5.23469 4.31114,9.95627 3.66038,13.887743 -0.65076,3.93147 -2.98587,7.02808 -6.21124,8.96932 -2.10097,1.2645 -4.58147,2.022 -7.23771,2.25722 12.58588,1.77216 23.6352,-8.40701 13.86801,-23.953993 -4.15712,-6.61711 -10.08788,-9.93574 -16.21585,-11.3956 z m -3.08401,35.119723 c 1.8028,2.31641 2.77894,4.61759 2.73794,6.68777 -0.0469,2.37065 -1.20096,4.40898 -3.0018,5.73681 l -0.1896,0.13927 -4.82193,-0.006 9.26884,0.0893 c 3.27192,-2.41252 4.11874,-7.23955 -0.45598,-12.33314 -1.16045,-0.007 -2.344,-0.10884 -3.53747,-0.31419 z m 21.35993,-37.554393 c -1.25699,-0.008 -2.56639,0.0698 -3.92843,0.24204 -3.9529,0.49995 -7.19335,1.79879 -9.82968,3.65284 0.49968,0.2085 0.98829,0.45592 1.47866,0.69675 2.31557,-1.46814 5.11642,-2.49277 8.52091,-2.92335 1.30652,-0.16525 2.55557,-0.24182 3.74973,-0.23617 0.39805,0.002 0.7899,0.0128 1.1758,0.0327 4.63085,0.23953 8.40058,1.75971 11.5118,4.13314 4.14828,3.16456 7.12611,7.88743 9.21682,13.20314 4.06798,10.342983 4.72099,22.792093 4.3886,29.882513 l -42.15944,0.0147 c -0.3908,0.54001 -0.86481,1.02187 -1.40945,1.43588 l 44.91291,-0.0143 0.0369,-0.67662 c 0.40808,-7.1542 -0.16947,-20.21909 -4.48047,-31.179973 -2.15551,-5.48044 -5.25354,-10.44455 -9.67741,-13.81935 -3.3179,-2.5311 -7.37938,-4.14593 -12.2677,-4.40706 -0.40736,-0.0218 -0.82056,-0.0342 -1.23956,-0.0369 z m -0.009,1.43211 c -1.19416,-0.006 -2.44321,0.0709 -3.74973,0.23617 -3.40449,0.43058 -6.20534,1.45521 -8.52091,2.92335 3.88092,1.90601 7.44796,4.82721 10.21938,9.23864 9.76719,15.546983 -1.28213,25.726153 -13.86801,23.953993 -0.6233,0.0552 -1.25388,0.0882 -1.89438,0.0843 3.76303,4.18985 3.85315,8.19609 1.94723,10.82972 l 42.15944,-0.0147 c 0.33239,-7.09042 -0.32062,-19.53953 -4.3886,-29.882513 -2.09071,-5.31571 -5.06854,-10.03858 -9.21682,-13.20314 -3.11122,-2.37343 -6.88095,-3.89361 -11.5118,-4.13314 -0.3859,-0.02 -0.77775,-0.0308 -1.1758,-0.0327 z m 6.30563,-1.01976 c -0.53669,-0.002 -1.08789,0.0197 -1.6452,0.0512 3.40166,0.67586 6.34302,2.06366 8.85564,3.98045 4.42387,3.3748 7.5219,8.33891 9.67741,13.81935 4.311,10.960883 4.88855,24.025773 4.48047,31.179973 l -0.0369,0.67662 -42.95268,0.0138 c 0.001,0.006 0.0256,0.12585 0.0256,0.12585 l 48.63831,-0.0868 c 0.76785,-13.91117 -2.12329,-49.660793 -27.04263,-49.760423 z"
       sodipodi:nodetypes="cssccccsscccccccccscsccssccccssccscssscsscccsscssscsccssccccsscsscscccccccscssccccscccsccscccsssccccssssssccccccsssccccccscccccccccccssssssccccssscccccccsscccccccccccccccssscccsccccscccccccccccscssscccccccccccsccccscccssscccssscsccccccccccccccsccsscccccsscccsccsccccsscssscsscccccss" />
  </g>
  <g
     inkscape:groupmode="layer"
     id="layer3"
     inkscape:label="Cupo"
     transform="matrix(1.2319158,0,0,1.2319158,-13.956927,-28.021807)"
     style="stroke-width:0.811744"
     sodipodi:insensitive="true">
    <g
       inkscape:groupmode="layer"
       id="layer4"
       inkscape:label="O "
       transform="matrix(1,0,0,1.0312718,0,-3.7521933)"
       style="stroke-width:0.799341">
      <path
         style="fill:#8f903b;fill-opacity:1;stroke:none;stroke-width:0.672246;stroke-linecap:square;stroke-opacity:1;paint-order:fill markers stroke"
         d="m 129.33858,124.97917 c 0,0 -10.70784,-44.484791 17.7569,-48.092341 28.46474,-3.60755 31.68716,33.855491 30.88155,48.008241 z"
         id="path10-1"
         inkscape:label="O fill"
         sodipodi:nodetypes="cscc" />
      <path
         style="fill:#008000;fill-opacity:1;stroke:none;stroke-width:0.672246;stroke-linecap:square;stroke-opacity:1;paint-order:fill markers stroke"
         d="m 123.07108,124.16358 c 0,0 -10.74141,-43.502601 17.72333,-46.993551 28.46474,-3.49094 31.68716,32.761181 30.88155,46.456481 z"
         id="path10"
         inkscape:label="O fill" />
      <path
         style="fill:#000080;fill-opacity:1;stroke:#8f903b;stroke-width:0.192641;stroke-linecap:square;stroke-opacity:1;paint-order:fill markers stroke"
         d="m 125.13296,117.46214 c 0,0 3.70273,2.946 7.69027,0.36825 3.98754,-2.57775 6.83579,-2.946 10.44357,-0.55237 3.60778,2.39363 9.01945,4.05075 12.62723,0.73649 3.60778,-3.31425 7.59532,-4.60312 10.53851,-2.39362 2.94319,2.2095 5.41167,-0.092 5.41167,-0.092 l -0.47471,8.56182 -49.27466,0.27619 c 0,0 2.56342,-1.19681 2.94318,-2.76187 0.37977,-1.56507 0.0949,-4.14282 0.0949,-4.14282 z"
         id="path21"
         sodipodi:nodetypes="csssscccscc" />
      <path
         style="fill:none;stroke:#8f903b;stroke-width:1.39165;stroke-linecap:square;stroke-opacity:1;paint-order:fill markers stroke"
         d="m 123.07108,124.16358 c 0,0 -10.74141,-43.502601 17.72333,-46.993551 28.46474,-3.49094 31.62003,33.281961 30.81442,46.977261 z"
         id="path16"
         inkscape:label="O out "
         sodipodi:nodetypes="cscc" />
    </g>
    <g
       inkscape:groupmode="layer"
       id="layer7"
       inkscape:label="P "
       transform="matrix(1,0,0,0.99226922,0,0.92755284)"
       style="stroke-width:0.814902">
      <path
         style="fill:#8f903b;fill-opacity:1;stroke:none;stroke-width:0.68533;stroke-linecap:square;stroke-opacity:1;paint-order:fill markers stroke"
         d="m 114.65499,99.153463 c -1.42412,6.076227 2.14302,7.837717 2.14302,7.837717 15.30651,13.42676 38.66907,2.14828 25.77938,-18.528807 -12.88969,-20.677052 -42.831372,-9.39864 -42.831372,-9.39864 l 0.402802,45.790267 27.12206,0.26331 c 3.28415,-2.4404 4.12906,-7.33244 -0.5035,-12.48689"
         id="path15-2"
         sodipodi:nodetypes="ccscccc"
         inkscape:label="P fill" />
      <path
         style="fill:#008000;fill-opacity:1;stroke:#903b3b;stroke-width:0.68533;stroke-linecap:square;stroke-opacity:1;paint-order:fill markers stroke"
         d="m 109.97407,98.359253 c -1.42412,6.076207 2.14302,7.837697 2.14302,7.837697 15.30651,13.42676 38.66907,2.14828 25.77938,-18.528787 -12.88969,-20.677069 -42.831373,-9.39865 -42.831373,-9.39865 l 0.4028,45.790257 27.122063,0.26331 c 3.28415,-2.4404 4.12906,-7.33244 -0.5035,-12.48689"
         id="path15"
         sodipodi:nodetypes="ccscccc"
         inkscape:label="P fill" />
      <path
         style="fill:#000080;fill-opacity:1;stroke:#8f903b;stroke-width:0.196391;stroke-linecap:square;stroke-opacity:1;paint-order:fill markers stroke"
         d="m 100.63805,113.43988 c 0,0 0,4.0186 4.17742,3.82724 4.17743,-0.19136 3.51284,-1.72226 6.26614,-2.87044 2.75331,-1.14817 2.56343,2.20067 5.98132,3.34885 3.4179,1.14817 3.89261,1.05249 6.07626,-0.57409 2.18366,-1.62658 2.2786,5.45383 -1.04435,6.69769 -3.32296,1.24385 -26.67858,0.0956 -26.67858,0.0956 l 2.373538,-5.93225 z"
         id="path20" />
      <path
         style="fill:none;stroke:#8f903b;stroke-width:1.41874;stroke-linecap:square;stroke-opacity:1;paint-order:fill markers stroke"
         d="m 109.97407,98.359253 c -1.42412,6.076207 2.14302,7.837697 2.14302,7.837697 15.30651,13.42676 38.66907,2.14828 25.77938,-18.528787 -12.88969,-20.677069 -42.831373,-9.39865 -42.831373,-9.39865 l 0.545212,46.022657 26.979651,0.0309 c 3.28415,-2.4404 4.12906,-7.33244 -0.5035,-12.48689"
         id="path9"
         sodipodi:nodetypes="ccscccc"
         inkscape:label="P out" />
      <path
         style="fill:#333333;stroke:#8f903b;stroke-width:1.41874;stroke-linecap:square;stroke-opacity:1;paint-order:fill markers stroke"
         d="m 118.10729,84.472073 14.24124,21.171787"
         id="path12" />
      <path
         style="fill:#333333;stroke:#8f903b;stroke-width:1.41874;stroke-linecap:square;stroke-opacity:1;paint-order:fill markers stroke"
         d="M 131.42724,84.230083 117.186,105.40186"
         id="path12-8" />
      <path
         style="fill:#333333;stroke:#8f903b;stroke-width:1.41874;stroke-linecap:square;stroke-opacity:1;paint-order:fill markers stroke"
         d="m 148.7395,86.167503 -0.12008,31.123797 0.5264,0.005 -0.095,-31.128827 z"
         id="path13"
         sodipodi:nodetypes="ccccc" />
    </g>
    <g
       inkscape:groupmode="layer"
       id="layer6"
       inkscape:label="U "
       transform="matrix(1,0,0,1.0281529,0,-3.3738153)"
       style="stroke-width:0.800553">
      <path
         style="fill:#8f903b;fill-opacity:1;stroke:none;stroke-width:0.673264;stroke-linecap:square;stroke-opacity:1;paint-order:fill markers stroke"
         d="m 85.784069,108.45041 c 0,0 -18.03889,-10.253756 -7.02567,-23.165926 13.22627,-15.506789 43.968571,-8.85764 20.649792,39.151876 l -43.435765,0.344 -1.898831,-41.014946 c 0.02572,0.20576 11.814634,-13.757559 26.488194,-0.42487"
         id="path8-7"
         sodipodi:nodetypes="cscccc"
         inkscape:label="U fill" />
      <path
         style="fill:#008000;fill-opacity:1;stroke:#903b3b;stroke-width:0.673264;stroke-linecap:square;stroke-opacity:1;paint-order:fill markers stroke"
         d="m 81.726071,107.69945 c 0,0 -18.038897,-10.253756 -7.025677,-23.165926 13.226277,-15.506784 43.968576,-8.85765 20.64979,39.151876 l -43.43576,0.344 -1.898831,-41.014956 c 0.02572,0.20576 11.814632,-13.757543 26.488198,-0.42486"
         id="path8"
         sodipodi:nodetypes="cscccc"
         inkscape:label="U fill" />
      <path
         style="fill:#000080;fill-opacity:1;stroke:#8f903b;stroke-width:0.192933;stroke-linecap:square;stroke-opacity:1;paint-order:fill markers stroke"
         d="m 63.231074,112.64915 c 0,0 6.076259,-1.38512 7.785206,1.38513 7.130982,11.55955 10.925459,-4.96232 17.089479,-0.55405 3.228012,2.30855 3.702722,3.9707 6.835791,1.7545 3.133072,-2.21621 5.12684,-1.47747 5.12684,-1.47747 l -5.12684,10.34228 -33.514365,-0.18468 2.848244,-3.13962 0.854475,-2.58557 -0.949415,-4.06305 z"
         id="path19"
         sodipodi:nodetypes="csssccccccc" />
      <path
         style="fill:none;stroke:#8f903b;stroke-width:1.39376;stroke-linecap:square;stroke-opacity:1;paint-order:fill markers stroke"
         d="m 81.726071,107.69945 c 0,0 -18.038897,-10.253756 -7.025677,-23.165926 13.226277,-15.506784 43.968576,-8.39594 20.64979,39.613586 L 51.914424,124.0294 50.015593,83.014444 c 0.02572,0.20576 11.814632,-13.757543 26.488198,-0.42486"
         id="path17"
         sodipodi:nodetypes="cscccc"
         inkscape:label="U out " />
    </g>
    <g
       inkscape:groupmode="layer"
       id="layer5"
       inkscape:label="C"
       transform="matrix(1,0,0,1.0430515,0,-5.1677914)"
       style="stroke-width:0.794815">
      <path
         style="fill:#8f903b;fill-opacity:1;stroke:none;stroke-width:0.668439;stroke-linecap:square;stroke-opacity:1;paint-order:fill markers stroke"
         d="m 37.308575,94.760166 c 0,0 -10.3386,15.709364 14.63518,17.589114 0,0 18.6632,1.34267 13.69529,-17.857654 0,0 -5.63924,-17.45487 -26.45072,-16.9178 -20.81148,0.53707 -21.83527,31.871914 -19.61986,46.708484 0,0 20.43221,0.12522 40.02854,0.0168 18.979,-0.10502 5.23644,-16.91772 5.23644,-16.91772"
         id="path7-5"
         sodipodi:nodetypes="cccscsc"
         inkscape:label="C  fill" />
      <path
         style="fill:#008000;fill-opacity:1;stroke:none;stroke-width:0.668439;stroke-linecap:square;stroke-opacity:1;paint-order:fill markers stroke"
         d="m 33.144343,94.584526 c 0,0 -10.338608,15.709364 14.635172,17.589114 0,0 18.663204,1.34267 13.695298,-17.857654 0,0 -5.63924,-17.45488 -26.450723,-16.9178 -20.811484,0.53707 -21.835274,31.871914 -19.619858,46.708484 0,0 20.432211,0.12522 40.028536,0.0168 18.979001,-0.10502 5.236438,-16.91772 5.236438,-16.91772"
         id="path7"
         sodipodi:nodetypes="cccscsc"
         inkscape:label="C  fill" />
      <path
         style="fill:#000080;fill-opacity:1;stroke:#8f903b;stroke-width:0.19155;stroke-linecap:square;stroke-opacity:1;paint-order:fill markers stroke"
         d="m 15.095707,124.0467 c 0,0 -1.815479,-5.60367 0.146394,-8.81614 5.016373,-0.67106 10.134891,-2.56189 15.329079,-1.92456 8.658634,1.66025 17.014895,9.62014 25.15951,2.18455 3.133071,-3.1858 8.639683,-3.09478 9.11439,-2.0025 0.474707,1.09227 4.177427,9.73944 -8.259916,10.46763 -12.437343,0.72818 -41.489457,0.091 -41.489457,0.091 z"
         id="path18"
         sodipodi:nodetypes="cssssscc" />
      <path
         style="fill:none;stroke:#8f903b;stroke-width:1.38377;stroke-linecap:square;stroke-opacity:1;paint-order:fill markers stroke"
         d="m 33.049401,94.493496 c 0,0 -10.338608,15.709374 14.635172,17.589124 0,0 18.663204,1.34267 13.695298,-17.857654 0,0 -5.63924,-17.45488 -26.450723,-16.91781 -20.811484,0.53708 -21.835274,31.871924 -19.619858,46.708494 0,0 20.432211,0.12522 40.028536,0.0168 18.979001,-0.10502 5.236438,-16.91772 5.236438,-16.91772"
         id="path14"
         sodipodi:nodetypes="cccscsc"
         inkscape:label="C out " />
    </g>
  </g>
</svg>
