<?xml version="1.0" encoding="UTF-8" standalone="no"?>
<!-- Created with Inkscape (http://www.inkscape.org/) -->

<svg
   width="210mm"
   height="297mm"
   viewBox="0 0 210 297"
   version="1.1"
   id="svg1"
   xml:space="preserve"
   inkscape:version="1.4 (86a8ad7, 2024-10-11)"
   sodipodi:docname="Cupo green.svg"
   xmlns:inkscape="http://www.inkscape.org/namespaces/inkscape"
   xmlns:sodipodi="http://sodipodi.sourceforge.net/DTD/sodipodi-0.dtd"
   xmlns="http://www.w3.org/2000/svg"
   xmlns:svg="http://www.w3.org/2000/svg"><sodipodi:namedview
     id="namedview1"
     pagecolor="#ffffff"
     bordercolor="#000000"
     borderopacity="0.25"
     inkscape:showpageshadow="2"
     inkscape:pageopacity="0.0"
     inkscape:pagecheckerboard="0"
     inkscape:deskcolor="#d1d1d1"
     inkscape:document-units="mm"
     showguides="true"
     inkscape:lockguides="true"
     inkscape:zoom="0.3535534"
     inkscape:cx="407.2935"
     inkscape:cy="445.47726"
     inkscape:window-width="1147"
     inkscape:window-height="755"
     inkscape:window-x="197"
     inkscape:window-y="0"
     inkscape:window-maximized="0"
     inkscape:current-layer="layer2"><sodipodi:guide
       position="114.06035,297"
       orientation="0,-1"
       id="guide1"
       inkscape:locked="true" /><sodipodi:guide
       position="105.55953,291.00096"
       orientation="0,-1"
       id="guide2"
       inkscape:locked="true" /><sodipodi:guide
       position="2.2918361,290.07773"
       orientation="0,-1"
       id="guide6"
       inkscape:locked="true" /></sodipodi:namedview><defs
     id="defs1" /><g
     inkscape:label="background"
     inkscape:groupmode="layer"
     id="layer1"
     sodipodi:insensitive="true"><rect
       style="fill:#333333;stroke:#000000;stroke-width:1.33913;stroke-linecap:round;stroke-linejoin:round;paint-order:markers stroke fill"
       id="rect1"
       width="1024.7666"
       height="985.27264"
       x="-401.89676"
       y="-400.60834" /></g><g
     inkscape:groupmode="layer"
     id="layer2"
     inkscape:label="cupo"
     style="display:inline;opacity:0.456"><path
       style="fill:#445016;fill-opacity:1;stroke:none;stroke-width:1.30834;stroke-linecap:round;stroke-linejoin:round;stroke-dasharray:none;stroke-opacity:1;paint-order:markers stroke fill"
       d="m 168.28256,172.92551 c 60.68529,4.54906 40.55156,-81.645975 3.6728,-82.858629 -31.76278,-1.044427 -77.527828,77.322349 -3.6728,82.858629 z"
       id="path6-4"
       sodipodi:nodetypes="sss"
       inkscape:label="o color" /><path
       style="fill:none;stroke:#000000;stroke-width:1.30834;stroke-linecap:round;stroke-linejoin:round;stroke-dasharray:none;stroke-opacity:1;paint-order:markers stroke fill"
       d="m 168.28256,172.92551 c 60.68529,4.54906 40.55156,-81.645975 3.6728,-82.858629 -31.76278,-1.044427 -77.527828,77.322349 -3.6728,82.858629 z"
       id="path6"
       sodipodi:nodetypes="sss"
       inkscape:label="o" /><path
       style="fill:#445016;fill-opacity:1;stroke:none;stroke-width:1.29503;stroke-linecap:round;stroke-linejoin:round;stroke-dasharray:none;stroke-opacity:1;paint-order:markers stroke fill"
       d="m 101.49599,144.42372 c 0,-26.06224 13.70228,-49.067827 30.30766,-53.411516 16.95916,-4.436235 47.23731,15.632616 46.42349,37.107706 -0.70363,18.56734 -38.0355,14.94638 -38.51715,14.22391 5.46857,13.31948 -2.39297,32.33253 -17.51482,30.98135 -9.19847,-0.82192 -20.69918,-10.69432 -20.69918,-28.90145 z"
       id="path4-2"
       sodipodi:nodetypes="ssscss"
       inkscape:label="p color" /><path
       style="fill:none;stroke:#000000;stroke-width:1.31038;stroke-linecap:round;stroke-linejoin:round;stroke-dasharray:none;stroke-opacity:1;paint-order:markers stroke fill"
       d="m 101.49599,144.42372 c 0,-26.06224 13.70228,-49.067827 30.30766,-53.411516 16.95916,-4.436235 47.23731,15.632616 46.42349,37.107706 -0.70363,18.56734 -38.0355,14.94638 -38.51715,14.22391 5.46857,13.31948 -2.39297,32.33253 -17.51482,30.98135 -9.19847,-0.82192 -20.69918,-10.69432 -20.69918,-28.90145 z"
       id="path4"
       sodipodi:nodetypes="ssscss"
       inkscape:label="p" /><path
       style="fill:none;fill-opacity:1;stroke:#000000;stroke-width:1.31038;stroke-linecap:round;stroke-linejoin:round;stroke-dasharray:none;stroke-opacity:1;paint-order:markers stroke fill"
       d="m 144.43182,142.97501 c 0,0 -7.50809,-0.70988 -12.78193,-3.80396"
       id="path11"
       sodipodi:nodetypes="cc"
       inkscape:label="P arch " /><path
       style="fill:#445016;fill-opacity:1;stroke:none;stroke-width:2.57215;stroke-linecap:round;stroke-linejoin:round;stroke-dasharray:none;stroke-opacity:1;paint-order:markers stroke fill"
       d="m 78.90739,143.94202 c 24.3775,-11.4019 14.545268,-52.776037 -1.89234,-53.298541 -5.962188,-0.189522 -12.57883,6.190496 -19.05037,19.636441 -20.524535,42.64391 -0.39737,61.60954 28.042384,63.26788 62.820146,3.66306 42.197576,-83.817297 10.092588,-82.973712 -2.843193,0.07471 -5.391416,2.401658 -8.739066,6.572798"
       id="path3-7"
       sodipodi:nodetypes="cssssc"
       inkscape:label="u color" /><path
       style="fill:none;stroke:#000000;stroke-width:1.29907;stroke-linecap:round;stroke-linejoin:round;stroke-dasharray:none;stroke-opacity:1;paint-order:markers stroke fill"
       d="M 87.433682,137.31294 C 100.29673,121.40729 91.070769,91.090271 77.01505,90.643479 71.052862,90.453957 64.43622,96.833975 57.96468,110.27992 c -20.524535,42.64391 -0.39737,61.60954 28.042384,63.26788 62.820146,3.66306 42.197576,-83.817297 10.092588,-82.973712 -2.843193,0.07471 -5.391416,2.401658 -8.739066,6.572798"
       id="path3"
       sodipodi:nodetypes="cssssc"
       inkscape:label="u" /><path
       style="fill:#445016;fill-opacity:1;stroke:none;stroke-width:1.2858;stroke-linecap:round;stroke-linejoin:round;stroke-dasharray:none;paint-order:markers stroke fill"
       d="M 58.804091,124.9896 C 100.11671,91.499835 6.8280316,64.209106 3.1973889,133.839 c -0.9440082,18.10457 15.9410491,36.21623 43.5867181,39.19498 42.75139,4.60637 39.688947,-48.22274 9.094067,-48.03493 -37.736751,0.23164 -31.680236,26.87033 -31.680236,26.87033"
       id="path2-4"
       sodipodi:nodetypes="csssc"
       inkscape:label="c color" /><path
       style="display:inline;fill:none;stroke:#000000;stroke-width:1.31038;stroke-linecap:round;stroke-linejoin:round;stroke-dasharray:none;paint-order:markers stroke fill"
       d="M 58.804091,124.9896 C 100.11671,91.499835 6.8280316,64.209106 3.1973889,133.839 c -0.9440082,18.10457 15.9410491,36.21623 43.5867181,39.19498 42.75139,4.60637 39.688947,-48.22274 9.094067,-48.03493 -37.736751,0.23164 -31.680236,26.87033 -31.680236,26.87033"
       id="path2-8-9"
       sodipodi:nodetypes="csssc"
       inkscape:label="c" /><g
       inkscape:groupmode="layer"
       id="layer5"
       inkscape:label="cupo 1" /></g><g
     inkscape:groupmode="layer"
     id="layer4"
     inkscape:label="cupo 2"
     style="display:inline"><path
       style="fill:none;fill-opacity:1;stroke:#910707;stroke-width:2.52803;stroke-linecap:round;stroke-linejoin:round;stroke-dasharray:none;stroke-opacity:1;paint-order:markers stroke fill"
       d="m 55.758714,40.277492 c 0,0 21.4415,-17.042991 -1.681686,-28.058583 -42.922639,-20.4478016 -72.671879,54.74019 -24.409954,70.120348 l 32.040301,0.138077 c 0,0 29.576962,-38.043016 -11.624351,-42.615526 0,0 -29.849932,-2.078414 -26.066137,24.525283"
       id="path12"
       sodipodi:nodetypes="cscccc" /><path
       style="fill:none;fill-opacity:1;stroke:#910707;stroke-width:2.52722;stroke-linecap:round;stroke-linejoin:round;stroke-dasharray:none;stroke-opacity:1;paint-order:markers stroke fill"
       d="M 80.191735,56.735781 C 100.11574,53.566013 94.932366,-9.2823896 69.802758,14.216786 55.784207,27.325802 37.773504,68.728607 62.767001,82.529983 l 44.753639,0.02876 c 0,0 33.37733,-29.16169 4.2269,-63.352915 C 106.062,12.537131 96.550984,3.9345948 88.014354,13.836545"
       id="path13"
       sodipodi:nodetypes="csccsc" /><path
       style="fill:none;fill-opacity:1;stroke:#910707;stroke-width:2.54239;stroke-linecap:round;stroke-linejoin:round;stroke-dasharray:none;stroke-opacity:1;paint-order:markers stroke fill"
       d="m 129.55383,56.004206 c 16.05328,4.75653 57.95686,-13.353069 24.37721,-35.079384 C 134.44019,8.3140903 106.42199,2.8149761 101.17996,16.635681 95.937966,30.456273 90.253556,61.025184 108.81891,82.704913 l 37.49915,0.210205 c 0,0 5.52924,-19.111553 -16.76423,-26.910912 z"
       id="path14"
       sodipodi:nodetypes="cssccc" /><path
       style="fill:none;fill-opacity:1;stroke:#910707;stroke-width:2.5272;stroke-linecap:round;stroke-linejoin:round;stroke-dasharray:none;stroke-opacity:1;paint-order:markers stroke fill"
       d="M 187.23947,83.160119 142.76185,82.726882 C 103.49939,-56.142736 258.62092,35.758215 187.23947,83.160119 Z"
       id="path15"
       sodipodi:nodetypes="ccc" /></g></svg>
