<?xml version="1.0" encoding="UTF-8" standalone="no"?>
<!-- Created with Inkscape (http://www.inkscape.org/) -->

<svg
   width="210mm"
   height="297mm"
   viewBox="0 0 210 297"
   version="1.1"
   id="svg1"
   xml:space="preserve"
   inkscape:version="1.4 (86a8ad7, 2024-10-11)"
   sodipodi:docname="Cupo Green red.svg"
   xmlns:inkscape="http://www.inkscape.org/namespaces/inkscape"
   xmlns:sodipodi="http://sodipodi.sourceforge.net/DTD/sodipodi-0.dtd"
   xmlns="http://www.w3.org/2000/svg"
   xmlns:svg="http://www.w3.org/2000/svg"><sodipodi:namedview
     id="namedview1"
     pagecolor="#ffffff"
     bordercolor="#000000"
     borderopacity="0.25"
     inkscape:showpageshadow="2"
     inkscape:pageopacity="0.0"
     inkscape:pagecheckerboard="0"
     inkscape:deskcolor="#d1d1d1"
     inkscape:document-units="mm"
     showguides="true"
     inkscape:lockguides="true"
     inkscape:zoom="0.24632085"
     inkscape:cx="479.05"
     inkscape:cy="578.51377"
     inkscape:window-width="1147"
     inkscape:window-height="755"
     inkscape:window-x="197"
     inkscape:window-y="0"
     inkscape:window-maximized="0"
     inkscape:current-layer="layer3"><sodipodi:guide
       position="38.669077,297.00001"
       orientation="0,-1"
       id="guide1"
       inkscape:locked="true" /><sodipodi:guide
       position="25.242314,247.05245"
       orientation="0,-1"
       id="guide2"
       inkscape:locked="true" /><sodipodi:guide
       position="25.064569,281.23971"
       orientation="1,0"
       id="guide3"
       inkscape:locked="true" /><sodipodi:guide
       position="38.356387,266.80859"
       orientation="1,0"
       id="guide4"
       inkscape:locked="true" /></sodipodi:namedview><defs
     id="defs1" /><g
     inkscape:label="Layer 1"
     inkscape:groupmode="layer"
     id="layer1"
     style="display:inline"
     sodipodi:insensitive="true"><rect
       style="fill:#333333;stroke-width:0.2;stroke-linecap:round;stroke-linejoin:round;paint-order:markers stroke fill"
       id="rect1"
       width="831.38513"
       height="809.90234"
       x="-146.62025"
       y="-169.98283" /></g><g
     inkscape:groupmode="layer"
     id="layer7"
     inkscape:label="Cupo"><g
       inkscape:groupmode="layer"
       id="layer6"
       inkscape:label="C"
       transform="matrix(1,0,0,0.99519407,0.52916667,0.23802318)"><path
         style="display:inline;fill:#550000;fill-opacity:1;stroke:none;stroke-width:0.773362;stroke-linecap:round;stroke-linejoin:round;stroke-opacity:1;paint-order:markers stroke fill"
         d="m 62.725171,158.63746 c 0,0 -12.262534,-12.54771 -6.273854,-39.35418 5.988678,-26.806469 24.418127,-15.50639 24.418127,-15.50639 l 0.204972,55.80226 c 0.02193,5.97268 -2.651856,19.56726 -6.386046,29.52049 -2.988986,7.96696 -6.196287,13.75534 -12.666059,10.28837 -8.433858,-4.51948 -14.582869,-13.75513 -17.488059,-25.50133 -3.325865,-13.44707 -3.89544,-30.47094 -3.692814,-47.1893 0.470901,-38.853713 9.172211,-77.318532 30.438988,-74.430268 4.012837,0.544987 5.794675,3.146563 7.239724,6.204251 2.96008,6.263458 2.456231,14.898714 2.456231,14.898714 l -0.447855,24.812612 c 0,0 -21.617481,29.828841 -16.479115,0.09851"
         id="path4-5"
         sodipodi:nodetypes="csssscscssccc"
         inkscape:label="C fill" /><path
         style="fill:#677821;fill-opacity:1;stroke:none;stroke-width:2.7133;stroke-linecap:round;stroke-linejoin:round;stroke-dasharray:none;stroke-opacity:1;paint-order:markers stroke fill"
         d="m 47.16081,181.21641 c 0,0 5.133157,0.14327 8.127499,-3.29536 2.994339,-3.43862 1.711048,-10.17261 7.557137,-6.73398 5.846091,3.43863 4.135045,5.73105 7.842318,6.0176 3.70728,0.28656 5.846099,3.0088 5.703507,5.58777 -0.142584,2.57898 -4.135041,11.03227 -4.135041,11.03227 l -4.277628,5.30122 -4.135041,1.43276 -6.131263,-2.72224 -6.416443,-6.734 -3.849866,-7.88019 z"
         id="path8"
         inkscape:label="C wave " /><path
         style="display:inline;fill:none;stroke:#677821;stroke-width:2.70677;stroke-linecap:round;stroke-linejoin:round;stroke-dasharray:none;stroke-opacity:1;paint-order:markers stroke fill"
         d="m 61.135717,158.63746 c 0,0 -12.262533,-12.54771 -6.273854,-39.35418 m 6.273854,39.35418 c 0,0 -12.262533,-12.54771 -6.273854,-39.35418 1.268558,-5.6783 2.288738,-8.63851 4.380323,-11.36671 m 20.037802,-4.13968 0.204972,55.80226 c 0.0395,10.75344 -4.499545,47.60718 -19.052105,39.80886 -18.088952,-9.6934 -20.419793,-41.08199 -20.040172,-72.40408 0.470902,-38.853712 8.03151,-77.605082 29.298289,-74.716818 12.232851,1.661357 9.695953,21.102965 9.695953,21.102965 l -0.447853,24.812612 c 0,0 -13.954808,26.804101 -26.359932,-0.0028 m 26.359932,0.0028 0.447853,-24.812612 c 0,0 2.536898,-19.441608 -9.695953,-21.102965 -21.266779,-2.888264 -28.827387,35.863106 -29.298289,74.716818 -0.379621,31.32209 1.95122,62.71068 20.040172,72.40408 14.55256,7.79832 19.091603,-29.05542 19.052105,-39.80886 l -0.204972,-55.80226 c 0,0 -2.318366,-1.42588 -2.995657,-1.31894"
         id="path4"
         sodipodi:nodetypes="cccsccscccsccssssccc"
         inkscape:label="C" /></g><g
       inkscape:groupmode="layer"
       id="layer5"
       inkscape:label="U"
       transform="matrix(1,0,0,0.99356675,0,0.31910324)"><path
         style="fill:#550000;fill-opacity:1;stroke:none;stroke-width:0.763853;stroke-linecap:round;stroke-linejoin:round;stroke-opacity:1;paint-order:markers stroke fill"
         d="m 93.312128,171.95025 c 0,0 6.784002,-115.183063 3.64609,-118.280072 -3.946289,-3.894863 -14.88344,0.441173 -14.347837,0.441173 0,0 -22.103835,143.212369 8.546858,146.753339 30.650711,3.54096 23.725441,-130.387263 23.399721,-145.431484 0,0 -9.1616,-7.167376 -17.003932,0.33389"
         id="path5"
         sodipodi:nodetypes="cscscc"
         inkscape:label="U  fill" /><path
         style="fill:#677821;fill-opacity:1;stroke:none;stroke-width:2.71552;stroke-linecap:round;stroke-linejoin:round;stroke-dasharray:none;stroke-opacity:1;paint-order:markers stroke fill"
         d="m 78.400927,180.46552 c 0,0 2.621446,5.88571 7.259382,6.08865 4.63794,0.20297 5.04122,-2.84136 7.05773,-5.27682 2.016489,-2.43546 4.839579,-1.8266 5.847819,1.62364 1.00826,3.45024 3.629702,2.63841 5.041242,1.21773 1.41155,-1.42068 6.02921,-9.67469 6.02921,-9.67469 0.21624,0 -7.00056,20.63426 -8.65066,21.44607 -0.81019,0.3986 -2.218132,3.65318 -3.629682,4.26206 -1.41155,0.60886 -8.670929,0.40591 -8.670929,0.40591 l -5.646174,-4.87092 -3.831338,-5.68274 z"
         id="path9"
         sodipodi:nodetypes="csssscsscccc"
         inkscape:label="U wave " /><path
         style="fill:none;stroke:#677821;stroke-width:2.68953;stroke-linecap:round;stroke-linejoin:round;stroke-dasharray:none;stroke-opacity:1;paint-order:markers stroke fill"
         d="m 93.312128,171.95025 c 0,0 6.784002,-115.183063 3.64609,-118.280072 -3.946289,-3.894863 -14.88344,0.441173 -14.347837,0.441173 0,0 -22.103835,143.212369 8.546858,146.753339 30.650711,3.54096 23.725441,-130.387263 23.399721,-145.431484 0,0 -9.1616,-7.167376 -17.003932,0.33389"
         id="path5-1"
         sodipodi:nodetypes="cscscc"
         inkscape:label="U fill" /></g><g
       inkscape:groupmode="layer"
       id="layer3"
       inkscape:label="O"
       transform="matrix(1,0,0,0.99223274,0.15730431,0.10254224)"><path
         style="fill:#677821;fill-opacity:1;stroke:none;stroke-width:2.71735;stroke-linecap:round;stroke-linejoin:round;stroke-dasharray:none;stroke-opacity:1;paint-order:markers stroke fill"
         d="m 143.77966,183.77162 c 0,0 3.83134,4.26778 5.84783,3.45486 2.01649,-0.81291 2.01649,-6.30007 6.04949,-7.51943 4.03298,-1.21937 6.04947,5.69039 6.04947,6.90975 0,1.21937 -4.033,12.3969 -4.033,12.3969 l -5.64617,2.43874 -6.04948,-1.82905 -4.23463,-4.87747 -1.00824,-2.43874 z"
         id="path11"
         inkscape:label="O Wave" /><path
         style="display:inline;fill:#550000;fill-opacity:1;stroke:none;stroke-width:1.93341;stroke-linecap:round;stroke-linejoin:round;stroke-dasharray:none;stroke-opacity:1;paint-order:markers stroke fill"
         d="m 159.32004,196.09261 c 0,0 -7.41455,12.26137 -17.39569,-0.5703 -9.98113,-12.83165 -21.10295,-63.01768 -10.55147,-104.078996 10.55147,-41.061292 16.54075,-38.717366 25.60473,-39.148775 4.56513,-0.217284 9.97769,6.751763 10.32339,17.905967 0.96618,31.175774 3.8414,93.253564 -7.98096,125.892104 z"
         id="path12"
         sodipodi:nodetypes="cssssc"
         inkscape:label="O fill" /><path
         style="fill:#677821;fill-opacity:1;stroke:none;stroke-width:2.71735;stroke-linecap:round;stroke-linejoin:round;stroke-dasharray:none;stroke-opacity:1;paint-order:markers stroke fill"
         d="m 143.77966,183.77162 c 0,0 3.83134,4.26778 5.84783,3.45486 2.01649,-0.81291 2.01649,-6.30007 6.04949,-7.51943 4.03298,-1.21937 6.04947,5.69039 6.04947,6.90975 0,1.21937 -4.033,12.3969 -4.033,12.3969 l -5.64617,2.43874 -6.04948,-1.82905 -4.23463,-4.87747 -1.00824,-2.43874 z"
         id="path13"
         inkscape:label="O wave " /><path
         style="display:inline;fill:#677821;fill-opacity:1;stroke:none;stroke-width:1.65158;stroke-linecap:round;stroke-linejoin:round;stroke-dasharray:none;stroke-opacity:1;paint-order:markers stroke fill"
         d="m 154.15004,149.73932 0.27376,-52.113929 c -1.46153,-1.336712 -4.65545,-0.20626 -4.65545,-0.20626 l -0.65252,52.268179 c -0.29676,2.7875 4.74396,3.17945 5.03421,0.0519 z"
         id="path7"
         sodipodi:nodetypes="cccccc"
         inkscape:label="o  circle" /><path
         style="display:inline;fill:none;fill-opacity:1;stroke:#677821;stroke-width:2.70677;stroke-linecap:round;stroke-linejoin:round;stroke-dasharray:none;stroke-opacity:1;paint-order:markers stroke fill"
         d="m 159.32004,196.09261 c 0,0 -7.41455,12.26137 -17.39569,-0.5703 -9.98113,-12.83165 -21.10295,-63.01768 -10.55147,-104.078996 10.55147,-41.061292 16.54075,-38.717366 25.60473,-39.148775 4.56513,-0.217284 9.97769,6.751763 10.32339,17.905967 0.96618,31.175774 3.8414,93.253564 -7.98096,125.892104 z"
         id="path14"
         sodipodi:nodetypes="cssssc"
         inkscape:label="O outline " /></g><g
       inkscape:groupmode="layer"
       id="layer4"
       inkscape:label="P"
       transform="matrix(1,0,0,0.98434919,0,0.47280682)"><path
         style="display:inline;fill:#550000;fill-opacity:1;stroke:none;stroke-width:0.778537;stroke-linecap:round;stroke-linejoin:round;stroke-opacity:1;paint-order:markers stroke fill"
         d="m 126.46935,109.70064 18.35536,51.58594 c 3.64778,10.25175 -3.92921,48.24646 -18.48177,40.34341 -18.08894,-9.82356 -20.41978,-41.63365 -20.04017,-73.37634 0.47091,-39.375472 8.03151,-78.647214 29.29829,-75.720165 4.51255,0.621081 6.62314,3.730362 7.98476,7.361886 2.32953,6.213021 1.7112,14.02446 1.7112,14.02446 l -1.8594,25.145804 c 1.24934,0.692295 -11.72028,27.620095 -24.94839,-0.0028"
         id="path4-8"
         sodipodi:nodetypes="csccssccc"
         inkscape:label="P fill" /><path
         style="display:inline;fill:none;stroke:#677821;stroke-width:2.70677;stroke-linecap:round;stroke-linejoin:round;stroke-dasharray:none;stroke-opacity:1;paint-order:markers stroke fill"
         d="m 126.79017,110.13413 18.03454,51.15245 c 3.61819,10.26252 -3.92921,48.24646 -18.48177,40.34341 -18.08894,-9.82356 -20.41978,-41.63365 -20.04017,-73.37634 0.47091,-39.375472 8.07828,-78.978712 29.29829,-75.720165 14.56012,2.23585 7.78892,46.759444 7.05118,50.099345 -1.67378,7.57743 -14.73502,17.07711 -24.16301,-3.569594"
         id="path4-8-7"
         sodipodi:nodetypes="csccssc"
         inkscape:label="P outline " /><path
         style="display:inline;fill:#677821;fill-opacity:1;stroke:none;stroke-width:2.72821;stroke-linecap:round;stroke-linejoin:round;stroke-dasharray:none;stroke-opacity:1;paint-order:markers stroke fill"
         d="m 109.57899,175.41657 c 10.56613,16.84006 13.67485,15.42672 17.82273,13.5478 3.62774,-1.6433 4.63793,-6.35052 7.86432,-5.94081 3.22639,0.40972 8.73837,0.70973 9.54498,3.78255 0.80661,3.07283 -5.512,8.30392 -5.512,8.30392 -2.11007,2.3238 -3.71495,4.79423 -7.05772,6.76024 l -5.84783,0.20485 -9.07422,-9.01363 z"
         id="path17"
         sodipodi:nodetypes="csssccccc"
         inkscape:label="wave " /></g></g></svg>
