<?xml version="1.0" encoding="UTF-8" standalone="no"?>
<!-- Created with Inkscape (http://www.inkscape.org/) -->

<svg
   width="210mm"
   height="297mm"
   viewBox="0 0 210 297"
   version="1.1"
   id="svg1"
   inkscape:version="1.4 (86a8ad7, 2024-10-11)"
   sodipodi:docname="Cupo Drip and Cupo Warped.svg"
   xmlns:inkscape="http://www.inkscape.org/namespaces/inkscape"
   xmlns:sodipodi="http://sodipodi.sourceforge.net/DTD/sodipodi-0.dtd"
   xmlns="http://www.w3.org/2000/svg"
   xmlns:svg="http://www.w3.org/2000/svg">
  <sodipodi:namedview
     id="namedview1"
     pagecolor="#ffffff"
     bordercolor="#000000"
     borderopacity="0.25"
     inkscape:showpageshadow="2"
     inkscape:pageopacity="0.0"
     inkscape:pagecheckerboard="0"
     inkscape:deskcolor="#d1d1d1"
     inkscape:document-units="mm"
     showguides="true"
     inkscape:lockguides="true"
     inkscape:zoom="0.25"
     inkscape:cx="368"
     inkscape:cy="586"
     inkscape:window-width="1147"
     inkscape:window-height="755"
     inkscape:window-x="197"
     inkscape:window-y="0"
     inkscape:window-maximized="0"
     inkscape:current-layer="layer5">
    <sodipodi:guide
       position="18.608544,296.62023"
       orientation="0,-1"
       id="guide1"
       inkscape:locked="true" />
    <sodipodi:guide
       position="74.434177,247.63039"
       orientation="0,-1"
       id="guide2"
       inkscape:locked="true" />
    <sodipodi:guide
       position="60.3533,197.30628"
       orientation="0,-1"
       id="guide6"
       inkscape:locked="true" />
    <sodipodi:guide
       position="35.983724,147.15733"
       orientation="0,-1"
       id="guide7"
       inkscape:locked="true" />
    <sodipodi:guide
       position="59.243527,138.25773"
       orientation="0,-1"
       id="guide41"
       inkscape:locked="true" />
  </sodipodi:namedview>
  <defs
     id="defs1" />
  <g
     inkscape:label="Layer 1"
     inkscape:groupmode="layer"
     id="layer1"
     sodipodi:insensitive="true">
    <rect
       style="fill:#333333;stroke-width:0.512001;stroke-linecap:round;stroke-linejoin:round;paint-order:markers stroke fill"
       id="rect1"
       width="3828.0432"
       height="2965.2146"
       x="-1324.6245"
       y="-814.21875" />
  </g>
  <g
     inkscape:groupmode="layer"
     id="layer5"
     inkscape:label="Cupo1 "
     style="display:inline;opacity:1"
     transform="matrix(1.689763,0,0,1.6482717,-39.17119,-81.299525)">
    <g
       inkscape:groupmode="layer"
       id="layer10"
       inkscape:label="O"
       transform="translate(-20.887141,48.42019)"
       style="display:inline">
      <path
         style="fill:#784321;fill-opacity:1;stroke:none;stroke-width:0.765183;stroke-linecap:round;stroke-linejoin:round;stroke-dasharray:none;stroke-opacity:1;paint-order:markers stroke fill"
         d="m 124.00144,60.028578 c 2.02955,-7.202961 4.25503,-21.195515 7.59945,-33.398101 2.91954,-10.652363 7.46168,-19.6995835 10.84947,-22.4663555 0.67308,-0.5496984 1.04751,-0.8682749 1.62797,-0.9462981 4.43904,-0.5966829 7.20978,6.8937686 9.9852,17.3499876 2.83806,10.692272 5.44402,24.251938 7.24407,35.516693 0.50669,3.170921 0.77366,6.166767 0.63752,8.875847 -0.67655,0.447109 -1.54315,-0.137463 -2.45354,-0.137896 -2.26865,-0.0011 -5.15965,0.154894 -8.24309,0.08301 -7.24984,-0.169012 -15.74681,0.55213 -21.10299,-0.240911 -3.8124,-0.564467 -7.35182,-0.349633 -6.14406,-4.635982 z"
         id="path18-7"
         inkscape:label="O fill"
         sodipodi:nodetypes="sssssscsssss" />
      <path
         style="opacity:1;fill:none;stroke:#000000;stroke-width:0.765183;stroke-linecap:round;stroke-linejoin:round;stroke-dasharray:none;stroke-opacity:1;paint-order:markers stroke fill"
         d="m 144.07833,3.2178234 c 5.98353,-3.8932902 13.80097,27.8032656 18.09773,57.5470346 0.0461,0.318441 0.1359,4.04746 -0.19737,4.072565 -6.72185,0.50637 -40.15587,1.81327 -38.41294,-3.578561 4.08124,-12.625571 6.47589,-43.688884 17.658,-55.5840174 0.88886,-0.9455382 1.82669,-1.7882067 2.85458,-2.4570212 z"
         id="path33"
         inkscape:label="O"
         sodipodi:nodetypes="ssssss" />
    </g>
    <g
       inkscape:groupmode="layer"
       id="layer9"
       inkscape:label="P"
       transform="translate(4.4268793,-0.20856994)">
      <path
         style="fill:#784321;fill-opacity:1;stroke:none;stroke-width:0.755038;stroke-linecap:round;stroke-linejoin:round;stroke-dasharray:none;stroke-opacity:1;paint-order:markers stroke fill"
         d="m 81.714871,113.13261 c 0.02503,0.008 -1.601506,-1.90664 -2.481138,-5.07808 -1.350068,-4.86757 -1.912571,-12.696894 0.366291,-21.086086 3.574931,-13.16042 8.060852,-27.662018 14.323752,-34.162599 2.555338,-2.652313 7.122204,-2.525362 10.533424,0.599218 1.13448,1.039154 2.7403,2.2614 3.44596,4.198138 0.95636,2.624796 2.02808,6.385014 1.83498,10.437417 -0.0584,1.226068 0.16615,3.772944 -0.13909,4.440731 -1.4646,3.204192 -1.29947,3.114752 -1.3916,4.454966 -0.17513,2.547531 -0.14158,4.755035 -1.46972,6.583032 -0.69319,0.954073 -0.66608,2.140267 -1.27838,2.919485 -0.5987,0.761916 0.91448,2.013062 1.54965,2.930646 0.50959,0.736183 0.97262,1.964532 1.64522,2.664354 2.25639,2.347719 4.69597,4.853422 5.08284,7.211892 0.25907,1.579386 1.3661,3.058946 1.9068,4.777246 0.77232,2.45434 -0.36581,5.32398 -0.69791,6.77906 -0.70071,3.07018 -4.70733,2.79306 -7.50029,2.5174 -1.79207,-0.17687 -3.76268,-0.0462 -5.67903,0.12121 -1.817032,0.1587 -3.664812,0.46811 -5.515321,0.33284 -1.01271,-0.074 -2.145722,-0.27261 -3.155469,-0.12921 -5.448776,0.77378 -11.226837,-0.25391 -11.380969,-0.51167 z"
         id="path17-1"
         inkscape:label="P fill"
         sodipodi:nodetypes="cssssssssssssssssssscc" />
      <path
         style="opacity:1;fill:none;fill-opacity:1;stroke:#000000;stroke-width:0.765185;stroke-linecap:round;stroke-linejoin:round;stroke-dasharray:none;stroke-opacity:1;paint-order:markers stroke fill"
         d="M 92.62927,76.30175 C 95.875975,124.96866 126.28368,52.757811 98.089128,51.192344 85.711994,50.50512 70.710882,109.46155 82.99744,114.13673 l 29.95887,-0.6856 c 0,0 9.99028,-7.54897 -7.4146,-25.604042"
         id="path32"
         sodipodi:nodetypes="csccc"
         inkscape:label="P" />
    </g>
    <g
       inkscape:groupmode="layer"
       id="layer8"
       inkscape:label="U"
       transform="translate(25.025443,-0.0083018)"
       style="display:inline">
      <path
         style="display:inline;fill:#784321;fill-opacity:1;stroke:none;stroke-width:0.765183;stroke-linecap:round;stroke-linejoin:round;stroke-dasharray:none;stroke-opacity:1;paint-order:markers stroke fill"
         d="m 50.698457,88.856544 c -0.302877,0.929138 -0.628822,1.860454 -0.978869,2.791934 0,0 -0.875648,-40.307611 5.038634,-40.307611 1.20311,0 3.880792,11.074715 6.714424,23.893482 3.818575,17.27445 7.676602,37.716091 6.287624,38.490691 -1.646123,0.918 -42.23374,-0.86785 -42.23374,-0.49668 -2.744013,-0.87714 7.490302,-39.57536 20.647526,-58.240511 1.31828,-1.870144 2.691233,-4.190474 3.786146,-3.709401 4.062739,1.785048 6.558927,19.26552 0.738255,37.578096"
         id="path16-5-9"
         sodipodi:nodetypes="ccssscssc"
         inkscape:label="U fill" />
      <path
         style="opacity:1;fill:none;stroke:#000000;stroke-width:0.765183;stroke-linecap:round;stroke-linejoin:round;stroke-dasharray:none;stroke-opacity:1;paint-order:markers stroke fill"
         d="m 51.071424,85.227258 c -1.205893,-27.946049 2.902665,-41.5977 5.659471,-30.092822 3.057767,12.760865 13.199038,58.144574 10.985008,58.466874 -2.098366,0.30546 -42.16038,-0.61014 -42.16038,-0.23897 -1.843156,-0.43007 6.976847,-39.020651 20.618533,-58.374491 3.802907,-5.395291 4.927875,-5.46533 6.053376,1.142671"
         id="path31"
         sodipodi:nodetypes="csscsc"
         inkscape:label="U " />
    </g>
    <g
       inkscape:groupmode="layer"
       id="layer7"
       inkscape:label="C"
       style="display:inline">
      <path
         style="opacity:1;fill:#784321;fill-opacity:1;stroke:none;stroke-width:0.576475;stroke-linecap:round;stroke-linejoin:round;stroke-dasharray:none;stroke-opacity:1;paint-order:markers stroke fill"
         d="m 61.199521,82.582474 c -2.808043,0 -0.08538,-31.830452 -11.221436,-31.218958 -10.882282,0.597557 -27.918327,62.455424 -23.79083,62.231444 11.691097,-0.63441 40.059495,0.24743 41.538221,-0.008 1.980257,-0.34245 0.317797,-5.39164 -2.977296,-20.147264 C 57.842681,62.516453 41.72985,86.34256 49.306717,99.691935"
         id="path15"
         sodipodi:nodetypes="cssssc"
         inkscape:label="C fill" />
      <path
         style="fill:none;stroke:#000000;stroke-width:0.765185;stroke-linecap:round;stroke-linejoin:round;stroke-dasharray:none;stroke-opacity:1;paint-order:markers stroke fill"
         d="M 60.691702,82.253886 C 59.019505,79.535566 59.71203,50.861738 49.978085,51.363516 40.217033,51.86669 21.16044,113.85762 26.356235,113.76394 c 11.706394,-0.21106 39.890515,0.0785 41.369241,-0.17727 1.980257,-0.34245 0.317797,-5.39164 -2.977296,-20.147265 -6.905499,-30.923243 -23.01833,-7.097137 -15.441463,6.252239"
         id="path15-2"
         sodipodi:nodetypes="cssssc"
         inkscape:label="C" />
    </g>
  </g>
  <g
     inkscape:groupmode="layer"
     id="layer14"
     inkscape:label="Cupo2">
    <g
       inkscape:groupmode="layer"
       id="layer18"
       inkscape:label="O"
       style="display:inline"
       transform="translate(-4.490128,-0.37417734)">
      <path
         style="display:inline;opacity:1;fill:none;fill-opacity:1;stroke:#000000;stroke-width:1.44279;stroke-linecap:round;stroke-linejoin:round;stroke-dasharray:none;stroke-opacity:1;paint-order:markers stroke fill"
         d="m 145.27873,219.7105 c -3.16217,-4.03091 -5.49317,-8.75904 -7.1499,-13.95112 -2.01928,-6.32827 -2.20584,-14.71751 5.14854,-22.93528 14.68644,-16.41056 44.0593,-18.80377 54.19993,-6.15396 8.58814,10.71316 16.67466,39.57234 7.47946,50.64984"
         id="path51"
         sodipodi:nodetypes="csssc"
         inkscape:label="O stroke " />
      <path
         style="display:inline;fill:#d45500;fill-opacity:1;stroke:none;stroke-width:0.524772;stroke-linecap:round;stroke-linejoin:round;stroke-dasharray:none;stroke-opacity:1;paint-order:markers stroke fill"
         d="m 138.12883,205.75938 c -2.01928,-6.32827 -2.20584,-14.71751 5.14854,-22.93528 14.68644,-16.41056 44.0593,-18.80378 54.19993,-6.15396 10.14064,12.64982 19.58191,50.59925 0.69936,54.70189 -36.68864,7.97142 -53.55162,-5.25405 -60.04783,-25.61265 z"
         id="path51-6"
         sodipodi:nodetypes="sssss"
         inkscape:label="O color " />
      <path
         style="display:inline;opacity:1;fill:none;fill-opacity:1;stroke:#000000;stroke-width:1.45298;stroke-linecap:round;stroke-linejoin:round;stroke-dasharray:none;stroke-opacity:1;paint-order:markers stroke fill"
         d="m 143.80891,219.29473 c 0.0368,0.0453 -0.19848,-0.1301 0.6904,0.91005 2.10543,2.46364 5.63031,6.97533 5.50566,9.43328 -0.11707,2.30643 -0.77392,4.0804 -0.34261,5.67314 2.2054,5.99116 4.29636,-0.15435 6.54859,-2.00154 2.83701,-1.74838 3.72358,5.24514 2.30509,8.04258 -1.41852,2.79741 3.90089,5.07032 6.91521,3.84644 1.9464,-0.79027 2.1924,-4.132 1.69275,-6.87136 -1.70135,-9.32795 4.95891,1.67347 5.22248,3.02492 0.88657,4.5458 8.68839,5.94451 8.33375,4.02127 -0.35463,-1.92321 -5.85135,-7.51804 -2.65971,-8.39224 3.19164,-0.87419 7.62449,0.52452 6.91522,4.37097 -0.70925,3.84644 3.54629,6.8187 6.73791,4.02127 3.19167,-2.79741 0.70929,-8.56708 3.90091,-9.61612 3.19166,-1.04901 5.67405,1.57355 7.80182,-1.57353 2.12776,-3.1471 2.13359,-6.65932 2.13359,-6.65932"
         id="path53"
         sodipodi:nodetypes="cssssssssssssssc"
         inkscape:label="O drip outline " />
      <path
         style="display:inline;opacity:1;fill:#d45500;fill-opacity:1;stroke:none;stroke-width:1.45298;stroke-linecap:round;stroke-linejoin:round;stroke-dasharray:none;stroke-opacity:1;paint-order:markers stroke fill"
         d="m 143.6261,217.81519 c 0,0 6.55618,8.32609 6.37887,11.82287 -0.11707,2.30643 -0.77392,4.0804 -0.34261,5.67314 2.2054,5.99116 4.29636,-0.15435 6.54859,-2.00154 2.83701,-1.74838 3.72358,5.24514 2.30509,8.04258 -1.41852,2.79741 3.90089,5.07032 6.91521,3.84644 1.9464,-0.79027 2.1924,-4.132 1.69275,-6.87136 -1.70135,-9.32795 4.95891,1.67347 5.22248,3.02492 0.88657,4.5458 8.68839,5.94451 8.33375,4.02127 -0.35463,-1.92321 -5.85135,-7.51804 -2.65971,-8.39224 3.19164,-0.87419 7.62449,0.52452 6.91522,4.37097 -0.70925,3.84644 3.54629,6.8187 6.73791,4.02127 3.19167,-2.79741 0.70929,-8.56708 3.90091,-9.61612 3.19166,-1.04901 5.67405,1.57355 7.80182,-1.57353 2.12776,-3.1471 1.99036,-7.93749 1.99036,-7.93749"
         id="path54"
         sodipodi:nodetypes="csssssssssssssc"
         inkscape:label="O drip color " />
      <path
         style="opacity:1;fill:#000000;fill-opacity:1;stroke:#000000;stroke-width:0.901096;stroke-linecap:round;stroke-linejoin:round;stroke-dasharray:none;stroke-opacity:1;paint-order:markers stroke fill"
         d="m 181.50831,180.90304 v 44.8261"
         id="path66" />
    </g>
    <g
       inkscape:groupmode="layer"
       id="layer17"
       inkscape:label="P"
       transform="translate(-1.329182)">
      <path
         style="opacity:1;fill:#d45500;fill-opacity:1;stroke:#000000;stroke-width:1.44279;stroke-linecap:round;stroke-linejoin:round;stroke-dasharray:none;stroke-opacity:1;paint-order:markers stroke fill"
         d="m 145.30036,196.24591 c 0,0 -9.39584,23.4896 6.67598,21.51154 16.07183,-1.97808 21.51153,-8.40681 22.50056,-20.52249 0.98905,-12.1157 -9.39584,-29.91836 -29.91833,-28.18755 -20.52249,1.73081 -29.44726,11.52853 -29.91833,22.25332 -0.50448,11.48529 -3.82272,29.52731 1.96549,38.30918 m 34.80096,3.52998 c 0.25531,-2.04184 -1.94169,-6.60894 -6.3536,-16.37148"
         id="path48"
         sodipodi:nodetypes="cssssccc"
         inkscape:label="P outline " />
      <path
         style="fill:#d45500;fill-opacity:1;stroke:#000000;stroke-width:0.531283;stroke-linecap:round;stroke-linejoin:round;stroke-dasharray:none;stroke-opacity:1;paint-order:markers stroke fill"
         d="m 151.29638,233.21112 c 0.12357,1.42173 -4.47453,2.04929 -3.77519,3.27315 0.69936,1.22387 4.19614,0.69936 5.42,4.54581 1.22386,3.84643 -6.11934,3.84643 -9.26644,2.97225 -3.14708,-0.87419 -2.09807,-5.94451 -6.29418,-8.04257 -4.19612,-2.09806 -2.62257,2.44773 -1.57355,6.81869 1.04903,4.37096 -5.41998,3.49678 -8.39224,1.74839 -2.97225,-1.74839 -3.67161,-3.49676 -6.99355,-1.74839 -3.32192,1.74839 -4.54579,1.92323 -6.46902,0.87419 -1.92322,-1.04901 -2.97226,-2.2729 -0.17484,-6.46901 2.79742,-4.19612 2.79742,-7.34322 2.79742,-7.34322 z"
         id="path50"
         inkscape:label="P drip color " />
      <path
         style="fill:none;fill-opacity:1;stroke:#000000;stroke-width:0.531283;stroke-linecap:round;stroke-linejoin:round;stroke-dasharray:none;stroke-opacity:1;paint-order:markers stroke fill"
         d="m 151.29638,233.21112 c 0.12357,1.42173 -4.47453,2.04929 -3.77519,3.27315 0.69936,1.22387 4.19614,0.69936 5.42,4.54581 1.22386,3.84643 -6.11934,3.84643 -9.26644,2.97225 -3.14708,-0.87419 -2.09807,-5.94451 -6.29418,-8.04257 -4.19612,-2.09806 -2.62257,2.44773 -1.57355,6.81869 1.04903,4.37096 -5.41998,3.49678 -8.39224,1.74839 -2.97225,-1.74839 -3.67161,-3.49676 -6.99355,-1.74839 -3.32192,1.74839 -4.54579,1.92323 -6.46902,0.87419 -1.92322,-1.04901 -2.97226,-2.2729 -0.17484,-6.46901 2.79742,-4.19612 2.80835,-7.26674 2.80835,-7.26674 z"
         id="path50-4"
         inkscape:label="P drip outline "
         sodipodi:nodetypes="cssssssssscc" />
      <path
         style="opacity:1;fill:#d45500;fill-opacity:1;stroke:none;stroke-width:0.531283;stroke-linecap:round;stroke-linejoin:round;stroke-dasharray:none;stroke-opacity:1;paint-order:markers stroke fill"
         d="m 145.30036,196.24591 c 0,0 -9.39584,23.4896 6.67598,21.51154 16.07183,-1.97808 21.51153,-8.40681 22.50056,-20.52249 0.98905,-12.1157 -9.39584,-29.91836 -29.91833,-28.18755 -20.52249,1.73081 -28.43478,11.62119 -29.91833,22.25332 -0.71603,16.30174 -7.69212,45.59453 14.83554,43.27032 23.24234,-3.95614 27.19848,7.9123 15.57731,-17.80264"
         id="path49"
         sodipodi:nodetypes="csssssc"
         inkscape:label="P color " />
      <path
         style="display:inline;opacity:1;fill:#000000;fill-opacity:1;stroke:#000000;stroke-width:0.901096;stroke-linecap:round;stroke-linejoin:round;stroke-dasharray:none;stroke-opacity:1;paint-order:markers stroke fill"
         d="m 140.82986,180.8943 25.09289,26.6764"
         id="path65" />
      <path
         style="display:inline;fill:#000000;fill-opacity:1;stroke:#000000;stroke-width:0.901096;stroke-linecap:round;stroke-linejoin:round;stroke-dasharray:none;stroke-opacity:1;paint-order:markers stroke fill"
         d="m 165.92274,180.8943 -25.09289,26.6764"
         id="path65-8" />
    </g>
    <g
       inkscape:groupmode="layer"
       id="layer16"
       inkscape:label="U "
       transform="matrix(1,0,0,1.0190749,-12.621158,-2.445626)">
      <path
         style="opacity:1;fill:#d45500;fill-opacity:1;stroke:none;stroke-width:0.531284;stroke-linecap:round;stroke-linejoin:round;stroke-dasharray:none;stroke-opacity:1;paint-order:markers stroke fill"
         d="m 80.837108,181.01094 c -21.819719,26.95173 0.102379,56.81843 27.447752,49.65205 20.02925,-5.24905 33.33679,-26.8658 27.57381,-44.98097 -4.2295,-12.80771 -15.43077,-19.14518 -28.80483,-17.96052 -9.463384,1.67995 -0.79536,20.91571 0.79135,23.428 2.09806,3.32194 1.66353,26.05093 -0.0848,28.49867 -8.824414,12.3542 12.12081,-86.86442 -26.923224,-38.63723 z"
         id="path44"
         sodipodi:nodetypes="ssssssss"
         inkscape:label="U fill" />
      <path
         style="display:inline;opacity:1;fill:#d45500;fill-opacity:1;stroke:none;stroke-width:0.526289;stroke-linecap:round;stroke-linejoin:round;stroke-dasharray:none;stroke-opacity:1;paint-order:markers stroke fill"
         d="m 124.69592,220.69132 c 7.70064,8.04338 -1.08623,7.50331 -5.81059,8.37075 -4.60015,0.84464 -1.73081,1.57709 0.24726,4.60998 1.97808,3.03289 -2.22533,5.21657 -4.94518,4.61 -2.71985,-0.6066 -2.47259,-5.82314 -5.56333,-5.4592 -3.09073,0.36394 -1.48355,2.18368 1.85445,3.51813 3.338,1.33447 0.24726,5.82315 -0.61815,6.30842 -0.86541,0.48525 -6.3051,0.48525 -6.79962,-1.33448 -0.49451,-1.81973 -4.079781,-4.36735 -4.203405,-2.54761 -0.123623,1.81972 -0.61815,3.39682 -4.450658,3.63946 -3.832514,0.24263 0.370888,-2.18369 -1.854442,-3.88211 -2.225332,-1.69842 -2.59622,-9.34129 -2.59622,-9.34129 m 0,0 2.472591,0.72791 4.821548,0.84922 7.912286,-0.12136 9.89036,-3.39684 7.29413,-4.7313 2.34897,-1.81965"
         id="path46"
         inkscape:label="U drip color"
         sodipodi:nodetypes="csssssssssscccccccc" />
      <path
         style="display:inline;opacity:1;fill:none;fill-opacity:1;stroke:#000000;stroke-width:0.526288;stroke-linecap:round;stroke-linejoin:round;stroke-dasharray:none;stroke-opacity:1;paint-order:markers stroke fill"
         d="m 125.22135,221.08558 c 7.29413,7.76417 -1.76173,7.00596 -6.33602,7.97649 -4.57429,0.97051 -1.73081,1.57709 0.24726,4.60998 1.97808,3.03289 -2.22533,5.21657 -4.94518,4.61 -2.71985,-0.6066 -2.47259,-5.82314 -5.56333,-5.4592 -3.09073,0.36394 -1.48355,2.18368 1.85445,3.51813 3.338,1.33447 0.24726,5.82315 -0.61815,6.30842 -0.86541,0.48525 -6.3051,0.48525 -6.79962,-1.33448 -0.49451,-1.81973 -4.079781,-4.36735 -4.203405,-2.54761 -0.123623,1.81972 -0.61815,3.39682 -4.450658,3.63946 -3.832514,0.24263 0.370888,-2.18369 -1.854442,-3.88211 -2.225332,-1.69842 -2.59622,-9.34129 -2.59622,-9.34129"
         id="path47"
         inkscape:label="U drip outline  "
         sodipodi:nodetypes="cssssssssssc" />
      <path
         style="opacity:1;fill:none;fill-opacity:1;stroke:#000000;stroke-width:0.531284;stroke-linecap:round;stroke-linejoin:round;stroke-dasharray:none;stroke-opacity:1;paint-order:markers stroke fill"
         d="m 102.91698,171.50974 c -1.94981,-3.54923 -5.340666,-5.09722 -10.198044,-2.10322 -3.159637,1.94756 -12.484026,11.60442 -11.881831,11.60442 h 3e-6 c -16.814522,0 -8.116937,43.22415 9.4846,49.17445 m 34.891742,-9.10048 c 9.72102,-9.30822 14.54139,-23.15579 10.64522,-35.40289 -4.08852,-12.8517 -15.43077,-19.14518 -28.80483,-17.96052 -9.463384,1.67995 -0.79536,20.91571 0.79135,23.428 2.09806,3.32194 1.66353,26.05093 -0.0848,28.49867 -4.31238,6.03735 -1.51531,-14.57067 -2.08421,-31.5949"
         id="path45"
         sodipodi:nodetypes="csssccssssc"
         inkscape:label="U " />
    </g>
    <g
       inkscape:groupmode="layer"
       id="layer15"
       inkscape:label="C">
      <path
         style="opacity:1;fill:#d45500;fill-opacity:1;stroke:none;stroke-width:0.519557;stroke-linecap:round;stroke-linejoin:round;stroke-dasharray:none;stroke-opacity:1;paint-order:markers stroke fill"
         d="m 41.581992,196.1879 c 0,0 -12.588371,24.24479 9.790954,21.40231 17.110187,-2.0669 22.044481,-18.4474 17.80058,-32.28248 -2.728087,-7.70823 -12.003963,-20.985 -37.207651,-15.37109 -38.5156558,8.57904 -44.530098,66.0565 27.442389,63.38463 23.640728,-0.87763 26.406939,-45.43887 -15.474902,-16.0149"
         id="path42"
         sodipodi:nodetypes="cssssc"
         inkscape:label="C  fill" />
      <path
         style="opacity:1;fill:none;fill-opacity:1;stroke:#000000;stroke-width:0.519557;stroke-linecap:round;stroke-linejoin:round;stroke-dasharray:none;stroke-opacity:1;paint-order:markers stroke fill"
         d="m 41.581992,196.1879 c 0,0 -12.588371,24.24479 9.790954,21.40231 17.110187,-2.0669 22.044481,-18.4474 17.80058,-32.28248 -2.728087,-7.70823 -12.003961,-20.985 -37.207651,-15.37109 -25.0636472,5.58272 -36.3642807,31.87204 -21.367722,48.81844 m 62.69844,7.11563 c 5.541638,-7.6235 4.57718,-18.349 -5.852043,-18.35218"
         id="path40"
         sodipodi:nodetypes="csssccc"
         inkscape:label="C outline " />
      <path
         style="display:inline;opacity:1;fill:#d45500;fill-opacity:1;stroke:none;stroke-width:0.531284;stroke-linecap:round;stroke-linejoin:round;stroke-dasharray:none;stroke-opacity:1;paint-order:markers stroke fill"
         d="m 10.692195,218.30107 c 0,0 2.797416,29.02319 12.238692,27.44964 9.44128,-1.57355 -3.671607,-12.7632 1.573548,-11.71418 5.245155,1.04903 2.272901,12.93806 6.99354,10.83998 4.720639,-2.09806 1.748384,-6.99353 -0.349678,-9.26643 -2.098063,-2.2729 2.972255,-3.49677 6.294187,0.52451 3.321929,4.02129 8.392246,4.54581 8.567084,1.22387 0.17484,-3.32193 3.147094,-3.32193 7.867732,-0.17483 4.720639,3.14709 6.119348,7.16837 6.99354,1.22386 0.874192,-5.94451 5.594829,-6.46902 7.168376,-1.74838 1.573548,4.72063 12.063855,2.09807 9.616119,-4.72064 -2.447741,-6.8187 -11.364504,-7.86773 -11.364504,-7.86773 l -34.792856,1.57355 z"
         id="path43"
         inkscape:label="C Drip" />
      <path
         style="fill:none;fill-opacity:1;stroke:#000000;stroke-width:0.531284;stroke-linecap:round;stroke-linejoin:round;stroke-dasharray:none;stroke-opacity:1;paint-order:markers stroke fill"
         d="m 10.460388,218.53286 c 0,0 3.029223,28.7914 12.470499,27.21785 9.44128,-1.57355 -3.671607,-12.7632 1.573548,-11.71418 5.245155,1.04903 2.272901,12.93806 6.99354,10.83998 4.720639,-2.09806 1.748384,-6.99353 -0.349678,-9.26643 -2.098063,-2.2729 2.972255,-3.49677 6.294187,0.52451 3.321929,4.02129 8.392246,4.54581 8.567084,1.22387 0.17484,-3.32193 3.147094,-3.32193 7.867732,-0.17483 4.720639,3.14709 6.119348,7.16837 6.99354,1.22386 0.874192,-5.94451 5.594829,-6.46902 7.168376,-1.74838 1.573548,4.72063 12.063859,2.09807 9.616119,-4.72064 -1.03744,-2.89001 -2.232466,-4.77448 -4.422635,-5.95102"
         id="path43-8"
         inkscape:label="C Drip"
         sodipodi:nodetypes="cssssssssssc" />
    </g>
    <g
       inkscape:groupmode="layer"
       id="layer19"
       inkscape:label="random drops"
       style="display:inline">
      <path
         style="opacity:1;fill:#d45500;fill-opacity:1;stroke:#000000;stroke-width:1.17703;stroke-linecap:round;stroke-linejoin:round;stroke-dasharray:none;stroke-opacity:1;paint-order:markers stroke fill"
         d="m 39.212641,246.99784 c 1.244111,-2.55537 2.587184,-7.06817 -2.032384,-6.89815 -4.619575,0.17003 2.032384,6.89815 2.032384,6.89815 z"
         id="path55" />
      <path
         style="display:inline;fill:#d45500;fill-opacity:1;stroke:#000000;stroke-width:0.736427;stroke-linecap:round;stroke-linejoin:round;stroke-dasharray:none;stroke-opacity:1;paint-order:markers stroke fill"
         d="m 49.691656,241.06543 c 0.778394,-1.5988 1.618705,-4.4223 -1.271587,-4.31592 -2.890296,0.10639 1.271587,4.31592 1.271587,4.31592 z"
         id="path55-9" />
      <path
         style="opacity:1;fill:#d45500;fill-opacity:1;stroke:#000000;stroke-width:0.901098;stroke-linecap:round;stroke-linejoin:round;stroke-dasharray:none;stroke-opacity:1;paint-order:markers stroke fill"
         d="m 65.165527,236.30987 c 0,0 -1.555357,-1.74269 -1.850226,0.28107 -0.294869,2.02374 2.557135,3.46622 2.557135,3.46622 0,0 0.872927,-1.9567 -0.706909,-3.74729 z"
         id="path56"
         inkscape:transform-center-x="1.7226548"
         inkscape:transform-center-y="-0.94745962" />
      <path
         style="opacity:1;fill:#d45500;fill-opacity:1;stroke:#000000;stroke-width:0.901098;stroke-linecap:round;stroke-linejoin:round;stroke-dasharray:none;stroke-opacity:1;paint-order:markers stroke fill"
         d="M 78.778368,242.95653 76.89031,238.9368 c 0,0 -2.375295,1.88805 -2.070771,3.53249 0.304527,1.64444 3.958829,0.48724 3.958829,0.48724 z"
         id="path57" />
      <path
         style="opacity:1;fill:#d45500;fill-opacity:1;stroke:#000000;stroke-width:0.901096;stroke-linecap:round;stroke-linejoin:round;stroke-dasharray:none;stroke-opacity:1;paint-order:markers stroke fill"
         d="m 103.73268,245.956 c 0,0 1.37617,-4.16809 -2.3019,-4.27359 -3.678084,-0.10548 2.3019,4.27359 2.3019,4.27359 z"
         id="path58" />
      <path
         style="opacity:1;fill:#d45500;fill-opacity:1;stroke:#000000;stroke-width:0.623852;stroke-linecap:round;stroke-linejoin:round;stroke-dasharray:none;stroke-opacity:1;paint-order:markers stroke fill"
         d="m 109.29179,232.66433 0.33289,3.8509 c 0,0 2.71067,-2.9162 2.47289,-3.96305 -0.23778,-1.04685 -2.37778,-1.00947 -2.80578,0.11212 z"
         id="path59" />
      <path
         style="opacity:1;fill:#d45500;fill-opacity:1;stroke:#000000;stroke-width:0.901096;stroke-linecap:round;stroke-linejoin:round;stroke-dasharray:none;stroke-opacity:1;paint-order:markers stroke fill"
         d="m 137.11084,240.96682 c 0.92017,-0.55211 -0.52428,-5.10013 -1.75654,-2.91373 -1.13477,2.01341 1.1554,6.01972 2.44739,6.36425 1.29198,0.34454 -0.69085,-3.45052 -0.69085,-3.45052 z"
         id="path60"
         sodipodi:nodetypes="cssc" />
      <path
         style="opacity:1;fill:#d45500;fill-opacity:1;stroke:#000000;stroke-width:0.901096;stroke-linecap:round;stroke-linejoin:round;stroke-dasharray:none;stroke-opacity:1;paint-order:markers stroke fill"
         d="m 165.47948,242.71635 c 0,0 1.11669,-2.84097 -0.584,-3.16473 -1.7007,-0.32381 0.584,3.16473 0.584,3.16473 z"
         id="path61" />
      <path
         style="opacity:1;fill:#d45500;fill-opacity:1;stroke:#000000;stroke-width:0.901096;stroke-linecap:round;stroke-linejoin:round;stroke-dasharray:none;stroke-opacity:1;paint-order:markers stroke fill"
         d="m 177.28306,240.94204 1.28302,1.01588 c 0,0 0.0466,-2.76457 -1.2153,-3.59898 -0.11849,-0.0784 -3.85234,-0.41355 -0.0677,2.5831 z"
         id="path62"
         sodipodi:nodetypes="ccsc" />
      <path
         style="opacity:1;fill:#d45500;fill-opacity:1;stroke:#000000;stroke-width:0.901096;stroke-linecap:round;stroke-linejoin:round;stroke-dasharray:none;stroke-opacity:1;paint-order:markers stroke fill"
         d="m 191.22213,238.0998 0.81308,4.78939 c 0,0 2.84369,-3.32755 1.66245,-5.44511 -1.18123,-2.11756 -2.47551,0.65577 -2.47551,0.65577 z"
         id="path63" />
    </g>
  </g>
</svg>
