<?xml version="1.0" encoding="UTF-8" standalone="no"?>
<!-- Created with Inkscape (http://www.inkscape.org/) -->

<svg
   width="210mm"
   height="297mm"
   viewBox="0 0 210 297"
   version="1.1"
   id="svg1"
   xml:space="preserve"
   inkscape:version="1.4 (86a8ad7, 2024-10-11)"
   sodipodi:docname="Cupo3.svg"
   xmlns:inkscape="http://www.inkscape.org/namespaces/inkscape"
   xmlns:sodipodi="http://sodipodi.sourceforge.net/DTD/sodipodi-0.dtd"
   xmlns="http://www.w3.org/2000/svg"
   xmlns:svg="http://www.w3.org/2000/svg"><sodipodi:namedview
     id="namedview1"
     pagecolor="#ffffff"
     bordercolor="#000000"
     borderopacity="0.25"
     inkscape:showpageshadow="2"
     inkscape:pageopacity="0.0"
     inkscape:pagecheckerboard="0"
     inkscape:deskcolor="#d1d1d1"
     inkscape:document-units="mm"
     showguides="true"
     inkscape:lockguides="true"
     inkscape:zoom="0.35355339"
     inkscape:cx="364.8671"
     inkscape:cy="397.39401"
     inkscape:window-width="1147"
     inkscape:window-height="755"
     inkscape:window-x="197"
     inkscape:window-y="0"
     inkscape:window-maximized="0"
     inkscape:current-layer="layer26"><sodipodi:guide
       position="25.634219,222.18606"
       orientation="0,-1"
       id="guide1"
       inkscape:locked="true" /><sodipodi:guide
       position="26.92066,195.82934"
       orientation="0,-1"
       id="guide2"
       inkscape:locked="true" /></sodipodi:namedview><defs
     id="defs1" /><g
     inkscape:label="Background"
     inkscape:groupmode="layer"
     id="layer1"
     style="display:inline"
     sodipodi:insensitive="true"><rect
       style="fill:#333333;stroke:#000000;stroke-width:0.4;stroke-linecap:round;stroke-linejoin:round;paint-order:markers stroke fill"
       id="rect1"
       width="1529.5768"
       height="1830.3363"
       x="-696.0434"
       y="-597.22241" /></g><g
     inkscape:groupmode="layer"
     id="layer22"
     inkscape:label="bottom highlight "
     style="display:inline"
     transform="translate(-11.144214,-27.524864)"><path
       style="fill:#000000;fill-opacity:1;fill-rule:nonzero;stroke:none;stroke-width:0.6328;stroke-linecap:round;stroke-linejoin:round;stroke-dasharray:none;stroke-opacity:1;paint-order:markers stroke fill"
       d="m 144.51132,73.955669 c 0,0 -2.91022,-34.26287 31.34085,-35.8752 34.25107,-1.61239 40.96696,15.51906 40.29537,27.81334 -0.67159,12.29434 2.4625,40.712291 -28.20676,45.549401 -30.66926,4.83708 -40.96696,-23.580871 -43.42946,-37.487541 z"
       id="path19-6"
       inkscape:label="O outline "
       sodipodi:nodetypes="ccssc" /><path
       style="fill:#000000;fill-opacity:1;fill-rule:nonzero;stroke:none;stroke-width:0.602014;stroke-linecap:round;stroke-linejoin:round;stroke-dasharray:none;stroke-opacity:1;paint-order:markers stroke fill"
       d="m 148.32208,62.087319 c 4.24436,11.63121 -3.43692,67.036651 -27.20004,43.154521 -23.77484,-42.561941 4.23112,-60.194711 4.23112,-60.194711 0,0 23.97632,-20.064914 47.75116,5.67489 37.19687,40.2712 -52.38273,74.761321 -36.57224,23.89558 3.31066,-10.65116 21.56129,-7.40155 21.56129,-7.40155 z"
       id="path22-5"
       sodipodi:nodetypes="cccsscc"
       inkscape:label="p back" /><path
       style="fill:#000000;fill-opacity:1;fill-rule:nonzero;stroke:#000000;stroke-width:0.60234;stroke-linecap:round;stroke-linejoin:round;stroke-dasharray:none;stroke-opacity:1;paint-order:markers stroke fill"
       d="m 146.5998,99.364419 c -4.709,11.337441 -13.75153,16.754501 -23.35822,5.755601 -23.774838,-42.561941 4.23113,-60.194711 4.23113,-60.194711 0,0 23.97632,-20.064926 47.75115,5.67489 37.19687,40.2712 -52.38273,74.761321 -36.57224,23.89558 3.31066,-10.65116 21.5613,-7.40155 21.5613,-7.40155 l -9.7713,-5.12873 c 0.24002,1.23806 0.23653,2.75345 0.20735,4.82712"
       id="path22-2-7"
       sodipodi:nodetypes="cccssccc"
       inkscape:label="p outline " /><path
       style="fill:#000000;fill-opacity:1;fill-rule:nonzero;stroke:none;stroke-width:0.366231;stroke-linecap:round;stroke-linejoin:round;stroke-dasharray:none;stroke-opacity:1;paint-order:markers stroke fill"
       d="M 89.66872,83.424129 C 146.75831,65.578539 79.667345,-4.3044759 68.883704,73.189879 63.99159,108.34613 96.320184,122.44781 121.63545,104.95983 146.95077,87.471789 131.04027,41.574479 115.90664,38.226639 100.77302,34.878779 96.303513,72.193309 97.949824,85.323969 Z"
       id="path18-3-4-5"
       sodipodi:nodetypes="cssscc"
       inkscape:label="U fill" /><path
       style="display:inline;fill:#000000;fill-opacity:1;fill-rule:evenodd;stroke:#000000;stroke-width:0.366231;stroke-linecap:round;stroke-linejoin:round;stroke-dasharray:none;stroke-opacity:1;paint-order:markers stroke fill"
       d="m 95.694788,80.022109 c 0.03837,1.91973 0.155697,3.52634 0.343375,5.0229 l -8.281102,-1.89984 C 144.84664,65.299579 77.755684,-4.5834419 66.972043,72.910919 c -4.892115,35.156251 27.436479,49.257931 52.751747,31.769951 25.31532,-17.488031 9.20218,-63.385381 -5.93144,-66.733181 -3.25503,-0.72008 -8.80802,1.57043 -9.74471,5.15541"
       id="path18-0-4"
       sodipodi:nodetypes="cccsssc"
       inkscape:label="U outline " /><path
       style="display:inline;fill:#000000;fill-opacity:1;fill-rule:nonzero;stroke:none;stroke-width:10.0001;stroke-linecap:round;stroke-linejoin:round;stroke-dasharray:none;stroke-opacity:1;paint-order:markers stroke fill"
       d="m 49.061595,62.137119 c 26.747268,60.728651 75.056145,-24.42294 4.946846,-24.64836 -31.805984,-0.10225 -37.90592,37.95974 -17.641749,63.436071 20.264168,25.4763 53.163646,0.76427 53.163646,-16.559641 0,-17.32388 -29.323449,-16.55958 -40.528345,-12.7381 z"
       id="path18-3-1"
       sodipodi:nodetypes="cssscc"
       inkscape:label="c outline" /><path
       style="fill:#000000;fill-opacity:1;fill-rule:evenodd;stroke:#000000;stroke-width:0.379498;stroke-linecap:round;stroke-linejoin:round;stroke-dasharray:none;stroke-opacity:1;paint-order:markers stroke fill"
       d="m 46.848252,70.462539 c -1.793071,0.33382 -3.179907,0.72954 -4.544932,1.16504 l 0.06373,-9.48837 c 28.590084,60.718451 80.22733,-24.4188 5.287665,-24.64419 -33.997335,-0.10225 -40.5175417,37.95334 -18.85722,63.425401 21.660318,25.47204 56.82649,0.76415 56.82649,-16.556851 0,-3.72548 -1.385384,-6.4847 -3.780851,-8.68644"
       id="path18-2"
       sodipodi:nodetypes="cccsssc"
       inkscape:label="outline" /><path
       style="fill:#000000;fill-opacity:1;fill-rule:nonzero;stroke:none;stroke-width:8.12771;stroke-linecap:round;stroke-linejoin:round;stroke-dasharray:none;stroke-opacity:1;paint-order:markers stroke fill"
       d="m 25.437506,77.915219 c 0,0 -5.268557,-39.30146 26.74807,-39.90612 32.016632,-0.60464 46.809129,20.75921 36.272009,33.25508 -10.537122,12.49585 -12.766125,20.55774 -39.514201,0.8062"
       id="path20-0"
       inkscape:label="c outline" /><path
       style="fill:#000000;fill-opacity:1;fill-rule:nonzero;stroke:none;stroke-width:8.12768;stroke-linecap:round;stroke-linejoin:round;stroke-dasharray:none;stroke-opacity:1;paint-order:markers stroke fill"
       d="m 155.55495,62.624929 c 3.3335,1.94212 5.7194,2.89584 8.91806,4.4356 0,0 -6.31973,-0.21156 -8.43319,-0.14016 z"
       id="path23-0"
       sodipodi:nodetypes="cccc" /><path
       style="fill:#000000;fill-opacity:1;fill-rule:nonzero;stroke:none;stroke-width:8.12768;stroke-linecap:round;stroke-linejoin:round;stroke-dasharray:none;stroke-opacity:1;paint-order:markers stroke fill"
       d="m 92.763618,83.382199 c 0,0 6.357728,-2.01546 7.877512,-3.02322 l 0.40527,5.0135 z"
       id="path24-1" /><path
       style="fill:#000000;fill-opacity:1;fill-rule:nonzero;stroke:none;stroke-width:8.12768;stroke-linecap:round;stroke-linejoin:round;stroke-dasharray:none;stroke-opacity:1;paint-order:markers stroke fill"
       d="m 48.971197,71.617419 0.143239,-9.29907 4.191115,8.15894 z"
       id="path25-4" /></g><g
     inkscape:groupmode="layer"
     id="layer23"
     inkscape:label="Waves" /><g
     inkscape:groupmode="layer"
     id="layer20"
     inkscape:label="O"><path
       style="fill:#00d400;fill-opacity:1;fill-rule:nonzero;stroke:none;stroke-width:3.52589;stroke-linecap:round;stroke-linejoin:round;stroke-dasharray:none;stroke-opacity:1;paint-order:markers stroke fill"
       d="m 139.73423,42.654369 c 0,0 -2.56432,-33.5334239 27.61576,-35.1114739 30.18008,-1.578039 36.09774,15.1886709 35.50598,27.2212539 -0.59177,12.03258 2.16981,39.8456 -24.85418,44.57972 -27.024,4.73415 -36.09775,-23.07888 -38.26756,-36.6895 z"
       id="path19-1"
       inkscape:label="O background" /><path
       style="fill:#00d400;fill-opacity:1;fill-rule:nonzero;stroke:#000000;stroke-width:1.21551;stroke-linecap:round;stroke-linejoin:round;stroke-dasharray:none;stroke-opacity:1;paint-order:markers stroke fill"
       d="m 139.74941,42.654719 c 0,0 -2.67645,-33.5216269 28.82324,-35.0991219 31.49968,-1.577484 37.67609,15.1833289 37.05845,27.2116819 -0.61764,12.02834 2.26469,39.83158 -25.94091,44.56404 -28.2056,4.73248 -37.6761,-23.07076 -39.94078,-36.6766 z"
       id="path19"
       inkscape:label="O outline " /><path
       style="fill:#000000;fill-opacity:1;fill-rule:nonzero;stroke:#000000;stroke-width:1.18999;stroke-linecap:round;stroke-linejoin:round;stroke-dasharray:none;stroke-opacity:1;paint-order:markers stroke fill"
       d="m 179.0488,40.865239 -2.95644,8.24793 5.51612,0.21995 c 0,0 -1.95441,-4.82955 -2.55968,-8.46788 z"
       id="path26" /><path
       style="fill:#006680;fill-opacity:1;fill-rule:nonzero;stroke:none;stroke-width:1.18999;stroke-linecap:round;stroke-linejoin:round;stroke-dasharray:none;stroke-opacity:1;paint-order:markers stroke fill"
       d="m 181.08842,75.184119 c 0.91669,-4.02199 -3.16084,-0.82457 -5.35969,-3.16085 -2.19885,-2.33627 -6.04683,3.16085 -7.55854,3.16085 -1.5117,0 -2.4737,-2.61113 -3.4357,-5.90941 -0.96199,-3.29827 -3.84798,-2.74856 -7.55854,-1.37428 -3.71055,1.37428 -7.51828,-0.48898 -7.51828,-0.48898 5.59869,8.86032 14.01562,11.78986 21.39935,12.43312 4.07583,0.35507 7.86868,-0.3233 10.60188,-0.82537 8.89025,-1.63305 15.78152,-7.90753 15.32377,-8.4916 -0.41054,-0.52382 -0.98874,0.44909 -1.96417,0.46949 -0.2489,0.005 -0.97232,-1.0776 -1.22372,-0.96218 -5.57299,2.55845 -13.1804,7.22907 -12.70636,5.14921 z"
       id="path30"
       sodipodi:nodetypes="ssssscssssss"
       inkscape:label="wave " /></g><g
     inkscape:groupmode="layer"
     id="layer19"
     inkscape:label="p"
     style="display:inline;fill:none;stroke:#000000;stroke-opacity:1"
     transform="translate(-1.6112116)"><path
       style="fill:#00d400;fill-opacity:1;fill-rule:nonzero;stroke:none;stroke-width:0.58761;stroke-linecap:round;stroke-linejoin:round;stroke-dasharray:none;stroke-opacity:1;paint-order:markers stroke fill"
       d="m 140.12761,31.898459 c 4.13164,11.38362 -3.34564,65.60953 -26.47768,42.23578 -23.143443,-41.655832 4.11875,-58.913226 4.11875,-58.913226 0,0 23.33958,-19.6377609 46.48302,5.554071 36.20903,39.413895 -50.99159,73.169785 -35.60098,23.386875 3.22274,-10.42433 20.98869,-7.24396 20.98869,-7.24396 z"
       id="path22"
       sodipodi:nodetypes="cccsscc"
       inkscape:label="p back" /><path
       style="display:inline;fill:#006680;fill-opacity:1;fill-rule:nonzero;stroke:none;stroke-width:1.18999;stroke-linecap:round;stroke-linejoin:round;stroke-dasharray:none;stroke-opacity:1;paint-order:markers stroke fill"
       d="m 112.60476,71.299759 c 0,0 0.51774,-0.58931 0.91548,-0.39151 1.19208,0.59284 3.43948,2.43815 4.49602,1.89167 1.40906,-0.72882 1.89494,-2.67235 2.57517,-2.67235 0.68024,0 0.77741,3.35258 1.79776,4.22717 1.02035,0.87458 4.17858,-0.87459 4.27576,-2.38082 0.0972,-1.50623 1.70058,-4.42152 4.03281,-1.89493 2.33223,2.52658 5.3447,-1.45765 5.3447,-1.45765 -2.24387,5.26594 -6.36204,11.80083 -12.878,11.21796 -4.83864,-0.43283 -10.04346,-4.3302 -10.5597,-8.53954 z"
       id="path29"
       sodipodi:nodetypes="csssssscsc"
       inkscape:label="P wave " /><path
       style="fill:none;fill-opacity:1;fill-rule:nonzero;stroke:#000000;stroke-width:0.58761;stroke-linecap:round;stroke-linejoin:round;stroke-dasharray:none;stroke-opacity:1;paint-order:markers stroke fill"
       d="m 136.38782,68.501189 c -4.58394,11.09612 -13.38634,16.39783 -22.73789,5.63305 -23.143443,-41.655832 4.11875,-58.913226 4.11875,-58.913226 0,0 23.33958,-19.6377609 46.48302,5.554071 36.20903,39.413895 -50.99159,73.169785 -35.60098,23.386875 3.22274,-10.42433 20.98869,-7.24396 20.98869,-7.24396 l -9.5118,-5.01954 c 0.23362,1.21173 0.23024,2.69479 0.20185,4.72434"
       id="path22-2"
       sodipodi:nodetypes="cccssccc"
       inkscape:label="p outline " /></g><g
     inkscape:groupmode="layer"
     id="layer16"
     inkscape:label="u"
     transform="translate(-7.7852073,0.09494155)"
     style="display:inline"><path
       style="fill:#00d400;fill-opacity:1;fill-rule:nonzero;stroke:none;stroke-width:0.35747;stroke-linecap:round;stroke-linejoin:round;stroke-dasharray:none;stroke-opacity:1;paint-order:markers stroke fill"
       d="m 85.128354,52.372349 c 55.573446,-17.46566 -9.735767,-85.860985 -20.23302,-10.01639 -4.762197,34.40786 26.707837,48.20937 51.350806,31.09364 24.64301,-17.11573 9.15505,-62.035972 -5.57667,-65.3125299 C 95.937763,4.8605121 91.586946,41.380649 93.189537,54.231749 Z"
       id="path18-3-4"
       sodipodi:nodetypes="cssscc"
       inkscape:label="U fill" /><path
       style="display:inline;fill:none;fill-opacity:1;fill-rule:evenodd;stroke:#000000;stroke-width:0.35747;stroke-linecap:round;stroke-linejoin:round;stroke-dasharray:none;stroke-opacity:1;paint-order:markers stroke fill"
       d="m 92.855279,49.315799 c 0.03734,1.87889 0.151584,3.45129 0.334258,4.91595 l -8.06118,-1.85941 c 55.573443,-17.46565 -9.73577,-85.860978 -20.233023,-10.01638 -4.762197,34.40786 26.707837,48.20937 51.350806,31.09364 24.64301,-17.11573 8.9578,-62.035975 -5.77392,-65.3125329 -3.16858,-0.70474 -8.57411,1.536995 -9.48593,5.0456709"
       id="path18-0"
       sodipodi:nodetypes="cccsssc"
       inkscape:label="U outline " /><path
       style="fill:#006680;fill-opacity:1;fill-rule:nonzero;stroke:none;stroke-width:1.18999;stroke-linecap:round;stroke-linejoin:round;stroke-dasharray:none;stroke-opacity:1;paint-order:markers stroke fill"
       d="m 74.669744,68.643379 c 0,0 3.765975,2.51065 5.439748,1.67377 1.673764,-0.83689 2.789611,-3.34754 4.3239,-3.06858 1.534289,0.27896 3.487018,3.76598 4.881822,4.04494 1.394807,0.27896 3.626494,-1.25533 4.60286,-2.65013 0.976363,-1.39481 3.487018,-1.67377 5.579229,1.11584 2.092197,2.78961 7.113517,2.09221 9.484687,0.83688 2.37117,-1.25532 5.7187,-3.76596 7.25299,-2.65012 0.16058,0.11679 2.73213,1.99378 3.15454,2.73681 -0.44084,0.57213 -2.80119,2.60487 -5.90859,4.45888 -1.99521,1.19043 -4.36888,2.20612 -6.45805,3.03992 -3.49169,1.39356 -7.230152,2.26493 -10.454661,2.59661 -8.718638,0.89682 -19.18635,-4.02951 -21.619503,-6.83455 -0.411616,-0.47453 -0.843752,-0.78481 -1.154051,-1.09596 -1.346155,-1.34983 -1.717461,-1.39777 -1.717461,-1.39777 z"
       id="path28"
       sodipodi:nodetypes="cssssssssssssscc" /></g><g
     inkscape:groupmode="layer"
     id="layer17"
     inkscape:label="C"><path
       style="display:inline;fill:#00d400;fill-opacity:1;fill-rule:nonzero;stroke:none;stroke-width:9.76084;stroke-linecap:round;stroke-linejoin:round;stroke-dasharray:none;stroke-opacity:1;paint-order:markers stroke fill"
       d="M 34.78738,31.633471 C 60.824307,91.069299 107.85024,7.7304311 39.602845,7.5098631 8.6415449,7.4098161 2.7036042,44.661469 22.429614,69.595439 c 19.726011,24.934 51.751764,0.74803 51.751764,-16.20708 0,-16.9551 -28.544696,-16.20707 -39.452019,-12.46698 z"
       id="path18-3"
       sodipodi:nodetypes="cssscc"
       inkscape:label="c outline" /><path
       style="fill:#006680;fill-opacity:1;fill-rule:nonzero;stroke:none;stroke-width:1.18999;stroke-linecap:round;stroke-linejoin:round;stroke-dasharray:none;stroke-opacity:1;paint-order:markers stroke fill"
       d="m 18.97644,64.488389 c 0,0 15.409106,1.04188 18.47768,-2.0267 3.068574,-3.06858 5.021304,-5.0213 6.416111,-2.51066 1.394807,2.51066 0.467592,4.48314 4.01819,3.29961 3.550596,-1.18353 8.876493,-3.35334 10.060026,0 1.183532,3.35334 2.958833,5.3259 4.734131,4.93139 1.775298,-0.39452 4.240992,0.69039 4.240992,0.69039 l -5.375212,4.83276 c 0,0 -12.756683,10.481 -26.116707,5.38009 -1.10425,-0.4216 -2.376086,-1.04835 -3.376878,-1.55049 C 21.664854,72.321749 19.276926,64.421609 18.97644,64.488389 Z"
       id="path27"
       sodipodi:nodetypes="csssssccssc"
       inkscape:label="C wave " /><path
       style="fill:none;fill-opacity:1;fill-rule:evenodd;stroke:#000000;stroke-width:0.358313;stroke-linecap:round;stroke-linejoin:round;stroke-dasharray:none;stroke-opacity:1;paint-order:markers stroke fill"
       d="m 38.868417,39.780969 c -1.632946,0.32675 -2.895938,0.71415 -4.139058,1.14041 l 0.05803,-9.287908 C 60.82431,91.069299 107.85024,7.7304311 39.602848,7.5098631 8.6415478,7.4098041 2.7036072,44.661469 22.429617,69.595439 c 19.726011,24.934 51.751764,0.74803 51.751764,-16.20708 0,-3.64681 -1.261664,-6.34775 -3.443215,-8.50297"
       id="path18"
       sodipodi:nodetypes="cccsssc"
       inkscape:label="outline" /><path
       style="fill:none;fill-opacity:1;fill-rule:nonzero;stroke:none;stroke-width:7.93325;stroke-linecap:round;stroke-linejoin:round;stroke-dasharray:none;stroke-opacity:1;paint-order:markers stroke fill"
       d="m 11.790678,47.075689 c 0,0 -5.1286415,-38.4648019 26.037715,-39.0565669 31.166358,-0.591774 45.566006,20.3173059 35.308719,32.5471369 -10.257278,12.22984 -12.427088,20.12006 -38.464805,0.78903"
       id="path20"
       inkscape:label="c outline" /></g><g
     inkscape:groupmode="layer"
     id="layer26"
     inkscape:label="C 1" /><g
     inkscape:groupmode="layer"
     id="layer21"
     inkscape:label="negative space fill"
     style="display:inline"><path
       style="fill:#000000;fill-opacity:1;fill-rule:nonzero;stroke:none;stroke-width:7.93323;stroke-linecap:round;stroke-linejoin:round;stroke-dasharray:none;stroke-opacity:1;paint-order:markers stroke fill"
       d="m 138.45255,32.110927 c 3.24498,1.900762 5.56751,2.834142 8.68123,4.341122 0,0 -6.15189,-0.20674 -8.20923,-0.13698 z"
       id="path23"
       sodipodi:nodetypes="cccc" /><path
       style="fill:#000000;fill-opacity:1;fill-rule:nonzero;stroke:none;stroke-width:7.93323;stroke-linecap:round;stroke-linejoin:round;stroke-dasharray:none;stroke-opacity:1;paint-order:markers stroke fill"
       d="m 77.328791,52.426249 c 0,0 6.188891,-1.97255 7.668311,-2.95883 l 0.394509,4.90673 z"
       id="path24" /><path
       style="fill:#000000;fill-opacity:1;fill-rule:nonzero;stroke:none;stroke-width:7.93323;stroke-linecap:round;stroke-linejoin:round;stroke-dasharray:none;stroke-opacity:1;paint-order:markers stroke fill"
       d="m 34.69938,40.911929 0.139478,-9.101114 4.079808,7.985264 z"
       id="path25" /></g></svg>
