<?xml version="1.0" encoding="UTF-8" standalone="no"?>
<!-- Created with Inkscape (http://www.inkscape.org/) -->

<svg
   width="210mm"
   height="297mm"
   viewBox="0 0 210 297"
   version="1.1"
   id="svg1"
   xml:space="preserve"
   inkscape:version="1.4 (86a8ad7, 2024-10-11)"
   sodipodi:docname="cupo 5-2-2026.svg"
   xmlns:inkscape="http://www.inkscape.org/namespaces/inkscape"
   xmlns:sodipodi="http://sodipodi.sourceforge.net/DTD/sodipodi-0.dtd"
   xmlns="http://www.w3.org/2000/svg"
   xmlns:svg="http://www.w3.org/2000/svg"><sodipodi:namedview
     id="namedview1"
     pagecolor="#ffffff"
     bordercolor="#000000"
     borderopacity="0.25"
     inkscape:showpageshadow="2"
     inkscape:pageopacity="0.0"
     inkscape:pagecheckerboard="0"
     inkscape:deskcolor="#d1d1d1"
     inkscape:document-units="mm"
     showguides="true"
     inkscape:lockguides="true"
     inkscape:zoom="0.34835029"
     inkscape:cx="753.55184"
     inkscape:cy="635.85422"
     inkscape:window-width="1261"
     inkscape:window-height="755"
     inkscape:window-x="433"
     inkscape:window-y="35"
     inkscape:window-maximized="0"
     inkscape:current-layer="layer23"
     showgrid="false"><sodipodi:guide
       position="16.709713,297.00001"
       orientation="0,-1"
       id="guide1"
       inkscape:locked="true" /><sodipodi:guide
       position="41.798019,217.34404"
       orientation="0,-1"
       id="guide2"
       inkscape:locked="true" /><sodipodi:guide
       position="42.913581,211.93237"
       orientation="0,-1"
       id="guide71"
       inkscape:locked="true" /><sodipodi:guide
       position="55.318264,133.73056"
       orientation="0,-1"
       id="guide72"
       inkscape:locked="true" /><sodipodi:guide
       position="46.99367,129.70254"
       orientation="0,-1"
       id="guide106"
       inkscape:locked="true" /><sodipodi:guide
       position="48.604882,53.169983"
       orientation="0,-1"
       id="guide107"
       inkscape:locked="true" /></sodipodi:namedview><defs
     id="defs1" /><g
     inkscape:label="Layer 1"
     inkscape:groupmode="layer"
     id="layer1"
     sodipodi:insensitive="true"
     style="display:inline"><rect
       style="fill:#333333;stroke:#000000;stroke-width:0.861999;stroke-linecap:round;stroke-linejoin:round;paint-order:markers stroke fill"
       id="rect1"
       width="1379.3109"
       height="1397.5397"
       x="-264.31729"
       y="-205.83327" /></g><g
     inkscape:groupmode="layer"
     id="layer6"
     inkscape:label="Layer 2"
     style="display:inline;opacity:1"
     sodipodi:insensitive="true"><path
       id="path71"
       style="baseline-shift:baseline;display:inline;overflow:visible;fill:#28170b;fill-opacity:1;stroke:#28170b;stroke-width:1.70916;stroke-linecap:round;stroke-linejoin:round;stroke-dasharray:none;stroke-opacity:1;paint-order:markers stroke fill;enable-background:accumulate;stop-color:#000000;stop-opacity:1"
       d="M 48.539733,0.58354556 C 44.925636,0.54472016 40.448307,1.0347909 34.925019,2.1858597 23.819068,4.5003743 16.273114,10.362783 11.768079,17.865684 7.2630433,25.368579 5.7883427,34.492111 6.7175678,43.361593 c 0.9292242,8.869471 4.2610402,17.492452 9.4182802,24.016811 4.23749,5.360771 9.723659,9.301701 16.108204,10.754398 0.403689,0.09431 0.806385,0.176247 1.207685,0.246956 0.02865,0.005 0.05723,0.01032 0.08593,0.01527 0.466088,0.08024 0.9305,0.146073 1.393084,0.196929 -0.427388,-0.04806 -0.850971,-0.108492 -1.270699,-0.179555 0.420259,0.06982 0.84325,0.131462 1.270699,0.179555 0.419213,0.04715 0.843708,0.07741 1.269658,0.103211 8.66e-4,5.1e-5 0.0017,-5.1e-5 0.0026,0 0.0045,2.33e-4 0.0092,8.2e-4 0.01355,0.001 0.102828,0.006 0.203521,0.01932 0.306736,0.02419 3.395209,0.160492 6.547644,-0.226689 9.448488,-1.04364 5.905761,-0.955092 10.895926,-3.573774 14.858332,-7.162219 0.988347,0.814937 2.023702,1.590605 3.10332,2.314201 6.811297,4.565251 15.364712,7.10007 24.063616,5.20714 -0.0041,9e-4 -0.0084,0.002 -0.0125,0.003 3.246935,-0.356157 6.533436,-1.215334 9.78855,-2.722834 2.167283,-1.003701 4.060409,-2.202592 5.702009,-3.553728 2.57624,1.493901 5.47408,2.75924 8.72616,3.737494 15.71554,4.727363 29.91083,4.045719 31.91228,-4.25984 4.81199,3.789342 10.65417,6.410705 17.32994,7.342838 0.0187,0.003 0.0377,0.005 0.0567,0.006 0.42058,0.004 1.94241,-0.04048 4.02875,-0.45706 0.0357,0.005 0.0704,0.01224 0.10624,0.0169 1.96111,0.01832 28.31761,-0.451869 29.39691,-38.946811 0.50188,-17.900953 -3.64997,-36.5397212 -24.37088,-37.8031285 -0.42175,-0.025722 -0.836,-0.040273 -1.25299,-0.058971 -0.99876,-0.1749032 -2.03464,-0.30773 -3.1252,-0.37806794 -1.38591,-0.089388 -2.74584,-0.1373155 -4.07821,-0.141118 v -5.263e-4 c -1.33239,-0.00375 -2.63713,0.036529 -3.91104,0.1232141 -6.76732,0.46049774 -12.6748,2.23733054 -17.36641,5.69893034 -4.1831,-3.0314814 -9.36802,-5.008339 -15.52076,-5.2824225 -0.26749,-0.01192 -0.53212,-0.010118 -0.79732,-0.01106 -1.25931,-0.2136547 -2.56012,-0.36139244 -3.91053,-0.42124644 -0.5139,-0.022778 -1.02453,-0.030022 -1.53161,-0.021593 C 111.5609,1.0324362 104.74506,4.6206904 99.37806,10.15379 95.428172,14.225916 92.254432,19.352892 90.098313,24.956896 88.200894,24.662666 86.392354,24.578438 84.714043,24.67834 93.931188,10.981783 85.340908,4.0207581 74.960881,1.9652999 72.543768,1.2410155 69.917965,0.86731166 67.285646,0.81108616 64.338355,0.74812836 61.392077,1.0776019 58.737587,1.7267684 56.89468,1.153833 54.603053,0.81810946 51.778422,0.78834656 50.782283,0.66941266 49.710783,0.59609576 48.5397,0.58351416 Z M 36.200406,78.695177 c -0.268745,-0.01609 -0.536911,-0.03359 -0.803562,-0.05636 0.268658,0.02357 0.536236,0.0422 0.803562,0.05636 z M 48.533485,1.0258541 c 1.562445,0.016888 2.957212,0.1331576 4.199036,0.3359438 C 51.490697,1.1590117 50.09593,1.0427451 48.533485,1.0258541 Z M 162.20382,1.2591187 c 1.32226,0.00385 2.67342,0.051201 4.05114,0.1400638 0.0234,0.00152 0.0448,0.00527 0.0683,0.00688 -0.0232,-0.00152 -0.045,-0.00485 -0.0683,-0.00627 -1.37772,-0.088863 -2.72888,-0.1362146 -4.05114,-0.1400637 z m -94.929078,0.00162 c 0.665011,0.014247 1.328489,0.055268 1.989374,0.1100507 -0.66072,-0.054742 -1.324508,-0.095803 -1.989374,-0.1100507 z m 2.569523,0.1674458 c 0.494442,0.0503 0.984417,0.1127807 1.47172,0.1869283 -0.486949,-0.074069 -0.97764,-0.1366688 -1.47172,-0.1869283 z m 98.441205,0.1779763 c 0.21455,0.028778 0.42125,0.065731 0.63171,0.098991 -0.21045,-0.03325 -0.41718,-0.070223 -0.63171,-0.098991 z m 2.50131,0.017373 c 0.006,0.00142 0.0123,0.00233 0.0182,0.00364 0.0416,0.00972 0.0841,0.018558 0.12551,0.028433 -0.0475,-0.011303 -0.0961,-0.021057 -0.14373,-0.032117 z m -98.910437,0.07846 c 0.649058,0.1119924 1.29204,0.2387613 1.919589,0.3954448 C 73.168518,1.9407894 72.525237,1.8139529 71.876343,1.7019938 Z m 98.347987,0.2411634 c 0.22302,0.046961 0.44376,0.096279 0.66191,0.1484885 -0.21812,-0.052193 -0.43893,-0.1015369 -0.66191,-0.1484885 z m -43.98809,0.1621791 c 0.87754,0.2018664 1.73051,0.4408391 2.55912,0.714538 0.82859,0.273701 1.63238,0.5819997 2.41173,0.9225285 0.38966,0.1702659 0.77308,0.3483737 1.15039,0.5344561 -1.1317,-0.557976 -2.31945,-1.0465095 -3.56212,-1.4569846 -0.82845,-0.2736484 -1.68175,-0.5126959 -2.55912,-0.714538 z m 45.8905,0.3206738 c 0.18206,0.054175 0.36782,0.1041838 0.54629,0.16218 -0.17846,-0.05798 -0.36426,-0.1080107 -0.54629,-0.16218 z m -59.97442,0.060024 c -0.74809,0.2359329 -1.48481,0.5060681 -2.20915,0.8087925 0.72434,-0.3027244 1.46106,-0.5728596 2.20915,-0.8087925 z M 57.818967,2.5902524 c 0.08248,0.047396 0.159729,0.097514 0.239557,0.1463828 -0.07986,-0.048893 -0.157056,-0.098981 -0.239557,-0.1463828 z m 0.767627,0.4923311 c 0.08298,0.058556 0.164483,0.1176822 0.244245,0.1779763 -0.07969,-0.060247 -0.161336,-0.1194641 -0.244245,-0.1779763 z m 115.696166,0.093729 c 0.0326,0.013478 0.065,0.026926 0.0973,0.040546 -0.0324,-0.01362 -0.0649,-0.027068 -0.0973,-0.040546 z M 78.532414,3.384828 C 78.915397,3.5835598 79.285921,3.7973562 79.64688,4.0219634 79.286009,3.797421 78.915301,3.5835092 78.532414,3.384828 Z M 59.300581,3.6423169 c 0.06273,0.054509 0.128079,0.1075503 0.188523,0.1632324 C 59.428674,3.7498865 59.363276,3.696813 59.300581,3.6423169 Z M 175.87686,3.9240248 c 0.15992,0.083044 0.31334,0.1724181 0.46975,0.2590663 -0.15639,-0.086636 -0.30984,-0.1760335 -0.46975,-0.2590663 z M 79.984866,4.248387 c 0.238367,0.1572017 0.474647,0.3162945 0.701487,0.4854858 C 80.459522,4.5646916 80.223223,4.4055796 79.984866,4.248387 Z m 65.707674,0.1095235 c -0.78462,0.3604119 -1.54489,0.7540273 -2.27997,1.1826481 0.73508,-0.4286208 1.49535,-0.8222372 2.27997,-1.1826481 z m 31.64823,0.4117682 c 0.16546,0.1047587 0.32878,0.2116786 0.49005,0.3206729 -0.16125,-0.1089771 -0.3246,-0.2159294 -0.49005,-0.3206729 z M 60.565032,5.0097867 c 0.04856,0.066672 0.0923,0.1355144 0.138527,0.2032508 -0.04622,-0.067734 -0.08997,-0.1365869 -0.138527,-0.2032508 z M 81.07225,5.0392727 C 81.271632,5.19918 81.467256,5.3621948 81.656042,5.5321298 81.46735,5.3622889 81.271529,5.199098 81.07225,5.0392727 Z m 24.67865,0.4470471 c -0.59892,0.3789229 -1.18281,0.7888111 -1.75919,1.2121349 0.5765,-0.4234198 1.16014,-0.833132 1.75919,-1.2121349 z M 60.996236,5.6711401 c 0.04578,0.077823 0.08976,0.1563619 0.1328,0.2353715 -0.04299,-0.078925 -0.08707,-0.1576307 -0.1328,-0.2353715 z m 117.753774,0.082143 c 0.13587,0.1038095 0.27508,0.2042241 0.40776,0.3111957 -0.13271,-0.1069989 -0.27186,-0.2073599 -0.40776,-0.3111957 z M 82.022671,5.8780781 C 82.202137,6.0528235 82.375413,6.2325676 82.54345,6.4172729 82.375499,6.2326759 82.202039,6.0527264 82.022671,5.8780781 Z M 60.790529,6.1434636 C 61.144296,6.8005812 61.39748,7.500417 61.564406,8.2312594 61.39748,7.500417 61.144296,6.8005812 60.790529,6.1434636 Z m 21.128507,0.2364247 c 0.07383,0.075101 0.144449,0.1526686 0.216123,0.2295786 -0.07162,-0.076851 -0.142347,-0.1545243 -0.216123,-0.2295786 z m 98.264144,0.00365 c 0.005,0.00455 0.0107,0.0086 0.0156,0.013164 0.0911,0.081223 0.18482,0.1600086 0.27444,0.2427429 -0.0945,-0.087406 -0.19381,-0.1701889 -0.29007,-0.2559072 z m -118.811462,0.00577 c 0.03312,0.071498 0.06838,0.1419993 0.09947,0.2143084 -0.03108,-0.072308 -0.06635,-0.142815 -0.09947,-0.2143084 z m 21.501385,0.402809 c 0.163222,0.1951699 0.316902,0.3977477 0.467138,0.603433 C 83.189999,7.1898597 83.036331,6.9872819 82.873103,6.792112 Z m 20.738437,0.1874565 c -0.55394,0.4196446 -1.09857,0.8563766 -1.63003,1.3148132 0.53152,-0.4584973 1.07602,-0.895118 1.63003,-1.3148132 z m 76.72996,0.1132057 c 0.0105,0.00982 0.0218,0.018588 0.0323,0.028443 v 5.19e-4 c -0.0105,-0.00992 -0.0217,-0.019043 -0.0323,-0.02896 z M 82.730411,7.3023409 c 0.0611,0.077095 0.124784,0.1519259 0.183834,0.2306299 -0.05902,-0.078662 -0.122772,-0.1535863 -0.183834,-0.2306299 z m -20.985295,0.016938 c 0.140253,0.4248314 0.249604,0.8610241 0.330173,1.3053371 0.08058,0.4443139 0.132691,0.8968604 0.158839,1.3548275 -0.02615,-0.4579667 -0.07827,-0.9105132 -0.158839,-1.3548271 -0.08058,-0.444313 -0.18992,-0.8805057 -0.330173,-1.3053375 z m 21.874262,0.4649479 c 0.15648,0.2343485 0.298686,0.4793043 0.437976,0.7266543 C 83.918092,8.263572 83.775824,8.0185343 83.619378,7.7842268 Z m -0.0552,0.7145392 c 0.03514,0.059164 0.06488,0.1222326 0.09895,0.1821877 -0.03404,-0.059913 -0.06383,-0.1230683 -0.09895,-0.1821877 z m 18.130912,0.051079 c -0.48004,0.4235575 -0.95035,0.8623983 -1.4108,1.3158626 0.46049,-0.4535047 0.93072,-0.8922646 1.4108,-1.3158626 z M 84.255771,8.8562958 c 0.192605,0.3728741 0.369215,0.757498 0.5213,1.1589542 0.160839,0.424577 0.298151,0.865171 0.410373,1.322191 -0.112222,-0.45702 -0.249534,-0.897614 -0.410373,-1.322191 -0.152059,-0.4013955 -0.328737,-0.7861408 -0.5213,-1.1589542 z m -0.146859,0.7040128 c 0.04781,0.1059708 0.09391,0.2129717 0.138526,0.3211939 -0.04461,-0.108202 -0.09072,-0.2152433 -0.138526,-0.3211939 z m 15.907168,0.5665744 c -0.503304,0.506041 -0.992853,1.031566 -1.471187,1.571243 0.478404,-0.539759 0.967793,-1.06512 1.471187,-1.571243 z m -15.426489,0.708742 c 0.02149,0.0701 0.04748,0.137028 0.06771,0.207988 -0.02022,-0.07096 -0.0462,-0.137884 -0.06771,-0.207988 z m 56.433649,0.114795 c 0.51252,0.581943 0.99911,1.183602 1.46339,1.800292 -0.46429,-0.61671 -0.95085,-1.218329 -1.46339,-1.800292 z m -78.785988,0.415976 c -0.02081,0.421275 -0.06484,0.845444 -0.119257,1.270581 0.0544,-0.424984 0.09845,-0.849448 0.119257,-1.270581 z m 35.987879,0.699266 c -0.484957,0.561237 -0.961298,1.133073 -1.418598,1.726581 -0.458812,0.595475 -0.897614,1.211828 -1.327461,1.837158 0.429847,-0.62532 0.868649,-1.241693 1.327461,-1.837158 0.457279,-0.593468 0.93366,-1.165374 1.418598,-1.726581 z m -13.29391,0.201151 c 0.01872,0.109791 0.03049,0.223771 0.04634,0.335408 -0.01585,-0.111586 -0.02765,-0.225657 -0.04634,-0.335408 z M 62.063834,13.01031 c -0.04755,0.318983 -0.10246,0.637741 -0.166129,0.956755 0.06363,-0.318861 0.118592,-0.637935 0.166129,-0.956755 z m 80.873776,0.38386 c 0.29438,0.412461 0.5901,0.823832 0.86346,1.248989 -0.2733,-0.425076 -0.56914,-0.8366 -0.86346,-1.248989 z m -57.856927,0.237468 c 0.0075,0.125911 0.01627,0.251039 0.02031,0.379121 -0.004,-0.12799 -0.01277,-0.253291 -0.02031,-0.379121 z m -23.255888,0.696636 c -0.09175,0.421928 -0.19202,0.843355 -0.307259,1.261634 -0.115892,0.420634 -0.245729,0.836854 -0.38121,1.250568 0.135479,-0.413673 0.265314,-0.829976 0.38121,-1.250568 0.115257,-0.418289 0.215489,-0.839696 0.307259,-1.261634 z m 82.462685,1.123669 c 0.23439,0.389524 0.47069,0.777643 0.68795,1.175808 -0.2172,-0.398094 -0.45361,-0.786355 -0.68795,-1.175808 z m -49.084944,0.581321 c -0.412574,0.615161 -0.812959,1.241938 -1.196749,1.88244 0.383886,-0.640655 0.784065,-1.267136 1.196749,-1.88244 z m -10.24684,0.623975 c -0.05294,0.376625 -0.123842,0.763978 -0.204145,1.156315 0.08037,-0.392469 0.151177,-0.779569 0.204145,-1.156315 z m -23.94644,0.55867 c -0.07875,0.23015 -0.161297,0.455552 -0.244765,0.682422 0.08324,-0.226299 0.166211,-0.452863 0.244765,-0.682422 z m 84.408824,0.276972 c 0.19971,0.393447 0.39997,0.785691 0.58328,1.185809 -0.18317,-0.399812 -0.38374,-0.792657 -0.58328,-1.185809 z m -60.738396,0.647145 c -0.06685,0.301406 -0.142227,0.607167 -0.225497,0.91779 0.08326,-0.310522 0.158647,-0.616466 0.225497,-0.91779 z m 9.136019,0.102669 c -0.346329,0.589243 -0.680166,1.188491 -1.001458,1.796612 0.321328,-0.608193 0.655084,-1.207309 1.001458,-1.796612 z m -9.453174,1.155797 c -0.11788,0.414167 -0.245651,0.83386 -0.393188,1.264258 -0.146332,0.426905 -0.313104,0.864387 -0.489532,1.307453 0.176468,-0.443137 0.343168,-0.880476 0.489532,-1.307453 0.147519,-0.430318 0.275314,-0.850171 0.393188,-1.264258 z m 62.036181,0.206411 c 0.16462,0.390125 0.32826,0.779836 0.47755,1.174747 -0.14923,-0.394739 -0.313,-0.784774 -0.47755,-1.174747 z m -86.319564,0.03218 c -0.365407,0.853409 -0.750197,1.667456 -1.131131,2.424262 0.380934,-0.756806 0.765724,-1.570853 1.131131,-2.424262 z m 32.552826,0.744016 c -0.346527,0.669492 -0.675709,1.350509 -0.991041,2.039884 0.315376,-0.689477 0.64446,-1.370301 0.991041,-2.039884 z m 54.585928,1.362732 c 0.13624,0.396419 0.2691,0.792909 0.39006,1.192647 -0.12089,-0.399535 -0.2539,-0.79643 -0.39006,-1.192647 z m -63.899011,0.61818 c -0.103195,0.249273 -0.216307,0.503374 -0.329131,0.757716 0.112797,-0.254272 0.225957,-0.508513 0.329131,-0.757716 z m 105.214461,0.305403 c 0.21295,1.046331 0.39443,2.1112 0.54734,3.190407 -0.15292,-1.079197 -0.33438,-2.144086 -0.54734,-3.190407 z m -97.093439,0.201675 c -0.31661,0.711677 -0.622206,1.42992 -0.904593,2.159416 0.282404,-0.729536 0.587962,-1.447699 0.904593,-2.159416 z m 26.737289,0.395448 c -0.0104,10e-4 -0.0205,0.003 -0.0308,0.004 0.0103,-10e-4 0.0204,-0.003 0.0308,-0.004 z m -0.84209,0.237475 c -0.006,0.003 -0.0126,0.006 -0.0188,0.0091 0.006,-0.003 0.0126,-0.006 0.0188,-0.0091 z m 30.54783,0.40755 c 0.10804,0.400022 0.21079,0.799679 0.30361,1.201603 -0.0927,-0.40158 -0.19567,-0.801905 -0.30361,-1.201603 z m 0.62806,0.67189 c 0.18499,0.753841 0.34673,1.510202 0.47805,2.267888 0.13737,0.792383 0.24558,1.585465 0.32446,2.376876 0.0789,0.791402 0.12853,1.580982 0.14843,2.365816 0.0198,0.784845 0.0102,1.565238 -0.0298,2.33792 -0.0395,0.772682 -0.1087,1.537694 -0.20831,2.292628 -0.0996,0.754923 -0.22942,1.499445 -0.38954,2.231025 0.16012,-0.73158 0.28992,-1.476102 0.38954,-2.231025 0.0996,-0.754934 0.1687,-1.519946 0.20831,-2.292628 0.0395,-0.772682 0.0496,-1.553075 0.0298,-2.33792 -0.0198,-0.784834 -0.0695,-1.574414 -0.14843,-2.365816 -0.079,-0.791411 -0.18709,-1.584493 -0.32446,-2.376876 -0.13128,-0.757413 -0.2933,-1.514118 -0.47805,-2.267888 z m -25.0979,0.15007 c 0.0105,0.01012 0.0195,0.02004 0.0298,0.03006 -0.0101,-0.01012 -0.0195,-0.02004 -0.0298,-0.03006 z m 0.24321,0.270118 c 1.01384,1.262679 0.39083,2.93568 -0.65878,4.454685 1.03099,-1.523579 1.63533,-3.19916 0.65878,-4.454685 z m -37.092449,0.02944 c 0.07964,0.002 0.163579,0.01133 0.243724,0.01417 -0.380531,-0.01366 -0.751336,-0.01265 -1.120194,-0.0081 0.291326,-0.003 0.577791,-0.01356 0.87647,-0.006 z m -1.430578,0.01012 c -0.50863,0.01812 -1.004776,0.05292 -1.486825,0.104262 0.482121,-0.0514 0.978117,-0.08611 1.486825,-0.104262 z m 2.357043,0.04421 c 0.352573,0.02226 0.706715,0.04908 1.067596,0.08692 -0.360585,-0.03774 -0.715304,-0.06465 -1.067596,-0.08692 z m 3.821993,0.07477 c 0.716557,0.06607 1.447208,0.15865 2.189875,0.279072 5.22e-4,9.2e-5 9.58e-4,-8.1e-5 0.0016,0 0.742709,0.120474 1.497531,0.269127 2.26122,0.44757 h 5.17e-4 c 0.602773,0.140862 1.215027,0.315844 1.827939,0.494964 -2.165751,-0.632507 -4.27956,-1.03602 -6.277986,-1.220554 -9.88e-4,-2.02e-4 -0.0021,-9e-4 -0.0031,-10e-4 z m -2.004476,0.1032 c 0.355087,0.04725 0.71275,0.102745 1.074366,0.165349 -0.361303,-0.06253 -0.719581,-0.118095 -1.074366,-0.165349 z m 1.853451,0.309621 c 0.372847,0.07519 0.749192,0.162496 1.127485,0.254333 -0.378068,-0.09178 -0.754856,-0.179172 -1.127485,-0.254333 z m 97.919396,0.285398 c 0.1529,1.079206 0.27739,2.172914 0.376,3.276233 0.0892,0.999523 0.15125,2.008405 0.2005,3.020858 -0.0493,-1.012291 -0.11118,-2.021518 -0.2005,-3.020858 -0.0987,-1.103502 -0.22307,-2.196865 -0.376,-3.276233 z m -96.032092,0.157962 c 0.410573,0.111042 0.824648,0.23957 1.239972,0.370697 -0.415065,-0.131031 -0.829654,-0.25971 -1.239972,-0.370691 z m 55.350952,0.09319 c 0.0791,0.397613 0.15087,0.794549 0.21507,1.192658 -0.0642,-0.397857 -0.13601,-0.795298 -0.21507,-1.192658 z m 4.65367,0.367014 c 0.008,0.04341 0.0155,0.08672 0.0234,0.130066 -0.008,-0.04341 -0.0153,-0.08672 -0.0234,-0.130066 z M 94.981726,26.60399 c 0.605105,0.206562 1.213927,0.434364 1.825325,0.685064 -0.611448,-0.25072 -1.22017,-0.478482 -1.825325,-0.685064 z m -38.883932,0.334898 c 0.611015,0.235987 1.19937,0.49717 1.764918,0.78193 0.565546,0.28478 1.10829,0.593177 1.627953,0.924107 0.519665,0.330932 1.016059,0.684417 1.489427,1.05892 0.473369,0.374482 0.923717,0.769838 1.350379,1.185271 0.426662,0.415432 0.829706,0.851041 1.209249,1.304813 0.379541,0.453772 0.735585,0.925878 1.067596,1.415389 0.332011,0.489491 0.640314,0.995971 0.924381,1.51859 0.284067,0.52261 0.543894,1.061298 0.779606,1.614425 -0.235712,-0.553127 -0.495539,-1.091815 -0.779606,-1.614425 -0.284067,-0.522619 -0.59237,-1.029099 -0.924381,-1.51859 -0.332011,-0.489521 -0.688055,-0.961638 -1.067596,-1.41541 -0.379543,-0.453771 -0.782587,-0.88938 -1.209249,-1.304813 -0.426662,-0.415432 -0.87701,-0.810788 -1.350379,-1.185271 -0.473368,-0.374502 -0.969762,-0.727977 -1.489427,-1.058919 -0.519663,-0.33093 -1.062407,-0.639327 -1.627953,-0.924108 -0.565548,-0.284759 -1.153903,-0.545942 -1.764918,-0.781929 z m 44.315126,0.383861 c 0.009,0.003 0.018,0.006 0.0271,0.0091 0.37242,0.143938 0.73968,0.31546 1.10302,0.507067 l 0.006,0.003 c -0.36506,-0.192761 -0.73455,-0.365082 -1.10874,-0.509698 -0.009,-0.003 -0.018,-0.006 -0.0271,-0.01012 z m -3.396512,0.05636 c 0.320878,0.137483 0.638907,0.291985 0.952504,0.470214 -0.313567,-0.178219 -0.631646,-0.332741 -0.952504,-0.470214 z m 4.891152,0.673994 c 0.23881,0.137433 0.47726,0.276282 0.71139,0.433364 0.003,0.002 0.005,0.004 0.008,0.005 -0.23675,-0.159097 -0.47766,-0.299635 -0.7192,-0.438635 z m -3.60275,0.01052 c 0.229824,0.142349 0.459669,0.284314 0.684822,0.447569 -0.225153,-0.163265 -0.454998,-0.30521 -0.684822,-0.447569 z m 50.45668,0.239569 c 0.052,0.400952 0.0944,0.800478 0.13123,1.200561 -0.0368,-0.39983 -0.0793,-0.799851 -0.13123,-1.200561 z m -49.371898,0.524456 c 0.195363,0.154258 0.390972,0.306049 0.582232,0.475476 -0.19112,-0.169286 -0.387018,-0.321328 -0.582232,-0.475476 z m 23.542308,0.725073 c -0.0824,0.116669 -0.16179,0.232618 -0.2484,0.34699 0.085,-0.114503 0.16773,-0.230271 0.2484,-0.34699 z m -18.78708,0.133739 c 0.17459,0.155068 0.34842,0.311847 0.51921,0.478118 l 0.007,0.007 c -0.17317,-0.168749 -0.34956,-0.327683 -0.52651,-0.485484 z m -3.74753,0.02054 c 0.17679,0.16969 0.35379,0.337994 0.52651,0.520231 -0.17272,-0.182237 -0.34972,-0.350541 -0.52651,-0.520231 z m 48.57459,0.785623 c 0.0244,0.402704 0.036,0.802765 0.0448,1.203181 -0.009,-0.400213 -0.0203,-0.800679 -0.0448,-1.203181 z m -43.89122,0.0937 c 0.003,0.003 0.006,0.005 0.008,0.0081 0.1834,0.191405 0.3641,0.388516 0.54266,0.591841 -0.18116,-0.206219 -0.36486,-0.406306 -0.55099,-0.60027 z m -3.73658,0.110567 c 0.1641,0.186435 0.32755,0.372852 0.48744,0.570267 -0.15975,-0.197233 -0.32349,-0.383993 -0.48744,-0.570267 z m 0.89521,1.098402 c 0.15549,0.205783 0.30998,0.412821 0.46089,0.628713 -0.15085,-0.21579 -0.30547,-0.423011 -0.46089,-0.628713 z m 18.27881,0.520251 c -0.25502,0.417051 -0.51348,0.836976 -0.78585,1.271108 l -0.15988,-0.204833 c 0,0 -0.0679,-0.116961 -0.0808,-0.138484 0.19981,-0.169062 0.56745,-0.487972 1.02646,-0.927791 z m 28.51054,0.348578 c -0.004,0.403087 -0.0226,0.801783 -0.0427,1.201066 0.02,-0.398969 0.0387,-0.798302 0.0427,-1.201066 z m -42.09348,0.16534 c 0.002,0.003 0.005,0.006 0.007,0.0091 0.16071,0.225171 0.31549,0.459681 0.47077,0.694536 -0.15733,-0.237779 -0.31466,-0.475639 -0.47754,-0.703491 z m -3.84907,0.169022 c 0.14602,0.223147 0.29008,0.448996 0.43119,0.681361 -0.14102,-0.232203 -0.28527,-0.458366 -0.43119,-0.681361 z m 86.60651,0.05211 c 0.0281,0.743277 0.0471,1.487475 0.0562,2.233646 -0.009,-0.745898 -0.0283,-1.490643 -0.0562,-2.233646 z m -85.81338,1.245831 c 0.13894,0.243991 0.27484,0.491858 0.4083,0.744552 -0.1334,-0.252572 -0.26944,-0.500672 -0.4083,-0.744552 z m 55.56499,0.07902 h 5.3e-4 c -0.002,0.002 -0.003,0.005 -0.005,0.007 0.002,-0.002 0.002,-0.005 0.004,-0.007 z m 4.78909,0.213787 c 0.009,0.005 0.0174,0.01012 0.026,0.01477 -0.009,-0.005 -0.0173,-0.01012 -0.026,-0.01477 z m -15.30049,0.211146 c -0.034,0.411213 -0.0859,0.816051 -0.13748,1.221608 0.0515,-0.405375 0.1035,-0.810587 0.13748,-1.221608 z m -40.35512,0.659252 c 9.9e-4,0.002 0.003,0.004 0.004,0.007 0.1455,0.268358 0.28156,0.548564 0.42027,0.825633 -0.14001,-0.279387 -0.27752,-0.56195 -0.42443,-0.832483 z m -3.95844,0.227994 c 0.12866,0.259645 0.25322,0.523884 0.376,0.791412 -0.12267,-0.267264 -0.24746,-0.53202 -0.376,-0.791412 z m 85.14,0.513391 c 0.003,1.004603 -0.005,2.009356 -0.0318,3.011904 0.0265,-1.002285 0.0345,-2.007535 0.0318,-3.011904 z m -41.0764,0.686106 c -0.0678,0.424873 -0.1566,0.84067 -0.24425,1.257418 0.0876,-0.416596 0.17641,-0.832696 0.24425,-1.257418 z m -43.38347,0.271707 c 0.12112,0.281745 0.23655,0.569044 0.35101,0.858287 -0.11442,-0.289142 -0.22993,-0.576633 -0.35101,-0.858287 z m 54.07817,0.449674 c 0.004,0.01579 0.009,0.03157 0.014,0.04736 -0.005,-0.01589 -0.009,-0.03147 -0.014,-0.04736 z m -92.544948,0.500237 c 0.0401,0.11513 0.07939,0.230412 0.117695,0.346473 -0.03829,-0.115989 -0.07762,-0.231413 -0.117695,-0.346473 z m 39.085458,0.597639 c 0.10747,0.290528 0.20823,0.5866 0.30883,0.883562 -0.10058,-0.2968 -0.20142,-0.593196 -0.30883,-0.883562 z m 42.35858,0.216418 c -0.11127,0.457546 -0.24684,0.902728 -0.38277,1.34798 0.13591,-0.445172 0.27151,-0.890514 0.38277,-1.34798 z m 12.11071,1.321651 c 0.005,0.01134 0.0104,0.02246 0.0156,0.03369 -0.005,-0.01164 -0.0103,-0.02196 -0.0156,-0.03369 z m -53.91412,0.08479 c 0.0979,0.311726 0.18697,0.629594 0.27704,0.94728 -0.0899,-0.317565 -0.17926,-0.635665 -0.27704,-0.94728 z m 41.23524,0.574468 c -0.0171,0.0511 -0.0367,0.100781 -0.0541,0.151658 0.0175,-0.0509 0.037,-0.100579 0.0541,-0.151658 z m -80.005646,0.437571 c 0.02321,0.118571 0.04561,0.237273 0.06718,0.356481 -0.02155,-0.119137 -0.04398,-0.237981 -0.06718,-0.356481 z m 39.248476,0.648734 c 0.0875,0.334675 0.1646,0.675047 0.24319,1.015197 -0.0786,-0.339978 -0.15577,-0.680694 -0.24319,-1.015197 z m 40.05152,0.746657 c -0.003,0.007 -0.005,0.01457 -0.008,0.02155 -0.13755,0.313202 -0.28217,0.621771 -0.43381,0.925686 0.155,-0.310856 0.30181,-0.626771 0.44214,-0.94728 z m -79.00055,0.466023 c 0.09198,0.757585 0.152688,1.525349 0.182273,2.301057 0.02959,0.775708 0.02812,1.559176 -0.0036,2.347381 -0.03177,0.788224 -0.0938,1.581254 -0.185916,2.376359 -0.09212,0.795105 -0.214172,1.592082 -0.365588,2.388463 -0.151417,0.79639 -0.332439,1.592203 -0.54213,2.384252 -0.173647,0.655903 -0.376421,1.307474 -0.592646,1.956162 0.213298,-0.649437 0.419073,-1.300543 0.592646,-1.956162 0.209691,-0.792049 0.390713,-1.587862 0.54213,-2.384252 0.151416,-0.796381 0.273473,-1.593358 0.365588,-2.388463 0.09211,-0.795105 0.154139,-1.588135 0.185916,-2.376359 0.03177,-0.788205 0.03323,-1.571673 0.0036,-2.347381 -0.02959,-0.775708 -0.09029,-1.543472 -0.182273,-2.301057 z m 39.35784,0.518652 c 0.0814,0.38703 0.1503,0.779958 0.21977,1.172644 -0.0694,-0.392757 -0.13842,-0.785553 -0.21977,-1.172644 z m 39.20577,0.888299 c -0.28473,0.518704 -0.59228,1.021045 -0.92229,1.505436 -0.33003,0.48438 -0.68252,0.950933 -1.05719,1.398532 -0.37466,0.447599 -0.77128,0.875922 -1.18998,1.284272 -0.4187,0.408349 -0.85963,0.796541 -1.32173,1.163171 -0.46209,0.36662 -0.94552,0.711728 -1.45036,1.034149 -0.50487,0.322432 -1.03097,0.622025 -1.57797,0.89779 -0.54699,0.275763 -1.11498,0.527931 -1.70347,0.754559 -0.5885,0.226618 -1.19753,0.427888 -1.82688,0.602901 0.62935,-0.175013 1.23838,-0.376283 1.82688,-0.602901 0.58849,-0.226628 1.15648,-0.478796 1.70347,-0.754559 0.547,-0.275765 1.0731,-0.575358 1.57797,-0.89779 0.50484,-0.322421 0.98827,-0.667529 1.45036,-1.034149 0.46209,-0.36663 0.90303,-0.754822 1.32173,-1.163171 0.4187,-0.40835 0.81532,-0.836673 1.18998,-1.284272 0.37467,-0.447599 0.72716,-0.914152 1.05719,-1.398532 0.33001,-0.484391 0.63756,-0.986732 0.92229,-1.505436 z M 38.312684,45.470577 c -9.45e-4,0.02367 0.03099,0.08509 0.08386,0.172705 -0.0529,-0.08773 -0.085,-0.149148 -0.08386,-0.172705 z m 69.372396,0 c 0.0936,0.581905 0.17435,1.168615 0.2406,1.759759 -0.0662,-0.591052 -0.14715,-1.177935 -0.2406,-1.759759 z m -28.355354,0.131634 c 1.835358,5.280945 2.933795,9.878901 -0.01458,9.978265 -4.065556,0.137018 -2.378111,-4.832071 -1.044163,-7.764087 -1.174202,2.780519 -2.634994,7.404227 0.53484,7.606641 4.456593,0.284608 0.608025,-9.23594 0.456203,-9.607558 0.0049,-0.0091 0.05312,-0.102684 0.05312,-0.102684 z m -40.933197,0.04159 c 0.04344,0.07204 0.197499,0.306818 0.269762,0.416504 -0.113337,-0.170497 -0.209686,-0.316935 -0.269762,-0.416502 z m -0.971773,1.174221 c -0.04581,0.07295 -0.09175,0.147439 -0.139569,0.224837 0.05062,-0.08206 0.09119,-0.147814 0.139569,-0.224837 z m 70.508734,0.481274 c 0.0653,0.592509 0.11546,1.189127 0.15206,1.788182 -0.0366,-0.598985 -0.0868,-1.195723 -0.15206,-1.788182 z m 80.90815,1.830316 c -0.2823,1.754386 -0.63385,3.387185 -1.02749,4.940158 0.39359,-1.552831 0.74522,-3.185965 1.02749,-4.940158 z m -80.73161,0.592378 c 0.0174,0.399253 0.0354,0.798181 0.0395,1.198972 -0.004,-0.4007 -0.0221,-0.799811 -0.0395,-1.198972 z m -67.347083,0.06314 c 7.42e-4,0.002 0.0018,0.003 0.0026,0.005 0.01085,0.02671 0.02114,0.05282 0.03175,0.07954 0.0017,0.004 0.0029,0.0091 0.0047,0.01315 -0.01297,-0.03268 -0.02578,-0.06537 -0.03907,-0.09795 z m 67.378333,1.881911 c -0.004,0.367065 -0.007,0.733715 -0.0223,1.101034 0.0156,-0.367207 0.0182,-0.73409 0.0223,-1.101034 z m 0.40569,1.297973 c -0.0622,1.285709 -0.19637,2.571722 -0.4083,3.845439 0.21195,-1.273707 0.3461,-2.559699 0.4083,-3.845439 z m 31.24722,0.05737 c -0.0702,0.01842 -0.13735,0.04088 -0.20829,0.05848 h -5.4e-4 v -5.36e-4 c 0.071,-0.0175 0.13838,-0.03966 0.20883,-0.05798 z m -98.547441,0.05475 c -0.0014,0.006 -0.0027,0.01164 -0.0041,0.01741 0.0014,-0.006 0.0027,-0.01164 0.0041,-0.01741 z m 93.765151,0.108462 c 0,0 0.24073,0.437178 0.55983,1.044167 -0.26121,-0.490352 -0.55983,-1.044167 -0.55983,-1.044167 z m -26.94197,0.355955 c -0.0233,0.357735 -0.0469,0.715026 -0.0818,1.072073 0.0349,-0.356895 0.0583,-0.71449 0.0818,-1.072073 z m -67.004932,0.04685 c -0.0016,0.003 -0.002,0.007 -0.0036,0.01052 -0.0025,0.005 -0.0061,0.01012 -0.009,0.01528 0.0042,-0.0081 0.0084,-0.0172 0.0125,-0.0258 z m -0.180189,0.317514 c -0.0053,0.0081 -0.01074,0.01579 -0.01615,0.02367 0.0054,-0.0081 0.01085,-0.01579 0.01615,-0.02367 z m -0.232788,0.2975 c -0.0029,0.003 -0.0048,0.007 -0.0078,0.01012 -0.0045,0.005 -0.01052,0.0091 -0.01511,0.01417 0.0075,-0.0081 0.01549,-0.01609 0.02293,-0.02419 z m 0.315592,0.08267 v 5.26e-4 c -0.06811,0.08297 -0.145939,0.158245 -0.23383,0.226416 0.08789,-0.0682 0.165714,-0.14399 0.23383,-0.226942 z m -0.605144,0.19272 c -0.0081,0.007 -0.01724,0.01285 -0.02552,0.01942 0.0082,-0.007 0.01738,-0.01275 0.02552,-0.01942 z m 95.633171,0.581317 c 0.10842,0.217562 0.20143,0.413187 0.3208,0.662936 -0.1107,-0.231334 -0.21952,-0.459378 -0.3208,-0.662936 z M 35.900437,55.364989 c 0.0046,10e-4 0.009,0.003 0.01355,0.005 -8.01e-4,-2.53e-4 -0.0018,-2.74e-4 -0.0026,-5.27e-4 -0.0038,-10e-4 -0.0071,-0.002 -0.01094,-0.004 z m 71.995053,0.03734 c -0.0431,0.351746 -0.0875,0.702965 -0.14219,1.053121 0.0547,-0.350086 0.0992,-0.701447 0.14219,-1.053121 z m -71.67894,0.03946 c 0.01892,0.004 0.03796,0.007 0.05729,0.01052 -0.01598,-0.003 -0.03169,-0.005 -0.0474,-0.0081 -0.0035,-6.37e-4 -0.0063,-0.002 -0.01,-0.003 z m 71.39718,1.806093 c -0.0623,0.340332 -0.12668,0.679894 -0.2005,1.017827 0.0737,-0.337832 0.13826,-0.677597 0.2005,-1.017827 z m 29.39899,0.01629 c 0.13979,0.320601 0.26928,0.605775 0.4109,0.952543 -0.1391,-0.340463 -0.27355,-0.637285 -0.4109,-0.952543 z m -70.748808,0.380169 c -0.172004,0.482014 -0.355731,0.960951 -0.548901,1.43751 0.191407,-0.476923 0.379269,-0.954909 0.548901,-1.43751 z m 71.645588,0.619244 c 0.31109,0.773339 0.62079,1.602807 0.90771,2.469016 -0.28692,-0.866209 -0.59662,-1.695677 -0.90771,-2.469016 z m -0.30986,0.39649 c 0.27846,0.702954 0.55451,1.43423 0.81085,2.209957 -0.25596,-0.774583 -0.5328,-1.507914 -0.81085,-2.209957 z m -30.37649,0.408612 c -0.0835,0.336526 -0.17118,0.671413 -0.26664,1.004672 0.0954,-0.333107 0.18325,-0.668287 0.26664,-1.004672 z m 0.0395,1.51437 c -0.16628,0.550335 -0.35516,1.093454 -0.55516,1.632861 0.19999,-0.539336 0.38889,-1.082597 0.55516,-1.632861 z m -0.54057,0.26171 c -0.10593,0.333298 -0.21833,0.664006 -0.33695,0.993076 0.11858,-0.328938 0.23106,-0.659909 0.33695,-0.993076 z m -0.14635,1.721833 c -0.20297,0.52517 -0.42022,1.044884 -0.6567,1.557041 0.23642,-0.512005 0.45377,-1.032033 0.6567,-1.557041 z m -0.47702,0.03106 c -0.12729,0.322038 -0.26293,0.64027 -0.40309,0.957288 0.14009,-0.316847 0.27587,-0.635432 0.40309,-0.957288 z m -38.979239,0.03369 c -0.01371,0.02388 -0.02738,0.04776 -0.04113,0.07164 0.01376,-0.02388 0.02746,-0.04776 0.04113,-0.07164 z m 72.051829,0.894095 c 0.10289,0.429731 0.19416,0.863083 0.2755,1.297447 -0.0814,-0.434344 -0.1726,-0.867716 -0.2755,-1.297447 z m -33.81727,0.776679 c -0.15103,0.313791 -0.31261,0.622562 -0.47703,0.930422 0.16437,-0.307769 0.32604,-0.616723 0.47703,-0.930422 z m 0.44265,0.07477 c -0.22247,0.468463 -0.45965,0.930381 -0.71138,1.385893 0.25173,-0.455482 0.48891,-0.91746 0.71138,-1.385893 z m 33.71054,0.812479 c 0.0526,0.307364 0.10171,0.614223 0.14112,0.921476 -0.0393,-0.307071 -0.0884,-0.614294 -0.14112,-0.921476 z M 104.48693,65.9455 c -0.17796,0.308103 -0.36913,0.609377 -0.56139,0.910428 0.19226,-0.301041 0.38342,-0.602335 0.56139,-0.910428 z m 0.46245,0.06739 c -0.28014,0.493509 -0.58032,0.977485 -0.89626,1.453305 0.31599,-0.475871 0.61608,-0.959746 0.89626,-1.453305 z m 3.34341,0.325933 c -0.0336,0.05181 -0.0681,0.103181 -0.10208,0.154816 0.034,-0.0516 0.0686,-0.102988 0.10208,-0.154816 z m 31.40764,0.260131 c 0.0279,0.268448 0.0517,0.535804 0.0676,0.802461 -0.0159,-0.266555 -0.0398,-0.534114 -0.0676,-0.802461 z m -36.21078,0.929895 c -0.20989,0.30526 -0.43576,0.601556 -0.6614,0.898306 0.22555,-0.296629 0.45159,-0.593176 0.6614,-0.898306 z m 0.3536,0.245368 c -0.33222,0.483916 -0.67714,0.961224 -1.04832,1.423819 0.37117,-0.462575 0.7161,-0.939924 1.04832,-1.423819 z m 35.94622,0.144292 c 0.007,0.257754 0.008,0.51323 0.003,0.767715 0.005,-0.254262 0.005,-0.510173 -0.003,-0.767715 z m -37.42994,1.121565 c -0.2512,0.308386 -0.52158,0.605339 -0.79106,0.903051 0.26946,-0.297681 0.53988,-0.594695 0.79106,-0.903051 z m 0.43538,0.158488 c -0.41503,0.517196 -0.85505,1.020458 -1.32017,1.508057 v 5.26e-4 c -0.46524,0.4877 -0.95593,0.959918 -1.47278,1.414864 -0.516843,0.454956 -1.059548,0.892578 -1.629503,1.311663 -0.284982,0.209538 -0.576877,0.413985 -0.875433,0.61395 -0.298549,0.199986 -0.60376,0.395498 -0.916043,0.585548 -0.312282,0.190039 -0.631466,0.374745 -0.957716,0.554462 -0.326247,0.179708 -0.659564,0.354407 -0.999895,0.523389 -0.610457,0.303094 -1.222296,0.574053 -1.834703,0.826179 -0.0019,7.79e-4 -0.0038,0.001 -0.0057,0.002 0.614241,-0.254384 1.228209,-0.524825 1.840431,-0.8288 0.340331,-0.168982 0.673682,-0.343165 0.999895,-0.522872 0.652425,-0.359416 1.27668,-0.740019 1.873756,-1.14 1.49269,-0.999938 2.814631,-2.121775 3.977701,-3.341004 0.46514,-0.487588 0.90514,-0.990861 1.32018,-1.508057 z m 36.97839,0.001 c -0.0147,0.255152 -0.0407,0.505985 -0.0703,0.756138 0.0296,-0.250012 0.0555,-0.501138 0.0703,-0.756138 z m -78.619327,1.013102 c 0.481752,0.396571 0.979161,0.779684 1.483697,1.155268 -0.504639,-0.375664 -1.002299,-0.758029 -1.484178,-1.154722 z m 78.937537,0.145851 c -0.0675,0.445019 -0.1607,0.882307 -0.28124,1.309022 -0.12051,0.426714 -0.2686,0.843078 -0.44682,1.245305 0.17822,-0.402227 0.32631,-0.818591 0.44682,-1.245305 0.12054,-0.426715 0.21372,-0.864003 0.28124,-1.309022 z m -0.44788,0.07052 c -0.0433,0.270756 -0.10394,0.534449 -0.16716,0.79721 0.0632,-0.262671 0.12383,-0.526555 0.16716,-0.79721 z m -38.55167,0.04321 c -0.30362,0.315096 -0.62941,0.616015 -0.95512,0.917258 0.32566,-0.301193 0.65154,-0.602223 0.95512,-0.917258 z m 38.29336,1.143683 c -0.10917,0.38365 -0.23722,0.758941 -0.39526,1.119986 0.15799,-0.360913 0.28612,-0.736498 0.39526,-1.119986 z m -76.35446,0.04008 c 0.466306,0.337995 0.939955,0.668085 1.423807,0.986237 -0.483849,-0.318152 -0.957505,-0.648253 -1.423807,-0.986237 z m 36.645094,0.168496 c -0.494613,0.432786 -1.011104,0.851447 -1.555034,1.251093 -0.560591,0.411911 -1.147886,0.80576 -1.762313,1.179494 -0.614436,0.373733 -1.256088,0.727411 -1.925841,1.059961 -0.376645,0.187013 -0.75371,0.36403 -1.13113,0.531817 0.377459,-0.167849 0.754485,-0.34533 1.13113,-0.532343 1.989255,-0.987704 3.72907,-2.165214 5.243188,-3.490022 z m -35.06297,0.924099 c 0.532884,0.346554 1.078115,0.677576 1.630558,0.997832 -0.552537,-0.320307 -1.097585,-0.651218 -1.630558,-0.997832 z m 2.047701,1.233729 c 0.479526,0.269692 0.965459,0.529509 1.458181,0.777721 -0.492848,-0.248262 -0.978537,-0.507968 -1.458181,-0.777721 z m 1.73888,0.922003 c 0.574148,0.282887 1.157454,0.548857 1.747732,0.800367 -0.590282,-0.2515 -1.17358,-0.51749 -1.747732,-0.800367 z m 2.164356,0.970978 c 0.493335,0.202575 0.991853,0.393758 1.495156,0.572889 -0.503401,-0.179171 -1.001649,-0.370263 -1.495115,-0.572889 z m 1.894594,0.715582 c 0.608191,0.207666 1.222618,0.398554 1.843555,0.569742 -0.621075,-0.171215 -1.235232,-0.362033 -1.843555,-0.569739 z m 19.504197,0.262762 c -0.01059,0.004 -0.02118,0.0081 -0.03175,0.01214 -0.30098,0.112611 -0.60189,0.225262 -0.903029,0.326469 0.311754,-0.105821 0.623216,-0.220557 0.934796,-0.338581 z m -2.063845,0.253797 c -0.756634,0.225656 -1.513371,0.415999 -2.268511,0.572362 -0.75514,0.156374 -1.508644,0.278789 -2.26018,0.369119 -0.751536,0.09036 -1.500817,0.14832 -2.246638,0.175873 -0.666177,0.02459 -1.328307,0.01619 -1.988331,-0.007 0.659939,0.02297 1.322238,0.03147 1.988331,0.007 2.237464,-0.08267 4.505426,-0.440385 6.775329,-1.117354 z m -15.234857,0.14585 c 0.520411,0.136845 1.045112,0.259473 1.573272,0.369119 -0.528172,-0.109636 -1.052849,-0.232284 -1.573272,-0.369119 z m 15.219755,0.297509 c -0.0036,10e-4 -0.0072,0.003 -0.01094,0.004 -0.171029,0.04948 -0.341972,0.09623 -0.512966,0.142168 0.174671,-0.04746 0.349192,-0.09481 0.523902,-0.145861 z m -13.155369,0.1722 c 0.633735,0.120624 1.271297,0.225181 1.914383,0.304349 -0.643223,-0.07912 -1.280514,-0.183694 -1.914383,-0.304349 z m 2.15967,0.329089 c 0.57471,0.06577 1.153283,0.111822 1.734192,0.142704 -0.580925,-0.03086 -1.159467,-0.0769 -1.734192,-0.142704 z m -46.498757,0.109525 c 0.295402,0.06537 0.591856,0.128152 0.891052,0.182722 -0.298923,-0.05555 -0.595832,-0.116647 -0.891052,-0.182722 z"
       sodipodi:nodetypes="csssscccccssccccccccscscccccsscsccscscssscccscccccccccccscccccccccccccsccsscccccccsscsccccccccccccccccccccccccccccccccccccccccccccccccccccccccccsccsscccccccccccccccscscscccccccccscscscccccccccccccccscscsccccccccccccscscscccccccccccccccccccccscscsccccccccccccccccccccccccccccccscscccscscscscccccccccccccccccscsccccccccccccccccccccccccccccccssscsssscscssssscccccccccccccccccccccccccccccccccccccccccccccccccccccccccccccccccccccccccccccccccccccccccccccccccccccccccccccccccccccccccccccccccccccccsccsscsssscccccssscsssscsssssssccccccccsccccccccccccccccccccccccccccccscsccccscccccccccccccccccccccccccccccccccccccccccccccccccccccccccccccccccccccccccccccccccccccccccccccccccccccccccccccccccccscscssssscsssscccccccccsscsccccccccccccccssscsccccccccccccscsccsscsscscsccccccccccccccccccccccccc" /><g
       inkscape:groupmode="layer"
       id="layer7"
       inkscape:label="O "><path
         style="fill:#241f1c;fill-opacity:1;stroke:none;stroke-width:6.2348;stroke-linecap:round;stroke-linejoin:round;stroke-dasharray:none;stroke-opacity:1;paint-order:markers stroke fill"
         d="m 165.16672,77.491337 c 1.94598,0.01802 28.09913,-0.44347 29.1701,-38.222478 0.49801,-17.56803 -3.62187,-35.8598399 -24.18306,-37.0997498 -23.1383,-1.39531814 -39.12653,7.5953787 -38.27369,36.3487628 -0.55971,18.860292 12.49107,36.258626 33.28665,38.973465 z"
         id="path4-8-6"
         sodipodi:nodetypes="sssss"
         inkscape:label="O shadow " /><path
         style="fill:#6c5d53;stroke:none;stroke-width:0.861999;stroke-linecap:round;stroke-linejoin:round;stroke-opacity:1;paint-order:markers stroke fill"
         d="m 161.06683,77.491337 c 1.83961,0.01802 26.56318,-0.44347 27.5756,-38.222478 0.47079,-17.56803 -3.42388,-35.8598399 -22.86116,-37.0997498 -21.87352,-1.39531814 -36.9878,7.5953787 -36.18158,36.3487628 -0.52911,18.860292 11.80829,36.258626 31.46714,38.973465 z"
         id="path4"
         sodipodi:nodetypes="sssss"
         inkscape:label="O  fill" /><path
         style="opacity:0.369;fill:#917c6f;fill-opacity:1;stroke:none;stroke-width:0.861999;stroke-linecap:round;stroke-linejoin:round;stroke-opacity:1;paint-order:markers stroke fill"
         d="m 134.40466,53.194258 c 0,0 5.31673,8.354857 5.31673,13.291817 0,0 23.16574,24.115155 42.7237,-1.89883 0,0 8.54474,-16.140064 5.88637,-35.508141 0,0 -25.44433,11.392987 -40.63498,11.203104 0,0 -2.46848,9.684036 -13.29182,12.91205 z"
         id="path13"
         inkscape:label="O arch "
         sodipodi:nodetypes="cccccc" /><path
         style="fill:#483e37;fill-opacity:1;stroke:none;stroke-width:0.861999;stroke-linecap:round;stroke-linejoin:round;stroke-opacity:1;paint-order:markers stroke fill"
         d="m 138.20232,63.827712 c 0,0 8.54474,-2.848248 13.4817,0.379767 4.93696,3.228012 8.16497,4.747077 12.15252,-1.139298 3.98754,-5.886376 10.0638,-5.506612 13.10193,-2.848248 3.03813,2.658364 5.50661,4.17743 5.50661,4.17743 l -4.36731,5.886375 -5.88638,3.987544 -6.26614,2.658364 -5.88638,0.56965 -5.88637,-1.329182 -8.35486,-4.177429 -3.79766,-3.228012 z"
         id="path8"
         inkscape:label="O wave " /><path
         style="fill:none;stroke:#241f1c;stroke-width:0.861999;stroke-linecap:round;stroke-linejoin:round;stroke-opacity:1;paint-order:markers stroke fill"
         d="m 161.06683,77.491337 c 1.83961,0.01802 26.56318,-0.44347 27.5756,-38.222478 0.47079,-17.56803 -3.42388,-35.8598399 -22.86116,-37.0997498 -21.87352,-1.39531814 -36.9878,7.5953787 -36.18158,36.3487628 -0.52911,18.860292 11.80829,36.258626 31.46714,38.973465 z"
         id="path4-8"
         sodipodi:nodetypes="sssss"
         inkscape:label="O outline " /><path
         style="fill:#241f1c;fill-opacity:1;stroke:none;stroke-width:0.861999;stroke-linecap:round;stroke-linejoin:round;stroke-opacity:1;paint-order:markers stroke fill"
         d="m 161.54764,43.247953 c 0,0 -6.83247,-10.932368 0.49099,-9.153715 7.63286,1.853797 -0.49099,9.153715 -0.49099,9.153715 z"
         id="path16"
         sodipodi:nodetypes="csc"
         inkscape:label="O  black " /></g><g
       inkscape:groupmode="layer"
       id="layer9"
       inkscape:label="P "
       transform="translate(-1.8797468,0.53707052)"><path
         style="fill:#241f1c;fill-opacity:1;stroke:none;stroke-width:5.43433;stroke-linecap:round;stroke-linejoin:round;stroke-dasharray:none;stroke-opacity:1;paint-order:markers stroke fill"
         d="m 141.2783,52.455123 c 0,0 20.05439,34.186631 -22.40091,21.492293 C 76.422088,61.253077 95.195211,0.18663564 127.12765,1.5934971 159.06008,3.0003633 164.8341,50.010625 138.4868,52.828645 98.39889,57.116312 136.38697,27.31783 128.51446,24.377237 c -10.58777,-3.954814 -2.48029,8.642479 -2.48029,8.642479"
         id="path2-0-4-8"
         sodipodi:nodetypes="cssssc"
         inkscape:label="P shaddow " /><path
         style="fill:#6c5d53;fill-opacity:1;stroke:none;stroke-width:0.848131;stroke-linecap:round;stroke-linejoin:round;stroke-opacity:1;paint-order:markers stroke fill"
         d="m 136.65925,52.455123 c 0,0 20.15536,34.186631 -22.5137,21.492293 C 71.476476,61.253077 90.344126,0.18663564 122.43734,1.5934971 c 32.09322,1.4068662 37.89631,48.4171279 11.41635,51.2351479 -40.289754,4.287667 -2.1104,-25.510815 -10.02255,-28.451408 -10.64109,-3.954814 -2.49278,8.642479 -2.49278,8.642479"
         id="path2-0"
         sodipodi:nodetypes="cssssc"
         inkscape:label="P fill" /><path
         style="opacity:0.369;fill:#917c6f;fill-opacity:1;stroke:none;stroke-width:0.861999;stroke-linecap:round;stroke-linejoin:round;stroke-opacity:1;paint-order:markers stroke fill"
         d="m 108.37159,40.884436 c 0,0 37.0272,-0.189883 40.4451,-0.759534 0,0 0.37977,7.785209 -12.3424,12.15252 0,0 13.39933,20.990584 -3.78693,24.347275 0,0 -18.52893,0.134267 -29.00181,-7.653255 0,0 10.58049,-12.939835 4.68604,-28.087006 z"
         id="path12"
         inkscape:label="P arch " /><path
         style="fill:#483e37;fill-opacity:1;stroke:none;stroke-width:0.861999;stroke-linecap:round;stroke-linejoin:round;stroke-opacity:1;paint-order:markers stroke fill"
         d="m 108.37159,59.682862 c 0,0 1.89883,6.64591 10.63345,3.607779 8.73462,-3.038128 8.12844,4.823752 9.64751,5.393403 1.51906,0.569648 10.09402,-8.795974 11.80928,-6.627643 1.25798,1.59027 1.74491,7.120616 0.41573,9.019448 -1.32919,1.89883 -3.07409,4.747078 -5.1628,5.126842 -2.08872,0.379767 -9.30428,0.379767 -11.20311,0.189884 -1.89883,-0.189884 -9.30427,-2.468481 -9.30427,-2.468481 l -6.07626,-1.708946 -4.55719,-2.658364 -2.08872,-1.708949 z"
         id="path7"
         inkscape:label="P wave "
         sodipodi:nodetypes="cssssssccccc" /><path
         style="fill:none;stroke:#241f1c;stroke-width:0.848131;stroke-linecap:round;stroke-linejoin:round;stroke-opacity:1;paint-order:markers stroke fill"
         d="m 136.65925,52.455123 c 0,0 20.15536,34.186631 -22.5137,21.492293 C 71.476476,61.253077 90.344126,0.18663564 122.43734,1.5934971 c 32.09322,1.4068662 37.89631,48.4171279 11.41635,51.2351479 -40.289754,4.287667 -2.1104,-25.510815 -10.02255,-28.451408 -10.64109,-3.954814 -2.49278,8.642479 -2.49278,8.642479"
         id="path2-0-4"
         sodipodi:nodetypes="cssssc"
         inkscape:label="P outline" /><path
         style="fill:#241f1c;fill-opacity:1;stroke:none;stroke-width:0.861999;stroke-linecap:round;stroke-linejoin:round;stroke-opacity:1;paint-order:markers stroke fill"
         d="m 121.09375,33.020577 c 0,0 -7.69026,-11.582869 1.1393,-9.77898 8.82956,1.803889 -1.1393,9.77898 -1.1393,9.77898 z"
         id="path17"
         inkscape:label="P black " /></g><g
       inkscape:groupmode="layer"
       id="layer10"
       inkscape:label="U "
       transform="translate(-2.6583635,-0.37976621)"><path
         style="display:inline;fill:#241f1c;fill-opacity:1;stroke:none;stroke-width:3.86887;stroke-linecap:round;stroke-linejoin:round;stroke-dasharray:none;stroke-opacity:1;paint-order:markers stroke fill"
         d="m 84.402893,46.038269 c 0,0 -6.107376,9.873919 0,9.684038 6.107374,-0.189883 -4.071584,-17.089479 -4.68232,-23.165739 -0.610739,-6.07626 10.993273,-9.304272 23.411597,-4.557195 12.41834,4.747079 20.15435,36.647439 -2.64652,47.091011 C 77.68478,85.533954 53.255279,65.216462 53.0517,50.97523 52.848121,36.733995 46.13001,8.6312967 59.769813,4.0741022 73.409617,-0.48309236 99.874914,3.5044529 87.253002,25.910659"
         id="path3-1"
         inkscape:label="U shadow " /><path
         style="display:inline;fill:#6c5d53;fill-opacity:1;stroke:none;stroke-width:0.861999;stroke-linecap:round;stroke-linejoin:round;stroke-opacity:1;paint-order:markers stroke fill"
         d="m 82.170434,46.038269 c 0,0 -5.696493,9.873919 0,9.684038 5.696493,-0.189883 -3.797662,-17.089479 -4.36731,-23.165739 -0.569651,-6.07626 10.253686,-9.304272 21.83656,-4.557195 C 111.22255,32.746452 118.43811,64.646812 97.1712,75.090384 75.904292,85.533954 53.118319,65.216462 52.928436,50.97523 52.738553,36.733995 46.472411,8.6312967 59.194578,4.0741022 71.916746,-0.48309236 96.60155,3.5044529 84.828798,25.910659"
         id="path3-6"
         inkscape:label="U fill" /><path
         style="opacity:0.369;fill:#917c6f;fill-opacity:1;stroke:none;stroke-width:0.861999;stroke-linecap:round;stroke-linejoin:round;stroke-opacity:1;paint-order:markers stroke fill"
         d="m 68.894989,37.813727 c 0,0 7.405439,10.44357 -6.076259,30.57118 0,0 20.127608,19.747843 40.25522,2.848247 0,0 11.77275,-11.203103 6.26614,-29.241998 z"
         id="path11"
         inkscape:label="U arch " /><path
         style="fill:#483e37;fill-opacity:1;stroke:none;stroke-width:0.861999;stroke-linecap:round;stroke-linejoin:round;stroke-opacity:1;paint-order:markers stroke fill"
         d="m 67.945571,60.599699 c 0,0 6.266143,8.924507 12.342403,6.266143 6.076259,-2.658364 8.924506,-6.266143 12.91205,-2.848248 3.987546,3.417896 8.544736,0.569651 11.203106,-2.278597 2.65836,-2.848245 5.12684,-0.949415 5.12684,-0.949415 l -4.17743,7.785209 -6.07626,5.316725 -8.354853,3.228012 -5.126842,0.949417 -7.595325,-0.949417 -6.266143,-2.088714 -5.316728,-2.658364 -3.987543,-3.987543 -0.379767,-2.658364 z"
         id="path6"
         inkscape:label="U wave" /><path
         style="display:inline;fill:none;stroke:#241f1c;stroke-width:0.861999;stroke-linecap:round;stroke-linejoin:round;stroke-opacity:1;paint-order:markers stroke fill"
         d="m 82.170434,46.038269 c 0,0 -5.696493,9.873919 0,9.684038 5.696493,-0.189883 -3.797662,-17.089479 -4.36731,-23.165739 -0.569651,-6.07626 10.253686,-9.304272 21.83656,-4.557195 C 111.22255,32.746452 118.43811,64.646812 97.1712,75.090384 75.904292,85.533954 53.118319,65.216462 52.928436,50.97523 52.738553,36.733995 46.472411,8.6312967 59.194578,4.0741022 71.916746,-0.48309236 96.60155,3.5044529 84.828798,25.910659"
         id="path3"
         inkscape:label="U outline " /><path
         style="fill:#241f1c;fill-opacity:1;stroke:none;stroke-width:0.861999;stroke-linecap:round;stroke-linejoin:round;stroke-opacity:1;paint-order:markers stroke fill"
         d="m 82.091863,46.073643 c 0,0 -4.936961,9.209331 -0.427236,9.494154 4.509722,0.284824 0.427236,-9.494154 0.427236,-9.494154 z"
         id="path15"
         inkscape:label="U black " /></g><g
       inkscape:groupmode="layer"
       id="layer12"
       inkscape:label="C"><path
         style="display:inline;fill:#241f1c;stroke:none;stroke-width:4.01901;stroke-linecap:round;stroke-linejoin:round;stroke-dasharray:none;stroke-opacity:1;paint-order:markers stroke fill"
         d="m 59.398613,27.017425 c 0,0 23.955492,-32.8917156 -21.033303,-23.8900026 C -6.6234933,12.129136 6.8731468,75.891271 39.930133,77.391561 72.987115,78.891841 83.449897,31.661964 56.556435,26.381849 15.637531,18.348057 51.944211,52.106661 43.545627,54.371878 32.250339,57.418378 41.81757,45.36409 41.81757,45.36409"
         id="path2-9-8"
         sodipodi:nodetypes="cssssc"
         inkscape:label="C shad " /><path
         style="fill:#6c5d53;fill-opacity:1;stroke:none;stroke-width:0.856654;stroke-linecap:round;stroke-linejoin:round;stroke-opacity:1;paint-order:markers stroke fill"
         d="m 55.969131,27.250352 c 0,0 23.254922,-32.8917153 -20.418192,-23.8900022 C -8.1221742,12.362063 4.9797598,76.124198 37.070004,77.624485 69.160247,79.124768 79.317039,31.894891 53.210069,26.614776 13.487833,18.580984 48.732737,52.339588 40.579766,54.604805 29.614798,57.651305 38.90224,45.597017 38.90224,45.597017"
         id="path2"
         sodipodi:nodetypes="cssssc"
         inkscape:label="C fill" /><path
         style="opacity:0.369;fill:#917c6f;fill-opacity:1;stroke:none;stroke-width:0.861999;stroke-linecap:round;stroke-linejoin:round;stroke-opacity:1;paint-order:markers stroke fill"
         d="m 9.2716928,25.851091 c 0,0 -7.0256744,29.241997 12.3424022,45.761829 C 40.98217,88.132749 61.679429,68.574789 64.147909,61.738998 66.61639,54.903207 70.034285,45.9787 66.426506,37.054194 Z"
         id="path10"
         inkscape:label="C arch " /><path
         style="fill:#483e37;fill-opacity:1;stroke:none;stroke-width:0.861999;stroke-linecap:round;stroke-linejoin:round;stroke-opacity:1;paint-order:markers stroke fill"
         d="m 16.411593,64.943412 c 0,0 6.042042,9.130199 15.709311,3.222424 9.667272,-5.907776 11.009948,-11.815551 17.320525,-8.324594 6.310579,3.490958 16.112116,0.134269 16.112116,0.134269 l -5.236437,7.518987 -6.176312,5.639239 -7.921789,3.625225 -8.760964,0.939876 -8.962364,-2.014015 -6.444846,-4.02803 -5.504973,-5.236437 z"
         id="path5"
         inkscape:label="C wave "
         sodipodi:nodetypes="cssccccccccc" /><path
         style="fill:none;stroke:#241f1c;stroke-width:0.856654;stroke-linecap:round;stroke-linejoin:round;stroke-opacity:1;paint-order:markers stroke fill"
         d="m 55.969131,27.250352 c 0,0 23.254922,-32.8917153 -20.418192,-23.8900022 C -8.1221742,12.362063 4.9797598,76.124198 37.070004,77.624485 69.160247,79.124768 79.317039,31.894891 53.210069,26.614776 13.487833,18.580984 48.732737,52.339588 40.579766,54.604805 29.614798,57.651305 38.90224,45.597017 38.90224,45.597017"
         id="path2-9"
         sodipodi:nodetypes="cssssc"
         inkscape:label="C outline " /><path
         style="fill:#241f1c;fill-opacity:1;stroke:none;stroke-width:0.861999;stroke-linecap:round;stroke-linejoin:round;stroke-opacity:1;paint-order:markers stroke fill"
         d="m 38.834286,45.407473 c 0,0 -8.042115,11.156898 -0.134266,9.734402 7.122193,-1.281169 -0.183713,-9.709942 0.134266,-9.734402 z"
         id="path14"
         sodipodi:nodetypes="csc"
         inkscape:label="C black " /></g></g><g
     inkscape:groupmode="layer"
     id="layer17"
     inkscape:label="Layer 3"
     style="display:inline"
     sodipodi:insensitive="true"><g
       inkscape:groupmode="layer"
       id="layer22"
       inkscape:label="O "
       transform="matrix(1,0,0,0.99299935,0,0.60761728)"><path
         style="display:inline;fill:none;fill-opacity:1;stroke:#000000;stroke-width:1.12898;stroke-linecap:round;stroke-linejoin:round;stroke-dasharray:none;stroke-opacity:1;paint-order:markers stroke fill"
         d="m 134.43724,91.352527 c -26.20387,37.151483 1.51906,71.008743 1.51906,71.008743 l 44.43265,-0.54903 c 0,0 13.4817,-68.446576 -11.2031,-73.387906 -24.68481,-4.941331 -34.74861,2.928193 -34.74861,2.928193 z"
         id="path106-6-5"
         inkscape:label="O glow " /><path
         style="fill:#22280b;fill-opacity:1;stroke:none;stroke-width:3.20818;stroke-linecap:round;stroke-linejoin:round;stroke-dasharray:none;stroke-opacity:1;paint-order:markers stroke fill"
         d="m 141.48488,92.502843 c -26.20387,37.151487 1.51906,71.008747 1.51906,71.008747 l 44.43265,-0.54903 c 0,0 13.4817,-68.446587 -11.2031,-73.387917 -24.68481,-4.94133 -34.74861,2.9282 -34.74861,2.9282 z"
         id="path106"
         inkscape:label="O fill" /><path
         style="fill:none;fill-opacity:1;stroke:#0c2c08;stroke-width:1.129;stroke-linecap:round;stroke-linejoin:round;stroke-dasharray:none;stroke-opacity:1;paint-order:markers stroke fill"
         d="m 134.43724,91.352527 c -26.20387,37.151483 1.51906,71.008743 1.51906,71.008743 l 44.43265,-0.54903 c 0,0 13.4817,-68.446576 -11.2031,-73.387906 -24.68481,-4.941331 -34.74861,2.928193 -34.74861,2.928193 z"
         id="path106-6"
         inkscape:label="O " /><g
         inkscape:groupmode="layer"
         id="layer22-5"
         inkscape:label="O "
         style="display:inline"><path
           style="display:inline;fill:none;fill-opacity:1;stroke:#000000;stroke-width:1.12898;stroke-linecap:round;stroke-linejoin:round;stroke-dasharray:none;stroke-opacity:1;paint-order:markers stroke fill"
           d="m 134.43724,91.352527 c -26.20387,37.151483 1.51906,71.008743 1.51906,71.008743 l 44.43265,-0.54903 c 0,0 13.4817,-68.446576 -11.2031,-73.387906 -24.68481,-4.941331 -34.74861,2.928193 -34.74861,2.928193 z"
           id="path106-6-5-8"
           inkscape:label="O glow " /><path
           style="fill:#3a4837;fill-opacity:1;stroke:#58a647;stroke-width:3.20818;stroke-linecap:round;stroke-linejoin:round;stroke-dasharray:none;stroke-opacity:1;paint-order:markers stroke fill"
           d="m 134.43724,91.352527 c -26.20387,37.151483 1.51906,71.008743 1.51906,71.008743 l 44.43265,-0.54903 c 0,0 13.4817,-68.446576 -11.2031,-73.387906 -24.68481,-4.941331 -34.74861,2.928193 -34.74861,2.928193 z"
           id="path106-1"
           inkscape:label="O fill" /><path
           style="fill:none;fill-opacity:1;stroke:#0c2c08;stroke-width:1.129;stroke-linecap:round;stroke-linejoin:round;stroke-dasharray:none;stroke-opacity:1;paint-order:markers stroke fill"
           d="m 134.43724,91.352527 c -26.20387,37.151483 1.51906,71.008743 1.51906,71.008743 l 44.43265,-0.54903 c 0,0 13.4817,-68.446576 -11.2031,-73.387906 -24.68481,-4.941331 -34.74861,2.928193 -34.74861,2.928193 z"
           id="path106-6-2"
           inkscape:label="O " /></g></g><g
       inkscape:groupmode="layer"
       id="layer21"
       inkscape:label="P "
       style="display:inline"
       transform="matrix(1,0,0,0.99117852,0,0.76989477)"><g
         inkscape:groupmode="layer"
         id="layer21-0"
         inkscape:label="P "
         style="display:inline;fill:#22280b;stroke:none"
         transform="translate(14.458105,0.73333774)"><path
           style="fill:#22280b;fill-opacity:1;stroke:none;stroke-width:1.14097;stroke-linecap:round;stroke-linejoin:round;stroke-dasharray:none;stroke-opacity:1;paint-order:markers stroke fill"
           d="m 131.75392,91.456722 c -3.92021,-2.057541 -42.148943,-20.502329 -39.729645,44.052818 0.74021,19.75122 4.809041,27.901 4.809041,27.901 l 52.379804,-0.0959 c -20.34706,-4.80738 -40.61932,-40.1063 -30.59255,-28.65121 26.17323,29.90165 61.39684,-17.87532 13.13335,-43.206728 z"
           id="path104-9-34"
           sodipodi:nodetypes="ssccsss"
           inkscape:label="P " /><path
           style="fill:#22280b;fill-opacity:1;stroke:none;stroke-width:1.1387;stroke-linecap:round;stroke-linejoin:round;stroke-dasharray:none;stroke-opacity:1;paint-order:markers stroke fill"
           d="m 126.09419,134.33161 c -0.45615,-0.50093 -1.17041,-1.23008 -1.94562,-2.17816 -4.35791,-5.32967 -9.37004,-19.50999 5.71534,-26.57199"
           id="path105-2"
           sodipodi:nodetypes="csc"
           inkscape:label="P arch " /></g><g
         inkscape:groupmode="layer"
         id="layer2"
         inkscape:label="P  1" /><g
         inkscape:groupmode="layer"
         id="layer3"
         inkscape:label="P  2" /><path
         style="display:inline;fill:none;fill-opacity:1;stroke:#58a647;stroke-width:3.21607;stroke-linecap:round;stroke-linejoin:round;stroke-dasharray:none;stroke-opacity:1;paint-order:markers stroke fill"
         d="m 138.95243,91.226565 c -3.86248,-2.036786 -41.528242,-20.295466 -39.144566,43.608315 0.729306,19.55193 4.738216,27.61948 4.738216,27.61948 l 47.77202,-0.0949 c -20.04742,-4.75888 -36.18472,-39.70163 -26.30561,-28.36212 25.78779,29.59994 60.49268,-17.69496 12.93994,-42.770765 z"
         id="path104-9-3"
         sodipodi:nodetypes="ssccss"
         inkscape:label="P glow " /><path
         style="fill:#3a4837;fill-opacity:1;stroke:#000000;stroke-width:1.12671;stroke-linecap:round;stroke-linejoin:round;stroke-dasharray:none;stroke-opacity:1;paint-order:markers stroke fill"
         d="m 138.95243,91.226565 c -3.86248,-2.036786 -41.528242,-20.295466 -39.144566,43.608315 0.729306,19.55193 4.738216,27.61948 4.738216,27.61948 l 47.77202,-0.0949 c -20.04742,-4.75888 -36.33028,-40.59275 -26.92273,-28.87408 25.18519,31.37236 61.1098,-17.183 13.55706,-42.258805 z"
         id="path104"
         sodipodi:nodetypes="ssccss"
         inkscape:label="P fill" /><path
         style="fill:none;fill-opacity:1;stroke:#0c2c08;stroke-width:1.12681;stroke-linecap:round;stroke-linejoin:round;stroke-dasharray:none;stroke-opacity:1;paint-order:markers stroke fill"
         d="m 138.95243,91.226565 c -3.86248,-2.036786 -41.528242,-20.295466 -39.144566,43.608315 0.729306,19.55193 4.738216,27.61948 4.738216,27.61948 l 47.77202,-0.0949 c -20.04742,-4.75888 -36.18472,-39.70163 -26.30561,-28.36212 25.78779,29.59994 60.49268,-17.69496 12.93994,-42.770765 z"
         id="path104-9"
         sodipodi:nodetypes="ssccsss"
         inkscape:label="P " /><path
         style="fill:none;fill-opacity:1;stroke:#0c2c08;stroke-width:1.1387;stroke-linecap:round;stroke-linejoin:round;stroke-dasharray:none;stroke-opacity:1;paint-order:markers stroke fill"
         d="m 126.09419,134.33161 c -0.45615,-0.50093 -1.17041,-1.23008 -1.94562,-2.17816 -4.35791,-5.32967 -9.37004,-19.50999 5.71534,-26.57199"
         id="path105"
         sodipodi:nodetypes="csc"
         inkscape:label="P arch " /></g><g
       inkscape:groupmode="layer"
       id="layer20"
       inkscape:label="U "
       transform="matrix(1,0,0,0.98654588,0,1.1471557)"><g
         inkscape:groupmode="layer"
         id="layer20-6"
         inkscape:label="U "
         style="display:inline;fill:#22280b;stroke:none"
         transform="translate(6.0895211,-1.5679555)"><path
           style="display:inline;fill:#22280b;fill-opacity:1;stroke:none;stroke-width:3.21607;stroke-linecap:round;stroke-linejoin:round;stroke-dasharray:none;stroke-opacity:1;paint-order:markers stroke fill"
           d="m 92.959275,137.50075 c -23.807661,9.31843 -19.711273,-29.05501 -17.959284,-42.909453 0.644004,-5.092678 22.600979,-17.040556 30.166359,5.424563 10.06304,29.8818 -1.83979,59.64463 -0.75724,62.49965 l -41.394511,0.37234 C 56.178808,161.39849 52.174493,151.72345 52.174493,151.72345 34.869605,92.668606 67.7603,77.916734 74.620225,93.135263"
           id="path103-9-3-4"
           sodipodi:nodetypes="csscccc"
           inkscape:label="U glow " /><path
           style="fill:#22280b;fill-opacity:1;stroke:none;stroke-width:1.1387;stroke-linecap:round;stroke-linejoin:round;stroke-dasharray:none;stroke-opacity:1;paint-order:markers stroke fill"
           d="m 92.959275,137.50075 c -23.807661,9.31843 -19.711273,-29.05501 -17.959284,-42.909453 0.644004,-5.092678 22.600979,-17.040556 30.166359,5.424563 10.06304,29.8818 -1.83979,59.64463 -0.75724,62.49965 l -41.394511,0.37234 C 56.178808,161.39849 52.174493,151.72345 52.174493,151.72345 34.869605,92.668606 67.7603,77.916734 74.620225,93.135263"
           id="path103-92"
           sodipodi:nodetypes="csscccc"
           inkscape:label="U fill" /><path
           style="fill:#22280b;fill-opacity:1;stroke:none;stroke-width:1.1387;stroke-linecap:round;stroke-linejoin:round;stroke-dasharray:none;stroke-opacity:1;paint-order:markers stroke fill"
           d="M 93.617119,139.02377 C 69.809458,148.3422 73.905846,109.96876 75.657835,96.114315 c 0.644004,-5.092678 22.600979,-17.040556 30.166355,5.424565 10.06304,29.8818 -1.83979,59.64463 -0.75724,62.49965 l -41.394507,0.37234 C 56.836652,162.92151 52.832337,153.24647 52.832337,153.24647 35.527449,94.191624 68.418144,79.439752 75.278069,94.658281"
           id="path103-9-9"
           sodipodi:nodetypes="csscccc"
           inkscape:label="U " /></g><path
         style="display:inline;fill:none;fill-opacity:1;stroke:#58a647;stroke-width:3.21607;stroke-linecap:round;stroke-linejoin:round;stroke-dasharray:none;stroke-opacity:1;paint-order:markers stroke fill"
         d="m 92.959275,137.50075 c -23.807661,9.31843 -19.711273,-29.05501 -17.959284,-42.909453 0.644004,-5.092678 22.600979,-17.040556 30.166359,5.424563 10.06304,29.8818 -1.90692,59.84878 -0.82437,62.7038 L 63.216,162.8375 C 56.380209,161.34814 52.174493,151.72345 52.174493,151.72345 34.869605,92.668606 67.7603,77.916734 74.620225,93.135263"
         id="path103-9-3"
         sodipodi:nodetypes="csscccc"
         inkscape:label="U glow " /><path
         style="fill:#3a4837;fill-opacity:1;stroke:#000000;stroke-width:1.1387;stroke-linecap:round;stroke-linejoin:round;stroke-dasharray:none;stroke-opacity:1;paint-order:markers stroke fill"
         d="m 92.959275,137.50075 c -23.807661,9.31843 -19.711273,-29.05501 -17.959284,-42.909453 0.644004,-5.092678 22.600979,-17.040556 30.166359,5.424563 10.06304,29.8818 -1.83979,59.64463 -0.75724,62.49965 l -41.394511,0.37234 C 56.178808,161.39849 52.174493,151.72345 52.174493,151.72345 34.869605,92.668606 67.7603,77.916734 74.620225,93.135263"
         id="path103"
         sodipodi:nodetypes="csscccc"
         inkscape:label="U fill" /><path
         style="fill:none;fill-opacity:1;stroke:#0c2c08;stroke-width:1.1387;stroke-linecap:round;stroke-linejoin:round;stroke-dasharray:none;stroke-opacity:1;paint-order:markers stroke fill"
         d="m 92.959275,137.50075 c -23.807661,9.31843 -19.711273,-29.05501 -17.959284,-42.909453 0.644004,-5.092678 22.600979,-17.040556 30.166359,5.424563 10.06304,29.8818 -1.83979,59.64463 -0.75724,62.49965 l -41.394511,0.37234 C 56.178808,161.39849 52.174493,151.72345 52.174493,151.72345 34.869605,92.668606 67.7603,77.916734 74.620225,93.135263"
         id="path103-9"
         sodipodi:nodetypes="csscccc"
         inkscape:label="U " /></g><g
       inkscape:groupmode="layer"
       id="layer19"
       inkscape:label="C"
       transform="matrix(1,0,0,0.98863167,0.52916667,0.9869454)"><g
         inkscape:groupmode="layer"
         id="layer19-4"
         inkscape:label="C shadow "
         style="display:inline;fill:#112b00;stroke:none"
         transform="translate(6.7051355,0.66093457)"><path
           style="display:inline;fill:#112b00;fill-opacity:1;stroke:none;stroke-width:3.216;stroke-linecap:round;stroke-linejoin:round;stroke-dasharray:none;stroke-opacity:1;paint-order:markers stroke fill"
           d="m 52.548669,110.84146 c 0,0 12.352623,-19.545946 -0.805606,-23.219097 -13.158227,-3.67315 -48.8734171,4.722623 -46.9936703,34.894927 0,0 0.8325954,37.01435 15.5750453,40.40648 l 41.018761,-0.26145 c 0,0 12.688291,-47.09823 -8.79453,-51.82086 z"
           id="path101-1-6"
           sodipodi:nodetypes="cscccc"
           inkscape:label="C glow " /><path
           style="fill:#112b00;fill-opacity:1;stroke:none;stroke-width:1.13672;stroke-linecap:round;stroke-linejoin:round;stroke-dasharray:none;stroke-opacity:1;paint-order:markers stroke fill"
           d="m 52.548669,110.84146 c 0,0 12.352623,-19.545946 -0.805606,-23.219097 -13.158227,-3.67315 -48.8734171,4.722623 -46.9936703,34.894927 0,0 0.8325954,37.01435 15.5750453,40.40648 l 41.018761,-0.26145 c 0,0 12.688291,-47.09823 -8.79453,-51.82086 z"
           id="path101-3-2"
           sodipodi:nodetypes="cscccc"
           inkscape:label="C fill" /><path
           style="fill:#22280b;fill-opacity:1;stroke:none;stroke-width:1.13672;stroke-linecap:round;stroke-linejoin:round;stroke-dasharray:none;stroke-opacity:1;paint-order:markers stroke fill"
           d="m 52.548669,110.84146 c 0,0 12.352623,-19.545946 -0.805606,-23.219097 -13.158227,-3.67315 -48.8734171,4.722623 -46.9936703,34.894927 0,0 0.8325954,37.01435 15.5750453,40.40648 l 41.018761,-0.26145 c 0,0 12.688291,-47.09823 -8.79453,-51.82086 z"
           id="path101-9"
           sodipodi:nodetypes="cscccc"
           inkscape:label="C" /><path
           style="fill:#112b00;fill-opacity:1;stroke:none;stroke-width:1.1387;stroke-linecap:round;stroke-linejoin:round;stroke-dasharray:none;stroke-opacity:1;paint-order:markers stroke fill"
           d="m 52.407736,110.79264 c -0.39394,-0.69522 -39.136582,-9.28311 -16.09399,28.21727"
           id="path102-1"
           sodipodi:nodetypes="cc"
           inkscape:label="C arch " /></g><path
         style="display:inline;fill:#225500;fill-opacity:1;stroke:#58a647;stroke-width:3.216;stroke-linecap:round;stroke-linejoin:round;stroke-dasharray:none;stroke-opacity:1;paint-order:markers stroke fill"
         d="m 52.548669,110.84146 c 0,0 12.352623,-19.545946 -0.805606,-23.219097 -13.158227,-3.67315 -48.8734171,4.722623 -46.9936703,34.894927 0,0 0.8325954,37.01435 15.5750453,40.40648 l 41.018761,-0.26145 c 0,0 12.688291,-47.09823 -8.79453,-51.82086 z"
         id="path101-1"
         sodipodi:nodetypes="cscccc"
         inkscape:label="C glow " /><path
         style="fill:#3a4837;fill-opacity:1;stroke:#000000;stroke-width:1.13672;stroke-linecap:round;stroke-linejoin:round;stroke-dasharray:none;stroke-opacity:1;paint-order:markers stroke fill"
         d="m 52.548669,110.84146 c 0,0 12.352623,-19.545946 -0.805606,-23.219097 -13.158227,-3.67315 -48.8734171,4.722623 -46.9936703,34.894927 0,0 0.8325954,37.01435 15.5750453,40.40648 l 41.018761,-0.26145 c 0,0 12.688291,-47.09823 -8.79453,-51.82086 z"
         id="path101-3"
         sodipodi:nodetypes="cscccc"
         inkscape:label="C fill" /><path
         style="fill:none;fill-opacity:1;stroke:#0c2c08;stroke-width:1.13672;stroke-linecap:round;stroke-linejoin:round;stroke-dasharray:none;stroke-opacity:1;paint-order:markers stroke fill"
         d="m 52.548669,110.84146 c 0,0 12.352623,-19.545946 -0.805606,-23.219097 -13.158227,-3.67315 -48.8734171,4.722623 -46.9936703,34.894927 0,0 0.8325954,37.01435 15.5750453,40.40648 l 41.018761,-0.26145 c 0,0 12.688291,-47.09823 -8.79453,-51.82086 z"
         id="path101"
         sodipodi:nodetypes="cscccc"
         inkscape:label="C" /><path
         style="fill:none;fill-opacity:1;stroke:#0c2c08;stroke-width:1.1387;stroke-linecap:round;stroke-linejoin:round;stroke-dasharray:none;stroke-opacity:1;paint-order:markers stroke fill"
         d="m 52.407736,110.79264 c -0.39394,-0.69522 -39.136582,-9.28311 -16.09399,28.21727"
         id="path102"
         sodipodi:nodetypes="cc"
         inkscape:label="C arch " /></g></g><g
     id="g51"
     transform="matrix(1,0,0,0.97302635,24.705244,-63.430235)"><g
       inkscape:groupmode="layer"
       id="layer24"
       inkscape:label="U "
       transform="matrix(-0.93018735,0.37726125,0.36708514,0.95597344,52.867567,50.026756)"><g
         inkscape:groupmode="layer"
         id="layer23"
         inkscape:label="P "
         transform="matrix(-0.93018735,0.36708514,0.36708514,0.93018736,77.572811,-14.752881)"><g
           inkscape:groupmode="layer"
           id="layer18"
           inkscape:label="O "><path
             style="fill:#666666;fill-opacity:1;stroke:none;stroke-width:1.34451;stroke-linejoin:bevel;stroke-dasharray:none;stroke-opacity:1;paint-order:fill markers stroke"
             d="m 181.91229,257.88689 c 12.51449,58.54653 -52.83111,86.97049 -65.10155,24.82394 -0.84481,-4.27877 -2.70465,-12.27618 -1.49658,-16.86512 8.56592,-32.53814 53.81751,-35.4693 66.59813,-7.95882 z"
             id="path52"
             inkscape:label="O fill"
             transform="matrix(1,0,0,0.97302635,24.705244,-63.430235)" /><path
             style="fill:none;fill-opacity:1;stroke:#002933;stroke-width:1.32625;stroke-linejoin:bevel;stroke-dasharray:none;stroke-opacity:1;paint-order:fill markers stroke"
             d="m 206.61753,187.5005 c 12.51449,56.96732 -52.83111,84.62458 -65.10155,24.15435 -0.84481,-4.16335 -2.70465,-11.94504 -1.49658,-16.4102 8.56592,-31.66047 53.81751,-34.51257 66.59813,-7.74415 z"
             id="path52-4"
             inkscape:label="O " /></g><path
           style="fill:#666666;fill-opacity:1;stroke:none;stroke-width:1.34277;stroke-linejoin:bevel;stroke-dasharray:none;stroke-opacity:1;paint-order:fill markers stroke"
           d="m 87.203792,256.41883 c -0.186503,58.70438 56.576118,63.26602 52.517148,4.25279 -2.29007,-33.29533 -84.231494,-37.49498 -62.968411,35.00389 2.54649,8.68254 4.10321,19.17866 11.920842,19.0922 12.761719,-0.14113 35.914649,7.49848 37.154799,-15.04701"
           id="path51-3"
           sodipodi:nodetypes="csssc"
           inkscape:label="P fill"
           transform="matrix(1,0,0,0.97302635,24.705244,-63.430235)" /><path
           style="fill:none;fill-opacity:1;stroke:#002933;stroke-width:1.32454;stroke-linejoin:bevel;stroke-dasharray:none;stroke-opacity:1;paint-order:fill markers stroke"
           d="m 111.90904,186.07204 c -0.18651,57.12091 56.57611,61.55951 52.51714,4.13808 -2.29007,-32.39723 -84.23149,-36.4836 -62.96841,34.05971 2.54649,8.44834 5.97771,20.10363 13.72474,19.05192 13.73298,-1.86436 34.4726,5.73596 35.3509,-15.11585"
           id="path51-3-2"
           sodipodi:nodetypes="csssc"
           inkscape:label="P " /></g><path
         style="fill:#666666;fill-opacity:1;stroke:none;stroke-width:1.27498;stroke-linejoin:bevel;stroke-dasharray:none;stroke-opacity:1;paint-order:fill markers stroke"
         d="M 64.307395,303.35972 C 21.879182,283.62358 34.462302,218.65035 75.926039,243.23506 99.31993,257.10579 79.433235,350.08943 33.046647,301.70013 27.491344,295.90497 22.32586,288.82448 23.67622,279.79218 c 3.217438,-14.12841 3.55495,-40.57487 20.176373,-34.30081"
         id="path51-2"
         sodipodi:nodetypes="csssc"
         inkscape:label="U fill"
         transform="matrix(1,0,0,0.97302635,24.705244,-63.430235)" /><path
         style="fill:none;fill-opacity:1;stroke:#002933;stroke-width:1.25767;stroke-linejoin:bevel;stroke-dasharray:none;stroke-opacity:1;paint-order:fill markers stroke"
         d="m 89.012639,231.74677 c -42.428213,-19.20379 -29.845093,-82.42445 11.618641,-58.50288 23.39389,13.49658 3.5072,103.97212 -42.879389,56.88805 -5.555303,-5.63884 -10.720787,-12.52835 -9.370427,-21.31701 3.217438,-13.74732 3.55495,-39.48042 20.176373,-33.37559"
         id="path51-2-7"
         sodipodi:nodetypes="csssc"
         inkscape:label="U " /></g><g
       inkscape:groupmode="layer"
       id="layer25"
       inkscape:label="C "><path
         style="fill:#666666;fill-opacity:1;stroke:none;stroke-width:1.34323988;stroke-linejoin:bevel;stroke-dasharray:none;stroke-opacity:1;paint-order:fill markers stroke"
         d="m -8.4043983,296.66137 c 0,-58.70489 56.7766343,-62.95987 52.5302143,-3.96907 -2.395836,33.28268 -84.34989,37.03966 -62.856667,-35.34373 2.574052,-8.66871 6.323813,-17.24669 14.0679207,-18.33336 12.5255133,-0.32786 33.8516433,-7.99869 35.0201443,14.5533"
         id="path51"
         sodipodi:nodetypes="csssc"
         inkscape:label="C fill" /><path
         style="fill:none;fill-opacity:1;stroke:#002933;stroke-width:1.34277;stroke-linejoin:bevel;stroke-dasharray:none;stroke-opacity:1;paint-order:fill markers stroke"
         d="m -8.4043983,296.66137 c 0,-58.70489 56.7766343,-62.95987 52.5302143,-3.96907 -2.395836,33.28268 -84.34989,37.03966 -62.856667,-35.34373 2.574052,-8.66871 6.323813,-17.24669 14.0679207,-18.33336 12.5255133,-0.32786 33.8516433,-7.99869 35.0201443,14.5533"
         id="path51-0"
         sodipodi:nodetypes="csssc"
         inkscape:label="C" /></g></g></svg>
