<?xml version="1.0" encoding="UTF-8" standalone="no"?>
<!-- Created with Inkscape (http://www.inkscape.org/) -->

<svg
   width="210mm"
   height="297mm"
   viewBox="0 0 210 297"
   version="1.1"
   id="svg1"
   inkscape:version="1.4 (86a8ad7, 2024-10-11)"
   sodipodi:docname="Cupo10.svg"
   xmlns:inkscape="http://www.inkscape.org/namespaces/inkscape"
   xmlns:sodipodi="http://sodipodi.sourceforge.net/DTD/sodipodi-0.dtd"
   xmlns="http://www.w3.org/2000/svg"
   xmlns:svg="http://www.w3.org/2000/svg">
  <sodipodi:namedview
     id="namedview1"
     pagecolor="#ffffff"
     bordercolor="#000000"
     borderopacity="0.25"
     inkscape:showpageshadow="2"
     inkscape:pageopacity="0.0"
     inkscape:pagecheckerboard="0"
     inkscape:deskcolor="#d1d1d1"
     inkscape:document-units="mm"
     showguides="false"
     inkscape:lockguides="true"
     inkscape:zoom="0.32"
     inkscape:cx="648.4375"
     inkscape:cy="398.4375"
     inkscape:window-width="1147"
     inkscape:window-height="755"
     inkscape:window-x="469"
     inkscape:window-y="26"
     inkscape:window-maximized="0"
     inkscape:current-layer="g8-1">
    <sodipodi:guide
       position="56.63737,295.34635"
       orientation="0,-1"
       id="guide1"
       inkscape:locked="true" />
    <sodipodi:guide
       position="63.458659,224.03288"
       orientation="0,-1"
       id="guide2"
       inkscape:locked="true" />
    <sodipodi:guide
       position="35.809941,148.79069"
       orientation="0,-1"
       id="guide6"
       inkscape:locked="true" />
    <sodipodi:guide
       position="75.861003,220.72559"
       orientation="0,-1"
       id="guide9"
       inkscape:locked="true" />
    <sodipodi:guide
       position="48.81845,146.0136"
       orientation="0,-1"
       id="guide10"
       inkscape:locked="true" />
    <sodipodi:guide
       position="86.52851,75.709183"
       orientation="0,-1"
       id="guide11"
       inkscape:locked="true" />
    <sodipodi:guide
       position="56.711252,73.07825"
       orientation="0,-1"
       id="guide15"
       inkscape:locked="true" />
    <sodipodi:guide
       position="52.916666,2.2376293"
       orientation="0,-1"
       id="guide16"
       inkscape:locked="true" />
  </sodipodi:namedview>
  <defs
     id="defs1" />
  <g
     inkscape:label="Layer 1"
     inkscape:groupmode="layer"
     id="layer1">
    <rect
       style="fill:#1a1a1a;fill-opacity:1;stroke:none;stroke-width:0.562999;stroke-linecap:square;paint-order:fill markers stroke"
       id="rect1"
       width="5671.4648"
       height="4932.4556"
       x="-3043.0857"
       y="-2751.6316" />
  </g>
  <g
     inkscape:groupmode="layer"
     id="layer2"
     inkscape:label="Layer 2">
    <g
       id="g8"
       inkscape:label="Cupo"
       transform="matrix(0.98881473,0,0,0.938581,-1.4098913,-100.0411)">
      <path
         style="fill:#0e2727;fill-opacity:1;stroke:#05464b;stroke-width:0.999959;stroke-linecap:square;stroke-dasharray:none;stroke-opacity:1;paint-order:fill markers stroke"
         d="m 177.53684,183.94566 c 0,0 -37.1254,6.07468 -35.66377,-35.90943 1.46163,-41.98411 36.54075,-39.10849 36.54075,-39.10849 25.7697,-1.66058 34.73049,14.07588 32.7556,35.78056 -2.20825,23.84996 -4.09255,38.43546 -33.63258,39.23736 z"
         id="path5-2"
         sodipodi:nodetypes="cscsc" />
      <path
         style="fill:#0e2727;fill-opacity:1;stroke:#05464b;stroke-width:0.999959;stroke-linecap:square;stroke-dasharray:none;stroke-opacity:1;paint-order:fill markers stroke"
         d="m 182.23135,133.68397 c -9.30176,32.24397 -41.13444,17.133 -41.13444,17.133 0,0 31.01826,31.38723 17.9834,32.75042 -7.40431,0.77435 -14.91728,-0.11643 -23.25632,0.33383 -30.54887,1.64946 -21.74009,-33.75912 -21.37893,-54.40993 0.62636,-30.262714 75.23491,-21.62749 67.78629,4.19268 z"
         id="path8"
         sodipodi:nodetypes="scssss" />
      <path
         style="fill:#0e2727;fill-opacity:1;stroke:#05464b;stroke-width:0.999959;stroke-linecap:square;stroke-dasharray:none;stroke-opacity:1;paint-order:fill markers stroke"
         d="m 111.90925,139.63538 c 0,0 -23.704432,31.71503 -26.017022,-6.23562 -2.46082,-40.383188 41.356942,-24.26101 42.419862,8.08845 0.66855,20.34713 -14.16883,45.10362 -37.218112,42.21795 -29.347587,-3.67419 -40.53971,-25.79781 -38.427158,-50.1123 3.48648,-40.127773 33.135638,-18.05489 34.897918,-14.65245"
         id="path7"
         sodipodi:nodetypes="cssssc" />
      <path
         style="fill:#0e2727;fill-opacity:1;stroke:#05464b;stroke-width:0.999959;stroke-linecap:square;stroke-dasharray:none;stroke-opacity:1;paint-order:fill markers stroke"
         d="m 24.597981,135.86094 c 0,0 12.609049,35.77306 29.352213,15.19393 16.743164,-20.57912 25.424805,-42.31222 -5.994466,-41.73524 -31.41927,0.57698 -47.12890564,-3.26958 -45.8886707,43.65853 0.9007642,34.08319 36.2060467,34.05438 55.3073187,26.91678 17.684656,-6.60825 21.322286,-33.4214 -2.390653,-29.99404"
         id="path6"
         sodipodi:nodetypes="cssssc" />
    </g>
    <g
       id="g8-1"
       inkscape:label="Cupo"
       transform="matrix(0.98904059,0,0,0.98904059,1.7214661,-27.252556)"
       style="stroke-width:0.99995896;stroke-dasharray:none">
      <path
         style="fill:#0e2727;fill-opacity:1;stroke:#05464b;stroke-width:0.974005;stroke-linecap:square;stroke-dasharray:none;stroke-opacity:1;paint-order:fill markers stroke"
         d="m 199.97089,176.49467 c 2.56561,-6.02287 3.07259,-28.68592 3.9276,-37.94552 1.90162,-20.59434 -6.6853,-35.04009 -31.07363,-33.46423 0,0 -33.19873,-2.72891 -34.582,37.11322 -0.27064,7.79494 1.15326,29.81003 3.14169,34.49827 z"
         id="path5-2-6"
         sodipodi:nodetypes="cscscc" />
      <path
         style="fill:#0e2727;fill-opacity:1;stroke:#05464b;stroke-width:0.974005;stroke-linecap:square;stroke-dasharray:none;stroke-opacity:1;paint-order:fill markers stroke"
         d="m 152.18211,176.90183 c -5.93436,-8.45154 -13.4712,-33.37391 -13.4712,-33.37391 0,0 30.12631,14.34003 38.92946,-16.2589 7.04934,-24.50285 -63.65174,-32.699287 -64.15265,-3.97877 -0.19253,11.0401 -4.60358,42.09399 -1.78187,53.232 z"
         id="path8-8"
         sodipodi:nodetypes="cssccc" />
      <path
         style="fill:#0e2727;fill-opacity:1;stroke:#05464b;stroke-width:0.974005;stroke-linecap:square;stroke-dasharray:none;stroke-opacity:1;paint-order:fill markers stroke"
         d="m 84.017802,114.78312 c -1.667813,-3.22885 -29.727648,-24.175607 -33.027238,13.90491 -1.063582,12.27477 1.296329,38.96718 8.05058,47.7424 l 56.761626,0.11824 c 4.68371,-7.61325 7.04833,-32.12392 6.77814,-40.36905 -1.00592,-30.69904 -42.474872,-45.998689 -40.145963,-7.67579 2.188625,36.01445 24.622403,5.91748 24.622403,5.91748"
         id="path7-5"
         sodipodi:nodetypes="csccssc" />
      <path
         style="fill:#0e2727;fill-opacity:1;stroke:#05464b;stroke-width:0.974005;stroke-linecap:square;stroke-dasharray:none;stroke-opacity:1;paint-order:fill markers stroke"
         d="m 21.841014,130.44277 c 0,0 11.933148,33.94796 27.778805,14.41875 15.845658,-19.5292 24.061923,-40.1535 -5.673136,-39.60596 -29.735058,0.54754 -44.6025871,-3.10277 -43.42883433,41.43113 0.0404379,9.8278 -0.67452488,21.15081 3.83456963,30.49956 L 60.95856,176.5489 c 0.548543,-1.28246 4.205539,-16.20796 4.521802,-17.1181 3.004328,-8.64587 -0.583523,-17.71825 -14.513043,-15.69944"
         id="path6-7"
         sodipodi:nodetypes="ssccccss" />
      <path
         style="fill:#333333;fill-opacity:1;stroke:#05464b;stroke-width:0.974005;stroke-linecap:round;stroke-dasharray:none;stroke-opacity:1;paint-order:fill markers stroke"
         d="m 139.21762,112.74709 17.96955,22.41168"
         id="path9" />
      <path
         style="fill:#333333;fill-opacity:1;stroke:#05464b;stroke-width:0.974005;stroke-linecap:round;stroke-dasharray:none;stroke-opacity:1;paint-order:fill markers stroke"
         d="m 157.48422,113.24324 -17.96957,22.41168"
         id="path9-9" />
      <path
         style="fill:#0e2727;fill-opacity:1;stroke:#05464b;stroke-width:0.974005;stroke-linecap:round;stroke-dasharray:none;stroke-opacity:1;paint-order:fill markers stroke"
         d="m 100.60854,222.31923 c -9.920859,7.97677 -24.124311,6.8541 -24.199046,-20.47599 -0.01892,-6.91848 3.82411,-14.23363 5.30792,-21.15211 l 30.324366,0.0496 c 9.8086,23.65432 14.49107,46.69588 0.59181,70.35019 l -56.064707,-0.97466 -0.825709,-64.19213 23.832986,-0.0431"
         id="path13"
         sodipodi:nodetypes="cscccccc" />
      <path
         style="fill:#0e2727;fill-opacity:1;stroke:#05464b;stroke-width:0.974005;stroke-linecap:round;stroke-dasharray:none;stroke-opacity:1;paint-order:fill markers stroke"
         d="m 24.294223,203.18716 c -1.329583,53.01296 58.498016,12.7911 31.670032,-22.41169 l -49.7405807,-0.01 C -3.6216594,204.93959 -1.6099526,227.606 5.3387764,251.0351 l 58.1622576,0.0964 c 8.316578,-11.39153 4.769331,-25.68291 -5.849264,-33.55558"
         id="path12"
         sodipodi:nodetypes="cccccc" />
      <path
         style="fill:#0e2727;fill-opacity:1;stroke:#05464b;stroke-width:0.974005;stroke-linecap:round;stroke-dasharray:none;stroke-opacity:1;paint-order:fill markers stroke"
         d="m 140.66185,180.8178 c -19.74913,23.06194 -13.3203,46.30293 1.52307,70.4171 l 55.48764,-0.35248 c 15.22867,-24.84699 14.22057,-47.42361 -2.34466,-70.15507 z"
         id="path15"
         sodipodi:nodetypes="ccccc" />
      <path
         style="fill:#0e2727;fill-opacity:1;stroke:#05464b;stroke-width:0.974005;stroke-linecap:round;stroke-dasharray:none;stroke-opacity:1;paint-order:fill markers stroke"
         d="m 113.31521,251.11011 c -8.33867,-23.65431 -13.846444,-46.71362 -0.60527,-70.36793 l 56.08173,0.0411 c 15.49999,30.64251 -3.08579,53.98876 -33.4594,41.09118 l 15.36679,29.33338 z"
         id="path14"
         sodipodi:nodetypes="cccccc" />
      <path
         style="fill:#333333;fill-opacity:1;stroke:#05464b;stroke-width:0.974005;stroke-linecap:round;stroke-dasharray:none;stroke-opacity:1;paint-order:fill markers stroke"
         d="m 134.73531,188.01889 17.96957,22.41169"
         id="path9-1" />
      <path
         style="fill:#333333;fill-opacity:1;stroke:#05464b;stroke-width:0.974005;stroke-linecap:round;stroke-dasharray:none;stroke-opacity:1;paint-order:fill markers stroke"
         d="m 153.0019,188.51505 -17.96955,22.41168"
         id="path9-9-1" />
      <path
         style="fill:#333333;fill-opacity:1;stroke:#05464b;stroke-width:0.974005;stroke-linecap:round;stroke-dasharray:none;stroke-opacity:1;paint-order:fill markers stroke"
         d="m 144.21136,40.796313 17.96956,22.411681"
         id="path9-93" />
      <path
         style="fill:#333333;fill-opacity:1;stroke:#05464b;stroke-width:0.974005;stroke-linecap:round;stroke-dasharray:none;stroke-opacity:1;paint-order:fill markers stroke"
         d="M 162.47796,41.292469 144.5084,63.70415"
         id="path9-9-19" />
      <path
         style="fill:none;fill-opacity:1;stroke:#4b0549;stroke-width:0.999958;stroke-linecap:square;stroke-dasharray:none;stroke-opacity:1;paint-order:fill markers stroke"
         d="m 22.205497,54.682702 c 0,0 7.901117,21.270646 18.837035,20.236168 10.935914,-1.034479 22.315176,-25.788069 22.315176,-25.788069 2.1e-4,-5.2e-5 7.626016,-12.629325 -7.149933,-16.949729 C 54.02379,31.665657 51.739627,31.357688 49.318299,31.182973 34.615496,30.122065 16.755623,32.256952 16.755623,32.256952 5.4698277,34.660408 2.6304499,44.944507 2.6304499,44.944507 -1.0269837,53.826846 -0.11493243,74.549415 -0.11493243,74.549415 1.0673286,86.667591 7.8832588,91.679523 7.8832588,91.679523 21.257587,103.50214 42.446466,99.155223 42.446466,99.155223 58.702556,97.825179 65.057209,87.554287 65.057209,87.554287 73.20861,70.426028 59.128063,68.497769 52.143535,69.600808 48.430309,74.050394 44.398526,77.478875 37.968738,76.564146 27.205433,73.429203 20.622052,55.246535 20.622052,55.246535 Z"
         id="path17"
         sodipodi:nodetypes="cccccccccsccscc" />
    </g>
    <g
       id="g8-5"
       inkscape:label="Cupo"
       transform="matrix(0.98904059,0,0,0.98904059,0.27602045,51.371139)" />
    <path
       style="fill:#333333;fill-opacity:1;stroke:#05464b;stroke-width:1.47323;stroke-linecap:round;stroke-dasharray:none;stroke-opacity:1;paint-order:fill markers stroke"
       d="m 175.16527,115.44253 v 21.97568"
       id="path11" />
    <path
       style="fill:#333333;fill-opacity:1;stroke:#05464b;stroke-width:1.47323;stroke-linecap:round;stroke-dasharray:none;stroke-opacity:1;paint-order:fill markers stroke"
       d="m 178.38358,183.52096 v 21.97569"
       id="path11-4" />
    <path
       style="fill:#333333;fill-opacity:1;stroke:#05464b;stroke-width:1.47323;stroke-linecap:round;stroke-dasharray:none;stroke-opacity:1;paint-order:fill markers stroke"
       d="M 176.43177,39.144352 V 61.120034"
       id="path11-0" />
  </g>
</svg>
