<?xml version="1.0" encoding="UTF-8" standalone="no"?>
<!-- Created with Inkscape (http://www.inkscape.org/) -->

<svg
   width="11in"
   height="8.5in"
   viewBox="0 0 1056 816"
   version="1.1"
   id="svg1"
   inkscape:version="1.4 (86a8ad7, 2024-10-11)"
   sodipodi:docname="drawing4.svg"
   xmlns:inkscape="http://www.inkscape.org/namespaces/inkscape"
   xmlns:sodipodi="http://sodipodi.sourceforge.net/DTD/sodipodi-0.dtd"
   xmlns="http://www.w3.org/2000/svg"
   xmlns:svg="http://www.w3.org/2000/svg">
  <sodipodi:namedview
     id="namedview1"
     pagecolor="#ffffff"
     bordercolor="#000000"
     borderopacity="0.25"
     inkscape:showpageshadow="2"
     inkscape:pageopacity="0.0"
     inkscape:pagecheckerboard="0"
     inkscape:deskcolor="#d1d1d1"
     inkscape:document-units="in"
     showguides="false"
     inkscape:zoom="0.4077917"
     inkscape:cx="485.54201"
     inkscape:cy="369.06097"
     inkscape:window-width="1261"
     inkscape:window-height="755"
     inkscape:window-x="400"
     inkscape:window-y="89"
     inkscape:window-maximized="0"
     inkscape:current-layer="g5" />
  <defs
     id="defs1" />
  <g
     inkscape:label="Layer 1"
     inkscape:groupmode="layer"
     id="layer1">
    <g
       id="g5"
       transform="translate(29.706247,-0.7182423)">
      <path
         style="opacity:0.99;fill:#666666;stroke:#000000;stroke-width:5.088;stroke-linecap:round;stroke-linejoin:round;stroke-dasharray:none;paint-order:markers stroke fill"
         d="m 133.72633,85.004707 c 6.14583,-3.281127 0.78093,-39.180988 4.90447,-45.366299 9.78158,-14.672376 56.34935,-15.965504 69.88862,-9.195871 6.64788,3.32394 29.82219,-2.05683 36.17043,4.291407 5.74924,5.749246 3.87142,17.954849 6.74364,25.135381 2.57655,6.441398 5.06565,12.905906 6.74363,19.61786 2.21569,8.862744 0,20.880735 0,30.039845 0,25.13538 0,50.27076 0,75.40614 0,6.52845 -2.58183,32.23287 0,37.39655 1.62185,3.24369 4.21813,20.37747 2.45224,23.90926 -4.89042,9.78085 -64.12911,11.46257 -74.79309,6.13058 -6.41637,-3.20818 -32.14546,2.79885 -38.62266,-3.67834 -1.52731,-1.52731 -8.48908,-30.72511 -10.42199,-35.55737 -3.33391,-8.33479 1.58645,-20.0157 -0.61306,-28.81373 -1.52069,-6.08279 0.62096,-12.83471 -0.61305,-19.0048 -0.86364,-4.31816 -2.20061,-8.55081 -3.06529,-12.87422 -0.65318,-3.26588 -0.10838,-8.14931 0.61305,-11.03505 2.33559,-9.34234 3.42086,-46.574037 0.61306,-56.401343 z"
         id="path15" />
      <path
         style="opacity:0.99;fill:#666666;stroke:#000000;stroke-width:5.088;stroke-linecap:round;stroke-linejoin:round;stroke-dasharray:none;paint-order:markers stroke fill"
         d="m 335.20544,85.046317 c 6.14583,-3.281127 0.78093,-39.180988 4.90447,-45.366299 9.78158,-14.672376 56.34935,-15.965504 69.88862,-9.195871 6.64788,3.32394 29.82219,-2.05683 36.17043,4.291407 5.74924,5.749246 3.87142,17.954849 6.74364,25.135381 2.57655,6.441398 5.06565,12.905906 6.74363,19.61786 2.21569,8.862744 0,20.880735 0,30.039845 0,25.13538 0,50.27075 0,75.40613 0,6.52845 -2.58183,32.23287 0,37.39655 1.62185,3.24369 4.21813,20.37747 2.45224,23.90926 -4.89042,9.78085 -64.12911,11.46257 -74.79309,6.13058 -6.41637,-3.20818 -32.14546,2.79885 -38.62266,-3.67834 -1.52731,-1.52731 -8.48908,-30.72511 -10.42199,-35.55737 -3.33391,-8.33479 1.58645,-20.0157 -0.61306,-28.81373 -1.52069,-6.08279 0.62096,-12.83471 -0.61305,-19.0048 -0.86364,-4.31816 -2.20061,-8.55081 -3.06529,-12.87422 -0.65318,-3.26588 -0.10838,-8.1493 0.61305,-11.03504 2.33559,-9.34234 3.42086,-46.574037 0.61306,-56.401343 z"
         id="path15-6" />
      <path
         style="opacity:0.99;fill:#666666;stroke:#000000;stroke-width:5.088;stroke-linecap:round;stroke-linejoin:round;stroke-dasharray:none;paint-order:markers stroke fill"
         d="m 18.845477,32.79706 c 3.23771,1.272159 -3.595609,23.765346 -0.866995,34.679803 1.613341,6.453364 5.336815,10.73156 3.46798,18.206897 -3.04265,12.170601 -13.916949,31.07673 -9.536945,44.21675 3.431596,10.29479 9.376846,24.83621 6.068965,36.41379 -4.025597,14.08959 -8.846169,59.55833 0,72.82758 10.62556,15.93834 41.705132,11.27094 60.689656,11.27094 10.68663,0 50.778622,3.65503 56.354682,0.867 6.42853,-3.21427 2.54647,-8.50641 4.33497,-13.87193 1.9808,-5.94239 0,-26.16234 0,-34.6798 0,-1.14323 0.89101,-6.91195 0,-7.80295 -1.01717,-1.01718 -2.37803,-3.24504 -3.46798,-4.33498 -3.05982,-3.05983 6.06362,-24.28656 1.73399,-32.94581 -1.84022,-3.68044 -4.28101,-15.57893 -4.33497,-15.60591 -2.02345,-1.01173 -31.18509,2.14075 -21.67488,-7.36946 3.44938,-3.44938 20.33491,0.90647 22.54187,-1.30049 2.45557,-2.45557 0.56842,-14.46908 -0.86699,-17.33991 -3.211,-6.42199 3.6445,-15.44498 5.20197,-21.674869 1.84883,-7.39534 -2.6353,-14.876186 -4.33498,-21.674877 -2.18494,-8.739795 4.94671,-34.068077 -0.86699,-39.881774 -9.53583,-9.535828 -102.269057,-4.565361 -114.443353,0 z"
         id="path16"
         sodipodi:nodetypes="csssssssssssssssssssc" />
      <path
         style="opacity:0.99;fill:#666666;stroke:#000000;stroke-width:5.088;stroke-linecap:round;stroke-linejoin:round;stroke-dasharray:none;paint-order:markers stroke fill"
         d="m 344.01224,139.10396 c 3.44938,-3.44938 20.33491,0.90647 22.54187,-1.30049 2.45557,-2.45557 0.56842,-14.46908 -0.86699,-17.33991 -3.211,-6.42199 3.6445,-15.44498 5.20197,-21.674865 1.84883,-7.39534 -2.6353,-14.876186 -4.33498,-21.674877 -2.18494,-8.739795 4.94671,-34.068077 -0.86699,-39.881774 -9.53583,-9.535828 -102.26906,-4.565361 -114.44335,0 3.23771,1.272159 -3.59561,23.765346 -0.867,34.679803 1.61334,6.453364 5.33682,10.73156 3.46798,18.206898 -3.04265,12.170595 -13.91695,31.076725 -9.53694,44.216745 3.43159,10.29479 9.37684,24.83621 6.06896,36.41379 -4.0256,14.08959 -8.84617,59.55833 0,72.82758 10.62556,15.93834 41.70513,11.27094 60.68966,11.27094 4.10463,-5.23283 1.49937,-5.60414 2.14465,-9.47582 0.4842,-2.90518 4.45933,-15.15852 1.83917,-17.77868 -2.40784,-2.40785 -5.94318,-12.82337 -4.2914,-17.77869 1.92529,-5.77586 5.06236,-12.0847 3.67835,-19.0048 -0.96004,-4.8002 -2.06702,-9.0385 -4.29141,-13.48727 -1.29869,-2.59737 -4.95634,-3.7821 -6.13058,-6.13059 -3.68906,-7.37811 3.77512,-17.2624 6.74364,-20.23091 2.70807,-2.70807 -0.34898,-8.84689 2.45223,-11.64811 6.77357,-6.77357 22.90374,-3.10882 30.80116,-0.20897 z"
         id="path16-1"
         sodipodi:nodetypes="cssssscsssssc" />
      <path
         style="opacity:0.99;fill:#666666;stroke:#000000;stroke-width:4.83182;stroke-linecap:round;stroke-linejoin:round;stroke-dasharray:none;paint-order:markers stroke fill"
         d="m 648.1092,176.25177 c 0,-28.23137 4.34026,-55.14437 4.34026,-82.466555 0,-9.54698 3.81978,-18.24458 5.42533,-27.48886 8.18551,-47.1295 34.80786,-49.97973 73.78455,-49.97973 25.17777,0 41.40435,2.69682 59.67868,23.74037 10.34026,11.90719 8.02419,45.18284 9.7656,61.225175 4.69604,43.26124 0.077,92.2851 -16.276,129.94732 -10.71928,24.68728 -39.05201,37.48479 -61.62361,37.48479 -58.05509,7.67776 -75.06541,-42.8129 -75.09481,-92.46251 z"
         id="path19"
         sodipodi:nodetypes="sssssssss" />
      <path
         style="opacity:0.99;fill:#666666;stroke:#000000;stroke-width:4.83182;stroke-linecap:round;stroke-linejoin:round;stroke-dasharray:none;paint-order:markers stroke fill"
         d="m 853.22119,176.853 c 0,-28.23136 4.34027,-55.14436 4.34027,-82.466545 0,-9.54698 3.81977,-18.24458 5.42532,-27.48886 8.18551,-47.1295 34.80786,-49.97974 73.78456,-49.97974 25.17777,0 41.40434,2.69683 59.67868,23.74038 10.34028,11.90719 8.02418,45.18284 9.76558,61.225165 4.696,43.26124 0.077,92.28511 -16.27599,129.94732 -10.71928,24.68728 -39.05201,37.48479 -61.62361,37.48479 -58.05508,7.67777 -75.06541,-42.8129 -75.09481,-92.46251 z"
         id="path19-7"
         sodipodi:nodetypes="sssssssss" />
      <path
         style="opacity:0.99;fill:#666666;stroke:#000000;stroke-width:4.57473;stroke-linecap:round;stroke-linejoin:round;stroke-dasharray:none;paint-order:markers stroke fill"
         d="m 784.68665,207.69823 c -2.60721,-19.1375 -5.37965,-38.59165 -5.37965,-58.51193 0,-10.81799 -0.74268,-77.541955 1.53704,-82.232965 10.48428,-29.21793 15.14767,-46.18248 48.41695,-49.02351 25.09182,-2.60513 70.78327,-3.16654 89.91722,17.39544 8.83027,17.39702 14.81034,47.75859 7.68523,67.209635 -9.66887,19.89581 -24.91476,28.97535 -46.11139,32.41877 -6.72882,1.09311 -14.78109,3.16281 -21.51865,3.16281 -3.84261,0 -11.52784,-3.9535 -11.52784,0 0,0.16388 28.62911,16.65625 35.35206,25.30246 17.12722,22.02685 10.08148,52.46466 1.53705,75.90736 -4.62412,12.68683 -18.14362,20.32395 -29.20388,25.30246 -46.79755,21.06477 -70.70414,-13.85073 -70.70414,-56.93053 z"
         id="path17"
         sodipodi:nodetypes="csssssssssssc" />
      <path
         style="opacity:0.99;fill:#666666;stroke:#000000;stroke-width:4.57473;stroke-linecap:round;stroke-linejoin:round;stroke-dasharray:none;paint-order:markers stroke fill"
         d="m 654.06034,23.984115 c 22.34818,1.9903 39.32653,78.979725 16.13898,94.884205 -26.82264,23.15851 -12.15314,19.22372 -43.03731,18.58149 24.57033,6.69279 20.9839,1.31144 39.19469,18.97684 18.82651,22.93869 5.02183,70.01394 -7.68522,96.86096 -17.90746,37.83422 -129.55612,24.02173 -131.41747,9.48842 -2.4104,-18.82028 -44.61087,-197.313335 38.96309,-238.239515 20.7142,-10.14375 49.9235,-3.92947 87.84324,-0.5524 z"
         id="path18"
         sodipodi:nodetypes="sscsssss" />
      <g
         id="g22">
        <g
           id="g21"
           transform="matrix(0.87084446,0,0,0.8425398,-131.27995,-179.74365)">
          <path
             style="opacity:0.99;fill:#000000;stroke:#000000;stroke-width:5.76477;stroke-linecap:round;stroke-linejoin:round;stroke-dasharray:none;paint-order:markers stroke fill"
             d="m 482.93567,634.62873 c -2.7359,-5.57922 8.58538,-5.98235 11.18604,-9.13306 3.31155,-4.01196 -3.33421,-15.54701 1.01284,-18.16593 4.55469,-2.74399 12.64718,4.56267 16.92632,-0.62153 3.86113,-4.67775 -5.53203,-20.67706 6.75596,-19.23193 1.76571,0.20765 13.81926,5.35208 15.31308,3.54232 3.49936,-4.23949 2.08073,-10.53027 8.16437,-12.10057 7.78998,-2.01073 14.22421,6.61525 19.13993,9.21668 12.33592,6.52824 17.57657,-8.03187 27.30431,-2.88389 3.76296,1.99137 5.98935,5.90646 10.27416,8.17403 3.59699,1.90354 23.2272,3.12331 22.76762,7.03115 -1.56503,13.30749 37.64172,19.61581 16.41284,32.40531 -0.78822,0.47487 8.60427,5.57601 9.36796,6.32601 5.07052,4.97969 -2.4892,11.28 0.63063,17.64218 8.43049,17.19198 12.25116,19.28416 -2.65917,28.26722 -2.47171,1.48911 1.02538,16.99833 2.2108,19.41576 2.15494,4.39448 -12.19482,3.88143 -9.07058,10.25257 1.81499,3.70123 12.24826,13.49384 0.29737,16.57856 -13.134,3.39013 0.31247,16.45019 -0.30865,21.73162 -1.19756,10.18291 -15.16514,12.53388 -12.60007,21.15679 1.06934,3.59477 7.16455,8.25898 4.22805,11.81655 -2.86308,3.46864 -12.14002,5.61395 -13.40247,8.8724 -2.67862,6.91368 6.23235,20.87603 -5.04453,23.78679 -6.10813,1.57661 -19.34069,-2.39702 -21.6622,2.67672 -1.44003,3.1472 -11.41356,18.48992 -19.2466,10.79724 -5.91178,-5.80587 -13.75865,4.47693 -23.97963,3.27489 -5.78139,-0.67992 -15.73622,-5.09864 -22.0634,-3.46548 -4.04093,1.04303 -7.22664,5.75466 -12.69544,2.86053 -4.48707,-2.37459 -6.16271,-7.98611 -13.90184,-5.9885 -3.26467,0.84266 -13.47274,4.97125 -18.03454,0.49119 -7.17393,-7.04539 7.34823,-18.43936 5.24655,-25.50446 -0.88222,-2.96572 -7.44338,-3.58359 -7.05051,-6.92419 0.93983,-7.99135 11.15883,-17.61316 8.67221,-25.97231 -1.38089,-4.64206 -11.07485,-22.8534 -4.72743,-26.67745 1.74992,-1.05426 4.74516,-1.22482 6.95233,-1.79453 9.81233,-2.53273 -1.35677,-23.3963 3.43413,-29.20048 2.48001,-3.00455 7.46949,-4.63048 9.87579,-7.54571 3.41208,-4.13374 -1.62324,-16.08795 -3.31903,-19.5461 -2.5573,-5.21502 -9.29683,-10.89957 -7.25627,-12.12894 4.86969,-2.93377 11.63253,-9.82621 10.18537,-12.77735 -0.11656,-13.05451 -14.09518,-15.96608 -19.3363,-26.6541 z"
             id="path21-3-7"
             sodipodi:nodetypes="sssssssssssssssssssssssssssssssssssssssss" />
          <path
             style="opacity:0.99;fill:#000000;stroke:#000000;stroke-width:4.46778;stroke-linecap:round;stroke-linejoin:round;stroke-dasharray:none;paint-order:markers stroke fill"
             d="m 477.59404,837.44261 c -2.3444,-3.05406 -7.55085,-11.47118 -12.26301,-13.51736 -8.81892,-3.82948 -9.16075,5.20677 -14.14962,7.37311 -4.15324,1.80347 -23.97384,0.71934 -26.41265,-2.45771 -8.74375,-11.39052 7.19694,-23.02999 1.88662,-36.86553 -1.62986,-4.24645 -4.28307,-6.24373 -5.65985,-9.8308 -2.32076,-6.04653 2.07993,-15.24988 3.77323,-19.66162 4.16789,-10.85902 -6.75905,-22.94202 -2.82992,-33.17898 2.36435,-6.16007 7.52576,-13.43644 9.43308,-20.89046 3.32777,-13.00527 -4.23882,-19.02349 -6.60316,-28.26358 -2.61522,-10.22057 4.71655,-20.53844 4.71655,-30.72127 0,-11.06009 -7.18442,-23.53426 -4.71655,-33.17898 3.72403,-14.5539 6.91164,-10.16159 7.54647,-14.7462 5.01404,-22.86129 8.38567,-7.10186 11.31971,-14.74622 0.59087,-1.53948 1.97754,-8.66117 3.77323,-9.83081 2.01239,-1.31076 5.53408,1.31078 7.54647,0 6.5318,-4.2545 10.10739,-7.02267 15.09294,-13.51735 5.04695,-6.57469 13.13438,8.03438 16.03624,6.14425 5.64944,-3.67977 15.7006,-7.92847 22.6394,-4.9154 4.62198,2.00701 4.39758,6.96201 9.43309,8.60196 10.69874,3.48431 3.76646,-9.2208 23.58271,3.68654 2.46321,1.60441 21.00209,-9.50604 29.24257,1.22886 3.2594,4.24603 -2.08173,20.76338 1.88661,23.34817 5.23096,3.40719 11.64899,2.67217 16.97956,6.14425 1.31935,0.85936 -6.97263,23.61439 -4.71655,29.49243 0.96426,2.51228 3.35711,1.9156 4.71655,3.68655 8.42246,10.97197 -9.94267,16.07387 -11.3197,19.66162 -2.21674,5.7755 9.20237,10.13134 2.82992,18.43276 -2.82826,3.68439 -15.36264,-2.4577 -17.92286,-2.4577 -3.35406,0 -3.02431,-8.60197 -8.48977,-8.60197 -7.07112,0 -10.34811,6.74026 -15.09294,9.83081 -6.10375,3.97569 -15.00209,-11.178 -19.80948,-4.9154 -1.46714,1.91125 -1.61539,7.81087 -4.71654,9.83081 -2.21343,1.44172 -22.89405,-11.72309 -16.03625,6.14426 5.85201,15.24687 -4.20286,18.55703 -3.92697,22.99219 0.0614,0.98762 2.58596,5.22201 1.30049,6.93596 -2.18865,2.91821 -7.642,4.65689 -4.76847,10.40394 2.31315,4.62631 7.22436,5.92566 4.33497,11.70443 -1.83463,3.66926 -7.96423,6.11931 -9.10345,9.53695 -1.37547,4.12643 3.97278,9.31735 5.20197,13.00493 1.99742,5.99225 -5.39523,8.18949 -7.36945,12.13793 -1.35098,2.70195 6.51478,8.17487 5.63546,12.57143 -0.92916,4.64582 -12.22961,12.82156 -9.53694,18.20689 1.19993,2.39986 3.5789,3.68982 4.76847,6.06897 2.65281,5.30562 -10.37628,7.39712 -6.50246,11.27093 2.6886,2.68861 6.00887,1.5537 7.36946,5.63547 1.93765,5.81297 -4.60484,9.52986 -9.09918,8.22094 z"
             id="path20-4-7"
             sodipodi:nodetypes="cssssssssssssssssssssscsssssssssssssssssssssssc" />
          <path
             style="opacity:0.99;fill:#000000;stroke:#000000;stroke-width:5.76477;stroke-linecap:round;stroke-linejoin:round;stroke-dasharray:none;paint-order:markers stroke fill"
             d="m 292.87725,625.4037 c -2.7359,-5.57922 8.58538,-5.98235 11.18604,-9.13306 3.31155,-4.01196 -3.33421,-15.54701 1.01284,-18.16593 4.55469,-2.74399 12.64718,4.56267 16.92632,-0.62153 3.86113,-4.67775 -5.53203,-20.67706 6.75596,-19.23193 1.76571,0.20765 13.81926,5.35208 15.31308,3.54232 3.49936,-4.23949 2.08073,-10.53027 8.16437,-12.10057 7.78998,-2.01073 14.22421,6.61525 19.13993,9.21668 12.33592,6.52824 17.57657,-8.03187 27.30431,-2.88389 3.76296,1.99137 5.98935,5.90646 10.27416,8.17403 3.59699,1.90354 23.2272,3.12331 22.76762,7.03115 -1.56503,13.30749 37.64172,19.61581 16.41284,32.40531 -0.78822,0.47487 8.60427,5.57601 9.36796,6.32601 5.07052,4.97969 -2.4892,11.28 0.63063,17.64218 8.43049,17.19198 12.25116,19.28416 -2.65917,28.26722 -2.47171,1.48911 1.02538,16.99833 2.2108,19.41576 2.15494,4.39448 -12.19482,3.88143 -9.07058,10.25257 1.81499,3.70123 12.24826,13.49384 0.29737,16.57856 -13.134,3.39013 0.31247,16.45019 -0.30865,21.73162 -1.19756,10.18291 -15.16514,12.53388 -12.60007,21.15679 1.06934,3.59477 7.16455,8.25898 4.22805,11.81655 -2.86308,3.46864 -12.14002,5.61395 -13.40247,8.8724 -2.67862,6.91368 6.23235,20.87603 -5.04453,23.78679 -6.10813,1.57661 -19.34069,-2.39702 -21.6622,2.67672 -1.44003,3.1472 -11.41356,18.48992 -19.2466,10.79724 -5.91178,-5.80587 -13.75865,4.47693 -23.97963,3.27489 -5.78139,-0.67992 -15.73622,-5.09864 -22.0634,-3.46548 -4.04093,1.04303 -7.22664,5.75466 -12.69544,2.86053 -4.48707,-2.37459 -6.16271,-7.98611 -13.90184,-5.9885 -3.26467,0.84266 -13.47274,4.97125 -18.03454,0.49119 -7.17393,-7.04539 7.34823,-18.43936 5.24655,-25.50446 -0.88222,-2.96572 -7.44338,-3.58359 -7.05051,-6.92419 0.93983,-7.99135 11.15883,-17.61316 8.67221,-25.97231 -1.38089,-4.64206 -11.07485,-22.8534 -4.72743,-26.67745 1.74992,-1.05426 4.74516,-1.22482 6.95233,-1.79453 9.81233,-2.53273 -1.35677,-23.3963 3.43413,-29.20048 2.48001,-3.00455 7.46949,-4.63048 9.87579,-7.54571 3.41208,-4.13374 -1.62324,-16.08795 -3.31903,-19.5461 -2.5573,-5.21502 -9.29683,-10.89957 -7.25627,-12.12894 4.86969,-2.93377 11.63253,-9.82621 10.18537,-12.77735 -0.11656,-13.05451 -14.09518,-15.96608 -19.3363,-26.6541 z"
             id="path21-0"
             sodipodi:nodetypes="sssssssssssssssssssssssssssssssssssssssss" />
          <path
             style="opacity:0.99;fill:#000000;stroke:#000000;stroke-width:4.46778;stroke-linecap:round;stroke-linejoin:round;stroke-dasharray:none;paint-order:markers stroke fill"
             d="m 171.01429,599.43822 c -0.63483,4.58461 -3.82244,0.1923 -7.54647,14.7462 -2.46787,9.64472 4.71655,22.11889 4.71655,33.17898 0,10.18283 -7.33177,20.5007 -4.71655,30.72127 2.36434,9.24009 9.93093,15.25831 6.60316,28.26358 -1.90732,7.45402 -7.06873,14.73039 -9.43308,20.89046 -3.92913,10.23696 6.99781,22.31996 2.82992,33.17898 -1.6933,4.41174 -6.09399,13.61509 -3.77323,19.66162 1.37678,3.58707 4.02999,5.58435 5.65985,9.8308 5.31032,13.83554 -10.63037,25.47501 -1.88662,36.86553 2.43881,3.17705 22.25941,4.26118 26.41265,2.45771 4.98887,-2.16634 5.3307,-11.20259 14.14962,-7.37311 4.71216,2.04618 9.91861,10.4633 12.26301,13.51736 6.04053,7.86901 18.34019,-10.61654 24.52603,-8.60196 6.02746,1.963 12.14793,14.82116 21.69609,8.60196 2.48484,-1.61851 5.19558,-3.08174 6.60316,-4.91541 0.77485,-1.0094 0.58082,-8.36585 0.94331,-8.60195 13.13122,-8.55305 20.53709,18.71375 33.0158,2.4577 2.06391,-2.68867 7.29604,-10.08097 8.48977,-14.74621 0.68165,-2.66396 -0.38934,-15.46786 0.94331,-17.20392 1.01386,-1.32075 4.73335,-1.27262 5.65986,-3.68655 0.94832,-2.47077 0.82051,-5.9843 1.88661,-7.37311 2.35827,-3.07213 -2.35827,-15.36063 0,-18.43276 2.87455,-3.74468 8.3283,-4.49468 10.3764,-9.83081 3.37327,-8.78877 -4.71654,-15.73774 -4.71654,-20.89046 0,-6.46554 12.04451,-15.03084 4.71654,-24.57702 -1.90779,-2.48528 -3.98016,-6.41382 -5.65986,-8.60196 -2.69244,-3.50745 -11.68123,-0.0489 -12.21108,4.40662 -2.37194,19.94553 3.72452,-32.67369 -18.91809,-37.5856 -5.34123,-1.15868 5.13571,8.60197 8.48977,8.60197 2.56022,0 15.0946,6.14209 17.92286,2.4577 6.37245,-8.30142 -5.04666,-12.65726 -2.82992,-18.43276 1.37703,-3.58775 19.74216,-8.68965 11.3197,-19.66162 -1.35944,-1.77095 -3.75229,-1.17427 -4.71655,-3.68655 -2.25608,-5.87804 6.0359,-28.63307 4.71655,-29.49243 -5.33057,-3.47208 -11.7486,-2.73706 -16.97956,-6.14425 -3.96834,-2.58479 1.37279,-19.10214 -1.88661,-23.34817 -8.24048,-10.7349 -26.77936,0.37555 -29.24257,-1.22886 -19.81625,-12.90734 -12.88397,-0.20223 -23.58271,-3.68654 -5.03551,-1.63995 -4.81111,-6.59495 -9.43309,-8.60196 -6.9388,-3.01307 -16.98996,1.23563 -22.6394,4.9154 -2.90186,1.89013 -10.98929,-12.71894 -16.03624,-6.14425 -4.98555,6.49468 -8.56114,9.26285 -15.09294,13.51735 -2.01239,1.31078 -5.53408,-1.31076 -7.54647,0 -1.79569,1.16964 -3.18236,8.29133 -3.77323,9.83081 -2.93404,7.64436 -6.30567,-8.11507 -11.31971,14.74622 z"
             id="path20-8"
             sodipodi:nodetypes="cssssssssssssssscssssssssssssssssssssssssssssc" />
        </g>
        <path
           style="opacity:0.99;fill:#666666;stroke:#000000;stroke-width:4.93796;stroke-linecap:round;stroke-linejoin:round;stroke-dasharray:none;paint-order:markers stroke fill"
           d="m 314.86203,379.71703 c -2.38254,-4.70071 7.47654,-5.04037 9.74131,-7.69496 2.88384,-3.38024 -2.90358,-13.09898 0.88202,-15.30552 3.96643,-2.31192 11.01373,3.84423 14.74019,-0.52367 3.36245,-3.94119 -4.81753,-17.42124 5.88339,-16.20366 1.53766,0.17495 12.03443,4.50934 13.33531,2.98454 3.0474,-3.57194 1.812,-8.87217 7.1099,-10.19521 6.78386,-1.69412 12.38708,5.57361 16.6679,7.76542 10.74267,5.5003 15.30646,-6.76717 23.77781,-2.42979 3.27695,1.67781 5.21579,4.97643 8.9472,6.88694 3.13241,1.60381 20.22727,2.63152 19.82705,5.92403 -1.3629,11.21209 32.78008,16.5271 14.29303,27.30276 -0.68642,0.4001 7.49298,4.69801 8.15804,5.32992 4.41563,4.19558 -2.16771,9.50385 0.54918,14.86423 7.34164,14.48493 10.66885,16.24768 -2.31573,23.81626 -2.15247,1.25464 0.89295,14.32177 1.92527,16.35855 1.87662,3.70253 -10.61979,3.27026 -7.89907,8.6382 1.58058,3.11844 10.66633,11.3691 0.25897,13.9681 -11.43767,2.85632 0.27211,13.85994 -0.26879,18.30975 -1.04289,8.57951 -13.20648,10.5603 -10.9727,17.82544 0.93123,3.02874 6.23921,6.95852 3.68197,9.95591 -2.49329,2.92247 -10.57207,4.72998 -11.67146,7.47536 -2.33267,5.82505 5.4274,17.58888 -4.393,20.04131 -5.31924,1.32836 -16.84274,-2.01958 -18.86441,2.25525 -1.25404,2.65164 -9.93944,15.57849 -16.7608,9.0971 -5.14824,-4.89168 -11.98164,3.77199 -20.88252,2.75923 -5.0347,-0.57286 -13.7038,-4.29581 -19.21379,-2.91981 -3.51903,0.87879 -6.29328,4.84853 -11.05576,2.41011 -3.90754,-2.00069 -5.36676,-6.72861 -12.10634,-5.04555 -2.84302,0.70998 -11.73266,4.18848 -15.70528,0.41385 -6.24737,-5.93602 6.39917,-15.5359 4.56893,-21.48852 -0.76827,-2.49874 -6.48202,-3.01932 -6.1399,-5.83391 0.81845,-6.73303 9.71761,-14.83979 7.55215,-21.88271 -1.20254,-3.91112 -9.64447,-19.25489 -4.11686,-22.47681 1.52391,-0.88825 4.1323,-1.03196 6.0544,-1.51196 8.54502,-2.13393 -1.18153,-19.71232 2.9906,-24.60257 2.1597,-2.53145 6.50476,-3.90136 8.60027,-6.35756 2.97139,-3.48284 -1.41359,-13.55474 -2.89036,-16.46837 -2.22701,-4.39386 -8.09609,-9.18332 -6.31908,-10.21911 4.24074,-2.47182 10.13013,-8.27897 8.86987,-10.76543 -0.1015,-10.99894 -12.27471,-13.45206 -16.83891,-22.45714 z"
           id="path21-3"
           sodipodi:nodetypes="sssssssssssssssssssssssssssssssssssssssss" />
        <path
           style="opacity:0.99;fill:#666666;stroke:#000000;stroke-width:3.82699;stroke-linecap:round;stroke-linejoin:round;stroke-dasharray:none;paint-order:markers stroke fill"
           d="m 310.21031,550.5958 c -2.04161,-2.57317 -6.57562,-9.66493 -10.67918,-11.38891 -7.67991,-3.22649 -7.97759,4.38691 -12.32212,6.21213 -3.61682,1.5195 -20.87748,0.60608 -23.00131,-2.07071 -7.61444,-9.59697 6.26742,-19.40369 1.64296,-31.06068 -1.41936,-3.5778 -3.72989,-5.26059 -4.92885,-8.28284 -2.02102,-5.09444 1.81129,-12.84863 3.28589,-16.5657 3.62959,-9.14916 -5.88608,-19.32956 -2.46442,-27.95461 2.05898,-5.1901 6.55377,-11.32074 8.21475,-17.60104 2.89797,-10.95746 -3.69135,-16.02805 -5.75033,-23.8132 -2.27745,-8.61123 4.10738,-17.30445 4.10738,-25.88389 0,-9.31856 -6.25651,-19.82855 -4.10738,-27.95461 3.24305,-12.26224 6.01897,-8.56154 6.57181,-12.42426 4.36644,-19.26155 7.30261,-5.9836 9.8577,-12.42428 0.51456,-1.29707 1.72213,-7.29738 3.2859,-8.28285 1.75248,-1.10436 4.81932,1.10439 6.5718,0 5.68818,-3.58458 8.80196,-5.91687 13.1436,-11.3889 4.39511,-5.53944 11.438,6.76928 13.96507,5.17677 4.91979,-3.10035 13.67278,-6.68005 19.7154,-4.14142 4.02503,1.69099 3.82961,5.86577 8.21475,7.2475 9.31694,2.93567 3.28,-7.76889 20.53688,3.10605 2.14507,1.35178 18.28955,-8.00921 25.46573,1.03537 2.83843,3.57745 -1.81287,17.49397 1.64294,19.67176 4.55535,2.87069 10.14446,2.25141 14.78656,5.17678 1.14894,0.72404 -6.07208,19.89606 -4.10739,24.84854 0.83972,2.1167 2.92352,1.61397 4.10739,3.10607 7.33465,9.24432 -8.65852,13.54287 -9.8577,16.56569 -1.93044,4.86609 8.01383,8.53606 2.46442,15.53034 -2.46298,3.10424 -13.37847,-2.07071 -15.60803,-2.07071 -2.92086,0 -2.6337,-7.2475 -7.39326,-7.2475 -6.15785,0 -9.0116,5.67893 -13.14361,8.28284 -5.31541,3.34968 -13.06448,-9.41791 -17.25097,-4.14142 -1.27765,1.61031 -1.40676,6.58097 -4.10738,8.28285 -1.92755,1.21471 -19.93715,-9.87717 -13.96508,5.17679 5.09619,12.84609 -3.66003,15.63503 -3.41978,19.37183 0.0535,0.83211 2.25197,4.39975 1.13253,5.84382 -1.90598,2.45871 -6.65499,3.92362 -4.1526,8.76574 2.0144,3.89785 6.2913,4.9926 3.77509,9.86145 -1.59768,3.09149 -6.93561,5.15576 -7.92769,8.03526 -1.19782,3.47668 3.45967,7.85023 4.53011,10.95717 1.73944,5.04871 -4.69841,6.89997 -6.41765,10.22669 -1.17649,2.2765 5.67336,6.88765 4.90761,10.59193 -0.80915,3.91429 -10.65009,10.80267 -8.30519,15.34003 1.04495,2.02197 3.11666,3.10882 4.15259,5.11335 2.31019,4.47019 -9.03612,6.23236 -5.66263,9.4962 2.34136,2.26526 5.23279,1.30906 6.41766,4.74811 1.68739,4.89766 -4.0101,8.02929 -7.92397,6.92647 z"
           id="path20-4"
           sodipodi:nodetypes="cssssssssssssssssssssscsssssssssssssssssssssssc" />
        <path
           style="opacity:0.99;fill:#666666;stroke:#000000;stroke-width:4.93796;stroke-linecap:round;stroke-linejoin:round;stroke-dasharray:none;paint-order:markers stroke fill"
           d="m 149.35071,371.94458 c -2.38254,-4.70072 7.47653,-5.04037 9.7413,-7.69497 2.88385,-3.38023 -2.90357,-13.09897 0.88203,-15.30552 3.96643,-2.31192 11.01373,3.84423 14.74019,-0.52366 3.36245,-3.94119 -4.81754,-17.42125 5.88339,-16.20367 1.53766,0.17496 12.03443,4.50934 13.33531,2.98455 3.0474,-3.57194 1.812,-8.87217 7.1099,-10.19521 6.78386,-1.69412 12.38707,5.57361 16.6679,7.76542 10.74267,5.5003 15.30646,-6.76718 23.77781,-2.4298 3.27695,1.67781 5.21579,4.97643 8.94719,6.88695 3.13242,1.60381 20.22728,2.63151 19.82706,5.92402 -1.3629,11.21209 32.78008,16.5271 14.29303,27.30277 -0.68642,0.40009 7.49298,4.69801 8.15804,5.32991 4.41563,4.19559 -2.16771,9.50385 0.54918,14.86424 7.34164,14.48493 10.66885,16.24767 -2.31573,23.81626 -2.15247,1.25463 0.89295,14.32177 1.92527,16.35855 1.87661,3.70252 -10.61979,3.27026 -7.89907,8.6382 1.58058,3.11843 10.66633,11.36909 0.25897,13.96809 -11.43768,2.85632 0.27211,13.85994 -0.26879,18.30976 -1.04289,8.57951 -13.20648,10.56029 -10.9727,17.82544 0.93123,3.02873 6.23921,6.95852 3.68197,9.95591 -2.4933,2.92247 -10.57207,4.72998 -11.67146,7.47535 -2.33267,5.82505 5.4274,17.58889 -4.39301,20.04132 -5.31923,1.32835 -16.84273,-2.01959 -18.8644,2.25524 -1.25404,2.65164 -9.93944,15.57849 -16.7608,9.09711 -5.14824,-4.89168 -11.98164,3.77199 -20.88253,2.75922 -5.03469,-0.57286 -13.7038,-4.29581 -19.21378,-2.9198 -3.51903,0.87879 -6.29328,4.84853 -11.05576,2.41011 -3.90754,-2.00069 -5.36676,-6.72862 -12.10634,-5.04555 -2.84302,0.70997 -11.73266,4.18847 -15.70528,0.41384 -6.24738,-5.93602 6.39917,-15.53589 4.56893,-21.48852 -0.76828,-2.49874 -6.48203,-3.01932 -6.1399,-5.83391 0.81845,-6.73303 9.71761,-14.83978 7.55215,-21.8827 -1.20254,-3.91112 -9.64447,-19.2549 -4.11686,-22.47681 1.52391,-0.88826 4.1323,-1.03196 6.0544,-1.51197 8.54501,-2.13392 -1.18153,-19.71231 2.99059,-24.60256 2.15971,-2.53146 6.50477,-3.90137 8.60028,-6.35756 2.97139,-3.48284 -1.41359,-13.55474 -2.89036,-16.46837 -2.22701,-4.39386 -8.09609,-9.18332 -6.31908,-10.21912 4.24074,-2.47181 10.13012,-8.27897 8.86987,-10.76542 -0.1015,-10.99895 -12.27471,-13.45206 -16.83891,-22.45714 z"
           id="path21"
           sodipodi:nodetypes="sssssssssssssssssssssssssssssssssssssssss" />
        <path
           style="opacity:0.99;fill:#666666;stroke:#000000;stroke-width:3.82699;stroke-linecap:round;stroke-linejoin:round;stroke-dasharray:none;paint-order:markers stroke fill"
           d="m 43.227031,350.06763 c -0.552838,3.86271 -3.32875,0.16202 -6.571801,12.42426 -2.149131,8.12606 4.107381,18.63604 4.107381,27.95461 0,8.57944 -6.384831,17.27265 -4.107381,25.88389 2.058972,7.78515 8.648295,12.85574 5.750325,23.81319 -1.660979,6.28031 -6.155764,12.41094 -8.214745,17.60105 -3.421662,8.62504 6.094004,18.80545 2.46442,27.95461 -1.474601,3.71706 -5.306918,11.47125 -3.285897,16.5657 1.198962,3.02224 3.509495,4.70503 4.928849,8.28284 4.624463,11.65699 -9.257399,21.46371 -1.642952,31.06067 2.123824,2.67679 19.384483,3.59022 23.001309,2.07072 4.34453,-1.82523 4.642211,-9.43863 12.322119,-6.21214 4.103558,1.72399 8.637566,8.81575 10.679174,11.38892 5.260361,6.62995 15.971452,-8.94486 21.358358,-7.2475 5.24898,1.65391 10.57896,12.48742 18.89392,7.2475 2.16391,-1.36366 4.52454,-2.59649 5.75032,-4.14143 0.67478,-0.85046 0.50581,-7.04856 0.82148,-7.24749 11.43525,-7.20628 17.88461,15.76708 28.75163,2.07071 1.79734,-2.26531 6.35371,-8.49362 7.39326,-12.42427 0.59362,-2.24449 -0.33905,-13.03228 0.82148,-14.49498 0.88292,-1.11279 4.12201,-1.07224 4.92886,-3.10607 0.82584,-2.08172 0.71454,-5.04201 1.64294,-6.21214 2.05369,-2.58839 -2.05368,-12.94194 0,-15.53033 2.50329,-3.15504 7.25266,-3.78695 9.03623,-8.28285 2.9376,-7.40489 -4.10737,-13.25967 -4.10737,-17.60104 0,-5.44748 10.4889,-12.66409 4.10737,-20.70712 -1.66139,-2.09395 -3.4661,-5.4039 -4.92885,-7.2475 -2.3447,-2.95516 -10.17254,-0.0412 -10.63396,3.71276 -2.06559,16.8049 3.24348,-27.52889 -16.47471,-31.66737 -4.65138,-0.97623 4.4724,7.24751 7.39327,7.24751 2.22955,0 13.14505,5.17495 15.60802,2.07071 5.54942,-6.99428 -4.39485,-10.66425 -2.46442,-15.53034 1.19918,-3.02282 17.19235,-7.32137 9.8577,-16.5657 -1.18386,-1.49209 -3.26766,-0.98937 -4.10738,-3.10606 -1.9647,-4.95248 5.25633,-24.1245 4.10738,-24.84855 -4.6421,-2.92536 -10.2312,-2.30608 -14.78656,-5.17677 -3.4558,-2.17779 1.19549,-16.09432 -1.64294,-19.67177 -7.17618,-9.04458 -23.32066,0.31642 -25.46573,-1.03536 -17.25687,-10.87495 -11.21993,-0.17039 -20.53687,-3.10606 -4.38515,-1.38172 -4.18973,-5.5565 -8.21476,-7.24749 -6.04261,-2.53863 -14.795608,1.04107 -19.715391,4.14142 -2.527068,1.59251 -9.569962,-10.71621 -13.96507,-5.17677 -4.341639,5.47202 -7.455421,7.80432 -13.143603,11.3889 -1.752479,1.10439 -4.819323,-1.10437 -6.571802,0 -1.563766,0.98547 -2.77134,6.98578 -3.285896,8.28285 -2.555093,6.44068 -5.491258,-6.83727 -9.857707,12.42428 z"
           id="path20"
           sodipodi:nodetypes="cssssssssssssssscssssssssssssssssssssssssssssc" />
      </g>
      <g
         id="g40"
         transform="matrix(0.9007956,0,0,0.9007956,252.61666,-781.48205)"
         style="stroke-width:20.16;stroke-dasharray:none">
        <path
           style="opacity:0.99;fill:#000000;fill-opacity:1;stroke:#060000;stroke-width:20.16;stroke-linecap:round;stroke-linejoin:round;stroke-dasharray:none;stroke-opacity:0.992157;paint-order:markers stroke fill"
           d="m 743.47669,1212.5057 c 71.23575,8.0518 57.46344,195.2085 20.78891,230.4468 -112.08273,107.6932 -287.14296,-260.5529 -20.78891,-230.4468 z"
           id="path40-0-5"
           sodipodi:nodetypes="sss" />
        <path
           id="path39-5-2"
           style="opacity:0.99;fill:#000000;fill-opacity:1;stroke:#060000;stroke-width:20.16;stroke-linecap:round;stroke-linejoin:round;stroke-dasharray:none;stroke-opacity:0.992157;paint-order:markers stroke fill"
           d="m 613.15409,1196.551 c -20.04146,-0.1166 -41.01653,2.31 -49.1332,10.0003 -48.14596,45.6166 -9.29208,53.1154 -26.98868,120.1827 -4.56547,34.9127 13.0919,73.7917 16.86717,106.7594 1.51271,13.2098 62.42282,23.1662 85.01525,20.4569 l 4.72257,-126.5769 c 0,-1.303 13.08868,-5.1453 17.54355,-8.311 61.65669,-43.8132 26.9204,-98.342 24.2892,-102.2834 -7.69015,-9.4325 -22.67415,-11.9996 -33.73585,-16.6205 -7.96953,-1.8877 -22.9922,-3.5168 -38.58001,-3.6075 z" />
        <path
           style="opacity:0.99;fill:#000000;fill-opacity:1;stroke:#060000;stroke-width:20.16;stroke-linecap:round;stroke-linejoin:round;stroke-dasharray:none;stroke-opacity:0.992157;paint-order:markers stroke fill"
           d="m 512.49452,1209.6811 c 71.23574,8.0518 57.46343,195.2086 20.7889,230.4468 -112.08272,107.6933 -287.14295,-260.5528 -20.7889,-230.4468 z"
           id="path40-2"
           sodipodi:nodetypes="sss" />
        <path
           style="opacity:0.99;fill:#000000;fill-opacity:1;stroke:#060000;stroke-width:20.16;stroke-linecap:round;stroke-linejoin:round;stroke-dasharray:none;stroke-opacity:0.992157;paint-order:markers stroke fill"
           d="m 298.02065,1216.5241 c 14.42965,-13.6716 69.49742,-10.7075 87.71351,-6.3927 11.06169,4.6209 26.04581,7.1886 33.73595,16.6211 2.63121,3.9414 37.3668,58.4705 -24.28989,102.2838 -4.45487,3.1656 -17.54269,7.0075 -17.54269,8.3105 0,1.4916 3.14869,0 4.72303,0 h 8.09663 c 67.05146,-3.0978 46.67984,97.1485 41.15787,106.7587 -12.27773,17.4491 -38.49227,19.8175 -58.70057,19.8175 -22.59244,2.7093 -83.50192,-7.2469 -85.01463,-20.4568 -3.77526,-32.9676 -21.43344,-71.846 -16.86797,-106.7587 17.69659,-67.0673 -21.1572,-74.5667 26.98876,-120.1834 z"
           id="path39-1"
           sodipodi:nodetypes="ssssssssssss" />
      </g>
      <g
         id="g37"
         transform="rotate(1.3503857,356.12685,540.83483)">
        <g
           id="g36"
           transform="translate(-48.551724,-325.99015)"
           style="stroke:#060000;stroke-width:20.16;stroke-dasharray:none;stroke-opacity:0.992157">
          <g
             id="g34-7-3"
             transform="matrix(0.65220956,0,0,0.61335349,383.59469,344.5688)"
             style="fill:#000000;stroke:#060000;stroke-width:31.8744;stroke-dasharray:none;stroke-opacity:0.992157">
            <g
               id="g31-7-9"
               transform="translate(-102.99376,-19.617859)"
               style="fill:#000000;stroke:#060000;stroke-width:31.8744;stroke-dasharray:none;stroke-opacity:0.992157">
              <g
                 id="g29-8-1-9"
                 transform="translate(-210.44323,-3.5418717)"
                 style="fill:#000000;stroke:#060000;stroke-width:31.8744;stroke-dasharray:none;stroke-opacity:0.992157">
                <g
                   id="g30-9-5"
                   transform="translate(-29.477833,5.2019704)"
                   style="fill:#000000;stroke:#060000;stroke-width:31.8744;stroke-dasharray:none;stroke-opacity:0.992157">
                  <path
                     style="opacity:0.99;fill:#000000;stroke:#060000;stroke-width:31.8744;stroke-linecap:round;stroke-linejoin:round;stroke-dasharray:none;stroke-opacity:0.992157;paint-order:markers stroke fill"
                     d="m 1155.4153,1026.2406 2.601,247.9605 c 61.637,-1.7599 156.2128,4.6601 229.3946,-3.0471 -34.5319,-192.6751 -21.9586,-146.1287 -36.9217,-243.1794 l -147.7217,-72.8558 -44.1402,26.97459 11.0351,24.52231 z"
                     id="path22-7-3-1-9"
                     sodipodi:nodetypes="cccccccc" />
                  <path
                     style="opacity:0.99;fill:#000000;stroke:#060000;stroke-width:31.8744;stroke-linecap:round;stroke-linejoin:round;stroke-dasharray:none;stroke-opacity:0.992157;paint-order:markers stroke fill"
                     d="m 1201.5414,953.89269 -163.0735,-35.55737 -22.07,39.23572 137.325,24.52225 z"
                     id="path23-4-4-6-2" />
                  <path
                     style="opacity:0.99;fill:#000000;stroke:#060000;stroke-width:31.8744;stroke-linecap:round;stroke-linejoin:round;stroke-dasharray:none;stroke-opacity:0.992157;paint-order:markers stroke fill"
                     d="m 1154.949,1027.4597 15.9395,-22.0702 -14.7134,-22.07011 -139.7772,-24.52224 6.1305,315.11195 133.6467,2.4522 z"
                     id="path24-7-5-2-6" />
                  <path
                     style="opacity:0.99;fill:#000000;stroke:#060000;stroke-width:31.8744;stroke-linecap:round;stroke-linejoin:round;stroke-dasharray:none;stroke-opacity:0.992157;paint-order:markers stroke fill"
                     d="m 1351.1276,1027.4597 -143.7531,-112.06954 -169.476,3.01953 164.2995,35.99087 z"
                     id="path25-8-0-7-5"
                     sodipodi:nodetypes="ccccc" />
                  <path
                     style="opacity:0.99;fill:#000000;stroke:#060000;stroke-width:31.8744;stroke-linecap:round;stroke-linejoin:round;stroke-dasharray:none;stroke-opacity:0.992157;paint-order:markers stroke fill"
                     d="m 1150.7785,1028.5535 -134.3843,-14.739 5.202,260.9656 135.2512,1.734 z"
                     id="path26-3-1-2-3" />
                </g>
              </g>
            </g>
            <path
               style="opacity:0.99;fill:#000000;fill-opacity:1;stroke:#060000;stroke-width:31.8744;stroke-linecap:round;stroke-linejoin:round;stroke-dasharray:none;stroke-opacity:0.992157;paint-order:markers stroke fill"
               d="m 851.99705,1230.5279 -4.92126,-191.7938 18.86483,-26.1537 -23.78609,-18.22834 25.42649,-14.26566 118.1102,54.6849 27.06678,196.5491 z"
               id="path33-7-2" />
          </g>
          <g
             id="g35-4"
             transform="matrix(0.65220956,0,0,0.61335349,-101.84751,344.06898)"
             style="fill:#000000;stroke:#060000;stroke-width:31.8744;stroke-dasharray:none;stroke-opacity:0.992157">
            <g
               id="g29-4"
               transform="translate(167.80621,-14.887669)"
               style="fill:#000000;stroke:#060000;stroke-width:31.8744;stroke-dasharray:none;stroke-opacity:0.992157">
              <g
                 id="g32-4"
                 style="fill:#000000;stroke:#060000;stroke-width:31.8744;stroke-dasharray:none;stroke-opacity:0.992157">
                <path
                   style="opacity:0.99;fill:#000000;stroke:#060000;stroke-width:31.8744;stroke-linecap:round;stroke-linejoin:round;stroke-dasharray:none;stroke-opacity:0.992157;paint-order:markers stroke fill"
                   d="m 1155.4153,1026.2406 2.601,247.9605 118.7784,10e-5 -11.271,-84.0986 c -9.8644,-81.3805 -2.977,-20.2774 -6.069,-69.3595 l -14.7389,-7.803 121.3793,0.867 -3.4679,-45.0837 -12.138,-40.7488 -147.7217,-72.8558 -44.1402,26.97459 11.0351,24.52231 z"
                   id="path22-7-2"
                   sodipodi:nodetypes="ccccccccccccc" />
                <path
                   style="opacity:0.99;fill:#000000;fill-opacity:1;stroke:#060000;stroke-width:31.8744;stroke-linecap:round;stroke-linejoin:round;stroke-dasharray:none;stroke-opacity:0.992157;paint-order:markers stroke fill"
                   d="m 1201.5414,953.89269 -163.0735,-35.55737 -22.07,39.23572 137.325,24.52225 z"
                   id="path23-4-7" />
                <path
                   style="opacity:0.99;fill:#000000;fill-opacity:1;stroke:#060000;stroke-width:31.8744;stroke-linecap:round;stroke-linejoin:round;stroke-dasharray:none;stroke-opacity:0.992157;paint-order:markers stroke fill"
                   d="m 1154.949,1027.4597 15.9395,-22.0702 -14.7134,-22.07011 -139.7772,-24.52224 6.1305,315.11195 133.6467,2.4522 z"
                   id="path24-7-9" />
                <path
                   style="opacity:0.99;fill:#000000;fill-opacity:1;stroke:#060000;stroke-width:31.8744;stroke-linecap:round;stroke-linejoin:round;stroke-dasharray:none;stroke-opacity:0.992157;paint-order:markers stroke fill"
                   d="m 1351.1276,1027.4597 -143.7531,-112.06954 -169.476,3.01953 164.2995,35.99087 z"
                   id="path25-8-2"
                   sodipodi:nodetypes="ccccc" />
                <path
                   style="opacity:0.99;fill:#000000;fill-opacity:1;stroke:#060000;stroke-width:31.8744;stroke-linecap:round;stroke-linejoin:round;stroke-dasharray:none;stroke-opacity:0.992157;paint-order:markers stroke fill"
                   d="m 1150.7785,1028.5535 -134.3843,-14.739 5.202,260.9656 135.2512,1.734 z"
                   id="path26-3-3" />
                <path
                   style="opacity:0.99;fill:#000000;fill-opacity:1;stroke:#060000;stroke-width:31.8744;stroke-linecap:round;stroke-linejoin:round;stroke-dasharray:none;stroke-opacity:0.992157;paint-order:markers stroke fill"
                   d="m 1365.1336,1121.3441 -105.8343,-3.8766 6.0025,21.5335 z"
                   id="path27-7-7"
                   sodipodi:nodetypes="cccc" />
              </g>
            </g>
            <path
               style="opacity:0.99;fill:#000000;fill-opacity:1;stroke:#060000;stroke-width:31.8744;stroke-linecap:round;stroke-linejoin:round;stroke-dasharray:none;stroke-opacity:0.992157;paint-order:markers stroke fill"
               d="m 1498.7464,1022.8833 9.7781,56.8621 -93.8629,-7.3291 4.2627,-82.4093 z"
               id="path32-6-3"
               sodipodi:nodetypes="ccccc" />
          </g>
          <g
             id="g34-1"
             transform="matrix(0.65220956,0,0,0.61335349,62.685427,349.38672)"
             style="fill:#000000;stroke:#060000;stroke-width:31.8744;stroke-dasharray:none;stroke-opacity:0.992157">
            <g
               id="g31-5"
               transform="translate(-102.99376,-19.617859)"
               style="fill:#000000;stroke:#060000;stroke-width:31.8744;stroke-dasharray:none;stroke-opacity:0.992157">
              <g
                 id="g29-8-7"
                 transform="translate(-210.44323,-3.5418717)"
                 style="fill:#000000;stroke:#060000;stroke-width:31.8744;stroke-dasharray:none;stroke-opacity:0.992157">
                <g
                   id="g30-8"
                   transform="translate(-29.477833,5.2019704)"
                   style="fill:#000000;stroke:#060000;stroke-width:31.8744;stroke-dasharray:none;stroke-opacity:0.992157">
                  <path
                     style="opacity:0.99;fill:#000000;stroke:#060000;stroke-width:31.8744;stroke-linecap:round;stroke-linejoin:round;stroke-dasharray:none;stroke-opacity:0.992157;paint-order:markers stroke fill"
                     d="m 1155.4153,1026.2406 2.601,247.9605 c 61.637,-1.7599 156.2128,4.6601 229.3946,-3.0471 -34.5319,-192.6751 -21.9586,-146.1287 -36.9217,-243.1794 l -147.7217,-72.8558 -44.1402,26.97459 11.0351,24.52231 z"
                     id="path22-7-3-5"
                     sodipodi:nodetypes="cccccccc" />
                  <path
                     style="opacity:0.99;fill:#000000;stroke:#060000;stroke-width:31.8744;stroke-linecap:round;stroke-linejoin:round;stroke-dasharray:none;stroke-opacity:0.992157;paint-order:markers stroke fill"
                     d="m 1201.5414,953.89269 -163.0735,-35.55737 -22.07,39.23572 137.325,24.52225 z"
                     id="path23-4-4-8" />
                  <path
                     style="opacity:0.99;fill:#000000;stroke:#060000;stroke-width:31.8744;stroke-linecap:round;stroke-linejoin:round;stroke-dasharray:none;stroke-opacity:0.992157;paint-order:markers stroke fill"
                     d="m 1154.949,1027.4597 15.9395,-22.0702 -14.7134,-22.07011 -139.7772,-24.52224 6.1305,315.11195 133.6467,2.4522 z"
                     id="path24-7-5-3" />
                  <path
                     style="opacity:0.99;fill:#000000;stroke:#060000;stroke-width:31.8744;stroke-linecap:round;stroke-linejoin:round;stroke-dasharray:none;stroke-opacity:0.992157;paint-order:markers stroke fill"
                     d="m 1351.1276,1027.4597 -143.7531,-112.06954 -169.476,3.01953 164.2995,35.99087 z"
                     id="path25-8-0-2"
                     sodipodi:nodetypes="ccccc" />
                  <path
                     style="opacity:0.99;fill:#000000;stroke:#060000;stroke-width:31.8744;stroke-linecap:round;stroke-linejoin:round;stroke-dasharray:none;stroke-opacity:0.992157;paint-order:markers stroke fill"
                     d="m 1150.7785,1028.5535 -134.3843,-14.739 5.202,260.9656 135.2512,1.734 z"
                     id="path26-3-1-4" />
                </g>
              </g>
            </g>
            <path
               style="opacity:0.99;fill:#000000;fill-opacity:1;stroke:#060000;stroke-width:31.8744;stroke-linecap:round;stroke-linejoin:round;stroke-dasharray:none;stroke-opacity:0.992157;paint-order:markers stroke fill"
               d="m 851.99705,1230.5279 -4.92126,-191.7938 18.86483,-26.1537 -23.78609,-18.22834 25.42649,-14.26566 118.1102,54.6849 27.06678,196.5491 z"
               id="path33-1" />
          </g>
          <g
             id="g33-1"
             transform="matrix(0.65220956,0,0,0.61335349,156.00338,344.06898)"
             style="fill:#000000;stroke:#060000;stroke-width:31.8744;stroke-dasharray:none;stroke-opacity:0.992157">
            <g
               id="g28-5"
               transform="translate(-107.89822,-22.070091)"
               style="fill:#000000;stroke:#060000;stroke-width:31.8744;stroke-dasharray:none;stroke-opacity:0.992157">
              <path
                 style="opacity:0.99;fill:#000000;stroke:#060000;stroke-width:31.8744;stroke-linecap:round;stroke-linejoin:round;stroke-dasharray:none;stroke-opacity:0.992157;paint-order:markers stroke fill"
                 d="m 523.7385,1046.6023 2.60099,247.9605 184.66995,-6.0689 32.94581,-91.0345 -6.06897,-39.8818 -105.7734,-2.601 -4.33497,-13.8718 -14.73892,-7.803 121.37931,0.867 -3.46798,-45.0837 -12.13793,-40.7488 -147.7217,-72.85569 -44.14018,26.97459 11.03505,24.5223 z"
                 id="path22-9" />
              <path
                 style="opacity:0.99;fill:#000000;stroke:#060000;stroke-width:31.8744;stroke-linecap:round;stroke-linejoin:round;stroke-dasharray:none;stroke-opacity:0.992157;paint-order:markers stroke fill"
                 d="m 569.86457,974.2545 -163.07346,-35.55737 -22.07009,39.23572 137.32502,24.52225 z"
                 id="path23-5" />
              <path
                 style="opacity:0.99;fill:#000000;stroke:#060000;stroke-width:31.8744;stroke-linecap:round;stroke-linejoin:round;stroke-dasharray:none;stroke-opacity:0.992157;paint-order:markers stroke fill"
                 d="m 523.27215,1047.8214 15.93951,-22.0701 -14.71339,-22.0701 -139.77725,-24.52224 6.13058,315.11184 133.64667,2.4522 z"
                 id="path24-1" />
              <path
                 style="opacity:0.99;fill:#000000;stroke:#060000;stroke-width:31.8744;stroke-linecap:round;stroke-linejoin:round;stroke-dasharray:none;stroke-opacity:0.992157;paint-order:markers stroke fill"
                 d="M 719.45074,1047.8214 575.69764,935.75197 406.22163,938.7715 570.5212,974.76237 Z"
                 id="path25-0"
                 sodipodi:nodetypes="ccccc" />
              <path
                 style="opacity:0.99;fill:#000000;stroke:#060000;stroke-width:31.8744;stroke-linecap:round;stroke-linejoin:round;stroke-dasharray:none;stroke-opacity:0.992157;paint-order:markers stroke fill"
                 d="m 519.10163,1048.9152 -134.38423,-14.7389 5.20197,260.9655 135.25123,1.734 z"
                 id="path26-6" />
              <path
                 style="opacity:0.99;fill:#000000;fill-opacity:1;stroke:#060000;stroke-width:31.8744;stroke-linecap:round;stroke-linejoin:round;stroke-dasharray:none;stroke-opacity:0.992157;paint-order:markers stroke fill"
                 d="m 736.45375,1152.5277 -117.07504,-19.3283 3.326,21.7443 z"
                 id="path27-4"
                 sodipodi:nodetypes="cccc" />
            </g>
            <path
               style="opacity:0.99;fill:#000000;fill-opacity:1;stroke:#060000;stroke-width:31.8744;stroke-linecap:round;stroke-linejoin:round;stroke-dasharray:none;stroke-opacity:0.992157;paint-order:markers stroke fill"
               d="m 594.17457,1037.3394 9.77806,56.8621 -93.86293,-7.3291 4.26275,-82.4093 z"
               id="path32-5"
               sodipodi:nodetypes="ccccc" />
            <path
               style="opacity:0.99;fill:#000000;fill-opacity:1;stroke:#060000;stroke-width:31.8744;stroke-linecap:round;stroke-linejoin:round;stroke-dasharray:none;stroke-opacity:0.992157;paint-order:markers stroke fill"
               d="m 609.76121,1171.3069 -21.00026,75.069 -81.725,2.2079 0.79477,-88.4783 z"
               id="path32-0-3"
               sodipodi:nodetypes="ccccc" />
          </g>
        </g>
        <g
           id="g34-7"
           transform="matrix(0.65220956,0,0,0.61335349,334.24023,16.581802)">
          <g
             id="g31-7"
             transform="translate(-102.99376,-19.617859)">
            <g
               id="g29-8-1"
               transform="translate(-210.44323,-3.5418717)">
              <g
                 id="g30-9"
                 transform="translate(-29.477833,5.2019704)">
                <path
                   style="opacity:0.99;fill:#800000;stroke:#060000;stroke-width:9.6;stroke-linecap:round;stroke-linejoin:round;stroke-dasharray:none;stroke-opacity:0.992157;paint-order:markers stroke fill"
                   d="m 1155.4153,1026.2406 2.601,247.9605 c 61.637,-1.7599 156.2128,4.6601 229.3946,-3.0471 -34.5319,-192.6751 -21.9586,-146.1287 -36.9217,-243.1794 l -147.7217,-72.8558 -44.1402,26.97459 11.0351,24.52231 z"
                   id="path22-7-3-1"
                   sodipodi:nodetypes="cccccccc" />
                <path
                   style="opacity:0.99;fill:#ff5555;stroke:#060000;stroke-width:9.6;stroke-linecap:round;stroke-linejoin:round;stroke-dasharray:none;stroke-opacity:0.52549;paint-order:markers stroke fill"
                   d="m 1201.5414,953.89269 -163.0735,-35.55737 -22.07,39.23572 137.325,24.52225 z"
                   id="path23-4-4-6" />
                <path
                   style="opacity:0.99;fill:#ff5555;stroke:#050000;stroke-width:9.6;stroke-linecap:round;stroke-linejoin:round;stroke-dasharray:none;stroke-opacity:0.984314;paint-order:markers stroke fill"
                   d="m 1154.949,1027.4597 15.9395,-22.0702 -14.7134,-22.07011 -139.7772,-24.52224 6.1305,315.11195 133.6467,2.4522 z"
                   id="path24-7-5-2" />
                <path
                   style="opacity:0.99;fill:#ff5555;stroke:#050000;stroke-width:9.6;stroke-linecap:round;stroke-linejoin:round;stroke-dasharray:none;stroke-opacity:0.984314;paint-order:markers stroke fill"
                   d="m 1351.1276,1027.4597 -143.7531,-112.06954 -169.476,3.01953 164.2995,35.99087 z"
                   id="path25-8-0-7"
                   sodipodi:nodetypes="ccccc" />
                <path
                   style="opacity:0.99;fill:#ff5555;stroke:#070101;stroke-width:9.6;stroke-linecap:round;stroke-linejoin:round;stroke-dasharray:none;stroke-opacity:1;paint-order:markers stroke fill"
                   d="m 1150.7785,1028.5535 -134.3843,-14.739 5.202,260.9656 135.2512,1.734 z"
                   id="path26-3-1-2" />
              </g>
            </g>
          </g>
          <path
             style="opacity:0.99;fill:#ff5555;fill-opacity:1;stroke:#060000;stroke-width:8.92743;stroke-linecap:round;stroke-linejoin:round;stroke-dasharray:none;stroke-opacity:0.992157;paint-order:markers stroke fill"
             d="m 851.99705,1230.5279 -4.92126,-191.7938 18.86483,-26.1537 -23.78609,-18.22834 25.42649,-14.26566 118.1102,54.6849 27.06678,196.5491 z"
             id="path33-7" />
        </g>
        <g
           id="g35"
           transform="matrix(0.65220956,0,0,0.61335349,-151.20197,16.081982)">
          <g
             id="g29"
             transform="translate(167.80621,-14.887669)"
             style="stroke:#060000;stroke-opacity:0.992157">
            <g
               id="g32">
              <path
                 style="opacity:0.99;fill:#800000;stroke:#060000;stroke-width:9.6;stroke-linecap:round;stroke-linejoin:round;stroke-dasharray:none;stroke-opacity:0.992157;paint-order:markers stroke fill"
                 d="m 1155.4153,1026.2406 2.601,247.9605 118.7784,10e-5 -11.271,-84.0986 c -9.8644,-81.3805 -2.977,-20.2774 -6.069,-69.3595 l -14.7389,-7.803 121.3793,0.867 -3.4679,-45.0837 -12.138,-40.7488 -147.7217,-72.8558 -44.1402,26.97459 11.0351,24.52231 z"
                 id="path22-7"
                 sodipodi:nodetypes="ccccccccccccc" />
              <path
                 style="opacity:0.99;fill:#ff5555;fill-opacity:1;stroke:#060000;stroke-width:9.6;stroke-linecap:round;stroke-linejoin:round;stroke-dasharray:none;stroke-opacity:0.992157;paint-order:markers stroke fill"
                 d="m 1201.5414,953.89269 -163.0735,-35.55737 -22.07,39.23572 137.325,24.52225 z"
                 id="path23-4" />
              <path
                 style="opacity:0.99;fill:#ff5555;fill-opacity:1;stroke:#060000;stroke-width:9.6;stroke-linecap:round;stroke-linejoin:round;stroke-dasharray:none;stroke-opacity:0.992157;paint-order:markers stroke fill"
                 d="m 1154.949,1027.4597 15.9395,-22.0702 -14.7134,-22.07011 -139.7772,-24.52224 6.1305,315.11195 133.6467,2.4522 z"
                 id="path24-7" />
              <path
                 style="opacity:0.99;fill:#ff5555;fill-opacity:1;stroke:#060000;stroke-width:9.6;stroke-linecap:round;stroke-linejoin:round;stroke-dasharray:none;stroke-opacity:0.992157;paint-order:markers stroke fill"
                 d="m 1351.1276,1027.4597 -143.7531,-112.06954 -169.476,3.01953 164.2995,35.99087 z"
                 id="path25-8"
                 sodipodi:nodetypes="ccccc" />
              <path
                 style="opacity:0.99;fill:#ff5555;fill-opacity:1;stroke:#060000;stroke-width:9.6;stroke-linecap:round;stroke-linejoin:round;stroke-dasharray:none;stroke-opacity:0.992157;paint-order:markers stroke fill"
                 d="m 1150.7785,1028.5535 -134.3843,-14.739 5.202,260.9656 135.2512,1.734 z"
                 id="path26-3" />
              <path
                 style="opacity:0.99;fill:#ff5555;fill-opacity:1;stroke:#060000;stroke-width:9.46366;stroke-linecap:round;stroke-linejoin:round;stroke-dasharray:none;stroke-opacity:0.992157;paint-order:markers stroke fill"
                 d="m 1365.1336,1121.3441 -105.8343,-3.8766 6.0025,21.5335 z"
                 id="path27-7"
                 sodipodi:nodetypes="cccc" />
            </g>
          </g>
          <path
             style="opacity:0.99;fill:#fe5454;fill-opacity:1;stroke:#060000;stroke-width:9.93765;stroke-linecap:round;stroke-linejoin:round;stroke-dasharray:none;stroke-opacity:0.992157;paint-order:markers stroke fill"
             d="m 1498.7464,1022.8833 9.7781,56.8621 -93.8629,-7.3291 4.2627,-82.4093 z"
             id="path32-6"
             sodipodi:nodetypes="ccccc" />
        </g>
        <g
           id="g34"
           transform="matrix(0.65220956,0,0,0.61335349,13.330964,21.399722)">
          <g
             id="g31"
             transform="translate(-102.99376,-19.617859)">
            <g
               id="g29-8"
               transform="translate(-210.44323,-3.5418717)">
              <g
                 id="g30"
                 transform="translate(-29.477833,5.2019704)">
                <path
                   style="opacity:0.99;fill:#800000;stroke:#060000;stroke-width:9.6;stroke-linecap:round;stroke-linejoin:round;stroke-dasharray:none;stroke-opacity:0.992157;paint-order:markers stroke fill"
                   d="m 1155.4153,1026.2406 2.601,247.9605 c 61.637,-1.7599 156.2128,4.6601 229.3946,-3.0471 -34.5319,-192.6751 -21.9586,-146.1287 -36.9217,-243.1794 l -147.7217,-72.8558 -44.1402,26.97459 11.0351,24.52231 z"
                   id="path22-7-3"
                   sodipodi:nodetypes="cccccccc" />
                <path
                   style="opacity:0.99;fill:#ff5555;stroke:#060000;stroke-width:9.6;stroke-linecap:round;stroke-linejoin:round;stroke-dasharray:none;stroke-opacity:0.52549;paint-order:markers stroke fill"
                   d="m 1201.5414,953.89269 -163.0735,-35.55737 -22.07,39.23572 137.325,24.52225 z"
                   id="path23-4-4" />
                <path
                   style="opacity:0.99;fill:#ff5555;stroke:#050000;stroke-width:9.6;stroke-linecap:round;stroke-linejoin:round;stroke-dasharray:none;stroke-opacity:0.984314;paint-order:markers stroke fill"
                   d="m 1154.949,1027.4597 15.9395,-22.0702 -14.7134,-22.07011 -139.7772,-24.52224 6.1305,315.11195 133.6467,2.4522 z"
                   id="path24-7-5" />
                <path
                   style="opacity:0.99;fill:#ff5555;stroke:#050000;stroke-width:9.6;stroke-linecap:round;stroke-linejoin:round;stroke-dasharray:none;stroke-opacity:0.984314;paint-order:markers stroke fill"
                   d="m 1351.1276,1027.4597 -143.7531,-112.06954 -169.476,3.01953 164.2995,35.99087 z"
                   id="path25-8-0"
                   sodipodi:nodetypes="ccccc" />
                <path
                   style="opacity:0.99;fill:#ff5555;stroke:#070101;stroke-width:9.6;stroke-linecap:round;stroke-linejoin:round;stroke-dasharray:none;stroke-opacity:1;paint-order:markers stroke fill"
                   d="m 1150.7785,1028.5535 -134.3843,-14.739 5.202,260.9656 135.2512,1.734 z"
                   id="path26-3-1" />
              </g>
            </g>
          </g>
          <path
             style="opacity:0.99;fill:#ff5555;fill-opacity:1;stroke:#060000;stroke-width:8.92743;stroke-linecap:round;stroke-linejoin:round;stroke-dasharray:none;stroke-opacity:0.992157;paint-order:markers stroke fill"
             d="m 851.99705,1230.5279 -4.92126,-191.7938 18.86483,-26.1537 -23.78609,-18.22834 25.42649,-14.26566 118.1102,54.6849 27.06678,196.5491 z"
             id="path33" />
        </g>
        <g
           id="g33"
           transform="matrix(0.65220956,0,0,0.61335349,106.64892,16.081982)">
          <g
             id="g28"
             transform="translate(-107.89822,-22.070091)">
            <path
               style="opacity:0.99;fill:#800000;stroke:#060000;stroke-width:9.6;stroke-linecap:round;stroke-linejoin:round;stroke-dasharray:none;stroke-opacity:1;paint-order:markers stroke fill"
               d="m 523.7385,1046.6023 2.60099,247.9605 184.66995,-6.0689 32.94581,-91.0345 -6.06897,-39.8818 -105.7734,-2.601 -4.33497,-13.8718 -14.73892,-7.803 121.37931,0.867 -3.46798,-45.0837 -12.13793,-40.7488 -147.7217,-72.85569 -44.14018,26.97459 11.03505,24.5223 z"
               id="path22" />
            <path
               style="opacity:0.99;fill:#ff5555;stroke:#020101;stroke-width:9.6;stroke-linecap:round;stroke-linejoin:round;stroke-dasharray:none;stroke-opacity:1;paint-order:markers stroke fill"
               d="m 569.86457,974.2545 -163.07346,-35.55737 -22.07009,39.23572 137.32502,24.52225 z"
               id="path23" />
            <path
               style="opacity:0.99;fill:#ff5555;stroke:#020000;stroke-width:9.6;stroke-linecap:round;stroke-linejoin:round;stroke-dasharray:none;stroke-opacity:1;paint-order:markers stroke fill"
               d="m 523.27215,1047.8214 15.93951,-22.0701 -14.71339,-22.0701 -139.77725,-24.52224 6.13058,315.11184 133.64667,2.4522 z"
               id="path24" />
            <path
               style="opacity:0.99;fill:#ff5555;stroke:#040000;stroke-width:9.6;stroke-linecap:round;stroke-linejoin:round;stroke-dasharray:none;stroke-opacity:1;paint-order:markers stroke fill"
               d="M 719.45074,1047.8214 575.69764,935.75197 406.22163,938.7715 570.5212,974.76237 Z"
               id="path25"
               sodipodi:nodetypes="ccccc" />
            <path
               style="opacity:0.99;fill:#ff5555;stroke:#000000;stroke-width:9.6;stroke-linecap:round;stroke-linejoin:round;stroke-dasharray:none;stroke-opacity:1;paint-order:markers stroke fill"
               d="m 519.10163,1048.9152 -134.38423,-14.7389 5.20197,260.9655 135.25123,1.734 z"
               id="path26" />
            <path
               style="opacity:0.99;fill:#ff5555;fill-opacity:1;stroke:#060000;stroke-width:9.92584;stroke-linecap:round;stroke-linejoin:round;stroke-dasharray:none;stroke-opacity:0.992157;paint-order:markers stroke fill"
               d="m 736.45375,1152.5277 -117.07504,-19.3283 3.326,21.7443 z"
               id="path27"
               sodipodi:nodetypes="cccc" />
          </g>
          <path
             style="opacity:0.99;fill:#fe5454;fill-opacity:1;stroke:#060000;stroke-width:9.93765;stroke-linecap:round;stroke-linejoin:round;stroke-dasharray:none;stroke-opacity:0.992157;paint-order:markers stroke fill"
             d="m 594.17457,1037.3394 9.77806,56.8621 -93.86293,-7.3291 4.26275,-82.4093 z"
             id="path32"
             sodipodi:nodetypes="ccccc" />
          <path
             style="opacity:0.99;fill:#fe5454;fill-opacity:1;stroke:#060000;stroke-width:9.93765;stroke-linecap:round;stroke-linejoin:round;stroke-dasharray:none;stroke-opacity:0.992157;paint-order:markers stroke fill"
             d="m 609.76121,1171.3069 -21.00026,75.069 -81.725,2.2079 0.79477,-88.4783 z"
             id="path32-0"
             sodipodi:nodetypes="ccccc" />
        </g>
      </g>
      <path
         style="opacity:0.99;fill:#800000;fill-opacity:1;stroke:#060000;stroke-width:0.655067;stroke-linecap:round;stroke-linejoin:round;stroke-dasharray:none;stroke-opacity:0.992157;paint-order:markers stroke fill"
         d="m 922.58208,310.76257 c 64.1688,7.25302 51.76278,175.84299 18.72656,207.5855 -100.96363,97.00956 -258.65712,-234.7049 -18.72656,-207.5855 z"
         id="path40-0"
         sodipodi:nodetypes="sss" />
      <path
         id="path39-5"
         style="opacity:0.99;fill:#800000;fill-opacity:1;stroke:#060000;stroke-width:0.655067;stroke-linecap:round;stroke-linejoin:round;stroke-dasharray:none;stroke-opacity:0.992157;paint-order:markers stroke fill"
         d="m 805.18805,296.39069 c -18.05326,-0.10503 -36.94751,2.0808 -44.25897,9.00816 -43.36967,41.09128 -8.37026,47.84613 -24.31128,108.2601 -4.11256,31.44921 11.79312,66.47124 15.19387,96.1684 1.36264,11.89933 56.2302,20.86801 76.58136,18.42749 l 4.25407,-114.01992 c 0,-1.17374 11.79023,-4.63486 15.80316,-7.48651 55.54007,-39.46677 24.24978,-88.58608 21.8796,-92.13642 -6.92725,-8.49681 -20.42477,-10.80922 -30.3891,-14.97166 -7.17892,-1.70045 -20.71128,-3.16795 -34.75271,-3.24964 z" />
      <path
         style="opacity:0.99;fill:#800000;fill-opacity:1;stroke:#060000;stroke-width:0.655067;stroke-linecap:round;stroke-linejoin:round;stroke-dasharray:none;stroke-opacity:0.992157;paint-order:markers stroke fill"
         d="m 714.51436,308.21822 c 64.16884,7.25303 51.7628,175.84304 18.72654,207.58546 C 632.27728,612.81333 474.5838,281.09883 714.51436,308.21822 Z"
         id="path40"
         sodipodi:nodetypes="sss" />
      <path
         style="opacity:0.99;fill:#800000;fill-opacity:1;stroke:#060000;stroke-width:0.655067;stroke-linecap:round;stroke-linejoin:round;stroke-dasharray:none;stroke-opacity:0.992157;paint-order:markers stroke fill"
         d="m 521.31724,314.38239 c 12.99816,-12.31532 62.60297,-9.64528 79.01194,-5.75856 9.96432,4.16245 23.46195,6.47543 30.3892,14.97224 2.37018,3.55035 33.65984,52.66992 -21.88023,92.13678 -4.01293,2.85156 -15.80238,6.31233 -15.80238,7.48607 0,1.34362 2.83633,0 4.25449,0 h 7.2934 c 60.39967,-2.79049 42.049,87.51094 37.07483,96.16776 -11.05972,15.71808 -34.67366,17.85152 -52.87721,17.85152 -20.35117,2.44053 -75.21816,-6.52798 -76.58081,-18.4274 -3.40073,-29.69706 -19.30715,-64.71856 -15.19459,-96.16776 15.94101,-60.41394 -19.05831,-67.16935 24.31136,-108.26065 z"
         id="path39"
         sodipodi:nodetypes="ssssssssssss" />
    </g>
  </g>
</svg>
