<?xml version="1.0" encoding="UTF-8" standalone="no"?>
<!-- Created with Inkscape (http://www.inkscape.org/) -->

<svg
   width="8.5in"
   height="11in"
   viewBox="0 0 816 1056"
   version="1.1"
   id="svg1"
   inkscape:version="1.4 (86a8ad7, 2024-10-11)"
   sodipodi:docname="drawing3.svg"
   xmlns:inkscape="http://www.inkscape.org/namespaces/inkscape"
   xmlns:sodipodi="http://sodipodi.sourceforge.net/DTD/sodipodi-0.dtd"
   xmlns="http://www.w3.org/2000/svg"
   xmlns:svg="http://www.w3.org/2000/svg">
  <sodipodi:namedview
     id="namedview1"
     pagecolor="#ffffff"
     bordercolor="#000000"
     borderopacity="0.25"
     inkscape:showpageshadow="2"
     inkscape:pageopacity="0.0"
     inkscape:pagecheckerboard="0"
     inkscape:deskcolor="#d1d1d1"
     inkscape:document-units="in"
     inkscape:zoom="0.37029361"
     inkscape:cx="1317.8731"
     inkscape:cy="749.40532"
     inkscape:window-width="1344"
     inkscape:window-height="755"
     inkscape:window-x="489"
     inkscape:window-y="17"
     inkscape:window-maximized="0"
     inkscape:current-layer="layer2" />
  <defs
     id="defs1" />
  <g
     inkscape:label="Layer 1"
     inkscape:groupmode="layer"
     id="layer1"
     transform="matrix(0.99649458,0,0,1.0000061,2.8528212,-0.0032082)"
     sodipodi:insensitive="true">
    <g
       id="g2"
       transform="matrix(0.99984249,0,0,1.0741708,-0.41352869,0.07739955)"
       style="fill:#e6e6e6">
      <rect
         style="fill:#e6e6e6;stroke:#000000;stroke-width:3.53614;stroke-linecap:square;stroke-dasharray:none;paint-order:markers stroke fill"
         id="rect1"
         width="203.5639"
         height="196.23808"
         x="-1.6628703"
         y="0.32844627" />
      <rect
         style="fill:#e6e6e6;stroke:#000000;stroke-width:3.53614;stroke-linecap:square;stroke-dasharray:none;paint-order:markers stroke fill"
         id="rect1-0"
         width="203.5639"
         height="196.23808"
         x="201.71599"
         y="0.19675088" />
      <rect
         style="fill:#e6e6e6;stroke:#000000;stroke-width:3.53614;stroke-linecap:square;stroke-dasharray:none;paint-order:markers stroke fill"
         id="rect1-0-8"
         width="203.5639"
         height="196.23808"
         x="405.70551"
         y="-0.10296623" />
      <rect
         style="fill:#e6e6e6;stroke:#000000;stroke-width:3.53614;stroke-linecap:square;stroke-dasharray:none;paint-order:markers stroke fill"
         id="rect1-0-8-3"
         width="203.5639"
         height="196.23808"
         x="609.7887"
         y="-0.17725395" />
    </g>
    <g
       id="g1"
       transform="matrix(0.99984249,0,0,1.0741708,0.18314118,2.209055)"
       style="fill:#e6e6e6">
      <rect
         style="fill:#e6e6e6;stroke:#000000;stroke-width:3.53614;stroke-linecap:square;stroke-dasharray:none;paint-order:markers stroke fill"
         id="rect1-5"
         width="203.5639"
         height="196.23808"
         x="-2.0901437"
         y="194.715" />
      <rect
         style="fill:#e6e6e6;stroke:#000000;stroke-width:3.53614;stroke-linecap:square;stroke-dasharray:none;paint-order:markers stroke fill"
         id="rect1-0-86"
         width="203.5639"
         height="196.23808"
         x="201.28873"
         y="194.58328" />
      <rect
         style="fill:#e6e6e6;stroke:#000000;stroke-width:3.53614;stroke-linecap:square;stroke-dasharray:none;paint-order:markers stroke fill"
         id="rect1-0-8-7"
         width="203.5639"
         height="196.23808"
         x="405.27826"
         y="194.28357" />
      <rect
         style="fill:#e6e6e6;stroke:#000000;stroke-width:3.53614;stroke-linecap:square;stroke-dasharray:none;paint-order:markers stroke fill"
         id="rect1-0-8-3-7"
         width="203.5639"
         height="196.23808"
         x="609.36145"
         y="194.20929" />
    </g>
    <g
       id="g3"
       transform="translate(-0.47739602)">
      <rect
         style="fill:#e6e6e6;stroke:#000000;stroke-width:3.66464;stroke-linecap:square;stroke-dasharray:none;paint-order:markers stroke fill"
         id="rect1-1"
         width="203.53185"
         height="210.79321"
         x="-1.7609035"
         y="421.71252" />
      <rect
         style="fill:#e6e6e6;stroke:#000000;stroke-width:3.66464;stroke-linecap:square;stroke-dasharray:none;paint-order:markers stroke fill"
         id="rect1-0-9"
         width="203.53185"
         height="210.79321"
         x="201.58592"
         y="421.57104" />
      <rect
         style="fill:#e6e6e6;stroke:#000000;stroke-width:3.66464;stroke-linecap:square;stroke-dasharray:none;paint-order:markers stroke fill"
         id="rect1-0-8-6"
         width="203.53185"
         height="210.79321"
         x="405.5433"
         y="421.24911" />
      <rect
         style="fill:#e6e6e6;stroke:#000000;stroke-width:3.66464;stroke-linecap:square;stroke-dasharray:none;paint-order:markers stroke fill"
         id="rect1-0-8-3-9"
         width="203.53185"
         height="210.79321"
         x="609.59436"
         y="421.16931" />
    </g>
    <g
       id="g4">
      <rect
         style="fill:#e6e6e6;stroke:#000000;stroke-width:3.66464;stroke-linecap:square;stroke-dasharray:none;paint-order:markers stroke fill"
         id="rect1-4"
         width="203.53185"
         height="210.79321"
         x="-2.3810627"
         y="631.94305" />
      <rect
         style="fill:#e6e6e6;stroke:#000000;stroke-width:3.66464;stroke-linecap:square;stroke-dasharray:none;paint-order:markers stroke fill"
         id="rect1-0-91"
         width="203.53185"
         height="210.79321"
         x="200.96577"
         y="631.80164" />
      <rect
         style="fill:#e6e6e6;stroke:#000000;stroke-width:3.66464;stroke-linecap:square;stroke-dasharray:none;paint-order:markers stroke fill"
         id="rect1-0-8-2"
         width="203.53185"
         height="210.79321"
         x="404.92319"
         y="631.47968" />
      <rect
         style="fill:#e6e6e6;stroke:#000000;stroke-width:3.66464;stroke-linecap:square;stroke-dasharray:none;paint-order:markers stroke fill"
         id="rect1-0-8-3-5"
         width="203.53185"
         height="210.79321"
         x="608.97424"
         y="631.3999" />
    </g>
    <rect
       style="fill:#e6e6e6;stroke:#000000;stroke-width:3.66464;stroke-linecap:square;stroke-dasharray:none;paint-order:markers stroke fill"
       id="rect1-3"
       width="203.53185"
       height="210.79321"
       x="-2.3810627"
       y="843.21863" />
    <rect
       style="fill:#e6e6e6;stroke:#000000;stroke-width:3.66464;stroke-linecap:square;stroke-dasharray:none;paint-order:markers stroke fill"
       id="rect1-0-96"
       width="203.53185"
       height="210.79321"
       x="200.96577"
       y="843.07721" />
    <rect
       style="fill:#e6e6e6;stroke:#000000;stroke-width:3.66464;stroke-linecap:square;stroke-dasharray:none;paint-order:markers stroke fill"
       id="rect1-0-8-79"
       width="203.53185"
       height="210.79321"
       x="404.92319"
       y="842.75525" />
    <rect
       style="fill:#e6e6e6;stroke:#000000;stroke-width:3.66464;stroke-linecap:square;stroke-dasharray:none;paint-order:markers stroke fill"
       id="rect1-0-8-3-97"
       width="203.53185"
       height="210.79321"
       x="608.97424"
       y="842.67548" />
  </g>
  <g
     inkscape:groupmode="layer"
     id="layer2"
     inkscape:label="Layer 2">
    <path
       style="fill:#e6e6e6;stroke:#000000;stroke-width:5.088;stroke-linecap:square;stroke-dasharray:none;paint-order:markers stroke fill"
       d="M 1.3502799,25.655317 C 32.299947,-2.2380761 142.41847,-5.2001687 184.98834,7.4265392 198.94643,11.566669 204.90862,83.710051 197.816,97.89529 c -7.0499,14.09981 -9.75691,14.95473 -25.65532,20.2542 -4.91711,1.63903 -18.58654,1.35028 -16.20336,1.35028 14.67189,0.0894 33.56439,6.20473 43.8841,16.8785 2.11217,4.22434 1.35028,34.82634 1.35028,41.85867 0,3.34463 -3.76065,28.06569 -4.72598,29.03102 C 156.94755,209.04228 3.5141155,210.86112 3.3756996,208.61824 -0.44682567,146.67839 0.77169508,87.028783 1.3502799,25.655317 Z"
       id="path4"
       sodipodi:nodetypes="cssssssssc" />
    <path
       style="fill:#e6e6e6;stroke:#000000;stroke-width:5.088;stroke-linecap:square;stroke-dasharray:none;paint-order:markers stroke fill"
       d="M 407.4095,24.622431 C 438.35917,-3.2709617 548.47769,-6.2330547 591.04756,6.3936534 c 13.95809,4.1401296 19.92028,76.2835076 12.82766,90.4687476 -7.0499,14.099809 -9.75691,14.954729 -25.65532,20.254199 -4.91711,1.63903 -129.98463,2.02542 -127.60145,2.02542 14.67189,0.0894 93.65185,-5.27265 103.97156,5.40112 3.6655,7.331 13.21919,79.27497 9.45195,83.04221 -39.51817,1.77432 -154.46862,2.24288 -154.60704,0 -3.82253,-61.93985 -2.604,-121.589449 -2.02542,-182.962919 z"
       id="path4-7"
       sodipodi:nodetypes="csssssssc" />
    <path
       style="fill:#e6e6e6;stroke:#000000;stroke-width:5.088;stroke-linecap:square;stroke-dasharray:none;paint-order:markers stroke fill"
       d="m 203.21712,8.7768191 c 12.57982,-18.8254431 196.5313,-5.3355347 200.51656,-1.3502799 -5.28357,64.5688558 8.88555,131.5911508 1.35028,195.7905808 -0.37178,1.48711 -1.43592,0.0856 -2.02542,0.67514 -42.61348,10.447 -196.56208,2.6042 -199.16628,0 C 192.91171,192.91171 200.68419,26.507368 203.21712,8.7768191 Z"
       id="path5"
       sodipodi:nodetypes="csscsc" />
    <path
       style="fill:#e6e6e6;stroke:#000000;stroke-width:5.088;stroke-linecap:square;stroke-dasharray:none;paint-order:markers stroke fill"
       d="m 610.87046,9.046079 c 12.57982,-18.825443 196.5313,-5.335535 200.51656,-1.35028 -5.28357,64.568856 8.88555,131.591151 1.35028,195.790571 -0.37178,1.48711 -1.43592,0.0856 -2.02542,0.67514 -42.61348,10.447 -196.56208,2.6042 -199.16628,0 C 600.56505,193.18096 608.33753,26.776628 610.87046,9.046079 Z"
       id="path5-2"
       sodipodi:nodetypes="csscsc" />
    <path
       style="fill:#e6e6e6;stroke:#000000;stroke-width:5.04251;stroke-linecap:square;stroke-dasharray:none;paint-order:markers stroke fill"
       d="M 0.32239635,238.42752 C 31.279093,211.03684 141.42261,208.12814 184.00214,220.52728 c 13.96126,4.06551 19.92481,74.90866 12.83058,88.83825 -7.0515,13.84569 -9.75913,14.6852 -25.66115,19.88916 -4.91822,1.60949 -18.59076,1.32594 -16.20704,1.32594 14.67523,0.0878 33.57201,6.09291 43.89407,16.5743 2.11265,4.14821 1.35058,34.19868 1.35058,41.10426 0,3.28435 -3.7615,27.55987 -4.72705,28.5078 -39.52714,1.74235 -192.9954024,3.5284 -193.1338538,1.32595 C -1.4751216,357.26942 -0.256315,298.69486 0.32239635,238.42752 Z"
       id="path4-6"
       sodipodi:nodetypes="cssssssssc" />
    <path
       style="fill:#e6e6e6;stroke:#000000;stroke-width:5.03985;stroke-linecap:square;stroke-dasharray:none;paint-order:markers stroke fill"
       d="m 406.38029,237.36663 c 30.95713,-27.36136 141.10218,-30.26695 183.6823,-17.88109 13.96146,4.06116 19.92508,74.8285 12.83076,88.74318 -7.0516,13.83087 -9.75927,14.66949 -25.66151,19.86788 -4.91829,1.60776 -130.01594,1.98678 -127.63219,1.98678 14.67542,0.0877 93.67441,-5.17208 103.99661,5.2981 3.66638,7.19117 13.22238,77.76291 9.45423,81.45829 -39.52769,1.74048 -154.50584,2.2001 -154.64429,0 -3.82345,-60.75843 -2.60463,-119.27029 -2.02591,-179.47314 z"
       id="path4-7-1"
       sodipodi:nodetypes="csssssssc" />
    <g
       id="g7">
      <path
         style="fill:#e6e6e6;stroke:#000000;stroke-width:5.088;stroke-linecap:square;stroke-dasharray:none;paint-order:markers stroke fill"
         d="m 202.21186,222.02921 c 12.57982,-18.82544 196.5313,-5.33554 200.51656,-1.35028 -5.28357,64.56885 8.88555,131.59115 1.35028,195.79058 -0.37178,1.48711 -1.43592,0.0856 -2.02542,0.67514 -42.61348,10.447 -196.56208,2.6042 -199.16628,0 -10.98055,-10.98055 -3.20807,-177.38489 -0.67514,-195.11544 z"
         id="path5-6"
         sodipodi:nodetypes="csscsc" />
      <path
         style="opacity:0.99;fill:none;stroke:#000000;stroke-width:3.9924;stroke-linecap:square;stroke-dasharray:none;paint-order:markers stroke fill"
         d="m 196.92861,344.80626 c 32.57955,-54.41033 167.21106,-65.59199 208.87369,4.9362"
         id="path6"
         sodipodi:nodetypes="cc" />
      <path
         style="opacity:0.99;fill:#1a1a1a;stroke:#000000;stroke-width:3.84;stroke-linecap:square;stroke-dasharray:none;paint-order:markers stroke fill"
         d="m 230.89786,319.34119 c -2.16006,30.56454 156.13897,25.08829 145.15508,0.67514 -5.44801,-12.10892 -126.01328,-34.91843 -145.15508,-0.67514 z"
         id="path7"
         sodipodi:nodetypes="csc" />
      <path
         style="opacity:0.99;fill:#1a1a1a;stroke:#000000;stroke-width:3.84;stroke-linecap:square;stroke-dasharray:none;paint-order:markers stroke fill"
         d="m 120.17491,315.96549 c -1.13603,-0.48319 -7.03632,-81.66302 2.02542,-85.06763 80.76905,-30.34593 70.02667,115.71335 -2.02542,85.06763 z"
         id="path8"
         sodipodi:nodetypes="sss" />
      <path
         style="opacity:0.99;fill:#1a1a1a;stroke:#000000;stroke-width:3.84;stroke-linecap:square;stroke-dasharray:none;paint-order:markers stroke fill"
         d="m 530.48056,312.72816 c -1.13603,-0.48319 -7.03632,-81.66302 2.02542,-85.06763 80.76905,-30.34593 70.02667,115.71335 -2.02542,85.06763 z"
         id="path8-2"
         sodipodi:nodetypes="sss" />
      <path
         style="opacity:0.99;fill:#1a1a1a;stroke:#000000;stroke-width:3.13882;stroke-linecap:square;stroke-dasharray:none;paint-order:markers stroke fill"
         d="m 126.85661,407.45315 c -1.14888,-0.31923 -7.1159,-53.95256 2.04832,-56.2019 81.68252,-20.04873 70.81864,76.4487 -2.04832,56.2019 z"
         id="path8-3"
         sodipodi:nodetypes="sss" />
    </g>
    <g
       id="g7-2"
       transform="translate(408.35152,-0.98873216)">
      <path
         style="fill:#e6e6e6;stroke:#000000;stroke-width:5.088;stroke-linecap:square;stroke-dasharray:none;paint-order:markers stroke fill"
         d="m 202.21186,222.02921 c 12.57982,-18.82544 196.5313,-5.33554 200.51656,-1.35028 -5.28357,64.56885 8.88555,131.59115 1.35028,195.79058 -0.37178,1.48711 -1.43592,0.0856 -2.02542,0.67514 -42.61348,10.447 -196.56208,2.6042 -199.16628,0 -10.98055,-10.98055 -3.20807,-177.38489 -0.67514,-195.11544 z"
         id="path5-6-8"
         sodipodi:nodetypes="csscsc" />
      <path
         style="opacity:0.99;fill:none;stroke:#000000;stroke-width:3.9924;stroke-linecap:square;stroke-dasharray:none;paint-order:markers stroke fill"
         d="m 196.92861,344.80626 c 32.57955,-54.41033 167.21106,-65.59199 208.87369,4.9362"
         id="path6-2"
         sodipodi:nodetypes="cc" />
      <path
         style="opacity:0.99;fill:#1a1a1a;stroke:#000000;stroke-width:3.84;stroke-linecap:square;stroke-dasharray:none;paint-order:markers stroke fill"
         d="m 230.89786,319.34119 c -2.16006,30.56454 156.13897,25.08829 145.15508,0.67514 -5.44801,-12.10892 -126.01328,-34.91843 -145.15508,-0.67514 z"
         id="path7-5"
         sodipodi:nodetypes="csc" />
    </g>
    <g
       id="g14">
      <g
         id="g10">
        <g
           id="g11">
          <path
             style="opacity:0.99;fill:none;stroke:#000000;stroke-width:3.84;stroke-linecap:square;stroke-dasharray:none;paint-order:markers stroke fill"
             d="m 181.61264,423.31274 c 38.38373,1.05778 22.16766,52.23916 18.22878,84.39249 -3.17947,25.95424 -8.85974,20.04501 -4.99861,44.00695 15.11838,93.82361 8.95469,77.24951 -160.008159,80.34165 C -27.033713,633.18607 29.105566,512.16205 1.0026539,454.0562 1.284013,403.52428 139.73043,422.15854 181.61264,423.31274 Z"
             id="path9"
             sodipodi:nodetypes="ssssss" />
        </g>
        <g
           id="g11-5"
           transform="translate(402.18519,-1.2473087)">
          <path
             style="opacity:0.99;fill:none;stroke:#000000;stroke-width:3.84;stroke-linecap:square;stroke-dasharray:none;paint-order:markers stroke fill"
             d="m 181.61264,423.31274 c 38.38373,1.05778 15.2725,60.38802 19.57906,92.49417 3.57193,26.62938 -83.81092,6.90377 -79.94979,30.86571 15.11838,93.82361 82.55559,82.28907 -86.407259,85.38121 C -27.033713,633.18607 29.105566,512.16205 1.0026539,454.0562 1.284013,403.52428 139.73043,422.15854 181.61264,423.31274 Z"
             id="path9-9"
             sodipodi:nodetypes="ssssss" />
        </g>
      </g>
      <g
         id="g12">
        <path
           style="opacity:0.99;fill:none;stroke:#000000;stroke-width:3.84;stroke-linecap:square;stroke-dasharray:none;paint-order:markers stroke fill"
           d="m 214.35081,422.01808 c 36.59973,6.3888 202.5078,-5.34059 191.43581,6.68355 -25.75747,27.97252 23.62703,206.81807 -9.54792,200.98372 -48.02027,-8.44514 -132.27963,10.86477 -184.27487,-0.47739 -6.15401,-3.07701 -9.57142,-11.76843 -8.59312,-18.14105 8.11528,-52.86266 -11.80858,-193.02679 10.9801,-189.04883 z"
           id="path11"
           sodipodi:nodetypes="ssssss" />
        <path
           style="opacity:0.99;fill:none;stroke:#000000;stroke-width:3.84;stroke-linecap:square;stroke-dasharray:none;paint-order:markers stroke fill"
           d="m 294.07595,456.3906 c 0.81615,25.92295 -6.6608,52.76194 -7.16094,78.29294 0,8.35667 -5.55571,39.96996 -2.86437,45.35263 0.0657,0.13146 6.88525,0.93182 7.16094,0.95479 6.05711,0.50476 28.88715,4.76458 32.46293,-2.38698 7.4815,-23.401 0.44569,-47.77911 0.95479,-71.6094 0,-13.03375 0.5892,-26.17514 -1.90959,-38.66908 -0.64722,-3.23611 1.61621,-11.27349 -0.47739,-13.36709 -1.46715,-1.46715 -24.18485,-0.84297 -28.16637,1.43219 z"
           id="path12"
           sodipodi:nodetypes="csssssssc" />
        <path
           style="opacity:0.99;fill:none;stroke:#000000;stroke-width:3.84;stroke-linecap:square;stroke-dasharray:none;paint-order:markers stroke fill"
           d="m 583.31252,453.55808 c -25.77694,2.86619 -53.12369,-2.46215 -78.61413,-0.93915 -8.33043,0.66169 -40.28437,-2.37341 -45.43704,0.73569 -0.12584,0.0759 -0.38371,6.93741 -0.38478,7.21406 -0.0236,6.07806 -2.46231,29.17371 4.94993,32.172 23.91992,5.60509 47.66439,-3.33891 71.46017,-4.71831 12.99282,-1.03203 26.13961,-1.48522 38.39646,-4.96545 3.1747,-0.90143 11.36607,0.71849 13.28732,-1.53431 1.34638,-1.57872 -1.07465,-24.17566 -3.65793,-27.96453 z"
           id="path12-0"
           sodipodi:nodetypes="csssssssc" />
        <path
           style="opacity:0.99;fill:none;stroke:#000000;stroke-width:3.84;stroke-linecap:square;stroke-dasharray:none;paint-order:markers stroke fill"
           d="m 180.48186,463.82388 c -25.89971,1.3676 -52.89173,-5.53652 -78.42759,-5.49324 -8.354776,0.17783 -40.079133,-4.70389 -45.403311,-1.89861 -0.130032,0.0685 -0.78509,6.90352 -0.802188,7.17963 -0.37575,6.06648 -4.14878,28.982 3.077253,32.40479 23.554913,6.98183 47.777766,-0.57116 71.613496,-0.56929 13.0308,-0.27736 26.18175,0.0321 38.61969,-2.73204 3.2216,-0.71593 11.30533,1.37595 13.3539,-0.76173 1.4356,-1.49804 0.32812,-24.19731 -2.03125,-28.12951 z"
           id="path12-4"
           sodipodi:nodetypes="csssssssc" />
        <path
           style="opacity:0.99;fill:none;stroke:#000000;stroke-width:3.84;stroke-linecap:square;stroke-dasharray:none;paint-order:markers stroke fill"
           d="m 179.46618,561.80131 c -25.89971,1.3676 -52.89173,-5.53652 -78.42759,-5.49324 -8.354783,0.17783 -40.079133,-4.70389 -45.403313,-1.89861 -0.13003,0.0685 -0.78509,6.90352 -0.80219,7.17963 -0.37575,6.06648 -4.14878,28.982 3.07725,32.40479 23.55492,6.98183 47.777773,-0.57116 71.613503,-0.56929 13.0308,-0.27736 26.18175,0.0321 38.61969,-2.73204 3.2216,-0.71593 11.30533,1.37595 13.3539,-0.76173 1.4356,-1.49804 0.32812,-24.19731 -2.03125,-28.12951 z"
           id="path12-4-7"
           sodipodi:nodetypes="csssssssc" />
      </g>
      <g
         id="g12-2"
         transform="translate(407.08337,0.23683783)">
        <path
           style="opacity:0.99;fill:none;stroke:#000000;stroke-width:3.84;stroke-linecap:square;stroke-dasharray:none;paint-order:markers stroke fill"
           d="m 214.35081,422.01808 c 36.59973,6.3888 202.5078,-5.34059 191.43581,6.68355 -25.75747,27.97252 23.62703,206.81807 -9.54792,200.98372 -48.02027,-8.44514 -132.27963,10.86477 -184.27487,-0.47739 -6.15401,-3.07701 -9.57142,-11.76843 -8.59312,-18.14105 8.11528,-52.86266 -11.80858,-193.02679 10.9801,-189.04883 z"
           id="path11-5"
           sodipodi:nodetypes="ssssss" />
        <path
           style="opacity:0.99;fill:none;stroke:#000000;stroke-width:3.84;stroke-linecap:square;stroke-dasharray:none;paint-order:markers stroke fill"
           d="m 294.07595,456.3906 c 0.81615,25.92295 -6.6608,52.76194 -7.16094,78.29294 0,8.35667 -5.55571,39.96996 -2.86437,45.35263 0.0657,0.13146 6.88525,0.93182 7.16094,0.95479 6.05711,0.50476 28.88715,4.76458 32.46293,-2.38698 7.4815,-23.401 0.44569,-47.77911 0.95479,-71.6094 0,-13.03375 0.5892,-26.17514 -1.90959,-38.66908 -0.64722,-3.23611 1.61621,-11.27349 -0.47739,-13.36709 -1.46715,-1.46715 -24.18485,-0.84297 -28.16637,1.43219 z"
           id="path12-7"
           sodipodi:nodetypes="csssssssc" />
      </g>
    </g>
    <rect
       style="opacity:0.99;fill:#cccccc;stroke:#000000;stroke-width:3.56585;stroke-linecap:square;stroke-dasharray:none;paint-order:markers stroke fill"
       id="rect14"
       width="189.18727"
       height="194.7522"
       x="6.2188325"
       y="640.59625" />
    <rect
       style="opacity:0.99;fill:#cccccc;stroke:#000000;stroke-width:3.56585;stroke-linecap:square;stroke-dasharray:none;paint-order:markers stroke fill"
       id="rect14-2"
       width="189.18727"
       height="194.7522"
       x="209.55717"
       y="640.56836" />
    <rect
       style="opacity:0.99;fill:#cccccc;stroke:#000000;stroke-width:3.56585;stroke-linecap:square;stroke-dasharray:none;paint-order:markers stroke fill"
       id="rect14-9"
       width="189.18727"
       height="194.7522"
       x="411.39413"
       y="640.22412" />
    <rect
       style="opacity:0.99;fill:#cccccc;stroke:#000000;stroke-width:3.56585;stroke-linecap:square;stroke-dasharray:none;paint-order:markers stroke fill"
       id="rect14-3"
       width="189.18727"
       height="194.7522"
       x="615.71967"
       y="640.22412" />
    <path
       style="opacity:0.99;fill:none;stroke:#000000;stroke-width:2.9009;stroke-linecap:square;stroke-dasharray:none;paint-order:markers stroke fill"
       d="m 194.93026,730.57744 -33.59361,0.52306"
       id="path14" />
    <path
       style="opacity:0.99;fill:#1a1a1a;stroke:#000000;stroke-width:2.88102;stroke-linecap:square;stroke-dasharray:none;paint-order:markers stroke fill"
       d="m 599.49972,731.13662 -32.73758,-0.0389 0.38433,102.91313 33.41773,0.4774 z"
       id="path14-2" />
    <rect
       style="opacity:0.99;fill:none;stroke:#000000;stroke-width:3.84;stroke-linecap:square;stroke-dasharray:none;paint-order:markers stroke fill"
       id="rect17"
       width="62.112873"
       height="190.38947"
       x="10.127099"
       y="851.35144" />
    <rect
       style="opacity:0.99;fill:none;stroke:#000000;stroke-width:3.84;stroke-linecap:square;stroke-dasharray:none;paint-order:markers stroke fill"
       id="rect18"
       width="105.32183"
       height="93.169312"
       x="78.316238"
       y="852.70172" />
    <rect
       style="opacity:0.99;fill:none;stroke:#000000;stroke-width:3.86404;stroke-linecap:square;stroke-dasharray:none;paint-order:markers stroke fill"
       id="rect19"
       width="104.62264"
       height="88.419281"
       x="79.003403"
       y="951.95935" />
    <rect
       style="opacity:0.99;fill:none;stroke:#000000;stroke-width:3.81949;stroke-linecap:square;stroke-dasharray:none;paint-order:markers stroke fill"
       id="rect20"
       width="173.64731"
       height="193.11053"
       x="211.35652"
       y="850.66608" />
    <rect
       style="opacity:0.99;fill:none;stroke:#000000;stroke-width:3.84;stroke-linecap:square;stroke-dasharray:none;paint-order:markers stroke fill"
       id="rect17-8"
       width="62.112873"
       height="190.38947"
       x="417.36121"
       y="850.96521" />
    <rect
       style="opacity:0.99;fill:none;stroke:#000000;stroke-width:3.84;stroke-linecap:square;stroke-dasharray:none;paint-order:markers stroke fill"
       id="rect18-3"
       width="105.32183"
       height="93.169312"
       x="485.55035"
       y="852.31549" />
    <rect
       style="opacity:0.99;fill:none;stroke:#000000;stroke-width:3.81949;stroke-linecap:square;stroke-dasharray:none;paint-order:markers stroke fill"
       id="rect20-2"
       width="173.64731"
       height="193.11053"
       x="617.94409"
       y="850.14661" />
  </g>
</svg>
