<?xml version="1.0" encoding="UTF-8" standalone="no"?>
<!-- Created with Inkscape (http://www.inkscape.org/) -->

<svg
   width="8.5in"
   height="11in"
   viewBox="0 0 816 1056"
   version="1.1"
   id="svg1"
   inkscape:version="1.4 (86a8ad7, 2024-10-11)"
   sodipodi:docname="drawing2.svg"
   xmlns:inkscape="http://www.inkscape.org/namespaces/inkscape"
   xmlns:sodipodi="http://sodipodi.sourceforge.net/DTD/sodipodi-0.dtd"
   xmlns="http://www.w3.org/2000/svg"
   xmlns:svg="http://www.w3.org/2000/svg">
  <sodipodi:namedview
     id="namedview1"
     pagecolor="#ffffff"
     bordercolor="#000000"
     borderopacity="0.25"
     inkscape:showpageshadow="2"
     inkscape:pageopacity="0.0"
     inkscape:pagecheckerboard="0"
     inkscape:deskcolor="#d1d1d1"
     inkscape:document-units="in"
     inkscape:zoom="0.37029361"
     inkscape:cx="584.67118"
     inkscape:cy="657.58629"
     inkscape:window-width="1261"
     inkscape:window-height="755"
     inkscape:window-x="347"
     inkscape:window-y="48"
     inkscape:window-maximized="0"
     inkscape:current-layer="g13"
     showguides="true" />
  <defs
     id="defs1" />
  <g
     id="g6-1"
     transform="matrix(0.69821474,0,0,0.70644851,78.16771,-6.7551573)"
     style="fill:#800000">
    <g
       id="g5-6"
       transform="matrix(1.0222222,0,0,1.0864619,-6.7559404,-15.756565)"
       style="fill:#800000">
      <path
         style="fill:#800000;stroke:#000000;stroke-width:7.29718;stroke-linecap:round;stroke-linejoin:round;stroke-dasharray:none;paint-order:markers stroke fill"
         d="m 294.68397,173.73896 c 3.31085,-4.19823 -7.25632,-16.99867 -5.75477,-23.25561 35.86494,-149.4496548 -140.37753,-112.674083 -98.84343,2.74422 4.10703,11.41293 -5.5911,18.81475 2.49429,25.65428 8.68927,0.85879 41.21815,3.60958 45.02594,-2.96757 0.6863,-0.64571 12.50269,-1.28621 13.37438,-0.46606 11.7887,11.09167 42.24604,0.13895 43.70359,-1.70926 z"
         id="path1-8"
         sodipodi:nodetypes="ssscsss" />
      <path
         style="fill:#e6e6e6;fill-opacity:1;stroke:#000000;stroke-width:7.29718;stroke-linecap:round;stroke-linejoin:round;stroke-dasharray:none;stroke-opacity:1;paint-order:markers stroke fill"
         d="m 189.3291,107.61031 c 3.15725,-15.302349 26.64851,-55.814389 36.10392,-32.196849 11.42387,28.534349 18.27932,50.811249 -13.85693,64.971599 -14.46174,6.37234 -25.03492,-19.26248 -22.24699,-32.77475 z"
         id="path2-5"
         sodipodi:nodetypes="ssss" />
      <path
         style="fill:#e6e6e6;fill-opacity:1;stroke:#000000;stroke-width:7.29718;stroke-linecap:round;stroke-linejoin:round;stroke-dasharray:none;stroke-opacity:1;paint-order:markers stroke fill"
         d="m 290.83598,106.46857 c -3.15726,-15.302361 -26.64851,-55.814391 -36.10392,-32.196851 -11.42388,28.534341 -18.27932,50.811251 13.85693,64.971591 14.46174,6.37235 25.03491,-19.26248 22.24699,-32.77474 z"
         id="path2-1-7"
         sodipodi:nodetypes="ssss" />
      <path
         style="fill:#e6e6e6;fill-opacity:1;stroke:#000000;stroke-width:6.74375;stroke-linecap:round;stroke-linejoin:round;stroke-dasharray:none;stroke-opacity:1;paint-order:markers stroke fill"
         d="m 240.17742,132.15896 c 7.85666,-2.97831 14.5319,18.83204 12.808,23.71577 -1.17928,3.34085 -9.00916,-0.6044 -10.8651,-1.86407 -19.05377,16.09748 -10.94905,-18.43764 -1.9429,-21.8517 z"
         id="path3-6"
         sodipodi:nodetypes="ssss" />
    </g>
    <path
       style="fill:#000000;stroke:#000000;stroke-width:15.117;stroke-linecap:round;stroke-linejoin:round;paint-order:markers stroke fill"
       d="m 216.01301,127.17121 c -7.16789,-4.59079 -1.02809,-10.20779 -14.28076,-9.35905 -2.52003,0.16141 -8.18854,2.06067 -6.64221,4.04141 4.89557,6.27082 3.39958,9.71325 7.63854,9.99715 4.42179,-1.90839 12.54872,-0.91001 13.28443,-4.67951 z"
       id="path5-1"
       sodipodi:nodetypes="csscc" />
    <path
       style="fill:#000000;stroke:#000000;stroke-width:15.117;stroke-linecap:round;stroke-linejoin:round;paint-order:markers stroke fill"
       d="m 260.30525,126.20119 c 7.16789,-4.59079 1.02809,-10.20779 14.28076,-9.35905 2.52003,0.16141 8.18854,2.06067 6.64221,4.04141 -4.89557,6.27082 -3.39958,9.71325 -7.63854,9.99715 -4.42179,-1.90839 -12.54872,-0.91001 -13.28443,-4.67951 z"
       id="path5-2-8"
       sodipodi:nodetypes="csscc" />
  </g>
  <path
     id="path1-1"
     style="fill:#800000;stroke:#000000;stroke-width:5.94395;stroke-linecap:round;stroke-linejoin:round;stroke-dasharray:none;paint-order:markers stroke fill"
     d="m 190.6573,16.98627 c -7.33497,0.164934 -15.43285,1.478354 -24.20705,5.676424 -7.93255,3.795376 -12.96575,-5.597989 -17.77039,2.069674 -1.68741,7.661586 -0.28554,33.466111 -0.36002,41.368631 l -0.51957,12.60569 c -0.0795,8.432254 2.23813,40.943181 7.75679,41.616491 109.40913,13.34866 38.22381,-39.967457 42.53876,-39.805595 29.53405,2.996125 52.11391,-64.870408 -7.43852,-63.531315 z"
     sodipodi:nodetypes="sscccscs" />
  <g
     inkscape:label="Layer 1"
     inkscape:groupmode="layer"
     id="layer1">
    <g
       id="g6"
       transform="matrix(0.69821474,0,0,0.70644851,-48.678678,-8.2640168)"
       style="fill:#800000">
      <g
         id="g5"
         transform="matrix(1.0222222,0,0,1.0864619,-6.7559404,-15.756565)"
         style="fill:#800000">
        <path
           style="fill:#800000;stroke:#000000;stroke-width:7.29718;stroke-linecap:round;stroke-linejoin:round;stroke-dasharray:none;paint-order:markers stroke fill"
           d="m 294.68397,173.73896 c 3.31085,-4.19823 -7.25632,-16.99867 -5.75477,-23.25561 35.86494,-149.4496548 -140.37753,-112.674083 -98.84343,2.74422 4.10703,11.41293 -5.5911,18.81475 2.49429,25.65428 8.68927,0.85879 41.21815,3.60958 45.02594,-2.96757 0.6863,-0.64571 12.50269,-1.28621 13.37438,-0.46606 11.7887,11.09167 42.24604,0.13895 43.70359,-1.70926 z"
           id="path1"
           sodipodi:nodetypes="ssscsss" />
        <path
           style="fill:#e6e6e6;fill-opacity:1;stroke:#000000;stroke-width:7.29718;stroke-linecap:round;stroke-linejoin:round;stroke-dasharray:none;stroke-opacity:1;paint-order:markers stroke fill"
           d="m 189.3291,107.61031 c 3.15725,-15.302349 26.64851,-55.814389 36.10392,-32.196849 11.42387,28.534349 18.27932,50.811249 -13.85693,64.971599 -14.46174,6.37234 -25.03492,-19.26248 -22.24699,-32.77475 z"
           id="path2"
           sodipodi:nodetypes="ssss" />
        <path
           style="fill:#e6e6e6;fill-opacity:1;stroke:#000000;stroke-width:7.29718;stroke-linecap:round;stroke-linejoin:round;stroke-dasharray:none;stroke-opacity:1;paint-order:markers stroke fill"
           d="m 290.83598,106.46857 c -3.15726,-15.302361 -26.64851,-55.814391 -36.10392,-32.196851 -11.42388,28.534341 -18.27932,50.811251 13.85693,64.971591 14.46174,6.37235 25.03491,-19.26248 22.24699,-32.77474 z"
           id="path2-1"
           sodipodi:nodetypes="ssss" />
        <path
           style="fill:#e6e6e6;fill-opacity:1;stroke:#000000;stroke-width:6.74375;stroke-linecap:round;stroke-linejoin:round;stroke-dasharray:none;stroke-opacity:1;paint-order:markers stroke fill"
           d="m 240.17742,132.15896 c 7.85666,-2.97831 14.5319,18.83204 12.808,23.71577 -1.17928,3.34085 -9.00916,-0.6044 -10.8651,-1.86407 -19.05377,16.09748 -10.94905,-18.43764 -1.9429,-21.8517 z"
           id="path3"
           sodipodi:nodetypes="ssss" />
      </g>
      <path
         style="fill:#000000;stroke:#000000;stroke-width:15.117;stroke-linecap:round;stroke-linejoin:round;paint-order:markers stroke fill"
         d="m 216.01301,127.17121 c -7.16789,-4.59079 -1.02809,-10.20779 -14.28076,-9.35905 -2.52003,0.16141 -8.18854,2.06067 -6.64221,4.04141 4.89557,6.27082 3.39958,9.71325 7.63854,9.99715 4.42179,-1.90839 12.54872,-0.91001 13.28443,-4.67951 z"
         id="path5"
         sodipodi:nodetypes="csscc" />
      <path
         style="fill:#000000;stroke:#000000;stroke-width:15.117;stroke-linecap:round;stroke-linejoin:round;paint-order:markers stroke fill"
         d="m 260.30525,126.20119 c 7.16789,-4.59079 1.02809,-10.20779 14.28076,-9.35905 2.52003,0.16141 8.18854,2.06067 6.64221,4.04141 -4.89557,6.27082 -3.39958,9.71325 -7.63854,9.99715 -4.42179,-1.90839 -12.54872,-0.91001 -13.28443,-4.67951 z"
         id="path5-2"
         sodipodi:nodetypes="csscc" />
    </g>
    <g
       id="g9"
       transform="matrix(0.69821474,0,0,0.70644851,9.631879,4.3342844)">
      <g
         id="g4"
         transform="translate(46.78481,0.95479205)"
         style="fill:#000000">
        <path
           id="path1-8-5"
           style="fill:#800000;stroke:#000000;stroke-width:6.65454;stroke-linecap:round;stroke-linejoin:round;stroke-dasharray:none;paint-order:markers stroke fill"
           d="m -15.07656,110.19166 c 133.71708,36.98279 105.079966,-126.546058 0.04718,-91.246493 -10.385977,3.49054 -16.806698,-5.648356 -23.174141,1.631248 2.317657,45.077306 -11.843281,132.601345 23.126961,89.615245 z m -21.221308,63.30044 c 3.697574,3.16356 15.498142,-6.24971 21.096411,-4.70136 133.717077,36.98279 105.079963,-126.546051 0.04718,-91.246488 -10.385973,3.490536 -16.806696,-5.648357 -23.174138,1.631247 -0.187851,0.59734 -4.907804,88.380341 2.030547,94.316601 z"
           sodipodi:nodetypes="csccscscs" />
      </g>
      <g
         id="g8"
         transform="translate(-63.463154,-16.203358)">
        <path
           style="fill:none;stroke:#000000;stroke-width:9.6;stroke-linecap:round;stroke-linejoin:round;stroke-dasharray:none;paint-order:markers stroke fill"
           d="m 120.3038,62.538879 c 7.31609,7.31211 9.47258,11.382166 16.23146,18.141049 4.71621,4.716205 7.54547,10.40984 11.9349,14.799277 1.20025,1.200247 2.61409,2.841187 3.34178,4.296564"
           id="path6"
           sodipodi:nodetypes="cssc" />
        <path
           style="fill:none;stroke:#000000;stroke-width:9.6;stroke-linecap:round;stroke-linejoin:round;stroke-dasharray:none;paint-order:markers stroke fill"
           d="m 160.40507,62.538879 c -2.40975,2.790304 -22.28212,13.979615 -47.26221,35.804702"
           id="path7"
           sodipodi:nodetypes="cc" />
      </g>
      <g
         id="g7"
         transform="translate(-79.217223,-0.44928936)"
         style="stroke-width:9.6;stroke-dasharray:none">
        <path
           style="fill:none;stroke:#000000;stroke-width:9.6;stroke-linecap:round;stroke-linejoin:round;stroke-dasharray:none;paint-order:markers stroke fill"
           d="m 135.76094,116.6 c 7.31609,7.31211 9.47258,11.38217 16.23146,18.14105 4.71621,4.7162 7.54547,10.40984 11.9349,14.79928 1.20025,1.20024 2.61409,2.84118 3.34178,4.29656"
           id="path6-4"
           sodipodi:nodetypes="cssc" />
        <path
           style="fill:none;stroke:#000000;stroke-width:9.6;stroke-linecap:round;stroke-linejoin:round;stroke-dasharray:none;paint-order:markers stroke fill"
           d="m 175.86221,116.6 c -2.40975,2.7903 -22.28212,13.97961 -47.26221,35.8047"
           id="path7-1"
           sodipodi:nodetypes="cc" />
      </g>
    </g>
    <g
       id="g7-7"
       transform="matrix(0.69821474,0,0,0.70644851,94.344033,-49.012695)"
       style="stroke-width:9.6;stroke-dasharray:none">
      <g
         id="g10">
        <path
           style="fill:none;stroke:#000000;stroke-width:9.6;stroke-linecap:round;stroke-linejoin:round;stroke-dasharray:none;paint-order:markers stroke fill"
           d="m 135.76094,116.6 c 7.31609,7.31211 9.47258,11.38217 16.23146,18.14105 4.71621,4.7162 7.54547,10.40984 11.9349,14.79928 1.20025,1.20024 2.61409,2.84118 3.34178,4.29656"
           id="path6-4-4"
           sodipodi:nodetypes="cssc" />
        <path
           style="fill:none;stroke:#000000;stroke-width:9.6;stroke-linecap:round;stroke-linejoin:round;stroke-dasharray:none;paint-order:markers stroke fill"
           d="m 175.86221,116.6 c -2.40975,2.7903 -22.28212,13.97961 -47.26221,35.8047"
           id="path7-1-2"
           sodipodi:nodetypes="cc" />
      </g>
    </g>
    <g
       id="g6-1-3"
       transform="translate(115.8002,188.78958)"
       style="fill:#800000">
      <g
         id="g5-6-1"
         transform="matrix(1.0222222,0,0,1.0864619,-6.7559404,-15.756565)"
         style="fill:#800000" />
    </g>
    <path
       style="fill:#800000;stroke:#000000;stroke-width:5.40094;stroke-linecap:round;stroke-linejoin:round;stroke-dasharray:none;paint-order:markers stroke fill"
       d="m 253.76406,145.51563 c -103.92361,-13.71688 -52.42717,112.5859 2.40581,103.39619 47.65117,-7.98607 66.45103,-94.30776 -2.40581,-103.39619 z"
       id="path1-2-8"
       sodipodi:nodetypes="sss" />
    <g
       id="g6-6"
       transform="matrix(0.69821474,0,0,0.70644851,-39.694352,118.64316)"
       style="fill:#800000">
      <g
         id="g5-0"
         transform="matrix(1.0222222,0,0,1.0864619,16.198817,165.18094)"
         style="fill:#800000">
        <path
           style="fill:#800000;stroke:#000000;stroke-width:7.29718;stroke-linecap:round;stroke-linejoin:round;stroke-dasharray:none;paint-order:markers stroke fill"
           d="M 217.48705,-110.71729 C 71.880841,-128.58877 144.03193,35.968803 220.85781,23.995703 287.62133,13.590793 313.9616,-98.876151 217.48705,-110.71729 Z"
           id="path1-2"
           sodipodi:nodetypes="sss" />
      </g>
    </g>
    <path
       style="fill:none;stroke:#000000;stroke-width:6.74227;stroke-linecap:round;stroke-linejoin:round;stroke-dasharray:none;paint-order:markers stroke fill"
       d="m 76.601599,217.59251 c 25.058501,-35.72024 74.395991,-23.67856 90.238331,1.13948"
       id="path10"
       sodipodi:nodetypes="cc" />
    <path
       style="fill:#000000;fill-opacity:1;stroke:#000000;stroke-width:10.2645;stroke-linecap:round;stroke-linejoin:round;stroke-dasharray:none;paint-order:markers stroke fill"
       d="m 128.15267,202.13734 c -2.75519,-0.17838 -5.50678,-0.48363 -8.2829,-0.48363 -1.74234,0 -5.08732,-0.46896 -6.66671,0.16122 -0.61991,0.24733 -1.11951,0.89336 -1.61618,1.2897 -0.26675,0.21288 -1.27893,0.51031 -1.61617,0.64486 -2.5059,0.99986 -1.44392,4.476 -0.40405,5.80369 0.67333,0.85972 1.50193,1.9696 2.62628,2.41823 1.72709,0.6891 19.30365,0.83013 21.81833,0.1612 3.11679,-0.82905 7.39985,-5.05744 4.04045,-7.73826 -1.40492,-1.12114 -7.64116,-1.4848 -9.89905,-2.25701 z"
       id="path11" />
    <path
       style="fill:none;stroke:#000000;stroke-width:6.74227;stroke-linecap:round;stroke-linejoin:round;stroke-dasharray:none;paint-order:markers stroke fill"
       d="m 204.2034,210.21711 c 25.0585,-35.72025 74.39598,-23.67857 90.23833,1.13948"
       id="path10-3"
       sodipodi:nodetypes="cc" />
    <path
       style="fill:#000000;fill-opacity:1;stroke:#000000;stroke-width:10.2645;stroke-linecap:round;stroke-linejoin:round;stroke-dasharray:none;paint-order:markers stroke fill"
       d="m 263.17942,197.43636 c -2.62244,-0.87331 -5.20987,-1.86849 -7.89688,-2.57447 -1.6864,-0.44308 -4.80751,-1.74763 -6.49275,-1.53933 -0.66145,0.0818 -1.30549,0.58 -1.88467,0.83731 -0.31108,0.1382 -1.36464,0.16868 -1.72447,0.21316 -2.67384,0.33051 -2.50946,3.96512 -1.83278,5.51463 0.43815,1.00336 0.96444,2.28832 1.94126,3.00848 1.50047,1.10618 18.47778,5.71246 21.0779,5.70449 3.22267,-0.01 8.41863,-3.01329 5.83301,-6.46236 -1.08132,-1.44243 -7.02703,-3.38031 -9.02062,-4.70191 z"
       id="path11-5" />
    <g
       id="g13"
       transform="matrix(0.69821474,0,0,0.70644851,562.58955,-423.32104)">
      <path
         style="fill:#800000;fill-opacity:1;stroke:#000000;stroke-width:9.67766;stroke-linecap:round;stroke-linejoin:round;stroke-dasharray:none;paint-order:markers stroke fill"
         d="m -618.43929,1785.8859 c -2.00082,0.5591 -57.188,4.6329 -57.13609,-2.4781 0.51281,-70.2488 -1.1283,-204.7956 -0.46396,-256.5926 0.13038,-10.1651 59.63296,-18.2502 58.45795,4.9921 -3.39923,67.2381 3.1995,202.6685 -0.8579,254.0786 z"
         id="path12-0-6"
         sodipodi:nodetypes="csssc" />
      <path
         style="fill:#800000;fill-opacity:1;stroke:#000000;stroke-width:9.68896;stroke-linecap:round;stroke-linejoin:round;stroke-dasharray:none;paint-order:markers stroke fill"
         d="m -746.80569,1525.8833 c 0.1304,-10.1869 55.588,-17.8102 58.46995,5.0028 -3.02959,31.9834 3.37419,74.5422 -1.60767,105.3515 -0.98119,4.2312 -10.25435,11.5893 -9.06542,16.7164 0.80419,3.4678 10.444,4.1238 11.12348,5.5889 -0.37816,38.2391 0.41823,66.611 1.37849,125.1909 0.083,5.0628 -59.88671,6.4187 -59.83479,-0.7075 0.51292,-70.3995 -1.12852,-205.235 -0.46404,-257.143 z"
         id="path12"
         sodipodi:nodetypes="ssssssss" />
      <path
         style="fill:#800000;fill-opacity:1;stroke:#000000;stroke-width:9.67766;stroke-linecap:round;stroke-linejoin:round;stroke-dasharray:none;paint-order:markers stroke fill"
         d="m -565.1789,1784.9841 c -2.00082,0.559 -40.6204,6.4049 -40.56848,-0.706 0.51281,-70.2488 -1.1283,-204.7957 -0.46396,-256.5926 0.13038,-10.1651 55.57659,-17.772 58.45794,4.9921 -3.02896,31.915 -1.30322,90.7647 -2.07594,126.0111 -0.10233,4.6676 -13.49991,-1.5982 -19.96643,-1.9734 z"
         id="path12-0"
         sodipodi:nodetypes="csssscc" />
      <path
         style="fill:#800000;fill-opacity:1;stroke:#000000;stroke-width:9.67766;stroke-linecap:round;stroke-linejoin:round;stroke-dasharray:none;paint-order:markers stroke fill"
         d="m -479.79229,1787.0874 c -2.00082,0.5591 -57.188,4.6328 -57.13609,-2.4781 0.51281,-70.2489 -1.1283,-204.7957 -0.46396,-256.5926 0.13038,-10.1651 59.63296,-18.2502 58.45794,4.9921 -3.39922,67.2381 3.19951,202.6685 -0.85789,254.0786 z"
         id="path12-0-6-2"
         sodipodi:nodetypes="csssc" />
      <path
         style="fill:none;fill-opacity:1;stroke:#000000;stroke-width:9.6;stroke-linecap:round;stroke-linejoin:round;stroke-dasharray:none;paint-order:markers stroke fill"
         d="m -648.93297,1543.5515 c -1.9147,74.5725 2.70056,222.0598 2.70056,222.121"
         id="path13"
         sodipodi:nodetypes="cc" />
      <path
         style="fill:none;fill-opacity:1;stroke:#000000;stroke-width:7.87959;stroke-linecap:round;stroke-linejoin:round;stroke-dasharray:none;paint-order:markers stroke fill"
         d="m -712.8942,1532.1362 c -0.56278,33.2335 0.3355,95.6647 0.3355,95.6647"
         id="path13-4"
         sodipodi:nodetypes="cc" />
      <path
         style="fill:none;fill-opacity:1;stroke:#000000;stroke-width:7.87959;stroke-linecap:round;stroke-linejoin:round;stroke-dasharray:none;paint-order:markers stroke fill"
         d="m -711.27115,1676.334 c -0.56278,33.2335 0.3355,95.6647 0.3355,95.6647"
         id="path13-4-8"
         sodipodi:nodetypes="cc" />
      <path
         style="fill:none;fill-opacity:1;stroke:#000000;stroke-width:9.6;stroke-linecap:round;stroke-linejoin:round;stroke-dasharray:none;paint-order:markers stroke fill"
         d="m -510.47661,1541.5078 c -1.9147,74.5725 2.70056,222.0598 2.70056,222.121"
         id="path13-3"
         sodipodi:nodetypes="cc" />
      <path
         style="fill:none;fill-opacity:1;stroke:#000000;stroke-width:7.87959;stroke-linecap:round;stroke-linejoin:round;stroke-dasharray:none;paint-order:markers stroke fill"
         d="m -569.43693,1535.1341 c -0.56278,33.2335 0.3355,95.6647 0.3355,95.6647"
         id="path13-4-81"
         sodipodi:nodetypes="cc" />
      <g
         id="g57"
         transform="matrix(0.59903491,0,0,0.56642302,-1002.4518,668.87774)">
        <path
           style="fill:#800000;fill-opacity:1;stroke:#000000;stroke-width:13.669;stroke-linecap:square;stroke-linejoin:miter;stroke-dasharray:none;stroke-opacity:1;paint-order:markers stroke fill"
           d="m 1011.9329,1050.4939 c 184.201,-82.18428 289.8651,327.3974 92.5025,355.5505 -306.60998,43.7368 -182.08077,-315.5837 -92.5025,-355.5505 z"
           id="path57-4"
           sodipodi:nodetypes="sss" />
        <path
           style="fill:#800000;fill-opacity:1;stroke:#000000;stroke-width:13.669;stroke-linecap:square;stroke-linejoin:miter;stroke-dasharray:none;stroke-opacity:1;paint-order:markers stroke fill"
           d="m 1007.8543,1062.3015 c 19.4362,20.3264 51.2333,61.7682 46.2477,86.8711 -10.924,55.0039 -45.5614,44.7061 -82.99201,61.2596 -30.3768,13.434 14.4009,97.7171 5.8018,161.5102 -18.6051,138.0217 -95.8062,53.3346 -114.1003,31.5375 -171.816,-204.715 -1.2335,-494.15342 145.04281,-341.1784 z"
           id="path56-8"
           sodipodi:nodetypes="ssssss" />
        <path
           style="fill:#800000;fill-opacity:1;stroke:#000000;stroke-width:13.669;stroke-linecap:square;stroke-linejoin:miter;stroke-dasharray:none;stroke-opacity:1;paint-order:markers stroke fill"
           d="m 661.00477,1058.6511 c 184.20095,-82.18425 289.86509,327.3974 92.50248,355.5505 -306.60999,43.7368 -182.08078,-315.5837 -92.50248,-355.5505 z"
           id="path57"
           sodipodi:nodetypes="sss" />
        <path
           style="fill:#800000;fill-opacity:1;stroke:#000000;stroke-width:13.669;stroke-linecap:square;stroke-linejoin:miter;stroke-dasharray:none;stroke-opacity:1;paint-order:markers stroke fill"
           d="m 635.00368,1058.9071 c 23.54476,15.5135 31.89428,59.8568 26.90874,84.9597 -10.92403,55.0039 -45.56137,44.7061 -82.99195,61.2596 -30.37684,13.434 70.04127,35.0346 81.2239,98.4352 6.0886,133.1405 -129.75733,112.9249 -135.37318,111.8148 -269.15022,-53.2026 -101.79642,-486.50802 110.23249,-356.4693 z"
           id="path56"
           sodipodi:nodetypes="ssssss" />
      </g>
      <g
         id="g60"
         transform="translate(-711.67645,-206.42725)">
        <path
           style="fill:none;fill-opacity:1;stroke:#000000;stroke-width:13.669;stroke-linecap:square;stroke-linejoin:miter;stroke-dasharray:none;stroke-opacity:1;paint-order:markers stroke fill"
           d="m 557.13862,904.34492 95.12939,-13.7078 5.36452,153.33168 -75.03748,5.2271 73.06625,-0.7801 6.52256,561.0311 -87.68466,-0.887 z"
           id="path60" />
        <path
           style="fill:none;fill-opacity:1;stroke:#000000;stroke-width:13.8195;stroke-linecap:square;stroke-linejoin:miter;stroke-dasharray:none;stroke-opacity:1;paint-order:markers stroke fill"
           d="m 675.43818,888.81232 94.98485,-14.0326 c -0.0584,37.2013 1.30992,-21.7528 9.90079,735.84228 l -87.55144,-0.908 z"
           id="path60-9"
           sodipodi:nodetypes="ccccc" />
        <path
           style="fill:none;fill-opacity:1;stroke:#000000;stroke-width:14.1147;stroke-linecap:square;stroke-linejoin:miter;stroke-dasharray:none;stroke-opacity:1;paint-order:markers stroke fill"
           d="m 908.23048,860.74662 94.70102,-14.6823 c -0.058,38.9237 1.306,-22.76 9.8712,769.91248 l -87.28981,-0.95 z"
           id="path60-9-9"
           sodipodi:nodetypes="ccccc" />
        <path
           style="fill:none;fill-opacity:1;stroke:#000000;stroke-width:13.9294;stroke-linecap:square;stroke-linejoin:miter;stroke-dasharray:none;stroke-opacity:1;paint-order:markers stroke fill"
           d="m 792.55814,875.75592 94.87575,-14.273 5.35021,159.65408 -74.83741,5.4425 34.00228,-1.5159 45.37432,584.8676 -87.45086,-0.9235 z"
           id="path60-8"
           sodipodi:nodetypes="cccccccc" />
      </g>
    </g>
    <rect
       style="fill:none;fill-opacity:1;stroke:#000000;stroke-width:6.63405;stroke-linecap:round;stroke-linejoin:round;stroke-dasharray:none;paint-order:markers stroke fill"
       id="rect13"
       width="64.468491"
       height="123.11049"
       x="497.1683"
       y="617.75928" />
    <path
       style="fill:none;fill-opacity:1;stroke:#000000;stroke-width:5.36193;stroke-linecap:butt;stroke-linejoin:round;stroke-dasharray:none;paint-order:markers stroke fill"
       d="M 559.05515,678.3075 H 538.93374"
       id="path14" />
    <rect
       style="fill:none;fill-opacity:1;stroke:#000000;stroke-width:6.63405;stroke-linecap:round;stroke-linejoin:round;stroke-dasharray:none;paint-order:markers stroke fill"
       id="rect13-7"
       width="64.468491"
       height="123.11048"
       x="571.65509"
       y="618.42078" />
    <rect
       style="fill:none;fill-opacity:1;stroke:#000000;stroke-width:6.63405;stroke-linecap:round;stroke-linejoin:round;stroke-dasharray:none;paint-order:markers stroke fill"
       id="rect13-7-9"
       width="64.468491"
       height="123.11049"
       x="645.62646"
       y="619.56012" />
    <rect
       style="fill:#000000;fill-opacity:1;stroke:#000000;stroke-width:2.2799;stroke-linecap:butt;stroke-linejoin:round;stroke-dasharray:none;paint-order:markers stroke fill"
       id="rect14"
       width="27.846588"
       height="54.285618"
       x="681.5827"
       y="684.46332" />
    <rect
       style="fill:none;fill-opacity:1;stroke:#000000;stroke-width:6.63405;stroke-linecap:round;stroke-linejoin:round;stroke-dasharray:none;paint-order:markers stroke fill"
       id="rect13-7-8"
       width="64.468491"
       height="123.11049"
       x="719.66699"
       y="620.05231" />
    <rect
       style="fill:none;fill-opacity:1;stroke:#000000;stroke-width:6.63405;stroke-linecap:round;stroke-linejoin:round;stroke-dasharray:none;paint-order:markers stroke fill"
       id="rect13-5"
       width="64.468491"
       height="123.11049"
       x="503.10434"
       y="757.02649" />
    <path
       style="fill:none;fill-opacity:1;stroke:#000000;stroke-width:5.36193;stroke-linecap:butt;stroke-linejoin:round;stroke-dasharray:none;paint-order:markers stroke fill"
       d="M 564.99117,817.5747 H 544.86976"
       id="path14-1" />
    <rect
       style="fill:none;fill-opacity:1;stroke:#000000;stroke-width:6.63405;stroke-linecap:round;stroke-linejoin:round;stroke-dasharray:none;paint-order:markers stroke fill"
       id="rect13-7-9-0"
       width="64.468491"
       height="123.11049"
       x="643.1839"
       y="758.82733" />
    <rect
       style="fill:#000000;fill-opacity:1;stroke:#000000;stroke-width:2.2799;stroke-linecap:butt;stroke-linejoin:round;stroke-dasharray:none;paint-order:markers stroke fill"
       id="rect14-1"
       width="27.846588"
       height="54.285618"
       x="679.14014"
       y="823.73053" />
    <rect
       style="fill:none;fill-opacity:1;stroke:#000000;stroke-width:6.63405;stroke-linecap:round;stroke-linejoin:round;stroke-dasharray:none;paint-order:markers stroke fill"
       id="rect13-7-8-4"
       width="64.468491"
       height="123.11049"
       x="713.0351"
       y="759.31946" />
    <rect
       style="fill:none;fill-opacity:1;stroke:#000000;stroke-width:6.63405;stroke-linecap:round;stroke-linejoin:round;stroke-dasharray:none;paint-order:markers stroke fill"
       id="rect13-7-6"
       width="64.468491"
       height="123.11048"
       x="573.40186"
       y="757.68793" />
    <rect
       style="fill:none;fill-opacity:1;stroke:#000000;stroke-width:6.63407;stroke-linecap:round;stroke-linejoin:round;stroke-dasharray:none;paint-order:markers stroke fill"
       id="rect13-5-4"
       width="64.487991"
       height="123.0741"
       x="345.52756"
       y="986.79468"
       transform="matrix(0.98686753,-0.16153167,0.15788264,0.98745788,0,0)" />
    <path
       style="fill:none;fill-opacity:1;stroke:#000000;stroke-width:5.36193;stroke-linecap:butt;stroke-linejoin:round;stroke-dasharray:none;paint-order:markers stroke fill"
       d="m 567.43694,968.37592 -19.86318,3.25122"
       id="path14-1-3" />
    <g
       id="g17"
       transform="matrix(0.68898898,-0.11446234,0.11312827,0.69711396,362.03517,246.60842)">
      <rect
         style="fill:none;fill-opacity:1;stroke:#000000;stroke-width:9.44591;stroke-linecap:round;stroke-linejoin:round;stroke-dasharray:none;paint-order:markers stroke fill"
         id="rect13-7-9-0-9"
         width="92.333328"
         height="174.26675"
         x="231.70451"
         y="1004.7391" />
      <rect
         style="fill:#000000;fill-opacity:1;stroke:#000000;stroke-width:3.24625;stroke-linecap:butt;stroke-linejoin:round;stroke-dasharray:none;paint-order:markers stroke fill"
         id="rect14-1-8"
         width="39.882557"
         height="76.842995"
         x="283.20193"
         y="1096.6116" />
    </g>
    <path
       style="fill:#800000;fill-opacity:1;stroke:#000000;stroke-width:9.7119;stroke-linecap:butt;stroke-linejoin:round;stroke-dasharray:none;paint-order:markers stroke fill"
       d="m 258.62243,397.91271 c -11.98062,-25.0222 -59.74756,-84.7188 -13.3033,-117.94808 61.73736,-42.43873 121.58743,52.80917 96.41664,97.39798 -14.11728,37.5581 -59.59752,44.7099 -83.11334,20.5501 z"
       id="path18-3"
       sodipodi:nodetypes="cssc" />
    <path
       style="fill:#800000;fill-opacity:1;stroke:#000000;stroke-width:8.71601;stroke-linecap:butt;stroke-linejoin:round;stroke-dasharray:none;paint-order:markers stroke fill"
       d="m 253.34418,303.33001 c -11.06595,14.34346 -69.28753,26.58209 -34.28269,17.28039 10.98239,-2.88753 27.73222,0.7363 29.24839,9.3832 31.32361,178.64021 -113.67577,-13.47293 -92.49781,-39.43629 26.36988,-32.328 123.60157,-37.84608 97.53211,12.7727 z"
       id="path17-7"
       sodipodi:nodetypes="sssss" />
    <rect
       style="fill:none;fill-opacity:1;stroke:#000000;stroke-width:6.63407;stroke-linecap:round;stroke-linejoin:round;stroke-dasharray:none;paint-order:markers stroke fill"
       id="rect13-7-8-4-8"
       width="64.491455"
       height="123.06763"
       x="537.63922"
       y="1030.9691"
       transform="matrix(0.98451781,-0.17528455,0.17134305,0.98521143,0,0)" />
    <rect
       style="fill:none;fill-opacity:1;stroke:#000000;stroke-width:6.63407;stroke-linecap:round;stroke-linejoin:round;stroke-dasharray:none;paint-order:markers stroke fill"
       id="rect13-7-6-0"
       width="64.4879"
       height="123.07426"
       x="413.02618"
       y="995.54089"
       transform="matrix(0.9869291,-0.16115503,0.15751408,0.98751674,0,0)" />
    <g
       id="g56"
       transform="matrix(0.93601107,0,0,0.78981411,-335.15172,657.63577)">
      <path
         style="fill:#800000;fill-opacity:1;stroke:#000000;stroke-width:7.80619;stroke-linecap:butt;stroke-linejoin:round;stroke-dasharray:none;stroke-opacity:1;paint-order:markers stroke fill"
         d="m 616.60204,440.16852 15.50109,-133.13352 38.86015,-12.03994 -4.79374,37.03275 49.39391,8.85953 -15.83836,138.97975 -86.73933,0.58784 z"
         id="path47-9"
         sodipodi:nodetypes="cccccccc" />
      <path
         style="fill:#000000;fill-opacity:1;stroke:#000000;stroke-width:7.80619;stroke-linecap:butt;stroke-linejoin:round;stroke-dasharray:none;stroke-opacity:1;paint-order:markers stroke fill"
         d="m 644.11616,336.59761 56.00879,16.21581 -13.33543,112.71967 -61.72397,-1.18652 z"
         id="path52-3"
         sodipodi:nodetypes="ccccc" />
    </g>
    <path
       style="fill:#800000;fill-opacity:1;stroke:#000000;stroke-width:9.7119;stroke-linecap:butt;stroke-linejoin:round;stroke-dasharray:none;paint-order:markers stroke fill"
       d="m 113.93065,400.27691 c -11.30024,-25.3368 -57.43702,-86.30207 -10.112,-118.26449 62.86135,-40.75536 120.11639,56.07478 93.75019,99.96729 -15.12679,37.163 -60.78365,43.0835 -83.63819,18.2972 z"
       id="path18"
       sodipodi:nodetypes="cssc" />
    <path
       style="fill:#800000;fill-opacity:1;stroke:#000000;stroke-width:8.9832;stroke-linecap:butt;stroke-linejoin:round;stroke-dasharray:none;paint-order:markers stroke fill"
       d="m 109.98634,326.1082 c -11.24432,14.7347 -69.66765,25.1956 -34.51885,16.8448 11.02718,-2.5873 28.38394,-3.8442 36.85706,0.098 84.86613,39.48301 -28.07345,78.23811 -49.68494,70.81961 -36.99826,-12.7 -50.99896,-104.46277 -50.1356,-105.53171 26.77337,-33.1479 124.16809,-34.79213 97.48233,17.7693 z"
       id="path17"
       sodipodi:nodetypes="ssscss" />
    <path
       id="path1-1-8"
       style="fill:#800000;stroke:#000000;stroke-width:5.94395;stroke-linecap:round;stroke-linejoin:round;stroke-dasharray:none;paint-order:markers stroke fill"
       d="m 196.97502,144.56796 c -7.33496,0.16493 -15.43285,1.47835 -24.20705,5.67642 -7.93254,3.79538 -12.96575,-5.59799 -17.77039,2.06968 -1.68741,7.66158 -0.28553,33.46611 -0.36001,41.36863 l -0.51957,12.60569 c -0.0795,8.43225 2.23813,40.94317 7.75679,41.61649 109.40913,13.34866 38.22381,-39.96746 42.53875,-39.8056 29.53406,2.99613 52.11392,-64.8704 -7.43852,-63.53131 z"
       sodipodi:nodetypes="sscccscs" />
    <g
       id="g7-7-0"
       transform="matrix(0.69821474,0,0,0.70644851,100.66176,78.568994)"
       style="stroke-width:9.6;stroke-dasharray:none">
      <g
         id="g10-0">
        <path
           style="fill:none;stroke:#000000;stroke-width:9.6;stroke-linecap:round;stroke-linejoin:round;stroke-dasharray:none;paint-order:markers stroke fill"
           d="m 135.76094,116.6 c 7.31609,7.31211 9.47258,11.38217 16.23146,18.14105 4.71621,4.7162 7.54547,10.40984 11.9349,14.79928 1.20025,1.20024 2.61409,2.84118 3.34178,4.29656"
           id="path6-4-4-6"
           sodipodi:nodetypes="cssc" />
        <path
           style="fill:none;stroke:#000000;stroke-width:9.6;stroke-linecap:round;stroke-linejoin:round;stroke-dasharray:none;paint-order:markers stroke fill"
           d="m 175.86221,116.6 c -2.40975,2.7903 -22.28212,13.97961 -47.26221,35.8047"
           id="path7-1-2-1"
           sodipodi:nodetypes="cc" />
      </g>
    </g>
    <path
       id="path1-8-5-3"
       style="fill:#800000;stroke:#000000;stroke-width:4.67361;stroke-linecap:round;stroke-linejoin:round;stroke-dasharray:none;paint-order:markers stroke fill"
       d="m 38.088767,210.43522 c 93.363233,26.12643 73.368383,-89.39828 0.03296,-64.46095 -7.251644,2.46589 -11.734685,-3.99028 -16.180526,1.15239 1.618225,31.84479 -8.269152,93.67602 16.147584,63.30856 z m -14.817031,44.7185 c 2.581705,2.23489 10.82103,-4.4151 14.729824,-3.32127 93.36324,26.12644 73.36838,-89.39827 0.03296,-64.46095 -7.251637,2.46589 -11.734678,-3.99027 -16.180526,1.1524 -0.13116,0.42199 -3.426698,62.43615 1.41776,66.62982 z"
       sodipodi:nodetypes="csccscscs" />
    <g
       id="g8-9"
       transform="matrix(0.69821474,0,0,0.70644851,-28.361302,120.46913)">
      <path
         style="fill:none;stroke:#000000;stroke-width:9.6;stroke-linecap:round;stroke-linejoin:round;stroke-dasharray:none;paint-order:markers stroke fill"
         d="m 120.3038,62.538879 c 7.31609,7.31211 9.47258,11.382166 16.23146,18.141049 4.71621,4.716205 7.54547,10.40984 11.9349,14.799277 1.20025,1.200247 2.61409,2.841187 3.34178,4.296564"
         id="path6-3"
         sodipodi:nodetypes="cssc" />
      <path
         style="fill:none;stroke:#000000;stroke-width:9.6;stroke-linecap:round;stroke-linejoin:round;stroke-dasharray:none;paint-order:markers stroke fill"
         d="m 160.40507,62.538879 c -2.40975,2.790304 -22.28212,13.979615 -47.26221,35.804702"
         id="path7-4"
         sodipodi:nodetypes="cc" />
    </g>
    <g
       id="g55"
       transform="matrix(0.93601107,0,0,0.78981411,-335.15172,654.47652)">
      <path
         style="fill:#800000;fill-opacity:1;stroke:#000000;stroke-width:7.36265;stroke-linecap:butt;stroke-linejoin:round;stroke-dasharray:none;stroke-opacity:1;paint-order:markers stroke fill"
         d="m 553.51686,486.95288 7.71606,-190.63606 42.79086,-22.90825 1.08528,29.31649 49.39609,9.58519 1.08391,83.47725 -38.42866,6.58775 -3.15998,82.25454 z"
         id="path48"
         sodipodi:nodetypes="ccccccccc" />
      <path
         style="fill:#000000;fill-opacity:1;stroke:#000000;stroke-width:7.19555;stroke-linecap:butt;stroke-linejoin:round;stroke-dasharray:none;stroke-opacity:1;paint-order:markers stroke fill"
         d="m 639.93306,326.7794 1.81755,60.3014 -43.16712,7.88991 v -82.84399 z"
         id="path51" />
    </g>
    <g
       id="g7-4"
       transform="matrix(0.69821474,0,0,0.70644851,-39.361026,131.59857)"
       style="stroke-width:9.6;stroke-dasharray:none">
      <path
         style="fill:none;stroke:#000000;stroke-width:9.6;stroke-linecap:round;stroke-linejoin:round;stroke-dasharray:none;paint-order:markers stroke fill"
         d="m 135.76094,116.6 c 7.31609,7.31211 9.47258,11.38217 16.23146,18.14105 4.71621,4.7162 7.54547,10.40984 11.9349,14.79928 1.20025,1.20024 2.61409,2.84118 3.34178,4.29656"
         id="path6-4-6"
         sodipodi:nodetypes="cssc" />
      <path
         style="fill:none;stroke:#000000;stroke-width:9.6;stroke-linecap:round;stroke-linejoin:round;stroke-dasharray:none;paint-order:markers stroke fill"
         d="m 175.86221,116.6 c -2.40975,2.7903 -22.28212,13.97961 -47.26221,35.8047"
         id="path7-1-0"
         sodipodi:nodetypes="cc" />
    </g>
    <g
       id="g54"
       transform="matrix(0.93601107,0,0,0.78981411,-335.15172,657.63577)">
      <path
         style="fill:#800000;fill-opacity:1;stroke:#000000;stroke-width:7.80619;stroke-linecap:butt;stroke-linejoin:round;stroke-dasharray:none;stroke-opacity:1;paint-order:markers stroke fill"
         d="m 484.67548,442.47931 16.26311,-131.55149 38.09812,-13.62196 -4.79373,37.03275 49.39391,8.85953 -15.83836,138.97975 -86.73934,0.58784 z"
         id="path47"
         sodipodi:nodetypes="cccccccc" />
      <path
         style="fill:#000000;fill-opacity:1;stroke:#000000;stroke-width:7.80619;stroke-linecap:butt;stroke-linejoin:round;stroke-dasharray:none;stroke-opacity:1;paint-order:markers stroke fill"
         d="m 513.35688,339.26679 56.0088,16.21582 -13.33544,112.71967 -61.72397,-1.18653 z"
         id="path52"
         sodipodi:nodetypes="ccccc" />
    </g>
    <g
       id="g53"
       transform="matrix(0.93982082,0,0,0.82601184,-332.70987,649.18284)">
      <path
         style="fill:#800000;fill-opacity:1;stroke:#000000;stroke-width:7.61775;stroke-linecap:butt;stroke-linejoin:round;stroke-dasharray:none;stroke-opacity:1;paint-order:markers stroke fill"
         d="m 431.15319,304.45682 67.35463,8.63982 c -4.1727,50.65118 -5.8859,50.99294 -18.47782,88.21719 l 36.95564,25.46476 -40.53199,37.74241 -50.66499,-23.19112 -0.59605,22.28166 -48.28073,-0.90946 14.95689,-164.49044 39.88048,-17.40067 z"
         id="path46"
         sodipodi:nodetypes="ccccccccccc" />
      <path
         style="fill:#000000;fill-opacity:1;stroke:#000000;stroke-width:7.61775;stroke-linecap:butt;stroke-linejoin:round;stroke-dasharray:none;stroke-opacity:1;paint-order:markers stroke fill"
         d="m 437.69259,391.34192 57.95803,37.97229 -23.07588,21.92766 -46.6884,-30.4848 z"
         id="path49" />
      <path
         style="fill:#000000;fill-opacity:1;stroke:#000000;stroke-width:7.61775;stroke-linecap:butt;stroke-linejoin:round;stroke-dasharray:none;stroke-opacity:1;paint-order:markers stroke fill"
         d="m 425.40363,314.86252 -3.21989,39.57675 57.42137,4.27857 2.14659,-36.36783 z"
         id="path50" />
    </g>
  </g>
</svg>
