<?xml version="1.0" encoding="UTF-8" standalone="no"?>
<!-- Created with Inkscape (http://www.inkscape.org/) -->

<svg
   width="210mm"
   height="297mm"
   viewBox="0 0 210 297"
   version="1.1"
   id="svg1"
   xml:space="preserve"
   inkscape:version="1.4 (86a8ad7, 2024-10-11)"
   sodipodi:docname="drawing5.svg"
   xmlns:inkscape="http://www.inkscape.org/namespaces/inkscape"
   xmlns:sodipodi="http://sodipodi.sourceforge.net/DTD/sodipodi-0.dtd"
   xmlns="http://www.w3.org/2000/svg"
   xmlns:svg="http://www.w3.org/2000/svg"><sodipodi:namedview
     id="namedview1"
     pagecolor="#ffffff"
     bordercolor="#000000"
     borderopacity="0.25"
     inkscape:showpageshadow="2"
     inkscape:pageopacity="0.0"
     inkscape:pagecheckerboard="0"
     inkscape:deskcolor="#d1d1d1"
     inkscape:document-units="mm"
     inkscape:zoom="0.34835029"
     inkscape:cx="453.56644"
     inkscape:cy="406.20033"
     inkscape:window-width="1261"
     inkscape:window-height="755"
     inkscape:window-x="488"
     inkscape:window-y="42"
     inkscape:window-maximized="0"
     inkscape:current-layer="layer1" /><defs
     id="defs1"><inkscape:path-effect
       effect="fill_between_many"
       method="originald"
       linkedpaths="#rect3,0,1|#path1,0,1|"
       id="path-effect3" /><inkscape:path-effect
       effect="fill_between_many"
       method="originald"
       linkedpaths="#rect23,0,1|#g22,0,1|"
       id="path-effect23" /></defs><g
     inkscape:label="Layer 1"
     inkscape:groupmode="layer"
     id="layer1"><path
       d="m 40.329808,11.587911 c -0.916368,-0.0066 -1.849748,0.0099 -2.799485,0.05252 -9.117475,0.397959 -19.758442,3.038095 -31.6971632,8.74225 -1.3262535,0.633086 -2.0982258,2.060047 -1.911268,3.53286 1.1471276,9.041776 0.5216267,23.996791 1.1496775,38.442749 0.3207336,7.377244 0.8894493,14.682312 2.3722287,21.201882 1.0578619,8.958763 3.120015,17.153848 7.568548,23.115478 0.356689,0.6229 0.731815,1.25746 1.157876,1.89974 2.38613,3.59696 5.64862,6.98178 10.016389,9.318 3.750628,2.0061 8.275447,3.18005 13.418047,3.13427 h 0.0036 c 0.866924,-0.006 1.75152,-0.0503 2.654638,-0.12813 13.199994,-1.13643 23.72048,-5.37395 31.380135,-11.21221 3.869635,3.28148 8.268301,5.65842 13.259533,5.60797 7.986082,-0.0808 14.536736,-3.17928 19.512596,-7.93676 3.67486,4.98889 8.81483,8.77336 15.65545,10.12623 8.5087,1.68279 19.21022,-0.0505 33.06092,-5.91057 0.1248,-0.0783 0.24436,-0.16437 0.35804,-0.25835 2.6853,2.04201 5.63422,3.65401 9.02793,4.08003 30.02066,3.76815 42.31276,-34.268478 36.16835,-62.520592 -1.6536,-19.863252 -11.56392,-37.658512 -29.96812,-37.912235 -0.68483,-0.0083 -1.38144,0.005 -2.08981,0.04521 -4.83164,0.27237 -9.09213,1.76707 -12.75756,4.115076 -4.19663,-3.462562 -9.97387,-5.901108 -17.12216,-6.684712 -2.00615,-0.219904 -4.12202,-0.313154 -6.34692,-0.268464 -0.74164,0.0133 -1.49509,0.04504 -2.26107,0.0914 -8.44426,0.508875 -18.38667,2.983468 -29.81141,7.993961 -4.36201,-3.513583 -9.496604,-5.651939 -15.347522,-5.80264 -1.937426,-0.05002 -3.952046,0.117497 -6.042631,0.522237 -4.951093,0.958586 -9.116198,3.14582 -12.517981,6.150459 C 60.72759,15.468527 51.867572,11.667618 40.329797,11.588013 Z"
       style="baseline-shift:baseline;display:inline;overflow:visible;fill-opacity:0.992157;stroke-width:11.7093;stroke-linecap:square;stroke-linejoin:round;stroke-dasharray:none;paint-order:markers stroke fill;enable-background:accumulate;stop-color:#000000;stop-opacity:1"
       id="path121" /><g
       id="g42"
       transform="matrix(0.9968836,-0.08252255,0.08059121,0.97355268,-22.443132,8.9281642)"
       style="fill:#ffffff;stroke-width:2.0121;stroke-dasharray:none" /><path
       inkscape:original-d="M 0,0"
       inkscape:path-effect="#path-effect23"
       d="M 0,0"
       id="path23" /><path
       id="path21-1-6"
       style="opacity:0.99;fill:#800000;fill-opacity:1;stroke:#800000;stroke-width:6.37174;stroke-linecap:square;stroke-linejoin:round;stroke-dasharray:none;stroke-opacity:0.992157;paint-order:markers stroke fill"
       d="m 44.404342,25.063698 c -8.472523,0.03939 -18.711203,2.313371 -30.56517,7.905382 2.247593,17.49163 -2.270494,53.434092 8.621629,67.55339 0.337832,0.58818 0.691403,1.17169 1.0761,1.74425 2.018267,3.00396 4.709173,5.74251 8.285825,7.63142 3.576651,1.88888 8.046128,2.89547 13.395766,2.44073 13.047099,-1.10903 23.163229,-5.42882 29.872089,-11.16371 3.640752,3.74275 7.855308,5.98197 12.449362,5.9361 8.29804,-0.0828 14.529887,-3.6564 18.887887,-9.243388 6.20621,11.582578 18.80049,16.653018 44.23745,6.027148 0.44817,-0.49686 0.85246,-0.99576 1.23583,-1.4952 2.65409,2.66511 5.74342,4.39847 9.23225,4.83084 40.70845,5.04507 42.75984,-81.106035 5.0086,-79.004806 -4.93702,0.274797 -9.0928,1.985261 -12.51894,4.726042 -7.69577,-8.038983 -25.27444,-11.64942 -52.70363,0.77036 -5.050795,-4.66324 -11.416223,-7.013803 -18.91364,-5.58056 -5.295609,1.012332 -9.442428,3.594649 -12.57904,7.23206 C 64.957832,29.491877 56.478412,25.007626 44.404342,25.063698 Z m 96.819138,35.422619 c -0.19216,1.862613 -0.29626,3.747362 -0.33665,5.637247 -1.51658,-1.649241 -3.09155,-3.315866 -4.73465,-5.010311 1.80126,-0.100711 3.49173,-0.314449 5.0713,-0.626936 z" /><g
       id="g45"
       transform="translate(-10.20434,-1.074141)"
       style="stroke-width:3.834;stroke-dasharray:none"><g
         id="g47"
         transform="translate(8.9245059,0.94941553)"
         style="stroke-width:3.834;stroke-dasharray:none" /></g><g
       id="g43-2"
       transform="matrix(1.6597699,0.0842082,-0.0842082,1.6597699,9.1329214,-188.2017)"
       style="fill:#ffffff;fill-opacity:1;stroke:none;stroke-width:3.834;stroke-dasharray:none"><g
         id="g42-3-00"
         transform="matrix(1.0002934,0,0,0.97688268,41.577617,3.3937573)"
         style="fill:#ffffff;fill-opacity:1;stroke:none;stroke-width:3.87853;stroke-dasharray:none"><path
           style="opacity:0.99;fill:#ffffff;fill-opacity:1;stroke:none;stroke-width:3.87853;stroke-linecap:square;stroke-linejoin:round;stroke-dasharray:none;stroke-opacity:1;paint-order:markers stroke fill"
           d="m 61.313815,170.6927 c -15.593818,-1.16147 -20.34645,-46.46888 0.601108,-48.75745 22.615778,-2.47084 24.009092,50.59048 -0.601108,48.75745 z"
           id="path21-1-1"
           sodipodi:nodetypes="sss" /></g></g><g
       id="g49"
       transform="matrix(1.6619047,0,0,1.6619047,-70.740176,-228.56649)"><g
         id="g48"
         transform="translate(44.039783,27.927667)"><g
           id="g46"
           style="stroke-width:3.834;stroke-dasharray:none"><g
             id="g43"
             transform="rotate(2.9044031,102.06929,22.719449)"
             style="fill:#fe0000;fill-opacity:1;stroke-width:3.834;stroke-dasharray:none"><g
               id="g42-3"
               transform="matrix(1.0002934,0,0,0.97688268,41.577617,3.3937573)"
               style="fill:#fe0000;fill-opacity:1;stroke-width:3.87853;stroke-dasharray:none"><path
                 style="opacity:0.99;fill:#fe0000;fill-opacity:1;stroke:#000000;stroke-width:3.87853;stroke-linecap:square;stroke-linejoin:round;stroke-dasharray:none;stroke-opacity:1;paint-order:markers stroke fill"
                 d="m 61.313815,170.6927 c -15.593818,-1.16147 -20.34645,-46.46888 0.601108,-48.75745 22.615778,-2.47084 24.009092,50.59048 -0.601108,48.75745 z"
                 id="path21-1"
                 sodipodi:nodetypes="sss" /><path
                 style="opacity:0.99;fill:none;fill-opacity:1;stroke:#000000;stroke-width:3.87853;stroke-linecap:square;stroke-linejoin:round;stroke-dasharray:none;stroke-opacity:1;paint-order:markers stroke fill"
                 d="m 49.408,155.57988 c 1.138259,-0.003 14.675036,-15.25403 28.85691,-0.76954"
                 id="path34-9"
                 sodipodi:nodetypes="cc" /><path
                 style="opacity:0.99;fill:#020000;fill-opacity:1;stroke:#000000;stroke-width:3.45902;stroke-linecap:square;stroke-linejoin:round;stroke-dasharray:none;stroke-opacity:1;paint-order:markers stroke fill"
                 d="m 67.82095,155.30411 c -7.34607,-0.0312 -7.865666,-5.06263 -0.224923,-5.06729 11.301708,-0.007 6.129982,5.09235 0.224923,5.06729 z"
                 id="path37-8"
                 sodipodi:nodetypes="sss" /></g></g><path
             style="opacity:0.99;fill:#000000;fill-opacity:1;stroke:#000000;stroke-width:1.111;stroke-linecap:square;stroke-linejoin:round;stroke-dasharray:none;stroke-opacity:1;paint-order:markers stroke fill"
             d="m 109.17855,130.27455 c 2.64258,3.67703 2.20321,11.25001 0.86153,12.07868 -0.83376,0.51497 0.84813,-3.77198 -1.75684,-9.00174 -2.331,-4.67975 -5.73055,-6.68653 -4.78135,-7.26321 0.74348,-0.4517 3.16356,0.68941 5.67666,4.18627 z"
             id="path43-2"
             sodipodi:nodetypes="sssss" /></g><g
           id="g46-1"
           style="stroke-width:3.834;stroke-dasharray:none"
           transform="translate(-1.6496267,70.484249)" /><path
           style="opacity:0.99;fill:#ffffff;fill-opacity:1;stroke:none;stroke-width:3.834;stroke-linecap:square;stroke-linejoin:round;stroke-dasharray:none;stroke-opacity:1;paint-order:markers stroke fill"
           d="m 61.440611,127.47401 c 37.591647,-17.36733 44.913739,14.9451 21.738659,16.24098 9.28814,9.57852 15.790538,17.91788 8.73288,25.74236 -37.623944,15.71678 -28.557118,-25.63131 -30.471539,-41.98334 z"
           id="path22-6"
           sodipodi:nodetypes="cccc" /><path
           style="opacity:0.99;fill:#fe0000;fill-opacity:1;stroke:#000000;stroke-width:3.834;stroke-linecap:square;stroke-linejoin:round;stroke-dasharray:none;stroke-opacity:1;paint-order:markers stroke fill"
           d="m 58.668431,126.00301 c 37.59165,-17.36733 44.913749,14.9451 21.738655,16.24098 9.288148,9.57852 15.790542,17.91788 8.732883,25.74236 -37.623943,15.71678 -28.557117,-25.63131 -30.471538,-41.98334 z"
           id="path22"
           sodipodi:nodetypes="cccc" /><path
           style="fill:#000000;fill-opacity:0;stroke-width:1.13864;stroke-linecap:square;stroke-linejoin:round;paint-order:markers stroke fill"
           d="m 27.953808,123.60749 c 2.882889,0.0105 5.692955,0.30266 8.070577,1.08727 3.170166,1.04615 5.551313,3.04884 6.009053,6.26164 0.72134,5.06309 -2.403993,8.80632 -6.353427,11.43651 11.041587,2.54271 15.180987,9.65251 13.202637,16.35817 -2.00744,6.80424 -10.183396,13.21067 -23.192032,14.31644 -3.21898,0.27362 -5.908393,-0.33205 -8.06053,-1.46864 -2.152135,-1.13659 -3.771555,-2.78442 -4.985991,-4.59197 -2.405781,-3.58069 -3.2502889,-7.78616 -3.3351699,-10.18543 h -0.0077 l 6.73e-4,-0.14831 -0.01039,-0.42581 h 0.01335 l 0.174197,-29.73255 c 7.91e-4,-0.21398 0.178021,-0.40385 0.440845,-0.47233 0,0 7.4290339,-1.94984 15.1395489,-2.35954 0.963811,-0.0512 1.93334,-0.079 2.894312,-0.0754 z"
           id="path31"
           sodipodi:nodetypes="csscsssscccccccscc" /><path
           style="baseline-shift:baseline;display:inline;overflow:visible;vector-effect:none;fill:#800000;stroke-width:1.13864;stroke-linecap:square;stroke-linejoin:round;paint-order:markers stroke fill;enable-background:accumulate;stop-color:#000000;stop-opacity:1"
           d="m 9.3022351,156.67317 -6.74e-4,0.14831 h 0.0077 c -8.16e-4,-0.023 -0.0039,-0.0517 -0.0052,-0.0744 z"
           id="path33"
           sodipodi:nodetypes="ccccc" /><path
           style="opacity:0.99;fill:#ffffff;fill-opacity:1;stroke:none;stroke-width:3.834;stroke-linecap:square;stroke-linejoin:round;stroke-dasharray:none;stroke-opacity:1;paint-order:markers stroke fill"
           d="m 54.070678,170.21182 c -15.638825,0.15608 -24.028025,-43.56087 -3.330187,-47.51756 22.34617,-4.2718 28.011418,47.27121 3.330187,47.51756 z"
           id="path21-7"
           sodipodi:nodetypes="sss" /><path
           style="opacity:0.99;fill:#fe0000;fill-opacity:1;stroke:#000000;stroke-width:3.87853;stroke-linecap:square;stroke-linejoin:round;stroke-dasharray:none;stroke-opacity:1;paint-order:markers stroke fill"
           d="m 61.313815,170.6927 c -15.593818,-1.16147 -20.34645,-46.46888 0.601108,-48.75745 22.615778,-2.47084 24.009092,50.59048 -0.601108,48.75745 z"
           id="path21"
           sodipodi:nodetypes="sss"
           transform="matrix(0.99688359,-0.08252255,0.08059121,0.97355268,-23.722966,8.8034389)" /><path
           style="opacity:0.99;fill:#ffffff;fill-opacity:0;stroke:#000000;stroke-width:3.87853;stroke-linecap:square;stroke-linejoin:round;stroke-dasharray:none;stroke-opacity:1;paint-order:markers stroke fill"
           d="m 49.408,155.57988 c 1.138259,-0.003 14.675036,-15.25403 28.85691,-0.76954"
           id="path34"
           sodipodi:nodetypes="cc"
           transform="matrix(0.99688359,-0.08252255,0.08059121,0.97355268,-23.722966,8.8034389)" /><path
           style="opacity:0.99;fill:#000000;fill-opacity:1;stroke:#000000;stroke-width:1.111;stroke-linecap:square;stroke-linejoin:round;stroke-dasharray:none;stroke-opacity:1;paint-order:markers stroke fill"
           d="m 58.38619,154.31738 c -7.554675,-0.29428 -7.990612,-6.3194 -0.132171,-6.05758 11.623715,0.38726 6.204915,6.29414 0.132171,6.05758 z"
           id="path37"
           sodipodi:nodetypes="sss" /><path
           style="opacity:0.99;fill:#000000;fill-opacity:1;stroke:#000000;stroke-width:1.111;stroke-linecap:square;stroke-linejoin:round;stroke-dasharray:none;stroke-opacity:1;paint-order:markers stroke fill"
           d="m 62.47536,131.16583 c 2.642583,3.67703 2.203204,11.25001 0.861526,12.07868 -0.833762,0.51497 0.848133,-3.77198 -1.756833,-9.00174 -2.331003,-4.67975 -5.730552,-6.68653 -4.781355,-7.26321 0.743477,-0.4517 3.163565,0.68941 5.676662,4.18627 z"
           id="path43"
           sodipodi:nodetypes="sssss"
           transform="translate(-1.2798341,-0.12472547)" /><path
           style="opacity:0.99;fill:#ffffff;fill-opacity:1;stroke:none;stroke-width:3.84158;stroke-linecap:round;stroke-linejoin:round;stroke-dasharray:none;stroke-opacity:1;paint-order:markers stroke fill"
           d="m 10.715979,125.435 c 34.597821,-16.87949 45.230032,14.39157 22.794525,16.83068 37.933175,13.31718 -5.104232,39.05934 -17.168642,25.23915 -7.118034,-8.15394 -4.258953,-31.068 -5.625883,-42.06983 z"
           id="path22-2-4"
           sodipodi:nodetypes="ccsc"
           inkscape:label="path22-2-4" /><path
           style="opacity:0.99;fill:#ff0000;fill-opacity:1;stroke:#000000;stroke-width:3.834;stroke-linecap:round;stroke-linejoin:round;stroke-dasharray:none;stroke-opacity:1;paint-order:markers stroke fill"
           d="m 6.4293616,125.30872 c 35.1151114,-16.5653 46.6658194,15.263 23.8948724,17.65671 38.500328,13.0693 -5.940084,37.19301 -18.184878,23.63006 -7.2244548,-8.00217 -4.3226263,-30.48972 -5.7099944,-41.28677 z"
           id="path22-2"
           sodipodi:nodetypes="ccsc" /><g
           id="g130"
           transform="matrix(0.8318799,0,0,0.84388751,20.436162,-10.967189)"><path
             style="opacity:0.99;fill:none;fill-opacity:1;stroke:#000000;stroke-width:2.53441;stroke-linecap:round;stroke-linejoin:round;stroke-dasharray:none;stroke-opacity:1;paint-order:markers stroke fill"
             d="m 11.672043,193.23245 6.173462,10.91984"
             id="path128"
             sodipodi:nodetypes="cc" /><path
             style="opacity:0.99;fill:none;fill-opacity:1;stroke:#000000;stroke-width:2.53441;stroke-linecap:round;stroke-linejoin:round;stroke-dasharray:none;stroke-opacity:1;paint-order:markers stroke fill"
             d="m 19.318569,194.47792 -9.9306914,7.84453"
             id="path128-7"
             sodipodi:nodetypes="cc" /><path
             style="opacity:0.99;fill:none;fill-opacity:1;stroke:#000000;stroke-width:2.53441;stroke-linecap:round;stroke-linejoin:round;stroke-dasharray:none;stroke-opacity:1;paint-order:markers stroke fill"
             d="m 15.35661,192.57358 -1.978344,11.96364"
             id="path129" /><path
             style="opacity:0.99;fill:none;fill-opacity:1;stroke:#000000;stroke-width:2.53441;stroke-linecap:round;stroke-linejoin:round;stroke-dasharray:none;stroke-opacity:1;paint-order:markers stroke fill"
             d="m 9.2693967,196.73485 11.1091633,2.6751"
             id="path130" /></g><g
           id="g130-3"
           transform="matrix(0.8318799,0,0,0.84388751,19.931202,-36.184617)"><path
             style="opacity:0.99;fill:none;fill-opacity:1;stroke:#000000;stroke-width:2.53441;stroke-linecap:round;stroke-linejoin:round;stroke-dasharray:none;stroke-opacity:1;paint-order:markers stroke fill"
             d="m 11.672043,193.23245 6.173462,10.91984"
             id="path128-5"
             sodipodi:nodetypes="cc" /><path
             style="opacity:0.99;fill:none;fill-opacity:1;stroke:#000000;stroke-width:2.53441;stroke-linecap:round;stroke-linejoin:round;stroke-dasharray:none;stroke-opacity:1;paint-order:markers stroke fill"
             d="m 19.318569,194.47792 -9.9306914,7.84453"
             id="path128-7-9"
             sodipodi:nodetypes="cc" /><path
             style="opacity:0.99;fill:none;fill-opacity:1;stroke:#000000;stroke-width:2.53441;stroke-linecap:round;stroke-linejoin:round;stroke-dasharray:none;stroke-opacity:1;paint-order:markers stroke fill"
             d="m 15.35661,192.57358 -1.978344,11.96364"
             id="path129-9" /><path
             style="opacity:0.99;fill:none;fill-opacity:1;stroke:#000000;stroke-width:2.53441;stroke-linecap:round;stroke-linejoin:round;stroke-dasharray:none;stroke-opacity:1;paint-order:markers stroke fill"
             d="m 9.2693967,196.73485 11.1091633,2.6751"
             id="path130-8" /></g><g
           id="g130-6"
           transform="matrix(0.8318799,0,0,0.84388751,71.808811,-37.376928)"><path
             style="opacity:0.99;fill:none;fill-opacity:1;stroke:#000000;stroke-width:2.53441;stroke-linecap:round;stroke-linejoin:round;stroke-dasharray:none;stroke-opacity:1;paint-order:markers stroke fill"
             d="m 11.672043,193.23245 6.173462,10.91984"
             id="path128-6"
             sodipodi:nodetypes="cc" /><path
             style="opacity:0.99;fill:none;fill-opacity:1;stroke:#000000;stroke-width:2.53441;stroke-linecap:round;stroke-linejoin:round;stroke-dasharray:none;stroke-opacity:1;paint-order:markers stroke fill"
             d="m 19.318569,194.47792 -9.9306914,7.84453"
             id="path128-7-0"
             sodipodi:nodetypes="cc" /><path
             style="opacity:0.99;fill:none;fill-opacity:1;stroke:#000000;stroke-width:2.53441;stroke-linecap:round;stroke-linejoin:round;stroke-dasharray:none;stroke-opacity:1;paint-order:markers stroke fill"
             d="m 15.35661,192.57358 -1.978344,11.96364"
             id="path129-3" /><path
             style="opacity:0.99;fill:none;fill-opacity:1;stroke:#000000;stroke-width:2.53441;stroke-linecap:round;stroke-linejoin:round;stroke-dasharray:none;stroke-opacity:1;paint-order:markers stroke fill"
             d="m 9.2693967,196.73485 11.1091633,2.6751"
             id="path130-80" /></g></g></g><g
       id="g49-5"
       transform="translate(13.224918,73.386745)"><g
         id="g48-0"
         transform="translate(44.039783,27.927667)"><g
           id="g46-9"
           style="stroke-width:3.834;stroke-dasharray:none"><g
             id="g43-0"
             transform="rotate(2.9044031,102.06929,22.719449)"
             style="stroke-width:3.834;stroke-dasharray:none"><g
               id="g42-3-0"
               transform="matrix(1.0002934,0,0,0.97688268,41.577617,3.3937573)"
               style="fill:#ffffff;stroke-width:3.87853;stroke-dasharray:none" /></g></g></g></g><path
       d=""
       style="fill:#000000;fill-opacity:0.992157;stroke-linecap:square;stroke-linejoin:round;paint-order:markers stroke fill"
       id="path112" /><path
       d=""
       style="stroke-linecap:square;stroke-linejoin:round;paint-order:markers stroke fill;fill:#000000"
       id="path111" /></g></svg>
