<?xml version="1.0" encoding="UTF-8" standalone="no"?>
<!-- Created with Inkscape (http://www.inkscape.org/) -->

<svg
   width="210mm"
   height="297mm"
   viewBox="0 0 210 297"
   version="1.1"
   id="svg1"
   inkscape:version="1.4 (86a8ad7, 2024-10-11)"
   sodipodi:docname="EFU.svg"
   xmlns:inkscape="http://www.inkscape.org/namespaces/inkscape"
   xmlns:sodipodi="http://sodipodi.sourceforge.net/DTD/sodipodi-0.dtd"
   xmlns="http://www.w3.org/2000/svg"
   xmlns:svg="http://www.w3.org/2000/svg">
  <sodipodi:namedview
     id="namedview1"
     pagecolor="#ffffff"
     bordercolor="#000000"
     borderopacity="0.25"
     inkscape:showpageshadow="2"
     inkscape:pageopacity="0.0"
     inkscape:pagecheckerboard="0"
     inkscape:deskcolor="#d1d1d1"
     inkscape:document-units="mm"
     showguides="true"
     inkscape:lockguides="true"
     inkscape:zoom="0.69670057"
     inkscape:cx="417.68303"
     inkscape:cy="359.55188"
     inkscape:window-width="1261"
     inkscape:window-height="755"
     inkscape:window-x="486"
     inkscape:window-y="8"
     inkscape:window-maximized="0"
     inkscape:current-layer="layer26">
    <sodipodi:guide
       position="43.293347,272.69497"
       orientation="0,-1"
       id="guide1"
       inkscape:locked="true" />
    <sodipodi:guide
       position="25.824102,197.12149"
       orientation="0,-1"
       id="guide2"
       inkscape:locked="true" />
  </sodipodi:namedview>
  <defs
     id="defs1" />
  <g
     inkscape:label="Layer 1"
     inkscape:groupmode="layer"
     id="layer1"
     sodipodi:insensitive="true">
    <rect
       style="fill:#4d4d4d;stroke-width:1.325;stroke-linejoin:bevel;paint-order:fill markers stroke"
       id="rect1"
       width="1342.8533"
       height="1488.6835"
       x="-325.07986"
       y="-486.10074" />
  </g>
  <g
     inkscape:groupmode="layer"
     id="layer26"
     inkscape:label="Layer 2">
    <path
       style="fill:none;fill-opacity:1;stroke:#000000;stroke-width:1.26684;stroke-linejoin:bevel;stroke-opacity:1;paint-order:fill markers stroke"
       d="M 26.091924,98.739214 63.237814,72.15558 63.584972,51.610613 39.544293,51.515671 39.978238,67.97815 21.578872,85.06763 22.620346,67.355488 28.593903,66.975722 28.246746,52.370145 21.926031,51.610613 22.620346,44.015288 63.237814,45.534354 V 24.684803 L 1.7908745,25.444336 2.4851899,100.25828 Z"
       id="path12"
       sodipodi:nodetypes="cccccccccccccccc" />
    <path
       style="fill:none;fill-opacity:1;stroke:#000000;stroke-width:1.26684;stroke-linejoin:bevel;stroke-opacity:1;paint-order:fill markers stroke"
       d="m 51.499891,99.550767 0.611986,-74.814801 23.477129,0.548103 37.306364,27.474569 0.36977,20.544495 -24.040561,0.126602 0.41584,-16.463039 -18.418169,-17.065237 1.060965,15.064925 5.649496,0.550903 -0.331082,14.606023 -5.995405,0.58885 c -0.02449,9.04759 0.954689,20.064397 1.178433,28.786587 z"
       id="path12-1"
       sodipodi:nodetypes="cccccccccccccc" />
    <path
       style="fill:none;fill-opacity:1;stroke:#000000;stroke-width:1.26684;stroke-linejoin:bevel;stroke-opacity:1;paint-order:fill markers stroke"
       d="M 116.16736,84.118214 134.74031,68.5478 133.69883,32.053617 157.30556,31.863734 157.8263,72.535346 119.81252,99.308864 97.420832,99.878511 97.247257,25.06457 h 20.482303 z"
       id="path13"
       sodipodi:nodetypes="cccccccccc" />
    <path
       style="fill:none;fill-opacity:1;stroke:#000000;stroke-width:1.24266;stroke-linejoin:bevel;stroke-opacity:1;paint-order:fill markers stroke"
       d="m 30.305778,52.497906 0.08655,14.74852 2.422732,-0.274816 0.432749,-14.382098 z"
       id="path16"
       sodipodi:nodetypes="ccccc" />
    <path
       style="fill:none;fill-opacity:1;stroke:#000000;stroke-width:1.35694;stroke-linejoin:bevel;stroke-opacity:1;paint-order:fill markers stroke"
       d="m 156.57574,24.881021 -23.5707,0.154216 0.5474,4.563188 23.17869,0.09304 z"
       id="path16-9-3"
       sodipodi:nodetypes="ccccc" />
    <path
       style="fill:none;fill-opacity:1;stroke:#000000;stroke-width:1.24266;stroke-linejoin:bevel;stroke-opacity:1;paint-order:fill markers stroke"
       d="m 79.682097,55.645204 0.08655,14.74852 2.422732,-0.274816 0.432749,-14.382098 z"
       id="path16-0"
       sodipodi:nodetypes="ccccc" />
    <path
       style="fill:none;fill-opacity:1;stroke:#000000;stroke-width:1.26684;stroke-linejoin:bevel;stroke-opacity:1;paint-order:fill markers stroke"
       d="m 183.76906,39.934615 -18.51572,15.638421 1.17531,36.490118 -23.60588,0.276454 -0.66989,-40.669429 37.91534,-26.912745 22.38945,-0.651759 0.44793,74.812801 -20.48216,0.07511 z"
       id="path13-9"
       sodipodi:nodetypes="cccccccccc" />
    <path
       style="fill:none;fill-opacity:1;stroke:#000000;stroke-width:1.35694;stroke-linejoin:bevel;stroke-opacity:1;paint-order:fill markers stroke"
       d="m 143.57819,99.319597 23.56998,-0.240655 -0.56413,-4.561149 -23.17888,-0.008 z"
       id="path16-9-3-8"
       sodipodi:nodetypes="ccccc" />
  </g>
</svg>
