<?xml version="1.0" encoding="UTF-8" standalone="no"?>
<!-- Created with Inkscape (http://www.inkscape.org/) -->

<svg
   width="210mm"
   height="297mm"
   viewBox="0 0 210 297"
   version="1.1"
   id="svg1"
   inkscape:version="1.4 (86a8ad7, 2024-10-11)"
   sodipodi:docname="kerl.svg"
   xmlns:inkscape="http://www.inkscape.org/namespaces/inkscape"
   xmlns:sodipodi="http://sodipodi.sourceforge.net/DTD/sodipodi-0.dtd"
   xmlns="http://www.w3.org/2000/svg"
   xmlns:svg="http://www.w3.org/2000/svg">
  <sodipodi:namedview
     id="namedview1"
     pagecolor="#ffffff"
     bordercolor="#000000"
     borderopacity="0.25"
     inkscape:showpageshadow="2"
     inkscape:pageopacity="0.0"
     inkscape:pagecheckerboard="0"
     inkscape:deskcolor="#d1d1d1"
     inkscape:document-units="mm"
     showguides="true"
     inkscape:lockguides="true"
     inkscape:zoom="0.24632085"
     inkscape:cx="487.16949"
     inkscape:cy="448.6019"
     inkscape:window-width="1147"
     inkscape:window-height="755"
     inkscape:window-x="512"
     inkscape:window-y="17"
     inkscape:window-maximized="0"
     inkscape:current-layer="layer14">
    <sodipodi:guide
       position="61.76311,260.47921"
       orientation="0,-1"
       id="guide19"
       inkscape:locked="true" />
    <sodipodi:guide
       position="60.151897,197.37342"
       orientation="0,-1"
       id="guide20"
       inkscape:locked="true" />
  </sodipodi:namedview>
  <defs
     id="defs1" />
  <g
     inkscape:label="Layer 1"
     inkscape:groupmode="layer"
     id="layer1"
     style="display:inline">
    <g
       id="g14"
       transform="matrix(2.4128499,0,0,2.4128499,22.599753,51.240601)"
       style="stroke:#000000;stroke-opacity:1">
      <ellipse
         style="fill:#ffffff;stroke:#000000;stroke-width:0.171;stroke-linecap:square;stroke-opacity:1;paint-order:markers stroke fill"
         id="path1-4"
         cx="46.40749"
         cy="30.090069"
         rx="4.0951629"
         ry="8.3917265" />
      <path
         style="fill:#ffffff;stroke:#000000;stroke-width:0.0927594;stroke-linecap:square;stroke-dasharray:none;stroke-opacity:1;paint-order:markers stroke fill"
         d="M 50.056399,34.15428 46.28951,34.046186"
         id="path2" />
      <path
         style="fill:#ffffff;stroke:#000000;stroke-width:0.1;stroke-linecap:square;stroke-dasharray:none;stroke-opacity:1;paint-order:markers stroke fill"
         d="m 50.170083,26.675756 -4.699368,-0.1007"
         id="path2-9" />
    </g>
    <g
       id="g10"
       style="stroke:#000000;stroke-opacity:1"
       transform="matrix(2.4128499,0,0,2.4128499,30.159383,50.782442)">
      <ellipse
         style="fill:#ffffff;stroke:#000000;stroke-width:0.171;stroke-linecap:square;stroke-opacity:1;paint-order:markers stroke fill"
         id="path1"
         cx="10.002938"
         cy="29.74028"
         rx="4.0951629"
         ry="8.3917265" />
      <path
         style="fill:#ffffff;stroke:#000000;stroke-width:0.1;stroke-linecap:square;stroke-dasharray:none;stroke-opacity:1;paint-order:markers stroke fill"
         d="M 10.111275,38.119034 10.063805,26.108927"
         id="path3" />
    </g>
    <g
       id="g11"
       style="stroke:#000000;stroke-opacity:1"
       transform="matrix(2.4128499,0,0,2.4128499,30.159383,50.782442)">
      <ellipse
         style="fill:#ffffff;stroke:#000000;stroke-width:0.171;stroke-linecap:square;stroke-opacity:1;paint-order:markers stroke fill"
         id="path1-3"
         cx="18.306231"
         cy="30.137493"
         rx="4.0951629"
         ry="8.3917265" />
      <path
         style="fill:#ffffff;stroke:#000000;stroke-width:0.1;stroke-linecap:square;stroke-dasharray:none;stroke-opacity:1;paint-order:markers stroke fill"
         d="M 18.513603,25.301923 18.228778,35.55561"
         id="path4" />
    </g>
    <g
       id="g12"
       style="stroke:#000000;stroke-opacity:1"
       transform="matrix(2.4128499,0,0,2.4128499,30.159383,50.782442)">
      <ellipse
         style="fill:#ffffff;stroke:#000000;stroke-width:0.171;stroke-linecap:square;stroke-opacity:1;paint-order:markers stroke fill"
         id="path1-5"
         cx="26.654486"
         cy="30.465258"
         rx="4.0951629"
         ry="8.3917265" />
      <path
         style="fill:#ffffff;stroke:#000000;stroke-width:0.1;stroke-linecap:square;stroke-dasharray:none;stroke-opacity:1;paint-order:markers stroke fill"
         d="m 22.657663,28.397604 3.054588,0.06713"
         id="path5" />
      <path
         style="fill:#ffffff;stroke:#000000;stroke-width:0.0995843;stroke-linecap:square;stroke-dasharray:none;stroke-opacity:1;paint-order:markers stroke fill"
         d="M 25.705642,28.458514 22.631475,28.60136"
         id="path9" />
      <path
         style="fill:#ffffff;stroke:#000000;stroke-width:0.1;stroke-linecap:square;stroke-dasharray:none;stroke-opacity:1;paint-order:markers stroke fill"
         d="m 30.625835,28.389454 -3.054588,0.06713"
         id="path5-8" />
      <path
         style="fill:#ffffff;stroke:#000000;stroke-width:0.0995843;stroke-linecap:square;stroke-dasharray:none;stroke-opacity:1;paint-order:markers stroke fill"
         d="m 27.577856,28.450364 3.074167,0.142846"
         id="path9-8" />
      <path
         style="fill:#ffffff;stroke:#000000;stroke-width:0.1;stroke-linecap:square;stroke-dasharray:none;stroke-opacity:1;paint-order:markers stroke fill"
         d="m 23.003492,34.266794 3.054588,0.06713"
         id="path5-1" />
      <path
         style="fill:#ffffff;stroke:#000000;stroke-width:0.0995843;stroke-linecap:square;stroke-dasharray:none;stroke-opacity:1;paint-order:markers stroke fill"
         d="m 26.051471,34.327704 -3.023817,0.151238"
         id="path9-9"
         sodipodi:nodetypes="cc" />
      <path
         style="fill:#ffffff;stroke:#000000;stroke-width:0.1;stroke-linecap:square;stroke-dasharray:none;stroke-opacity:1;paint-order:markers stroke fill"
         d="M 30.269888,34.324506 27.2153,34.391636"
         id="path5-2" />
      <path
         style="fill:#ffffff;stroke:#000000;stroke-width:0.0995843;stroke-linecap:square;stroke-dasharray:none;stroke-opacity:1;paint-order:markers stroke fill"
         d="m 27.215975,34.373548 3.074167,0.142846"
         id="path9-2" />
    </g>
    <g
       id="g13"
       style="stroke:#000000;stroke-opacity:1"
       transform="matrix(2.4128499,0,0,2.4128499,30.159383,50.782442)">
      <ellipse
         style="fill:#ffffff;stroke:#000000;stroke-width:0.171;stroke-linecap:square;stroke-opacity:1;paint-order:markers stroke fill"
         id="path1-9"
         cx="34.883415"
         cy="30.275713"
         rx="4.0951629"
         ry="8.3917265" />
      <path
         style="fill:#ffffff;stroke:#000000;stroke-width:0.1;stroke-linecap:square;stroke-dasharray:none;stroke-opacity:1;paint-order:markers stroke fill"
         d="M 39.038313,30.646587 34.003276,30.512318"
         id="path10" />
    </g>
  </g>
  <g
     inkscape:groupmode="layer"
     id="layer12"
     inkscape:label="Layer 2"
     style="display:inline">
    <path
       style="fill:#ffffff;stroke:#ff6700;stroke-width:0.723855;stroke-linecap:round;stroke-linejoin:round;stroke-dasharray:none;stroke-opacity:1;paint-order:markers stroke fill"
       d="m 50.087126,147.27988 c -11.666439,2.9643 -6.254957,25.68889 -6.254957,25.68889 0,0 2.229822,14.32825 11.835398,14.36702 l -3.793528,-28.80496 5.051363,28.62602 c 11.226127,-1.20338 5.343804,-42.9723 -6.838276,-39.87697 z"
       id="path14"
       sodipodi:nodetypes="sccccs" />
    <g
       id="g19"
       transform="matrix(2.4022256,-0.2261789,0.2261789,2.4022256,16.33696,54.213506)"
       style="fill:#ffffff">
      <path
         style="fill:#ffffff;stroke:#ff6700;stroke-width:0.3;stroke-linecap:round;stroke-linejoin:round;stroke-dasharray:none;stroke-opacity:1;paint-order:markers stroke fill"
         d="m 21.305673,54.160291 c -3.97639,8.453349 -6.953209,-1.010271 -6.953209,-1.010271 0,0 -2.107943,-8.048509 2.010036,-11.50698 1.308135,-1.234022 2.507674,-0.971326 3.721897,0.267618 2.780404,2.983932 2.311988,9.930904 1.221276,12.249633 z"
         id="path15"
         sodipodi:nodetypes="scsss" />
      <path
         style="fill:#ffffff;stroke:#ff6700;stroke-width:0.367;stroke-linecap:round;stroke-linejoin:round;stroke-dasharray:none;stroke-opacity:1;paint-order:markers stroke fill"
         d="m 18.000106,54.682992 c 0.978462,-5.895705 0.252498,-10.376441 0.252498,-10.376441 0,0 -1.010028,4.622233 -0.252498,10.376441 z"
         id="path16" />
    </g>
    <path
       style="fill:#ffffff;stroke:#ff6700;stroke-width:0.885518;stroke-linecap:round;stroke-linejoin:round;stroke-dasharray:none;stroke-opacity:1;paint-order:markers stroke fill"
       d="m 98.229523,163.69944 -7.595389,0.11123 7.440636,-1.4771 C 94.400144,147.70685 86.901475,148.6718 86.901475,148.6718 c -7.733862,0.41523 -8.105328,15.95741 -8.105328,15.95741 l 7.456242,-0.32204 -7.370832,1.58447 c 0,0 0.167452,10.12504 2.088529,12.32809 l 7.709198,-0.12426 -7.427739,1.59089 c 0,0 4.34736,9.88197 9.722297,9.50346 0,0 6.892047,-0.72327 7.918495,-11.50232 l -7.733864,0.41523 7.774494,-2.09129 c 0,0 0.92134,-9.67205 -0.703444,-12.31212 z"
       id="path17"
       sodipodi:nodetypes="ccccccccccccccc" />
    <path
       style="fill:#ffffff;stroke:#ff6700;stroke-width:0.885518;stroke-linecap:round;stroke-linejoin:round;stroke-dasharray:none;stroke-opacity:1;paint-order:markers stroke fill"
       d="m 97.958977,168.44081 c 0,0 -2.261205,-19.46378 8.914663,-19.82117 0,0 7.64337,-0.76799 11.15374,19.32379 l -12.28658,2.03248 12.46849,-0.78574 c 0,0 2.3191,14.39786 -6.09433,19.12748 -0.77731,0.5386 -1.51822,0.4542 -2.42054,0.26957 -2.21412,-0.45304 -7.16414,-3.95008 -10.039526,-11.07098 -0.03865,-0.0958 9.908866,-1.56736 9.870626,-1.66501 -0.2242,-0.57252 -9.922128,0.733 -9.998864,-0.0292 -0.249182,-2.47503 -1.105705,-3.96356 -1.567689,-7.38119 z"
       id="path18"
       sodipodi:nodetypes="cccccssssscc" />
    <path
       style="fill:#ffffff;stroke:#ff6700;stroke-width:0.885518;stroke-linecap:round;stroke-linejoin:round;stroke-dasharray:none;stroke-opacity:1;paint-order:markers stroke fill"
       d="m 134.37996,160.27544 c 2.35725,3.32158 2.01656,15.73549 2.01656,15.73549 l -9.52469,2.21529 9.35336,-0.92062 c -1.5131,11.01237 -6.8448,11.33026 -6.8448,11.33026 -11.78889,1.71295 -13.26406,-22.82267 -13.26406,-22.82267 -1.57608,-15.04387 7.46384,-17.42463 7.46384,-17.42463 5.93289,-0.57274 10.59693,10.8163 10.59693,10.8163 l -10.47085,1.41919 z"
       id="path19"
       sodipodi:nodetypes="cccccccccc" />
  </g>
  <g
     inkscape:groupmode="layer"
     id="layer13"
     inkscape:label="Layer 3" />
  <path
     style="opacity:1;fill:#ffffff;stroke:#000000;stroke-width:1.68325;stroke-linecap:square;stroke-linejoin:miter;stroke-dasharray:none;stroke-opacity:1;paint-order:markers stroke fill"
     d="m 135.66583,50.355209 0.16604,-12.339464 23.25256,0.308482 2.35069,27.393579 17.18148,12.709697 7.13079,-10.797032 19.84219,30.231691 -17.36191,0.925452 -4.96055,-10.488545 -6.20069,10.180063 -14.88165,-19.126171 1.86021,19.126171 H 146.68307 V 50.663701 Z"
     id="path23-9"
     sodipodi:nodetypes="ccccccccccccccc" />
  <path
     style="fill:#ffffff;stroke:#000000;stroke-width:1.68325;stroke-linecap:square;stroke-linejoin:miter;stroke-dasharray:none;stroke-opacity:1;paint-order:markers stroke fill"
     d="m 95.458441,98.508121 -0.128415,-47.207082 -9.657021,-0.282028 -0.956698,-12.407112 50.176463,-0.334957 -0.90756,25.374235 -12.46531,-0.08822 1.67081,6.46006 4.0557,8.943457 7.01528,-11.56105 19.07278,31.193014 -16.59708,-0.271056 -4.8872,-8.890528 -5.31627,7.961854 -15.51034,-17.777838 1.30208,18.642626 z"
     id="path22-6"
     sodipodi:nodetypes="ccccccccccccccccc" />
  <path
     style="fill:#ffffff;stroke:#000000;stroke-width:1.67167;stroke-linecap:square;stroke-linejoin:miter;stroke-dasharray:none;stroke-opacity:1;paint-order:markers stroke fill"
     d="m 52.012618,38.261511 -9.843479,13.319957 10.388609,-0.152092 1.627645,46.602501 16.164613,-0.115684 -2.28687,-19.110093 15.195319,18.570241 5.892018,-8.6842 5.814417,9.648229 16.66838,0.08568 -20.156999,-30.418582 -7.287534,10.798592 -7.79734,-10.230433 4.88295,-0.14909 -1.115412,-7.202983 -10.490053,0.314078 -0.98557,-10.620192 22.405394,0.312791 0.697675,-12.728793 C 78.242513,38.342767 65.661599,38.17466 52.012618,38.261472 Z"
     id="path21-8"
     sodipodi:nodetypes="ccccccccccccccccccccc" />
  <path
     style="fill:#ffffff;stroke:#000000;stroke-width:1.68325;stroke-linecap:square;stroke-linejoin:miter;stroke-dasharray:none;stroke-opacity:1;paint-order:markers stroke fill"
     d="m 1.9114824,38.316644 0.1150646,11.803122 10.085089,1.17e-4 0.02508,47.782225 16.351247,0.167473 L 27.22807,77.873956 42.653777,97.774336 48.574623,87.390514 54.321405,98.043097 69.716006,97.891151 50.643223,68.006923 43.563738,79.50863 33.32426,66.47999 51.438059,38.303407 32.228123,38.32992 c 0,0 -7.672956,25.532526 -7.45373,23.787461 C 24.993621,60.372316 24.38685,38.266034 24.38685,38.266034 Z"
     id="path20-2"
     sodipodi:nodetypes="cccccccccccccccscc" />
  <path
     style="fill:none;fill-opacity:1;stroke:#000000;stroke-width:2.40473;stroke-linecap:square;stroke-linejoin:miter;stroke-dasharray:none;stroke-opacity:1;paint-order:markers stroke fill"
     d="M 50.3956,39.088147 33.644906,66.296462 43.639794,78.882619 50.488144,67.22191 69.288788,97.085005"
     id="path26"
     sodipodi:nodetypes="ccccc" />
  <path
     style="fill:none;fill-opacity:1;stroke:#000000;stroke-width:2.40473;stroke-linecap:square;stroke-linejoin:miter;stroke-dasharray:none;stroke-opacity:1;paint-order:markers stroke fill"
     d="m 91.73757,38.998362 -0.122938,12.593399 -22.903789,-0.130881 1.439667,9.554154 10.208545,-0.392643 1.570546,8.376244 -5.235152,-0.130881 7.590971,9.423273 7.067453,-11.255569 19.959027,30.232997"
     id="path27"
     sodipodi:nodetypes="cccccccccc" />
  <path
     style="fill:none;fill-opacity:1;stroke:#000000;stroke-width:2.40473;stroke-linecap:square;stroke-linejoin:miter;stroke-dasharray:none;stroke-opacity:1;paint-order:markers stroke fill"
     d="m 135.11266,38.73661 -0.83154,25.15776 -12.30261,0.130871 4.9734,13.873153 7.59097,-11.517332 20.54796,31.541788"
     id="path28"
     sodipodi:nodetypes="cccccc" />
  <path
     style="fill:none;fill-opacity:1;stroke:#000000;stroke-width:2.40473;stroke-linecap:square;stroke-linejoin:miter;stroke-dasharray:none;stroke-opacity:1;paint-order:markers stroke fill"
     d="m 159.80248,38.66748 1.8323,27.45182 17.01425,11.779094 6.8057,-11.25558 21.7913,30.363879"
     id="path29"
     sodipodi:nodetypes="ccccc" />
  <path
     style="fill:#ffffff;stroke:#000000;stroke-width:1.3795;stroke-linecap:square;stroke-linejoin:miter;stroke-dasharray:none;stroke-opacity:1;paint-order:markers stroke fill"
     d="m 131.18391,204.55652 0.13608,-10.11279 19.05659,0.25282 1.92651,22.45035 14.08105,10.41621 5.84402,-8.84868 16.26163,24.77633 -14.22892,0.75845 -4.06541,-8.59587 -5.08176,8.34305 -12.19622,-15.67481 1.52452,15.67481 h -14.22893 v -39.18704 z"
     id="path23-9-9"
     sodipodi:nodetypes="ccccccccccccccc" />
  <path
     style="fill:#ffffff;stroke:#000000;stroke-width:1.3795;stroke-linecap:square;stroke-linejoin:miter;stroke-dasharray:none;stroke-opacity:1;paint-order:markers stroke fill"
     d="m 98.060165,243.49287 -0.105242,-38.68848 -7.914397,-0.23113 -0.78406,-10.16823 41.122024,-0.27452 -0.74379,20.79541 -10.21592,-0.0723 1.36931,5.29434 3.32386,7.32959 5.74935,-9.47483 15.63107,25.56417 -13.60211,-0.22214 -4.0053,-7.28622 -4.35694,6.52513 -12.71147,-14.5698 1.06711,15.27853 z"
     id="path22-6-1"
     sodipodi:nodetypes="ccccccccccccccccc" />
  <path
     style="fill:#ffffff;stroke:#000000;stroke-width:1.37001;stroke-linecap:square;stroke-linejoin:miter;stroke-dasharray:none;stroke-opacity:1;paint-order:markers stroke fill"
     d="m 58.88725,194.11787 -8.067206,10.91635 8.51397,-0.12465 1.333934,38.19299 13.247677,-0.0948 -1.874197,-15.66165 12.453295,15.21921 4.828792,-7.11712 4.765196,7.90719 13.660539,0.0702 -16.519631,-24.92949 -5.972485,8.84997 -6.390299,-8.38433 4.00181,-0.12219 -0.914131,-5.90319 -8.597103,0.2574 -0.807722,-8.70376 18.362302,0.25635 0.571778,-10.43186 C 80.383917,194.18445 70.073253,194.04668 58.88725,194.11782 Z"
     id="path21-8-2"
     sodipodi:nodetypes="ccccccccccccccccccccc" />
  <path
     style="fill:#ffffff;stroke:#000000;stroke-width:1.3795;stroke-linecap:square;stroke-linejoin:miter;stroke-dasharray:none;stroke-opacity:1;paint-order:markers stroke fill"
     d="m 16.539817,194.16305 0.0943,9.67323 8.265217,9e-5 0.02055,39.15984 13.400635,0.13725 -1.032545,-16.55129 12.642111,16.30932 4.852421,-8.51004 4.709762,8.73031 12.616615,-0.12452 -15.631061,-24.49158 -5.80198,9.42621 -8.391746,-10.67759 14.845135,-23.09207 -15.743472,0.0217 c 0,0 -6.288357,20.92513 -6.108691,19.49497 0.179668,-1.43017 -0.31761,-19.54733 -0.31761,-19.54733 z"
     id="path20-2-5"
     sodipodi:nodetypes="cccccccccccccccscc" />
  <path
     style="fill:#ffffff;fill-opacity:1;stroke:#000000;stroke-width:1.46539;stroke-linecap:square;stroke-linejoin:miter;stroke-dasharray:none;stroke-opacity:1;paint-order:markers stroke fill"
     d="m 58.988572,247.08096 -9.012246,0.5363 0.37551,10.27378 7.510206,-0.19303 1.50204,33.97455 h 12.767354 l -2.253061,-13.89868 10.51429,13.89868 4.318366,-6.75631 3.755106,7.72149 19.714293,-0.4826 -3.00409,-12.83697 -10.889795,1.35126 -7.885716,-11.9683 -4.506125,8.10756 -5.694341,-6.32011 6.893266,-0.34124 0.616094,-6.49137 -12.554353,0.89495 -0.730198,-7.57564 16.528991,0.6825 0.13276,-10.30559 z"
     id="path31"
     sodipodi:nodetypes="ccccccccccccccccccccccc" />
  <path
     style="fill:#ffffff;fill-opacity:1;stroke:#000000;stroke-width:1.46539;stroke-linecap:square;stroke-linejoin:miter;stroke-dasharray:none;stroke-opacity:1;paint-order:markers stroke fill"
     d="m 20.262328,256.71601 -0.132763,-9.55486 16.860896,0.6825 v 16.65274 l 5.177755,-17.19874 14.869453,0.1365 -13.807349,21.29368 6.77091,9.00886 5.443283,-8.32637 7.169198,11.05634 10.753799,-1.77448 3.451838,13.1038 -19.250629,0.273 -3.717363,-7.09789 -4.115652,7.37088 -11.019325,-14.33228 1.194867,14.46878 -12.479718,-0.54599 -0.132763,-34.94348 z"
     id="path30"
     sodipodi:nodetypes="cccccccccccccccccccc" />
  <path
     style="fill:#ffffff;fill-opacity:1;stroke:#000000;stroke-width:1.46539;stroke-linecap:square;stroke-linejoin:miter;stroke-dasharray:none;stroke-opacity:1;paint-order:markers stroke fill"
     d="m 87.097089,257.75145 c 0,0 -0.398289,-10.51034 0.132768,-10.37384 0.53105,0.1365 36.775343,0.273 36.775343,0.273 l -0.39829,19.9287 -9.42617,-0.819 3.85012,10.78335 5.31052,-8.32638 9.29341,15.97026 9.16064,-5.05042 3.11994,12.89905 -20.37912,-0.34124 -3.18632,-6.5519 -3.71736,6.27889 -10.88657,-13.24028 1.06211,13.51329 -13.276292,-0.1365 0.398283,-34.53398 z"
     id="path32"
     sodipodi:nodetypes="cscccccccccccccccc" />
  <path
     style="fill:#ffffff;fill-opacity:1;stroke:#000000;stroke-width:1.46539;stroke-linecap:square;stroke-linejoin:miter;stroke-dasharray:none;stroke-opacity:1;paint-order:markers stroke fill"
     d="m 124.53826,257.77488 0.13011,-10.085 17.80339,0.0816 0.52054,21.19628 12.61249,9.14537 4.6467,-7.64389 9.95722,14.60527 10.35552,-3.54894 3.98288,11.46583 -22.30418,0.54599 -4.24842,-7.37088 -4.24841,7.64388 -10.35551,-14.19579 1.59316,13.64979 h -12.74524 v -35.21647 z"
     id="path33"
     sodipodi:nodetypes="ccccccccccccccccc" />
  <g
     inkscape:groupmode="layer"
     id="layer14"
     inkscape:label="Layer 4" />
</svg>
