<?xml version="1.0" encoding="UTF-8" standalone="no"?>
<!-- Created with Inkscape (http://www.inkscape.org/) -->

<svg
   width="210mm"
   height="297mm"
   viewBox="0 0 210 297"
   version="1.1"
   id="svg1"
   inkscape:version="1.4 (86a8ad7, 2024-10-11)"
   sodipodi:docname="letter shapes.svg"
   xmlns:inkscape="http://www.inkscape.org/namespaces/inkscape"
   xmlns:sodipodi="http://sodipodi.sourceforge.net/DTD/sodipodi-0.dtd"
   xmlns="http://www.w3.org/2000/svg"
   xmlns:svg="http://www.w3.org/2000/svg">
  <sodipodi:namedview
     id="namedview1"
     pagecolor="#ffffff"
     bordercolor="#000000"
     borderopacity="0.25"
     inkscape:showpageshadow="2"
     inkscape:pageopacity="0.0"
     inkscape:pagecheckerboard="0"
     inkscape:deskcolor="#d1d1d1"
     inkscape:document-units="mm"
     showguides="true"
     inkscape:lockguides="true"
     inkscape:zoom="0.35355339"
     inkscape:cx="510.5311"
     inkscape:cy="660.43773"
     inkscape:window-width="1261"
     inkscape:window-height="755"
     inkscape:window-x="346"
     inkscape:window-y="26"
     inkscape:window-maximized="0"
     inkscape:current-layer="layer10">
    <sodipodi:guide
       position="24.436708,289.48102"
       orientation="0,-1"
       id="guide1"
       inkscape:locked="true" />
    <sodipodi:guide
       position="48.604881,246.78391"
       orientation="0,-1"
       id="guide2"
       inkscape:locked="true" />
    <sodipodi:guide
       position="20.637499,242.49584"
       orientation="0,-1"
       id="guide3"
       inkscape:locked="true" />
    <sodipodi:guide
       position="37.417734,199.71389"
       orientation="0,-1"
       id="guide4"
       inkscape:locked="true" />
    <sodipodi:guide
       position="13.626041,196.32605"
       orientation="0,-1"
       id="guide6"
       inkscape:locked="true" />
    <sodipodi:guide
       position="18.785416,153.19896"
       orientation="0,-1"
       id="guide7"
       inkscape:locked="true" />
    <sodipodi:guide
       position="7.6706352,151.25793"
       orientation="0,-1"
       id="guide9"
       inkscape:locked="true" />
    <sodipodi:guide
       position="24.606249,108.35209"
       orientation="0,-1"
       id="guide10"
       inkscape:locked="true" />
  </sodipodi:namedview>
  <defs
     id="defs1" />
  <g
     inkscape:label="Layer 1"
     inkscape:groupmode="layer"
     id="layer1"
     sodipodi:insensitive="true">
    <rect
       style="fill:#333333;fill-opacity:1;stroke:#000000;stroke-width:3.98994;stroke-linecap:round;stroke-linejoin:round;paint-order:fill markers stroke"
       id="rect1"
       width="2350.3093"
       height="2256.0273"
       x="-1014.5797"
       y="-966.29346" />
  </g>
  <g
     inkscape:groupmode="layer"
     id="layer2"
     inkscape:label="Layer 2">
    <g
       inkscape:groupmode="layer"
       id="layer6"
       inkscape:label="O ">
      <path
         style="fill:#333333;fill-opacity:1;stroke:#000000;stroke-width:0.91776;stroke-linecap:round;stroke-linejoin:round;paint-order:fill markers stroke"
         d="m 3.4406532,167.0507 c 1.232311,11.41677 10.3728768,20.71544 19.9348428,21.23313 12.311745,0.66656 18.484205,-13.09106 18.127635,-22.15632 -0.47294,-12.024 -9.324295,-19.62516 -20.108342,-19.83264 -12.0400944,0.2219 -19.0352008,10.74028 -17.9541358,20.75583 z"
         id="path2"
         sodipodi:nodetypes="sssss" />
      <path
         style="fill:#333333;fill-opacity:1;stroke:#000000;stroke-width:0.299353;stroke-linecap:round;stroke-linejoin:round;paint-order:fill markers stroke"
         d="m 15.840643,166.82589 c 0.401952,3.7239 3.383408,6.75693 6.502317,6.92579 4.015827,0.21741 6.029151,-4.27002 5.912845,-7.22692 -0.154264,-3.92197 -3.041384,-6.40131 -6.558909,-6.46898 -3.927221,0.0724 -6.208874,3.50325 -5.856253,6.77011 z"
         id="path2-8"
         sodipodi:nodetypes="sssss" />
      <path
         style="fill:#333333;fill-opacity:1;stroke:#000000;stroke-width:0.895334;stroke-linecap:round;stroke-linejoin:round;paint-order:fill markers stroke"
         d="m 92.131083,166.66605 c 0.34863,8.82413 -5.6864,22.2158 -17.724,21.56697 -9.34907,-0.50392 -18.28611,-9.53672 -19.49098,-20.64981 l -0.40827,-21.25704 37.32419,-0.0931 z"
         id="path2-5"
         sodipodi:nodetypes="csc" />
      <path
         style="fill:#333333;fill-opacity:1;stroke:#000000;stroke-width:0.496934;stroke-linecap:round;stroke-linejoin:round;paint-order:fill markers stroke"
         d="m 84.228643,170.89847 c 0.1935,4.89762 -3.1561,12.33035 -9.83729,11.97023 -5.18897,-0.27968 -10.14926,-5.29313 -10.818,-11.46118 l -0.2266,-11.79822 20.7159,-0.0517 z"
         id="path2-5-1"
         sodipodi:nodetypes="csc" />
      <path
         style="fill:#333333;fill-opacity:1;stroke:#000000;stroke-width:0.893377;stroke-linecap:round;stroke-linejoin:round;paint-order:fill markers stroke"
         d="m 103.8601,167.47776 c -0.13335,-8.79139 6.22644,-21.9754 18.24467,-21.03992 9.33401,0.72654 18.04816,9.93229 18.98168,21.02257 l -0.1102,21.16778 -37.31544,-0.80547 z"
         id="path2-5-7"
         sodipodi:nodetypes="csc" />
      <path
         style="fill:#333333;fill-opacity:1;stroke:#000000;stroke-width:0.495848;stroke-linecap:round;stroke-linejoin:round;paint-order:fill markers stroke"
         d="m 111.86342,163.45523 c -0.074,-4.87945 3.45583,-12.19692 10.12626,-11.67771 5.18062,0.40325 10.0172,5.51268 10.53533,11.66808 l -0.0612,11.74867 -20.71104,-0.44706 z"
         id="path2-5-1-6"
         sodipodi:nodetypes="csc" />
      <path
         id="rect10"
         style="fill:#333333;stroke:#000000;stroke-width:0.856863;stroke-linecap:round;stroke-linejoin:round;paint-order:fill markers stroke"
         d="m 165.77455,146.05 h 33.45608 c 5.67779,14.5467 4.52752,28.6226 0,42.46563 h -33.45608 c -5.3138,-14.15521 -4.588,-28.31042 0,-42.46563 z"
         sodipodi:nodetypes="ccccc" />
      <path
         id="rect10-3"
         style="fill:#333333;stroke:#000000;stroke-width:0.543535;stroke-linecap:round;stroke-linejoin:round;paint-order:fill markers stroke"
         d="m 171.83372,153.81572 h 21.22223 c 3.6016,9.22742 2.87195,18.15621 0,26.93727 h -21.22223 c -3.37071,-8.97909 -2.91031,-17.95818 0,-26.93727 z"
         sodipodi:nodetypes="ccccc" />
    </g>
    <g
       inkscape:groupmode="layer"
       id="layer5"
       inkscape:label="P">
      <path
         style="fill:#333333;fill-opacity:1;stroke:#000000;stroke-width:0.899999;stroke-linecap:round;stroke-linejoin:round;stroke-opacity:1;paint-order:fill markers stroke"
         d="m 181.50416,119.96585 c 0,0 13.36146,13.62604 21.29896,1.19062 0,0 5.95313,-9.12812 -0.66145,-20.10833 l -33.99896,0.39687 c 0,0 -6.21771,18.38855 0.66146,42.59792 l 20.90208,-0.26458 v -18.52084"
         id="path10" />
      <path
         style="fill:#333333;fill-opacity:1;stroke:#000000;stroke-width:0.892913;stroke-linecap:round;stroke-linejoin:round;paint-order:fill markers stroke"
         d="m 23.090053,120.58683 c 18.506351,23.01111 34.617389,-20.06565 0.297785,-19.4041 -7.777831,1.36893 -11.985808,5.00805 -14.2247145,8.942 -3.511345,6.16973 -2.179451,13.06464 -2.179451,13.06464 3.9618285,27.46486 25.8308015,26.16852 23.7476965,3.811"
         id="path4-7"
         sodipodi:nodetypes="ccscc" />
      <path
         style="fill:#333333;fill-opacity:1;stroke:#000000;stroke-width:0.892913;stroke-linecap:round;stroke-linejoin:round;paint-order:fill markers stroke"
         d="m 74.651035,119.98017 c 17.044295,17.60806 29.507765,-5.33828 20.163217,-18.97592 m -12.521901,25.38946 c 2.083105,22.35752 -19.785868,23.65386 -23.747696,-3.811 0,0 -1.06731,-15.09699 2.444035,-21.26672 l 33.887007,-0.37271"
         id="path4-7-7"
         sodipodi:nodetypes="cccccc" />
      <path
         style="fill:#333333;fill-opacity:1;stroke:#000000;stroke-width:0.892913;stroke-linecap:round;stroke-linejoin:round;paint-order:fill markers stroke"
         d="m 129.97542,142.70001 c 1.16823,-2.72636 2.46026,-10.84965 2.04302,-15.32775 m -7.64132,-6.41354 c 18.50636,23.01111 34.6174,-20.06565 0.29779,-19.4041 -7.77783,1.36893 -11.98581,5.00805 -14.22472,8.942 -3.51134,6.16973 -2.17945,13.06464 -2.17945,13.06464 0.80968,5.61297 2.74146,16.38569 4.68968,19.66187 l 17.015,-0.33603"
         id="path4-7-9"
         sodipodi:nodetypes="ccsccccc" />
    </g>
    <g
       inkscape:groupmode="layer"
       id="layer4"
       inkscape:label="U">
      <path
         style="fill:none;fill-opacity:1;stroke:#000000;stroke-width:0.880709;stroke-linecap:round;stroke-linejoin:round;paint-order:fill markers stroke"
         d="m 27.247827,73.025045 0.163416,8.543871 2.522944,-4.1403 c 3.591587,-1.214309 5.609073,-3.533323 7.483547,-5.952704 0,0 -7.10937,12.899127 -12.347852,-3.762245 C 21.04926,54.925789 34.81799,48.944482 42.974354,63.695251 60.059469,94.593648 38.397501,97.699974 24.520906,96.899606 3.0393104,95.660599 3.885522,79.909741 10.050102,65.330152 12.160511,58.253266 18.502731,51.2505 26.566591,57.143549"
         id="path7"
         sodipodi:nodetypes="ccccssssc" />
      <path
         style="fill:none;fill-opacity:1;stroke:#000000;stroke-width:0.91912;stroke-linecap:round;stroke-linejoin:round;paint-order:fill markers stroke"
         d="M 75.310978,55.117119 63.92402,54.89058 C 56.665188,60.694669 43.116337,96.557388 75.670877,96.92283 102.08061,96.91743 102.25813,79.912393 88.168052,54.844174 l -12.824975,0.15881 c 0,0 -3.342218,6.320808 -2.215222,12.539343 0.700456,3.864973 4.952338,9.387773 12.272614,3.222667 l -8.886711,7.999335 0.187089,-5.799749"
         id="path8"
         sodipodi:nodetypes="ccsccsccc" />
      <path
         style="fill:none;fill-opacity:1;stroke:#000000;stroke-width:0.899999;stroke-linecap:round;stroke-linejoin:round;paint-order:fill markers stroke"
         d="m 124.67881,57.764685 c -0.0526,-0.04382 3.086,-2.369706 -3.57852,-2.786149 -7.32045,-0.45743 -7.99092,4.023547 -13.15029,16.723547 -5.15938,12.7 2.91041,24.738542 2.91041,24.738542 l 35.97905,0.205106 c 3.45588,-3.455876 1.94468,-15.905113 -0.63858,-24.684536 -3.20337,-10.886943 -8.67947,-19.219331 -18.87344,-15.725 -6.41564,2.199179 -9.23251,14.56781 1.49671,19.083044 5.12703,2.157638 8.79317,-4.115951 8.79317,-4.115951 l -5.85482,11.611295 -0.66146,-6.35"
         id="path9"
         sodipodi:nodetypes="csssccssccc" />
      <path
         style="fill:#333333;stroke:#000000;stroke-width:0.949203;stroke-linecap:round;stroke-linejoin:round;stroke-opacity:1;paint-order:fill markers stroke"
         d="m 184.94179,55.31691 -15.05453,-0.415085 c -15.19523,20.615865 -1.12557,42.200261 -1.12557,42.200261 l 1.17716,-0.02164 28.9319,0.261943 c 13.90252,-16.386218 -0.63843,-43.235958 -0.14069,-42.440566 l -13.64757,0.484266 c -4.3616,7.609882 -2.11045,14.458777 -2.11045,14.458777 4.50229,8.993498 12.80339,1.521976 12.80339,1.521976 l -6.59835,9.595659 -0.39688,-6.614583"
         id="path3"
         sodipodi:nodetypes="ccccccccccc" />
    </g>
    <g
       inkscape:groupmode="layer"
       id="layer3"
       inkscape:label="C">
      <path
         style="fill:#333333;fill-opacity:1;stroke:#000000;stroke-width:0.892913;stroke-linecap:round;stroke-linejoin:round;paint-order:fill markers stroke"
         d="M 17.839469,27.664967 C 36.34582,50.67608 52.456858,7.5993177 18.137254,8.2608718 10.359422,9.6297979 6.1514463,13.268918 3.9125394,17.202868 0.40119398,23.3726 1.7330876,30.26751 1.7330876,30.26751 c 0,0 3.4934257,16.353585 19.5791664,19.272087 21.554444,3.910711 20.0978,-11.248535 11.841447,-16.387123"
         id="path4"
         sodipodi:nodetypes="ccscsc" />
      <path
         style="fill:none;fill-opacity:1;stroke:#000000;stroke-width:0.932611;stroke-linecap:round;stroke-linejoin:round;paint-order:fill markers stroke"
         d="m 67.502462,25.552048 c 0,0 12.567708,16.194021 20.240625,0.142053 0,0 3.704167,-9.517537 -5.423958,-17.756601 L 59.168087,8.2216053 c 0,0 -15.213541,13.3529647 -3.439583,29.2628797 11.773958,15.909914 26.326041,14.063228 30.559375,9.943696 4.233333,-4.119531 2.513541,-11.932436 -2.645834,-15.341703"
         id="path5" />
      <path
         style="fill:none;fill-opacity:1;stroke:#000000;stroke-width:0.899999;stroke-linecap:round;stroke-linejoin:round;paint-order:fill markers stroke"
         d="m 123.86402,27.066411 c 0,0 11.22532,13.844561 18.33468,2.338607 7.10937,-11.505951 -3.92886,-21.7958277 -14.12519,-21.5151947 -10.19633,0.2806329 -21.83603,5.2030807 -21.42164,15.1541817 0.68645,16.484416 -5.28445,27.188566 6.92227,26.566591 h 31.89862 c 4.98812,-9.088562 0.91945,-18.743853 -8.69963,-15.808992"
         id="path6"
         sodipodi:nodetypes="csssccc" />
      <path
         style="fill:#333333;stroke:#000000;stroke-width:0.899999;stroke-linecap:round;stroke-linejoin:round;paint-order:fill markers stroke"
         d="m 181.13243,25.796875 c 0,0 12.03854,15.874999 20.10833,0.926041 0,0 4.36563,-10.054166 -5.15937,-18.2562493 L 173.32722,8.73125 c 0,0 -9.525,6.879167 -8.46666,18.785417 0,0 -0.39688,19.579166 8.33437,22.754166 l 23.68021,0.264584 c 0,0 12.30313,-8.069792 0.13229,-18.25625"
         id="path1" />
    </g>
  </g>
  <g
     inkscape:groupmode="layer"
     id="layer7"
     inkscape:label="Example 1">
    <path
       style="fill:#333333;fill-opacity:1;stroke:#000000;stroke-width:0.775512;stroke-linecap:round;stroke-linejoin:round;paint-order:fill markers stroke"
       d="m 68.321133,214.26859 c 1.041309,9.64723 8.765139,17.50466 16.845058,17.94211 10.403486,0.56324 15.619249,-11.06202 15.317949,-18.72221 -0.39964,-10.16034 -7.879079,-16.58337 -16.991663,-16.75869 -10.173948,0.18751 -16.084845,9.0756 -15.171344,17.53879 z"
       id="path2-6"
       sodipodi:nodetypes="sssss" />
    <path
       style="fill:#333333;fill-opacity:1;stroke:#000000;stroke-width:0.252955;stroke-linecap:round;stroke-linejoin:round;paint-order:fill markers stroke"
       d="m 78.799191,214.07862 c 0.33965,3.14672 2.859,5.70965 5.494496,5.85233 3.3934,0.18372 5.094666,-3.60819 4.996384,-6.10678 -0.130351,-3.31409 -2.569982,-5.40914 -5.542309,-5.46632 -3.318522,0.0612 -5.246537,2.96026 -4.948571,5.72077 z"
       id="path2-8-1"
       sodipodi:nodetypes="sssss" />
    <path
       style="fill:#333333;fill-opacity:1;stroke:#000000;stroke-width:0.754516;stroke-linecap:round;stroke-linejoin:round;paint-order:fill markers stroke"
       d="m 66.094151,212.90532 c 15.637964,19.44451 29.251879,-16.95558 0.251634,-16.39657 -6.572308,1.15675 -10.128074,4.23183 -12.019965,7.55604 -2.967101,5.21345 -1.841647,11.03969 -1.841647,11.03969 3.347768,23.20795 21.827164,22.11254 20.066934,3.22031"
       id="path4-7-8"
       sodipodi:nodetypes="ccscc" />
    <path
       style="fill:#333333;fill-opacity:1;stroke:#000000;stroke-width:0.744204;stroke-linecap:round;stroke-linejoin:round;paint-order:fill markers stroke"
       d="m 42.107854,212.95874 0.138083,7.21961 2.131906,-3.49857 c 3.034904,-1.0261 4.739694,-2.98568 6.323631,-5.03007 0,0 -6.007455,10.89983 -10.433999,-3.17912 -3.397445,-10.80582 8.237205,-15.86006 15.129373,-3.39558 14.437017,26.10931 -3.867463,28.73418 -15.593256,28.05786 -18.152066,-1.04697 -17.437014,-14.35653 -12.227911,-26.67636 1.783308,-5.98 7.142517,-11.89738 13.956522,-6.91772"
       id="path7-9"
       sodipodi:nodetypes="ccccssssc" />
    <path
       style="fill:#333333;fill-opacity:1;stroke:#000000;stroke-width:0.754516;stroke-linecap:round;stroke-linejoin:round;paint-order:fill markers stroke"
       d="m 16.718942,213.08401 c 15.637965,19.44451 29.25188,-16.95558 0.251626,-16.39657 -6.572308,1.15676 -10.1280651,4.23183 -12.019956,7.55604 -2.9671095,5.21346 -1.8416469,11.03969 -1.8416469,11.03969 0,0 2.9519585,13.81886 16.5444949,16.28502 18.213625,3.30457 16.982748,-9.50508 10.006088,-13.84721"
       id="path4-2"
       sodipodi:nodetypes="ccscsc" />
  </g>
  <g
     inkscape:groupmode="layer"
     id="layer8"
     inkscape:label="Example 2">
    <g
       id="g10"
       transform="matrix(0.87818752,0,0,0.87818752,1.7290429,17.19954)">
      <path
         style="fill:#333333;fill-opacity:1;stroke:#000000;stroke-width:0.895334;stroke-linecap:round;stroke-linejoin:round;paint-order:fill markers stroke"
         d="m 230.24983,226.99767 c 0.34863,8.82413 -5.6864,22.2158 -17.724,21.56697 -9.34907,-0.50392 -18.28611,-9.53672 -19.49098,-20.64981 l -0.40827,-21.25704 37.32419,-0.0931 z"
         id="path2-5-4"
         sodipodi:nodetypes="csc" />
      <path
         style="fill:#333333;fill-opacity:1;stroke:#000000;stroke-width:0.496934;stroke-linecap:round;stroke-linejoin:round;paint-order:fill markers stroke"
         d="m 222.34739,231.23009 c 0.1935,4.89762 -3.1561,12.33035 -9.83729,11.97023 -5.18897,-0.27968 -10.14926,-5.29313 -10.818,-11.46118 l -0.2266,-11.79822 20.7159,-0.0517 z"
         id="path2-5-1-3"
         sodipodi:nodetypes="csc" />
    </g>
    <path
       style="fill:#333333;fill-opacity:1;stroke:#000000;stroke-width:0.784145;stroke-linecap:round;stroke-linejoin:round;paint-order:fill markers stroke"
       d="m 173.09328,220.96414 c 1.82936,19.6341 -17.3757,20.77253 -20.85493,-3.34677 0,0 -0.9373,-13.25799 2.14632,-18.67617 l 29.75915,-0.32731 m -0.054,0.0536 c 8.20626,11.97641 -2.739,32.1276 -17.70709,16.66442 l 6.71051,5.63229"
       id="path4-7-7-1"
       sodipodi:nodetypes="cccccc" />
    <path
       style="fill:#333333;fill-opacity:1;stroke:#000000;stroke-width:0.80716;stroke-linecap:round;stroke-linejoin:round;paint-order:fill markers stroke"
       d="m 144.43962,199.20816 -9.99989,-0.19894 c -6.37461,5.09708 -18.27304,36.59127 10.31595,36.91219 23.1927,-0.004 23.34859,-14.93835 10.97486,-36.95295 l -11.26273,0.13946 c 0,0 -2.9351,5.55086 -1.94539,11.0119 0.61514,3.39417 4.34909,8.24423 10.77766,2.83011 l -7.80419,7.02492 0.1643,-5.09327"
       id="path8-2"
       sodipodi:nodetypes="ccsccsccc" />
    <path
       style="fill:#333333;fill-opacity:1;stroke:#000000;stroke-width:0.819007;stroke-linecap:round;stroke-linejoin:round;paint-order:fill markers stroke"
       d="m 121.096,214.41546 c 0,0 11.03681,14.22139 17.77507,0.12475 0,0 3.25295,-8.35819 -4.76326,-15.59363 l -20.33095,0.2495 c 0,0 -13.36034,11.72641 -3.0206,25.69829 10.33974,13.9719 23.11919,12.35016 26.83686,8.73244 3.71766,-3.61772 2.20736,-10.47892 -2.32353,-13.47289"
       id="path5-3" />
  </g>
  <g
     inkscape:groupmode="layer"
     id="layer9"
     inkscape:label="Example 3">
    <path
       style="fill:#333333;fill-opacity:1;stroke:#000000;stroke-width:0.69025;stroke-linecap:round;stroke-linejoin:round;paint-order:fill markers stroke"
       d="m 73.687741,258.70457 c -0.10303,-6.79249 4.81074,-16.97885 14.096388,-16.25607 7.211737,0.56134 13.944551,7.67398 14.665811,16.24267 l -0.0851,16.35486 -28.831036,-0.62233 z"
       id="path2-5-7-1"
       sodipodi:nodetypes="csc" />
    <path
       style="fill:#333333;fill-opacity:1;stroke:#000000;stroke-width:0.383107;stroke-linecap:round;stroke-linejoin:round;paint-order:fill markers stroke"
       d="m 79.871354,255.59664 c -0.05717,-3.77001 2.670079,-9.4237 7.823853,-9.02255 4.002703,0.31157 7.73959,4.25927 8.139913,9.01511 l -0.04729,9.07738 -16.001972,-0.34541 z"
       id="path2-5-1-6-3"
       sodipodi:nodetypes="csc" />
    <path
       style="fill:#333333;fill-opacity:1;stroke:#000000;stroke-width:0.695366;stroke-linecap:round;stroke-linejoin:round;paint-order:fill markers stroke"
       d="m 44.311825,244.62206 c -0.04064,-0.0338 2.384336,-1.8309 -2.764872,-2.15266 -5.656,-0.35343 -6.174026,3.10871 -10.16031,12.92111 -3.986292,9.81241 2.24867,19.11374 2.24867,19.11374 l 27.798496,0.15848 c 2.670117,-2.67012 1.502519,-12.28877 -0.493386,-19.07202 -2.47502,-8.41158 -6.706019,-14.84943 -14.582187,-12.14961 -4.956917,1.69915 -7.133315,11.25553 1.156403,14.74414 3.961298,1.66705 6.793868,-3.18011 6.793868,-3.18011 l -4.52361,8.97123 -0.511064,-4.9062"
       id="path9-7"
       sodipodi:nodetypes="csssccssccc" />
    <path
       style="fill:#333333;fill-opacity:1;stroke:#000000;stroke-width:0.695366;stroke-linecap:round;stroke-linejoin:round;paint-order:fill markers stroke"
       d="m 17.518683,256.75213 c 0,0 8.673019,10.69673 14.165925,1.80689 5.492913,-8.88985 -3.035556,-16.84012 -10.913547,-16.6233 -7.877991,0.21683 -16.8711725,4.02006 -16.5510023,11.70858 0.5303719,12.73636 -4.08292504,21.00671 5.348354,20.52615 H 34.214245 c 3.853972,-7.0221 0.710395,-14.48207 -6.721596,-12.2145"
       id="path6-4"
       sodipodi:nodetypes="csssccc" />
    <path
       style="fill:#333333;fill-opacity:1;stroke:#000000;stroke-width:0.689891;stroke-linecap:round;stroke-linejoin:round;paint-order:fill markers stroke"
       d="m 68.990285,257.47237 c 14.298574,17.77908 26.746449,-15.50332 0.230082,-14.99219 -6.009386,1.05768 -9.260597,3.86937 -10.990447,6.90886 -2.712967,4.76692 -1.683908,10.09413 -1.683908,10.09413 0.625583,4.33675 2.118134,12.66008 3.623388,15.19136 l 12.911406,-0.25963 m -0.02064,0.0599 c 0.902617,-2.10647 2.156409,-8.58719 1.834037,-12.04711 0,0 -4.600247,-1.92589 -5.903921,-4.95529"
       id="path4-7-9-8"
       sodipodi:nodetypes="ccscccccc" />
  </g>
  <g
     inkscape:groupmode="layer"
     id="layer10"
     inkscape:label="Example 4">
    <path
       id="rect10-2"
       style="fill:#333333;stroke:#000000;stroke-width:0.713276;stroke-linecap:round;stroke-linejoin:round;paint-order:fill markers stroke"
       d="m 174.47225,242.08657 h 27.84972 c 4.72634,12.10906 3.76882,23.82621 0,35.34951 h -27.84972 c -4.42335,-11.78317 -3.81918,-23.56634 0,-35.34951 z"
       sodipodi:nodetypes="ccccc" />
    <path
       id="rect10-3-8"
       style="fill:#333333;stroke:#000000;stroke-width:0.452453;stroke-linecap:round;stroke-linejoin:round;paint-order:fill markers stroke"
       d="m 179.51606,248.55096 h 17.66595 c 2.99806,7.68115 2.39068,15.11371 0,22.4233 h -17.66595 c -2.80586,-7.47443 -2.42261,-14.94887 0,-22.4233 z"
       sodipodi:nodetypes="ccccc" />
    <path
       style="fill:#333333;fill-opacity:1;stroke:#000000;stroke-width:0.749183;stroke-linecap:round;stroke-linejoin:round;stroke-opacity:1;paint-order:fill markers stroke"
       d="m 167.88283,257.54575 c 0,0 11.12243,11.34268 17.72981,0.9911 0,0 4.87769,-7.20915 -0.62846,-16.34937 l -28.22378,-0.059 c 0,0 -5.17578,15.30712 0.55062,35.45964 l 17.39944,-0.22025 -0.039,-15.18363"
       id="path10-0"
       sodipodi:nodetypes="ccccccc" />
    <path
       style="fill:#333333;stroke:#000000;stroke-width:0.790142;stroke-linecap:round;stroke-linejoin:round;stroke-opacity:1;paint-order:fill markers stroke"
       d="m 146.46907,242.49536 -12.53179,-0.34553 c -12.64891,17.16119 -0.93695,35.12862 -0.93695,35.12862 l 0.9799,-0.018 24.08368,0.21805 c 11.57283,-13.64032 -0.53145,-35.99076 -0.11711,-35.32865 l -11.36061,0.40312 c -3.6307,6.33466 -1.75679,12.03587 -1.75679,12.03587 3.74783,7.48641 10.65788,1.26693 10.65788,1.26693 l -5.49264,7.98768 -0.33037,-5.50616"
       id="path3-0"
       sodipodi:nodetypes="ccccccccccc" />
    <path
       style="fill:#333333;stroke:#000000;stroke-width:0.749183;stroke-linecap:round;stroke-linejoin:round;paint-order:fill markers stroke"
       d="m 122.70504,256.5753 c 0,0 10.0212,13.21476 16.7387,0.77086 0,0 3.63406,-8.36936 -4.29479,-15.19698 l -18.94117,0.22024 c 0,0 -7.92886,5.7264 -7.04787,15.63748 0,0 -0.33038,16.29821 6.93774,18.94116 l 19.71203,0.22026 c 0,0 10.24146,-6.71752 0.11012,-15.19699"
       id="path1-2" />
  </g>
</svg>
