<?xml version="1.0" encoding="UTF-8" standalone="no"?>
<!-- Created with Inkscape (http://www.inkscape.org/) -->

<svg
   width="210mm"
   height="297mm"
   viewBox="0 0 210 297"
   version="1.1"
   id="svg1"
   xml:space="preserve"
   inkscape:version="1.4 (86a8ad7, 2024-10-11)"
   sodipodi:docname="Noise5.svg"
   xmlns:inkscape="http://www.inkscape.org/namespaces/inkscape"
   xmlns:sodipodi="http://sodipodi.sourceforge.net/DTD/sodipodi-0.dtd"
   xmlns="http://www.w3.org/2000/svg"
   xmlns:svg="http://www.w3.org/2000/svg"><sodipodi:namedview
     id="namedview1"
     pagecolor="#ffffff"
     bordercolor="#000000"
     borderopacity="0.25"
     inkscape:showpageshadow="2"
     inkscape:pageopacity="0.0"
     inkscape:pagecheckerboard="0"
     inkscape:deskcolor="#d1d1d1"
     inkscape:document-units="mm"
     showguides="true"
     inkscape:lockguides="true"
     inkscape:zoom="0.49264169"
     inkscape:cx="481.07987"
     inkscape:cy="528.78188"
     inkscape:window-width="1147"
     inkscape:window-height="755"
     inkscape:window-x="578"
     inkscape:window-y="9"
     inkscape:window-maximized="0"
     inkscape:current-layer="layer5"><sodipodi:guide
       position="53.438516,286.52713"
       orientation="0,-1"
       id="guide83"
       inkscape:locked="true" /><sodipodi:guide
       position="62.568715,246.78391"
       orientation="0,-1"
       id="guide84"
       inkscape:locked="true" /></sodipodi:namedview><defs
     id="defs1" /><g
     inkscape:label="Layer 1"
     inkscape:groupmode="layer"
     id="layer1"
     style="opacity:0.403"
     sodipodi:insensitive="true"><path
       style="fill:none;fill-opacity:1;stroke:#000000;stroke-width:7.41743;stroke-linecap:square;stroke-dasharray:none;paint-order:markers stroke fill"
       d="m 20.621747,47.452774 -8.936254,-0.09998 c 3.359794,-10.981386 6.724031,-21.96238 -0.04748,-33.823004 l 27.723105,0.225215 c -7.44916,11.014163 -4.196969,22.287355 0.593387,33.597781 l -8.435323,-0.04713"
       id="path83"
       sodipodi:nodetypes="cccccc" /><path
       style="fill:none;fill-opacity:1;stroke:#000000;stroke-width:7.41743;stroke-linecap:square;stroke-dasharray:none;paint-order:markers stroke fill"
       d="M 45.022318,47.537135 C 47.703946,36.469529 50.610591,25.424163 44.927376,13.52979 l 28.387699,0.337821 c -5.796056,10.784135 -5.279003,22.036255 0.379769,33.669522 z"
       id="path84"
       sodipodi:nodetypes="ccccc" /><path
       style="fill:none;fill-opacity:1;stroke:#000000;stroke-width:7.41743;stroke-linecap:square;stroke-dasharray:none;paint-order:markers stroke fill"
       d="m 79.952848,24.119548 c 1.44891,-3.295805 1.875371,-6.655437 -0.06461,-10.162791 h 0.308561 l 27.580691,-10e-7 h 0.48624 c -3.05266,3.62295 -0.59098,7.245897 0.0669,10.868847 m -0.0139,13.00042 c -1.69068,3.379359 -1.31666,6.758718 0.0214,10.138078 h -0.0297 l -28.4322,10e-7 h -0.07121 c 2.692744,-6.527575 0.894667,-8.438949 -0.01252,-11.266078"
       id="path84-9"
       sodipodi:nodetypes="cccccccccccc" /><path
       style="fill:none;fill-opacity:1;stroke:#000000;stroke-width:7.41743;stroke-linecap:square;stroke-dasharray:none;paint-order:markers stroke fill"
       d="M 93.057143,14.419019 93.594216,47.86162"
       id="path85"
       sodipodi:nodetypes="cc" /><g
       id="g89"
       transform="matrix(1.0007592,0,0,0.88178493,7.4535285,4.3569316)"
       style="stroke-width:7.896;stroke-dasharray:none"><path
         style="fill:none;fill-opacity:1;stroke:#000000;stroke-width:7.896;stroke-linecap:square;stroke-dasharray:none;paint-order:markers stroke fill"
         d="m 72.444319,22.41206 c 1.44781,-3.737653 1.873948,-7.547688 -0.06456,-11.525249 h 0.308328 l 27.559763,-10e-7 h 0.48587 c -3.050344,4.108654 -0.59053,8.217306 0.0669,12.32596 m -0.0139,14.743301 c -1.689395,3.832407 -1.315663,7.664815 0.0214,11.497223 h -0.0297 l -28.41063,10e-7 h -0.07116 c 2.690701,-7.402684 0.893988,-9.570303 -0.01252,-12.776446"
         id="path89"
         sodipodi:nodetypes="cccccccccccc" /><path
         style="fill:none;fill-opacity:1;stroke:#000000;stroke-width:7.896;stroke-linecap:square;stroke-dasharray:none;paint-order:markers stroke fill"
         d="m 85.538672,11.411045 0.536666,37.926029"
         id="path90"
         sodipodi:nodetypes="cc" /></g><path
       style="fill:none;fill-opacity:1;stroke:#000000;stroke-width:7.41743;stroke-linecap:square;stroke-dasharray:none;paint-order:markers stroke fill"
       d="m 140.79193,23.512229 c -3.43535,-3.662762 -2.80831,-5.954843 0.19032,-9.617604 l -27.79357,0.159251 c 3.55774,5.679934 5.73698,9.771688 2.49331,15.451622 l 27.6589,1.534967 c -2.08704,5.714452 -5.63829,11.353014 -1.95604,17.36649 L 117.1565,47.81498 c 1.171,-3.923583 3.45609,-6.811365 -0.13427,-10.134734"
       id="path86"
       sodipodi:nodetypes="cccccccc" /><path
       style="fill:none;fill-opacity:1;stroke:#000000;stroke-width:7.35693;stroke-linecap:square;stroke-dasharray:none;paint-order:markers stroke fill"
       d="m 175.29853,26.034516 c -1.89039,-3.59387 -3.65239,-7.198806 -0.26931,-11.247144 l -28.54743,-0.31242 c 4.43202,10.898289 4.77332,22.067762 -0.13465,33.585218 l 29.08606,0.31242 c -2.45658,-3.749047 -1.97682,-7.498094 -0.13467,-11.247141"
       id="path87"
       sodipodi:nodetypes="cccccc" /><path
       style="fill:none;fill-opacity:1;stroke:#000000;stroke-width:7.35693;stroke-linecap:square;stroke-dasharray:none;paint-order:markers stroke fill"
       d="m 149.90507,31.099052 14.66347,0.44183"
       id="path88" /><g
       id="g88"
       transform="matrix(1.0029051,0,0,1.163425,22.702972,1.6164479)"
       style="stroke-width:6.81079;stroke-dasharray:none"><path
         style="fill:none;fill-opacity:1;stroke:#000000;stroke-width:6.81079;stroke-linecap:square;stroke-dasharray:none;paint-order:markers stroke fill"
         d="m 152.15355,20.988089 c -1.88492,-3.089043 -3.64181,-6.187598 -0.26853,-9.66727 l -28.46474,-0.268535 c 4.41918,9.367419 4.75949,18.967928 -0.13427,28.867541 l 29.00181,0.268534 c -2.44946,-3.222423 -1.97109,-6.444845 -0.13427,-9.667268"
         id="path91"
         sodipodi:nodetypes="cccccc" /><path
         style="fill:none;fill-opacity:1;stroke:#000000;stroke-width:6.81079;stroke-linecap:square;stroke-dasharray:none;paint-order:markers stroke fill"
         d="m 126.83364,25.341216 14.621,0.379766"
         id="path92" /></g></g><g
     inkscape:groupmode="layer"
     id="layer5"
     inkscape:label="Layer 2"
     style="fill:#800000"><path
       style="fill:none;fill-opacity:1;stroke:#000000;stroke-width:1.49927;stroke-linecap:square;stroke-dasharray:none;paint-order:markers stroke fill"
       d="m 180.1697,27.156963 -5.98586,4.604492 5.79583,3.934748 c -7.22104,5.609108 1.59248,15.132393 1.59248,15.132393 L 6.9598414,50.430574 c 0,0 11.2116086,-24.278227 -1.7102454,-40.017217 l 177.105414,0.502308 -5.86456,8.240663 c 0,0 0.23692,2.977802 3.67925,8.000635 z"
       id="path93"
       sodipodi:nodetypes="ccccccccc" /><path
       style="fill:none;fill-opacity:1;stroke:#000000;stroke-width:1.49927;stroke-linecap:square;stroke-dasharray:none;paint-order:markers stroke fill"
       d="M 34.461811,43.782525 C 27.340225,27.562385 33.655594,17.262005 33.655594,17.262005 L 17.396877,16.906819 c 4.702935,12.549889 -0.53748,26.994102 -0.53748,26.994102 l 7.860621,0.0592 -0.268739,6.630131 3.157685,0.0592 0.06718,-6.926117 z"
       id="path94" /><path
       style="fill:none;fill-opacity:1;stroke:#000000;stroke-width:1.49927;stroke-linecap:square;stroke-dasharray:none;paint-order:markers stroke fill"
       d="M 42.120877,42.598573 C 35.26803,24.720902 41.924858,16.608492 41.924858,16.608492 c 0,0 5.302063,9.296363 0.196019,25.990081 z"
       id="path95" /><path
       style="fill:none;fill-opacity:1;stroke:#000000;stroke-width:1.49927;stroke-linecap:square;stroke-dasharray:none;paint-order:markers stroke fill"
       d="m 50.45179,17.025215 c 0,0 3.444785,12.643289 -0.355759,27.042789 l 18.052591,10e-7 c 0,0 -5.700818,-17.245914 -0.570082,-26.78977 z"
       id="path96" /><path
       style="fill:none;fill-opacity:1;stroke:#000000;stroke-width:1.49927;stroke-linecap:square;stroke-dasharray:none;paint-order:markers stroke fill"
       d="m 76.653856,45.203266 c -8.330912,-15.983348 0.134371,-29.362003 0.134371,-29.362003 1.343694,7.814082 -1.881175,10.06359 -1.881175,10.06359 l 7.390327,2.604694 c 0,0 2.687392,-5.564573 2.821761,-11.247542 l 3.762348,0.118396 0.671848,27.112495 -4.434196,0.118395 c 0,0 1.209326,-4.735807 -2.821761,-12.076308 L 75.041422,34.5477 c 0,0 3.493608,7.577291 1.612434,10.655566 z"
       id="path97" /><path
       style="fill:none;fill-opacity:1;stroke:#000000;stroke-width:1.49927;stroke-linecap:square;stroke-dasharray:none;paint-order:markers stroke fill"
       d="m 97.346768,44.611292 -0.268737,-27.467681 5.777889,0.23679 2.14992,11.602726 7.39032,-1.065555 -2.82176,4.735807 5.84508,0.917562 -2.08273,2.397502 -7.12158,-2.604696 c 0,0 -3.35925,5.327783 -2.82178,11.247545 z"
       id="path98"
       sodipodi:nodetypes="ccccccccccc" /><path
       style="fill:none;fill-opacity:1;stroke:#000000;stroke-width:1.49927;stroke-linecap:square;stroke-dasharray:none;paint-order:markers stroke fill"
       d="m 112.79926,25.25368 c -1.31867,-3.11774 -2.35407,-5.584307 -2.41864,-8.702046 0.21238,1.714347 5.42244,4.088935 2.41864,8.702046 z"
       id="path99"
       sodipodi:nodetypes="ccc" /><path
       style="fill:none;fill-opacity:1;stroke:#000000;stroke-width:1.45417;stroke-linecap:square;stroke-dasharray:none;paint-order:markers stroke fill"
       d="m 112.72716,47.389306 2.33172,-5.758237 c 0,0 -0.54899,-1.690197 -2.67635,-3.325872 0,0 -3.49831,2.868545 0.34463,9.084109 z"
       id="path100"
       sodipodi:nodetypes="cccc" /><path
       style="fill:none;fill-opacity:1;stroke:#000000;stroke-width:1.49927;stroke-linecap:square;stroke-dasharray:none;paint-order:markers stroke fill"
       d="m 138.19512,34.192516 c -2.55302,2.723088 -2.14991,10.655564 -2.14991,10.655564 L 122.20513,44.729685 C 124.48942,37.74437 119.3162,33.718934 119.3162,33.718934 Z"
       id="path101"
       sodipodi:nodetypes="ccccc" /><path
       style="fill:none;fill-opacity:1;stroke:#000000;stroke-width:1.49927;stroke-linecap:square;stroke-dasharray:none;paint-order:markers stroke fill"
       d="m 119.45598,17.361954 c 0,0 2.66039,4.604491 1.52023,9.041546 l 18.14759,1.004617 c 0,0 -5.6058,-5.441672 -4.37063,-10.046163 z"
       id="path102" /><path
       style="fill:none;fill-opacity:1;stroke:#000000;stroke-width:1.49927;stroke-linecap:square;stroke-dasharray:none;paint-order:markers stroke fill"
       d="m 146.34484,34.189279 c -2.85041,3.767311 -2.37534,10.381034 -2.37534,10.381034 0,0 3.23046,-0.920897 2.37534,-10.381034 z"
       id="path103" /><path
       style="fill:none;fill-opacity:1;stroke:#000000;stroke-width:1.35714;stroke-linecap:square;stroke-dasharray:none;paint-order:markers stroke fill"
       d="m 142.83699,27.185213 2.62913,-2.219789 0.96034,2.956661 z"
       id="path104"
       sodipodi:nodetypes="cccc" /><path
       style="fill:none;fill-opacity:1;stroke:#000000;stroke-width:1.23019;stroke-linecap:square;stroke-dasharray:none;paint-order:markers stroke fill"
       d="m 144.89242,22.05398 c -4.32776,-3.675259 -1.73112,-5.240648 -1.73112,-5.240648 1.15595,1.579974 1.50753,3.391856 1.73112,5.240648 z"
       id="path105"
       sodipodi:nodetypes="ccc" /><path
       style="fill:none;fill-opacity:1;stroke:#000000;stroke-width:1.49927;stroke-linecap:square;stroke-dasharray:none;paint-order:markers stroke fill"
       d="m 174.18384,32.012609 c -3.5155,4.185902 -3.89557,12.390269 -3.89557,12.390269 h -18.90771 c 1.23518,-2.009233 1.61524,-9.292703 1.61524,-9.292703 l 14.6321,0.586027 0.38006,-7.702059 -15.01216,-0.753461 -1.4252,-8.95783 18.33762,0.41859 c 0,0 -0.85511,4.102185 4.27562,13.311167 z"
       id="path106" /><path
       style="fill:none;fill-opacity:1;stroke:#000000;stroke-width:1.49927;stroke-linecap:square;stroke-dasharray:none;paint-order:markers stroke fill"
       d="m 182.47979,123.45899 -5.98586,4.60449 5.79583,3.93474 c -7.22104,5.60911 1.59248,15.1324 1.59248,15.1324 L 30.546657,146.7811 26.417613,146.7711 9.2699368,146.732 c 0,0 11.2116092,-24.27823 -1.710245,-40.01722 l 177.1054082,0.50231 -5.86456,8.24066 c 0,0 0.23692,2.9778 3.67925,8.00064 z"
       id="path93-5"
       sodipodi:nodetypes="cccccccccccc" /><path
       style="fill:none;fill-opacity:1;stroke:#000000;stroke-width:1.49927;stroke-linecap:square;stroke-dasharray:none;paint-order:markers stroke fill"
       d="m 26.493044,139.32227 -0.126327,6.72507 3.015273,-0.0357 0.06718,-6.92611 m 0,0 6.785667,0.0592 C 29.113251,122.92453 35.42862,112.62415 35.42862,112.62415 l -16.258717,-0.35518 c 4.702935,12.54989 -0.53748,26.9941 -0.53748,26.9941 l 7.860621,0.0592"
       id="path94-4"
       sodipodi:nodetypes="cccccccccc" /><path
       style="fill:none;fill-opacity:1;stroke:#000000;stroke-width:1.49927;stroke-linecap:square;stroke-dasharray:none;paint-order:markers stroke fill"
       d="m 44.430973,138.90059 c -6.852847,-17.87767 -0.196019,-25.99008 -0.196019,-25.99008 0,0 5.302063,9.29637 0.196019,25.99008 z"
       id="path95-3" /><path
       style="fill:none;fill-opacity:1;stroke:#000000;stroke-width:1.49927;stroke-linecap:square;stroke-dasharray:none;paint-order:markers stroke fill"
       d="m 52.761886,113.32724 c 0,0 3.444785,12.64328 -0.355759,27.04279 h 18.052591 c 0,0 -5.700818,-17.24592 -0.570082,-26.78977 z"
       id="path96-1" /><path
       style="fill:none;fill-opacity:1;stroke:#000000;stroke-width:1.49927;stroke-linecap:square;stroke-dasharray:none;paint-order:markers stroke fill"
       d="m 78.963955,141.50529 c -8.330915,-15.98335 0.13437,-29.362 0.13437,-29.362 1.34369,7.81408 -1.88118,10.06359 -1.88118,10.06359 l 7.39033,2.60469 c 0,0 2.68739,-5.56457 2.82176,-11.24754 l 3.76235,0.11839 0.67185,27.1125 -4.4342,0.11839 c 0,0 1.20933,-4.73581 -2.82176,-12.07631 l -7.25596,2.01272 c 0,0 3.49361,7.57729 1.61244,10.65557 z"
       id="path97-2" /><path
       style="fill:none;fill-opacity:1;stroke:#000000;stroke-width:1.49927;stroke-linecap:square;stroke-dasharray:none;paint-order:markers stroke fill"
       d="m 99.656865,140.91331 -0.26874,-27.46768 5.777885,0.23679 2.14992,11.60273 7.39032,-1.06556 -2.82176,4.73581 5.84508,0.91756 -2.08273,2.3975 -7.12158,-2.60469 c 0,0 -3.35925,5.32778 -2.82178,11.24754 z"
       id="path98-3"
       sodipodi:nodetypes="ccccccccccc" /><path
       style="fill:none;fill-opacity:1;stroke:#000000;stroke-width:1.28045;stroke-linecap:square;stroke-dasharray:none;paint-order:markers stroke fill"
       d="m 115.16226,118.88759 c -1.41243,-2.12312 -2.52145,-3.8028 -2.59061,-5.92591 0.22748,1.16743 5.80798,2.78448 2.59061,5.92591 z"
       id="path99-3"
       sodipodi:nodetypes="ccc" /><path
       style="fill:none;fill-opacity:1;stroke:#000000;stroke-width:1.18732;stroke-linecap:square;stroke-dasharray:none;paint-order:markers stroke fill"
       d="m 115.01017,141.23533 2.54601,-3.51569 c 0,0 -0.59943,-1.03195 -2.92231,-2.03061 0,0 -3.81982,1.75139 0.3763,5.5463 z"
       id="path100-4"
       sodipodi:nodetypes="cccc" /><path
       style="fill:none;fill-opacity:1;stroke:#000000;stroke-width:1.49927;stroke-linecap:square;stroke-dasharray:none;paint-order:markers stroke fill"
       d="m 140.50521,130.49454 c -2.55302,2.72309 -2.14991,10.65556 -2.14991,10.65556 l -13.84008,-0.11839 c 2.28429,-6.98532 -2.88893,-11.01076 -2.88893,-11.01076 z"
       id="path101-1"
       sodipodi:nodetypes="ccccc" /><path
       style="fill:none;fill-opacity:1;stroke:#000000;stroke-width:1.49927;stroke-linecap:square;stroke-dasharray:none;paint-order:markers stroke fill"
       d="m 121.76607,113.66398 c 0,0 2.66039,4.60449 1.52023,9.04154 l 18.14759,1.00462 c 0,0 -5.6058,-5.44167 -4.37063,-10.04616 z"
       id="path102-1" /><path
       style="fill:none;fill-opacity:1;stroke:#000000;stroke-width:1.49927;stroke-linecap:square;stroke-dasharray:none;paint-order:markers stroke fill"
       d="m 148.65493,130.4913 c -2.85041,3.76731 -2.37534,10.38103 -2.37534,10.38103 0,0 3.23046,-0.92089 2.37534,-10.38103 z"
       id="path103-3" /><path
       style="fill:none;fill-opacity:1;stroke:#000000;stroke-width:1.35714;stroke-linecap:square;stroke-dasharray:none;paint-order:markers stroke fill"
       d="m 146.01982,124.22571 1.89066,-2.42119 1.63168,2.82239 z"
       id="path104-8"
       sodipodi:nodetypes="cccc" /><path
       style="fill:none;fill-opacity:1;stroke:#000000;stroke-width:1.23019;stroke-linecap:square;stroke-dasharray:none;paint-order:markers stroke fill"
       d="m 147.20251,118.356 c -4.32776,-3.67526 -1.73112,-5.24065 -1.73112,-5.24065 1.15595,1.57998 1.50753,3.39186 1.73112,5.24065 z"
       id="path105-7"
       sodipodi:nodetypes="ccc" /><path
       style="fill:none;fill-opacity:1;stroke:#000000;stroke-width:1.49927;stroke-linecap:square;stroke-dasharray:none;paint-order:markers stroke fill"
       d="m 176.49393,128.31463 c -3.5155,4.1859 -3.89557,12.39027 -3.89557,12.39027 h -18.90771 c 1.23518,-2.00923 1.61524,-9.2927 1.61524,-9.2927 l 14.6321,0.58602 0.38006,-7.70205 -15.01216,-0.75347 -1.4252,-8.95783 18.33762,0.41859 c 0,0 -0.85511,4.10219 4.27562,13.31117 z"
       id="path106-4" /><path
       d=""
       style="fill:#ffffff;stroke-linecap:square;paint-order:markers stroke fill"
       id="path169" /><path
       style="fill:#ffffff;fill-opacity:1;stroke:#000000;stroke-width:2.01689;stroke-linecap:square;stroke-dasharray:none;paint-order:markers stroke fill"
       d="m 184.55663,148.64334 2.94263,4.73536 -182.6723782,-0.42759 4.4482035,-5.24423 z"
       id="path232"
       sodipodi:nodetypes="ccccc" /><path
       style="fill:#ffffff;fill-opacity:1;stroke:#000000;stroke-width:1.98929;stroke-linecap:square;stroke-dasharray:none;paint-order:markers stroke fill"
       d="m 181.52981,100.75504 2.8399,4.77329 -176.2953203,-0.43102 4.2929173,-5.286236 z"
       id="path232-0"
       sodipodi:nodetypes="ccccc" /></g></svg>
