<?xml version="1.0" encoding="UTF-8" standalone="no"?>
<!-- Created with Inkscape (http://www.inkscape.org/) -->

<svg
   width="210mm"
   height="297mm"
   viewBox="0 0 210 297"
   version="1.1"
   id="svg1"
   inkscape:version="1.4 (86a8ad7, 2024-10-11)"
   sodipodi:docname="Noise4.svg"
   xmlns:inkscape="http://www.inkscape.org/namespaces/inkscape"
   xmlns:sodipodi="http://sodipodi.sourceforge.net/DTD/sodipodi-0.dtd"
   xmlns="http://www.w3.org/2000/svg"
   xmlns:svg="http://www.w3.org/2000/svg">
  <sodipodi:namedview
     id="namedview1"
     pagecolor="#ffffff"
     bordercolor="#000000"
     borderopacity="0.25"
     inkscape:showpageshadow="2"
     inkscape:pageopacity="0.0"
     inkscape:pagecheckerboard="0"
     inkscape:deskcolor="#d1d1d1"
     inkscape:document-units="mm"
     showguides="true"
     inkscape:lockguides="false"
     inkscape:zoom="0.24632085"
     inkscape:cx="582.5735"
     inkscape:cy="935.77138"
     inkscape:window-width="1248"
     inkscape:window-height="755"
     inkscape:window-x="260"
     inkscape:window-y="173"
     inkscape:window-maximized="0"
     inkscape:current-layer="layer7">
    <sodipodi:guide
       position="30.00153,272.3152"
       orientation="0,-1"
       id="guide1"
       inkscape:locked="false" />
    <sodipodi:guide
       position="75.573474,197.12149"
       orientation="0,-1"
       id="guide2"
       inkscape:locked="false" />
    <sodipodi:guide
       position="39.206147,187.97469"
       orientation="0,-1"
       id="guide16"
       inkscape:locked="false" />
    <sodipodi:guide
       position="36.520795,120.3038"
       orientation="0,-1"
       id="guide17"
       inkscape:locked="false" />
    <sodipodi:guide
       position="36.457556,-77.829249"
       orientation="0,-1"
       id="guide80"
       inkscape:locked="false" />
    <sodipodi:guide
       position="63.041189,-14.028526"
       orientation="0,-1"
       id="guide81"
       inkscape:locked="false" />
  </sodipodi:namedview>
  <defs
     id="defs1" />
  <g
     inkscape:label="main1"
     inkscape:groupmode="layer"
     id="layer1"
     style="display:inline">
    <path
       style="fill:none;stroke:#000000;stroke-width:9.46113;stroke-linecap:square;stroke-dasharray:none;paint-order:markers stroke fill"
       d="m 7.818367,75.000056 9.579239,0.09494 L 10.706103,8.3540268 38.787945,8.6420718 30.240764,75.21511 41.06411,75.16891"
       id="path2"
       sodipodi:nodetypes="cccccc" />
    <path
       style="fill:none;stroke:#000000;stroke-width:11.9457;stroke-linecap:square;stroke-dasharray:none;paint-order:markers stroke fill"
       d="M 41.305896,9.7538298 51.029068,73.885038 H 65.048525 L 73.641097,9.2785948 Z"
       id="path3"
       sodipodi:nodetypes="ccccc" />
    <g
       id="g5"
       transform="translate(17.469246,-20.887141)">
      <g
         id="g6"
         transform="translate(-6.9819168)">
        <path
           style="fill:none;stroke:#000000;stroke-width:12.224;stroke-linecap:square;stroke-dasharray:none;paint-order:markers stroke fill"
           d="M 74.312256,30.799089 106.55261,30.530554"
           id="path4"
           sodipodi:nodetypes="cc" />
        <path
           style="fill:none;stroke:#000000;stroke-width:11.4849;stroke-linecap:square;stroke-dasharray:none;paint-order:markers stroke fill"
           d="M 75.312403,94.702437 H 105.431"
           id="path4-8" />
        <path
           style="fill:none;stroke:#000000;stroke-width:12.6651;stroke-linecap:square;stroke-dasharray:none;paint-order:markers stroke fill"
           d="M 90.13191,35.278676 91.2387,92.030067"
           id="path5" />
        <path
           style="fill:none;stroke:#000000;stroke-width:12.6651;stroke-linecap:square;stroke-dasharray:none;paint-order:markers stroke fill"
           d="m 73.081425,30.87901 -0.04718,21.701804"
           id="path6"
           sodipodi:nodetypes="cc" />
        <path
           style="fill:none;stroke:#000000;stroke-width:12.6651;stroke-linecap:square;stroke-dasharray:none;paint-order:markers stroke fill"
           d="m 106.40412,31.427774 0.75843,21.567536"
           id="path6-5"
           sodipodi:nodetypes="cc" />
        <path
           style="fill:none;stroke:#000000;stroke-width:12.6651;stroke-linecap:square;stroke-dasharray:none;paint-order:markers stroke fill"
           d="m 105.53891,71.423001 0.22136,22.373142"
           id="path6-1" />
        <path
           style="fill:none;stroke:#000000;stroke-width:12.6651;stroke-linecap:square;stroke-dasharray:none;paint-order:markers stroke fill"
           d="m 75.912072,72.094339 0.221361,22.373142"
           id="path6-7" />
        <g
           id="g9"
           transform="translate(-13.671584,0.75953242)">
          <path
             style="fill:none;stroke:#000000;stroke-width:13.4625;stroke-linecap:square;stroke-dasharray:none;paint-order:markers stroke fill"
             d="m 198.96964,30.813479 -34.89356,-0.355938 8.81925,62.644962 h 31.44254"
             id="path8" />
          <path
             style="fill:none;stroke:#000000;stroke-width:13.6025;stroke-linecap:square;stroke-dasharray:none;paint-order:markers stroke fill"
             d="m 169.0226,61.641618 21.16756,-0.618752"
             id="path9" />
        </g>
        <g
           id="g10"
           transform="translate(10.253688,-82.409268)">
          <path
             style="fill:none;stroke:#000000;stroke-width:11.8396;stroke-linecap:square;stroke-dasharray:none;paint-order:markers stroke fill"
             d="m 134.80705,113.03195 -29.7856,-0.0738 1.18629,24.14942 26.3488,-0.82929 -4.62309,40.39812 -23.60688,0.54414"
             id="path7"
             sodipodi:nodetypes="cccccc" />
          <path
             style="fill:none;stroke:#000000;stroke-width:11.3314;stroke-linecap:square;stroke-dasharray:none;paint-order:markers stroke fill"
             d="m 136.4857,112.51164 v 9.36193"
             id="path10" />
          <path
             style="fill:none;stroke:#000000;stroke-width:11.3314;stroke-linecap:square;stroke-dasharray:none;paint-order:markers stroke fill"
             d="m 104.1308,167.84275 v 9.36193"
             id="path10-2" />
        </g>
      </g>
    </g>
  </g>
  <g
     inkscape:groupmode="layer"
     id="layer2"
     inkscape:label="Outline1"
     style="display:inline;fill:none;fill-opacity:1;stroke:#ff0000;stroke-opacity:1">
    <path
       style="fill:none;fill-opacity:1;stroke:#ff0000;stroke-width:1.039;stroke-linecap:square;stroke-dasharray:none;stroke-opacity:1;paint-order:markers stroke fill"
       d="M 11.966927,70.727479 5.7234822,3.3922628 203.36544,4.1978688 202.6941,17.490365 h -34.23825 l 2.55109,17.051989 22.55696,-0.671338 0.53707,13.56103 -21.48282,0.537071 2.81962,18.528933 31.68716,-0.537071 0.26853,13.963836 -44.30831,-0.805608 -4.5651,-39.474683 -4.5651,40.280291 -73.914334,-0.469937 0.09005,-34.832348 12.532285,0.189883 0.189883,23.165739 2.892343,0.189883 -1.46822,-52.502678 H 89.529879 L 90.004587,37.596855 77.472302,37.786738 77.092536,28.1027 70.446627,79.371138 24.727119,79.322588 33.38261,13.059535 15.927818,13.32807 22.546257,79.178773 3.5751952,79.070343 3.642329,70.727483 Z"
       id="path11"
       sodipodi:nodetypes="ccccccccccccccccccccccccccccccccc" />
    <path
       style="fill:none;fill-opacity:1;stroke:#ff0000;stroke-width:1.039;stroke-linecap:square;stroke-dasharray:none;stroke-opacity:1;paint-order:markers stroke fill"
       d="m 35.027672,70.702659 4.468014,-32.156389 4.83626,32.346273 z"
       id="path12"
       sodipodi:nodetypes="cccc" />
    <path
       style="fill:none;fill-opacity:1;stroke:#ff0000;stroke-width:1.039;stroke-linecap:square;stroke-dasharray:none;stroke-opacity:1;paint-order:markers stroke fill"
       d="m 48.040426,15.570414 8.354856,52.787502 h 3.228012 l 7.405441,-52.977385 z"
       id="path13" />
    <path
       style="fill:none;fill-opacity:1;stroke:#ff0000;stroke-width:1.039;stroke-linecap:square;stroke-dasharray:none;stroke-opacity:1;paint-order:markers stroke fill"
       d="m 106.7143,15.475474 1.32919,52.977384 2.27859,0.284825 -0.75953,-25.064569 12.72217,0.189884 0.18988,15.190647 7.59533,-0.189884 0.56964,9.304274 13.29182,-0.379767 2.65837,-29.241998 -25.44434,1.139298 0.37977,-1.519065 -10.25369,0.379767 -0.18988,-23.26068 z"
       id="path14"
       sodipodi:nodetypes="ccccccccccccccc" />
    <path
       style="fill:none;fill-opacity:1;stroke:#ff0000;stroke-width:1.039;stroke-linecap:square;stroke-dasharray:none;stroke-opacity:1;paint-order:markers stroke fill"
       d="m 132.60639,27.828973 -0.67134,-13.023961 19.87161,0.805606 -0.4028,8.458861 4.69937,-0.134268 0.26853,2.953887 z"
       id="path15" />
    <path
       style="fill:none;fill-opacity:1;stroke:#ff0000;stroke-width:1.039;stroke-linecap:square;stroke-dasharray:none;stroke-opacity:1;paint-order:markers stroke fill"
       d="m 121.42827,24.425261 0.22017,12.88781"
       id="path16-1" />
    <path
       style="fill:none;fill-opacity:1;stroke:#ff0000;stroke-width:0.964536;stroke-linecap:square;stroke-dasharray:none;stroke-opacity:1;paint-order:markers stroke fill"
       d="m 122.33814,58.80123 0.29588,8.264169"
       id="path16-7" />
  </g>
  <g
     inkscape:groupmode="layer"
     id="layer4"
     inkscape:label="main2"
     style="display:inline">
    <path
       style="fill:none;fill-opacity:1;stroke:#941414;stroke-width:7.908;stroke-linecap:square;stroke-dasharray:none;stroke-opacity:1;paint-order:markers stroke fill"
       d="m 19.535401,142.40342 c -1.660303,3.51221 -5.468886,7.96017 -9.143202,4.9679 -4.4226162,-20.36358 -5.0969252,-38.71317 -0.03532,-59.076767 9.931713,-4.95882 19.826176,-3.05861 29.733657,1.37279 4.301026,20.068227 3.606318,38.525247 -0.222784,58.593487 -3.676426,1.14496 -4.979109,-3.25059 -8.439831,-7.30634"
       id="path30"
       sodipodi:nodetypes="cccccc" />
    <path
       style="fill:none;fill-opacity:1;stroke:#941414;stroke-width:7.61751;stroke-linecap:square;stroke-dasharray:none;stroke-opacity:1;paint-order:markers stroke fill"
       d="m 51.280976,91.135033 c -5.707105,18.903737 -3.090997,36.247997 0,55.151737 10.066792,3.01488 20.133595,3.46592 30.200401,0.18456 3.526466,-18.6937 5.661626,-36.71904 -0.269394,-55.412737 -10.158258,-3.30238 -20.222141,-4.87191 -29.931007,0.0766 z"
       id="path31"
       sodipodi:nodetypes="ccccc" />
    <g
       id="g35"
       transform="matrix(0.63261085,0,0,0.82962187,11.905492,0.08201672)"
       style="stroke:#941414;stroke-width:10.5149;stroke-dasharray:none;stroke-opacity:1">
      <path
         style="fill:none;fill-opacity:1;stroke:#941414;stroke-width:10.5149;stroke-linecap:square;stroke-dasharray:none;stroke-opacity:1;paint-order:markers stroke fill"
         d="m 125.26041,108.8356 c 15.54204,-3.3066 31.63755,-3.84584 48.61007,0"
         id="path32"
         sodipodi:nodetypes="cc" />
      <path
         style="fill:none;fill-opacity:1;stroke:#941414;stroke-width:10.5149;stroke-linecap:square;stroke-dasharray:none;stroke-opacity:1;paint-order:markers stroke fill"
         d="m 125.48287,175.51715 c 15.56191,2.7179 31.28691,4.29416 47.85054,0"
         id="path33"
         sodipodi:nodetypes="cc" />
      <path
         style="fill:none;fill-opacity:1;stroke:#941414;stroke-width:10.5149;stroke-linecap:square;stroke-dasharray:none;stroke-opacity:1;paint-order:markers stroke fill"
         d="m 150.00765,106.7143 -0.18988,71.01629"
         id="path34"
         sodipodi:nodetypes="cc" />
      <path
         style="fill:none;fill-opacity:1;stroke:#941414;stroke-width:10.5149;stroke-linecap:square;stroke-dasharray:none;stroke-opacity:1;paint-order:markers stroke fill"
         d="m 124.68607,108.88167 c -3.79141,7.9118 -1.99519,15.82359 0.56965,23.73539"
         id="path35"
         sodipodi:nodetypes="cc" />
      <path
         style="fill:none;fill-opacity:1;stroke:#941414;stroke-width:10.5149;stroke-linecap:square;stroke-dasharray:none;stroke-opacity:1;paint-order:markers stroke fill"
         d="m 173.86881,108.84541 c 4.79034,8.42296 1.87455,15.98968 0.56965,23.73539"
         id="path35-5"
         sodipodi:nodetypes="cc" />
      <path
         style="fill:none;fill-opacity:1;stroke:#941414;stroke-width:10.5149;stroke-linecap:square;stroke-dasharray:none;stroke-opacity:1;paint-order:markers stroke fill"
         d="m 173.48904,151.759 c 3.32908,7.9118 2.95773,15.82359 0.56965,23.73539"
         id="path35-2"
         sodipodi:nodetypes="cc" />
      <path
         style="fill:none;fill-opacity:1;stroke:#941414;stroke-width:10.5149;stroke-linecap:square;stroke-dasharray:none;stroke-opacity:1;paint-order:markers stroke fill"
         d="m 124.87897,151.759 c -1.25835,7.9118 -2.37868,15.82359 0.56965,23.73539"
         id="path35-1"
         sodipodi:nodetypes="cc" />
    </g>
    <path
       style="fill:none;fill-opacity:1;stroke:#941414;stroke-width:7.61751;stroke-linecap:square;stroke-dasharray:none;stroke-opacity:1;paint-order:markers stroke fill"
       d="m 159.42264,108.46345 c 1.24013,-5.77614 2.53224,-11.552287 0.24024,-17.328427 -9.53805,-4.12237 -18.78235,-3.62186 -27.86834,-0.63013 -2.40084,9.45189 -2.98761,18.903747 0.4805,28.355637 l 27.1476,-0.31507 0.24024,28.35562 c -15.4531,5.99517 -20.19719,1.06719 -28.10858,-0.63015 -3.44851,-6.76222 -2.14482,-13.04504 0.24024,-19.2188"
       id="path36"
       sodipodi:nodetypes="cccccccc" />
    <g
       id="g38"
       transform="matrix(0.43750577,0,0,0.59204783,-11.447563,25.019942)"
       style="stroke:#941414;stroke-width:14.9673;stroke-dasharray:none;stroke-opacity:1">
      <g
         id="g39"
         transform="translate(68.791704)"
         style="stroke:#941414;stroke-width:14.9673;stroke-dasharray:none;stroke-opacity:1">
        <path
           style="fill:none;fill-opacity:1;stroke:#941414;stroke-width:14.9673;stroke-linecap:square;stroke-dasharray:none;stroke-opacity:1;paint-order:markers stroke fill"
           d="m 408.95675,171.27345 c 6.64764,10.99227 6.98992,22.5956 3.29474,34.59019 -25.58684,8.42825 -49.49744,5.48523 -73.03327,0 -7.0818,-31.21987 -5.31998,-62.43973 -1.09824,-93.65961 23.22174,-4.89611 46.59205,-8.06473 70.83679,-1.06431 9.64909,11.17529 4.26978,22.35059 2.19648,33.52588"
           id="path37"
           sodipodi:nodetypes="cccccc" />
        <path
           style="fill:none;fill-opacity:1;stroke:#941414;stroke-width:14.9673;stroke-linecap:square;stroke-dasharray:none;stroke-opacity:1;paint-order:markers stroke fill"
           d="m 334.31947,153.32981 h 30.68996"
           id="path38" />
      </g>
    </g>
  </g>
  <g
     inkscape:groupmode="layer"
     id="layer5"
     inkscape:label="Main3"
     style="display:inline"
     transform="translate(-3.7594936,-37.594936)">
    <path
       style="fill:none;fill-opacity:1;stroke:#000000;stroke-width:6.99135;stroke-linecap:square;stroke-dasharray:none;stroke-opacity:1;paint-order:markers stroke fill"
       d="m 66.242484,231.30482 c -2.20649,-8.64573 -4.463956,-18.08245 -1.205984,-26.72817 -6.717274,2.22322 -12.952807,3.13103 -17.843653,1.03224 1.559724,8.60157 1.155402,17.34989 -0.322874,26.17848 5.322026,-2.15959 13.451672,-1.45528 19.372511,-0.48255 z"
       id="path50"
       sodipodi:nodetypes="ccccc" />
    <g
       id="g52"
       transform="matrix(0.42120977,0,0,0.32953,16.413592,136.87195)"
       style="stroke-width:19.0253;stroke-dasharray:none">
      <path
         style="fill:none;fill-opacity:1;stroke:#000000;stroke-width:19.0253;stroke-linecap:square;stroke-dasharray:none;stroke-opacity:1;paint-order:markers stroke fill"
         d="m 128.42522,230.96332 c 3.29688,-8.65323 1.24691,-17.30645 -1.11839,-25.95968 0,0 24.70524,12.35262 46.18807,0 -2.9435,8.61329 -3.93753,17.41826 0.58132,26.76528"
         id="path51"
         sodipodi:nodetypes="cccc" />
      <path
         style="fill:none;fill-opacity:1;stroke:#000000;stroke-width:19.0253;stroke-linecap:square;stroke-dasharray:none;stroke-opacity:1;paint-order:markers stroke fill"
         d="m 127.61961,258.00546 c 4.70062,9.89464 0.40297,18.63911 -0.0197,27.87889 0,0 24.70524,-12.35262 46.18807,0 l 0.55678,-27.87889"
         id="path51-8"
         sodipodi:nodetypes="cccc" />
      <path
         style="fill:none;fill-opacity:1;stroke:#000000;stroke-width:19.0253;stroke-linecap:square;stroke-dasharray:none;stroke-opacity:1;paint-order:markers stroke fill"
         d="m 149.45184,210.37434 2.68536,69.55063"
         id="path52" />
    </g>
    <path
       style="fill:none;fill-opacity:1;stroke:#000000;stroke-width:7.18396;stroke-linecap:square;stroke-dasharray:none;stroke-opacity:1;paint-order:markers stroke fill"
       d="m 114.55729,206.94226 1.78378,-6.78139 c 1.42589,-3.21992 -2.27401,8.59496 -20.215551,3.57203 l -1.160291,13.43886 c 6.165762,2.98426 12.689942,2.74283 19.543252,-0.46086 l 0.0166,14.12078 c 0,0 -9.22664,-4.6272 -19.559858,-0.0187 l -0.02118,-3.59157"
       id="path53"
       sodipodi:nodetypes="cccccccc" />
    <g
       id="g55"
       transform="matrix(0.41589804,0,0,0.34947874,36.542568,129.94537)"
       style="stroke-width:19.0253;stroke-dasharray:none">
      <path
         style="fill:none;fill-opacity:1;stroke:#000000;stroke-width:19.0253;stroke-linecap:square;stroke-dasharray:none;stroke-opacity:1;paint-order:markers stroke fill"
         d="m 251.31202,267.71609 0.11577,21.1531 c -21.04076,-15.67097 -46.07659,-0.56986 -46.07659,-0.56986 v -86.04787 c 0,0 31.42796,10.82722 45.27758,0.28492 l 0.31653,18.86672"
         id="path54"
         sodipodi:nodetypes="cccccc" />
      <path
         style="fill:none;fill-opacity:1;stroke:#000000;stroke-width:19.0253;stroke-linecap:square;stroke-dasharray:none;stroke-opacity:1;paint-order:markers stroke fill"
         d="m 205.45352,243.62002 28.04248,0.94942"
         id="path55"
         sodipodi:nodetypes="cc" />
    </g>
    <path
       style="fill:none;fill-opacity:1;stroke:#000000;stroke-width:6.99501;stroke-linecap:square;stroke-linejoin:miter;stroke-dasharray:none;stroke-opacity:1;paint-order:markers stroke fill"
       d="m 27.89699,233.32823 -6.043291,-0.081 c 8.345377,-9.33825 3.427213,-18.19825 0.09724,-27.06236 7.428687,5.7021 13.623651,3.71344 20.225796,0.32409 -3.542188,8.82732 -5.209518,17.65464 0.848402,26.48196 l -6.568537,0.26373"
       id="path56"
       sodipodi:nodetypes="cccccc" />
  </g>
  <g
     inkscape:groupmode="layer"
     id="layer7"
     inkscape:label="outline3"
     style="display:inline">
    <path
       style="fill:none;fill-opacity:1;stroke:#ff0000;stroke-width:0.4716;stroke-linecap:square;stroke-linejoin:miter;stroke-dasharray:none;stroke-opacity:1;paint-order:markers stroke fill"
       d="m 44.49304,214.45836 5.103023,1.58122 c 0,0 1.724964,-2.29996 1.689028,-6.32487 l 0.934356,13.90753 -1.11404,0.0359 c 0,0 1.078103,-1.40153 -2.371827,-7.00767 l -3.773361,1.43749 z"
       id="path57" />
    <path
       style="fill:none;fill-opacity:1;stroke:#ff0000;stroke-width:0.471599;stroke-linecap:square;stroke-linejoin:miter;stroke-dasharray:none;stroke-opacity:1;paint-order:markers stroke fill"
       d="m 32.276954,223.99346 c 0,0 0.762333,-9.8087 0.152466,-13.36626 0,0 4.319894,0.35576 7.013474,-0.4574 0,0 -0.863978,8.69062 1.168913,14.02695 0,0 -5.13305,-0.71151 -8.334853,-0.20329 z"
       id="path58" />
    <path
       style="fill:none;fill-opacity:1;stroke:#ff0000;stroke-width:0.471599;stroke-linecap:square;stroke-linejoin:miter;stroke-dasharray:none;stroke-opacity:1;paint-order:markers stroke fill"
       d="m 26.686503,224.34922 c 0,0 1.016446,-7.92828 0.304934,-13.21379 0,0 -3.150982,6.45442 -0.304934,13.21379 z"
       id="path59"
       sodipodi:nodetypes="ccc" />
    <path
       style="fill:none;fill-opacity:1;stroke:#ff0000;stroke-width:0.471599;stroke-linecap:square;stroke-linejoin:miter;stroke-dasharray:none;stroke-opacity:1;paint-order:markers stroke fill"
       d="m 18.098756,226.04233 3.251002,-0.0842 c -2.443701,-6.39675 -0.646862,-13.29661 -0.646862,-13.29661 -3.378057,1.14998 -6.46862,0.14375 -6.46862,0.14375 0,0 2.874942,6.46862 0.07187,13.22473 l 2.265824,0.0123"
       id="path60"
       sodipodi:nodetypes="cccccc" />
    <path
       style="fill:none;fill-opacity:1;stroke:#ff0000;stroke-width:0.471599;stroke-linecap:square;stroke-linejoin:miter;stroke-dasharray:none;stroke-opacity:1;paint-order:markers stroke fill"
       d="m 57.789654,209.89439 0.682797,13.51223 1.114041,0.10781 0.143744,-6.18113 4.168665,0.10781 0.215624,-2.19214 -2.874944,1.0781 c 0,0 -3.198374,-4.56397 -2.623386,-6.43268 z"
       id="path61" />
    <path
       style="fill:none;fill-opacity:1;stroke:#ff0000;stroke-width:0.471599;stroke-linecap:square;stroke-linejoin:miter;stroke-dasharray:none;stroke-opacity:1;paint-order:markers stroke fill"
       d="m 65.911363,221.28635 0.21562,-2.51558 c 0,0 6.756115,3.52181 13.296605,1.07811 l 0.14375,3.23431 c 0,0 -6.252997,-1.3656 -9.918548,-0.0719 l -0.07188,-1.86871 z"
       id="path62" />
    <path
       style="fill:none;fill-opacity:1;stroke:#ff0000;stroke-width:0.471599;stroke-linecap:square;stroke-linejoin:miter;stroke-dasharray:none;stroke-opacity:1;paint-order:markers stroke fill"
       d="m 70.367522,208.99597 -0.503113,5.24677 c 0,0 4.024915,2.4437 11.643511,-1.14998 l 3.521808,-1.61715 -0.03592,-2.55151 -0.723095,2.37363 -5.422098,-1.22365 0.395309,-1.32966 c 0,0 -5.642079,1.40153 -8.876387,0.25155 z"
       id="path63"
       sodipodi:nodetypes="ccccccccsc" />
    <path
       style="fill:none;fill-opacity:1;stroke:#ff0000;stroke-width:0.471599;stroke-linecap:square;stroke-linejoin:miter;stroke-dasharray:none;stroke-opacity:1;paint-order:markers stroke fill"
       d="m 105.94493,198.14307 0.2875,12.79349 -6.10926,0.0719 v -4.16867 c -2.443699,1.00623 -8.840446,-0.50311 -8.840446,-0.50311 l -0.143744,5.74988 9.34356,0.2875 -0.21562,4.8874 h -9.056065 l -0.07188,5.82175 c 3.449927,-1.43747 8.984195,-0.21562 8.984195,-0.21562 l -0.215622,-4.3124 6.396742,-0.0719 0.14375,13.51223"
       id="path64" />
    <path
       style="fill:none;fill-opacity:1;stroke:#ff0000;stroke-width:0.471599;stroke-linecap:square;stroke-linejoin:miter;stroke-dasharray:none;stroke-opacity:1;paint-order:markers stroke fill"
       d="m 5.3938301,205.40229 c -0.1524638,1.06727 5.8236779,8.91136 4.2405393,17.75277 -1.3152919,3.62002 -4.1684868,5.70215 -6.3248723,8.48108"
       id="path65"
       sodipodi:nodetypes="ccc" />
    <path
       style="fill:none;fill-opacity:1;stroke:#ff0000;stroke-width:0.471599;stroke-linecap:square;stroke-linejoin:miter;stroke-dasharray:none;stroke-opacity:1;paint-order:markers stroke fill"
       d="m 5.3219563,205.40229 c 8.6863187,3.60647 16.6987307,1.82168 24.5807527,-1.00623 4.4845,1.28859 8.969,1.24466 13.453501,-0.98561 8.773482,3.20959 16.587263,1.62064 24.29305,-0.50823 3.793847,1.08611 7.887355,1.17335 12.493066,-0.44674 0,0 1.724963,-3.23431 4.887402,-2.58745 v -0.48514 c 0.05176,0.031 8.470212,2.01229 9.606162,2.29959 3.650092,0.92317 10.9811,-2.56516 11.33337,-3.71002"
       id="path66"
       sodipodi:nodetypes="cccccccsc" />
    <path
       style="fill:none;fill-opacity:1;stroke:#ff0000;stroke-width:0.471599;stroke-linecap:square;stroke-linejoin:miter;stroke-dasharray:none;stroke-opacity:1;paint-order:markers stroke fill"
       d="m 3.2066131,231.66763 13.7220129,0.10164 -0.304933,-5.79375"
       id="path67" />
    <path
       style="fill:none;fill-opacity:1;stroke:#ff0000;stroke-width:0.471599;stroke-linecap:square;stroke-linejoin:miter;stroke-dasharray:none;stroke-opacity:1;paint-order:markers stroke fill"
       d="m 17.945072,225.97552 0.101645,5.69211 12.959679,-0.50823 -0.813155,-1.06726 c 0,0 5.946205,-1.62632 13.722014,-0.0508 v 1.32135 l 2.185358,-1.01644 1.778779,0.40658 -0.152467,-1.11809 c 0,0 7.826633,-3.35428 15.246687,0.50822 l 1.069038,0.52289 -0.03592,0.6828 0.718732,-0.43125 0.970296,0.46718 v -0.86248 c 0,0 6.899844,-4.77959 16.746517,-0.3953 l 2.515576,1.43747 c -0.08669,-0.0495 10.979326,-8.7066 21.058959,0.50311"
       id="path68"
       sodipodi:nodetypes="cccccccccccccccccc" />
    <path
       style="fill:none;fill-opacity:1;stroke:#ff0000;stroke-width:0.817409;stroke-linecap:square;stroke-linejoin:miter;stroke-dasharray:none;stroke-opacity:1;paint-order:markers stroke fill"
       d="m 73.899178,262.80948 8.844912,2.74068 c 0,0 2.989825,-3.98645 2.92754,-10.9627 l 1.619491,24.10548 -1.930932,0.0623 c 0,0 1.868638,-2.42924 -4.111011,-12.14617 l -6.540255,2.49155 z"
       id="path57-0" />
    <path
       style="fill:none;fill-opacity:1;stroke:#ff0000;stroke-width:0.817408;stroke-linecap:square;stroke-linejoin:miter;stroke-dasharray:none;stroke-opacity:1;paint-order:markers stroke fill"
       d="m 52.725427,279.33637 c 1.11353,-0.13919 3.844989,-17.31657 0.26427,-23.16731 0,0 7.487532,0.61663 12.156227,-0.7928 0,0 -1.49751,15.06316 2.026042,24.31247 0,0 -8.896954,-1.23325 -14.446539,-0.35236 z"
       id="path58-2"
       sodipodi:nodetypes="ccccc" />
    <path
       style="fill:none;fill-opacity:1;stroke:#ff0000;stroke-width:0.671579;stroke-linecap:square;stroke-linejoin:miter;stroke-dasharray:none;stroke-opacity:1;paint-order:markers stroke fill"
       d="m 43.094471,275.51001 c 0,0 1.95139,-8.37462 0.585418,-13.9577 0,0 -6.049318,6.8178 -0.585418,13.9577 z"
       id="path59-4"
       sodipodi:nodetypes="ccc" />
    <path
       style="fill:none;fill-opacity:1;stroke:#ff0000;stroke-width:0.817408;stroke-linecap:square;stroke-linejoin:miter;stroke-dasharray:none;stroke-opacity:1;paint-order:markers stroke fill"
       d="m 27.181834,282.88761 6.603836,-0.14595 c -4.235589,-11.08728 -1.121186,-23.04658 -1.121186,-23.04658 -5.85508,1.99321 -11.211855,0.24914 -11.211855,0.24914 0,0 4.98305,11.21186 0.124578,22.92201 l 4.984339,0.0213"
       id="path60-8"
       sodipodi:nodetypes="cccccc" />
    <path
       style="fill:none;fill-opacity:1;stroke:#ff0000;stroke-width:0.817408;stroke-linecap:square;stroke-linejoin:miter;stroke-dasharray:none;stroke-opacity:1;paint-order:markers stroke fill"
       d="m 96.94576,254.8989 1.183471,23.42031 1.930929,0.18686 0.24915,-10.71354 7.22541,0.18686 0.37374,-3.79958 -4.98305,1.86865 c 0,0 -5.54364,-7.91059 -4.547032,-11.14956 z"
       id="path61-6" />
    <path
       style="fill:none;fill-opacity:1;stroke:#ff0000;stroke-width:0.817408;stroke-linecap:square;stroke-linejoin:miter;stroke-dasharray:none;stroke-opacity:1;paint-order:markers stroke fill"
       d="m 111.02286,274.64422 0.37373,-4.36017 c 0,0 11.71016,6.10423 23.04658,1.86864 2.24277,1.86864 1.7456,3.73728 0.24916,5.60593 0,0 -10.83812,-2.36695 -17.19151,-0.12458 l -0.12458,-3.23898 c -2.22855,-1.13535 -4.35957,-1.19772 -6.35338,0.24916 z"
       id="path62-5"
       sodipodi:nodetypes="ccccccc" />
    <path
       style="fill:none;fill-opacity:1;stroke:#ff0000;stroke-width:0.817408;stroke-linecap:square;stroke-linejoin:miter;stroke-dasharray:none;stroke-opacity:1;paint-order:markers stroke fill"
       d="m 118.74658,253.34169 c -2.72515,2.62561 -2.35279,5.76747 -0.87203,9.09406 0,0 6.97625,4.23559 20.18133,-1.99322 l 6.10423,-2.80295 -0.0623,-4.42246 -1.25332,4.11414 -9.39795,-2.12092 0.68518,-2.30466 c 0,0 -9.77924,2.42923 -15.38516,0.43601 z"
       id="path63-0"
       sodipodi:nodetypes="ccccccccsc" />
    <path
       style="fill:none;fill-opacity:1;stroke:#ff0000;stroke-width:0.817408;stroke-linecap:square;stroke-linejoin:miter;stroke-dasharray:none;stroke-opacity:1;paint-order:markers stroke fill"
       d="m 180.41177,234.5307 c 3.9742,7.39152 6.50052,14.90761 2.49152,22.29913 l -11.96557,2.29031 -0.61662,-9.51573 c -4.23559,1.74407 -15.32287,-0.87203 -15.32287,-0.87203 l -0.24915,9.96609 16.1949,0.4983 -0.37373,8.47118 h -15.69659 l -0.12458,10.09066 c 5.97965,-2.49152 15.57202,-0.37373 15.57202,-0.37373 l 0.1548,-9.58869 10.55874,1.98956 c 6.5138,7.60123 3.06297,15.20246 -0.0151,22.80369"
       id="path64-9"
       sodipodi:nodetypes="cccccccccccccc" />
    <path
       style="fill:none;fill-opacity:1;stroke:#ff0000;stroke-width:0.817408;stroke-linecap:square;stroke-linejoin:miter;stroke-dasharray:none;stroke-opacity:1;paint-order:markers stroke fill"
       d="m 4.984611,234.42813 c 1.7289563,0.10579 11.239152,28.13053 8.495144,43.45506 C 11.2,284.15766 6.254657,287.76654 2.5170566,292.58318"
       id="path65-0"
       sodipodi:nodetypes="ccc" />
    <path
       style="fill:none;fill-opacity:1;stroke:#ff0000;stroke-width:0.817408;stroke-linecap:square;stroke-linejoin:miter;stroke-dasharray:none;stroke-opacity:1;paint-order:markers stroke fill"
       d="m 5.2577374,234.65528 c 7.1321296,14.17456 25.9959746,19.30992 43.3524846,10.71354 7.772845,2.23347 15.545691,2.15732 23.318527,-1.70834 15.206795,5.5631 28.750161,2.80902 42.106351,-0.88089 6.57576,1.88252 13.6709,2.03373 21.65383,-0.77432 0.87675,-0.3643 5.09412,-2.26936 8.47118,-4.48475 v -0.84088 c 0.0897,0.0538 14.68115,3.48785 16.65006,3.98582 6.32659,1.60009 19.03319,-4.44612 19.64376,-6.43047"
       id="path66-0"
       sodipodi:nodetypes="cccccccsc" />
    <path
       style="fill:none;fill-opacity:1;stroke:#ff0000;stroke-width:0.817408;stroke-linecap:square;stroke-linejoin:miter;stroke-dasharray:none;stroke-opacity:1;paint-order:markers stroke fill"
       d="M 2.3387297,292.63776 C 11.51742,289.65904 19.26651,290.15219 26.12266,292.81392 l 0.61662,-10.04211"
       id="path67-6"
       sodipodi:nodetypes="ccc" />
    <path
       style="fill:none;fill-opacity:1;stroke:#ff0000;stroke-width:0.817408;stroke-linecap:square;stroke-linejoin:miter;stroke-dasharray:none;stroke-opacity:1;paint-order:markers stroke fill"
       d="m 27.003545,282.68373 1.05707,9.95403 c 7.678477,-3.5397 15.114613,-2.95961 22.462595,-0.8809 l -1.409414,-1.84985 c 0,0 10.306368,-2.81884 23.78393,-0.0881 v 2.29026 l 3.787805,-1.76177 3.020819,1.63903 -0.201983,-2.87227 c 0,0 13.56564,-5.81385 26.426583,0.88088 l 1.85293,0.90631 -0.0623,1.18348 1.24576,-0.74746 1.68178,0.80974 v -1.49491 c 0,0 11.95928,-8.28432 29.02621,-0.68517 l 4.36016,2.49152 c -0.15025,-0.0858 19.03012,-16.05985 36.50081,-0.0969"
       id="path68-1"
       sodipodi:nodetypes="cccccccccccccccccc" />
    <path
       style="fill:#ff0000;fill-opacity:1;stroke:#ff0000;stroke-width:0.817408;stroke-linecap:square;stroke-linejoin:miter;stroke-dasharray:none;stroke-opacity:1;paint-order:markers stroke fill"
       d="m 21.662435,282.93483 c 0,0 4.756785,-14.62269 -0.704709,-23.43157 0,0 1.057064,1.76178 11.363434,0.26428 0,0 -2.906926,13.47755 1.321329,22.99113 z"
       id="path88" />
    <path
       style="fill:#ff0000;fill-opacity:1;stroke:#ff0000;stroke-width:0.817408;stroke-linecap:square;stroke-linejoin:miter;stroke-dasharray:none;stroke-opacity:1;paint-order:markers stroke fill"
       d="m 52.825432,255.84432 c 0,0 3.986437,12.58219 0.373729,23.54489 0,0 9.094058,-1.24576 13.703375,0.12457 0,0 -2.616099,-13.08049 -1.744066,-23.91862 0,0 -4.048727,2.18009 -12.333038,0.24916 z"
       id="path89"
       sodipodi:nodetypes="ccccc" />
    <path
       style="fill:#ff0000;fill-opacity:1;stroke:#ff0000;stroke-width:0.817408;stroke-linecap:square;stroke-linejoin:miter;stroke-dasharray:none;stroke-opacity:1;paint-order:markers stroke fill"
       d="m 74.691788,269.10493 -0.704709,-6.51857 8.808863,2.73076 2.906924,-7.39946 1.761772,20.96511 -1.937949,-0.26427 -0.968976,-5.81385 -3.347368,-6.16621 z"
       id="path90" />
    <path
       style="fill:#ff0000;fill-opacity:1;stroke:#ff0000;stroke-width:0.817408;stroke-linecap:square;stroke-linejoin:miter;stroke-dasharray:none;stroke-opacity:1;paint-order:markers stroke fill"
       d="m 96.978206,255.01075 1.057065,23.25539 2.026029,0.35236 0.26427,-11.09916 7.31136,0.17617 0.26426,-3.69972 -5.10914,1.93794 -3.699714,-6.25429 -0.792804,-3.52355 0.264271,-1.49749 z"
       id="path91" />
    <path
       style="fill:#ff0000;fill-opacity:1;stroke:#ff0000;stroke-width:0.817408;stroke-linecap:square;stroke-linejoin:miter;stroke-dasharray:none;stroke-opacity:1;paint-order:markers stroke fill"
       d="m 144.2818,257.65341 c -15.85595,9.86592 -26.3385,4.84487 -26.3385,4.84487 -2.64266,-5.54957 0.79279,-9.16121 0.79279,-9.16121 0,0 8.72078,2.11412 15.15125,-0.61663 l -0.61662,2.64267 9.68975,2.02604 1.14515,-3.78782 z"
       id="path92" />
    <path
       style="fill:#ff0000;fill-opacity:1;stroke:#ff0000;stroke-width:0.817408;stroke-linecap:square;stroke-linejoin:miter;stroke-dasharray:none;stroke-opacity:1;paint-order:markers stroke fill"
       d="m 110.87791,274.46845 0.62287,-4.29789 c 0,0 9.34322,6.16653 22.61057,2.05553 0,0 1.68178,0.93431 1.68178,1.68177 0,0.74745 -1.12118,3.92415 -1.12118,3.92415 l -9.46779,-1.24577 -7.84829,0.99661 0.0623,-3.42584 c 0,0 -4.48474,-0.68517 -6.54025,0.31144 z"
       id="path93" />
    <path
       style="fill:#ff0000;fill-opacity:1;stroke:#ff0000;stroke-width:0.817408;stroke-linecap:square;stroke-linejoin:miter;stroke-dasharray:none;stroke-opacity:1;paint-order:markers stroke fill"
       d="m 154.7287,258.46041 0.24916,-9.96608 c 0,0 7.10083,3.36355 15.44743,1.12118 l 0.12458,9.34321 z"
       id="path94" />
    <path
       style="fill:#ff0000;fill-opacity:1;stroke:#ff0000;stroke-width:0.817408;stroke-linecap:square;stroke-linejoin:miter;stroke-dasharray:none;stroke-opacity:1;paint-order:markers stroke fill"
       d="m 154.47955,277.39599 c 0,0 10.4644,-2.24236 15.57202,0 l 0.12457,-9.84151 -15.57201,-0.12458 z"
       id="path95" />
    <path
       style="fill:#ff0000;fill-opacity:1;stroke:#ff0000;stroke-width:0.466672;stroke-linecap:square;stroke-linejoin:miter;stroke-dasharray:none;stroke-opacity:1;paint-order:markers stroke fill"
       d="m 111.73817,243.44362 -0.37373,15.11165 0.44169,0.14889 0.40771,-15.26054 z"
       id="path96" />
    <path
       style="fill:#ff0000;fill-opacity:1;stroke:#ff0000;stroke-width:0.430532;stroke-linecap:square;stroke-linejoin:miter;stroke-dasharray:none;stroke-opacity:1;paint-order:markers stroke fill"
       d="m 108.89874,278.75353 -0.39209,12.25972 0.46337,0.1208 0.42774,-12.38052 z"
       id="path96-3" />
    <path
       style="fill:#ff0000;fill-opacity:1;stroke:#ff0000;stroke-width:0.466672;stroke-linecap:square;stroke-linejoin:miter;stroke-dasharray:none;stroke-opacity:1;paint-order:markers stroke fill"
       d="m 74.148793,275.24833 2.016497,14.98117 0.459653,0.0773 -2.006449,-15.13355 z"
       id="path96-4" />
    <path
       style="fill:#ff0000;fill-opacity:1;stroke:#ff0000;stroke-width:0.466672;stroke-linecap:square;stroke-linejoin:miter;stroke-dasharray:none;stroke-opacity:1;paint-order:markers stroke fill"
       d="m 71.528918,243.79607 -0.373735,15.11165 0.441688,0.14889 0.407712,-15.26054 z"
       id="path96-36" />
    <path
       style="fill:#ff0000;fill-opacity:1;stroke:#ff0000;stroke-width:0.262855;stroke-linecap:square;stroke-linejoin:miter;stroke-dasharray:none;stroke-opacity:1;paint-order:markers stroke fill"
       d="m 45.108675,284.41461 4.579753,6.52341 0.298116,-0.0416 -4.607666,-6.59488 z"
       id="path96-2" />
    <path
       style="fill:#ff0000;fill-opacity:1;stroke:#ff0000;stroke-width:0.262855;stroke-linecap:square;stroke-linejoin:miter;stroke-dasharray:none;stroke-opacity:1;paint-order:markers stroke fill"
       d="m 48.512497,245.44056 -3.524969,7.14867 0.179546,0.24159 3.57428,-7.20747 z"
       id="path96-2-0" />
    <path
       style="fill:#ff0000;fill-opacity:1;stroke:#ff0000;stroke-width:0.406885;stroke-linecap:square;stroke-linejoin:miter;stroke-dasharray:none;stroke-opacity:1;paint-order:markers stroke fill"
       d="m 144.17018,236.64392 -0.40409,10.62454 0.47756,0.10467 0.44084,-10.72921 z"
       id="path96-7" />
    <path
       style="fill:#ff0000;fill-opacity:1;stroke:#ff0000;stroke-width:0.466672;stroke-linecap:square;stroke-linejoin:miter;stroke-dasharray:none;stroke-opacity:1;paint-order:markers stroke fill"
       d="m 143.9451,277.07802 -0.37374,15.11164 0.44169,0.14889 0.40771,-15.26053 z"
       id="path96-20" />
  </g>
  <g
     inkscape:groupmode="layer"
     id="layer6"
     inkscape:label="Main 1" />
  <g
     inkscape:groupmode="layer"
     id="layer3"
     inkscape:label="Outline2"
     style="display:inline">
    <path
       style="fill:none;fill-opacity:1;stroke:#000000;stroke-width:0.808;stroke-linecap:square;stroke-dasharray:none;stroke-opacity:1;paint-order:markers stroke fill"
       d="m 124.14753,151.18271 2.14829,-8.99593 c 0.54301,2.61887 0.56765,5.72615 2.91913,7.05013 7.21271,4.06111 24.0532,5.88464 34.2059,0.0661 l 0.0671,-4.1623 0.76094,5.62647 c 22.02644,7.78521 37.50191,-0.4747 37.50191,-0.4747 4.84202,-16.8996 -3.22801,-29.81165 -3.22801,-29.81165 l -5.31673,4.46225 c 4.55719,8.35486 3.32295,18.60854 3.32295,18.60854 -5.50661,3.60778 -26.77351,0.18989 -26.77351,0.18989 l -2.10525,-24.11165 13.69529,0.26854 v -8.59313 l -13.15822,-0.26854 0.93987,-15.709307 c 16.51492,-5.10217 26.98779,-0.53707 26.98779,-0.53707 2.01402,7.250447 -1.74548,19.065997 -1.74548,19.065997 l 6.31058,1.74548 c 6.17631,-18.797467 -1.11294,-28.255597 -1.11294,-28.255597 -9.68403,-7.40545 -35.97849,0.39507 -35.97849,0.39507 l -0.28918,2.45317 c -10.44357,-10.44357 -34.55872,-2.94319 -34.55872,-2.94319 l -1.80389,8.73463 -1.17812,-8.84882 c -12.98768,-4.58949 -25.770737,-4.26809 -38.400538,-0.26853 l 0.402803,2.55108 c -0.872739,0.40281 -1.275542,6.04205 -1.275542,6.04205 l -2.215416,-6.98192 c -12.868065,-6.73561 -24.497373,-4.36435 -35.950158,-0.83917 l -2.047582,11.31205 -2.978958,-11.98619 c -12.215813,-5.68893 -24.431627,-7.747 -36.6474404,-1.32918 0,0 -7.7852072,43.673107 0.3797663,63.990597 0,0 6.7408501,5.88638 12.8171101,-0.37976 l 4.842019,-8.63968 -7.405441,-3.70272 c 0,0 -2.373539,6.74085 -3.512838,7.12061 0,0 -7.1206163,-39.02098 0.09494,-52.882437 0,0 14.431118,-4.5572 22.406208,1.1393 0,0 5.50661,30.191407 0.759533,49.559487 l -5.316727,-6.45603 -5.886376,5.31673 9.494155,11.01322 c 0,0 6.076259,1.89883 7.97509,-0.56965 l 2.278598,-15.00077 2.658363,13.4817 c 0,0 15.760298,3.60778 19.937726,3.03813 4.177428,-0.56965 16.899596,-3.22801 16.899596,-3.22801 l 1.519065,-10.82334 1.329182,7.78521 -0.569649,2.84825 c 0,-0.0206 26.194161,5.883 34.518751,0.86049 z"
       id="path39"
       sodipodi:nodetypes="ccccccccccccccccccccccccccccccsccccccccccccccccscccccc" />
    <path
       style="fill:none;fill-opacity:1;stroke:#000000;stroke-width:0.808;stroke-linecap:square;stroke-dasharray:none;stroke-opacity:1;paint-order:markers stroke fill"
       d="m 54.686333,93.422483 c 0,0 -7.405441,26.203867 -0.189883,49.749377 0,0 12.342403,4.36731 23.355623,0.37976 0,0 6.835792,-30.76106 0.379767,-49.369597 0,0 -17.469249,-4.17744 -23.545507,-0.75954 z"
       id="path40" />
    <path
       style="fill:none;fill-opacity:1;stroke:#000000;stroke-width:0.808;stroke-linecap:square;stroke-dasharray:none;stroke-opacity:1;paint-order:markers stroke fill"
       d="m 94.742922,122.85228 c -1.745479,4.96791 -0.939873,19.20028 -0.939873,19.20028 l 9.667271,1.47694 -0.17391,-50.866547 -9.11439,1.32918 c -3.987545,3.22802 1.165106,18.790077 1.165106,18.790077 l -6.310579,2.68535 -0.335669,-1.40981 -0.201401,7.11619 z"
       id="path41" />
    <path
       style="fill:none;fill-opacity:1;stroke:#000000;stroke-width:0.808;stroke-linecap:square;stroke-dasharray:none;stroke-opacity:1;paint-order:markers stroke fill"
       d="m 110.1837,92.373533 -0.26854,51.021697 9.26447,-1.61121 c 0,0 2.14828,-6.17631 -1.87975,-17.99186 l 6.04205,-3.49096 3.35669,11.94982 c 0,0 1.34267,-8.7274 2.68535,-9.66727 0,0 -3.49096,-12.08409 -3.22242,-15.57505 l -1.20841,8.05606 -6.64625,-1.47694 2.08115,-12.8897 -0.67134,-6.444837 z"
       id="path42" />
    <path
       style="fill:none;fill-opacity:1;stroke:#000000;stroke-width:0.808;stroke-linecap:square;stroke-dasharray:none;stroke-opacity:1;paint-order:markers stroke fill"
       d="m 130.9244,122.4746 5.60155,2.37354 c 0,0 -5.12684,9.58909 -2.37354,18.13383 0,0 11.39299,6.17121 21.64668,1.32919 l -0.0949,-22.12138 z"
       id="path43" />
    <path
       style="fill:none;fill-opacity:1;stroke:#000000;stroke-width:0.808;stroke-linecap:square;stroke-dasharray:none;stroke-opacity:1;paint-order:markers stroke fill"
       d="m 135.10183,93.327543 c 0,0 -2.75331,16.329947 -0.0949,21.646677 l 26.48865,-0.28483 0.18988,-1.89883 -6.83579,-1.51906 c 0,0 3.22802,-12.627227 1.89883,-17.089477 0,0 -12.81711,-4.0825 -21.64667,-0.85448 z"
       id="path44" />
  </g>
</svg>
