<?xml version="1.0" encoding="UTF-8" standalone="no"?>
<!-- Created with Inkscape (http://www.inkscape.org/) -->

<svg
   width="210mm"
   height="297mm"
   viewBox="0 0 210 297"
   version="1.1"
   id="svg1"
   inkscape:version="1.4 (86a8ad7, 2024-10-11)"
   sodipodi:docname="NOPE.svg"
   xmlns:inkscape="http://www.inkscape.org/namespaces/inkscape"
   xmlns:sodipodi="http://sodipodi.sourceforge.net/DTD/sodipodi-0.dtd"
   xmlns="http://www.w3.org/2000/svg"
   xmlns:svg="http://www.w3.org/2000/svg">
  <sodipodi:namedview
     id="namedview1"
     pagecolor="#ffffff"
     bordercolor="#000000"
     borderopacity="0.25"
     inkscape:showpageshadow="2"
     inkscape:pageopacity="0.0"
     inkscape:pagecheckerboard="0"
     inkscape:deskcolor="#d1d1d1"
     inkscape:document-units="mm"
     inkscape:zoom="0.49264169"
     inkscape:cx="211.10678"
     inkscape:cy="930.69671"
     inkscape:window-width="1337"
     inkscape:window-height="755"
     inkscape:window-x="7"
     inkscape:window-y="0"
     inkscape:window-maximized="0"
     inkscape:current-layer="layer2" />
  <defs
     id="defs1" />
  <g
     inkscape:label="Guides"
     inkscape:groupmode="layer"
     id="layer1"
     sodipodi:insensitive="true">
    <rect
       style="fill:#ffffff;stroke:#000000;stroke-width:0.725002;stroke-linecap:round;stroke-linejoin:round;stroke-opacity:1;paint-order:markers stroke fill"
       id="rect1"
       width="209.87325"
       height="59.122581"
       x="0.12776883"
       y="-0.0064988006" />
    <rect
       style="fill:#ffffff;stroke:#000000;stroke-width:0.724907;stroke-linecap:round;stroke-linejoin:round;stroke-opacity:1;paint-order:markers stroke fill"
       id="rect1-8"
       width="209.81772"
       height="59.122673"
       x="0.082962804"
       y="59.66404" />
    <rect
       style="fill:#ffffff;stroke:#000000;stroke-width:0.724907;stroke-linecap:round;stroke-linejoin:round;stroke-opacity:1;paint-order:markers stroke fill"
       id="rect1-2"
       width="209.81772"
       height="59.122673"
       x="0.082962796"
       y="119.06727" />
    <rect
       style="fill:#ffffff;stroke:#000000;stroke-width:0.725232;stroke-linecap:round;stroke-linejoin:round;stroke-opacity:1;paint-order:markers stroke fill"
       id="rect1-3"
       width="210.00728"
       height="59.122349"
       x="0.17811294"
       y="178.6445" />
    <rect
       style="fill:#ffffff;stroke:#000000;stroke-width:0.725232;stroke-linecap:round;stroke-linejoin:round;stroke-opacity:1;paint-order:markers stroke fill"
       id="rect1-38"
       width="210.00728"
       height="59.122349"
       x="0.17811294"
       y="238.12161" />
  </g>
  <g
     inkscape:groupmode="layer"
     id="layer2"
     inkscape:label="Guides 1">
    <path
       id="path9"
       style="fill:#ffffff;stroke:#000000;stroke-width:0.667235;stroke-linecap:round;stroke-linejoin:round;stroke-opacity:1;paint-order:markers stroke fill"
       d="m 141.7102,59.817029 c -25.20506,25.60606 -15.31128,42.661321 -1.3473,59.160371 l 52.70911,0.45622 c 4.64148,0.0965 11.61381,-0.52305 16.33932,-0.52305 l 0.37977,-22.552522 c -17.31591,-13.277848 -27.99123,0.453211 -16.71909,5.583672 -10.11667,2.88365 -20.23594,5.83232 -29.96229,-1.05705 l -0.32868,-7.79704 c 5.13609,2.284963 17.00266,8.42584 24.38402,0.671611 8.24254,-6.846036 2.0964,-9.616582 -0.54806,-12.76976 -5.59064,-3.396973 -18.68409,-3.087167 -24.27473,0.671602 l -0.32865,-7.931572 c 9.86058,-9.458875 20.72749,-2.719306 31.33642,-0.132462 -11.84268,7.890367 2.55213,19.164464 16.52922,10.235005 l -0.29595,-24.260709 c -21.96836,0.126065 -45.59429,0.116291 -67.87306,0.245684 z"
       sodipodi:nodetypes="ccccccccccccccccc"
       inkscape:transform-center-x="6.6026147"
       inkscape:transform-center-y="-1.3418679" />
    <path
       id="path8"
       style="fill:#ffffff;stroke:#000000;stroke-width:0.657436;stroke-linecap:round;stroke-linejoin:round;stroke-opacity:1;paint-order:markers stroke fill"
       d="m 143.05595,60.063339 -33.19244,-0.06566 -0.30012,-0.163673 -16.927233,0.402561 C 76.879233,71.172145 81.944311,92.713692 101.8224,86.72013 l 2.34816,32.47719 36.67298,0.0167 -7.74234,-17.78158 c 24.66869,2.85118 34.78583,-24.806483 9.95475,-41.369111 z"
       sodipodi:nodetypes="cccccccccc" />
    <path
       id="path7"
       style="fill:#ffffff;stroke:#000000;stroke-width:0.657436;stroke-linecap:round;stroke-linejoin:round;stroke-opacity:1;paint-order:markers stroke fill"
       d="m 96.961728,59.598872 -44.665534,0.220465 c -1.440176,19.087729 0.05792,39.049714 1.350691,58.626223 20.453323,-0.10997 40.454835,1.52042 61.962835,1.28848 C 133.14563,108.90746 111.54344,78.643174 97.091636,95.273152 107.99174,83.605508 94.96194,81.202321 94.679625,69.534677 Z"
       sodipodi:nodetypes="ccccccc" />
    <path
       id="path6"
       style="fill:#ffffff;stroke:#000000;stroke-width:0.663;stroke-linecap:round;stroke-linejoin:round;stroke-opacity:1;paint-order:markers stroke fill;stroke-dasharray:none"
       d="M 48.150278,59.478807 6.2280722,59.225667 c -9.7966091,19.534864 -5.88067506,39.733917 6.147e-4,59.268783 l 19.9679941,-0.0966 c 1.654964,-13.08253 1.719797,-26.165076 -1.179065,-39.24761 -0.771968,-3.483892 5.37137,-3.378885 4.842745,-0.05936 -2.077121,13.043347 -3.822969,26.65634 1.052999,39.6997 12.833421,0.18448 24.367858,0.36777 36.871747,0.13258 C 89.260628,102.28775 55.031415,75.330877 48.998364,94.821607 52.722699,82.866863 59.962084,70.794689 52.051744,59.344566 Z"
       sodipodi:nodetypes="ccccssccccc" />
    <path
       style="fill:#ffffff;stroke:#000000;stroke-width:0.708115;stroke-linecap:round;stroke-linejoin:round;stroke-opacity:1;paint-order:markers stroke fill"
       d="M 101.91886,59.833937 86.479799,59.677056 C 72.25939,72.294269 89.267634,92.662649 101.86345,86.16989"
       id="path10"
       sodipodi:nodetypes="ccc" />
    <path
       style="fill:#ffffff;stroke:#000000;stroke-width:0.738;stroke-linecap:round;stroke-linejoin:round;stroke-opacity:1;paint-order:markers stroke fill"
       d="m 69.687098,72.725229 0.56965,19.55796"
       id="path11" />
    <path
       style="fill:#ffffff;stroke:#000000;stroke-width:0.679721;stroke-linecap:round;stroke-linejoin:round;stroke-opacity:1;paint-order:markers stroke fill"
       d="m 138.85131,69.514472 0.62793,15.05114"
       id="path11-1" />
    <path
       style="fill:none;stroke:#000000;stroke-width:0.338;stroke-linecap:round;stroke-linejoin:round;stroke-dasharray:none;stroke-opacity:1;paint-order:markers stroke fill"
       d="m 99.499718,92.86231 c 0,0 -4.995488,2.328508 -4.829312,11.1937"
       id="path12" />
    <path
       style="fill:none;stroke:#000000;stroke-width:0.338;stroke-linecap:round;stroke-linejoin:round;stroke-dasharray:none;stroke-opacity:1;paint-order:markers stroke fill"
       d="m 50.704726,91.046503 c 0,0 -3.961148,3.832253 -0.908904,12.157117"
       id="path12-6" />
    <path
       style="fill:none;stroke:#000000;stroke-width:0.338;stroke-linecap:round;stroke-linejoin:round;stroke-dasharray:none;stroke-opacity:1;paint-order:markers stroke fill"
       d="m 110.92744,78.34643 c 0,0 -0.71047,5.46554 -9.2116,7.985457"
       id="path12-0" />
    <path
       style="fill:none;stroke:#000000;stroke-width:0.338;stroke-linecap:round;stroke-linejoin:round;stroke-dasharray:none;stroke-opacity:1;paint-order:markers stroke fill"
       d="m 204.54936,71.160195 c 0,0 -4.81532,-2.681343 -11.89922,2.651338"
       id="path12-05" />
    <path
       style="fill:none;stroke:#000000;stroke-width:0.338;stroke-linecap:round;stroke-linejoin:round;stroke-dasharray:none;stroke-opacity:1;paint-order:markers stroke fill"
       d="m 192.54033,101.80659 c 0,0 4.24663,3.51326 12.18307,-0.44047"
       id="path12-67" />
    <g
       id="g13"
       transform="translate(-149.84268,59.077758)" />
    <g
       id="g14"
       transform="translate(34.13656,9.952093)" />
    <path
       style="fill:#ffffff;stroke:#000000;stroke-width:0.665414;stroke-linecap:round;stroke-linejoin:round;stroke-dasharray:none;stroke-opacity:1;paint-order:markers stroke fill"
       d="M 3.3518457,15.032149 C 0.33155661,25.247803 -0.25148021,35.46346 2.8808096,45.679116 8.7699028,64.885815 55.94243,61.107395 60.34165,46.081635 63.209941,36.284846 62.331003,26.603123 59.388806,16.984756 52.970321,-3.9979826 7.8103876,-0.04817369 3.3518457,15.032149 Z"
       id="path22"
       sodipodi:nodetypes="sssss" />
    <path
       style="fill:#ffffff;stroke:#000000;stroke-width:0.665414;stroke-linecap:round;stroke-linejoin:round;stroke-dasharray:none;stroke-opacity:1;paint-order:markers stroke fill"
       d="M 52.852712,9.1211696 C 46.868834,26.575113 51.982585,42.60932 61.974082,58.019511 l 22.457917,-3.232892 c 5.1347,-7.236676 1.523,-13.894866 -1.836912,-20.345938 2.247879,6.67847 7.336725,13.771191 17.670013,18.806692 L 127.8497,49.83756 C 124.41035,40.084248 110.49766,33.035974 98.513031,28.266099 110.46403,22.200316 113.12663,11.864337 115.34381,1.3235781 L 89.729465,3.9220783 C 83.270663,10.405718 82.807491,18.68863 81.694019,25.890819 82.996597,18.585836 83.962563,11.533199 77.68155,5.2226865 Z"
       id="path23"
       sodipodi:nodetypes="cccccccccccc" />
    <path
       style="fill:#ffffff;stroke:#000000;stroke-width:0.665414;stroke-linecap:round;stroke-linejoin:round;stroke-dasharray:none;stroke-opacity:1;paint-order:markers stroke fill"
       d="m 156.26318,1.1259895 14.18777,2.7097094 c 0.72367,7.0346111 4.65677,14.7242901 -7.44225,19.1416891 10.51788,9.354464 16.22057,4.096005 23.72493,4.284051 -3.23984,-6.636652 -2.38468,-12.818088 5.6839,-18.1976586 l 12.84218,2.4350606 c 5.76885,11.166583 6.45443,21.295632 -8.37214,28.258522 -7.56835,1.104737 -14.99299,1.690291 -20.57359,-4.385368 2.74912,8.316641 6.30755,16.798472 -7.37071,21.762153 -4.03346,0.504162 -6.99885,4.363915 -13.45602,-2.746484 -0.99551,-8.144847 -3.0542,-16.506698 8.22041,-22.147117 -6.60266,4.188199 -11.81713,1.070543 -16.70209,-3.781295 -4.31646,-10.447743 -1.33782,-19.578189 9.25761,-27.3332625 z"
       id="path25"
       sodipodi:nodetypes="ccccccccccccc" />
    <path
       style="fill:#ffffff;stroke:#000000;stroke-width:0.665414;stroke-linecap:round;stroke-linejoin:round;stroke-dasharray:none;stroke-opacity:1;paint-order:markers stroke fill"
       d="m 109.40593,7.5925703 c 17.8596,-14.4836665 41.89612,-4.2460759 47.29397,7.4237057 6.27629,13.568944 -1.23341,32.550079 -6.91589,37.804275 -7.99165,7.389353 -21.70136,8.673929 -32.14926,4.615713 -12.50802,-4.85842 -14.68654,-19.102134 -11.68513,-23.59601 4.20903,-6.302013 23.68893,-7.146992 29.9362,-5.135395 14.37844,4.629807 -3.40043,-1.863261 5.00849,-9.708893 -6.84525,1.90391 -13.68427,3.701598 -20.1741,-0.455392 1.68262,1.777508 1.36875,3.555016 0.64702,5.332523 -4.6247,6.240415 -11.40046,2.625879 -13.39017,-2.406684 -1.72832,-4.391096 -3.1635,-8.813245 1.42887,-13.8738427 z"
       id="path24"
       sodipodi:nodetypes="csssssccssc" />
    <path
       id="path26"
       style="fill:#ffffff;stroke:#000000;stroke-width:0.744059;stroke-linecap:round;stroke-linejoin:round;stroke-dasharray:none;stroke-opacity:1;paint-order:markers stroke fill"
       d="m 2.1561208,122.68675 0.2547255,54.68256 18.6109777,0.17831 -0.720258,-22.14482 12.439697,22.27038 0.001,-0.001 5.17e-4,0.14508 18.610978,0.17779 -1.784629,-54.86035 H 32.487571 l 0.103337,22.12214 -13.29326,-22.55896 -0.05942,0.0185 -10e-4,-0.0295 z" />
    <path
       id="path26-7"
       style="fill:#ffffff;stroke:#000000;stroke-width:0.736464;stroke-linecap:round;stroke-linejoin:round;stroke-dasharray:none;stroke-opacity:1;paint-order:markers stroke fill"
       d="m 55.136169,123.02557 0.255282,54.22824 c 15.76689,-0.2033 31.412018,-0.0455 47.152679,-0.0682 l 0.46922,0.0103 v -0.006 l 1.32808,0.0124 -1.7849,-53.73832 h -0.0703 l 0.002,-0.1726 c -15.790239,0.11168 -31.566971,-0.32322 -47.352061,-0.26582 z m 17.561202,14.36656 12.843144,0.2744 0.116789,24.56905 -12.135693,-0.0383 z"
       sodipodi:nodetypes="ccccccccccccccc" />
    <path
       id="path26-7-4"
       style="fill:#ffffff;stroke:#000000;stroke-width:0.736464;stroke-linecap:round;stroke-linejoin:round;stroke-dasharray:none;stroke-opacity:1;paint-order:markers stroke fill"
       d="m 106.97435,122.85348 0.12049,54.6378 18.74812,0.0404 -0.61236,-19.37596 30.18877,0.31307 c -0.3771,-11.71936 0.55172,-23.9466 -0.0389,-35.65637 -38.57066,0 -30.88421,-0.18672 -48.40611,0.0411 z m 17.57102,14.67921 12.77235,0.27905 0.0434,5.8043 -12.61525,-0.0408 z"
       sodipodi:nodetypes="cccccccccccc" />
    <path
       id="path26-7-2"
       style="fill:#ffffff;stroke:#000000;stroke-width:0.736464;stroke-linecap:round;stroke-linejoin:round;stroke-dasharray:none;stroke-opacity:1;paint-order:markers stroke fill"
       d="m 158.52056,123.5599 0.25528,53.56366 18.61385,0.17466 -0.001,-0.0279 29.04267,0.49402 0.18138,-11.73985 -29.59974,-0.0739 -0.3607,-10.86187 29.14964,0.4961 0.18138,-11.73985 -29.70723,-0.0739 -0.29145,-8.77311 29.73978,0.50591 0.18087,-11.74036 c -15.79806,0.082 -31.58926,-0.24263 -47.3847,-0.20361 z"
       sodipodi:nodetypes="ccccccccccccccc" />
    <path
       id="path26-9"
       style="fill:#ffffff;stroke:#000000;stroke-width:0.459055;stroke-linecap:round;stroke-linejoin:round;stroke-dasharray:none;stroke-opacity:1;paint-order:markers stroke fill"
       d="m 1.9459735,182.64789 v 10.68599 H 18.813307 l 0.108081,23.17812 11.482093,0.10999 -0.444121,-13.66252 7.674709,13.73999 6.37e-4,-6.3e-4 3.19e-4,0.0896 9.858328,0.0941 v 0.0286 H 64.723826 V 206.22485 H 48.76992 L 48.016223,183.05152 H 37.477527 l 0.06377,13.6485 -8.201405,-13.9179 -0.03666,0.0112 -6.38e-4,-0.0182 h -10.12646 v -0.12721 z" />
    <path
       id="path26-7-3"
       style="fill:#ffffff;stroke:#000000;stroke-width:0.454369;stroke-linecap:round;stroke-linejoin:round;stroke-dasharray:none;stroke-opacity:1;paint-order:markers stroke fill"
       d="m 73.131192,181.77375 c -1.217213,-0.004 -2.434451,-0.004 -3.6518,3.3e-4 l 0.157498,33.45665 c 9.789642,0.0395 19.59209,-0.2506 29.380819,-0.0358 5.749871,-0.0502 11.512431,-0.24821 17.269031,-0.21125 V 204.29776 H 99.474883 l -0.739032,-22.25321 h -0.04337 l 0.0012,-0.10649 c -8.524213,0.0602 -17.042108,-0.13783 -25.562594,-0.16451 z m 7.182762,8.86392 7.923714,0.16931 0.07205,15.15812 -7.487245,-0.0236 z"
       sodipodi:nodetypes="ccccccccccccccccc" />
    <path
       id="path26-7-4-0"
       style="fill:#ffffff;stroke:#000000;stroke-width:0.454369;stroke-linecap:round;stroke-linejoin:round;stroke-dasharray:none;stroke-opacity:1;paint-order:markers stroke fill"
       d="m 134.16672,182.15001 c -3.04198,-0.0108 -4.68914,-0.003 -9.69445,0.0615 v -0.009 H 107.2418 v 10.686 h 16.88582 l 0.051,23.03559 11.27326,0.0242 v 0.0178 h 17.23015 v -10.68598 h -17.23016 v 1.38816 l -0.0844,-2.67334 18.62532,0.19321 c -0.23265,-7.23038 0.34047,-14.77433 -0.024,-21.99879 -11.89828,0 -16.66179,-0.0287 -19.8021,-0.0398 z m 0.77793,9.12186 7.88003,0.17216 0.0268,3.58102 -7.78311,-0.0252 z" />
    <path
       id="path26-7-2-7"
       style="fill:#ffffff;stroke:#000000;stroke-width:0.454369;stroke-linecap:round;stroke-linejoin:round;stroke-dasharray:none;stroke-opacity:1;paint-order:markers stroke fill"
       d="m 186.93608,181.89833 v 1.54088 c -9.29725,0.0271 -18.59106,-0.14827 -27.88714,-0.12529 l 0.15751,33.04664 11.48401,0.10776 -6.2e-4,-0.0172 17.00634,0.28917 v 2.02293 h 17.23015 v -10.68599 h -17.23015 v 1.43311 l -17.23812,-0.043 -0.22254,-6.70134 8.67454,0.21329 v 1.96013 h 17.23015 v -10.686 h -17.23015 v 1.45352 l -8.90664,0.0765 -0.17983,-5.41265 17.11252,0.29108 v 1.92282 h 17.23015 v -10.68631 z" />
    <path
       id="path26-9-1"
       style="fill:#ffffff;stroke:#000000;stroke-width:0.456634;stroke-linecap:round;stroke-linejoin:round;stroke-dasharray:none;stroke-opacity:1;paint-order:markers stroke fill"
       d="m 4.4183879,257.32527 c -5.7442142,5.53159 -1.9108421,7.74787 0,10.62963 6.4615781,8.47069 11.5029531,3.09438 16.7783711,0 l 0.107515,23.05588 11.421535,0.10941 -0.441783,-13.59047 7.63423,13.66753 6.14e-4,-6.1e-4 3.19e-4,0.0891 9.806333,0.0936 v 0.0285 c 5.713208,3.94172 11.426415,2.85791 17.139619,0 2.155054,-3.54331 2.799219,-7.08663 0,-10.62995 -4.730104,-2.98569 -9.333053,-6.64953 -15.869762,0 l -0.749722,-23.0511 H 39.76254 l 0.06343,13.57651 -8.158151,-13.8445 -0.03645,0.0111 -6.14e-4,-0.0181 H 21.557686 v -0.12654 c -5.365194,-3.36309 -10.853779,-5.53339 -17.1392981,0 z"
       sodipodi:nodetypes="ccccccccccccccccccccccc" />
    <path
       id="path26-7-3-9"
       style="fill:#ffffff;stroke:#000000;stroke-width:0.451973;stroke-linecap:round;stroke-linejoin:round;stroke-dasharray:none;stroke-opacity:1;paint-order:markers stroke fill"
       d="m 72.38357,289.53633 c 9.50647,4.90166 19.106831,7.77125 29.22586,-0.0355 6.0025,5.0432 11.59876,2.40006 17.17795,-0.21013 4.86619,-3.54321 2.94077,-7.08643 0,-10.62964 -5.47451,-1.59817 -10.83382,-5.03962 -16.72319,0 4.79779,-6.12543 3.64428,-12.05889 1.17853,-17.95002 -0.58472,-1.39699 -1.24323,-2.7916 -1.91367,-4.18582 h -0.0431 c 0.077,-6.64155 -43.515391,-12.69423 -28.90234,33.01115 z m 10.620752,-24.46335 7.881922,0.16841 0.07167,15.07817 -7.447756,-0.0234 z"
       sodipodi:nodetypes="cccccscccccccc" />
    <path
       id="path26-7-4-0-1"
       style="fill:#ffffff;stroke:#000000;stroke-width:0.451973;stroke-linecap:round;stroke-linejoin:round;stroke-dasharray:none;stroke-opacity:1;paint-order:markers stroke fill"
       d="m 125.56849,256.31884 v -0.009 c -5.56327,-3.59831 -11.26565,-3.8579 -17.1396,0 v 10.62963 c 5.69727,2.16352 11.40207,4.49276 16.79677,0 -6.04145,7.63804 -1.35976,15.27607 0.0508,22.91411 9.63154,3.81851 19.03039,2.74057 28.35309,0.0419 4.04787,-4.35278 2.01698,-7.48981 0,-10.62963 -5.58895,-2.04134 -11.24211,-2.89545 -17.13929,0 v 1.38084 l -0.084,-5.92214 c 6.4323,2.76875 12.36068,2.91165 18.17749,0.42525 4.15791,-7.19224 4.68547,-11.66656 0.32578,-18.85292 -9.4973,-2.55487 -19.66572,-4.08029 -29.34095,0.0215 z m 10.41715,9.01256 7.83846,0.17125 0.0266,3.56214 -7.74206,-0.025 z"
       sodipodi:nodetypes="ccccccccccccccccccc" />
    <path
       id="path26-7-2-7-6"
       style="fill:#ffffff;stroke:#000000;stroke-width:0.451973;stroke-linecap:round;stroke-linejoin:round;stroke-dasharray:none;stroke-opacity:1;paint-order:markers stroke fill"
       d="m 189.83122,255.41435 v 1.53274 c -9.24822,-4.72217 -18.49301,-2.72833 -27.74006,-0.12463 -5.99362,10.95745 -2.84249,21.9149 0.15668,32.87235 10.39356,3.27085 20.13615,4.43982 28.33947,0.37773 v 2.01226 c 5.93837,2.25279 11.64032,2.14134 17.13928,0 v -10.62963 c -5.59219,-1.32993 -11.32784,-1.08179 -17.13928,0 v 1.42554 c -5.61075,-0.32924 -10.36418,-3.23043 -17.14721,-0.0428 -1.90217,-2.26122 -2.1078,-4.23968 -0.0566,-5.84199 2.97349,2.23064 5.70093,0.52455 8.46398,-0.61184 v 1.94978 c 6.99489,1.79452 12.32752,1.26186 17.13928,0 v -9.55842 c -5.71309,-1.39499 -11.42619,-1.81453 -17.13928,-0.5768 v 1.61064 c -2.95322,-1.12715 -5.90644,-2.4394 -8.85966,-0.58308 -1.6125,-1.79471 -1.18357,-3.58941 -0.17887,-5.38412 l 17.02225,0.28955 v 1.91268 c 5.83209,1.07094 11.7289,2.7244 17.13929,0 v -10.62995 c -5.43342,-4.19532 -11.27482,-2.2708 -17.13931,2e-5 z"
       sodipodi:nodetypes="ccccccccccccccccccccccccc" />
  </g>
</svg>
