<?xml version="1.0" encoding="UTF-8" standalone="no"?>
<!-- Created with Inkscape (http://www.inkscape.org/) -->

<svg
   width="210mm"
   height="297mm"
   viewBox="0 0 210 297"
   version="1.1"
   id="svg1"
   inkscape:version="1.4 (86a8ad7, 2024-10-11)"
   sodipodi:docname="random.svg"
   xmlns:inkscape="http://www.inkscape.org/namespaces/inkscape"
   xmlns:sodipodi="http://sodipodi.sourceforge.net/DTD/sodipodi-0.dtd"
   xmlns="http://www.w3.org/2000/svg"
   xmlns:svg="http://www.w3.org/2000/svg">
  <sodipodi:namedview
     id="namedview1"
     pagecolor="#ffffff"
     bordercolor="#000000"
     borderopacity="0.25"
     inkscape:showpageshadow="2"
     inkscape:pageopacity="0.0"
     inkscape:pagecheckerboard="0"
     inkscape:deskcolor="#d1d1d1"
     inkscape:document-units="mm"
     inkscape:zoom="0.34835028"
     inkscape:cx="361.70489"
     inkscape:cy="618.63019"
     inkscape:window-width="1261"
     inkscape:window-height="755"
     inkscape:window-x="83"
     inkscape:window-y="0"
     inkscape:window-maximized="0"
     inkscape:current-layer="layer1" />
  <defs
     id="defs1" />
  <g
     inkscape:label="Layer 1"
     inkscape:groupmode="layer"
     id="layer1">
    <path
       id="path7-2-2"
       style="opacity:0.98;fill:#000000;fill-opacity:1;stroke:#000000;stroke-width:6.51421;stroke-linecap:round;stroke-linejoin:round;stroke-dasharray:none;paint-order:markers stroke fill"
       d="m 76.576032,243.0147 c -6.818531,0.0767 -12.427415,2.13349 -12.170521,5.63407 -0.31735,-0.0512 -0.644444,-0.10287 -0.868153,-0.13993 -0.268212,0.0183 1.694668,-3.43393 0.930841,-4.31998 -0.447236,-0.51878 -3.332653,-0.17966 -3.87915,-0.17966 -7.513259,0 -13.196241,2.51469 -17.1662,6.35156 -7.942682,-6.481 -13.63475,-3.72592 -25.045749,0.42728 3.717801,11.35544 2.401449,22.71096 1.076112,34.06639 13.100037,4.77171 22.17862,4.86386 28.020424,2.64313 3.273545,1.52057 7.242744,2.09989 11.873519,1.3325 2.322018,-0.38479 4.455855,-1.34247 6.352388,-2.72029 -0.0818,0.71669 -0.158381,1.42817 -0.224944,2.13062 4.305732,3.6313 20.882277,4.1971 25.561838,0.49523 -9.559027,-3.5133 -10.464863,-12.04834 -10.878257,-16.68566 0.08803,0.0807 0.173823,0.15435 0.261267,0.23321 1.764007,10.25712 9.556728,18.83764 22.583053,16.65745 13.90868,-2.32786 21.25788,-25.07251 9.1525,-39.25475 -0.72775,-0.85262 -3.73636,-1.24852 -4.96405,-1.454 -0.26811,0.0186 1.69441,-3.46689 0.93083,-4.36145 -0.44704,-0.52376 -3.33166,-0.18197 -3.87797,-0.18197 -4.786524,0 -8.828858,1.03304 -12.161149,2.78248 -4.504219,-2.43665 -10.34668,-3.51426 -15.506629,-3.45623 z" />
    <path
       style="opacity:0.98;fill:#800000;fill-opacity:1;stroke:#000000;stroke-width:3.04036;stroke-linecap:round;stroke-linejoin:round;stroke-dasharray:none;paint-order:markers stroke fill"
       d="m 106.53433,246.11197 c -0.26808,0.0187 1.69401,-3.49159 0.93058,-4.39248 -0.44699,-0.52746 -3.3312,-0.18303 -3.87743,-0.18303 -33.416075,0 -30.719913,50.54151 -1.24077,45.57199 13.90643,-2.34432 21.25415,-25.24983 9.15071,-39.53232 -0.72764,-0.85864 -3.73561,-1.25722 -4.96309,-1.46416 z"
       id="path7-1-2"
       sodipodi:nodetypes="cssssc" />
    <path
       style="opacity:0.98;fill:#ffffff;fill-opacity:1;stroke:#000000;stroke-width:3.05438;stroke-linecap:round;stroke-linejoin:round;stroke-dasharray:none;paint-order:markers stroke fill"
       d="m 102.36889,245.00165 c -0.26798,0.0189 1.6934,-3.52514 0.93023,-4.43469 -0.44682,-0.53254 -3.329984,-0.18479 -3.876005,-0.18479 -33.403843,0 -30.708655,51.02729 -1.240317,46.01 13.901352,-2.36685 21.246372,-25.49251 9.147372,-39.91228 -0.72737,-0.86689 -3.73425,-1.26931 -4.96128,-1.47824 z"
       id="path7-2"
       sodipodi:nodetypes="cssssc" />
    <path
       style="opacity:0.98;fill:#800000;stroke:#000000;stroke-width:3.03763;stroke-linecap:round;stroke-linejoin:round;stroke-dasharray:none;paint-order:markers stroke fill"
       d="m 65.021642,285.48631 c 1.149303,-12.33884 4.9273,-26.98768 -0.670877,-38.79493 -6.130356,-12.92971 57.808905,-10.7211 25.629103,25.80023 -2.126325,2.56539 -5.798931,0.7084 -10.282123,-3.46685 0.41319,4.715 1.318663,13.39294 10.872637,16.96507 -4.67708,3.76386 -21.245275,3.18861 -25.54874,-0.5035 z"
       id="path1-6"
       sodipodi:nodetypes="csccccc" />
    <path
       style="opacity:0.98;fill:#ffffff;stroke:#000000;stroke-width:3.03763;stroke-linecap:round;stroke-linejoin:round;stroke-dasharray:none;paint-order:markers stroke fill"
       d="m 60.674397,285.6802 c 1.149304,-12.33883 4.927301,-26.98768 -0.670867,-38.79494 -6.130365,-12.9297 57.80891,-10.72111 25.629094,25.80025 -2.126326,2.56539 -5.798932,0.7084 -10.282123,-3.46685 0.413189,4.71499 1.318663,13.39294 10.872648,16.96507 -4.677091,3.76386 -21.245286,3.18861 -25.548752,-0.5035 z"
       id="path1"
       sodipodi:nodetypes="csccccc" />
    <path
       style="opacity:0.98;fill:#800000;fill-opacity:1;stroke:#000000;stroke-width:3.04036;stroke-linecap:round;stroke-linejoin:round;stroke-dasharray:none;paint-order:markers stroke fill"
       d="m 63.05424,245.48566 c -0.268076,0.0187 1.694011,-3.49159 0.930581,-4.39247 -0.446987,-0.52747 -3.331203,-0.18304 -3.87743,-0.18304 -33.416079,0 -30.719906,50.54152 -1.24077,45.572 13.906421,-2.34432 21.254148,-25.24984 9.150711,-39.53233 -0.727639,-0.85863 -3.735611,-1.25722 -4.963092,-1.46416 z"
       id="path7-1"
       sodipodi:nodetypes="cssssc" />
    <path
       style="opacity:0.98;fill:#ffffff;fill-opacity:1;stroke:#000000;stroke-width:3.04036;stroke-linecap:round;stroke-linejoin:round;stroke-dasharray:none;paint-order:markers stroke fill"
       d="m 58.738264,245.28334 c -0.268065,0.0187 1.694023,-3.49157 0.930581,-4.39246 -0.446987,-0.52747 -3.331203,-0.18304 -3.877417,-0.18304 -33.416079,0 -30.719905,50.54152 -1.24077,45.572 13.906421,-2.34432 21.254148,-25.24984 9.150712,-39.53232 -0.72764,-0.85865 -3.735626,-1.25724 -4.963106,-1.46418 z"
       id="path7"
       sodipodi:nodetypes="cssssc" />
    <path
       style="opacity:0.98;fill:#800000;stroke:#000000;stroke-width:2.99789;stroke-linecap:round;stroke-linejoin:round;stroke-dasharray:none;paint-order:markers stroke fill"
       d="m 17.697703,247.04434 c 3.715841,11.54559 2.400316,23.0912 1.075682,34.6368 51.262072,18.99499 41.037446,-34.8483 15.419095,-17.8562 14.274119,-5.09182 9.77587,-15.81606 8.676077,-17.10327 -8.011432,-6.73838 -13.699387,-3.92469 -25.170854,0.32267 z"
       id="path2-6"
       sodipodi:nodetypes="ccccc" />
    <path
       style="opacity:0.98;fill:#ffffff;fill-opacity:1;stroke:#000000;stroke-width:3.6075;stroke-linecap:round;stroke-linejoin:round;stroke-dasharray:none;stroke-opacity:1;paint-order:markers stroke fill"
       d="m 46.97852,182.34842 0.241712,8.04114 h 7.831139 c -13.556925,10.37994 -8.370635,23.70485 0.342322,33.70261 l -8.239889,-0.0463 -0.1525,9.05715 42.268883,0.28671 -0.189833,-8.34875 H 81.93388 c 8.163785,-10.56243 12.235475,-23.13182 -2.310244,-33.69426 l 9.215006,0.0465 0.20438,-8.90126 z"
       id="path12"
       sodipodi:nodetypes="ccccccccccccc" />
    <path
       style="opacity:0.98;fill:#ffffff;fill-opacity:1;stroke:#000000;stroke-width:1.06184;stroke-linecap:round;stroke-linejoin:round;stroke-dasharray:none;stroke-opacity:1;paint-order:markers stroke fill"
       d="m 93.961976,32.736651 c 11.231914,0.887252 21.917354,-2.577064 23.845014,-14.085527 4.45855,-20.4030228 -35.187864,-23.9175597 -35.619354,0.393675 -0.24158,13.611103 2.50544,26.517295 15.73699,29.883005 11.133824,2.832097 9.550794,-15.212356 7.247424,-16.41559"
       id="path16-6-5-3"
       sodipodi:nodetypes="csssc" />
    <path
       style="opacity:0.98;fill:#ffffff;fill-opacity:1;stroke:#000000;stroke-width:3.6075;stroke-linecap:round;stroke-linejoin:round;stroke-dasharray:none;stroke-opacity:1;paint-order:markers stroke fill"
       d="m 103.84694,182.19634 0.24171,8.04114 h 7.83114 c -13.556926,10.37994 -8.37064,23.70485 0.34233,33.70261 l -8.23991,-0.0463 -0.15249,9.05715 42.26889,0.28671 -0.18984,-8.34875 h -7.14647 c 8.16379,-10.56243 12.23548,-23.13182 -2.31024,-33.69426 l 9.215,0.0464 0.20438,-8.90125 z"
       id="path12-9"
       sodipodi:nodetypes="ccccccccccccc" />
    <path
       style="opacity:0.98;fill:#ffffff;stroke:#000000;stroke-width:2.99789;stroke-linecap:round;stroke-linejoin:round;stroke-dasharray:none;paint-order:markers stroke fill"
       d="m 13.601982,247.60049 c 3.715841,11.5456 2.400316,23.0912 1.075682,34.6368 51.262061,18.99499 41.037446,-34.8483 15.419084,-17.8562 14.274119,-5.09182 9.775881,-15.81606 8.676077,-17.10326 -8.011421,-6.73839 -13.699376,-3.9247 -25.170843,0.32266 z"
       id="path2"
       sodipodi:nodetypes="ccccc" />
    <path
       style="opacity:0.98;fill:#ffffff;stroke:#000000;stroke-width:3.71167;stroke-linecap:round;stroke-linejoin:round;stroke-dasharray:none;paint-order:markers stroke fill"
       d="m 13.027534,181.92236 c 0.02198,5.7038 0.120652,7.02693 0.153486,10.2276 0.03512,3.42532 3.930316,1.20557 3.916119,1.83301 -0.221862,9.80816 0.09041,6.87342 0.974756,16.40751 0.08067,0.86999 -4.828606,-1.82288 -4.917398,-0.95306 -0.183397,1.79672 0.269266,17.29544 0.07455,19.09216 61.689524,24.1959 53.915759,-41.51251 23.086269,-19.86789 11.697928,-4.41694 12.919188,-12.16112 12.089954,-17.17034 -2.441693,-13.99544 -25.836316,-9.58921 -35.377691,-9.56899 z"
       id="path2-5"
       sodipodi:nodetypes="cssssccsc" />
    <path
       style="opacity:0.98;fill:#ffffff;stroke:#000000;stroke-width:3.73222;stroke-linecap:round;stroke-linejoin:round;stroke-dasharray:none;paint-order:markers stroke fill"
       d="m 108.04939,205.77634 c 11.7544,-4.29523 13.93779,-7.78879 13.18225,-12.8683 -2.2357,-14.1937 -25.678588,-10.08211 -35.213709,-10.20267 h -3.4e-5 c -0.0613,5.77022 0.01801,7.11014 0.0045,10.34836 -0.01496,3.46553 3.850349,1.27825 3.886673,1.91212 0.837834,14.62238 0.491875,-6.89316 0.953784,37.8469 l 19.154436,0.28326 z"
       id="path2-5-2"
       sodipodi:nodetypes="csccssccc" />
    <path
       style="opacity:0.98;fill:#ffffff;fill-opacity:1;stroke:#000000;stroke-width:1.06184;stroke-linecap:round;stroke-linejoin:round;stroke-dasharray:none;stroke-opacity:1;paint-order:markers stroke fill"
       d="M 29.499036,18.12154 C 18.253146,17.433745 7.6308701,21.087139 5.9077311,32.627998 1.8119471,53.106923 41.514486,55.917352 41.514486,31.60229 c 0,-13.613248 -2.97561,-26.4686561 -16.26481,-29.599033 -11.18232,-2.63407562 -9.27933,15.379449 -6.95497,16.541614"
       id="path16-6"
       sodipodi:nodetypes="csssc" />
    <path
       id="path16-6-5-3-2-4"
       style="opacity:0.98;fill:#000000;fill-opacity:1;stroke:#000000;stroke-width:7.23531;stroke-linecap:round;stroke-linejoin:round;stroke-dasharray:none;stroke-opacity:1;paint-order:markers stroke fill"
       d="m 182.22586,56.509672 c -5.44632,-0.02276 -10.98341,1.835336 -14.61765,5.827754 -1.01741,-3.402627 -3.40016,-5.945281 -8.0992,-4.838385 -4.18987,0.986954 -7.3528,2.942379 -9.72223,5.58171 -5.71861,-6.770243 -13.53694,-9.139206 -20.92314,-0.575437 -2.28037,-2.259053 -5.22412,-3.939249 -9.00563,-4.830012 -11.18231,-2.634076 -9.27947,15.379583 -6.9551,16.541747 l 3.42073,-0.129203 c -7.9982,1.19821 -14.49311,5.408191 -15.80761,14.212085 -3.133932,15.669679 19.3743,20.994529 30.11899,11.738859 3.11707,2.37195 7.02185,3.88597 11.6575,4.10662 3.86685,0.0823 6.92909,-0.77443 9.30312,-2.29617 6.79256,3.76691 16.18087,3.27856 22.05727,-0.77083 1.60519,0.98369 3.44386,1.76317 5.5502,2.29895 11.13382,2.8321 9.55078,-15.212497 7.24741,-16.415731 l -3.42192,0.0686 c 8.01783,-1.056251 14.58638,-5.150454 16.05684,-13.929347 2.29894,-10.520309 -7.12845,-16.550522 -16.85958,-16.591197 z m -19.18287,17.401914 0.42151,0.01597 c -2.1e-4,0.01559 1.9e-4,0.0311 0,0.04669 -0.13947,-0.02292 -0.28109,-0.04159 -0.42151,-0.06258 z" />
    <path
       style="opacity:0.98;fill:#ffffff;fill-opacity:1;stroke:#000000;stroke-width:1.2473;stroke-linecap:round;stroke-linejoin:round;stroke-dasharray:none;stroke-opacity:1;paint-order:markers stroke fill"
       d="m 51.718806,49.203449 c 33.8014,0.668356 6.86137,-64.651966 -14.85411,-37.117886 -11.48733,13.292428 -5.0248,36.238359 14.85411,37.117886 z"
       id="path17"
       sodipodi:nodetypes="scs" />
    <path
       style="opacity:0.98;fill:#ffffff;fill-opacity:1;stroke:#000000;stroke-width:1.06184;stroke-linecap:round;stroke-linejoin:round;stroke-dasharray:none;stroke-opacity:1;paint-order:markers stroke fill"
       d="m 70.180176,17.945241 c 11.24589,-0.687795 21.86816,2.965599 23.59129,14.506458 4.09579,20.478925 -35.60675,23.289354 -35.60675,-1.025708 0,-13.613248 2.97561,-26.4686562 16.26481,-29.5990331 11.18232,-2.63407556 9.27933,15.3794491 6.95497,16.5416141"
       id="path16-6-5"
       sodipodi:nodetypes="csssc" />
    <path
       style="opacity:1;fill:#ffffff;fill-opacity:1;stroke:#000000;stroke-width:1.06184;stroke-linecap:round;stroke-linejoin:round;stroke-dasharray:none;stroke-opacity:1;paint-order:markers stroke fill"
       d="m 175.16004,86.897001 c 11.23191,0.887252 21.91735,-2.577064 23.84501,-14.085521 4.45855,-20.403028 -35.18786,-23.917565 -35.61934,0.393675 -0.24158,13.611097 2.50543,26.517289 15.73699,29.882995 11.13382,2.8321 9.55078,-15.212352 7.24741,-16.415586"
       id="path16-6-5-3-2"
       sodipodi:nodetypes="csssc" />
    <path
       style="opacity:1;fill:#ffffff;fill-opacity:1;stroke:#000000;stroke-width:1.06184;stroke-linecap:round;stroke-linejoin:round;stroke-dasharray:none;stroke-opacity:1;paint-order:markers stroke fill"
       d="m 156.62996,73.328115 c 11.24589,-0.687795 21.86817,2.965599 23.5913,14.506451 4.09579,20.478924 -35.60675,23.289354 -35.60675,-1.025707 0,-13.613242 2.9756,-26.468653 16.26481,-29.599031 11.18232,-2.634074 9.27933,15.379453 6.95497,16.541618"
       id="path16-6-5-5"
       sodipodi:nodetypes="csssc" />
    <path
       style="opacity:1;fill:#ffffff;fill-opacity:1;stroke:#000000;stroke-width:1.29215;stroke-linecap:round;stroke-linejoin:round;stroke-dasharray:none;stroke-opacity:1;paint-order:markers stroke fill"
       d="m 142.21227,103.85605 c 33.75986,0.71816 6.85293,-69.469353 -14.83585,-39.883629 -11.47321,14.282869 -5.01863,38.938569 14.83585,39.883629 z"
       id="path17-2"
       sodipodi:nodetypes="scs" />
    <g
       id="g22"
       style="fill:#000000;stroke-width:11.1;stroke-dasharray:none"
       transform="matrix(0.77168453,0,0,0.77168453,53.897493,-62.706733)">
      <path
         style="fill:#000000;fill-opacity:1;stroke:#000000;stroke-width:11.1;stroke-linecap:round;stroke-linejoin:round;stroke-dasharray:none;stroke-opacity:1;paint-order:markers stroke fill"
         d="m 170.31385,300.00137 c 43.74826,0.93063 8.88048,-90.023 -19.22528,-51.68386 -14.86775,18.50869 -6.50347,50.45918 19.22528,51.68386 z"
         id="path17-2-3-8-3-7"
         sodipodi:nodetypes="scs" />
      <path
         style="fill:#000000;fill-opacity:1;stroke:#000000;stroke-width:11.1;stroke-linecap:round;stroke-linejoin:round;stroke-dasharray:none;stroke-opacity:1;paint-order:markers stroke fill"
         d="m 138.97966,277.25125 c 14.55505,1.14976 28.40195,-3.33953 30.89994,-18.25295 5.77769,-26.4396 -45.59876,-30.99397 -46.15791,0.51015 -0.31304,17.63816 3.24671,34.36286 20.39304,38.72437 14.42794,3.67002 12.37654,-19.71318 9.39168,-21.27241"
         id="path16-6-5-3-2-7-8-2"
         sodipodi:nodetypes="csssc" />
      <path
         style="fill:#000000;fill-opacity:1;stroke:#000000;stroke-width:11.1;stroke-linecap:round;stroke-linejoin:round;stroke-dasharray:none;stroke-opacity:1;paint-order:markers stroke fill"
         d="m 116.59435,297.68731 c 43.74825,0.93063 8.88047,-90.023 -19.225283,-51.68386 -14.86775,18.50869 -6.50347,50.45918 19.225283,51.68386 z"
         id="path17-2-3-2-9"
         sodipodi:nodetypes="scs" />
      <path
         style="fill:#000000;fill-opacity:1;stroke:#000000;stroke-width:11.1;stroke-linecap:round;stroke-linejoin:round;stroke-dasharray:none;stroke-opacity:1;paint-order:markers stroke fill"
         d="m 83.272117,258.33749 c 14.57317,-0.89129 28.338223,3.84302 30.571173,18.79842 5.30759,26.53795 -46.141603,30.17989 -46.141603,-1.32918 0,-17.64094 3.85599,-34.29984 21.07703,-38.35639 14.490793,-3.41341 12.024773,19.92972 9.01271,21.43573"
         id="path16-6-5-5-4-5-7"
         sodipodi:nodetypes="csssc" />
    </g>
    <path
       style="opacity:1;fill:#ffffff;fill-opacity:1;stroke:#000000;stroke-width:1.06184;stroke-linecap:round;stroke-linejoin:round;stroke-dasharray:none;stroke-opacity:1;paint-order:markers stroke fill"
       d="m 124.027,73.504414 c -11.24589,-0.687795 -21.86816,2.965599 -23.5913,14.506451 -4.095782,20.478925 35.60676,23.289355 35.60676,-1.025707 0,-13.613242 -2.97561,-26.468654 -16.26482,-29.59903 -11.18232,-2.634075 -9.27933,15.379452 -6.95496,16.541617"
       id="path16-6-8"
       sodipodi:nodetypes="csssc" />
    <path
       style="fill:#ffffff;fill-opacity:1;stroke:#000000;stroke-width:1.29215;stroke-linecap:round;stroke-linejoin:round;stroke-dasharray:none;stroke-opacity:1;paint-order:markers stroke fill"
       d="m 185.27436,168.54212 c 33.75985,0.71815 6.85293,-69.469359 -14.83585,-39.88364 -11.47321,14.28287 -5.01863,38.93857 14.83585,39.88364 z"
       id="path17-2-3-8-3"
       sodipodi:nodetypes="scs" />
    <path
       style="fill:#ffffff;fill-opacity:1;stroke:#000000;stroke-width:1.06184;stroke-linecap:round;stroke-linejoin:round;stroke-dasharray:none;stroke-opacity:1;paint-order:markers stroke fill"
       d="m 161.09425,150.9862 c 11.23191,0.88725 21.91735,-2.57706 23.84501,-14.08552 4.45855,-20.40303 -35.18786,-23.91756 -35.61935,0.39368 -0.24157,13.61109 2.50544,26.51728 15.73699,29.88299 11.13382,2.8321 9.55079,-15.21235 7.24742,-16.41559"
       id="path16-6-5-3-2-7-8"
       sodipodi:nodetypes="csssc" />
    <path
       style="fill:#ffffff;fill-opacity:1;stroke:#000000;stroke-width:1.29215;stroke-linecap:round;stroke-linejoin:round;stroke-dasharray:none;stroke-opacity:1;paint-order:markers stroke fill"
       d="m 143.81985,166.75639 c 33.75985,0.71816 6.85292,-69.469353 -14.83585,-39.88363 -11.47321,14.28287 -5.01862,38.93857 14.83585,39.88363 z"
       id="path17-2-3-2"
       sodipodi:nodetypes="scs" />
    <path
       style="fill:#ffffff;fill-opacity:1;stroke:#000000;stroke-width:1.06184;stroke-linecap:round;stroke-linejoin:round;stroke-dasharray:none;stroke-opacity:1;paint-order:markers stroke fill"
       d="m 118.1056,136.39075 c 11.24589,-0.6878 21.86817,2.96559 23.5913,14.50645 4.09579,20.47892 -35.60676,23.28935 -35.60676,-1.02571 0,-13.61324 2.97561,-26.46866 16.26482,-29.59903 11.18232,-2.63408 9.27933,15.37945 6.95497,16.54162"
       id="path16-6-5-5-4-5"
       sodipodi:nodetypes="csssc" />
  </g>
</svg>
