<?xml version="1.0" encoding="UTF-8" standalone="no"?>
<!-- Created with Inkscape (http://www.inkscape.org/) -->

<svg
   width="210mm"
   height="297mm"
   viewBox="0 0 210 297"
   version="1.1"
   id="svg1"
   inkscape:version="1.4 (86a8ad7, 2024-10-11)"
   sodipodi:docname="Sert2.svg"
   xmlns:inkscape="http://www.inkscape.org/namespaces/inkscape"
   xmlns:sodipodi="http://sodipodi.sourceforge.net/DTD/sodipodi-0.dtd"
   xmlns="http://www.w3.org/2000/svg"
   xmlns:svg="http://www.w3.org/2000/svg">
  <sodipodi:namedview
     id="namedview1"
     pagecolor="#ffffff"
     bordercolor="#000000"
     borderopacity="0.25"
     inkscape:showpageshadow="2"
     inkscape:pageopacity="0.0"
     inkscape:pagecheckerboard="0"
     inkscape:deskcolor="#d1d1d1"
     inkscape:document-units="mm"
     showguides="true"
     inkscape:lockguides="false"
     inkscape:zoom="0.69670057"
     inkscape:cx="543.99267"
     inkscape:cy="116.97995"
     inkscape:window-width="1260"
     inkscape:window-height="755"
     inkscape:window-x="37"
     inkscape:window-y="4"
     inkscape:window-maximized="0"
     inkscape:current-layer="layer15">
    <sodipodi:guide
       position="64.180488,296.62024"
       orientation="0,-1"
       id="guide1"
       inkscape:locked="false" />
    <sodipodi:guide
       position="67.788269,212.88179"
       orientation="0,-1"
       id="guide5"
       inkscape:locked="false" />
    <sodipodi:guide
       position="16.112115,287.0642"
       orientation="0,-1"
       id="guide30"
       inkscape:locked="false" />
  </sodipodi:namedview>
  <defs
     id="defs1" />
  <g
     inkscape:label="Layer 1"
     inkscape:groupmode="layer"
     id="layer1"
     sodipodi:insensitive="true"
     transform="translate(-50.12914,-2.2785973)"
     style="display:inline">
    <rect
       style="display:inline;fill:#4d4d4d;stroke:#000000;stroke-width:0.730001;stroke-linecap:round;stroke-linejoin:round;paint-order:fill markers stroke"
       id="rect1"
       width="2284.6733"
       height="1877.5641"
       x="-795.98999"
       y="-559.01587" />
  </g>
  <g
     inkscape:groupmode="layer"
     id="layer18"
     inkscape:label="Black outline "
     style="display:inline;fill:#000000;fill-opacity:1;stroke:#000000;stroke-width:7.3;stroke-dasharray:none;stroke-opacity:1"
     transform="translate(-15.27427,-116.14184)">
    <path
       id="path56-8-9"
       style="display:inline;fill:#000000;fill-opacity:1;stroke:#ffffff;stroke-width:7.9;stroke-linecap:round;stroke-linejoin:round;stroke-dasharray:none;stroke-opacity:1;paint-order:fill markers stroke"
       d="m 175.62277,9.85512 c -3.36085,0.14927 -7.2893,1.34276 -9.45937,3.40548 l 0.009,0.10645 0.20877,-0.009 c -0.0619,0.0538 -0.13742,0.1 -0.19688,0.15503 l 0.20102,2.48202 2.55357,22.49603 c 0.0383,0.23658 0.0427,0.003 0.0897,0.0121 l 0.044,-0.22063 c 4.03263,1.0099 8.41481,0.42173 12.50144,-1.80561 4.45527,-2.42827 7.3168,-6.38536 8.17521,-10.58023 0.73217,-3.19375 0.29805,-6.54495 -1.49913,-9.48056 -2.1193,-3.46177 -5.71546,-5.66618 -9.76633,-6.40013 -0.45638,-0.0827 -0.94693,-0.13579 -1.46141,-0.16071 -0.45017,-0.0218 -0.91876,-0.0218 -1.39888,-5.2e-4 z m -6.59286,28.84735 c -0.0391,-0.01 -0.0793,-0.0147 -0.11834,-0.0248 l -0.0233,-0.20308 c -0.2577,-0.0533 -0.48208,0.0226 -0.73112,-0.0417 l -1.7721,-22.43757 -0.28009,-2.42001 c 0.0234,-0.0223 0.0552,-0.0399 0.0791,-0.062 l -0.0119,-0.14625 -11.59826,0.51005 c -2.89904,-2.62889 -9.5874,-4.11058 -13.19092,-3.45767 -4.05087,0.73396 -7.64703,2.93784 -9.76633,6.39961 -0.15194,0.24819 -0.27461,0.50482 -0.40721,0.75861 -0.10997,0.11428 -0.2143,0.26221 -0.33745,0.54312 0.01,0.013 0.0185,0.0278 0.0284,0.0408 l 0.005,-5.1e-4 c -7.8e-4,0.002 -0.001,0.003 -0.002,0.005 0.78886,1.0402 1.51955,2.17876 2.15233,3.41788 0.2389,0.43291 0.46399,0.87977 0.67747,1.33739 -0.026,-0.004 -0.0302,-0.004 -0.0563,-0.008 -0.19445,-0.45423 -0.40107,-0.89814 -0.62115,-1.32912 -0.6597,-1.19539 -1.39973,-2.29747 -2.2009,-3.29489 0.018,-0.0406 0.0301,-0.0825 0.0486,-0.12299 -10e-4,-0.001 -0.002,-0.003 -0.003,-0.005 l -0.0589,0.01 c 0.0121,-0.0295 0.019,-0.0245 0.0305,-0.0506 -2.87741,-3.77569 -6.54151,-6.19087 -9.26713,-6.90191 -3.8807,-1.01236 -9.45226,3.06289 -13.49479,7.16546 0.13782,0.18742 0.26437,0.38546 0.39533,0.57981 -0.0299,0.0302 -0.0525,0.0592 -0.0822,0.0894 0.034,0.0464 0.0624,0.0984 0.0961,0.14521 l -0.045,-0.007 c 0,0 -0.20901,0.037 -0.21549,0.0382 0.0577,-0.0594 0.10595,-0.11732 0.16433,-0.17673 -0.13721,-0.1873 -0.2867,-0.36126 -0.43046,-0.54157 0.0422,-0.0432 0.0748,-0.0845 0.1173,-0.12764 -4.66405,-6.34271 -13.17259,-8.70017 -19.78018,-5.2126 -1.64058,0.86592 -3.07698,1.99063 -4.228167,3.31246 0.214661,0.0886 0.443142,0.1589 0.654227,0.25218 -0.213536,0.22575 -0.432292,0.44815 -0.627355,0.68678 l 0.02687,1.942 0.05271,0.78083 c -0.01383,-0.002 -0.02801,-0.005 -0.04186,-0.007 l -0.01085,-0.77359 -0.131775,-1.95802 c -0.05961,-0.0265 -0.122163,-0.0452 -0.181901,-0.0713 l -0.0078,-0.55862 c 0.08325,-0.10184 0.181011,-0.19348 0.267684,-0.293 -6.784261,-2.80095 -15.341283,-3.26155 -25.350908,-0.22376 0.268889,0.16039 0.534042,0.32899 0.795817,0.50488 -0.07274,0.0214 -0.141976,0.0381 -0.214973,0.0599 0.168508,0.1012 0.325249,0.22653 0.490926,0.33383 l -1.281576,0.20516 -0.0093,-0.3173 c 0.275108,-0.0864 0.528438,-0.14052 0.799952,-0.22169 -0.286924,-0.17231 -0.578677,-0.33042 -0.872815,-0.48472 0.09901,-0.0306 0.19324,-0.0501 0.291971,-0.0801 -4.437746,-2.6472 -9.784817,-3.17456 -14.227555,-0.90899 -0.38065,0.19412 -0.537282,0.2246 -1.013892,0.38757 l -0.0041,0.0207 1.8526,-0.002 c -0.09823,0.047 -0.200277,0.0816 -0.297656,0.13125 -0.38066,0.19412 -0.536765,0.22409 -1.013375,0.38706 l -2.607592,13.6002 -0.113172,0.20723 -0.605648,0.20205 -0.04547,0.23771 h -0.666109 l -1.607654,0.53692 c 0.340662,3.46323 2.456257,4.86494 0.181901,10.76524 l 7.52874,0.24598 c 0.254793,0.19076 0.506772,0.37685 0.763777,0.54828 l -0.121956,-0.27905 c 0.148727,0.0927 0.295703,0.17022 0.4439,0.25735 -0.0083,0.0677 -0.01649,0.13439 -0.0248,0.20205 -0.09929,-0.0635 -0.19788,-0.11414 -0.29714,-0.18035 l 0.03307,0.076 -8.507491,-0.35709 c 0.07777,-0.18856 0.112544,-0.33321 0.181901,-0.51314 l -0.718819,-0.0238 c 2.62805,-6.37181 0.35106,-7.70954 0,-11.27838 h 2.144572 l 0.711584,-0.23771 2.348178,-12.24783 0.959114,-1.78955 -0.6165,0.002 0.09405,-0.49041 -19.979142,0.0212 c -2.229088,8.92956 -4.761594,17.6161 -1.854667,30.65446 0.473367,2.12319 1.119713,4.38496 1.906344,6.75876 0.03411,-0.044 0.06456,-0.0909 0.09922,-0.13436 0.07901,0.2476 0.137142,0.46588 0.228927,0.73174 l 1.199927,-2.23914 c 1.246405,-1.12349 2.718443,-2.01763 4.409033,-2.57865 3.85239,-1.27843 8.022044,-0.64327 11.591024,1.4087 1.12997,0.64967 2.315263,1.71224 3.403409,2.96932 0.510088,-0.0745 1.011317,-0.20163 1.517737,-0.29817 -0.0206,0.21603 -0.05332,0.47769 -0.07286,0.68936 -0.288981,0.049 -0.556579,0.12263 -0.854729,0.16434 l 0.109554,0.31264 c -0.229672,-0.29743 -0.458104,-0.58906 -0.699699,-0.86817 -0.06213,0.009 -0.124882,0.0145 -0.187068,0.0233 -0.803987,-1.0209 -1.700385,-1.89277 -2.679423,-2.45567 -3.56898,-2.05197 -7.738634,-2.68713 -11.591024,-1.4087 -2.5923,0.86026 -4.684825,2.48483 -6.193937,4.56975 -0.105031,-0.30483 -0.180522,-0.58579 -0.280086,-0.88625 -3.034258,3.91057 -3.887962,9.6196 -1.743047,15.13758 1.019917,2.62383 2.595283,4.88001 4.505152,6.66316 4.109979,4.1809 9.993219,6.05 15.286922,4.29327 1.817521,-0.60314 3.911663,-1.46332 5.278231,-2.67063 l 0.08733,-0.19947 0.0217,-0.42117 -0.561206,-0.009 0.905371,-6.66316 0.215491,-4.17804 c 0.100992,0.0692 0.216258,0.13816 0.324011,0.20722 l -0.539502,3.97082 -0.344165,6.67246 0.161231,0.003 -0.182935,0.41858 -0.0072,0.13952 c -0.02368,0.0216 -0.05595,0.0386 -0.0801,0.0599 l -0.01137,0.0264 13.346472,0.13488 5.17e-4,0.0155 27.825172,0.61908 -0.0393,-0.57981 c -0.0201,-0.0211 -0.0453,-0.0402 -0.0651,-0.0615 l 0.0615,0.002 -0.001,-0.0134 c 0.0195,0.005 0.0345,0.009 0.0537,0.0145 l -0.0527,-10e-4 0.004,0.0599 c 0.0847,0.0889 0.18513,0.17032 0.27544,0.25684 l -0.17829,0.20412 c 2.59682,2.92384 8.30801,4.6235 12.00186,4.27261 2.88826,-0.27438 5.60184,-1.31075 7.80055,-3.03444 4.35063,4.04235 11.39716,4.77094 17.56689,1.30483 1.74793,-0.98198 3.2615,-2.22433 4.53616,-3.62666 0.003,0.004 0.006,0.008 0.009,0.0124 l -0.0408,0.0377 c 3.96927,5.7997 12.1443,7.29269 19.25309,3.29902 2.82072,-1.58466 5.05775,-3.82761 6.59702,-6.3748 0.29659,0.46577 0.62254,0.91286 0.96014,1.35185 3.40087,5.42585 9.11859,8.26204 15.70447,8.26203 9.29098,0 16.91748,-6.88761 18.6185,-16.43414 0.27047,-1.40111 0.4191,-2.85845 0.4191,-4.36407 0,-11.55973 -11.92577,-21.66659 -22.46736,-21.71599 z m -127.783949,-8.56693 -0.02325,0.13798 -0.136425,0.24959 h -0.199471 c 0.10179,-0.14552 0.218298,-0.27774 0.359151,-0.38757 z"
       sodipodi:nodetypes="cccccccccscssscccccccccccssccccccccccccccscccccccccsccccccccccccccccccccsccccccccccccccccccccccccccccccscccccsccccccccsccscsccccccccccccccccccccccccccscscccsccscsccccccsc"
       transform="translate(15.27427,116.14184)" />
    <path
       id="path56-8"
       style="display:inline;fill:#000000;fill-opacity:1;stroke:#000000;stroke-width:7.3;stroke-linecap:round;stroke-linejoin:round;stroke-dasharray:none;stroke-opacity:1;paint-order:fill markers stroke"
       d="m 190.89704,125.99696 c -3.36085,0.14927 -7.2893,1.34276 -9.45937,3.40548 l 0.009,0.10645 0.20877,-0.009 c -0.0619,0.0538 -0.13742,0.1 -0.19688,0.15503 l 0.20102,2.48202 2.55357,22.49603 c 0.0383,0.23658 0.0427,0.003 0.0897,0.0121 l 0.044,-0.22063 c 4.03263,1.0099 8.41481,0.42173 12.50144,-1.80561 4.45527,-2.42827 7.3168,-6.38536 8.17521,-10.58023 0.73217,-3.19375 0.29805,-6.54495 -1.49913,-9.48056 -2.1193,-3.46177 -5.71546,-5.66618 -9.76633,-6.40013 -0.45638,-0.0827 -0.94693,-0.13579 -1.46141,-0.16071 -0.45017,-0.0218 -0.91876,-0.0218 -1.39888,-5.2e-4 z m -6.59286,28.84735 c -0.0391,-0.01 -0.0793,-0.0147 -0.11834,-0.0248 l -0.0233,-0.20308 c -0.2577,-0.0533 -0.48208,0.0226 -0.73112,-0.0417 l -1.7721,-22.43757 -0.28009,-2.42001 c 0.0234,-0.0223 0.0552,-0.0399 0.0791,-0.062 l -0.0119,-0.14625 -11.59826,0.51005 c -2.89904,-2.62889 -9.5874,-4.11058 -13.19092,-3.45767 -4.05087,0.73396 -7.64703,2.93784 -9.76633,6.39961 -0.15194,0.24819 -0.27461,0.50482 -0.40721,0.75861 -0.10997,0.11428 -0.2143,0.26221 -0.33745,0.54312 0.01,0.013 0.0185,0.0278 0.0284,0.0408 l 0.005,-5.1e-4 c -7.8e-4,0.002 -0.001,0.003 -0.002,0.005 0.78886,1.0402 1.51955,2.17876 2.15233,3.41788 0.2389,0.43291 0.46399,0.87977 0.67747,1.33739 -0.026,-0.004 -0.0302,-0.004 -0.0563,-0.008 -0.19445,-0.45423 -0.40107,-0.89814 -0.62115,-1.32912 -0.6597,-1.19539 -1.39973,-2.29747 -2.2009,-3.29489 0.018,-0.0406 0.0301,-0.0825 0.0486,-0.12299 -10e-4,-0.001 -0.002,-0.003 -0.003,-0.005 l -0.0589,0.01 c 0.0121,-0.0295 0.019,-0.0245 0.0305,-0.0506 -2.87741,-3.77569 -6.54151,-6.19087 -9.26713,-6.90191 -3.8807,-1.01236 -9.45226,3.06289 -13.49479,7.16546 0.13782,0.18742 0.26437,0.38546 0.39533,0.57981 -0.0299,0.0302 -0.0525,0.0592 -0.0822,0.0894 0.034,0.0464 0.0624,0.0984 0.0961,0.14521 l -0.045,-0.007 c 0,0 -0.20901,0.037 -0.21549,0.0382 0.0577,-0.0594 0.10595,-0.11732 0.16433,-0.17673 -0.13721,-0.1873 -0.2867,-0.36126 -0.43046,-0.54157 0.0422,-0.0432 0.0748,-0.0845 0.1173,-0.12764 -4.66405,-6.34271 -13.17259,-8.70017 -19.78018,-5.2126 -1.64058,0.86592 -3.07698,1.99063 -4.228167,3.31246 0.214661,0.0886 0.443142,0.1589 0.654227,0.25218 -0.213536,0.22575 -0.432292,0.44815 -0.627355,0.68678 l 0.02687,1.942 0.05271,0.78083 c -0.01383,-0.002 -0.02801,-0.005 -0.04186,-0.007 l -0.01085,-0.77359 -0.131775,-1.95802 c -0.05961,-0.0265 -0.122163,-0.0452 -0.181901,-0.0713 l -0.0078,-0.55862 c 0.08325,-0.10184 0.181011,-0.19348 0.267684,-0.293 -6.784261,-2.80095 -15.341283,-3.26155 -25.350908,-0.22376 0.268889,0.16039 0.534042,0.32899 0.795817,0.50488 -0.07274,0.0214 -0.141976,0.0381 -0.214973,0.0599 0.168508,0.1012 0.325249,0.22653 0.490926,0.33383 l -1.281576,0.20516 -0.0093,-0.3173 c 0.275108,-0.0864 0.528438,-0.14052 0.799952,-0.22169 -0.286924,-0.17231 -0.578677,-0.33042 -0.872815,-0.48472 0.09901,-0.0306 0.19324,-0.0501 0.291971,-0.0801 -4.437746,-2.6472 -9.784817,-3.17456 -14.227555,-0.90899 -0.38065,0.19412 -0.537282,0.2246 -1.013892,0.38757 l -0.0041,0.0207 1.8526,-0.002 c -0.09823,0.047 -0.200277,0.0816 -0.297656,0.13125 -0.38066,0.19412 -0.536765,0.22409 -1.013375,0.38706 l -2.607592,13.6002 -0.113172,0.20723 -0.605648,0.20205 -0.04547,0.23771 h -0.666109 l -1.607654,0.53692 c 0.340662,3.46323 2.456257,4.86494 0.181901,10.76524 l 7.52874,0.24598 c 0.254793,0.19076 0.506772,0.37685 0.763777,0.54828 l -0.121956,-0.27905 c 0.148727,0.0927 0.295703,0.17022 0.4439,0.25735 -0.0083,0.0677 -0.01649,0.13439 -0.0248,0.20205 -0.09929,-0.0635 -0.19788,-0.11414 -0.29714,-0.18035 l 0.03307,0.076 -8.507491,-0.35709 c 0.07777,-0.18856 0.112544,-0.33321 0.181901,-0.51314 l -0.718819,-0.0238 c 2.62805,-6.37181 0.35106,-7.70954 0,-11.27838 h 2.144572 l 0.711584,-0.23771 2.348178,-12.24783 0.959114,-1.78955 -0.6165,0.002 0.09405,-0.49041 -19.979142,0.0212 c -2.229088,8.92956 -4.761594,17.6161 -1.854667,30.65446 0.473367,2.12319 1.119713,4.38496 1.906344,6.75876 0.03411,-0.044 0.06456,-0.0909 0.09922,-0.13436 0.07901,0.2476 0.137142,0.46588 0.228927,0.73174 l 1.199927,-2.23914 c 1.246405,-1.12349 2.718443,-2.01763 4.409033,-2.57865 3.85239,-1.27843 8.022044,-0.64327 11.591024,1.4087 1.12997,0.64967 2.315263,1.71224 3.403409,2.96932 0.510088,-0.0745 1.011317,-0.20163 1.517737,-0.29817 -0.0206,0.21603 -0.05332,0.47769 -0.07286,0.68936 -0.288981,0.049 -0.556579,0.12263 -0.854729,0.16434 l 0.109554,0.31264 c -0.229672,-0.29743 -0.458104,-0.58906 -0.699699,-0.86817 -0.06213,0.009 -0.124882,0.0145 -0.187068,0.0233 -0.803987,-1.0209 -1.700385,-1.89277 -2.679423,-2.45567 -3.56898,-2.05197 -7.738634,-2.68713 -11.591024,-1.4087 -2.5923,0.86026 -4.684825,2.48483 -6.193937,4.56975 -0.105031,-0.30483 -0.180522,-0.58579 -0.280086,-0.88625 -3.034258,3.91057 -3.887962,9.6196 -1.743047,15.13758 1.019917,2.62383 2.595283,4.88001 4.505152,6.66316 4.109979,4.1809 9.993219,6.05 15.286922,4.29327 1.817521,-0.60314 3.911663,-1.46332 5.278231,-2.67063 l 0.08733,-0.19947 0.0217,-0.42117 -0.561206,-0.009 0.905371,-6.66316 0.215491,-4.17804 c 0.100992,0.0692 0.216258,0.13816 0.324011,0.20722 l -0.539502,3.97082 -0.344165,6.67246 0.161231,0.003 -0.182935,0.41858 -0.0072,0.13952 c -0.02368,0.0216 -0.05595,0.0386 -0.0801,0.0599 l -0.01137,0.0264 13.346472,0.13488 5.17e-4,0.0155 27.825172,0.61908 -0.0393,-0.57981 c -0.0201,-0.0211 -0.0453,-0.0402 -0.0651,-0.0615 l 0.0615,0.002 -10e-4,-0.0134 c 0.0195,0.005 0.0345,0.009 0.0537,0.0145 l -0.0527,-0.001 0.004,0.0599 c 0.0847,0.0889 0.18513,0.17032 0.27544,0.25684 l -0.17829,0.20412 c 2.59682,2.92384 8.30801,4.6235 12.00186,4.27261 2.88826,-0.27438 5.60184,-1.31075 7.80055,-3.03444 4.35063,4.04235 11.39716,4.77094 17.56689,1.30483 1.74793,-0.98198 3.2615,-2.22433 4.53616,-3.62666 0.003,0.004 0.006,0.008 0.009,0.0124 l -0.0408,0.0377 c 3.96927,5.7997 12.1443,7.29269 19.25309,3.29902 2.82072,-1.58466 5.05775,-3.82761 6.59702,-6.3748 0.29659,0.46577 0.62254,0.91286 0.96014,1.35185 3.40087,5.42585 9.11859,8.26204 15.70447,8.26203 9.29098,0 16.91748,-6.88761 18.6185,-16.43414 0.27047,-1.40111 0.4191,-2.85845 0.4191,-4.36407 0,-11.55973 -11.92577,-21.66659 -22.46736,-21.71599 z m -127.783949,-8.56693 -0.02325,0.13798 -0.136425,0.24959 h -0.199471 c 0.10179,-0.14552 0.218298,-0.27774 0.359151,-0.38757 z"
       sodipodi:nodetypes="cccccccccscssscccccccccccssccccccccccccccscccccccccsccccccccccccccccccccsccccccccccccccccccccccccccccccscccccsccccccccsccscsccccccccccccccccccccccccccscscccsccscsccccccsc" />
  </g>
  <g
     inkscape:groupmode="layer"
     id="layer13"
     inkscape:label="SERT"
     style="display:inline">
    <g
       inkscape:groupmode="layer"
       id="layer17"
       inkscape:label="T"
       transform="translate(-39.366727,-10.231329)"
       style="fill:#ffffff;fill-opacity:1">
      <path
         style="fill:#9a1a1a;fill-opacity:1;stroke:none;stroke-width:1.7828;stroke-linecap:round;stroke-linejoin:round;stroke-dasharray:none;stroke-opacity:1;paint-order:fill markers stroke"
         d="m 192.6836,23.928861 15.12159,-0.664591 0.46671,53.357153 -15.68164,-0.379766 z"
         id="path47"
         sodipodi:nodetypes="ccccc" />
      <g
         id="path49"
         style="display:inline;fill:#9a1a1a;fill-opacity:1;stroke:none"
         transform="translate(7.2043787,14.224464)">
        <path
           style="fill:#9a1a1a;fill-opacity:1;stroke:none;stroke-width:1.798;stroke-linecap:round;stroke-linejoin:round;stroke-dasharray:none;stroke-opacity:1;paint-order:fill markers stroke"
           d="m 200.75951,36.070342 c 10.56056,4e-6 22.54542,10.132472 22.54542,21.720555 0,11.588083 -8.41862,20.483635 -18.97919,20.483639 -10.56057,4e-6 -21.16967,-9.611022 -19.12161,-20.982082"
           id="path50"
           sodipodi:nodetypes="cssc" />
      </g>
      <path
         id="path38-8-4-9-8-2"
         style="fill:#9a1a1a;fill-opacity:1;stroke:none;stroke-width:1.798;stroke-linecap:round;stroke-linejoin:round;stroke-dasharray:none;stroke-opacity:1;paint-order:fill markers stroke"
         d="m 193.58821,47.384865 c -1.2788,0.119054 -1.03169,0.102306 -1.17287,0.151117 -4.45647,1.540702 -10.68559,1.516762 -15.22225,-0.955866 -7.74633,-4.222001 -10.7089,-13.062847 -6.61711,-19.74656 2.1193,-3.461771 5.71537,-5.665884 9.76624,-6.399842 3.65103,-0.661516 10.48544,0.86307 13.31983,3.557226"
         sodipodi:nodetypes="cssssc" />
      <path
         id="path38-8-4-9-8-2-4"
         style="fill:#9a1a1a;fill-opacity:1;stroke:none;stroke-width:1.798;stroke-linecap:round;stroke-linejoin:round;stroke-dasharray:none;stroke-opacity:1;paint-order:fill markers stroke"
         d="m 207.10844,47.767814 c 4.06464,1.048262 9.35679,0.658445 13.48305,-1.590501 7.74633,-4.222001 10.7089,-13.062847 6.61711,-19.74656 -2.1193,-3.461771 -5.71537,-5.665884 -9.76624,-6.399842 -3.65103,-0.661516 -9.48518,0.549943 -12.31957,3.244099"
         sodipodi:nodetypes="csssc" />
      <path
         style="display:inline;fill:#c83737;fill-opacity:1;stroke:none;stroke-width:2.3;stroke-linecap:round;stroke-linejoin:round;stroke-dasharray:none;stroke-opacity:1;paint-order:fill markers stroke"
         d="m 195.78852,78.976354 c 0,0 10.07007,4.296566 13.82956,1.879748 3.75949,-2.416818 2.95389,4.02803 4.9679,4.02803 2.01402,0 4.5651,-5.77351 6.98192,-5.77351 2.41682,0 5.90778,2.148282 6.04204,3.088156 0.13427,0.939874 -0.93987,3.49096 -1.34267,4.296563 -0.4028,0.805606 -6.31058,4.5651 -7.92179,5.102172 -1.61121,0.53707 -9.80154,1.208408 -10.47288,1.342676 -0.67133,0.134268 -9.9358,-4.430831 -9.9358,-4.430831 l -2.01402,-3.490961 c 0,0 -0.26853,-2.416815 -0.13426,-2.953887 0.13426,-0.53707 0,-3.088156 0,-3.088156 z"
         id="path74"
         inkscape:label="T wave " />
      <g
         inkscape:groupmode="layer"
         id="g56"
         inkscape:label="T outline "
         transform="translate(-0.05860796,0.31460888)"
         style="display:inline;fill:#ffffff;fill-opacity:1">
        <path
           style="fill:none;fill-opacity:1;stroke:#000000;stroke-width:1.798;stroke-linecap:round;stroke-linejoin:round;stroke-dasharray:none;stroke-opacity:1;paint-order:fill markers stroke"
           d="m 193.86001,24.063129 11.18386,-0.608976 m -12.34167,40.881338 0.78078,-16.66403"
           id="path52"
           sodipodi:nodetypes="cccc" />
        <g
           id="g54"
           style="fill:none"
           transform="translate(7.2043787,14.224464)">
          <path
             style="fill:none;stroke:#000000;stroke-width:1.798;stroke-linecap:round;stroke-linejoin:round;stroke-dasharray:none;stroke-opacity:1;paint-order:fill markers stroke"
             d="m 201.24573,34.962224 c 10.56056,4e-6 22.0592,11.24059 22.0592,22.828673 0,11.588083 -8.41862,20.483635 -18.97919,20.483639 -7.15983,3e-6 -13.30139,-3.343595 -16.5463,-9.732434"
             id="path54"
             sodipodi:nodetypes="cssc" />
        </g>
        <path
           id="path55"
           style="fill:none;fill-opacity:1;stroke:#000000;stroke-width:1.798;stroke-linecap:round;stroke-linejoin:round;stroke-dasharray:none;stroke-opacity:1;paint-order:fill markers stroke"
           d="m 193.58821,47.384865 c -1.2788,0.119054 -1.03169,0.102306 -1.17287,0.151117 -4.45647,1.540702 -10.68559,1.516761 -15.22225,-0.955866 -1.37777,-0.750929 -1.32081,-0.864704 -2.38314,-1.869737 m -4.95026,-16.839347 c 0.25232,-0.616792 0.35631,-0.449463 0.71629,-1.037476 2.11931,-3.461768 5.71537,-5.665884 9.76624,-6.399842 3.65103,-0.661516 10.48544,0.86307 13.31983,3.557226"
           sodipodi:nodetypes="cssccssc" />
        <path
           id="path56"
           style="fill:none;fill-opacity:1;stroke:#000000;stroke-width:1.798;stroke-linecap:round;stroke-linejoin:round;stroke-dasharray:none;stroke-opacity:1;paint-order:fill markers stroke"
           d="m 208.71767,48.171195 c 4.06464,1.048262 7.47902,0.792135 11.60528,-1.456811 7.74633,-4.222001 10.97744,-13.599918 6.88565,-20.283631 -2.1193,-3.461771 -5.71537,-5.665884 -9.76624,-6.399842 -3.65103,-0.661516 -9.48518,0.549943 -12.31957,3.244099"
           sodipodi:nodetypes="csssc" />
      </g>
    </g>
    <g
       inkscape:groupmode="layer"
       id="layer16"
       inkscape:label="R"
       style="fill:#ffffff;fill-opacity:1">
      <path
         style="fill:#9a1a1a;fill-opacity:1;stroke:none;stroke-width:1.798;stroke-linecap:round;stroke-linejoin:round;stroke-dasharray:none;stroke-opacity:1;paint-order:fill markers stroke"
         d="m 153.22043,40.003849 -19.13314,-1.879745 c 4.29656,-15.172243 -6.71338,-25.51085 -12.88969,-27.122062 -6.17632,-1.611212 -16.64919,9.66727 -18.39467,13.426763 -1.74548,3.759493 10.87568,25.913651 10.87568,25.913651 l -0.4028,15.575046 13.42676,0.134268 2.55109,-15.172243 8.19032,-0.402802 c -0.65543,0.368301 0.045,1.110814 0.0241,2.55145 l 0.1102,11.680918 13.42676,0.537071 c 1.27246,-9.777961 2.33221,-15.188852 2.21539,-25.242315 z"
         id="path44"
         sodipodi:nodetypes="ccssccccccccc" />
      <path
         id="path38-8-4-9-8"
         style="fill:#9a1a1a;fill-opacity:1;stroke:none;stroke-width:1.798;stroke-linecap:round;stroke-linejoin:round;stroke-dasharray:none;stroke-opacity:1;paint-order:fill markers stroke"
         d="m 152.64069,53.74188 c 1.42082,1.175762 2.58966,2.701763 3.4575,4.446684 3.48985,7.016815 0.0837,16.207957 -7.60781,20.528993 -7.69152,4.321045 -16.75582,2.135666 -20.24567,-4.881147 -1.80754,-3.634294 -1.76513,-7.851882 -0.23551,-11.673987 1.37864,-3.444851 5.50374,-7.744667 9.29189,-8.715316"
         sodipodi:nodetypes="cssssc" />
      <path
         id="path38-8-4-9-8-6"
         style="fill:#9a1a1a;fill-opacity:1;stroke:none;stroke-width:1.798;stroke-linecap:round;stroke-linejoin:round;stroke-dasharray:none;stroke-opacity:1;paint-order:fill markers stroke"
         d="m 128.88337,54.01942 c 1.42082,1.175762 2.58966,2.701763 3.4575,4.446684 3.48985,7.016815 0.0837,16.207957 -7.60781,20.528993 -7.69152,4.321045 -16.75582,2.135666 -20.24567,-4.881147 -1.80754,-3.634294 -1.76513,-7.851882 -0.23551,-11.673987 1.37864,-3.444851 5.50374,-7.744667 9.29189,-8.715316"
         sodipodi:nodetypes="cssssc" />
      <path
         style="display:inline;fill:#c83737;fill-opacity:1;stroke:none;stroke-width:2.3;stroke-linecap:round;stroke-linejoin:round;stroke-dasharray:none;stroke-opacity:1;paint-order:fill markers stroke"
         d="m 111.44213,70.356237 c 0,0 10.20434,1.879748 12.21836,-0.134265 2.01401,-2.014017 6.71338,-3.625229 8.05606,-2.014017 1.34267,1.611212 4.5651,4.162298 8.72739,2.416818 4.1623,-1.74548 5.50497,-4.699368 8.86166,-3.088156 3.3567,1.611212 8.19033,1.208408 8.19033,1.208408 l -4.1623,6.579116 -2.14828,3.088156 c 0,0 -6.04204,1.208407 -6.71338,1.611209 -0.67134,0.402804 -6.71338,1.476946 -6.71338,1.476946 l -5.57211,-2.81962 -2.48395,-1.812613 c 0,0 -3.89376,3.021022 -5.10217,3.692359 -1.20841,0.671338 -5.37071,1.476944 -5.37071,1.476944 h -6.71338 l -4.16229,-2.685354 -0.26854,-1.074139 2.14828,-2.685355 1.20841,-3.088155 z"
         id="path73"
         sodipodi:nodetypes="csssscccscccsccccccc"
         inkscape:label="R wave " />
      <g
         inkscape:groupmode="layer"
         id="g60"
         inkscape:label="R outline "
         style="fill:#ffffff;fill-opacity:1"
         transform="translate(0.35277711,0.625382)">
        <path
           style="fill:none;fill-opacity:1;stroke:#000000;stroke-width:1.798;stroke-linecap:round;stroke-linejoin:round;stroke-dasharray:none;stroke-opacity:1;paint-order:fill markers stroke"
           d="m 128.88867,53.89533 0.36499,-3.015803 8.19032,-0.53707 c -0.67057,0.371329 0.7425,-0.572763 0.0241,2.685718 m 15.26125,0.727561 c 0.74554,-5.606607 0.5732,-6.686618 0.4911,-13.751887 l -19.13314,-1.879745 c 4.29656,-15.172243 -6.71338,-25.51085 -12.88969,-27.122062 -6.17632,-1.611212 -16.64919,9.66727 -18.39467,13.426763 -1.74548,3.759493 10.87568,25.913651 10.87568,25.913651 l -0.0858,3.318176"
           id="path57"
           sodipodi:nodetypes="cccccccsscc" />
        <path
           id="path58"
           style="fill:none;fill-opacity:1;stroke:#000000;stroke-width:1.798;stroke-linecap:round;stroke-linejoin:round;stroke-dasharray:none;stroke-opacity:1;paint-order:fill markers stroke"
           d="m 152.70782,53.842581 c 1.42082,1.175762 2.52253,2.601062 3.39037,4.345983 3.48985,7.016815 0.0837,16.207954 -7.60781,20.528993 -7.10879,3.993674 -15.28343,2.500663 -19.2527,-3.299041 m 1.81377,-19.657123 c 1.69945,-1.705444 4.20783,-1.765174 6.16299,-2.291521 0.0289,-0.0078 0.0578,-0.01537 0.0866,-0.02276"
           sodipodi:nodetypes="cssccsc" />
        <path
           id="path59"
           style="fill:none;fill-opacity:1;stroke:#000000;stroke-width:1.798;stroke-linecap:round;stroke-linejoin:round;stroke-dasharray:none;stroke-opacity:1;paint-order:fill markers stroke"
           d="m 128.88337,54.01942 c 1.42082,1.175762 2.58966,2.701763 3.4575,4.446684 3.48985,7.016815 0.0837,16.207957 -7.60781,20.528993 -7.69152,4.321045 -16.75582,2.135666 -20.24567,-4.881147 -1.80754,-3.634294 -1.76513,-7.851882 -0.23551,-11.673987 1.37864,-3.444851 5.50374,-7.744667 9.29189,-8.715316"
           sodipodi:nodetypes="cssssc" />
        <path
           style="fill:#000000;fill-opacity:1;stroke:#000000;stroke-width:1.798;stroke-linecap:round;stroke-linejoin:round;stroke-dasharray:none;stroke-opacity:1;paint-order:fill markers stroke"
           d="M 124.61154,35.316224 113.6016,20.009715 c 0,0 4.96789,-6.444847 11.94981,2.551084 6.98192,8.995931 -0.93987,12.755425 -0.93987,12.755425 z"
           id="path60"
           sodipodi:nodetypes="ccsc" />
      </g>
    </g>
    <g
       inkscape:groupmode="layer"
       id="layer15"
       inkscape:label="E"
       style="fill:#ffffff;fill-opacity:1"
       transform="matrix(1,0,0,0.94775001,-9.946984,2.4997389)">
      <path
         style="fill:#9a1a1a;fill-opacity:1;stroke:none;stroke-width:1.8469;stroke-linecap:round;stroke-linejoin:round;stroke-dasharray:none;stroke-opacity:1;paint-order:fill markers stroke"
         d="M 94.360721,14.818784 C 87.353748,11.529921 78.360939,10.931813 67.777088,14.439019 l 1.708949,63.041189 40.445103,0.949415 C 100.99677,72.151304 95.216642,61.446772 83.917153,62.859209 c 1.496947,-3.228013 1.284617,-6.456025 0,-9.684038 6.314315,3.039184 9.414126,2.775677 12.769636,1.376653 l 1.661476,-16.187535 c -4.430309,-1.510831 -9.194204,-2.116212 -15.380533,1.139298 0.804814,-2.069458 1.713085,-4.129077 -0.189881,-6.456026 3.860956,2.806078 8.19662,2.533385 12.057576,0.279591 z"
         id="path43"
         sodipodi:nodetypes="cccccccccccc" />
      <path
         id="path38-8-4-8"
         style="fill:#9a1a1a;fill-opacity:1;stroke:none;stroke-width:1.8469;stroke-linecap:round;stroke-linejoin:round;stroke-dasharray:none;stroke-opacity:1;paint-order:fill markers stroke"
         d="m 94.334933,37.445213 c 0.274977,-0.270605 0.57753,-0.550734 0.915525,-0.865579 5.044892,-4.699359 13.228562,-4.05354 18.278742,1.442489 5.05018,5.496016 5.05445,13.761014 0.01,18.460373 -2.61296,2.433992 -6.06795,3.434069 -9.49345,3.069002 -3.0874,-0.329035 -6.99389,-1.820093 -8.706291,-4.550119"
         sodipodi:nodetypes="cssssc" />
      <path
         id="path38-8-4"
         style="fill:#9a1a1a;fill-opacity:1;stroke:none;stroke-width:1.8469;stroke-linecap:round;stroke-linejoin:round;stroke-dasharray:none;stroke-opacity:1;paint-order:fill markers stroke"
         d="m 93.373798,14.835724 c 1.188937,-1.534668 2.731828,-2.821704 4.495931,-3.804153 7.093951,-3.9507037 16.383761,-0.798646 20.749381,7.040331 4.36563,7.838962 2.15386,17.396387 -4.94008,21.347091 -3.67425,2.046232 -7.93757,2.187053 -11.80067,0.75813 -3.265171,-1.207756 -6.171037,-3.103207 -8.253519,-6.271433"
         sodipodi:nodetypes="cssssc" />
      <path
         id="path38-8-4-9"
         style="fill:#9a1a1a;fill-opacity:1;stroke:none;stroke-width:1.8469;stroke-linecap:round;stroke-linejoin:round;stroke-dasharray:none;stroke-opacity:1;paint-order:fill markers stroke"
         d="m 90.610442,63.475153 c 0.395101,-1.900703 1.216914,-3.734169 2.371146,-5.390977 4.641483,-6.662495 14.372392,-7.905689 21.734602,-2.776746 7.36221,5.128925 9.56778,14.687784 4.9263,21.350274 -2.40401,3.45078 -6.17333,5.44776 -10.2717,5.858551 -3.69386,0.370244 -9.404876,-1.42317 -12.001694,-4.508209"
         sodipodi:nodetypes="cssssc" />
      <path
         style="display:inline;fill:#c83737;fill-opacity:1;stroke:none;stroke-width:2.36255;stroke-linecap:round;stroke-linejoin:round;stroke-dasharray:none;stroke-opacity:1;paint-order:fill markers stroke"
         d="m 78.494783,69.388801 c 0,0 8.354857,5.309313 13.101934,3.405974 4.74708,-1.903339 8.639683,-5.910368 11.772753,-3.606326 3.13307,2.304043 6.55097,5.409491 8.35486,3.105448 1.80389,-2.30404 1.89883,-4.908609 4.27237,-4.70826 2.37353,0.200352 5.69649,4.307559 5.79143,4.808437 0.0949,0.500879 -2.56342,6.511422 -2.56342,6.511422 0,0 -4.08249,3.105447 -4.93696,3.305799 -0.85448,0.200352 -7.12062,1.101934 -7.12062,1.101934 L 101.28076,82.31147 98.527451,80.107604 93.59049,78.805321 77.450428,78.104091 76.50101,77.402861 Z"
         id="path72"
         inkscape:label="E wave " />
      <g
         inkscape:groupmode="layer"
         id="g64"
         inkscape:label="E outline "
         style="fill:#ffffff;fill-opacity:1"
         transform="translate(48.583085,81.201148)">
        <path
           style="fill:none;fill-opacity:1;stroke:#000000;stroke-width:1.8469;stroke-linecap:round;stroke-linejoin:round;stroke-dasharray:none;stroke-opacity:1;paint-order:fill markers stroke"
           d="m 49.942144,-42.137846 c -4.430309,-1.510831 -9.07672,-2.133921 -15.263049,1.121589 0.804814,-2.069458 1.713085,-4.129077 -0.189881,-6.456026 3.860956,2.806078 6.867438,2.934088 10.728394,0.680294 m -0.14241,-19.109423 c -7.006973,-3.288863 -14.907954,-3.886971 -25.491805,-0.379765 l 1.614007,63.2415406 27.825205,0.653173 M 42.668592,-16.908602 c -2.124262,-0.759391 -4.435547,-1.0776 -7.040076,-0.752034 1.496947,-3.228012 1.284617,-6.456024 0,-9.684037 6.314315,3.039184 8.004316,3.059017 11.359826,1.659993"
           id="path61"
           sodipodi:nodetypes="cccccccccccc" />
        <path
           id="path62"
           style="fill:none;fill-opacity:1;stroke:#000000;stroke-width:1.8469;stroke-linecap:round;stroke-linejoin:round;stroke-dasharray:none;stroke-opacity:1;paint-order:fill markers stroke"
           d="m 46.130213,-43.216301 c 0.274977,-0.270605 0.493613,-0.409064 0.831608,-0.723909 m 19.15148,2.646683 c 4.7775,5.199263 4.543065,11.648634 0.202425,16.324666"
           sodipodi:nodetypes="cccc" />
        <path
           id="path63"
           style="fill:none;fill-opacity:1;stroke:#000000;stroke-width:1.8469;stroke-linecap:round;stroke-linejoin:round;stroke-dasharray:none;stroke-opacity:1;paint-order:fill markers stroke"
           d="m 45.085161,-65.684121 c 1.188937,-1.534669 2.731828,-2.821704 4.495931,-3.804153 7.093951,-3.950704 16.383759,-0.798646 20.749379,7.040331 4.36563,7.838963 2.15386,17.396388 -4.94008,21.347092 -3.67425,2.046232 -7.937566,2.187053 -11.800666,0.75813 -3.265173,-1.207756 -6.171039,-3.103207 -8.253521,-6.271433"
           sodipodi:nodetypes="cssssc" />
        <path
           id="path64"
           style="fill:none;fill-opacity:1;stroke:#000000;stroke-width:1.8469;stroke-linecap:round;stroke-linejoin:round;stroke-dasharray:none;stroke-opacity:1;paint-order:fill markers stroke"
           d="m 42.724608,-16.973857 c 0.395101,-1.900702 0.814113,-3.805002 1.968343,-5.461811 0.738881,-1.060607 1.371768,-2.302637 2.33851,-3.084731 m 19.482188,0.719367 c 7.3622,5.128938 9.481682,14.276401 4.840202,20.9388916 -2.40401,3.45078001 -6.17333,5.447761 -10.2717,5.858552 -3.693852,0.370244 -9.404874,-1.42317099 -12.001692,-4.50821"
           sodipodi:nodetypes="csccssc" />
        <path
           style="fill:none;fill-opacity:1;stroke:#000000;stroke-width:2.39783;stroke-linecap:round;stroke-linejoin:round;stroke-dasharray:none;stroke-opacity:1;paint-order:fill markers stroke"
           d="m 47.42504,-25.629479 c 0,0 5.28111,10.217925 18.386085,1.402461"
           id="path70" />
      </g>
      <path
         style="fill:none;fill-opacity:1;stroke:#c83737;stroke-width:0.924475;stroke-linecap:round;stroke-linejoin:round;stroke-dasharray:none;stroke-opacity:1;paint-order:fill markers stroke"
         d="m 70.904488,15.212854 c 0,0 11.547016,-4.745941 22.959765,1.062524 0,0 8.593127,-9.7043866 19.200267,-2.620893 0,0 8.34385,6.548031 7.20455,15.163144 0,0 -2.46848,15.226712 -17.94396,11.219683 0,0 -5.696489,-2.604569 -8.354852,-6.611599 0,0 -5.006773,3.887643 -10.713147,-0.504124 0,0 -2.28255,-0.354174 -0.06713,3.045903 0,0 0.402799,2.408388 -0.872744,4.391766 0,0 0.87274,1.133359 2.215416,0.495845 1.342677,-0.637515 6.579114,-3.754252 14.433771,-0.354175 0,0 8.660266,4.462601 15.373646,0.708349 0,0 5.73911,5.439633 0.99204,13.25334 0,0 -11.67781,10.718804 -18.703489,0.100176 0,0 -5.696493,2.404218 -11.962635,-1.40246 0,0 -1.80389,-0.751318 -0.901945,2.10369 0,0 1.80389,4.207381 -0.474708,8.264498 0,0 -0.04747,1.202109 2.136185,0.901582 2.183656,-0.300527 5.838906,0.901581 5.838906,0.901581 0,0 0.759532,-0.05009 1.376652,-2.754832 0.61712,-2.704745 2.943188,-5.40949 2.943188,-5.40949 0,0 5.798976,9.754999 19.829946,0.758961 0,0 7.2001,5.294912 5.45462,13.5826"
         id="path78"
         sodipodi:nodetypes="cccccccccscccccccscsccc" />
      <path
         style="fill:none;fill-opacity:1;stroke:#c83737;stroke-width:0.924475;stroke-linecap:round;stroke-linejoin:round;stroke-dasharray:none;stroke-opacity:1;paint-order:fill markers stroke"
         d="m 165.81728,70.115075 c 2.31259,-8.615113 -2.62763,-13.749119 -2.63463,-13.749119 -1.51906,-1.302284 -0.85447,-2.10369 -0.85447,-2.10369 l 0.18988,-13.123021 c -9.49416,-0.901582 -18.89337,-2.304042 -18.89337,-2.304042 0.47471,-1.502636 0.66459,-10.919155 0.66459,-10.919155 -1.1393,-8.014059 -8.25991,-16.929699 -13.19687,-17.430578 -4.93697,-0.5008785 -11.96264,6.81195 -11.96264,6.81195 7.59532,12.521968 -0.61713,20.185411 -0.61713,20.185411 l 6.36109,13.273284 -0.14241,3.706502 c 0,0 0.42724,1.152021 -1.28171,1.402461 0,0 -3.4179,1.702987 -4.27237,3.055359 0,0 5.36717,5.026856 4.09162,13.031205"
         id="path79"
         sodipodi:nodetypes="ccscccccc" />
      <path
         style="fill:none;fill-opacity:1;stroke:#c83737;stroke-width:0.924475;stroke-linecap:round;stroke-linejoin:round;stroke-dasharray:none;stroke-opacity:1;paint-order:fill markers stroke"
         d="m 142.20056,70.490735 c 0,0 2.08872,-5.710016 -0.75953,-11.219684 l -3.18054,-3.806676 0.37977,-4.207381 c 0,0 0.56965,-0.601055 1.70895,-0.601055 1.1393,0 7.64279,-0.500878 7.64279,-0.500878 0,0 1.04436,0.851493 0.807,3.05536 -0.23735,2.203866 -0.90194,2.203866 -1.89883,2.404217 -0.99688,0.200352 -4.41478,0.901582 -4.55719,1.753076 0,0 4.55699,6.508744 1.8045,13.946413"
         id="path80" />
      <path
         style="fill:none;fill-opacity:1;stroke:#c83737;stroke-width:0.924475;stroke-linecap:round;stroke-linejoin:round;stroke-dasharray:none;stroke-opacity:1;paint-order:fill markers stroke"
         d="m 123.06746,19.392116 11.34562,16.717047 c 0,0 4.49796,-0.70835 5.23643,-6.375145 0,0 -0.4028,-9.633553 -9.9358,-13.883649 0,0 -4.63224,-0.495844 -6.64625,3.541747 z"
         id="path81" />
      <path
         style="fill:none;fill-opacity:1;stroke:#c83737;stroke-width:0.924475;stroke-linecap:round;stroke-linejoin:round;stroke-dasharray:none;stroke-opacity:1;paint-order:fill markers stroke"
         d="m 168.04712,70.818282 c 2.55108,-11.05025 -3.82011,-16.355665 -3.82011,-16.355665 l 0.83167,-18.583147 c -11.81555,3.116737 -18.83005,-2.107862 -18.83005,-2.107862 1.47694,-9.350212 -4.69937,-17.283725 -4.69937,-17.283725 0,0 1.61121,-4.250097 7.78752,-6.6584843 6.17631,-2.4083881 14.50091,3.1167373 14.50091,3.1167373 l 12.1346,-0.2568 c 0,0 5.64902,-6.8119495 16.18753,-2.203866 0,0 9.94414,4.727384 5.11051,16.910994 -4.83364,12.18361 -15.57505,9.775222 -18.39467,9.350212 l -0.48236,3.19046 c 0,0 12.16365,-0.498732 18.87703,12.393227 6.71338,12.891959 -0.13427,21.108812 -0.13427,21.108812"
         id="path82"
         sodipodi:nodetypes="cscccc" />
    </g>
    <g
       inkscape:groupmode="layer"
       id="layer14"
       inkscape:label="S">
      <path
         style="fill:#9a1a1a;fill-opacity:1;stroke:none;stroke-width:1.798;stroke-linecap:round;stroke-linejoin:round;stroke-dasharray:none;stroke-opacity:1;paint-order:fill markers stroke"
         d="m 45.109972,75.755793 20.811481,0.335669 C 69.976334,64.722248 70.012065,53.535724 66.189987,42.524554 L 37.456716,41.584682 c 2.628047,-6.371805 0.351056,-7.70964 0,-11.278481 h 3.222422 l 8.056059,-14.76944 -25.616491,0.02699 c -2.229092,8.929552 -4.761427,17.61651 -1.8545,30.654878 0.536422,2.406003 1.258064,4.960182 2.201009,7.691404 9.074131,-0.822828 18.576477,0.923634 27.222393,-2.468481 -1.220876,3.224173 -0.320399,6.448347 0.552868,9.67252 l -4.35053,-0.178364 z"
         id="path41"
         sodipodi:nodetypes="ccccccccsccccc" />
      <path
         id="path38-8-4-9-5"
         style="fill:#9a1a1a;fill-opacity:1;stroke:none;stroke-width:1.798;stroke-linecap:round;stroke-linejoin:round;stroke-dasharray:none;stroke-opacity:1;paint-order:fill markers stroke"
         d="m 46.040871,75.80359 c -1.363906,1.241319 -3.509062,2.116793 -5.358698,2.730595 -7.4379,2.468277 -16.058626,-2.196686 -19.254936,-10.419498 -3.196319,-8.222797 0.242187,-16.889636 7.680083,-19.357912 3.85239,-1.278425 8.022093,-0.643261 11.591072,1.408713 3.216713,1.84944 6.927174,6.941085 7.355395,10.828109"
         sodipodi:nodetypes="cssssc" />
      <path
         id="path38-8-4-9-5-9"
         style="fill:#9a1a1a;fill-opacity:1;stroke:none;stroke-width:1.798;stroke-linecap:round;stroke-linejoin:round;stroke-dasharray:none;stroke-opacity:1;paint-order:fill markers stroke"
         d="m 43.102221,15.522173 c 0.476611,-0.162971 0.632974,-0.193432 1.013625,-0.387544 6.981405,-3.560161 16.206299,-0.246547 20.604392,7.401185 4.398099,7.647716 2.303896,16.733515 -4.677501,20.293679 -3.615951,1.843959 -7.833753,1.843931 -11.671031,0.352789 -3.458531,-1.343963 -7.799566,-5.425654 -8.80823,-9.203871"
         sodipodi:nodetypes="cssssc" />
      <path
         style="display:inline;fill:#c83737;fill-opacity:1;stroke:none;stroke-width:2.3;stroke-linecap:round;stroke-linejoin:round;stroke-dasharray:none;stroke-opacity:1;paint-order:fill markers stroke"
         d="m 24.033906,70.826174 c 0,0 2.618218,-3.289557 7.653255,-3.088156 5.035037,0.201404 6.176312,0.402805 8.324593,-0.872738 2.148282,-1.275543 11.547015,-2.014014 13.695299,0.268536 2.148282,2.28255 8.324591,0.939871 10.607141,0.134265 2.282549,-0.805603 4.699367,2.148285 4.699367,2.148285 l -2.819619,7.384719 -18.260397,0.134266 c 0,0 -9.533004,2.819622 -10.070074,2.953888 -0.537069,0.134268 -6.579114,-1.275542 -6.579114,-1.275542 -3.063363,-2.446638 -6.42573,-4.824275 -7.250451,-7.787523 z"
         id="path71"
         sodipodi:nodetypes="csssscccscc"
         inkscape:label="S wave " />
      <g
         inkscape:groupmode="layer"
         id="g68"
         inkscape:label="S outline "
         transform="translate(0.53707055,0.53706997)">
        <path
           style="fill:none;fill-opacity:1;stroke:#000000;stroke-width:1.798;stroke-linecap:round;stroke-linejoin:round;stroke-dasharray:none;stroke-opacity:1;paint-order:fill markers stroke"
           d="m 43.083168,15.494145 -19.964462,0.06961 c -2.229092,8.929552 -4.761427,17.61651 -1.8545,30.654878 0.536422,2.406003 0.75456,4.087442 1.697505,6.818664 m 21.193554,0.115968 c 2.31462,-0.323765 4.309136,-0.839462 6.532343,-1.711709 -1.220876,3.224173 -0.320399,6.448347 0.552868,9.67252 l -4.35053,-0.178364 m -0.940801,14.954353 19.972308,0.201401 c 4.054881,-11.369214 4.090612,-22.555738 0.268534,-33.566908 l -5.708536,0.117618 M 45.964338,41.941495 37.456716,41.584682 c 2.628047,-6.371805 0.351056,-7.70964 0,-11.278481 l 1.679622,-0.166147"
           id="path65"
           sodipodi:nodetypes="ccsccccccccccccc" />
        <path
           id="path66"
           style="fill:none;fill-opacity:1;stroke:#000000;stroke-width:1.798;stroke-linecap:round;stroke-linejoin:round;stroke-dasharray:none;stroke-opacity:1;paint-order:fill markers stroke"
           d="m 46.040871,75.80359 c -1.363906,1.241319 -3.509062,2.116793 -5.358698,2.730595 -7.4379,2.468277 -16.058626,-2.196686 -19.254936,-10.419498 -3.196319,-8.222797 0.242187,-16.889636 7.680083,-19.357912 3.85239,-1.278425 8.022093,-0.643261 11.591072,1.408713 3.216713,1.84944 5.685198,6.806817 6.113419,10.693841"
           sodipodi:nodetypes="cssssc" />
        <path
           id="path67"
           style="fill:none;fill-opacity:1;stroke:#000000;stroke-width:1.798;stroke-linecap:round;stroke-linejoin:round;stroke-dasharray:none;stroke-opacity:1;paint-order:fill markers stroke"
           d="m 43.102221,15.522173 c 0.476611,-0.162971 0.632974,-0.193432 1.013625,-0.387544 6.981405,-3.560161 16.206299,-0.246547 20.604392,7.401185 4.398099,7.647716 2.303896,16.733515 -4.677501,20.293679 -3.615951,1.843959 -7.833753,1.843931 -11.671031,0.352789 -3.458531,-1.343963 -7.799566,-5.425654 -8.80823,-9.203871"
           sodipodi:nodetypes="cssssc" />
        <path
           style="fill:#ffffff;fill-opacity:1;stroke:#000000;stroke-width:1.98891;stroke-linecap:round;stroke-linejoin:round;stroke-dasharray:none;stroke-opacity:1;paint-order:fill markers stroke"
           d="m 39.185959,30.259789 c -1.043109,0.81337 0.694427,-2.041585 0.353183,3.905978"
           id="path68"
           sodipodi:nodetypes="cc" />
      </g>
      <path
         style="display:inline;fill:none;fill-opacity:1;stroke:#c83737;stroke-width:0.9;stroke-linecap:round;stroke-linejoin:round;stroke-dasharray:none;stroke-opacity:1;paint-order:fill markers stroke"
         d="m 67.559655,68.302899 c 2.685353,-7.518988 -1.49998,-24.397384 -1.49998,-24.397384 l -5.035037,0.268536 C 52.43151,47.933544 46.426419,43.38829 46.426419,43.38829 c 0,0 -4.604665,-0.284826 -7.168087,-0.332296 -2.563422,-0.04747 -2.231126,-0.759532 -2.231126,-0.759532 l 0.901944,-2.658364 c 1.471594,-2.800776 -0.669882,-8.35374 -0.80415,-8.924377 -0.134268,-0.570638 1.510511,-1.241976 2.886754,-0.87274 0.823124,0.220838 1.054391,1.865132 1.107321,3.15116 0.218083,5.298282 8.991647,13.560677 17.554804,10.111324 4.557195,-1.329182 9.019448,-6.835792 7.880149,-14.05135 C 65.41473,21.836557 58.199172,17.089479 58.199172,17.089479 49.654432,12.81711 44.05288,16.899596 44.05288,16.899596 L 24.542391,17.421774 C 18.37119,38.688682 24.115154,51.36338 24.115154,51.36338 c 0,0 10.391627,-9.606147 20.730235,1.403799 l 6.579114,-1.879747 c 0,0 1.074141,1.007008 0.53707,2.215416 0,0 -0.671338,4.699367 0.671338,8.458861 0,0 0,1.074141 -1.544077,1.007007 -1.544078,-0.06713 -4.497966,0.805606 -4.5651,-1.544078 -0.06713,-2.349683 -2.886754,-7.854656 -5.63924,-9.398734 0,0 -6.515652,-4.155128 -13.256502,-0.357466 -6.74085,3.797662 -6.863105,14.157316 -3.160385,19.474043"
         id="path77"
         sodipodi:nodetypes="ccccscsssccsccccccccsscsc" />
    </g>
  </g>
</svg>
