<?xml version="1.0" encoding="UTF-8" standalone="no"?>
<!-- Created with Inkscape (http://www.inkscape.org/) -->

<svg
   width="210mm"
   height="297mm"
   viewBox="0 0 210 297"
   version="1.1"
   id="svg1"
   xml:space="preserve"
   inkscape:version="1.4 (86a8ad7, 2024-10-11)"
   sodipodi:docname="words.svg"
   xmlns:inkscape="http://www.inkscape.org/namespaces/inkscape"
   xmlns:sodipodi="http://sodipodi.sourceforge.net/DTD/sodipodi-0.dtd"
   xmlns="http://www.w3.org/2000/svg"
   xmlns:svg="http://www.w3.org/2000/svg"><sodipodi:namedview
     id="namedview1"
     pagecolor="#ffffff"
     bordercolor="#000000"
     borderopacity="0.25"
     inkscape:showpageshadow="2"
     inkscape:pageopacity="0.0"
     inkscape:pagecheckerboard="0"
     inkscape:deskcolor="#d1d1d1"
     inkscape:document-units="mm"
     inkscape:zoom="0.24632085"
     inkscape:cx="625.20083"
     inkscape:cy="428.30317"
     inkscape:window-width="1261"
     inkscape:window-height="755"
     inkscape:window-x="83"
     inkscape:window-y="0"
     inkscape:window-maximized="0"
     inkscape:current-layer="layer3" /><defs
     id="defs1" /><g
     inkscape:label="Layer 1"
     inkscape:groupmode="layer"
     id="layer1" /><g
     inkscape:groupmode="layer"
     id="layer2"
     inkscape:label="Layer 2"><text
       xml:space="preserve"
       style="font-weight:bold;font-size:26.2685px;font-family:sans-serif;-inkscape-font-specification:'sans-serif Bold';text-align:start;writing-mode:lr-tb;direction:ltr;text-anchor:start;fill:none;fill-opacity:1;stroke:#ff0000;stroke-width:8.73685;stroke-linecap:round;stroke-linejoin:round;stroke-opacity:1;paint-order:markers stroke fill"
       x="22.393343"
       y="-8.3126106"
       id="text9"
       transform="scale(1.0304883,0.97041378)"><tspan
         sodipodi:role="line"
         id="tspan9"
         style="fill:#ff0000;fill-opacity:1;stroke:none;stroke-width:8.73685"
         x="22.393343"
         y="-8.3126106">SKUD</tspan></text></g><g
     inkscape:groupmode="layer"
     id="layer3"
     inkscape:label="Layer 3"><g
       id="g13"
       transform="matrix(3.0966807,0,0,3.0408637,-124.58972,-23.175781)"><path
         style="fill:#ffffff;fill-opacity:1;stroke:#000000;stroke-width:1.056;stroke-linecap:round;stroke-linejoin:round;stroke-opacity:1;paint-order:markers stroke fill"
         d="m 88.13052,49.322762 0.166068,-18.366949 11.037032,0.567953 4.93696,2.658363 c 3.90741,4.05084 3.16514,8.101679 0,12.152519 l -5.12684,3.038129 z"
         id="path12-9"
         sodipodi:nodetypes="ccccccc" /><path
         style="fill:#ffffff;fill-opacity:1;stroke:#000000;stroke-width:0.812917;stroke-linecap:round;stroke-linejoin:round;stroke-opacity:1;paint-order:markers stroke fill"
         d="m 96.287771,35.587082 c -0.123943,2.85147 0.141376,4.929328 -0.07511,8.465774 h 4.805519 c 1.08139,-0.213365 1.74667,-0.746343 1.57681,-1.920806 l 0.22525,-4.41074 c 0.0364,-0.905879 -0.72086,-1.567879 -2.25258,-1.991946 z"
         id="path13-2"
         sodipodi:nodetypes="ccccccc" /></g><path
       style="fill:#ffffff;fill-opacity:1;stroke:#000000;stroke-width:3.26852;stroke-linecap:round;stroke-linejoin:round;stroke-opacity:1;paint-order:markers stroke fill"
       d="m 96.80966,71.386231 1.763175,56.127669 53.776765,-0.66118 -1.27935,-55.795993 -16.35237,0.03565 c -14.02733,13.909473 -10.32694,27.81895 0.58773,41.728433 l -20.86422,-0.29387 c 9.82124,-14.212105 10.86728,-28.006001 -1.17545,-41.434559 z"
       id="path11-8"
       sodipodi:nodetypes="ccccccccc" /><path
       style="fill:#ffffff;fill-opacity:1;stroke:#000000;stroke-width:3.23522;stroke-linecap:round;stroke-linejoin:round;stroke-opacity:1;paint-order:markers stroke fill"
       d="m 54.002207,127.4715 0.294044,-56.108051 15.583926,-0.287727 c 9.228093,8.823832 2.104067,17.64766 -0.294041,26.471493 L 91.638867,71.363459 H 110.16317 C 109.93412,89.811828 98.260258,94.425546 84.876031,96.971747 98.981048,102.86 108.07781,112.41153 108.10508,127.48377 l -18.524642,0.15305 -15.87779,-22.60854 h -2.940375 c 2.623888,8.00466 9.283848,16.48414 -0.588065,23.0187 z"
       id="path10-1"
       sodipodi:nodetypes="ccccccccccccc" /><path
       style="fill:none;fill-opacity:1;stroke:#000000;stroke-width:2.57421;stroke-linecap:round;stroke-linejoin:round;stroke-opacity:1;paint-order:markers stroke fill"
       d="M 8.6345821,3.8512394 44.638024,3.6875724 V 16.28878 L 21.235788,15.306867 c -0.01999,2.46527 0.01755,4.584944 0.327304,7.037037 l 23.565887,0.81826 -0.81826,25.038757 -38.7855239,0.163643 V 34.945099 L 31.21856,36.581619 30.727605,28.399018 7.9799753,27.744411 C 8.7858857,19.949916 8.4774782,12.133332 8.6345821,3.8512297 Z"
       id="path9"
       sodipodi:nodetypes="cccccccccccccc" /><path
       style="fill:none;fill-opacity:1;stroke:#000000;stroke-width:2.57421;stroke-linecap:round;stroke-linejoin:round;stroke-opacity:1;paint-order:markers stroke fill"
       d="M 55.426454,48.590033 55.657889,3.459455 67.924147,3.2280199 67.692712,24.520399 85.050624,3.4594623 H 99.631277 L 79.727534,24.057521 98.242639,48.127163 83.199114,47.895728 70.932856,30.537813 h -2.314395 l -0.462872,18.51511 z"
       id="path10" /><path
       style="fill:none;fill-opacity:1;stroke:#000000;stroke-width:2.57421;stroke-linecap:round;stroke-linejoin:round;stroke-opacity:1;paint-order:markers stroke fill"
       d="m 105.41725,3.459455 1.38864,44.204824 42.35332,-0.231441 -0.92577,-43.7419455 -12.96056,-0.4628799 0.46287,32.8643234 -16.43217,-0.231435 -0.92575,-32.6328859 z"
       id="path11"
       sodipodi:nodetypes="ccccccccc" /><path
       style="fill:none;fill-opacity:1;stroke:#000000;stroke-width:2.57421;stroke-linecap:round;stroke-linejoin:round;stroke-opacity:1;paint-order:markers stroke fill"
       d="M 159.80539,48.590033 V 3.2280126 L 187.11517,4.8480851 199.15,11.328375 v 29.624176 l -12.4977,7.406042 z"
       id="path12" /><path
       style="fill:none;fill-opacity:1;stroke:#000000;stroke-width:2.5209;stroke-linecap:round;stroke-linejoin:round;stroke-opacity:1;paint-order:markers stroke fill"
       d="m 170.18357,12.690357 -0.22151,27.59453 h 14.17758 l 4.65203,-6.260943 0.66453,-14.376984 -6.64571,-6.492832 z"
       id="path13" /><path
       style="fill:#ffffff;fill-opacity:1;stroke:#000000;stroke-width:3.26852;stroke-linecap:round;stroke-linejoin:round;stroke-opacity:1;paint-order:markers stroke fill"
       d="m 54.425979,71.088155 c 1.909872,4.423866 8.783119,6.484219 0,15.99998 -9.212721,6.158675 -19.410526,2.959023 -29.714242,-1.246752 3.846438,3.1302 2.131554,5.821588 0.415584,8.935055 10.313012,-1.179183 20.389782,-1.295279 29.922033,1.038959 11.926934,10.938313 6.720554,21.400693 -1.038961,31.792163 l -49.2466776,0.20778 c 0.8039443,-6.082 -0.5156588,-11.47678 0,-17.03894 10.1765876,-4.19235 21.2810926,-1.88928 32.6233276,2.07792 4.242954,-3.4632 1.574591,-6.9264 -0.623375,-10.3896 -10.336169,2.73397 -23.228133,3.08334 -31.9999526,-0.83116 C 4.904448,91.29547 3.4565333,80.738555 4.9714956,70.880366 21.388837,71.885213 37.964526,71.162987 54.425969,71.088145 Z"
       id="path9-6"
       sodipodi:nodetypes="cccccccccccccc" /></g></svg>
