<?xml version="1.0" encoding="UTF-8" standalone="no"?>
<!-- Created with Inkscape (http://www.inkscape.org/) -->

<svg
   width="210mm"
   height="297mm"
   viewBox="0 0 210 297"
   version="1.1"
   id="svg1"
   inkscape:version="1.4 (86a8ad7, 2024-10-11)"
   sodipodi:docname="Work on tommrow.svg"
   xmlns:inkscape="http://www.inkscape.org/namespaces/inkscape"
   xmlns:sodipodi="http://sodipodi.sourceforge.net/DTD/sodipodi-0.dtd"
   xmlns="http://www.w3.org/2000/svg"
   xmlns:svg="http://www.w3.org/2000/svg">
  <sodipodi:namedview
     id="namedview1"
     pagecolor="#ffffff"
     bordercolor="#000000"
     borderopacity="0.25"
     inkscape:showpageshadow="2"
     inkscape:pageopacity="0.0"
     inkscape:pagecheckerboard="0"
     inkscape:deskcolor="#d1d1d1"
     inkscape:document-units="mm"
     showguides="true"
     inkscape:lockguides="true"
     inkscape:zoom="0.24632085"
     inkscape:cx="401.91482"
     inkscape:cy="708.42561"
     inkscape:window-width="1147"
     inkscape:window-height="755"
     inkscape:window-x="116"
     inkscape:window-y="0"
     inkscape:window-maximized="0"
     inkscape:current-layer="layer9">
    <sodipodi:guide
       position="59.614828,247.05244"
       orientation="0,-1"
       id="guide1"
       inkscape:locked="true" />
    <sodipodi:guide
       position="40.817359,172.39964"
       orientation="0,-1"
       id="guide2"
       inkscape:locked="true" />
    <sodipodi:guide
       position="39.305802,121.92778"
       orientation="0,-1"
       id="guide9"
       inkscape:locked="true" />
    <sodipodi:guide
       position="28.102699,97.053093"
       orientation="0,-1"
       id="guide10"
       inkscape:locked="true" />
  </sodipodi:namedview>
  <defs
     id="defs1" />
  <g
     inkscape:label="Layer 1"
     inkscape:groupmode="layer"
     id="layer1"
     sodipodi:insensitive="true">
    <rect
       style="fill:#4d4d4d;stroke:#000000;stroke-width:1.147;stroke-linecap:round;stroke-linejoin:round;paint-order:markers stroke fill"
       id="rect1"
       width="1737.8102"
       height="2029.4706"
       x="-808.14246"
       y="-777.76117" />
  </g>
  <g
     inkscape:groupmode="layer"
     id="layer5"
     inkscape:label="CUPO">
    <g
       inkscape:groupmode="layer"
       id="layer10"
       inkscape:label="O"
       transform="matrix(1.0007456,0,0,0.96336074,-3.7780513,6.1519092)">
      <path
         style="fill:#9b7b7b;fill-opacity:1;stroke:none;stroke-width:2.84179;stroke-linecap:round;stroke-linejoin:round;paint-order:markers stroke fill"
         d="m 141.84522,31.843498 c 0,0 -2.58748,-26.81574 21.87599,-28.69753 24.46346,-1.8818 38.34176,3.29315 42.57583,19.99416 4.23407,16.70103 8.93857,37.40086 -7.292,39.51792 -11.17731,1.45793 -31.8925,3.85467 -43.96367,0.37789 -5.45735,-1.57185 -6.5298,-5.80118 -8.72686,-9.31648 -7.05676,-11.29082 -4.46929,-21.87596 -4.46929,-21.87596 z"
         id="path15-1"
         inkscape:label="O fill"
         sodipodi:nodetypes="csssssc" />
      <path
         style="fill:#ff0000;fill-opacity:1;stroke:none;stroke-width:2.84127;stroke-linecap:round;stroke-linejoin:round;stroke-dasharray:none;stroke-opacity:1;paint-order:markers stroke fill"
         d="m 155.64192,58.614248 c 0,0 9.63706,1.9534 11.51746,0.73253 1.88041,-1.22086 6.11131,-0.97669 7.52161,0.24429 1.4103,1.22085 8.93192,0.7325 9.87211,0 0.94021,-0.73253 2.8206,-2.6859 4.23092,-0.97671 1.41029,1.70921 6.34636,2.68589 7.75667,1.46504 1.41029,-1.22086 4.70099,-1.95338 5.64118,-1.22086 0.94022,0.73253 6.11133,-0.73252 6.11133,-0.73252 v 2.19755 l -9.16695,3.90675 -29.38132,-0.48833 -16.68856,-0.24429 z"
         id="path20"
         inkscape:label="O wave " />
      <path
         style="fill:none;stroke:#d83131;stroke-width:2.78278;stroke-linecap:round;stroke-linejoin:round;stroke-opacity:1;paint-order:markers stroke fill"
         d="m 141.84414,31.768748 c 0,0 -2.55204,-26.0709 21.57631,-27.90044 24.12835,-1.82952 37.81655,3.20167 41.99261,19.43882 4.17607,16.23714 8.92305,37.9982 -7.13415,39.60722 -11.86284,1.18874 -27.47158,-0.56311 -45.34884,0.10921 -4.57078,0.17194 -5.34772,-6.60662 -6.67786,-9.98642 -4.77752,-12.13923 -4.40807,-21.26837 -4.40807,-21.26837 z"
         id="path15-2"
         inkscape:label="O inner fill"
         sodipodi:nodetypes="csssssc" />
      <path
         style="fill:none;stroke:#000000;stroke-width:2.84179;stroke-linecap:round;stroke-linejoin:round;paint-order:markers stroke fill"
         d="m 141.84522,31.843498 c 0,0 -2.58748,-26.81574 21.87599,-28.69753 24.46346,-1.8818 38.34176,3.29315 42.57583,19.99416 4.23407,16.70103 9.047,39.08377 -7.23323,40.73876 -12.0276,1.22269 -27.85314,-0.57918 -45.97869,0.11227 -4.63425,0.1769 -5.42198,-6.79539 -6.77061,-10.27173 -4.84387,-12.48604 -4.46929,-21.87598 -4.46929,-21.87598 z"
         id="path15"
         inkscape:label="O"
         sodipodi:nodetypes="csssssc" />
      <path
         style="opacity:1;fill:#6c5d53;fill-opacity:1;stroke:#000000;stroke-width:2.33076;stroke-linecap:round;stroke-linejoin:round;stroke-dasharray:none;stroke-opacity:1;paint-order:markers stroke fill"
         d="m 183.61397,25.387428 -0.38561,24.43665"
         id="path21" />
    </g>
    <g
       inkscape:groupmode="layer"
       id="layer8"
       inkscape:label="U"
       transform="matrix(1.0001911,0,0,0.98914411,-0.0120229,1.6375411)">
      <path
         style="fill:#9b7b7b;fill-opacity:1;stroke:none;stroke-width:2.66558;stroke-linecap:round;stroke-linejoin:round;paint-order:markers stroke fill"
         d="m 85.476184,48.274619 c 0,0 -0.127372,-23.2627 2.48278,-32.7847 2.018094,-7.36217 24.106936,-14.66457005 29.942216,0.12635 5.69814,14.44326 14.20624,50.21369 12.26538,50.39547 -3.38285,0.31686 -34.3516,1.5957 -61.657753,0.59397 -18.267302,-0.67013 -12.608611,-33.03823 -8.977641,-48.09286 4.203075,-17.42673 26.074948,-11.18761 28.427798,-4.31744"
         id="path13-7"
         sodipodi:nodetypes="csssssc"
         inkscape:label="U fill" />
      <path
         style="fill:none;stroke:#db2d2d;stroke-width:2.73139;stroke-linecap:round;stroke-linejoin:round;stroke-dasharray:none;stroke-opacity:1;paint-order:markers stroke fill"
         d="m 88.229631,14.980339 c -2.285894,-6.70623 -23.535396,-12.79646 -27.618872,4.21441 -3.52765,14.69539 -8.136711,46.12696 9.610789,46.78109 26.529156,0.97787 55.808862,0.46818 59.095442,0.15906 1.88563,-0.1774 -6.41016,-35.68959 -11.99714,-49.7674 -5.73364,-14.44731 -25.079383,-5.48313 -29.090219,-0.12338 -7.134183,9.53367 -6.256962,19.56429 5.974509,20.91709 l -1.2e-5,16.82959"
         id="path13-8"
         sodipodi:nodetypes="cssssscc"
         inkscape:label="U inner fill" />
      <path
         style="fill:#ff0000;fill-opacity:1;stroke:none;stroke-width:2.96324;stroke-linecap:round;stroke-linejoin:round;stroke-dasharray:none;stroke-opacity:1;paint-order:markers stroke fill"
         d="m 78.586525,61.056099 c 0,0 8.348916,1.45994 10.230362,0.2655 1.881443,-1.19452 5.526745,-2.12357 6.937822,-0.66362 1.411087,1.45994 6.585051,2.52171 9.407231,1.45994 2.82216,-1.06177 4.8212,-1.59266 5.76192,-0.53091 0.94072,1.06177 7.87856,-0.13278 7.87856,-0.13278 l 5.17397,4.77796 c 0,0 -36.217818,0.5309 -36.805768,0.5309 -0.587952,0 -8.466506,-0.79632 -8.466506,-0.79632 z"
         id="path18"
         inkscape:label="Wave U " />
      <path
         style="fill:none;stroke:#000000;stroke-width:2.66558;stroke-linecap:round;stroke-linejoin:round;paint-order:markers stroke fill"
         d="m 87.958964,14.195359 c -2.35285,-6.87016 -24.224723,-13.10929 -28.427798,4.31743 -3.63097,15.05465 -8.375023,47.25458 9.892277,47.92472 27.306158,1.00178 57.443417,0.47963 60.826267,0.16278 1.94086,-0.18186 -6.5979,-36.56205 -12.34853,-50.98402 -5.90156,-14.80048005 -25.813911,-5.6172 -29.942216,-0.12635 -7.343139,9.76673 -6.440226,20.04256 6.149491,21.42845 l -1.2e-5,17.241"
         id="path13"
         sodipodi:nodetypes="cssssscc"
         inkscape:label="U" />
    </g>
    <g
       inkscape:groupmode="layer"
       id="layer7"
       inkscape:label="C">
      <path
         style="display:inline;fill:#9b7b7b;fill-opacity:1;stroke:none;stroke-width:2.84179;stroke-linecap:round;stroke-linejoin:round;paint-order:markers stroke fill"
         d="m 33.933798,35.424832 c 0,0 -5.156218,26.61274 20.957533,19.62689 C 81.005082,48.065882 72.355944,9.4774216 47.240167,8.6457716 22.124394,7.8141216 2.1255614,6.9850216 4.493455,43.242322 c 2.3286129,35.65587 35.876774,22.97852 69.858438,25.61477 18.541458,1.43841 -6.951058,-23.495 -6.144105,-23.57847"
         id="path12-1"
         sodipodi:nodetypes="cssssc"
         inkscape:label="C fill" />
      <path
         style="fill:#ff0000;fill-opacity:1;stroke:none;stroke-width:2.72064;stroke-linecap:round;stroke-linejoin:round;stroke-dasharray:none;stroke-opacity:1;paint-order:markers stroke fill"
         d="m 8.9069973,55.494072 c 0,0 5.0360147,-4.07525 8.8969647,-0.15659 3.860939,3.91851 7.218283,4.70221 8.896959,3.91851 1.678672,-0.78369 2.685869,-2.8213 8.393354,0.15658 5.707485,2.97808 13.932975,1.72412 14.940184,1.09719 1.0072,-0.62697 7.218283,-1.72414 9.232688,-0.31348 2.014408,1.41066 9.904163,1.72413 11.079234,0.47021 1.175071,-1.25392 6.211084,0.4702 8.393361,2.03764 2.182268,1.5674 -0.839335,4.07523 -0.839335,4.07523 l -20.983402,0.3135 -21.151258,-0.3135 -15.779518,-1.88088 -9.736295,-5.64264 z"
         id="path17"
         inkscape:label="Wave  C " />
      <path
         style="display:inline;fill:none;stroke:#ff0000;stroke-width:3.24481;stroke-linecap:round;stroke-linejoin:round;stroke-dasharray:none;stroke-opacity:1;paint-order:markers stroke fill"
         d="m 33.951919,35.192582 c 0,0 -5.105113,25.30841 20.749822,18.66497 25.854935,-6.64349 17.291522,-43.34068 -7.57533,-44.1316004 -24.86685,-0.79093 -44.6674714,-1.57937 -42.3230479,32.9009704 2.305535,33.90834 35.5211969,21.85232 69.1660679,24.3594 18.357699,1.36792 -6.882167,-22.3435 -6.083214,-22.4229"
         id="path12-9"
         sodipodi:nodetypes="cssssc"
         inkscape:label="C inside fill" />
      <path
         style="display:inline;fill:none;stroke:#000000;stroke-width:2.80031;stroke-linecap:round;stroke-linejoin:round;paint-order:markers stroke fill"
         d="m 33.929028,35.105422 c 0,0 -5.159018,25.82768 20.968915,19.04794 C 81.025873,47.373572 72.372042,9.9234316 47.242625,9.1163116 22.11321,8.3091916 2.1035187,7.5045516 4.4726976,42.692302 c 2.3298777,34.60406 35.8962584,22.30068 69.8963774,24.85917 18.551527,1.396 -6.954834,-22.80191 -6.147444,-22.88293 m -34.292605,-9.56312 c 0,0 -5.159018,25.82768 20.968915,19.04794 C 81.025871,47.373572 72.372039,9.9234316 47.242622,9.1163116 22.113208,8.3091916 2.1035164,7.5045516 4.4726953,42.692302 c 2.3298766,34.60406 35.8962577,22.30068 69.8963777,24.85917 18.551529,1.396 -6.954834,-22.80191 -6.147444,-22.88293"
         id="path12"
         sodipodi:nodetypes="cssssccssssc"
         inkscape:label="C" />
    </g>
    <g
       inkscape:groupmode="layer"
       id="layer9"
       inkscape:label="P"
       transform="matrix(1.0008019,0,0,0.96235804,-1.1253851,6.8722144)">
      <path
         style="fill:#9b7b7b;fill-opacity:1;stroke:none;stroke-width:2.84265;stroke-linecap:round;stroke-linejoin:round;stroke-dasharray:none;paint-order:markers stroke fill"
         d="m 138.84264,28.26401 c 0,0 -9.87947,16.93624 6.3511,20.46464 16.23056,3.52837 29.4032,-2.58749 30.57932,-22.81688 C 176.9492,5.6823505 155.54366,0.0369505 132.49155,2.1539705 109.43944,4.2710005 110.61557,25.4413 110.61557,25.4413 c 0,0 -10.11471,44.69287 37.87132,36.93044 0,0 8.46813,-6.82154 -0.47044,-12.9374"
         id="path14-2"
         inkscape:label="P fill" />
      <path
         style="fill:#9b7b7b;fill-opacity:1;stroke:#db2d2d;stroke-width:2.66125;stroke-linecap:round;stroke-linejoin:round;stroke-dasharray:none;stroke-opacity:1;paint-order:markers stroke fill"
         d="m 139.33445,28.77169 c 0,0 -9.24886,15.85587 5.94569,19.15923 15.19454,3.30328 27.52635,-2.42246 28.62739,-21.36146 C 175.0086,7.6305005 154.96942,2.3452105 133.38876,4.3272005 111.80811,6.3091705 112.90917,26.12903 112.90917,26.12903 c 0,0 -9.46907,41.84194 35.45393,34.57467 0,0 7.92757,-6.38639 -0.44043,-12.11214"
         id="path14-2-2"
         inkscape:label="P inner fill" />
      <path
         style="fill:#ff0000;fill-opacity:1;stroke:none;stroke-width:2.84265;stroke-linecap:round;stroke-linejoin:round;stroke-dasharray:none;stroke-opacity:1;paint-order:markers stroke fill"
         d="m 119.9599,57.92683 c 0,0 6.22849,0.97772 10.45916,0.61106 4.23066,-0.36663 8.57885,1.95542 10.45915,1.46656 1.8803,-0.48884 4.23066,-1.71097 5.40585,-1.83319 1.17519,-0.12214 4.15246,-0.61362 5.56268,-0.002 1.41023,0.61107 0.66581,1.22482 0.66581,1.22482 l -1.1752,2.32204 c 0,0 -17.62777,1.22212 -19.15552,1.22212 -1.52773,0 -12.22193,-5.01074 -12.22193,-5.01074 z"
         id="path19"
         inkscape:label="P wave "
         sodipodi:nodetypes="cssssccscc" />
      <path
         style="fill:none;stroke:#000000;stroke-width:2.84179;stroke-linecap:round;stroke-linejoin:round;paint-order:markers stroke fill"
         d="m 138.84264,28.26401 c 0,0 -9.87947,16.93624 6.3511,20.46464 16.23056,3.52837 29.4032,-2.58749 30.57932,-22.81688 C 176.9492,5.6823505 155.54366,0.0369505 132.49155,2.1539705 113.78482,4.1763705 109.88741,18.21532 109.72844,34.22067 c -0.0989,9.95456 2.86593,25.47394 21.61287,28.60573 5.15818,0.86169 11.04983,0.3611 18.30896,0.49593 0,0 7.30475,-7.77213 -1.63382,-13.88799"
         id="path14"
         inkscape:label="P"
         sodipodi:nodetypes="cssssscc" />
      <path
         style="opacity:1;fill:#6c5d53;fill-opacity:1;stroke:#000000;stroke-width:2.84265;stroke-linecap:round;stroke-linejoin:round;stroke-dasharray:none;stroke-opacity:1;paint-order:markers stroke fill"
         d="m 146.97014,16.59323 13.7943,20.74027"
         id="path22" />
      <path
         style="fill:#6c5d53;fill-opacity:1;stroke:#000000;stroke-width:2.84268;stroke-linecap:round;stroke-linejoin:round;stroke-dasharray:none;stroke-opacity:1;paint-order:markers stroke fill"
         d="M 160.76443,16.59323 146.97014,37.3335"
         id="path22-5" />
    </g>
  </g>
  <g
     inkscape:groupmode="layer"
     id="layer11"
     inkscape:label="Cupo2 " />
</svg>
